<?xml version="1.0" encoding="UTF-8"?>
<svg width="105px" height="55px" viewBox="0 0 105 55" version="1.1" xmlns="http://www.w3.org/2000/svg" xmlns:xlink="http://www.w3.org/1999/xlink">
    <title>forms-widgets.general-drawer-base</title>
    <defs>
        <rect id="path-1" x="0" y="0" width="105" height="55" rx="4"></rect>
        <path d="M0,0 L33,0 C35.209139,-4.05812251e-16 37,1.790861 37,4 L37,51 C37,53.209139 35.209139,55 33,55 L0,55 L0,55 L0,0 Z" id="path-3"></path>
        <filter x="-16.2%" y="-10.9%" width="132.4%" height="121.8%" filterUnits="objectBoundingBox" id="filter-4">
            <feOffset dx="0" dy="0" in="SourceAlpha" result="shadowOffsetOuter1"></feOffset>
            <feGaussianBlur stdDeviation="2" in="shadowOffsetOuter1" result="shadowBlurOuter1"></feGaussianBlur>
            <feColorMatrix values="0 0 0 0 0.6   0 0 0 0 0.6   0 0 0 0 0.6  0 0 0 1 0" type="matrix" in="shadowBlurOuter1"></feColorMatrix>
        </filter>
    </defs>
    <g id="nora" stroke="none" stroke-width="1" fill="none" fill-rule="evenodd">
        <g id="-构件概览图七" transform="translate(-48.000000, -1688.000000)">
            <g id="forms-widgets.general-drawer-base" transform="translate(48.000000, 1688.000000)">
                <mask id="mask-2" fill="white">
                    <use xlink:href="#path-1"></use>
                </mask>
                <use id="矩形备份-46" fill="#D6DBEC" xlink:href="#path-1"></use>
                <g id="basic-bricks.general-drawer" mask="url(#mask-2)">
                    <g transform="translate(68.000000, 0.000000)">
                        <rect id="矩形备份-43" stroke="none" fill="#1A7AFF" fill-rule="evenodd" transform="translate(26.000000, 48.500000) rotate(-180.000000) translate(-26.000000, -48.500000) " x="20" y="46" width="12" height="5" rx="1"></rect>
                        <rect id="矩形备份-43" stroke="#D6DBEC" stroke-width="1" fill="none" transform="translate(12.000000, 48.500000) rotate(-180.000000) translate(-12.000000, -48.500000) " x="6" y="46" width="12" height="5" rx="1"></rect>
                        <g id="矩形备份-80" stroke="none" fill="none">
                            <use fill="black" fill-opacity="1" filter="url(#filter-4)" xlink:href="#path-3"></use>
                            <use fill="#F4F5F9" fill-rule="evenodd" xlink:href="#path-3"></use>
                        </g>
                        <rect id="矩形备份-43" stroke="none" fill="#1A7AFF" fill-rule="evenodd" transform="translate(26.000000, 48.500000) rotate(-180.000000) translate(-26.000000, -48.500000) " x="20" y="46" width="12" height="5" rx="1"></rect>
                        <rect id="矩形备份-43" stroke="#D6DBEC" stroke-width="1" fill="none" transform="translate(12.000000, 48.500000) rotate(-180.000000) translate(-12.000000, -48.500000) " x="6" y="46" width="12" height="5" rx="1"></rect>
                        <g id="编组" stroke="none" stroke-width="1" fill="none" fill-rule="evenodd" transform="translate(25.621320, 5.378680)">
                            <path d="M5.66256257,3.70710678 L0.337437429,3.70710678 C-0.142696805,3.70710678 -0.535533906,3.38890873 -0.535533906,3 C-0.535533906,2.61109127 -0.142696805,2.29289322 0.337437429,2.29289322 L5.66256257,2.29289322 C6.14269681,2.29289322 6.53553391,2.61109127 6.53553391,3 C6.53553391,3.38890873 6.14269681,3.70710678 5.66256257,3.70710678 Z" id="路径" fill="#778DC3" fill-rule="nonzero" transform="translate(3.000000, 3.000000) rotate(-45.000000) translate(-3.000000, -3.000000) "></path>
                            <path d="M3.70710678,0.337437429 L3.70710678,5.66256257 C3.70710678,6.14269681 3.38890873,6.53553391 3,6.53553391 C2.61109127,6.53553391 2.29289322,6.14269681 2.29289322,5.66256257 L2.29289322,0.337437429 C2.29289322,-0.142696805 2.61109127,-0.535533906 3,-0.535533906 C3.38890873,-0.535533906 3.70710678,-0.142696805 3.70710678,0.337437429 Z" id="形状" fill="#778DC3" fill-rule="nonzero" transform="translate(3.000000, 3.000000) rotate(-45.000000) translate(-3.000000, -3.000000) "></path>
                        </g>
                    </g>
                </g>
            </g>
        </g>
    </g>
</svg>