<?xml version="1.0" encoding="UTF-8"?>
<svg width="105px" height="55px" viewBox="0 0 105 55" version="1.1" xmlns="http://www.w3.org/2000/svg" xmlns:xlink="http://www.w3.org/1999/xlink">
    <title>basic-bricks.easy-view</title>
    <g id="lydia" stroke="none" stroke-width="1" fill="none" fill-rule="evenodd">
        <g id="构件概览图二" transform="translate(-719.000000, -537.000000)">
            <g id="basic-bricks.easy-view" transform="translate(719.000000, 537.000000)">
                <rect id="矩形备份-117" fill="#FFFFFF" x="0" y="0" width="105" height="55" rx="4"></rect>
                <rect id="矩形备份-76" fill="#778DC3" x="22" y="11" width="1" height="4"></rect>
                <rect id="矩形备份-90" fill="#778DC3" x="22.8202564" y="11" width="1" height="4"></rect>
                <rect id="矩形备份-91" fill="#778DC3" x="23.6405128" y="11" width="1" height="4"></rect>
                <rect id="矩形备份-92" fill="#778DC3" x="24.4607692" y="11" width="1" height="4"></rect>
                <rect id="矩形备份-93" fill="#778DC3" x="25.2810256" y="11" width="1" height="4"></rect>
                <rect id="矩形备份-94" fill="#778DC3" x="26.1012821" y="11" width="1" height="4"></rect>
                <rect id="矩形备份-95" fill="#778DC3" x="26.9215385" y="11" width="1" height="4"></rect>
                <rect id="矩形备份-96" fill="#778DC3" x="27.7417949" y="11" width="1" height="4"></rect>
                <rect id="矩形备份-97" fill="#778DC3" x="28.5620513" y="11" width="1" height="4"></rect>
                <rect id="矩形备份-98" fill="#778DC3" x="30.2025641" y="11" width="1" height="4"></rect>
                <rect id="矩形备份-99" fill="#778DC3" x="37.5848718" y="11" width="1" height="4"></rect>
                <rect id="矩形备份-100" fill="#778DC3" x="29.3823077" y="11" width="1" height="4"></rect>
                <rect id="矩形备份-101" fill="#778DC3" x="31.0228205" y="11" width="1" height="4"></rect>
                <rect id="矩形备份-102" fill="#778DC3" x="31.8430769" y="11" width="1" height="4"></rect>
                <rect id="矩形备份-103" fill="#778DC3" x="32.6633333" y="11" width="1" height="4"></rect>
                <rect id="矩形备份-104" fill="#778DC3" x="33.4835897" y="11" width="1" height="4"></rect>
                <rect id="矩形备份-105" fill="#778DC3" x="34.3038462" y="11" width="1" height="4"></rect>
                <rect id="矩形备份-106" fill="#778DC3" x="35.1241026" y="11" width="1" height="4"></rect>
                <rect id="矩形备份-107" fill="#778DC3" x="35.944359" y="11" width="1" height="4"></rect>
                <rect id="矩形备份-108" fill="#778DC3" x="36.7646154" y="11" width="1" height="4"></rect>
                <rect id="矩形备份-43" fill="#1A7AFF" x="88" y="11" width="12" height="5" rx="1"></rect>
                <rect id="矩形" fill="#F4F5F9" x="22" y="17" width="21.5454545" height="35" rx="2"></rect>
                <rect id="矩形备份-122" fill="#F4F5F9" x="45.5974026" y="32.2564103" width="54" height="19.7435897" rx="2"></rect>
                <rect id="矩形备份-123" fill="#F4F5F9" x="46" y="17" width="54" height="13.4615385" rx="2"></rect>
                <path d="M4,0 L18,0 L18,0 L18,55 L4,55 C1.790861,55 2.705415e-16,53.209139 0,51 L0,4 C-2.705415e-16,1.790861 1.790861,2.18216909e-15 4,0 Z" id="矩形备份-117" fill="#D6DBEC"></path>
                <path d="M4,0 L101,0 C103.209139,-4.05812251e-16 105,1.790861 105,4 L105,9 L105,9 L0,9 L0,4 C-2.705415e-16,1.790861 1.790861,4.05812251e-16 4,0 Z" id="矩形备份-117" fill="#778DC3"></path>
            </g>
        </g>
    </g>
</svg>