<?xml version="1.0" encoding="UTF-8"?>
<svg width="109px" height="63px" viewBox="0 0 109 63" version="1.1" xmlns="http://www.w3.org/2000/svg" xmlns:xlink="http://www.w3.org/1999/xlink">
    <title>basic-bricks.general-modal[full-screen]</title>
    <defs>
        <rect id="path-1" x="0" y="0" width="93" height="47" rx="1"></rect>
        <filter x="-15.1%" y="-21.3%" width="130.1%" height="159.6%" filterUnits="objectBoundingBox" id="filter-2">
            <feOffset dx="0" dy="4" in="SourceAlpha" result="shadowOffsetOuter1"></feOffset>
            <feGaussianBlur stdDeviation="4" in="shadowOffsetOuter1" result="shadowBlurOuter1"></feGaussianBlur>
            <feColorMatrix values="0 0 0 0 0.6   0 0 0 0 0.6   0 0 0 0 0.6  0 0 0 0.5 0" type="matrix" in="shadowBlurOuter1"></feColorMatrix>
        </filter>
    </defs>
    <g id="snippet截图" stroke="none" stroke-width="1" fill="none" fill-rule="evenodd">
        <g id="snippet" transform="translate(-426.000000, -400.000000)">
            <g id="basic-bricks.general-modal[full-screen]" transform="translate(428.000000, 400.000000)">
                <rect id="矩形备份-52" x="0" y="0" width="105" height="55" rx="4"></rect>
                <g id="编组-2备份" transform="translate(6.000000, 4.000000)">
                    <g id="矩形">
                        <use fill="black" fill-opacity="1" filter="url(#filter-2)" xlink:href="#path-1"></use>
                        <use fill="#FFFFFF" fill-rule="evenodd" xlink:href="#path-1"></use>
                    </g>
                    <g id="编组" transform="translate(83.000000, 2.000000)" fill="#778DC3" fill-rule="nonzero">
                        <path d="M5.66256257,3.70710678 L0.337437429,3.70710678 C-0.142696805,3.70710678 -0.535533906,3.38890873 -0.535533906,3 C-0.535533906,2.61109127 -0.142696805,2.29289322 0.337437429,2.29289322 L5.66256257,2.29289322 C6.14269681,2.29289322 6.53553391,2.61109127 6.53553391,3 C6.53553391,3.38890873 6.14269681,3.70710678 5.66256257,3.70710678 Z" id="路径" transform="translate(3.000000, 3.000000) rotate(-45.000000) translate(-3.000000, -3.000000) "></path>
                        <path d="M3.70710678,0.337437429 L3.70710678,5.66256257 C3.70710678,6.14269681 3.38890873,6.53553391 3,6.53553391 C2.61109127,6.53553391 2.29289322,6.14269681 2.29289322,5.66256257 L2.29289322,0.337437429 C2.29289322,-0.142696805 2.61109127,-0.535533906 3,-0.535533906 C3.38890873,-0.535533906 3.70710678,-0.142696805 3.70710678,0.337437429 Z" id="形状" transform="translate(3.000000, 3.000000) rotate(-45.000000) translate(-3.000000, -3.000000) "></path>
                    </g>
                    <rect id="矩形备份-28" fill="#F4F5F9" x="6" y="14.2426407" width="81" height="3" rx="1"></rect>
                    <rect id="矩形备份-37" fill="#F4F5F9" x="6" y="21.2426407" width="81" height="3" rx="1"></rect>
                    <rect id="矩形备份-38" fill="#F4F5F9" x="6" y="28.2426407" width="35" height="3" rx="1"></rect>
                    <path d="M0,38 L93,38 L93,46 C93,46.5522847 92.5522847,47 92,47 L1,47 C0.44771525,47 -9.31565347e-16,46.5522847 0,46 L0,38 L0,38 Z" id="矩形备份-39" fill="#F4F5F9"></path>
                    <rect id="矩形" fill="#778DC3" x="6" y="3.24264069" width="16" height="4" rx="1"></rect>
                    <rect id="矩形备份-4" fill="#4886F6" x="82" y="41" width="8" height="4" rx="1"></rect>
                    <rect id="矩形备份-5" fill="#D6DBEC" x="72" y="41" width="8" height="4" rx="1"></rect>
                    <line x1="0" y1="10.2426407" x2="93" y2="10.2426407" id="路径" stroke="#F4F5F9"></line>
                </g>
            </g>
        </g>
    </g>
</svg>