<?xml version="1.0" encoding="UTF-8"?>
<svg width="105px" height="55px" viewBox="0 0 105 55" version="1.1" xmlns="http://www.w3.org/2000/svg" xmlns:xlink="http://www.w3.org/1999/xlink">
    <title>basic-bricks-widgets.general-modal-base</title>
    <defs>
        <rect id="path-1" x="0" y="0" width="105" height="55" rx="4"></rect>
        <rect id="path-3" x="0" y="0" width="80" height="46" rx="1"></rect>
        <filter x="-17.5%" y="-21.7%" width="135.0%" height="160.9%" filterUnits="objectBoundingBox" id="filter-4">
            <feOffset dx="0" dy="4" in="SourceAlpha" result="shadowOffsetOuter1"></feOffset>
            <feGaussianBlur stdDeviation="4" in="shadowOffsetOuter1" result="shadowBlurOuter1"></feGaussianBlur>
            <feColorMatrix values="0 0 0 0 0.6   0 0 0 0 0.6   0 0 0 0 0.6  0 0 0 0.5 0" type="matrix" in="shadowBlurOuter1"></feColorMatrix>
        </filter>
    </defs>
    <g id="nora" stroke="none" stroke-width="1" fill="none" fill-rule="evenodd">
        <g id="-构件概览图七" transform="translate(-573.000000, -103.000000)">
            <g id="basic-bricks-widgets.general-modal-base" transform="translate(573.000000, 103.000000)">
                <mask id="mask-2" fill="white">
                    <use xlink:href="#path-1"></use>
                </mask>
                <g id="矩形备份-46"></g>
                <g id="编组-2备份" mask="url(#mask-2)">
                    <g transform="translate(12.000000, 4.000000)">
                        <g id="矩形" stroke="none" fill="none">
                            <use fill="black" fill-opacity="1" filter="url(#filter-4)" xlink:href="#path-3"></use>
                            <use fill="#FFFFFF" fill-rule="evenodd" xlink:href="#path-3"></use>
                        </g>
                        <g id="编组-13" stroke="none" stroke-width="1" fill="none" fill-rule="evenodd" transform="translate(73.500000, 5.242641) rotate(-315.000000) translate(-73.500000, -5.242641) translate(70.500000, 2.242641)">
                            <rect id="矩形" fill="#D6DBEC" x="2.5" y="0" width="1" height="6"></rect>
                            <rect id="矩形" fill="#D6DBEC" transform="translate(3.000000, 3.000000) rotate(-90.000000) translate(-3.000000, -3.000000) " x="2.5" y="0" width="1" height="6"></rect>
                        </g>
                        <rect id="矩形备份-28" stroke="none" fill="#F4F5F9" fill-rule="evenodd" x="6" y="14.2426407" width="70" height="3" rx="1"></rect>
                        <rect id="矩形备份-37" stroke="none" fill="#F4F5F9" fill-rule="evenodd" x="6" y="21.2426407" width="70" height="3" rx="1"></rect>
                        <rect id="矩形备份-38" stroke="none" fill="#F4F5F9" fill-rule="evenodd" x="6" y="28.2426407" width="35" height="3" rx="1"></rect>
                        <path d="M0,37 L80,37 L80,45 C80,45.5522847 79.5522847,46 79,46 L1,46 C0.44771525,46 9.55813795e-16,45.5522847 0,45 L0,37 L0,37 Z" id="矩形备份-39" stroke="none" fill="#F4F5F9" fill-rule="evenodd"></path>
                        <rect id="矩形" stroke="none" fill="#4886F6" fill-rule="evenodd" x="6" y="3.24264069" width="16" height="4" rx="1"></rect>
                        <rect id="矩形备份-4" stroke="none" fill="#4886F6" fill-rule="evenodd" x="68" y="40" width="8" height="4" rx="1"></rect>
                        <rect id="矩形备份-5" stroke="none" fill="#D6DBEC" fill-rule="evenodd" x="58" y="40" width="8" height="4" rx="1"></rect>
                        <line x1="0" y1="10.2426407" x2="80" y2="10.2426407" id="路径" stroke="#F4F5F9" stroke-width="1" fill="none"></line>
                    </g>
                </g>
            </g>
        </g>
    </g>
</svg>