<?xml version="1.0" encoding="UTF-8"?>
<svg width="105px" height="55px" viewBox="0 0 105 55" version="1.1" xmlns="http://www.w3.org/2000/svg" xmlns:xlink="http://www.w3.org/1999/xlink">
    <title>basic-bricks.micro-view</title>
    <g id="nora" stroke="none" stroke-width="1" fill="none" fill-rule="evenodd">
        <g id="构件概览图一" transform="translate(-552.000000, -104.000000)">
            <g id="basic-bricks.micro-view" transform="translate(552.000000, 104.000000)">
                <rect id="矩形" x="0" y="0" width="105" height="55" rx="4"></rect>
                <g id="编组-2" transform="translate(4.000000, 4.000000)">
                    <rect id="矩形" fill="#F4F5F9" x="0" y="26" width="97" height="21" rx="1"></rect>
                    <rect id="矩形备份-23" fill="#F4F5F9" x="0" y="8" width="97" height="14" rx="1"></rect>
                    <g id="编组-4" fill="#778DC3">
                        <rect id="矩形备份-76" x="0.82025641" y="0" width="1" height="4"></rect>
                        <rect id="矩形备份-90" x="1.64051282" y="0" width="1" height="4"></rect>
                        <rect id="矩形备份-91" x="2.46076923" y="0" width="1" height="4"></rect>
                        <rect id="矩形备份-92" x="3.28102564" y="0" width="1" height="4"></rect>
                        <rect id="矩形备份-93" x="0" y="0" width="1" height="4"></rect>
                        <rect id="矩形备份-94" x="4.10128205" y="0" width="1" height="4"></rect>
                        <rect id="矩形备份-95" x="4.92153846" y="0" width="1" height="4"></rect>
                        <rect id="矩形备份-96" x="5.74179487" y="0" width="1" height="4"></rect>
                        <rect id="矩形备份-97" x="6.56205128" y="0" width="1" height="4"></rect>
                        <rect id="矩形备份-98" x="8.2025641" y="0" width="1" height="4"></rect>
                        <rect id="矩形备份-99" x="15.5848718" y="0" width="1" height="4"></rect>
                        <rect id="矩形备份-100" x="7.38230769" y="0" width="1" height="4"></rect>
                        <rect id="矩形备份-101" x="9.02282051" y="0" width="1" height="4"></rect>
                        <rect id="矩形备份-102" x="9.84307692" y="0" width="1" height="4"></rect>
                        <rect id="矩形备份-103" x="10.6633333" y="0" width="1" height="4"></rect>
                        <rect id="矩形备份-104" x="11.4835897" y="0" width="1" height="4"></rect>
                        <rect id="矩形备份-105" x="12.3038462" y="0" width="1" height="4"></rect>
                        <rect id="矩形备份-106" x="13.1241026" y="0" width="1" height="4"></rect>
                        <rect id="矩形备份-107" x="13.944359" y="0" width="1" height="4"></rect>
                        <rect id="矩形备份-108" x="14.7646154" y="0" width="1" height="4"></rect>
                    </g>
                    <rect id="矩形备份-24" fill="#D6DBEC" x="86" y="0" width="12" height="4" rx="1"></rect>
                    <rect id="矩形备份-26" fill="#F7BF05" x="72" y="0" width="12" height="4" rx="1"></rect>
                </g>
            </g>
        </g>
    </g>
</svg>