<?xml version="1.0" encoding="UTF-8"?>
<svg width="105px" height="55px" viewBox="0 0 105 55" version="1.1" xmlns="http://www.w3.org/2000/svg" xmlns:xlink="http://www.w3.org/1999/xlink">
    <title>basic-bricks.general-modal</title>
    <g id="nora" stroke="none" stroke-width="1" fill="none" fill-rule="evenodd">
        <g id="构件概览图一" transform="translate(-1494.000000, -105.000000)">
            <g id="basic-bricks.general-modal" transform="translate(1494.000000, 105.000000)">
                <rect id="矩形备份-52" x="0" y="0" width="105" height="55" rx="4"></rect>
                <g id="编组-2备份" transform="translate(11.000000, 5.000000)">
                    <rect id="矩形" stroke="#F4F5F9" x="0.5" y="-0.5" width="79" height="46" rx="1"></rect>
                    <g id="编组" transform="translate(69.000000, 1.500000)" fill="#778DC3" fill-rule="nonzero">
                        <path d="M5.66256257,3.70710678 L0.337437429,3.70710678 C-0.142696805,3.70710678 -0.535533906,3.38890873 -0.535533906,3 C-0.535533906,2.61109127 -0.142696805,2.29289322 0.337437429,2.29289322 L5.66256257,2.29289322 C6.14269681,2.29289322 6.53553391,2.61109127 6.53553391,3 C6.53553391,3.38890873 6.14269681,3.70710678 5.66256257,3.70710678 Z" id="路径" transform="translate(3.000000, 3.000000) rotate(-45.000000) translate(-3.000000, -3.000000) "></path>
                        <path d="M3.70710678,0.337437429 L3.70710678,5.66256257 C3.70710678,6.14269681 3.38890873,6.53553391 3,6.53553391 C2.61109127,6.53553391 2.29289322,6.14269681 2.29289322,5.66256257 L2.29289322,0.337437429 C2.29289322,-0.142696805 2.61109127,-0.535533906 3,-0.535533906 C3.38890873,-0.535533906 3.70710678,-0.142696805 3.70710678,0.337437429 Z" id="形状" transform="translate(3.000000, 3.000000) rotate(-45.000000) translate(-3.000000, -3.000000) "></path>
                    </g>
                    <rect id="矩形备份-28" fill="#F4F5F9" x="6" y="13.2426407" width="70" height="3" rx="1"></rect>
                    <rect id="矩形备份-37" fill="#F4F5F9" x="6" y="20.2426407" width="70" height="3" rx="1"></rect>
                    <rect id="矩形备份-38" fill="#F4F5F9" x="6" y="27.2426407" width="35" height="3" rx="1"></rect>
                    <rect id="矩形备份-39" fill="#F4F5F9" x="0" y="36" width="80" height="9" rx="1"></rect>
                    <rect id="矩形" fill="#1A7AFF" x="6" y="2.24264069" width="16" height="4" rx="1"></rect>
                    <rect id="矩形备份-4" fill="#1A7AFF" x="68" y="39" width="8" height="4" rx="1"></rect>
                    <rect id="矩形备份-5" fill="#D6DBEC" x="58" y="39" width="8" height="4" rx="1"></rect>
                    <line x1="1" y1="9.24264069" x2="79" y2="9.24264069" id="路径" stroke="#F4F5F9"></line>
                </g>
            </g>
        </g>
    </g>
</svg>