<?xml version="1.0" encoding="UTF-8"?>
<svg width="105px" height="55px" viewBox="0 0 105 55" version="1.1" xmlns="http://www.w3.org/2000/svg" xmlns:xlink="http://www.w3.org/1999/xlink">
    <title>container-brick.search-bar[basic]</title>
    <defs>
        <rect id="path-1" x="0" y="0" width="73" height="17" rx="1"></rect>
    </defs>
    <g id="snippet截图" stroke="none" stroke-width="1" fill="none" fill-rule="evenodd">
        <g id="snippet" transform="translate(-9307.000000, -838.000000)">
            <g id="container-brick.search-bar[basic]" transform="translate(9307.000000, 838.000000)">
                <rect id="矩形备份-22" x="0" y="0" width="105" height="55" rx="4"></rect>
                <g id="编组-7" transform="translate(16.000000, 19.000000)">
                    <g id="矩形备份-76">
                        <use stroke="#1A7AFF" stroke-width="2" xlink:href="#path-1"></use>
                        <rect stroke="#C6DEFF" stroke-width="1" x="-0.5" y="-0.5" width="74" height="18" rx="1"></rect>
                    </g>
                    <g id="通用图标/search-Line" transform="translate(56.000000, 3.000000)">
                        <rect id="矩形" fill="#000000" fill-rule="nonzero" opacity="0" x="0" y="0" width="12" height="12"></rect>
                        <path d="M10.659375,10.0136719 L7.61601562,6.9703125 C8.08828125,6.35976563 8.34375,5.61328125 8.34375,4.828125 C8.34375,3.88828125 7.97695312,3.00703125 7.31367187,2.34257813 C6.65039062,1.678125 5.76679687,1.3125 4.828125,1.3125 C3.88945312,1.3125 3.00585937,1.67929688 2.34257812,2.34257813 C1.678125,3.00585938 1.3125,3.88828125 1.3125,4.828125 C1.3125,5.76679687 1.67929687,6.65039062 2.34257812,7.31367188 C3.00585937,7.978125 3.88828125,8.34375 4.828125,8.34375 C5.61328125,8.34375 6.35859375,8.08828125 6.96914062,7.6171875 L10.0125,10.659375 C10.05,10.696875 10.1109375,10.696875 10.1484375,10.659375 L10.659375,10.1496094 C10.696875,10.1121094 10.696875,10.0511719 10.659375,10.0136719 Z M6.684375,6.684375 C6.1875,7.18007813 5.52890625,7.453125 4.828125,7.453125 C4.12734375,7.453125 3.46875,7.18007813 2.971875,6.684375 C2.47617188,6.1875 2.203125,5.52890625 2.203125,4.828125 C2.203125,4.12734375 2.47617188,3.46757812 2.971875,2.971875 C3.46875,2.47617188 4.12734375,2.203125 4.828125,2.203125 C5.52890625,2.203125 6.18867187,2.475 6.684375,2.971875 C7.18007812,3.46875 7.453125,4.12734375 7.453125,4.828125 C7.453125,5.52890625 7.18007812,6.18867188 6.684375,6.684375 Z" id="形状" fill="#595959"></path>
                    </g>
                </g>
            </g>
        </g>
    </g>
</svg>