<?xml version="1.0" encoding="UTF-8"?>
<svg width="105px" height="55px" viewBox="0 0 105 55" version="1.1" xmlns="http://www.w3.org/2000/svg" xmlns:xlink="http://www.w3.org/1999/xlink">
    <title>container-brick.tabs-container</title>
    <g id="lydia" stroke="none" stroke-width="1" fill="none" fill-rule="evenodd">
        <g id="构件概览图二" transform="translate(-528.000000, -537.000000)">
            <g id="container-brick.tabs-container" transform="translate(528.000000, 537.000000)">
                <rect id="矩形备份-116" x="0" y="0" width="105" height="55" rx="4"></rect>
                <rect id="矩形备份-118" fill="#D6DBEC" x="11" y="34" width="44" height="4" rx="1"></rect>
                <rect id="矩形备份-120" fill="#D6DBEC" x="11" y="26" width="65" height="4" rx="1"></rect>
                <path d="M4,0 L101,0 C103.209139,-4.05812251e-16 105,1.790861 105,4 L105,17 L105,17 L0,17 L0,4 C-2.705415e-16,1.790861 1.790861,1.29399067e-15 4,0 Z" id="矩形备份-116"></path>
                <rect id="矩形备份-43" fill="#1A7AFF" x="11" y="7" width="16" height="6.66666667" rx="1"></rect>
                <rect id="矩形备份-119" fill="#D6DBEC" x="35" y="7" width="16" height="6.66666667" rx="1"></rect>
                <rect id="矩形备份-121" fill="#D6DBEC" x="59" y="7" width="16" height="6.66666667" rx="1"></rect>
                <rect id="矩形" fill="#F4F5F9" x="0" y="18" width="105" height="1"></rect>
                <rect id="矩形" fill="#1A7AFF" x="10" y="18" width="18" height="1"></rect>
            </g>
        </g>
    </g>
</svg>