<?xml version="1.0" encoding="UTF-8"?>
<svg width="95.4483984px" height="84.3292077px" viewBox="0 0 95.4483984 84.3292077" version="1.1" xmlns="http://www.w3.org/2000/svg" xmlns:xlink="http://www.w3.org/1999/xlink">
    <title>图标-云上传</title>
    <defs>
        <linearGradient x1="48.9333097%" y1="18.0728346%" x2="50%" y2="100%" id="linearGradient-1">
            <stop stop-color="#FFFFFF" stop-opacity="0" offset="0%"></stop>
            <stop stop-color="#006FFF" offset="100%"></stop>
        </linearGradient>
        <linearGradient x1="48.9259116%" y1="18.0728346%" x2="50%" y2="100%" id="linearGradient-2">
            <stop stop-color="#FFFFFF" stop-opacity="0" offset="0%"></stop>
            <stop stop-color="#006FFF" offset="100%"></stop>
        </linearGradient>
        <linearGradient x1="4.75041233%" y1="53.5193801%" x2="93.7464952%" y2="53.5193801%" id="linearGradient-3">
            <stop stop-color="#1DB8A8" offset="0%"></stop>
            <stop stop-color="#199AA4" offset="33.0455989%"></stop>
            <stop stop-color="#024E51" offset="100%"></stop>
        </linearGradient>
        <polygon id="path-4" points="71.1636621 49.1452008 41.0936621 35.0652008 11.0036621 49.1452008 41.0936621 62.2452008"></polygon>
        <mask id="mask-5" maskContentUnits="userSpaceOnUse" maskUnits="objectBoundingBox" x="0" y="0" width="60.16" height="27.18" fill="white">
            <use xlink:href="#path-4"></use>
        </mask>
        <linearGradient x1="2.33283676%" y1="37.8784877%" x2="96.6977954%" y2="61.6599888%" id="linearGradient-6">
            <stop stop-color="#089A9F" offset="0%"></stop>
            <stop stop-color="#03CDE6" offset="100%"></stop>
        </linearGradient>
        <linearGradient x1="50%" y1="0%" x2="50%" y2="100%" id="linearGradient-7">
            <stop stop-color="#003D3D" offset="0%"></stop>
            <stop stop-color="#03CDE6" offset="100%"></stop>
        </linearGradient>
        <linearGradient x1="3.81412134%" y1="50.5591905%" x2="98.3134508%" y2="50.3630189%" id="linearGradient-8">
            <stop stop-color="#1DB883" offset="0%"></stop>
            <stop stop-color="#198CA4" offset="33.0455989%"></stop>
            <stop stop-color="#024E51" offset="100%"></stop>
        </linearGradient>
        <linearGradient x1="50%" y1="0%" x2="50%" y2="100%" id="linearGradient-9">
            <stop stop-color="#083B9F" offset="0%"></stop>
            <stop stop-color="#03CDE6" offset="100%"></stop>
        </linearGradient>
        <linearGradient x1="96.2251902%" y1="38.0728626%" x2="0%" y2="61.5068767%" id="linearGradient-10">
            <stop stop-color="#089F90" offset="0%"></stop>
            <stop stop-color="#03D0E8" offset="100%"></stop>
        </linearGradient>
        <linearGradient x1="50%" y1="0%" x2="50%" y2="100%" id="linearGradient-11">
            <stop stop-color="#089F4E" offset="0%"></stop>
            <stop stop-color="#03CDE6" offset="100%"></stop>
        </linearGradient>
        <linearGradient x1="50%" y1="0%" x2="50%" y2="100%" id="linearGradient-12">
            <stop stop-color="#1D70B8" offset="0%"></stop>
            <stop stop-color="#195BA4" offset="33.0455989%"></stop>
            <stop stop-color="#02513E" offset="100%"></stop>
        </linearGradient>
        <linearGradient x1="4.75041233%" y1="53.5193801%" x2="93.7464952%" y2="53.5193801%" id="linearGradient-13">
            <stop stop-color="#FFFFFF" stop-opacity="0.4" offset="0%"></stop>
            <stop stop-color="#FEFEFF" offset="52.1892011%"></stop>
            <stop stop-color="#FFFFFF" stop-opacity="0.4" offset="100%"></stop>
        </linearGradient>
        <linearGradient x1="4.75041233%" y1="53.5193801%" x2="93.7464952%" y2="53.5193801%" id="linearGradient-14">
            <stop stop-color="#FFFFFF" stop-opacity="0.4" offset="0%"></stop>
            <stop stop-color="#FEFEFF" offset="52.1892011%"></stop>
            <stop stop-color="#FFFFFF" stop-opacity="0.4" offset="100%"></stop>
        </linearGradient>
        <linearGradient x1="0%" y1="38.5234634%" x2="86.4321307%" y2="58.1753517%" id="linearGradient-15">
            <stop stop-color="#139DAF" offset="0%"></stop>
            <stop stop-color="#2CDDF4" offset="100%"></stop>
        </linearGradient>
        <linearGradient x1="36.2262174%" y1="9.99236468%" x2="67.1520531%" y2="112.021648%" id="linearGradient-16">
            <stop stop-color="#139DAF" offset="0%"></stop>
            <stop stop-color="#2CDDF4" offset="19.2493544%"></stop>
            <stop stop-color="#17A7BA" offset="100%"></stop>
        </linearGradient>
        <linearGradient x1="0%" y1="1.90045151%" x2="84.4695826%" y2="80.6342564%" id="linearGradient-17">
            <stop stop-color="#139DAF" offset="0%"></stop>
            <stop stop-color="#2CDDF4" offset="50.6774476%"></stop>
            <stop stop-color="#18AABD" offset="99.9043925%"></stop>
        </linearGradient>
        <linearGradient x1="6.74130063%" y1="-7.77538542%" x2="81.5201318%" y2="91.1565015%" id="linearGradient-18">
            <stop stop-color="#139DAF" offset="0%"></stop>
            <stop stop-color="#2CDDF4" offset="100%"></stop>
        </linearGradient>
        <radialGradient cx="44.9875952%" cy="50%" fx="44.9875952%" fy="50%" r="77.0147412%" gradientTransform="translate(0.449876,0.500000),scale(1.000000,0.916271),rotate(86.268341),translate(-0.449876,-0.500000)" id="radialGradient-19">
            <stop stop-color="#C7EEFD" stop-opacity="0" offset="0.0438770214%"></stop>
            <stop stop-color="#96E2FA" offset="100%"></stop>
        </radialGradient>
        <path d="M19.2107197,5.32026409 C22.9215894,7.49452382 25.337243,12.3684951 25.3253301,16.6867885 C28.3035561,18.4298234 30.4332348,22.5238579 30.4155872,25.9938071 C30.397496,29.4637564 27.985133,30.8622145 25.0108779,29.1171645 L12.4263208,21.7813648 C9.44809478,20.0383299 7.04764459,15.8147448 7.06541482,12.3447955 C7.0833833,8.87484626 9.49376091,7.47638819 12.4700015,9.2194231 C12.4819144,4.88903927 15.4998501,3.14600437 19.2107197,5.32026409 Z" id="path-20"></path>
        <filter x="-47.1%" y="-43.2%" width="211.3%" height="202.0%" filterUnits="objectBoundingBox" id="filter-21">
            <feOffset dx="2" dy="2" in="SourceAlpha" result="shadowOffsetOuter1"></feOffset>
            <feGaussianBlur stdDeviation="4" in="shadowOffsetOuter1" result="shadowBlurOuter1"></feGaussianBlur>
            <feColorMatrix values="0 0 0 0 0.0745098039   0 0 0 0 0.615686275   0 0 0 0 0.68627451  0 0 0 0.3 0" type="matrix" in="shadowBlurOuter1"></feColorMatrix>
        </filter>
        <filter x="-32.1%" y="-29.4%" width="181.4%" height="174.6%" filterUnits="objectBoundingBox" id="filter-22">
            <feGaussianBlur stdDeviation="1" in="SourceAlpha" result="shadowBlurInner1"></feGaussianBlur>
            <feOffset dx="1" dy="1" in="shadowBlurInner1" result="shadowOffsetInner1"></feOffset>
            <feComposite in="shadowOffsetInner1" in2="SourceAlpha" operator="arithmetic" k2="-1" k3="1" result="shadowInnerInner1"></feComposite>
            <feColorMatrix values="0 0 0 0 1   0 0 0 0 1   0 0 0 0 1  0 0 0 0.5 0" type="matrix" in="shadowInnerInner1"></feColorMatrix>
        </filter>
        <linearGradient x1="70.302608%" y1="-11.3663652%" x2="50%" y2="40.6928272%" id="linearGradient-23">
            <stop stop-color="#FFFFFF" stop-opacity="0.81" offset="0%"></stop>
            <stop stop-color="#FFFFFF" offset="100%"></stop>
        </linearGradient>
        <path d="M18.7589702,20.653025 C18.6760383,20.5963834 18.6345724,20.4445423 18.6345724,20.1975016 L18.6345724,19.6669254 C18.6345724,19.4254992 18.6331902,19.1695605 18.6304258,18.8991092 C18.6276614,18.6286579 18.6262792,18.3642973 18.6262792,18.1060274 L18.6262792,17.4912328 C18.6262792,17.2778794 18.6055463,17.1219514 18.5640803,17.0234486 C18.5226144,16.9249458 18.4272428,16.9285864 18.2779655,17.0343705 C18.1673897,17.1085702 18.036081,17.193875 17.8840392,17.290285 C17.7319975,17.3866949 17.5979244,17.4738547 17.4818198,17.5517644 C17.2883122,17.6816138 17.1652966,17.7108226 17.1127731,17.6393907 C17.0602496,17.5679589 17.097569,17.4053597 17.2247311,17.1515932 C17.3574221,16.8941167 17.5136104,16.5899928 17.693296,16.2392213 C17.8729817,15.8884497 18.0568139,15.5306848 18.2447928,15.1659265 C18.4327716,14.8011682 18.617986,14.4410721 18.8004361,14.0856384 C18.9828861,13.7302046 19.143221,13.4162799 19.2814408,13.1438643 C19.4141317,12.8863879 19.5399117,12.7163637 19.6587807,12.6337179 C19.7776496,12.5512199 19.9006652,12.545873 20.0278274,12.6177511 C20.1605183,12.6859193 20.3139422,12.7710551 20.4880991,12.8731586 C20.6622559,12.9752621 20.8419416,13.0820774 21.027156,13.1936046 C21.2123705,13.3051318 21.3962027,13.4133756 21.5786528,13.5183359 C21.7611028,13.6232963 21.9242021,13.7173797 22.0679507,13.8005861 C22.2227568,13.8932163 22.2821912,14.0147527 22.2462541,14.1651952 C22.210317,14.3156378 22.0928302,14.4576387 21.8937938,14.5911981 L21.6864642,14.7303225 C21.6090611,14.7822622 21.5288937,14.8374606 21.4459618,14.8959176 C21.36303,14.9543747 21.2814804,15.0119042 21.2013129,15.0685062 C21.1211455,15.1251082 21.0506534,15.1738142 20.9898367,15.214624 C20.851617,15.3129881 20.7645385,15.4163368 20.7286014,15.5246702 C20.6926643,15.6330035 20.6746957,15.7601595 20.6746957,15.9061381 C20.6746957,16.0689604 20.6760779,16.2813863 20.6788423,16.5434157 C20.6816067,16.8054452 20.6829889,17.0796313 20.6829889,17.3659739 C20.6829889,17.6523166 20.6843711,17.92931 20.6871355,18.196954 C20.6898999,18.464598 20.6912821,18.6826385 20.6912821,18.8510753 C20.6912821,18.9240646 20.6857533,19.0035712 20.6746957,19.0895951 C20.6636381,19.1756189 20.6373764,19.264827 20.5959105,19.3572193 C20.5544445,19.4496117 20.4963923,19.5419048 20.4217536,19.6340988 C20.3471149,19.7262928 20.2489789,19.8131996 20.1273456,19.8948192 C19.9780682,19.9949888 19.8343197,20.092852 19.6961,20.1884088 C19.5578802,20.2839657 19.4030741,20.3892488 19.2316817,20.5042583 C18.9994725,20.6600776 18.841902,20.7096665 18.7589702,20.653025 Z" id="path-24"></path>
        <filter x="-67.7%" y="-30.8%" width="235.5%" height="186.3%" filterUnits="objectBoundingBox" id="filter-25">
            <feOffset dx="0" dy="1" in="SourceAlpha" result="shadowOffsetOuter1"></feOffset>
            <feGaussianBlur stdDeviation="1" in="shadowOffsetOuter1" result="shadowBlurOuter1"></feGaussianBlur>
            <feColorMatrix values="0 0 0 0 0.1274895   0 0 0 0 0.931131999   0 0 0 0 0.929683124  0 0 0 1 0" type="matrix" in="shadowBlurOuter1"></feColorMatrix>
        </filter>
        <linearGradient x1="48.9259116%" y1="18.0728346%" x2="50%" y2="100%" id="linearGradient-26">
            <stop stop-color="#FFFFFF" stop-opacity="0" offset="0%"></stop>
            <stop stop-color="#00FF9F" offset="100%"></stop>
        </linearGradient>
        <linearGradient x1="48.9333097%" y1="18.0728346%" x2="50%" y2="100%" id="linearGradient-27">
            <stop stop-color="#FFFFFF" stop-opacity="0" offset="0%"></stop>
            <stop stop-color="#00FF9F" offset="100%"></stop>
        </linearGradient>
        <polygon id="path-28" points="0 55.863158 6.02 58.593158 7.34 58.153158 1.88 55.693158 7 53.423158 5.89 53.143158"></polygon>
        <filter x="-143.1%" y="-137.6%" width="386.1%" height="485.3%" filterUnits="objectBoundingBox" id="filter-29">
            <feOffset dx="0" dy="3" in="SourceAlpha" result="shadowOffsetOuter1"></feOffset>
            <feGaussianBlur stdDeviation="3" in="shadowOffsetOuter1" result="shadowBlurOuter1"></feGaussianBlur>
            <feColorMatrix values="0 0 0 0 0   0 0 0 0 0.964705882   0 0 0 0 1  0 0 0 1 0" type="matrix" in="shadowBlurOuter1"></feColorMatrix>
        </filter>
        <polygon id="path-30" points="81.5683984 55.5419128 76.1083984 58.0019128 77.4283984 58.4419128 83.4483984 55.7119128 77.5583984 52.9919128 76.4483984 53.2719128"></polygon>
        <filter x="-143.1%" y="-137.6%" width="386.1%" height="485.3%" filterUnits="objectBoundingBox" id="filter-31">
            <feOffset dx="0" dy="3" in="SourceAlpha" result="shadowOffsetOuter1"></feOffset>
            <feGaussianBlur stdDeviation="3" in="shadowOffsetOuter1" result="shadowBlurOuter1"></feGaussianBlur>
            <feColorMatrix values="0 0 0 0 0   0 0 0 0 0.964705882   0 0 0 0 1  0 0 0 1 0" type="matrix" in="shadowBlurOuter1"></feColorMatrix>
        </filter>
        <polygon id="path-32" points="41.8004102 74.5670056 50.0104102 70.9070056 48.7704102 70.3370056 41.8004102 73.3870056 35.4504102 70.7470056 33.9204102 71.2770056"></polygon>
        <filter x="-65.3%" y="-177.3%" width="230.5%" height="596.5%" filterUnits="objectBoundingBox" id="filter-33">
            <feOffset dx="0" dy="3" in="SourceAlpha" result="shadowOffsetOuter1"></feOffset>
            <feGaussianBlur stdDeviation="3" in="shadowOffsetOuter1" result="shadowBlurOuter1"></feGaussianBlur>
            <feColorMatrix values="0 0 0 0 0   0 0 0 0 0.964705882   0 0 0 0 1  0 0 0 1 0" type="matrix" in="shadowBlurOuter1"></feColorMatrix>
        </filter>
    </defs>
    <g id="数据指标组" stroke="none" stroke-width="1" fill="none" fill-rule="evenodd">
        <g id="切片" transform="translate(-324.065918, -189.237798)">
            <g id="指标组1" transform="translate(138.000000, 190.000000)">
                <g id="组-6361" transform="translate(192.065918, 0.000000)">
                    <rect id="路径" x="0" y="0" width="83.4448242" height="74.5708923"></rect>
                    <path d="M41.7920215,36.5252504 L82.9920215,55.8152504 L41.8020215,73.7652504 L0.572021484,55.8152504 L41.7920215,36.5252504 Z M41.7900195,37.0697298 L1.77001953,55.7997298 L41.8000195,73.2297298 L81.8000195,55.7997298 L41.7900195,37.0697298 Z" id="路径-5874" fill="#55B6FF" opacity="0.47"></path>
                    <path d="M17.0085449,10.46 L17.0085449,43.48 L41.0985449,32.43 L41.0985449,0 L17.0085449,10.46 Z" id="路径" stroke-opacity="0.43" stroke="#FFFFFF" fill="url(#linearGradient-1)" opacity="0.39" stroke-dasharray="0,0"></path>
                    <path d="M65.1800879,43.33 L65.1800879,10.46 L41.0900879,0 L41.0900879,32.29 L65.1800879,43.33 Z" id="路径" stroke-opacity="0.43" stroke="#FFFFFF" fill="url(#linearGradient-2)" opacity="0.39" stroke-dasharray="0,0"></path>
                    <use id="路径" stroke="#55B6FF" mask="url(#mask-5)" fill="url(#linearGradient-3)" stroke-dasharray="0,0" xlink:href="#path-4"></use>
                    <path d="M41.0921289,66.4056722 L41.0921289,62.1656722 L11.1821289,49.1856722 L11.1821289,52.6856722 L41.0921289,66.4056722 Z" id="路径" fill="url(#linearGradient-6)"></path>
                    <path d="M41.0953711,57.3494164 L41.0953711,53.9394164 L17.0053711,43.4794164 L17.0053711,46.2994164 L41.0953711,57.3494164 Z" id="路径" fill="url(#linearGradient-7)"></path>
                    <path d="M65.3215723,43.4463271 L41.0915723,32.1063271 L16.8615723,43.4463271 L41.0915723,53.8763271 L65.3215723,43.4463271 Z" id="路径" fill="url(#linearGradient-8)"></path>
                    <path d="M41.0977344,48.5741983 L41.0977344,46.0441983 L23.1777344,38.2641983 L23.1777344,40.3641983 L41.0977344,48.5741983 Z" id="路径" fill="url(#linearGradient-9)"></path>
                    <path d="M41.0900879,62.1656722 L41.0900879,66.4056722 L71.0000879,52.6856722 L71.0000879,49.1856722 L41.0900879,62.1656722 Z" id="路径" fill="url(#linearGradient-10)"></path>
                    <path d="M41.0942383,53.9394164 L41.0942383,57.3494164 L65.1842383,46.2994164 L65.1842383,43.4794164 L41.0942383,53.9394164 Z" id="路径" fill="url(#linearGradient-11)"></path>
                    <path d="M41.0969238,46.0441983 L41.0969238,48.5741983 L59.0169238,40.3641983 L59.0169238,38.2641983 L41.0969238,46.0441983 Z" id="路径" fill="url(#linearGradient-9)"></path>
                    <path d="M59.1208008,38.2339842 L41.1008008,29.8039842 L23.0708008,38.2339842 L41.1008008,45.9939842 L59.1208008,38.2339842 Z" id="路径" fill="url(#linearGradient-12)"></path>
                    <path d="M70.5476191,48.8527312 L71.1796191,49.1488251 L41.1096191,62.2488251 L11.0196191,49.1488251 L11.6516191,48.8527312 L41.1096191,61.6772919 L70.5476191,48.8527312 Z" id="减去-196" fill="url(#linearGradient-13)"></path>
                    <path d="M64.8148633,43.6477312 L65.3198633,43.8770001 L41.2598633,54.0370001 L17.1898633,43.8770001 L17.6948633,43.6477312 L41.2598633,53.5939307 L64.8148633,43.6477312 Z" id="减去-197" fill="url(#linearGradient-14)"></path>
                    <g id="编组-63备份-4" transform="translate(24.708008, 8.999847)">
                        <g id="编组-63备份-2" transform="translate(15.500000, 15.000000) scale(-1, 1) translate(-15.500000, -15.000000) ">
                            <path d="M22.1386857,8.54590871 L22.3153937,8.63457175 L22.402755,8.68091835 C22.4801889,8.7232348 22.5596083,8.76555126 22.6390276,8.81189785 L29.4273975,4.80795524 C29.3698185,4.77369906 29.3142249,4.74145795 29.2566459,4.71123192 L29.1911249,4.67697574 L29.1037636,4.63062915 L29.0362572,4.5943579 L28.9270556,4.5419661 L28.8496217,4.50569485 L28.8178539,4.4895743 L28.6034217,4.39688111 L28.6034217,4.39688111 C28.5299587,4.36665507 28.4584813,4.34045917 28.3870039,4.31426327 L28.3592071,4.30418793 L28.2817732,4.2800071 L28.1705861,4.24172078 L28.1169781,4.22761529 L28.0216748,4.20141939 L27.9482119,4.1812687 L27.8727635,4.16313308 L27.7774603,4.14096732 L27.7278232,4.13089197 L27.6404619,4.11477142 L27.5312603,4.09663579 C27.5180411,4.09761054 27.5047697,4.09761054 27.4915506,4.09663579 L27.4022038,4.09663579 L27.2870457,4.08454538 L27.2532925,4.08454538 L27.1738732,4.08454538 L27.0388602,4.08454538 L26.9991506,4.08454538 L26.8502393,4.08454538 L26.8323699,4.08454538 L26.7251538,4.07850017 L26.6536763,4.07850017 L26.6020538,4.07850017 C26.5385183,4.07850017 26.4749828,4.09663579 26.4134328,4.10872621 L26.4134328,4.10872621 L26.3637957,4.12081662 C26.3121805,4.13071833 26.2611424,4.14349982 26.2109134,4.15910294 L26.139436,4.1812687 L26.0441327,4.21149474 L26.0203069,4.21149474 L25.8773521,4.26993175 L25.8098456,4.30015779 C25.7403537,4.3323989 25.6728472,4.36867014 25.6112972,4.40695646 L18.8070435,8.43104976 C18.8725644,8.39276344 18.9380854,8.3564922 19.0055919,8.32425109 L19.0750838,8.29402505 L19.2160532,8.23558804 L19.3371677,8.19528666 L19.4086451,8.17312089 L19.5615274,8.13483458 L19.6111645,8.12274416 C19.6747,8.10863868 19.740221,8.09856333 19.8097129,8.09050305 L19.8613355,8.09050305 C19.9209,8.09050305 19.98245,8.07639757 20.0420145,8.0743825 L20.0618694,8.0743825 C20.1234194,8.0743825 20.1849694,8.0743825 20.2485049,8.0743825 L20.3855033,8.0743825 L20.4966904,8.0743825 C20.5364001,8.0743825 20.5741243,8.0743825 20.6138339,8.08647292 L20.7409049,8.10259347 L20.8501065,8.12072909 L20.9890904,8.14692499 L21.0843936,8.16707569 L21.233305,8.205362 L21.3266227,8.2315579 L21.4914179,8.2839497 L21.5628953,8.3101456 L21.8090953,8.40082372 L21.8090953,8.40082372 C21.8905002,8.43306483 21.971905,8.46933607 22.0552953,8.50762239 L22.1386857,8.54590871 Z" id="路径备份" fill="url(#linearGradient-15)" transform="translate(24.117220, 6.445199) scale(-1, 1) translate(-24.117220, -6.445199) "></path>
                            <path d="M12.1491768,21.8735768 C12.1481867,21.8581442 12.1481867,21.8426627 12.1491768,21.8272302 L12.1491768,21.7264767 C12.1491768,21.6881904 12.1491768,21.6499041 12.1491768,21.6096027 C12.1491768,21.5693013 12.1491768,21.5491506 12.1491768,21.5189246 C12.1491768,21.4886985 12.1491768,21.4483971 12.1491768,21.414141 L12.1491768,21.3436135 C12.1491768,21.2932368 12.1372639,21.2428601 12.1332929,21.1924833 C12.1293219,21.1421066 12.1332929,21.1340463 12.1233655,21.1058354 C12.113438,21.0776244 12.1233655,21.0856847 12.1233655,21.0756093 C12.1114526,20.9849312 12.0995397,20.892238 12.0856413,20.8015599 L12.0856413,20.8015599 L12.0856413,20.7612585 C12.0737284,20.6846859 12.05983,20.6081133 12.0459316,20.5315406 C12.0459316,20.5174351 12.0459316,20.5033297 12.0459316,20.4892242 C12.0459316,20.4751187 12.0320332,20.4166817 12.0240913,20.3804104 C12.0161493,20.3441392 12.0062219,20.2897323 11.9962945,20.2454008 C11.9863671,20.2010693 11.9843816,20.1970391 11.9804106,20.1708432 C11.9764396,20.1446473 11.9625413,20.0922555 11.9526138,20.0519541 C11.9426864,20.0116528 11.9387155,19.989487 11.9307735,19.959261 C11.9228316,19.9290349 11.9129042,19.8867185 11.9029767,19.8484322 C11.8930493,19.8101458 11.8831219,19.7678294 11.871209,19.7295431 C11.8592961,19.6912568 11.8612816,19.6892417 11.8553251,19.669091 C11.8414267,19.6166992 11.8255429,19.5643074 11.8116445,19.5119156 L11.7818622,19.4091471 C11.7809838,19.3997645 11.7809838,19.3903186 11.7818622,19.3809361 L11.6925154,19.0988264 L11.6925154,19.0988264 L11.6925154,19.0726305 C11.6647187,18.9900126 11.6349364,18.9073948 11.6051541,18.8227619 L11.5912557,18.7844756 C11.5793428,18.7522345 11.5674299,18.7220084 11.5575025,18.6897673 L11.5058799,18.5567728 C11.4959525,18.5265467 11.4840396,18.4983358 11.4721267,18.4701248 C11.4602138,18.4419138 11.4463154,18.4016124 11.432417,18.3653412 C11.4185186,18.3290699 11.4125622,18.3149644 11.4006493,18.2907836 C11.3887364,18.2666028 11.3589541,18.1900302 11.3371138,18.1396534 C11.3152735,18.0892767 11.3152735,18.0852466 11.3033606,18.0590507 L11.2914477,18.0308397 C11.2537235,17.9421766 11.2140138,17.8535136 11.1723186,17.7668656 L11.1723186,17.7547752 L11.1365799,17.6802176 C11.1048122,17.6117053 11.0730444,17.545208 11.0392912,17.4787107 C11.03478,17.4682311 11.0294692,17.458125 11.0234073,17.4484847 L10.940017,17.283249 C10.9181767,17.2389175 10.8963363,17.1945859 10.8725105,17.1522695 C10.8686248,17.1437902 10.8639721,17.1356952 10.8586121,17.1280887 C10.7851492,16.9850187 10.7077154,16.845979 10.6263105,16.7069392 C10.6204568,16.6944337 10.6138251,16.6823188 10.6064557,16.6706679 L10.5449057,16.5658843 C10.5111524,16.5094624 10.4773992,16.4530405 10.4416605,16.3966185 C10.4059218,16.3401966 10.3801105,16.2958651 10.3483427,16.2454883 L10.2431121,16.0802526 L10.2073734,16.0258458 L10.0981718,15.9674088 C9.99889756,15.8182936 9.89962336,15.6711936 9.79240722,15.5261086 L9.79240722,15.5261086 L9.79240722,15.5261086 C9.71828248,15.4253551 9.64283409,15.3246017 9.56606204,15.2238482 L9.55613462,15.2117578 C9.49855558,15.1372002 9.44097655,15.0646577 9.38141203,14.9941303 C9.37192912,14.9798355 9.36130407,14.9663563 9.34964428,14.9538289 L9.34964428,14.9538289 C9.28213782,14.8712111 9.21264588,14.7885933 9.14116846,14.7079905 L9.14116846,14.6959001 L9.07564749,14.6213425 C9.03196684,14.5709658 8.98828619,14.520589 8.94262006,14.4722274 L8.91680876,14.4440164 L8.82349101,14.345278 L8.72223133,14.2364643 L8.68252165,14.198178 C8.6507539,14.1639218 8.61501519,14.1296656 8.58126196,14.0974245 C8.54750873,14.0651834 8.52368293,14.0369724 8.49390067,14.0087615 L8.44426357,13.9624149 L8.33506194,13.8576313 L8.25762807,13.7850888 L8.19806355,13.732697 L8.08687644,13.6339586 L8.01936998,13.5735065 L7.94392159,13.5130544 L7.83471997,13.4223763 C7.81709207,13.405844 7.79852938,13.3903689 7.77912642,13.3760297 L7.68580867,13.3034872 C7.65205544,13.2772913 7.61830221,13.2490803 7.58454898,13.2248995 L7.54285382,13.1926584 C7.50115865,13.1604173 7.457478,13.1322063 7.41578284,13.1019803 L7.31849412,13.0254077 L7.2966538,13.0092871 C7.2212054,12.9568953 7.14377153,12.9045035 7.06832313,12.8561418 L7.06832313,12.8561418 L7.05243926,12.8561418 L6.84197796,12.7251623 L6.78836989,12.6949363 L0,16.6988789 L0.262083892,16.8600844 L0.277967764,16.8600844 L0.532109719,17.0313653 L0.617485532,17.0938325 L0.784266191,17.2167517 L0.885525876,17.2953394 C0.937148461,17.3336257 0.986785561,17.3739271 1.03642266,17.4142285 L1.14562428,17.5049066 L1.28659365,17.6258108 C1.32431785,17.6580519 1.36204204,17.690293 1.39778075,17.7245492 L1.53477915,17.8494835 L1.64596626,17.9542671 L1.78296466,18.0892767 L1.88422434,18.1900302 C1.93187596,18.2383918 1.97754209,18.2887685 2.02519371,18.3391453 L2.11652597,18.4358686 C2.17211953,18.4943056 2.22374211,18.5547577 2.27735018,18.6152098 L2.34287115,18.6877523 C2.41633406,18.7723852 2.48979697,18.8610482 2.56325988,18.9497113 C2.57342515,18.9640441 2.58471281,18.9775216 2.59701311,18.9900126 C2.65856311,19.0665853 2.71812763,19.1431579 2.77769215,19.2217456 C2.83725667,19.3003333 2.93057442,19.4232525 3.00602282,19.5219909 L3.00602282,19.5219909 C3.11125347,19.6670759 3.20457122,19.814176 3.31178736,19.9632911 C3.33561316,19.9995623 3.35943897,20.0338185 3.3812793,20.0700898 L3.48849543,20.2353254 L3.58181318,20.3864556 L3.68307287,20.5557215 L3.7664632,20.6967763 C3.84588256,20.8358161 3.92331644,20.9768709 3.99876483,21.1179258 L4.07818419,21.2730861 C4.10796645,21.327493 4.13576323,21.3839149 4.16356,21.4383218 C4.19135678,21.4927287 4.2390084,21.5934821 4.27474711,21.6720698 L4.31048582,21.7466274 C4.35813744,21.8473809 4.40380357,21.9481343 4.44748422,22.0509028 C4.45939712,22.0770987 4.46932454,22.1053097 4.48123745,22.1315056 C4.51300519,22.2060632 4.54477294,22.2826358 4.5745552,22.3592084 L4.61625036,22.461977 L4.69964069,22.6816195 L4.7353794,22.7763278 C4.76913263,22.8730511 4.80288586,22.9677594 4.8346536,23.0644827 C4.8346536,23.074558 4.8346536,23.0826183 4.8346536,23.0906786 C4.86840683,23.1954622 4.90017458,23.2921855 4.93194232,23.4050294 L4.96172458,23.5077979 C4.98356491,23.5803404 5.00341975,23.6528829 5.02327459,23.7254254 L5.05305685,23.8463296 C5.0709262,23.9128268 5.08681008,23.9813392 5.10269395,24.0478365 C5.11857782,24.1143338 5.12254879,24.1284392 5.13049072,24.1667256 C5.1463746,24.237253 5.16027299,24.3057653 5.17417137,24.3682325 C5.17417137,24.4045037 5.19005525,24.440775 5.1960117,24.4790613 C5.21388105,24.5697394 5.22976493,24.6604175 5.24366331,24.7490806 C5.24366331,24.7631861 5.24366331,24.7772915 5.24366331,24.789382 C5.25954719,24.8921505 5.27344557,24.9908889 5.28535848,25.0997026 C5.28535848,25.1279136 5.28535848,25.1581396 5.2952859,25.1863506 C5.2952859,25.2609082 5.31116977,25.3334507 5.31712622,25.4080082 C5.31712622,25.4422644 5.31712622,25.4785356 5.31712622,25.5127918 C5.31712622,25.5833192 5.32705364,25.6518316 5.33102461,25.7142988 C5.33102461,25.7485549 5.33102461,25.7828111 5.33102461,25.8150522 C5.33102461,25.9137906 5.33102461,26.0165591 5.33102461,26.1092523 C5.33102461,26.2019455 5.33102461,26.3107592 5.33102461,26.4094976 C5.33102461,26.4377086 5.33102461,26.4639045 5.33102461,26.4921155 C5.33102461,26.5586128 5.33102461,26.6271251 5.31514074,26.6936224 C5.29925687,26.7601197 5.31514074,26.770195 5.30521332,26.8064663 C5.2952859,26.8427375 5.29131493,26.9172951 5.28535848,26.971702 L5.26748912,27.0905911 C5.26748912,27.1409678 5.25160525,27.1913445 5.24167783,27.2397062 C5.23175041,27.2880678 5.22579396,27.3283692 5.21586654,27.3706857 C5.20593912,27.4130021 5.19799718,27.4573337 5.18608428,27.5016652 C5.17417137,27.5459967 5.16225847,27.6024186 5.14836008,27.6507803 C5.13446169,27.699142 5.12651976,27.7273529 5.11659234,27.7656393 C5.10666492,27.8039256 5.07886814,27.8825133 5.0590133,27.9389352 C5.03915846,27.9953571 5.03518749,28.0114777 5.0212891,28.0457339 C5.00739072,28.0799901 5.00739072,28.0799901 5.00143426,28.0981257 C4.97760845,28.1565627 4.95378265,28.2149997 4.92797135,28.2714216 L4.91407297,28.3036627 C4.88031974,28.3741902 4.84656651,28.4447176 4.8108278,28.5051697 L4.8108278,28.5051697 C4.77508908,28.571667 4.73736489,28.6341341 4.69964069,28.7066766 L4.6738294,28.7429478 C4.64404714,28.7892944 4.61426488,28.833626 4.58249713,28.8779575 L4.54278745,28.9283342 C4.51300519,28.9686356 4.48123745,29.0069219 4.45145519,29.0452082 L4.41373099,29.0875247 C4.37005034,29.1358863 4.32636969,29.184248 4.28070356,29.2285795 L4.26084872,29.2487302 C4.21915356,29.2870165 4.17944388,29.3253029 4.13576323,29.359559 C4.12145032,29.3733987 4.10619014,29.3861927 4.09009709,29.3978453 C4.05435838,29.4280714 4.01663419,29.4562824 3.97890999,29.4824783 L3.93324386,29.5167344 C3.88162127,29.5530057 3.8280132,29.5892769 3.77440513,29.621518 L10.562775,25.6155604 C10.6163831,25.5833192 10.6699912,25.5490631 10.7216137,25.5127918 L10.7692654,25.4785356 C10.8069896,25.4523397 10.8427283,25.4241288 10.878467,25.3939027 L10.9261186,25.3556164 C10.9678138,25.3193452 11.0095089,25.2830739 11.0492186,25.2447876 L11.0690734,25.2246369 C11.1147396,25.1803054 11.1604057,25.1319437 11.2040864,25.081567 C11.2159993,25.0694766 11.2279122,25.053356 11.2398251,25.0392506 C11.251738,25.0251451 11.3033606,24.964693 11.3331428,24.9243916 L11.370867,24.8719998 C11.4026348,24.8296833 11.4344025,24.7853518 11.4641848,24.7390052 L11.4880106,24.702734 L11.4880106,24.6906436 C11.5237493,24.6342216 11.559488,24.5737696 11.5932412,24.5133175 L11.5932412,24.5133175 C11.6269945,24.4508503 11.6607477,24.3883832 11.6905299,24.3218859 L11.6905299,24.3077804 L11.7064138,24.2755393 C11.7302396,24.2191174 11.7560509,24.1606804 11.7778912,24.1022433 C11.7778912,24.0841077 11.7917896,24.0659721 11.7997316,24.0498515 C11.8076735,24.033731 11.7997316,24.0236556 11.81363,24.0115652 C11.8275283,23.9994748 11.8295138,23.9652186 11.8354703,23.9430529 C11.8553251,23.8866309 11.87518,23.8281939 11.8930493,23.7697569 C11.8974519,23.7540079 11.9027555,23.7385327 11.9089332,23.7234103 C11.9089332,23.7012446 11.9188606,23.6770637 11.9248171,23.654898 C11.9307735,23.6327322 11.9526138,23.5561596 11.9645267,23.5057828 C11.9764396,23.4554061 11.9744542,23.4654815 11.9804106,23.4433157 C11.9863671,23.4211499 11.9804106,23.3969691 11.994309,23.3748033 C12.0082074,23.3526376 12.0121784,23.2881554 12.0201203,23.2438238 L12.0320332,23.1773266 C12.0320332,23.1491156 12.0320332,23.1229197 12.0439461,23.0947087 C12.055859,23.0664978 12.0578445,23.016121 12.0618155,22.9758196 C12.0657864,22.9355182 12.0618155,22.9355182 12.0717429,22.9153676 C12.0816703,22.8952169 12.0717429,22.8448401 12.0717429,22.810584 L12.0836558,22.6977401 C12.0846347,22.6823072 12.0846347,22.6668264 12.0836558,22.6513935 C12.0836558,22.6010168 12.0836558,22.548625 12.0836558,22.4982482 L12.0836558,22.4156304 L12.0836558,22.3934646 C12.0836558,22.3068166 12.0836558,22.2201687 12.0836558,22.1294905 L12.0836558,22.1153851 C12.1511622,22.0388124 12.1511622,21.9561946 12.1491768,21.8735768 Z" id="路径备份-2" fill="url(#linearGradient-16)" transform="translate(6.074858, 21.158227) scale(-1, 1) translate(-6.074858, -21.158227) "></path>
                            <path d="M10.8114993,5.33993352 L10.9187154,5.41650615 C10.9901929,5.46688289 11.0596848,5.51927469 11.1291767,5.57166649 C11.1986687,5.62405829 11.2125671,5.6361487 11.2542622,5.66838981 L11.4428832,5.81750494 L11.5778961,5.93034881 L11.7546042,6.08147901 L11.8935881,6.20439823 C11.9511671,6.25477496 12.0087462,6.30918183 12.0643397,6.36157363 L12.2013381,6.49053807 L12.3740752,6.65980388 L12.4991607,6.78675325 L12.6758688,6.97012455 C12.713593,7.01042593 12.7533027,7.05072732 12.7910269,7.09304377 C12.8585333,7.16558627 12.9240543,7.24014383 12.9895753,7.31470139 L13.0689946,7.40537951 C13.1623124,7.51217818 13.2536446,7.62099192 13.3449769,7.73182073 L13.3886576,7.7862276 L13.6130173,8.07035236 C13.710306,8.19528666 13.8115657,8.32022095 13.8969415,8.44918538 L13.8969415,8.44918538 L13.8969415,8.44918538 C13.9783463,8.56202926 14.0577657,8.67487314 14.137185,8.78973209 L14.2106479,8.9005609 L14.3635302,9.13027879 L14.4965576,9.33178572 L14.6117157,9.51717209 C14.6553964,9.58769951 14.6970915,9.660242 14.7387867,9.73076943 L14.8599012,9.93227635 C14.8797561,9.9685476 14.8996109,10.0048188 14.9214512,10.0410901 C14.9710883,10.1317682 15.0227109,10.2224463 15.0703625,10.3131244 L15.1239706,10.4118628 C15.1616948,10.4823903 15.1974335,10.5529177 15.2331722,10.6133698 C15.2689109,10.6738218 15.3026642,10.7503945 15.3364174,10.8148767 C15.3701706,10.8793589 15.4317206,11.0163836 15.4773868,11.1050467 C15.4912851,11.1372878 15.507169,11.1675138 15.5230529,11.1997549 C15.5806319,11.3246892 15.6362255,11.4516386 15.691819,11.5785879 L15.7335142,11.6793414 C15.7752094,11.7740497 15.8129336,11.8687579 15.8506578,11.9634662 C15.8685271,12.0057826 15.8863965,12.0501141 15.9022803,12.0924306 C15.9380191,12.1831087 15.9737578,12.2758019 16.007511,12.36648 C16.0214094,12.4067814 16.0372933,12.4450677 16.0511916,12.483354 C16.0948723,12.6042582 16.1365675,12.7251623 16.1762771,12.8440514 C16.1768742,12.8547899 16.1768742,12.865554 16.1762771,12.8762925 C16.2199578,13.007272 16.2616529,13.1382515 16.2993771,13.2793064 C16.3132755,13.3216228 16.3251884,13.3639393 16.3371013,13.4062557 C16.3629126,13.4969339 16.3887239,13.587612 16.4125497,13.676275 C16.4264481,13.7266518 16.438361,13.7770285 16.4522594,13.8274052 C16.4721143,13.9120381 16.4939546,13.996671 16.5138094,14.0813039 C16.5257223,14.1296656 16.5356497,14.1800423 16.5475626,14.2304191 C16.5674175,14.317067 16.5852868,14.403715 16.6031562,14.490363 C16.6031562,14.5346945 16.6210256,14.5810411 16.6289675,14.6273877 C16.6514696,14.7402316 16.6713245,14.8530755 16.688532,14.9659193 C16.688532,14.9820399 16.688532,15.0001755 16.688532,15.0162961 C16.7083869,15.1452605 16.7262562,15.2742249 16.7401546,15.4011743 C16.7401546,15.4374456 16.7401546,15.4737168 16.7520675,15.509988 C16.7639804,15.6026812 16.7719223,15.6953744 16.7798643,15.7860525 L16.7917772,15.9190471 C16.7917772,16.0056951 16.8017046,16.0923431 16.8056756,16.178991 C16.8056756,16.2192924 16.8056756,16.2616089 16.8056756,16.3019103 C16.8056756,16.4248295 16.8056756,16.5477487 16.8056756,16.6686529 L23.6357406,12.6828459 C23.6357406,12.5800774 23.6357406,12.481339 23.6357406,12.3745403 C23.6357406,12.3564047 23.6357406,12.336254 23.6357406,12.3161033 L23.6357406,12.191169 C23.6357406,12.1428073 23.6357406,12.0944457 23.6357406,12.046084 C23.6357406,11.9977223 23.6357406,11.9695114 23.6357406,11.9312251 C23.6357406,11.8929387 23.6357406,11.8445771 23.6258132,11.8002456 C23.6158858,11.755914 23.6258132,11.7418085 23.6258132,11.7135976 C23.6258132,11.6511304 23.6119148,11.5886633 23.6059584,11.5241811 L23.5940455,11.4153673 C23.5940455,11.4032769 23.5940455,11.3911865 23.5940455,11.3790961 C23.5801471,11.2662522 23.5642632,11.1513933 23.5463938,11.0365343 L23.5463938,11.0365343 C23.5463938,11.0204138 23.5463938,11.0042932 23.5463938,10.9881726 C23.53051,10.8934644 23.5146261,10.7866657 23.4967567,10.7000177 C23.4944055,10.6830456 23.4910909,10.6662254 23.4868293,10.649641 C23.4868293,10.6032944 23.46896,10.5569478 23.4590325,10.5126163 C23.4491051,10.4682848 23.4371922,10.3997724 23.4252793,10.3453656 C23.4133664,10.2909587 23.4113809,10.2828984 23.4054245,10.2526724 L23.3696858,10.1015422 C23.3696858,10.0632559 23.3538019,10.0249695 23.3438745,9.98668322 L23.3081358,9.84965851 C23.2962229,9.79928178 23.2823245,9.74890505 23.2684261,9.69852832 L23.2505567,9.62598583 C23.2326874,9.55948854 23.2128325,9.49500632 23.1929777,9.4244789 L23.157239,9.29752954 C23.1530138,9.28571684 23.1496947,9.27359029 23.1473116,9.26125829 C23.1115728,9.14438427 23.0738486,9.02549519 23.034139,8.90862117 L23.034139,8.90862117 L23.0222261,8.87638006 C22.9884728,8.77361153 22.9527341,8.67487314 22.9150099,8.5660594 L22.8971406,8.51568267 C22.8832422,8.47739635 22.8693438,8.43709497 22.8534599,8.39880865 C22.837576,8.36052233 22.8137502,8.28596477 22.7919099,8.2315579 L22.7502147,8.12475923 C22.7323454,8.08042771 22.7164615,8.03811125 22.6985922,7.9957948 L22.660868,7.89907148 L22.5814486,7.71167004 C22.5675502,7.67741386 22.5536518,7.64315768 22.537768,7.61091657 L22.5238696,7.57464533 C22.476218,7.46381652 22.4265809,7.35500278 22.3749583,7.24618904 L22.3749583,7.23208355 C22.3610599,7.19984244 22.345176,7.16961641 22.3312776,7.1373753 C22.2915679,7.05475746 22.2518583,6.97012455 22.2101631,6.88549164 L22.1903083,6.84720533 C22.156555,6.7766779 22.1208163,6.71018062 22.0850776,6.6456984 C22.0493389,6.58121618 22.0314695,6.53486959 22.0016873,6.48046272 L21.9778615,6.43411613 L21.9242534,6.33537773 C21.8746163,6.24469962 21.8249792,6.1540215 21.7733566,6.06334339 L21.7118066,5.95452965 L21.6701114,5.88198715 L21.5926776,5.75100765 C21.5509824,5.67846516 21.5073017,5.60793773 21.4656066,5.53741031 C21.4239114,5.46688289 21.3881727,5.41247602 21.348463,5.35202394 C21.3087533,5.29157186 21.2611017,5.21298416 21.2154356,5.15051701 C21.2020245,5.12694569 21.1874456,5.10407894 21.1717549,5.08200466 L21.0645388,4.92079912 L20.9890904,4.80997031 C20.9096711,4.69511136 20.8302517,4.58226748 20.7488468,4.46942361 L20.7488468,4.46942361 L20.7488468,4.46942361 C20.6555291,4.34045917 20.5502984,4.21552488 20.4649226,4.09059059 L20.4530097,4.07447003 C20.3815323,3.98379192 20.3100549,3.8931138 20.236592,3.80445075 L20.1948968,3.75205895 L20.1948968,3.75205895 C20.109521,3.64727535 20.0221597,3.55055203 19.9347984,3.44173829 L19.9228855,3.4276328 L19.8414806,3.33695468 L19.6747,3.14955324 C19.6627871,3.13746283 19.6528597,3.12537241 19.6409468,3.11529707 C19.6032226,3.07298061 19.5654984,3.03267923 19.5257887,2.99237784 C19.486079,2.95207646 19.4423984,2.89968466 19.3987177,2.85535313 L19.3510661,2.80699147 L19.2239951,2.68205718 L19.1147935,2.57122837 L19.0532435,2.51279136 L18.9162451,2.38382693 L18.8209419,2.29314881 L18.743508,2.22665153 L18.6065096,2.1037323 L18.5211338,2.02917474 L18.4298015,1.95260211 L18.2928031,1.83975823 L18.2233112,1.78132122 L18.1061676,1.6906431 L17.9790966,1.59190471 L17.927474,1.55361839 C17.8758515,1.51331701 17.8222434,1.47704576 17.7706208,1.43875945 L17.6634047,1.36218682 L17.6356079,1.34203612 C17.5403047,1.27553884 17.4370595,1.21307169 17.3496982,1.15060454 L17.3496982,1.15060454 L17.3298434,1.13851413 C17.2424821,1.08209219 17.1551208,1.02768532 17.0677595,0.975293519 L17.0022385,0.937007203 L16.8036901,0.824163325 L16.7858207,0.824163325 L16.7560385,0.808042771 C16.6825756,0.767741386 16.6110981,0.72945507 16.5376352,0.693183823 L16.4482884,0.652882438 L16.4482884,0.652882438 C16.3688691,0.612581053 16.2894497,0.576309807 16.2100304,0.54003856 L16.1862046,0.527948145 L16.1584078,0.515857729 L15.9181642,0.413089197 L15.9181642,0.413089197 C15.8367594,0.37883302 15.7553545,0.348606981 15.6759352,0.320396011 L15.6461529,0.308305596 L15.6262981,0.308305596 C15.5488642,0.280094626 15.4694448,0.253898726 15.3920109,0.231732964 L15.3781126,0.231732964 L15.3523013,0.231732964 C15.2689109,0.205537064 15.1875061,0.183371302 15.1061012,0.16120554 L15.1061012,0.16120554 L14.8400464,0.0685123546 L14.8142351,0.0685123546 L14.8003367,0.0685123546 L14.5422238,0.0261959003 L14.5203835,0.0261959003 L14.5025141,0.0261959003 C14.4151528,0.016120554 14.3277915,0.00604520776 14.2424157,0 L14.1907931,0 L14.1054173,0 L13.7222189,0 C13.6686108,0 13.6169882,0 13.5633802,0.0120904155 L13.5375689,0.0120904155 L13.3866721,0.0302260388 L13.337035,0.0302260388 C13.2873979,0.0302260388 13.2397463,0.0463465928 13.1901092,0.0544068699 L13.1702543,0.0544068699 L13.1702543,0.0544068699 C13.0967914,0.0685123546 13.025314,0.0866479779 12.955822,0.104783601 L12.9220688,0.114858947 C12.8545624,0.132994571 12.7890414,0.155160333 12.7235204,0.179341164 L12.7076365,0.179341164 L12.6778543,0.191431579 L12.5984349,0.221657618 L12.5448268,0.24382338 L12.463422,0.280094626 L12.4137849,0.302260388 L12.3284091,0.344576842 L12.2867139,0.366742604 L12.1616284,0.435254959 L5.36730209,4.4371825 L5.4904021,4.36867014 L5.53209727,4.34650438 L5.61945856,4.30418793 L5.66909567,4.28202216 L5.74851503,4.24575092 L5.80410858,4.22358516 L5.88352794,4.19335912 L5.92919407,4.17723856 C5.99471505,4.15305773 6.0622215,4.13089197 6.12774248,4.11275635 L6.15951022,4.11275635 C6.23098765,4.09260565 6.30246507,4.07447003 6.37394249,4.06036455 L6.39975379,4.06036455 L6.54667961,4.03416865 L6.59433122,4.03416865 L6.74522801,4.01603302 L6.77302478,4.01603302 C6.82464737,4.01603302 6.87825544,4.01603302 6.93186351,4.00394261 L6.97157319,4.00394261 L7.0946732,4.00394261 L7.31307644,4.00394261 L7.39845225,4.00394261 L7.45007484,4.00394261 C7.53743613,4.00394261 7.62479743,4.02006316 7.71215873,4.03215358 L7.75186841,4.03215358 C7.83724422,4.04424399 7.92262004,4.05834948 8.00998133,4.0764851 L8.04770553,4.0764851 C8.13109586,4.09260565 8.21448619,4.11074128 8.29787652,4.13290704 L8.29787652,4.13290704 C8.37928136,4.1550728 8.46267169,4.17723856 8.54606202,4.20343446 L8.5857717,4.21552488 C8.66320558,4.23970571 8.74063945,4.26388654 8.82005882,4.29209751 L8.86771043,4.31023313 C8.94911528,4.3384441 9.02853464,4.37068521 9.10993948,4.40292632 L9.10993948,4.40292632 C9.18935884,4.43516743 9.26877821,4.46942361 9.34819757,4.50569485 L9.40180564,4.52987568 L9.63807823,4.64271956 L9.67580243,4.66287025 C9.74992717,4.6991415 9.82339008,4.73742782 9.89619116,4.7777292 L9.94185729,4.8039251 L10.1404057,4.91475391 C10.2496073,4.97923613 10.3588089,5.04573341 10.4680106,5.11626084 L10.4878654,5.12835125 C10.6030235,5.19484854 10.7082541,5.26739103 10.8114993,5.33993352 Z" id="路径备份-3" fill="url(#linearGradient-17)" transform="translate(14.501521, 8.334326) scale(-1, 1) translate(-14.501521, -8.334326) "></path>
                            <path d="M18.7415225,4.71123192 C22.4523921,6.88549164 25.4524585,12.1669882 25.4405456,16.4852816 C28.4187716,18.2283165 30.8192218,22.4539167 30.8014516,25.923866 C30.7834831,29.3938152 28.37112,30.7922733 25.396865,29.0472233 L11.9571236,21.1723327 C8.97889754,19.4292977 6.57844735,15.2057126 6.59621758,11.7357633 C6.61418606,8.26581408 9.02456367,6.86735602 12.0008042,8.61039092 C12.0127171,4.2800071 15.0306529,2.53697219 18.7415225,4.71123192 Z" id="路径备份-4" fill="#FFFFFF" fill-rule="nonzero" transform="translate(18.698835, 16.786987) scale(-1, 1) translate(-18.698835, -16.786987) "></path>
                            <path d="M18.9400709,4.91273884 C22.6509405,7.08699857 25.6510069,12.3684951 25.639094,16.6867885 C28.61732,18.4298234 31.0177702,22.6554236 31,26.1253729 C30.9820315,29.5953221 28.5696684,30.9937802 25.5954134,29.2487302 L12.155672,21.3738396 C9.17744594,19.6308047 6.77699575,15.4072195 6.79476599,11.9372703 C6.81273446,8.46732101 9.22311207,7.06886294 12.1993526,8.81189785 C12.2112655,4.48151402 15.2292013,2.73847912 18.9400709,4.91273884 Z" id="路径备份-5" fill="url(#linearGradient-18)" transform="translate(18.897383, 16.988494) scale(-1, 1) translate(-18.897383, -16.988494) "></path>
                            <g id="路径备份-5" transform="translate(18.740501, 17.126474) scale(-1, 1) translate(-18.740501, -17.126474) ">
                                <use fill="black" fill-opacity="1" filter="url(#filter-21)" xlink:href="#path-20"></use>
                                <use fill="url(#radialGradient-19)" fill-rule="evenodd" xlink:href="#path-20"></use>
                                <use fill="black" fill-opacity="1" filter="url(#filter-22)" xlink:href="#path-20"></use>
                            </g>
                            <path d="M17.797431,21.5424253 C17.7011231,21.4795532 17.6529691,21.3110095 17.6529691,21.0367943 L17.6529691,20.4478548 C17.6529691,20.1798717 17.651364,19.8957797 17.6481537,19.5955788 C17.6449435,19.2953778 17.6433383,19.0019376 17.6433383,18.715258 L17.6433383,18.032836 C17.6433383,17.7960138 17.6192613,17.6229336 17.5711074,17.5135955 C17.5229534,17.4042574 17.4121993,17.4082985 17.238845,17.5257189 C17.1104344,17.6080805 16.9579468,17.7027688 16.7813822,17.8097839 C16.6048177,17.916799 16.4491198,18.0135463 16.3142887,18.100026 C16.0895702,18.2441589 15.9467134,18.2765806 15.8857183,18.1972912 C15.8247233,18.1180019 15.8680619,17.9375168 16.0157341,17.655836 C16.1698268,17.3700371 16.3512067,17.0324595 16.5598739,16.6431032 C16.7685412,16.2537468 16.9820238,15.8566277 17.2003218,15.451746 C17.4186198,15.0468643 17.6337075,14.6471576 17.845585,14.2526261 C18.0574625,13.8580946 18.2436579,13.5096383 18.4041711,13.207257 C18.5582638,12.9214581 18.7043309,12.7327312 18.8423722,12.6409944 C18.9804136,12.5494216 19.1232704,12.5434866 19.2709426,12.6232713 C19.4250353,12.698938 19.603205,12.7934387 19.8054517,12.9067736 C20.0076984,13.0201085 20.2163656,13.1386735 20.4314533,13.2624687 C20.6465411,13.3862639 20.8600237,13.5064145 21.0719012,13.6229205 C21.2837786,13.7394265 21.4731843,13.843859 21.640118,13.9362182 C21.8198929,14.0390377 21.8889136,14.173943 21.8471801,14.3409343 C21.8054467,14.5079255 21.6690104,14.6655466 21.4378714,14.8137975 L21.1971015,14.9682255 C21.1072141,15.0258786 21.0141164,15.0871488 20.9178085,15.1520361 C20.8215005,15.2169234 20.7267977,15.2807812 20.6337,15.3436095 C20.5406023,15.4064377 20.4587406,15.4605013 20.3881148,15.5058002 C20.2276015,15.6149844 20.1264782,15.7297015 20.0847447,15.8499515 C20.0430113,15.9702014 20.0221446,16.1113446 20.0221446,16.2733809 C20.0221446,16.4541136 20.0237497,16.6899064 20.02696,16.980759 C20.0301702,17.2716117 20.0317754,17.5759583 20.0317754,17.8937987 C20.0317754,18.211639 20.0333805,18.5191017 20.0365908,18.8161865 C20.039801,19.1132714 20.0414062,19.3552963 20.0414062,19.5422612 C20.0414062,19.6232793 20.0349856,19.7115316 20.0221446,19.8070181 C20.0093035,19.9025046 19.978806,20.0015255 19.930652,20.104081 C19.882498,20.2066365 19.8150825,20.3090819 19.7284053,20.4114173 C19.6417282,20.5137526 19.5277638,20.6102191 19.3865121,20.7008169 C19.2131578,20.8120051 19.0462241,20.9206333 18.8857108,21.0267014 C18.7251976,21.1327695 18.5454227,21.2496338 18.3463863,21.3772943 C18.0767241,21.5502537 17.893739,21.6052973 17.797431,21.5424253 Z" id="路径" fill="#44A4C2" fill-rule="nonzero"></path>
                            <g id="路径">
                                <use fill="black" fill-opacity="1" filter="url(#filter-25)" xlink:href="#path-24"></use>
                                <use fill="url(#linearGradient-23)" fill-rule="evenodd" xlink:href="#path-24"></use>
                            </g>
                        </g>
                    </g>
                    <path d="M41.0953711,53.6965848 L41.0953711,20.8265848 L17.0053711,10.3665848 L17.0053711,42.6565848 L41.0953711,53.6965848 Z" id="路径" stroke-opacity="0.43" stroke="#FFFFFF" fill="url(#linearGradient-26)" opacity="0.39" stroke-dasharray="0,0"></path>
                    <path d="M41.0942383,20.8265848 L41.0942383,53.8465848 L65.1842383,42.7965848 L65.1842383,10.3665848 L41.0942383,20.8265848 Z" id="路径" stroke-opacity="0.43" stroke="#FFFFFF" fill="url(#linearGradient-27)" opacity="0.39" stroke-dasharray="0,0"></path>
                    <g id="路径">
                        <use fill="black" fill-opacity="1" filter="url(#filter-29)" xlink:href="#path-28"></use>
                        <use fill="#0BF9FE" fill-rule="evenodd" xlink:href="#path-28"></use>
                    </g>
                    <g id="路径">
                        <use fill="black" fill-opacity="1" filter="url(#filter-31)" xlink:href="#path-30"></use>
                        <use fill="#0BF9FE" fill-rule="evenodd" xlink:href="#path-30"></use>
                    </g>
                    <g id="路径">
                        <use fill="black" fill-opacity="1" filter="url(#filter-33)" xlink:href="#path-32"></use>
                        <use fill="#0BF9FE" fill-rule="evenodd" xlink:href="#path-32"></use>
                    </g>
                </g>
            </g>
        </g>
    </g>
</svg>