<?xml version="1.0" encoding="UTF-8"?>
<svg width="95.4483984px" height="84.3292077px" viewBox="0 0 95.4483984 84.3292077" version="1.1" xmlns="http://www.w3.org/2000/svg" xmlns:xlink="http://www.w3.org/1999/xlink">
    <title>图标-数据库</title>
    <defs>
        <linearGradient x1="48.9333097%" y1="18.0728346%" x2="50%" y2="100%" id="linearGradient-1">
            <stop stop-color="#FFFFFF" stop-opacity="0" offset="0%"></stop>
            <stop stop-color="#006FFF" offset="100%"></stop>
        </linearGradient>
        <linearGradient x1="48.9259116%" y1="18.0728346%" x2="50%" y2="100%" id="linearGradient-2">
            <stop stop-color="#FFFFFF" stop-opacity="0" offset="0%"></stop>
            <stop stop-color="#006FFF" offset="100%"></stop>
        </linearGradient>
        <linearGradient x1="4.75041233%" y1="53.5193801%" x2="93.7464952%" y2="53.5193801%" id="linearGradient-3">
            <stop stop-color="#1D70B8" offset="0%"></stop>
            <stop stop-color="#195BA4" offset="33.0455989%"></stop>
            <stop stop-color="#060251" offset="100%"></stop>
        </linearGradient>
        <polygon id="path-4" points="71.1636621 49.1452008 41.0936621 35.0652008 11.0036621 49.1452008 41.0936621 62.2452008"></polygon>
        <mask id="mask-5" maskContentUnits="userSpaceOnUse" maskUnits="objectBoundingBox" x="0" y="0" width="60.16" height="27.18" fill="white">
            <use xlink:href="#path-4"></use>
        </mask>
        <linearGradient x1="2.33283676%" y1="37.8784877%" x2="96.6977954%" y2="61.6599888%" id="linearGradient-6">
            <stop stop-color="#083B9F" offset="0%"></stop>
            <stop stop-color="#03CDE6" offset="100%"></stop>
        </linearGradient>
        <linearGradient x1="50%" y1="0%" x2="50%" y2="100%" id="linearGradient-7">
            <stop stop-color="#083B9F" offset="0%"></stop>
            <stop stop-color="#03CDE6" offset="100%"></stop>
        </linearGradient>
        <linearGradient x1="3.81412134%" y1="50.5591905%" x2="98.3134508%" y2="50.3630189%" id="linearGradient-8">
            <stop stop-color="#1D70B8" offset="0%"></stop>
            <stop stop-color="#195BA4" offset="33.0455989%"></stop>
            <stop stop-color="#060251" offset="100%"></stop>
        </linearGradient>
        <linearGradient x1="50%" y1="0%" x2="50%" y2="100%" id="linearGradient-9">
            <stop stop-color="#083B9F" offset="0%"></stop>
            <stop stop-color="#03CDE6" offset="100%"></stop>
        </linearGradient>
        <linearGradient x1="96.2251902%" y1="38.0728626%" x2="0%" y2="61.5068767%" id="linearGradient-10">
            <stop stop-color="#083B9F" offset="0%"></stop>
            <stop stop-color="#03D0E8" offset="100%"></stop>
        </linearGradient>
        <linearGradient x1="50%" y1="0%" x2="50%" y2="100%" id="linearGradient-11">
            <stop stop-color="#1D70B8" offset="0%"></stop>
            <stop stop-color="#195BA4" offset="33.0455989%"></stop>
            <stop stop-color="#060251" offset="100%"></stop>
        </linearGradient>
        <linearGradient x1="4.75041233%" y1="53.5193801%" x2="93.7464952%" y2="53.5193801%" id="linearGradient-12">
            <stop stop-color="#FFFFFF" stop-opacity="0.4" offset="0%"></stop>
            <stop stop-color="#FEFEFF" offset="52.1892011%"></stop>
            <stop stop-color="#FFFFFF" stop-opacity="0.4" offset="100%"></stop>
        </linearGradient>
        <linearGradient x1="4.75041233%" y1="53.5193801%" x2="93.7464952%" y2="53.5193801%" id="linearGradient-13">
            <stop stop-color="#FFFFFF" stop-opacity="0.4" offset="0%"></stop>
            <stop stop-color="#FEFEFF" offset="52.1892011%"></stop>
            <stop stop-color="#FFFFFF" stop-opacity="0.4" offset="100%"></stop>
        </linearGradient>
        <linearGradient x1="92.6820088%" y1="37.7077617%" x2="-6.24987811%" y2="58.3275363%" id="linearGradient-14">
            <stop stop-color="#0BD4E4" offset="0%"></stop>
            <stop stop-color="#0A63EE" offset="100%"></stop>
        </linearGradient>
        <linearGradient x1="92.6820088%" y1="35.9563571%" x2="-6.24987811%" y2="59.5140481%" id="linearGradient-15">
            <stop stop-color="#0BD4E4" offset="0%"></stop>
            <stop stop-color="#0A63EE" offset="100%"></stop>
        </linearGradient>
        <linearGradient x1="50%" y1="35.4098534%" x2="127.588699%" y2="83.537108%" id="linearGradient-16">
            <stop stop-color="#C7E3FD" stop-opacity="0" offset="0.0438770214%"></stop>
            <stop stop-color="#96CAFA" offset="100%"></stop>
        </linearGradient>
        <path d="M3.88030578,12.8577134 L3.88030578,18.1422866 C3.88030578,21.4920128 9.08352349,24.2085805 15.5,24.2085805 C21.9164765,24.2085805 27.1196942,21.4920128 27.1196942,18.1422866 L27.1196942,12.8577134 L3.88030578,12.8577134 Z" id="path-17"></path>
        <filter x="-30.1%" y="-61.7%" width="168.8%" height="241.0%" filterUnits="objectBoundingBox" id="filter-18">
            <feOffset dx="1" dy="1" in="SourceAlpha" result="shadowOffsetOuter1"></feOffset>
            <feGaussianBlur stdDeviation="2.5" in="shadowOffsetOuter1" result="shadowBlurOuter1"></feGaussianBlur>
            <feColorMatrix values="0 0 0 0 0.250980392   0 0 0 0 0.44541641   0 0 0 0 0.960784314  0 0 0 0.3 0" type="matrix" in="shadowBlurOuter1"></feColorMatrix>
        </filter>
        <filter x="-21.5%" y="-44.0%" width="151.6%" height="205.7%" filterUnits="objectBoundingBox" id="filter-19">
            <feGaussianBlur stdDeviation="0.5" in="SourceAlpha" result="shadowBlurInner1"></feGaussianBlur>
            <feOffset dx="0" dy="1" in="shadowBlurInner1" result="shadowOffsetInner1"></feOffset>
            <feComposite in="shadowOffsetInner1" in2="SourceAlpha" operator="arithmetic" k2="-1" k3="1" result="shadowInnerInner1"></feComposite>
            <feColorMatrix values="0 0 0 0 1   0 0 0 0 1   0 0 0 0 1  0 0 0 0.5 0" type="matrix" in="shadowInnerInner1"></feColorMatrix>
        </filter>
        <path d="M3.88030578,6.06629394 L3.88030578,11.3508672 C3.88030578,14.7005933 9.08352349,17.4171611 15.5,17.4171611 C21.9164765,17.4171611 27.1196942,14.7005933 27.1196942,11.3508672 L27.1196942,6.06629394 L3.88030578,6.06629394 Z" id="path-20"></path>
        <filter x="-30.1%" y="-61.7%" width="168.8%" height="241.0%" filterUnits="objectBoundingBox" id="filter-21">
            <feOffset dx="1" dy="1" in="SourceAlpha" result="shadowOffsetOuter1"></feOffset>
            <feGaussianBlur stdDeviation="2.5" in="shadowOffsetOuter1" result="shadowBlurOuter1"></feGaussianBlur>
            <feColorMatrix values="0 0 0 0 0.250980392   0 0 0 0 0.44541641   0 0 0 0 0.960784314  0 0 0 0.3 0" type="matrix" in="shadowBlurOuter1"></feColorMatrix>
        </filter>
        <filter x="-21.5%" y="-44.0%" width="151.6%" height="205.7%" filterUnits="objectBoundingBox" id="filter-22">
            <feGaussianBlur stdDeviation="0.5" in="SourceAlpha" result="shadowBlurInner1"></feGaussianBlur>
            <feOffset dx="0" dy="1" in="shadowBlurInner1" result="shadowOffsetInner1"></feOffset>
            <feComposite in="shadowOffsetInner1" in2="SourceAlpha" operator="arithmetic" k2="-1" k3="1" result="shadowInnerInner1"></feComposite>
            <feColorMatrix values="0 0 0 0 1   0 0 0 0 1   0 0 0 0 1  0 0 0 0.5 0" type="matrix" in="shadowInnerInner1"></feColorMatrix>
        </filter>
        <linearGradient x1="50%" y1="33.3310415%" x2="127.588699%" y2="88.3154929%" id="linearGradient-23">
            <stop stop-color="#C7E3FD" stop-opacity="0" offset="0.0438770214%"></stop>
            <stop stop-color="#96CAFA" offset="100%"></stop>
        </linearGradient>
        <path d="M3.88030578,6.06629394 C3.88030578,9.41661557 9.08262009,12.1325879 15.5,12.1325879 C21.9173799,12.1325879 27.1196942,9.41661557 27.1196942,6.06629394 C27.1196942,2.71597231 21.9173799,0 15.5,0 C9.08262009,0 3.88030578,2.71597231 3.88030578,6.06629394 Z" id="path-24"></path>
        <filter x="-30.1%" y="-57.7%" width="168.8%" height="231.9%" filterUnits="objectBoundingBox" id="filter-25">
            <feOffset dx="1" dy="1" in="SourceAlpha" result="shadowOffsetOuter1"></feOffset>
            <feGaussianBlur stdDeviation="2.5" in="shadowOffsetOuter1" result="shadowBlurOuter1"></feGaussianBlur>
            <feColorMatrix values="0 0 0 0 0.250980392   0 0 0 0 0.44541641   0 0 0 0 0.960784314  0 0 0 0.3 0" type="matrix" in="shadowBlurOuter1"></feColorMatrix>
        </filter>
        <filter x="-21.5%" y="-41.2%" width="151.6%" height="198.9%" filterUnits="objectBoundingBox" id="filter-26">
            <feGaussianBlur stdDeviation="0.5" in="SourceAlpha" result="shadowBlurInner1"></feGaussianBlur>
            <feOffset dx="0" dy="1" in="shadowBlurInner1" result="shadowOffsetInner1"></feOffset>
            <feComposite in="shadowOffsetInner1" in2="SourceAlpha" operator="arithmetic" k2="-1" k3="1" result="shadowInnerInner1"></feComposite>
            <feColorMatrix values="0 0 0 0 1   0 0 0 0 1   0 0 0 0 1  0 0 0 0.5 0" type="matrix" in="shadowInnerInner1"></feColorMatrix>
        </filter>
        <linearGradient x1="52.5871613%" y1="82.6240995%" x2="52.5871613%" y2="-74.1857825%" id="linearGradient-27">
            <stop stop-color="#96CAFA" offset="0%"></stop>
            <stop stop-color="#C7E3FD" stop-opacity="0" offset="99.956123%"></stop>
        </linearGradient>
        <path d="M6.45833333,6.13541667 C6.45833333,8.81054592 10.6510001,10.9791667 15.8229167,10.9791667 C20.9948332,10.9791667 25.1875,8.81054592 25.1875,6.13541667 C25.1875,3.46028741 20.9948332,1.29166667 15.8229167,1.29166667 C10.6510001,1.29166667 6.45833333,3.46028741 6.45833333,6.13541667 Z" id="path-28"></path>
        <filter x="-37.4%" y="-72.3%" width="185.4%" height="265.2%" filterUnits="objectBoundingBox" id="filter-29">
            <feOffset dx="1" dy="1" in="SourceAlpha" result="shadowOffsetOuter1"></feOffset>
            <feGaussianBlur stdDeviation="2.5" in="shadowOffsetOuter1" result="shadowBlurOuter1"></feGaussianBlur>
            <feColorMatrix values="0 0 0 0 0.250980392   0 0 0 0 0.633647847   0 0 0 0 0.960784314  0 0 0 0.3 0" type="matrix" in="shadowBlurOuter1"></feColorMatrix>
        </filter>
        <filter x="-24.0%" y="-46.5%" width="158.7%" height="213.5%" filterUnits="objectBoundingBox" id="filter-30">
            <feGaussianBlur stdDeviation="0.5" in="SourceAlpha" result="shadowBlurInner1"></feGaussianBlur>
            <feOffset dx="0" dy="0" in="shadowBlurInner1" result="shadowOffsetInner1"></feOffset>
            <feComposite in="shadowOffsetInner1" in2="SourceAlpha" operator="arithmetic" k2="-1" k3="1" result="shadowInnerInner1"></feComposite>
            <feColorMatrix values="0 0 0 0 1   0 0 0 0 1   0 0 0 0 1  0 0 0 0.5 0" type="matrix" in="shadowInnerInner1"></feColorMatrix>
        </filter>
        <circle id="path-31" cx="7.42708333" cy="12.9166667" r="1"></circle>
        <filter x="-180.6%" y="-129.0%" width="461.3%" height="461.3%" filterUnits="objectBoundingBox" id="filter-32">
            <feOffset dx="0" dy="1" in="SourceAlpha" result="shadowOffsetOuter1"></feOffset>
            <feGaussianBlur stdDeviation="1" in="shadowOffsetOuter1" result="shadowBlurOuter1"></feGaussianBlur>
            <feColorMatrix values="0 0 0 0 0.1274895   0 0 0 0 0.699575479   0 0 0 0 0.931131999  0 0 0 1 0" type="matrix" in="shadowBlurOuter1"></feColorMatrix>
        </filter>
        <circle id="path-33" cx="7.42708333" cy="20.0208333" r="1"></circle>
        <filter x="-180.6%" y="-129.0%" width="461.3%" height="461.3%" filterUnits="objectBoundingBox" id="filter-34">
            <feOffset dx="0" dy="1" in="SourceAlpha" result="shadowOffsetOuter1"></feOffset>
            <feGaussianBlur stdDeviation="1" in="shadowOffsetOuter1" result="shadowBlurOuter1"></feGaussianBlur>
            <feColorMatrix values="0 0 0 0 0.1274895   0 0 0 0 0.699575479   0 0 0 0 0.931131999  0 0 0 1 0" type="matrix" in="shadowBlurOuter1"></feColorMatrix>
        </filter>
        <circle id="path-35" cx="7.42708333" cy="26.4791667" r="1"></circle>
        <filter x="-180.6%" y="-129.0%" width="461.3%" height="461.3%" filterUnits="objectBoundingBox" id="filter-36">
            <feOffset dx="0" dy="1" in="SourceAlpha" result="shadowOffsetOuter1"></feOffset>
            <feGaussianBlur stdDeviation="1" in="shadowOffsetOuter1" result="shadowBlurOuter1"></feGaussianBlur>
            <feColorMatrix values="0 0 0 0 0.1274895   0 0 0 0 0.699575479   0 0 0 0 0.931131999  0 0 0 1 0" type="matrix" in="shadowBlurOuter1"></feColorMatrix>
        </filter>
        <path d="M9.38122712,5.74791667 L10.2486484,5.74791667 L10.2486484,5.74791667 C10.2486484,3.92795833 12.7115339,2.45416667 15.7503411,2.45416667 C16.7991767,2.45784239 17.8209802,2.63809935 18.6791146,2.97083333 C19.5372489,3.30356731 18.2576505,3.76245216 17.674763,3.57275 C17.0918755,3.38304784 16.4270804,3.28354332 15.7503411,3.28470833 C13.4817708,3.27825 11.6252422,4.39166667 11.6252422,5.74791667 L12.4941331,5.74791667 C12.676387,5.74791667 12.8241331,5.8956627 12.8241331,6.07791667 C12.8241331,6.19394771 12.7631954,6.30145338 12.6636417,6.36105416 L11.1065261,7.29326716 C11.0021193,7.35577333 10.8717859,7.35574887 10.7674027,7.29320352 L9.21161229,6.36099052 C9.05527491,6.26731484 9.00447758,6.06463921 9.09815326,5.90830183 C9.15776871,5.80880833 9.26524023,5.74791667 9.38122712,5.74791667 Z" id="path-37"></path>
        <filter x="-24.5%" y="-50.6%" width="156.9%" height="240.6%" filterUnits="objectBoundingBox" id="filter-38">
            <feOffset dx="0" dy="1" in="SourceAlpha" result="shadowOffsetOuter1"></feOffset>
            <feGaussianBlur stdDeviation="1" in="shadowOffsetOuter1" result="shadowBlurOuter1"></feGaussianBlur>
            <feColorMatrix values="0 0 0 0 0.1274895   0 0 0 0 0.699575479   0 0 0 0 0.931131999  0 0 0 1 0" type="matrix" in="shadowBlurOuter1"></feColorMatrix>
        </filter>
        <path d="M21.2520339,5.74791667 C21.2520339,7.567875 18.7891484,9.04166667 15.7503411,9.04166667 C14.7015056,9.03799094 13.6797021,8.85773398 12.8215677,8.525 C11.9634333,8.19226602 13.2453729,7.73338117 13.8282604,7.92308333 C14.4111479,8.11278549 15.075943,8.21229002 15.7526823,8.211125 C18.0259349,8.211125 19.8754401,7.10416667 19.8754401,5.74145833 L19.0105823,5.74145833 C18.8283283,5.74145833 18.6805823,5.5937123 18.6805823,5.41145833 C18.6805823,5.29522372 18.7417322,5.18756071 18.8415638,5.128028 L20.394386,4.20203103 C20.4986866,4.13983326 20.6287201,4.13994575 20.732913,4.20232387 L22.2904333,5.13477917 C22.4468058,5.22839618 22.4976792,5.43105273 22.4040622,5.58742525 C22.3444615,5.686979 22.2369558,5.74791667 22.1209247,5.74791667 L21.2520339,5.74791667 L21.2520339,5.74791667 Z" id="path-39"></path>
        <filter x="-32.5%" y="-49.5%" width="156.9%" height="240.6%" filterUnits="objectBoundingBox" id="filter-40">
            <feOffset dx="0" dy="1" in="SourceAlpha" result="shadowOffsetOuter1"></feOffset>
            <feGaussianBlur stdDeviation="1" in="shadowOffsetOuter1" result="shadowBlurOuter1"></feGaussianBlur>
            <feColorMatrix values="0 0 0 0 0.1274895   0 0 0 0 0.699575479   0 0 0 0 0.931131999  0 0 0 1 0" type="matrix" in="shadowBlurOuter1"></feColorMatrix>
        </filter>
        <polygon id="path-41" points="0 55.863158 6.02 58.593158 7.34 58.153158 1.88 55.693158 7 53.423158 5.89 53.143158"></polygon>
        <filter x="-143.1%" y="-137.6%" width="386.1%" height="485.3%" filterUnits="objectBoundingBox" id="filter-42">
            <feOffset dx="0" dy="3" in="SourceAlpha" result="shadowOffsetOuter1"></feOffset>
            <feGaussianBlur stdDeviation="3" in="shadowOffsetOuter1" result="shadowBlurOuter1"></feGaussianBlur>
            <feColorMatrix values="0 0 0 0 0   0 0 0 0 0.964705882   0 0 0 0 1  0 0 0 1 0" type="matrix" in="shadowBlurOuter1"></feColorMatrix>
        </filter>
        <polygon id="path-43" points="81.5683984 55.5419128 76.1083984 58.0019128 77.4283984 58.4419128 83.4483984 55.7119128 77.5583984 52.9919128 76.4483984 53.2719128"></polygon>
        <filter x="-143.1%" y="-137.6%" width="386.1%" height="485.3%" filterUnits="objectBoundingBox" id="filter-44">
            <feOffset dx="0" dy="3" in="SourceAlpha" result="shadowOffsetOuter1"></feOffset>
            <feGaussianBlur stdDeviation="3" in="shadowOffsetOuter1" result="shadowBlurOuter1"></feGaussianBlur>
            <feColorMatrix values="0 0 0 0 0   0 0 0 0 0.964705882   0 0 0 0 1  0 0 0 1 0" type="matrix" in="shadowBlurOuter1"></feColorMatrix>
        </filter>
        <polygon id="path-45" points="41.8004102 74.5670056 50.0104102 70.9070056 48.7704102 70.3370056 41.8004102 73.3870056 35.4504102 70.7470056 33.9204102 71.2770056"></polygon>
        <filter x="-65.3%" y="-177.3%" width="230.5%" height="596.5%" filterUnits="objectBoundingBox" id="filter-46">
            <feOffset dx="0" dy="3" in="SourceAlpha" result="shadowOffsetOuter1"></feOffset>
            <feGaussianBlur stdDeviation="3" in="shadowOffsetOuter1" result="shadowBlurOuter1"></feGaussianBlur>
            <feColorMatrix values="0 0 0 0 0   0 0 0 0 0.964705882   0 0 0 0 1  0 0 0 1 0" type="matrix" in="shadowBlurOuter1"></feColorMatrix>
        </filter>
    </defs>
    <g id="数据指标组" stroke="none" stroke-width="1" fill="none" fill-rule="evenodd">
        <g id="切片" transform="translate(-228.000000, -189.237798)">
            <g id="指标组1" transform="translate(138.000000, 190.000000)">
                <g id="组-5606" transform="translate(96.000000, 0.000000)">
                    <rect id="路径" x="0" y="0" width="83.4448242" height="74.5708923"></rect>
                    <path d="M41.7920215,36.5252504 L82.9920215,55.8152504 L41.8020215,73.7652504 L0.572021484,55.8152504 L41.7920215,36.5252504 Z M41.7900195,37.0697298 L1.77001953,55.7997298 L41.8000195,73.2297298 L81.8000195,55.7997298 L41.7900195,37.0697298 Z" id="路径-5874" fill="#55B6FF" opacity="0.47"></path>
                    <path d="M17.0085449,10.46 L17.0085449,43.48 L41.0985449,32.43 L41.0985449,0 L17.0085449,10.46 Z" id="路径" stroke-opacity="0.43" stroke="#FFFFFF" fill="url(#linearGradient-1)" opacity="0.39" stroke-dasharray="0,0"></path>
                    <path d="M65.1800879,43.33 L65.1800879,10.46 L41.0900879,0 L41.0900879,32.29 L65.1800879,43.33 Z" id="路径" stroke-opacity="0.43" stroke="#FFFFFF" fill="url(#linearGradient-2)" opacity="0.39" stroke-dasharray="0,0"></path>
                    <use id="路径" stroke="#55B6FF" mask="url(#mask-5)" fill="url(#linearGradient-3)" stroke-dasharray="0,0" xlink:href="#path-4"></use>
                    <path d="M41.0921289,66.4056722 L41.0921289,62.1656722 L11.1821289,49.1856722 L11.1821289,52.6856722 L41.0921289,66.4056722 Z" id="路径" fill="url(#linearGradient-6)"></path>
                    <path d="M41.0953711,57.3494164 L41.0953711,53.9394164 L17.0053711,43.4794164 L17.0053711,46.2994164 L41.0953711,57.3494164 Z" id="路径" fill="url(#linearGradient-7)"></path>
                    <path d="M65.3215723,43.4463271 L41.0915723,32.1063271 L16.8615723,43.4463271 L41.0915723,53.8763271 L65.3215723,43.4463271 Z" id="路径" fill="url(#linearGradient-8)"></path>
                    <path d="M41.0977344,48.5741983 L41.0977344,46.0441983 L23.1777344,38.2641983 L23.1777344,40.3641983 L41.0977344,48.5741983 Z" id="路径" fill="url(#linearGradient-9)"></path>
                    <path d="M41.0900879,62.1656722 L41.0900879,66.4056722 L71.0000879,52.6856722 L71.0000879,49.1856722 L41.0900879,62.1656722 Z" id="路径" fill="url(#linearGradient-10)"></path>
                    <path d="M41.0942383,53.9394164 L41.0942383,57.3494164 L65.1842383,46.2994164 L65.1842383,43.4794164 L41.0942383,53.9394164 Z" id="路径" fill="url(#linearGradient-7)"></path>
                    <path d="M41.0969238,46.0441983 L41.0969238,48.5741983 L59.0169238,40.3641983 L59.0169238,38.2641983 L41.0969238,46.0441983 Z" id="路径" fill="url(#linearGradient-9)"></path>
                    <path d="M59.1208008,38.2339842 L41.1008008,29.8039842 L23.0708008,38.2339842 L41.1008008,45.9939842 L59.1208008,38.2339842 Z" id="路径" fill="url(#linearGradient-11)"></path>
                    <path d="M70.5476191,48.8527312 L71.1796191,49.1488251 L41.1096191,62.2488251 L11.0196191,49.1488251 L11.6516191,48.8527312 L41.1096191,61.6772919 L70.5476191,48.8527312 Z" id="减去-196" fill="url(#linearGradient-12)"></path>
                    <path d="M64.8148633,43.6477312 L65.3198633,43.8770001 L41.2598633,54.0370001 L17.1898633,43.8770001 L17.6948633,43.6477312 L41.2598633,53.5939307 L64.8148633,43.6477312 Z" id="减去-197" fill="url(#linearGradient-13)"></path>
                    <g id="数据库" transform="translate(25.000000, 9.000000)">
                        <rect id="矩形备份-3" fill="#000000" fill-rule="nonzero" opacity="0" x="0" y="0" width="31" height="31"></rect>
                        <path d="M3.88030578,19.6491328 L3.88030578,24.9337061 C3.88030578,28.297581 9.08352352,31 15.5,31 C21.9164765,31 27.1196942,28.297581 27.1196942,24.9337061 L27.1196942,19.6491328 L3.88030578,19.6491328 Z" id="路径备份" fill="url(#linearGradient-14)"></path>
                        <path d="M3.88030578,19.6491328 C3.88030578,22.9994545 9.08262009,25.7154268 15.5,25.7154268 C21.9173799,25.7154268 27.1196942,22.9994545 27.1196942,19.6491328 C27.1196942,16.2988112 21.9173799,13.5828389 15.5,13.5828389 C9.08262009,13.5828389 3.88030578,16.2988112 3.88030578,19.6491328 L3.88030578,19.6491328 Z" id="路径备份-2" fill="url(#linearGradient-15)"></path>
                        <g id="路径备份-3">
                            <use fill="black" fill-opacity="1" filter="url(#filter-18)" xlink:href="#path-17"></use>
                            <use fill="url(#linearGradient-16)" fill-rule="evenodd" xlink:href="#path-17"></use>
                            <use fill="black" fill-opacity="1" filter="url(#filter-19)" xlink:href="#path-17"></use>
                        </g>
                        <path d="M3.88030578,12.8577134 C3.88030578,16.208035 9.08262009,18.9240073 15.5,18.9240073 C21.9173799,18.9240073 27.1196942,16.208035 27.1196942,12.8577134 C27.1196942,9.50739173 21.9173799,6.79141942 15.5,6.79141942 C9.08262009,6.79141942 3.88030578,9.50739173 3.88030578,12.8577134 Z" id="路径备份-4" fill="url(#linearGradient-15)"></path>
                        <g id="路径备份-5">
                            <use fill="black" fill-opacity="1" filter="url(#filter-21)" xlink:href="#path-20"></use>
                            <use fill="url(#linearGradient-16)" fill-rule="evenodd" xlink:href="#path-20"></use>
                            <use fill="black" fill-opacity="1" filter="url(#filter-22)" xlink:href="#path-20"></use>
                        </g>
                        <g id="路径备份-6">
                            <use fill="black" fill-opacity="1" filter="url(#filter-25)" xlink:href="#path-24"></use>
                            <use fill="url(#linearGradient-23)" fill-rule="evenodd" xlink:href="#path-24"></use>
                            <use fill="black" fill-opacity="1" filter="url(#filter-26)" xlink:href="#path-24"></use>
                        </g>
                        <g id="路径备份-7">
                            <use fill="black" fill-opacity="1" filter="url(#filter-29)" xlink:href="#path-28"></use>
                            <use fill="url(#linearGradient-27)" fill-rule="evenodd" xlink:href="#path-28"></use>
                            <use fill="black" fill-opacity="1" filter="url(#filter-30)" xlink:href="#path-28"></use>
                        </g>
                        <g id="椭圆形备份-20">
                            <use fill="black" fill-opacity="1" filter="url(#filter-32)" xlink:href="#path-31"></use>
                            <use fill="#FFFFFF" fill-rule="evenodd" xlink:href="#path-31"></use>
                        </g>
                        <g id="椭圆形备份-21">
                            <use fill="black" fill-opacity="1" filter="url(#filter-34)" xlink:href="#path-33"></use>
                            <use fill="#FFFFFF" fill-rule="evenodd" xlink:href="#path-33"></use>
                        </g>
                        <g id="椭圆形备份-22">
                            <use fill="black" fill-opacity="1" filter="url(#filter-36)" xlink:href="#path-35"></use>
                            <use fill="#FFFFFF" fill-rule="evenodd" xlink:href="#path-35"></use>
                        </g>
                        <g id="路径备份-8">
                            <use fill="black" fill-opacity="1" filter="url(#filter-38)" xlink:href="#path-37"></use>
                            <use fill="#FFFFFF" fill-rule="evenodd" xlink:href="#path-37"></use>
                        </g>
                        <g id="路径备份-9">
                            <use fill="black" fill-opacity="1" filter="url(#filter-40)" xlink:href="#path-39"></use>
                            <use fill="#FFFFFF" fill-rule="evenodd" xlink:href="#path-39"></use>
                        </g>
                    </g>
                    <path d="M41.0953711,54.2618924 L41.0953711,21.3918924 L17.0053711,10.9318924 L17.0053711,43.2218924 L41.0953711,54.2618924 Z" id="路径" stroke-opacity="0.43" stroke="#FFFFFF" fill="url(#linearGradient-2)" opacity="0.39" stroke-dasharray="0,0"></path>
                    <path d="M41.0942383,21.3918924 L41.0942383,54.4118924 L65.1842383,43.3618924 L65.1842383,10.9318924 L41.0942383,21.3918924 Z" id="路径" stroke-opacity="0.43" stroke="#FFFFFF" fill="url(#linearGradient-1)" opacity="0.39" stroke-dasharray="0,0"></path>
                    <g id="路径">
                        <use fill="black" fill-opacity="1" filter="url(#filter-42)" xlink:href="#path-41"></use>
                        <use fill="#0BF9FE" fill-rule="evenodd" xlink:href="#path-41"></use>
                    </g>
                    <g id="路径">
                        <use fill="black" fill-opacity="1" filter="url(#filter-44)" xlink:href="#path-43"></use>
                        <use fill="#0BF9FE" fill-rule="evenodd" xlink:href="#path-43"></use>
                    </g>
                    <g id="路径">
                        <use fill="black" fill-opacity="1" filter="url(#filter-46)" xlink:href="#path-45"></use>
                        <use fill="#0BF9FE" fill-rule="evenodd" xlink:href="#path-45"></use>
                    </g>
                </g>
            </g>
        </g>
    </g>
</svg>