<?xml version="1.0" encoding="UTF-8"?>
<svg width="100%" height="100%" viewBox="0 0 341.931897 40.1324413" preserveAspectRatio="none" version="1.1" xmlns="http://www.w3.org/2000/svg" xmlns:xlink="http://www.w3.org/1999/xlink">
    <title>翻牌器-带透视四边形大背景</title>
    <defs>
        <linearGradient x1="35.9694535%" y1="126.83927%" x2="35.9694535%" y2="50%" id="linearGradient-1">
            <stop stop-color="#004BFF" offset="0%"></stop>
            <stop stop-color="#1C3A75" stop-opacity="0" offset="100%"></stop>
        </linearGradient>
        <linearGradient x1="40.4443814%" y1="366.88476%" x2="40.4443544%" y2="-57.8162405%" id="linearGradient-2">
            <stop stop-color="#0E5FFF" stop-opacity="0" offset="0%"></stop>
            <stop stop-color="#0E5FFF" offset="46.3967917%"></stop>
            <stop stop-color="#0E5FFF" stop-opacity="0.1" offset="74.169298%"></stop>
            <stop stop-color="#0E5FFF" stop-opacity="0" offset="100%"></stop>
        </linearGradient>
        <linearGradient x1="50%" y1="72.1375017%" x2="50%" y2="280.278851%" id="linearGradient-3">
            <stop stop-color="#F3C302" stop-opacity="0" offset="0%"></stop>
            <stop stop-color="#F3C302" stop-opacity="0.12" offset="100%"></stop>
        </linearGradient>
        <linearGradient x1="25.1873909%" y1="-82.7578146%" x2="58.8803536%" y2="-82.7578146%" id="linearGradient-4">
            <stop stop-color="#33CCCC" stop-opacity="0.2" offset="0%"></stop>
            <stop stop-color="#33CCCC" stop-opacity="0" offset="100%"></stop>
        </linearGradient>
        <linearGradient x1="44.5081145%" y1="49.654954%" x2="44.508285%" y2="51.9635078%" id="linearGradient-5">
            <stop stop-color="#0E5FFF" stop-opacity="0" offset="0%"></stop>
            <stop stop-color="#21F9FF" offset="52.6551573%"></stop>
            <stop stop-color="#03FAF1" offset="71.0422496%"></stop>
            <stop stop-color="#0E5FFF" stop-opacity="0" offset="100%"></stop>
        </linearGradient>
        <radialGradient cx="1.36271068%" cy="100%" fx="1.36271068%" fy="100%" r="72.3611799%" gradientTransform="translate(0.013627,1.000000),scale(0.083072,1.000000),rotate(-43.707594),translate(-0.013627,-1.000000)" id="radialGradient-6">
            <stop stop-color="#5EE3FA" offset="0%"></stop>
            <stop stop-color="#5EE3FA" stop-opacity="0" offset="100%"></stop>
        </radialGradient>
        <radialGradient cx="99.0838552%" cy="90.7223119%" fx="99.0838552%" fy="90.7223119%" r="50%" gradientTransform="translate(0.990839,0.907223),scale(0.083072,1.000000),rotate(90.000000),translate(-0.990839,-0.907223)" id="radialGradient-7">
            <stop stop-color="#5EE3FA" offset="0%"></stop>
            <stop stop-color="#5EE3FA" stop-opacity="0" offset="100%"></stop>
        </radialGradient>
        <path d="M27.7829781,0 L319.528285,0 C319.893317,-2.06545682e-15 320.238503,0.16615315 320.466203,0.451462014 L341.280194,26.5313992 C341.6936,27.0493972 341.608812,27.8044495 341.090814,28.2178556 C340.878215,28.3875271 340.61428,28.4799373 340.342276,28.4799373 L2.81046141,28.4799373 C2.14771968,28.4799373 1.61046136,27.9426789 1.61046136,27.2799372 C1.61046136,26.9706864 1.7298514,26.6733746 1.94373101,26.4500104 L26.9162477,0.370073226 C27.1426021,0.13368101 27.4556898,-2.38236878e-15 27.7829781,0 Z" id="path-8"></path>
        <linearGradient x1="43.0682256%" y1="50.345046%" x2="40.5643069%" y2="52.7473591%" id="linearGradient-9">
            <stop stop-color="#0E5FFF" stop-opacity="0" offset="0%"></stop>
            <stop stop-color="#21F9FF" offset="52.6551573%"></stop>
            <stop stop-color="#03FAF1" offset="71.0422496%"></stop>
            <stop stop-color="#0E5FFF" stop-opacity="0" offset="100%"></stop>
        </linearGradient>
        <radialGradient cx="2.430125%" cy="70.4348437%" fx="2.430125%" fy="70.4348437%" r="234.940883%" gradientTransform="translate(0.024301,0.704348),scale(0.083072,1.000000),rotate(82.226299),translate(-0.024301,-0.704348)" id="radialGradient-10">
            <stop stop-color="#5ADAFD" offset="0%"></stop>
            <stop stop-color="#5ADAFD" stop-opacity="0" offset="100%"></stop>
        </radialGradient>
        <path d="M27.7829781,0 L319.528285,0 C319.893317,-2.06545682e-15 320.238503,0.16615315 320.466203,0.451462014 L341.280194,26.5313992 C341.6936,27.0493972 341.608812,27.8044495 341.090814,28.2178556 C340.878215,28.3875271 340.61428,28.4799373 340.342276,28.4799373 L2.81046141,28.4799373 C2.14771968,28.4799373 1.61046136,27.9426789 1.61046136,27.2799372 C1.61046136,26.9706864 1.7298514,26.6733746 1.94373101,26.4500104 L26.9162477,0.370073226 C27.1426021,0.13368101 27.4556898,-2.38236878e-15 27.7829781,0 Z" id="path-11"></path>
        <linearGradient x1="50%" y1="50%" x2="50%" y2="100%" id="linearGradient-13">
            <stop stop-color="#398DE8" stop-opacity="0" offset="0%"></stop>
            <stop stop-color="#398DE8" offset="100%"></stop>
        </linearGradient>
    </defs>
    <g id="数据指标组" stroke="none" stroke-width="1" fill="none" fill-rule="evenodd">
        <g id="切片" transform="translate(-138.510860, -2909.174645)">
            <g id="翻牌器切片" transform="translate(133.000000, 2456.092407)">
                <g id="编组-19" transform="translate(4.900399, 454.082238)">
                    <path d="M22.7580481,23.8253547 L318.479959,23.8253547 C318.850932,23.8253547 319.201048,23.9969327 319.428341,24.290119 L329.434596,37.1972055 C329.840655,37.7209824 329.745227,38.4747638 329.22145,38.8808233 C329.011064,39.0439252 328.752417,39.1324413 328.486214,39.1324413 L10.8408463,39.1324413 C10.1781046,39.1324413 9.64084625,38.595183 9.64084625,37.9324413 C9.64084625,37.6307218 9.75450536,37.3400748 9.95918319,37.1183957 L21.8763849,24.2113092 C22.1035483,23.9652768 22.4231822,23.8253547 22.7580481,23.8253547 Z" id="矩形备份-11" fill="url(#linearGradient-1)"></path>
                    <g id="矩形">
                        <use fill="url(#linearGradient-2)" fill-rule="evenodd" xlink:href="#path-8"></use>
                        <use fill="url(#linearGradient-3)" fill-rule="evenodd" xlink:href="#path-8"></use>
                        <use stroke="url(#linearGradient-5)" stroke-width="1.5" fill="url(#linearGradient-4)" fill-rule="evenodd" xlink:href="#path-8"></use>
                        <use stroke="url(#radialGradient-6)" stroke-width="1.5" xlink:href="#path-8"></use>
                        <use stroke="url(#radialGradient-7)" stroke-width="1" xlink:href="#path-8"></use>
                    </g>
                    <g id="编组-10">
                        <mask id="mask-12" fill="white">
                            <use xlink:href="#path-11"></use>
                        </mask>
                        <g id="矩形">
                            <use fill="url(#linearGradient-2)" fill-rule="evenodd" xlink:href="#path-11"></use>
                            <use fill="url(#linearGradient-3)" fill-rule="evenodd" xlink:href="#path-11"></use>
                            <use fill="url(#linearGradient-4)" fill-rule="evenodd" xlink:href="#path-11"></use>
                            <use stroke="url(#linearGradient-9)" stroke-width="1.2" xlink:href="#path-11"></use>
                            <use stroke="url(#radialGradient-10)" stroke-width="2" xlink:href="#path-11"></use>
                        </g>
                        <path d="M-2.94453531,34.3253547 L38.2552052,-8.67464527 M0.0554646929,34.3253547 L41.2552052,-8.67464527 M3.05546469,34.3253547 L44.2552052,-8.67464527 M6.05546469,34.3253547 L47.2552052,-8.67464527 M9.05546469,34.3253547 L50.2552052,-8.67464527 M12.0554647,34.3253547 L53.2552052,-8.67464527 M15.0554647,34.3253547 L56.2552052,-8.67464527 M17.0554647,35.3253547 L58.2552052,-7.67464527 M20.0554647,35.3253547 L61.2552052,-7.67464527 M23.0554647,35.3253547 L64.2552052,-7.67464527 M26.0554647,35.3253547 L67.2552052,-7.67464527 M29.0554647,35.3253547 L70.2552052,-7.67464527 M32.0554647,35.3253547 L73.2552052,-7.67464527 M35.0554647,35.3253547 L76.2552052,-7.67464527 M38.0554647,35.3253547 L79.2552052,-7.67464527 M41.0554647,35.3253547 L82.2552052,-7.67464527 M44.0554647,35.3253547 L85.2552052,-7.67464527 M47.0554647,35.3253547 L88.2552052,-7.67464527 M50.0554647,35.3253547 L91.2552052,-7.67464527 M53.0554647,35.3253547 L94.2552052,-7.67464527 M56.0554647,35.3253547 L97.2552052,-7.67464527 M58.0554647,36.3253547 L99.2552052,-6.67464527 M61.0554647,36.3253547 L102.255205,-6.67464527 M64.0554647,36.3253547 L105.255205,-6.67464527 M67.0554647,36.3253547 L108.255205,-6.67464527 M70.0554647,36.3253547 L111.255205,-6.67464527 M73.0554647,36.3253547 L114.255205,-6.67464527 M76.0554647,36.3253547 L117.255205,-6.67464527 M79.0554647,36.3253547 L120.255205,-6.67464527 M82.0554647,36.3253547 L123.255205,-6.67464527 M85.0554647,36.3253547 L126.255205,-6.67464527 M88.0554647,36.3253547 L129.255205,-6.67464527 M91.0554647,36.3253547 L132.255205,-6.67464527 M94.0554647,36.3253547 L135.255205,-6.67464527 M97.0554647,36.3253547 L138.255205,-6.67464527 M99.0554647,37.3253547 L140.255205,-5.67464527 M102.055465,37.3253547 L143.255205,-5.67464527 M105.055465,37.3253547 L146.255205,-5.67464527 M108.055465,37.3253547 L149.255205,-5.67464527 M111.055465,37.3253547 L152.255205,-5.67464527 M114.055465,37.3253547 L155.255205,-5.67464527 M117.055465,37.3253547 L158.255205,-5.67464527 M120.055465,37.3253547 L161.255205,-5.67464527 M123.055465,37.3253547 L164.255205,-5.67464527 M126.055465,37.3253547 L167.255205,-5.67464527 M129.055465,37.3253547 L170.255205,-5.67464527 M132.055465,37.3253547 L173.255205,-5.67464527 M135.055465,37.3253547 L176.255205,-5.67464527 M138.055465,37.3253547 L179.255205,-5.67464527 M140.055465,38.3253547 L181.255205,-4.67464527 M143.055465,38.3253547 L184.255205,-4.67464527 M146.055465,38.3253547 L187.255205,-4.67464527 M149.055465,38.3253547 L190.255205,-4.67464527 M152.055465,38.3253547 L193.255205,-4.67464527 M155.055465,38.3253547 L196.255205,-4.67464527 M158.055465,38.3253547 L199.255205,-4.67464527 M162.055465,37.3253547 L203.255205,-5.67464527 M165.055465,37.3253547 L206.255205,-5.67464527 M168.055465,37.3253547 L209.255205,-5.67464527 M171.055465,37.3253547 L212.255205,-5.67464527 M174.055465,37.3253547 L215.255205,-5.67464527 M177.055465,37.3253547 L218.255205,-5.67464527 M180.055465,37.3253547 L221.255205,-5.67464527 M182.055465,38.3253547 L223.255205,-4.67464527 M185.055465,38.3253547 L226.255205,-4.67464527 M188.055465,38.3253547 L229.255205,-4.67464527 M191.055465,38.3253547 L232.255205,-4.67464527 M194.055465,38.3253547 L235.255205,-4.67464527 M197.055465,38.3253547 L238.255205,-4.67464527 M200.055465,38.3253547 L241.255205,-4.67464527 M203.055465,38.3253547 L244.255205,-4.67464527 M206.055465,38.3253547 L247.255205,-4.67464527 M209.055465,38.3253547 L250.255205,-4.67464527 M212.055465,38.3253547 L253.255205,-4.67464527 M215.055465,38.3253547 L256.255205,-4.67464527 M218.055465,38.3253547 L259.255205,-4.67464527 M221.055465,38.3253547 L262.255205,-4.67464527 M223.055465,39.3253547 L264.255205,-3.67464527 M226.055465,39.3253547 L267.255205,-3.67464527 M229.055465,39.3253547 L270.255205,-3.67464527 M232.055465,39.3253547 L273.255205,-3.67464527 M235.055465,39.3253547 L276.255205,-3.67464527 M238.055465,39.3253547 L279.255205,-3.67464527 M241.055465,39.3253547 L282.255205,-3.67464527 M244.055465,39.3253547 L285.255205,-3.67464527 M247.055465,39.3253547 L288.255205,-3.67464527 M250.055465,39.3253547 L291.255205,-3.67464527 M253.055465,39.3253547 L294.255205,-3.67464527 M256.055465,39.3253547 L297.255205,-3.67464527 M259.055465,39.3253547 L300.255205,-3.67464527 M262.055465,39.3253547 L303.255205,-3.67464527 M264.055465,40.3253547 L305.255205,-2.67464527 M267.055465,40.3253547 L308.255205,-2.67464527 M270.055465,40.3253547 L311.255205,-2.67464527 M273.055465,40.3253547 L314.255205,-2.67464527 M276.055465,40.3253547 L317.255205,-2.67464527 M279.055465,40.3253547 L320.255205,-2.67464527 M282.055465,40.3253547 L323.255205,-2.67464527 M285.055465,40.3253547 L326.255205,-2.67464527 M288.055465,40.3253547 L329.255205,-2.67464527 M291.055465,40.3253547 L332.255205,-2.67464527 M294.055465,40.3253547 L335.255205,-2.67464527 M297.055465,40.3253547 L338.255205,-2.67464527 M300.055465,40.3253547 L341.255205,-2.67464527 M303.055465,40.3253547 L344.255205,-2.67464527 M305.055465,41.3253547 L346.255205,-1.67464527 M308.055465,41.3253547 L349.255205,-1.67464527 M311.055465,41.3253547 L352.255205,-1.67464527 M314.055465,41.3253547 L355.255205,-1.67464527 M317.055465,41.3253547 L358.255205,-1.67464527 M320.055465,41.3253547 L361.255205,-1.67464527 M323.055465,41.3253547 L364.255205,-1.67464527" id="形状结合" stroke="url(#linearGradient-13)" mask="url(#mask-12)"></path>
                    </g>
                </g>
            </g>
        </g>
    </g>
</svg>