<?xml version="1.0" encoding="UTF-8"?>
<svg width="100%" height="100%" preserveAspectRatio="none" viewBox="0 0 383.471986 127.670842" version="1.1" xmlns="http://www.w3.org/2000/svg" xmlns:xlink="http://www.w3.org/1999/xlink">
    <title>按钮样式一</title>
    <defs>
        <linearGradient x1="50%" y1="0%" x2="50%" y2="100%" id="linearGradient-1">
            <stop stop-color="#000000" stop-opacity="0.5216" offset="0%"></stop>
            <stop stop-color="#001F3E" offset="100%"></stop>
        </linearGradient>
        <linearGradient x1="50%" y1="0%" x2="50%" y2="90.8517264%" id="linearGradient-2">
            <stop stop-color="#004BFF" stop-opacity="0.5" offset="0%"></stop>
            <stop stop-color="#004BFF" stop-opacity="0" offset="100%"></stop>
        </linearGradient>
        <linearGradient x1="83.0444241%" y1="43.5139276%" x2="50%" y2="53.8676626%" id="linearGradient-3">
            <stop stop-color="#004BFF" offset="0%"></stop>
            <stop stop-color="#66FFFF" offset="100%"></stop>
        </linearGradient>
        <path d="M312.072417,0.205491736 L315.551044,6.21075816 L315.583786,6.19284331 L315.583091,6.21511076 L348.860786,6.21584331 L352.491417,12.4844917 L352.491551,98.105362 L41.1084167,98.1044917 L37.8277894,92.4412253 L37.7950475,92.4591402 L37.7957422,92.4368727 L4.51804745,92.4361402 L0.491416739,85.4824917 L0.491551016,0.205756406 L312.072417,0.205491736 Z" id="path-4"></path>
        <filter x="-2.4%" y="-8.7%" width="104.8%" height="117.4%" filterUnits="objectBoundingBox" id="filter-5">
            <feGaussianBlur stdDeviation="8.5" in="SourceAlpha" result="shadowBlurInner1"></feGaussianBlur>
            <feOffset dx="0" dy="0" in="shadowBlurInner1" result="shadowOffsetInner1"></feOffset>
            <feComposite in="shadowOffsetInner1" in2="SourceAlpha" operator="arithmetic" k2="-1" k3="1" result="shadowInnerInner1"></feComposite>
            <feColorMatrix values="0 0 0 0 0   0 0 0 0 0.533333333   0 0 0 0 1  0 0 0 1 0" type="matrix" in="shadowInnerInner1"></feColorMatrix>
        </filter>
        <mask id="mask-6" maskContentUnits="userSpaceOnUse" maskUnits="objectBoundingBox" x="0" y="0" width="352.000134" height="97.8998702" fill="white">
            <use xlink:href="#path-4"></use>
        </mask>
        <polygon id="path-7" points="0 97.6708419 38.28 97.6708419 36.432 94.5028419 3.234 94.5028419 0 89.0688419"></polygon>
        <filter x="-58.8%" y="-322.8%" width="221.4%" height="684.4%" filterUnits="objectBoundingBox" id="filter-8">
            <feMorphology radius="1" operator="dilate" in="SourceAlpha" result="shadowSpreadOuter1"></feMorphology>
            <feOffset dx="0" dy="0" in="shadowSpreadOuter1" result="shadowOffsetOuter1"></feOffset>
            <feGaussianBlur stdDeviation="6.5" in="shadowOffsetOuter1" result="shadowBlurOuter1"></feGaussianBlur>
            <feColorMatrix values="0 0 0 0 0.4   0 0 0 0 1   0 0 0 0 1  0 0 0 1 0" type="matrix" in="shadowBlurOuter1"></feColorMatrix>
        </filter>
        <polygon id="path-9" points="353.471986 0 315.191986 0 317.039986 3.168 350.237986 3.168 353.471986 8.602"></polygon>
        <filter x="-62.6%" y="-261.6%" width="221.4%" height="684.4%" filterUnits="objectBoundingBox" id="filter-10">
            <feMorphology radius="1" operator="dilate" in="SourceAlpha" result="shadowSpreadOuter1"></feMorphology>
            <feOffset dx="0" dy="0" in="shadowSpreadOuter1" result="shadowOffsetOuter1"></feOffset>
            <feGaussianBlur stdDeviation="6.5" in="shadowOffsetOuter1" result="shadowBlurOuter1"></feGaussianBlur>
            <feColorMatrix values="0 0 0 0 0.4   0 0 0 0 1   0 0 0 0 1  0 0 0 1 0" type="matrix" in="shadowBlurOuter1"></feColorMatrix>
        </filter>
        <linearGradient x1="-1.49021844e-06%" y1="102.736592%" x2="-1.49021845e-06%" y2="-5.61604391%" id="linearGradient-11">
            <stop stop-color="#0E5FFF" stop-opacity="0" offset="0%"></stop>
            <stop stop-color="#0E5FFF" stop-opacity="0.1" offset="25.830702%"></stop>
            <stop stop-color="#0E5FFF" offset="60.4246107%"></stop>
            <stop stop-color="#0E5FFF" stop-opacity="0" offset="100%"></stop>
        </linearGradient>
    </defs>
    <g id="按钮" stroke="none" stroke-width="1" fill="none" fill-rule="evenodd">
        <g id="按钮切图" transform="translate(-82.5086, -173.9915)">
            <g id="编组" transform="translate(97.5086, 188.9915)">
                <g id="减去-203" stroke-dasharray="0,0">
                    <use fill="url(#linearGradient-1)" fill-rule="evenodd" xlink:href="#path-4"></use>
                    <use fill="url(#linearGradient-2)" fill-rule="evenodd" xlink:href="#path-4"></use>
                    <use fill="black" fill-opacity="1" filter="url(#filter-5)" xlink:href="#path-4"></use>
                    <use stroke="url(#linearGradient-3)" mask="url(#mask-6)" stroke-width="2.2" xlink:href="#path-4"></use>
                </g>
                <g id="路径">
                    <use fill="black" fill-opacity="1" filter="url(#filter-8)" xlink:href="#path-7"></use>
                    <use fill="#CCFFFF" fill-rule="evenodd" xlink:href="#path-7"></use>
                </g>
                <g id="路径">
                    <use fill="black" fill-opacity="1" filter="url(#filter-10)" xlink:href="#path-9"></use>
                    <use fill="#CCFFFF" fill-rule="evenodd" xlink:href="#path-9"></use>
                </g>
                <g id="组-6359" transform="translate(8.7, 10.9828)">
                    <rect id="路径" x="0" y="0" width="337.7" height="4.4"></rect>
                    <path d="M0,0 L17.6,0 L17.6,4.4 L0,4.4 L0,0 Z" id="矩形-3603" fill="#5EB0FC"></path>
                    <path d="M321.2,0 L337.7,0 L337.7,4.4 L321.2,4.4 L321.2,0 Z" id="矩形-3610" fill="#5EB0FC"></path>
                    <path d="M17.6,0 L337.7,0 L337.7,1.1 L17.6,1.1 L17.6,0 Z" id="矩形-3604" fill="#5CAEF9" opacity="0.35"></path>
                </g>
                <g id="组-6360" transform="translate(8.7, 81.2434)">
                    <rect id="路径" x="0" y="0" width="337.7" height="4.4"></rect>
                    <path d="M0,0 L17.6,0 L17.6,4.4 L0,4.4 L0,0 Z" id="矩形-3603" fill="#5EB0FC"></path>
                    <path d="M321.2,0 L337.7,0 L337.7,4.4 L321.2,4.4 L321.2,0 Z" id="矩形-3610" fill="#5EB0FC"></path>
                    <path d="M17.6,3.3 L337.7,3.3 L337.7,4.4 L17.6,4.4 L17.6,3.3 Z" id="矩形-3604" fill="#5CAEF9" opacity="0.35"></path>
                </g>
                <path d="M8.69937334,19.7245961 L13.0998029,19.7245961 L13.0998029,24.2468184 L8.69937334,24.2468184 L8.69937334,19.7245961 Z M8.69937334,28.7691181 L13.0998029,28.7691181 L13.0998029,33.2913404 L8.69937334,33.2913404 L8.69937334,28.7691181 Z M8.69937334,37.8135396 L13.0998029,37.8135396 L13.0998029,42.3357619 L8.69937334,42.3357619 L8.69937334,37.8135396 Z M8.69937334,46.8579621 L13.0998029,46.8579621 L13.0998029,51.3801844 L8.69937334,51.3801844 L8.69937334,46.8579621 Z M8.69937334,55.9023867 L13.0998029,55.9023867 L13.0998029,60.424609 L8.69937334,60.424609 L8.69937334,55.9023867 Z" id="联合-253" fill="url(#linearGradient-11)"></path>
            </g>
        </g>
    </g>
</svg>