<?xml version="1.0" encoding="UTF-8"?>
<svg width="100%" height="100%" preserveAspectRatio="none" viewBox="0 0 429.98333 119" version="1.1" xmlns="http://www.w3.org/2000/svg" xmlns:xlink="http://www.w3.org/1999/xlink">
    <title>按钮样式二</title>
    <defs>
        <linearGradient x1="4.09288566%" y1="46.4919893%" x2="100%" y2="51.0333422%" id="linearGradient-1">
            <stop stop-color="#3D7FFF" stop-opacity="0" offset="0%"></stop>
            <stop stop-color="#3D75FF" stop-opacity="0.698880262" offset="33.9578719%"></stop>
            <stop stop-color="#66FFFF" offset="48.5889698%"></stop>
            <stop stop-color="#3D76FF" stop-opacity="0.629205177" offset="67.6519137%"></stop>
            <stop stop-color="#3D7FFF" stop-opacity="0" offset="100%"></stop>
        </linearGradient>
        <linearGradient x1="50%" y1="0%" x2="50%" y2="100%" id="linearGradient-2">
            <stop stop-color="#000000" stop-opacity="0.5216" offset="0%"></stop>
            <stop stop-color="#001F3E" offset="100%"></stop>
        </linearGradient>
        <linearGradient x1="50%" y1="0%" x2="50%" y2="90.8517264%" id="linearGradient-3">
            <stop stop-color="#004BFF" stop-opacity="0.5" offset="0%"></stop>
            <stop stop-color="#004BFF" stop-opacity="0" offset="100%"></stop>
        </linearGradient>
        <linearGradient x1="83.0444241%" y1="44.7938317%" x2="41.5018117%" y2="51.8772615%" id="linearGradient-4">
            <stop stop-color="#66FFFF" offset="0%"></stop>
            <stop stop-color="#004BFF" stop-opacity="0" offset="100%"></stop>
        </linearGradient>
        <path d="M58.8922388,0 L410.892239,0 L370,97.8996056 L18,97.8996056 L58.8922388,0 Z" id="path-5"></path>
        <filter x="-2.2%" y="-8.7%" width="104.3%" height="117.4%" filterUnits="objectBoundingBox" id="filter-6">
            <feGaussianBlur stdDeviation="8.5" in="SourceAlpha" result="shadowBlurInner1"></feGaussianBlur>
            <feOffset dx="0" dy="0" in="shadowBlurInner1" result="shadowOffsetInner1"></feOffset>
            <feComposite in="shadowOffsetInner1" in2="SourceAlpha" operator="arithmetic" k2="-1" k3="1" result="shadowInnerInner1"></feComposite>
            <feColorMatrix values="0 0 0 0 0   0 0 0 0 0.533333333   0 0 0 0 1  0 0 0 1 0" type="matrix" in="shadowInnerInner1"></feColorMatrix>
        </filter>
        <mask id="mask-7" maskContentUnits="userSpaceOnUse" maskUnits="objectBoundingBox" x="0" y="0" width="392.892239" height="97.8996056" fill="white">
            <use xlink:href="#path-5"></use>
        </mask>
        <linearGradient x1="50%" y1="0%" x2="50%" y2="100%" id="linearGradient-8">
            <stop stop-color="#000000" stop-opacity="0.5216" offset="0%"></stop>
            <stop stop-color="#001F3E" offset="100%"></stop>
        </linearGradient>
        <linearGradient x1="50%" y1="0%" x2="50%" y2="90.8517264%" id="linearGradient-9">
            <stop stop-color="#004BFF" stop-opacity="0.5" offset="0%"></stop>
            <stop stop-color="#004BFF" stop-opacity="0" offset="100%"></stop>
        </linearGradient>
        <linearGradient x1="34.6379068%" y1="0%" x2="63.5940114%" y2="50%" id="linearGradient-10">
            <stop stop-color="#3D7FFF" stop-opacity="0" offset="0%"></stop>
            <stop stop-color="#3D75FF" stop-opacity="0.698880262" offset="33.9578719%"></stop>
            <stop stop-color="#66FFFF" offset="48.5889698%"></stop>
            <stop stop-color="#3D76FF" stop-opacity="0.629205177" offset="67.6519137%"></stop>
            <stop stop-color="#3D7FFF" stop-opacity="0" offset="100%"></stop>
        </linearGradient>
        <path d="M40.8922388,0 L53.9831959,0 L13.0909571,97.8996056 L0,97.8996056 L40.8922388,0 Z" id="path-11"></path>
        <mask id="mask-12" maskContentUnits="userSpaceOnUse" maskUnits="objectBoundingBox" x="0" y="0" width="53.9831959" height="97.8996056" fill="white">
            <use xlink:href="#path-11"></use>
        </mask>
        <linearGradient x1="74.0067536%" y1="-21.0748027%" x2="52.3408023%" y2="69.7767972%" id="linearGradient-13">
            <stop stop-color="#004BFF" stop-opacity="0" offset="0%"></stop>
            <stop stop-color="#004BFF" stop-opacity="0.5" offset="100%"></stop>
        </linearGradient>
        <linearGradient x1="61.6521944%" y1="3.33339749%" x2="32.7211187%" y2="124.927182%" id="linearGradient-14">
            <stop stop-color="#3D7FFF" stop-opacity="0" offset="0%"></stop>
            <stop stop-color="#3D76FF" stop-opacity="0.629205177" offset="32.3480863%"></stop>
            <stop stop-color="#66FFFF" offset="59.6324322%"></stop>
            <stop stop-color="#3D75FF" stop-opacity="0.698880262" offset="76.5574525%"></stop>
            <stop stop-color="#3D7FFF" stop-opacity="0" offset="100%"></stop>
        </linearGradient>
        <path d="M415.892239,7.81597009e-14 L428.983196,7.81597009e-14 L388.090957,97.8996056 L375,97.8996056 L415.892239,7.81597009e-14 Z" id="path-15"></path>
        <mask id="mask-16" maskContentUnits="userSpaceOnUse" maskUnits="objectBoundingBox" x="0" y="0" width="53.9831959" height="97.8996056" fill="white">
            <use xlink:href="#path-15"></use>
        </mask>
        <linearGradient x1="-1.49021844e-06%" y1="102.736592%" x2="-1.49021845e-06%" y2="-5.61604391%" id="linearGradient-17">
            <stop stop-color="#0E5FFF" stop-opacity="0" offset="0%"></stop>
            <stop stop-color="#0E5FFF" stop-opacity="0.1" offset="25.830702%"></stop>
            <stop stop-color="#0E5FFF" offset="60.4246107%"></stop>
            <stop stop-color="#0E5FFF" stop-opacity="0" offset="100%"></stop>
        </linearGradient>
    </defs>
    <g id="按钮" stroke="none" stroke-width="1" fill="none" fill-rule="evenodd">
        <g id="按钮切图" transform="translate(-555, -189)">
            <g id="按钮样式二" transform="translate(555, 189)">
                <path d="M407.633593,1 L358.336204,118 L1.50648658,118 L50.8038762,1 L407.633593,1 Z" id="矩形备份-2" stroke="url(#linearGradient-1)" stroke-width="2"></path>
                <g id="编组" transform="translate(1.0001, 10.1972)">
                    <g id="减去-203" stroke-dasharray="0,0">
                        <use fill="url(#linearGradient-2)" fill-rule="evenodd" xlink:href="#path-5"></use>
                        <use fill="url(#linearGradient-3)" fill-rule="evenodd" xlink:href="#path-5"></use>
                        <use fill="black" fill-opacity="1" filter="url(#filter-6)" xlink:href="#path-5"></use>
                        <use stroke="url(#linearGradient-4)" mask="url(#mask-7)" stroke-width="2" xlink:href="#path-5"></use>
                    </g>
                    <g id="减去-203备份" stroke-dasharray="0,0">
                        <use fill="url(#linearGradient-8)" xlink:href="#path-11"></use>
                        <use stroke="url(#linearGradient-10)" mask="url(#mask-12)" stroke-width="2.2" fill="url(#linearGradient-9)" xlink:href="#path-11"></use>
                    </g>
                    <g id="减去-203备份-2" stroke-dasharray="0,0">
                        <use fill="url(#linearGradient-8)" xlink:href="#path-15"></use>
                        <use stroke="url(#linearGradient-14)" mask="url(#mask-16)" stroke-width="2.2" fill="url(#linearGradient-13)" xlink:href="#path-15"></use>
                    </g>
                    <g id="组-6359" transform="translate(26.2084, 10.777)">
                        <rect id="路径" x="0" y="0" width="337.7" height="4.4"></rect>
                        <path d="M37.8288744,0.627049769 L55.4288744,0.627049769 L53.6,4.4 L36,4.4 L37.8288744,0.627049769 Z" id="矩形-3603" fill="#5EB0FC"></path>
                        <path d="M358.930517,0.627049769 L375.430517,0.627049769 L373.7,4.4 L357.2,4.4 L358.930517,0.627049769 Z" id="矩形-3610" fill="#5EB0FC"></path>
                        <path d="M53.6,0.627049769 L373.7,0.627049769 L373.7,1.57028733 L53.6,1.57028733 L53.6,0.627049769 Z" id="矩形-3604" fill="#5CAEF9" opacity="0.35"></path>
                    </g>
                    <g id="组-6360" transform="translate(26.2084, 81.0376)">
                        <rect id="路径" x="0" y="0" width="337.7" height="4.4"></rect>
                        <path d="M10.024431,0 L27.624431,0 L25.6,4.4 L8,4.4 L10.024431,0 Z" id="矩形-3603" fill="#5EB0FC"></path>
                        <path d="M321.2,0 L337.7,0 L335.650937,4.4 L319.150937,4.4 L321.2,0 Z" id="矩形-3610" fill="#5EB0FC"></path>
                        <path d="M17.6,3.3 L334.6,3.3 L334.6,4.4 L17.6,4.4 L17.6,3.3 Z" id="矩形-3604" fill="#5CAEF9" opacity="0.35"></path>
                    </g>
                    <path d="M60.4110629,19.5188397 L64.8114925,19.5188397 L62.9000219,24.0410619 L58.4995923,24.0410619 L60.4110629,19.5188397 Z M56.588089,28.5633617 L60.9885186,28.5633617 L59.077048,33.085584 L54.6766184,33.085584 L56.588089,28.5633617 Z M52.7651576,37.6077832 L57.1655871,37.6077832 L55.2541166,42.1300055 L50.853687,42.1300055 L52.7651576,37.6077832 Z M48.9422257,46.6522057 L53.3426553,46.6522057 L51.4311847,51.174428 L47.0307551,51.174428 L48.9422257,46.6522057 Z M45.1192929,55.6966303 L49.5197225,55.6966303 L47.6082519,60.2188526 L43.2078223,60.2188526 L45.1192929,55.6966303 Z" id="联合-253" fill="url(#linearGradient-17)"></path>
                    <path d="M376.411063,44.5188397 L380.811493,44.5188397 L378.900022,49.0410619 L374.499592,49.0410619 L376.411063,44.5188397 Z M372.588089,53.5633617 L376.988519,53.5633617 L375.077048,58.085584 L370.676618,58.085584 L372.588089,53.5633617 Z M368.765158,62.6077832 L373.165587,62.6077832 L371.254117,67.1300055 L366.853687,67.1300055 L368.765158,62.6077832 Z M364.942226,71.6522057 L369.342655,71.6522057 L367.431185,76.174428 L363.030755,76.174428 L364.942226,71.6522057 Z M361.119293,80.6966303 L365.519723,80.6966303 L363.608252,85.2188526 L359.207822,85.2188526 L361.119293,80.6966303 Z" id="联合-253备份-3" fill="url(#linearGradient-17)"></path>
                </g>
            </g>
        </g>
    </g>
</svg>