<?xml version="1.0" encoding="UTF-8"?>
<svg width="100%" height="100%" preserveAspectRatio="none" viewBox="0 0 352 99.4376111" version="1.1" xmlns="http://www.w3.org/2000/svg" xmlns:xlink="http://www.w3.org/1999/xlink">
    <title>按钮样式四</title>
    <defs>
        <linearGradient x1="50%" y1="0%" x2="50%" y2="100%" id="linearGradient-1">
            <stop stop-color="#000000" stop-opacity="0.5216" offset="0%"></stop>
            <stop stop-color="#001F3E" offset="100%"></stop>
        </linearGradient>
        <linearGradient x1="50%" y1="0%" x2="50%" y2="90.8517264%" id="linearGradient-2">
            <stop stop-color="#004BFF" stop-opacity="0.5" offset="0%"></stop>
            <stop stop-color="#004BFF" stop-opacity="0" offset="100%"></stop>
        </linearGradient>
        <linearGradient x1="83.0444241%" y1="43.5139577%" x2="50%" y2="53.8676446%" id="linearGradient-3">
            <stop stop-color="#004BFF" offset="0%"></stop>
            <stop stop-color="#66FFFF" offset="100%"></stop>
        </linearGradient>
        <path d="M272.254043,0 C325.236125,0 343.011328,0 325.579652,0 L334.379652,0 L352,12.2051558 L352,97.8996056 L28.9194016,97.8996056 L13.7296517,97.8996056 L0,84.3376111 L0,60.2307098 L0,20.8293635 L0,0 L34.0784141,0" id="path-4"></path>
        <filter x="-2.7%" y="-9.7%" width="105.4%" height="119.4%" filterUnits="objectBoundingBox" id="filter-5">
            <feGaussianBlur stdDeviation="8.5" in="SourceAlpha" result="shadowBlurInner1"></feGaussianBlur>
            <feOffset dx="0" dy="0" in="shadowBlurInner1" result="shadowOffsetInner1"></feOffset>
            <feComposite in="shadowOffsetInner1" in2="SourceAlpha" operator="arithmetic" k2="-1" k3="1" result="shadowInnerInner1"></feComposite>
            <feColorMatrix values="0 0 0 0 0   0 0 0 0 0.533333333   0 0 0 0 1  0 0 0 1 0" type="matrix" in="shadowInnerInner1"></feColorMatrix>
        </filter>
        <mask id="mask-6" maskContentUnits="userSpaceOnUse" maskUnits="objectBoundingBox" x="0" y="0" width="352" height="97.8996056" fill="white">
            <use xlink:href="#path-4"></use>
        </mask>
        <path d="M272.254043,0 C325.236125,0 343.011328,0 325.579652,0 L334.379652,0 L352,12.2051558 L352,97.8996056 L28.9194016,97.8996056 L13.7296517,97.8996056 L0,84.3376111 L0,60.2307098 L0,20.8293635 L0,0 L34.0784141,0" id="path-7"></path>
        <filter x="-2.7%" y="-9.7%" width="105.4%" height="119.4%" filterUnits="objectBoundingBox" id="filter-9">
            <feGaussianBlur stdDeviation="8.5" in="SourceAlpha" result="shadowBlurInner1"></feGaussianBlur>
            <feOffset dx="0" dy="0" in="shadowBlurInner1" result="shadowOffsetInner1"></feOffset>
            <feComposite in="shadowOffsetInner1" in2="SourceAlpha" operator="arithmetic" k2="-1" k3="1" result="shadowInnerInner1"></feComposite>
            <feColorMatrix values="0 0 0 0 0   0 0 0 0 0.533333333   0 0 0 0 1  0 0 0 1 0" type="matrix" in="shadowInnerInner1"></feColorMatrix>
        </filter>
        <mask id="mask-10" maskContentUnits="userSpaceOnUse" maskUnits="objectBoundingBox" x="0" y="0" width="352" height="97.8996056" fill="white">
            <use xlink:href="#path-7"></use>
        </mask>
        <linearGradient x1="52.0277194%" y1="15.9675008%" x2="52.0277024%" y2="84.881097%" id="linearGradient-11">
            <stop stop-color="#0E5FFF" stop-opacity="0" offset="0%"></stop>
            <stop stop-color="#0E5FFF" stop-opacity="0.1" offset="25.830702%"></stop>
            <stop stop-color="#0E5FFF" offset="60.4246107%"></stop>
            <stop stop-color="#0E5FFF" stop-opacity="0" offset="100%"></stop>
        </linearGradient>
        <rect id="path-12" x="45.8203483" y="96.4376111" width="17.6" height="3"></rect>
        <filter x="-127.8%" y="-750.0%" width="355.7%" height="1600.0%" filterUnits="objectBoundingBox" id="filter-13">
            <feMorphology radius="1" operator="dilate" in="SourceAlpha" result="shadowSpreadOuter1"></feMorphology>
            <feOffset dx="0" dy="0" in="shadowSpreadOuter1" result="shadowOffsetOuter1"></feOffset>
            <feGaussianBlur stdDeviation="6.5" in="shadowOffsetOuter1" result="shadowBlurOuter1"></feGaussianBlur>
            <feColorMatrix values="0 0 0 0 0.4   0 0 0 0 1   0 0 0 0 1  0 0 0 1 0" type="matrix" in="shadowBlurOuter1"></feColorMatrix>
        </filter>
        <linearGradient x1="-1.49021844e-06%" y1="102.736592%" x2="-1.49021845e-06%" y2="-5.61604391%" id="linearGradient-14">
            <stop stop-color="#0E5FFF" stop-opacity="0" offset="0%"></stop>
            <stop stop-color="#0E5FFF" stop-opacity="0.1" offset="25.830702%"></stop>
            <stop stop-color="#0E5FFF" offset="60.4246107%"></stop>
            <stop stop-color="#0E5FFF" stop-opacity="0" offset="100%"></stop>
        </linearGradient>
        <linearGradient x1="67.2720927%" y1="61.2987338%" x2="76.7038485%" y2="33.5143292%" id="linearGradient-15">
            <stop stop-color="#E8FFFF" offset="0%"></stop>
            <stop stop-color="#63FFFF" offset="100%"></stop>
        </linearGradient>
        <path d="M320.43879,11.3270381 C320.43879,11.3270381 327.604035,11.3270381 341.934524,11.3270381 L341.934524,22.825397" id="path-16"></path>
        <filter x="-132.5%" y="-195.7%" width="337.1%" height="503.0%" filterUnits="objectBoundingBox" id="filter-17">
            <feMorphology radius="1" operator="dilate" in="SourceAlpha" result="shadowSpreadOuter1"></feMorphology>
            <feOffset dx="0" dy="0" in="shadowSpreadOuter1" result="shadowOffsetOuter1"></feOffset>
            <feGaussianBlur stdDeviation="6.5" in="shadowOffsetOuter1" result="shadowBlurOuter1"></feGaussianBlur>
            <feColorMatrix values="0 0 0 0 0.4   0 0 0 0 1   0 0 0 0 1  0 0 0 1 0" type="matrix" in="shadowBlurOuter1"></feColorMatrix>
        </filter>
        <linearGradient x1="73.0322995%" y1="40.0491157%" x2="53.8019255%" y2="55.2185892%" id="linearGradient-18">
            <stop stop-color="#8CFFFF" offset="0%"></stop>
            <stop stop-color="#CCFFFF" offset="100%"></stop>
        </linearGradient>
        <path d="M11.2793402,72.4911469 C11.2793402,72.4911469 22.1644016,72.4911469 43.9345242,72.4911469 L43.9345242,85.3237558" id="path-19"></path>
        <filter x="-95.1%" y="-175.3%" width="264.0%" height="458.0%" filterUnits="objectBoundingBox" id="filter-20">
            <feMorphology radius="1" operator="dilate" in="SourceAlpha" result="shadowSpreadOuter1"></feMorphology>
            <feOffset dx="0" dy="0" in="shadowSpreadOuter1" result="shadowOffsetOuter1"></feOffset>
            <feGaussianBlur stdDeviation="6.5" in="shadowOffsetOuter1" result="shadowBlurOuter1"></feGaussianBlur>
            <feColorMatrix values="0 0 0 0 0.4   0 0 0 0 1   0 0 0 0 1  0 0 0 1 0" type="matrix" in="shadowBlurOuter1"></feColorMatrix>
        </filter>
    </defs>
    <g id="按钮" stroke="none" stroke-width="1" fill="none" fill-rule="evenodd">
        <g id="按钮切图" transform="translate(-578.3882, -442.1972)">
            <g id="按钮样式四" transform="translate(578.3882, 442.1972)">
                <g id="减去-203" stroke-dasharray="0,0" transform="translate(176, 48.9498) scale(-1, 1) translate(-176, -48.9498)">
                    <use fill="url(#linearGradient-1)" fill-rule="evenodd" xlink:href="#path-4"></use>
                    <use fill="url(#linearGradient-2)" fill-rule="evenodd" xlink:href="#path-4"></use>
                    <use fill="black" fill-opacity="1" filter="url(#filter-5)" xlink:href="#path-4"></use>
                    <use stroke="url(#linearGradient-3)" mask="url(#mask-6)" stroke-width="4" xlink:href="#path-4"></use>
                </g>
                <g id="形状结合">
                    <mask id="mask-8" fill="white">
                        <use xlink:href="#path-7"></use>
                    </mask>
                    <g id="蒙版" stroke-dasharray="0,0" transform="translate(176, 48.9498) scale(-1, 1) translate(-176, -48.9498)">
                        <use fill="url(#linearGradient-1)" fill-rule="evenodd" xlink:href="#path-7"></use>
                        <use fill="url(#linearGradient-2)" fill-rule="evenodd" xlink:href="#path-7"></use>
                        <use fill="black" fill-opacity="1" filter="url(#filter-9)" xlink:href="#path-7"></use>
                        <use stroke="url(#linearGradient-3)" mask="url(#mask-10)" stroke-width="4" xlink:href="#path-7"></use>
                    </g>
                    <path d="M207.165497,-12.1972465 L116.611765,112.802754 L99.7070031,112.802754 L190.260735,-12.1972465 L207.165497,-12.1972465 Z M173.355973,-12.1972465 L82.8022412,112.802754 L65.8974793,112.802754 L156.451211,-12.1972465 L173.355973,-12.1972465 Z M139.546449,-12.1972465 L48.9927174,112.802754 L32.0879555,112.802754 L122.641687,-12.1972465 L139.546449,-12.1972465 Z M112.49883,-12.1972465 L21.9450984,112.802754 L5.04033646,112.802754 L95.5940684,-12.1972465 L112.49883,-12.1972465 Z M82.0702589,-12.1972465 L-8.48347306,112.802754 L-25.388235,112.802754 L65.165497,-12.1972465 L82.0702589,-12.1972465 Z M369.165497,-12.1972465 L278.611765,112.802754 L261.707003,112.802754 L352.260735,-12.1972465 L369.165497,-12.1972465 Z M400.165497,-12.1972465 L309.611765,112.802754 L292.707003,112.802754 L383.260735,-12.1972465 L400.165497,-12.1972465 Z M335.355973,-12.1972465 L244.802241,112.802754 L227.897479,112.802754 L318.451211,-12.1972465 L335.355973,-12.1972465 Z M301.546449,-12.1972465 L210.992717,112.802754 L194.087956,112.802754 L284.641687,-12.1972465 L301.546449,-12.1972465 Z M274.49883,-12.1972465 L183.945098,112.802754 L167.040336,112.802754 L257.594068,-12.1972465 L274.49883,-12.1972465 Z M244.070259,-12.1972465 L153.516527,112.802754 L136.611765,112.802754 L227.165497,-12.1972465 L244.070259,-12.1972465 Z" fill="url(#linearGradient-11)" opacity="0.139392671" mask="url(#mask-8)"></path>
                </g>
                <rect id="路径" x="8.8203483" y="10.7770381" width="337.7" height="4.4"></rect>
                <path d="M21.5228764,10.7927027 L342.420348,10.7927027 L342.420348,11.8613736 L21.5228764,11.8613736 L21.5228764,10.7927027 Z" id="矩形-3604" fill="#5CAEF9" opacity="0.35"></path>
                <rect id="路径" x="8.8203483" y="81.0376111" width="337.7" height="4.4"></rect>
                <g id="矩形-3603">
                    <use fill="black" fill-opacity="1" filter="url(#filter-13)" xlink:href="#path-12"></use>
                    <use fill="#CCFFFF" fill-rule="evenodd" xlink:href="#path-12"></use>
                </g>
                <path d="M11.4203483,84.3417961 L332.420348,84.3417961 L332.420348,85.4334261 L11.4203483,85.4334261 L11.4203483,84.3417961 Z" id="矩形-3604" fill="#5CAEF9" opacity="0.35"></path>
                <path d="M332.111765,84.8876111 C332.111765,84.8876111 335.386018,82.2719988 341.934524,77.0407742 C341.934524,60.7640919 341.934524,52.6257507 341.934524,52.6257507 C341.934524,52.6257507 341.934524,39.0428465 341.934524,11.8770381" id="路径-3" stroke-opacity="0.35" stroke="#5CAEF9"></path>
                <path d="M12.111765,84.8876111 C12.9156575,84.2454277 16.2279125,81.3950513 22.0485301,76.3364819 C22.0485301,60.0597995 22.0485301,51.9214584 22.0485301,51.9214584 C22.0485301,51.9214584 22.0485301,38.3385542 22.0485301,11.1727458" id="路径-3备份" stroke-opacity="0.35" stroke="#5CAEF9" transform="translate(17.0801, 48.0302) scale(-1, -1) translate(-17.0801, -48.0302)"></path>
                <path d="M2.81972164,19.5188397 L7.22015122,19.5188397 L7.22015122,24.0410619 L2.81972164,24.0410619 L2.81972164,19.5188397 Z M2.81972164,28.5633617 L7.22015122,28.5633617 L7.22015122,33.085584 L2.81972164,33.085584 L2.81972164,28.5633617 Z M2.81972164,37.6077832 L7.22015122,37.6077832 L7.22015122,42.1300055 L2.81972164,42.1300055 L2.81972164,37.6077832 Z M2.81972164,46.6522057 L7.22015122,46.6522057 L7.22015122,51.174428 L2.81972164,51.174428 L2.81972164,46.6522057 Z M2.81972164,55.6966303 L7.22015122,55.6966303 L7.22015122,60.2188526 L2.81972164,60.2188526 L2.81972164,55.6966303 Z" id="联合-253" fill="url(#linearGradient-14)"></path>
                <g id="路径-4">
                    <use fill="black" fill-opacity="1" filter="url(#filter-17)" xlink:href="#path-16"></use>
                    <use fill="url(#linearGradient-15)" fill-rule="evenodd" xlink:href="#path-16"></use>
                </g>
                <g id="路径-4备份" transform="translate(27.6069, 78.9075) scale(-1, -1) translate(-27.6069, -78.9075)">
                    <use fill="black" fill-opacity="1" filter="url(#filter-20)" xlink:href="#path-19"></use>
                    <use fill="url(#linearGradient-18)" fill-rule="evenodd" xlink:href="#path-19"></use>
                </g>
            </g>
        </g>
    </g>
</svg>