<?xml version="1.0" encoding="UTF-8"?>
<svg width="100%" height="100%" preserveAspectRatio="none" viewBox="0 0 365.4 149.908962" version="1.1" xmlns="http://www.w3.org/2000/svg" xmlns:xlink="http://www.w3.org/1999/xlink">
    <title>按钮样式三</title>
    <defs>
        <linearGradient x1="50%" y1="100%" x2="50%" y2="0%" id="linearGradient-1">
            <stop stop-color="#0080FF" stop-opacity="0.2706" offset="0%"></stop>
            <stop stop-color="#00062A" stop-opacity="0" offset="51.0419011%"></stop>
            <stop stop-color="#0099FF" stop-opacity="0.2784" offset="100%"></stop>
        </linearGradient>
        <linearGradient x1="49.8152411%" y1="44.0830887%" x2="50%" y2="55.1769716%" id="linearGradient-2">
            <stop stop-color="#49DDFF" offset="0%"></stop>
            <stop stop-color="#00B9FF" offset="63.9149913%"></stop>
            <stop stop-color="#23B9FF" offset="100%"></stop>
        </linearGradient>
        <path d="M305.339872,16.1656225 L321.932942,30.919777 L365.4,120.05714 L360.301782,133.742367 L213.294,133.014622 L210.188798,126.490012 L169.398904,126.490012 L166.404,132.779622 L5.4346207,131.969099 L0,118.364018 L43.0658468,29.5202408 L57.654953,16.1656225 L305.339872,16.1656225 Z" id="path-3"></path>
        <filter x="-1.2%" y="-3.8%" width="102.5%" height="107.7%" filterUnits="objectBoundingBox" id="filter-4">
            <feGaussianBlur stdDeviation="4.5" in="SourceAlpha" result="shadowBlurInner1"></feGaussianBlur>
            <feOffset dx="0" dy="0" in="shadowBlurInner1" result="shadowOffsetInner1"></feOffset>
            <feComposite in="shadowOffsetInner1" in2="SourceAlpha" operator="arithmetic" k2="-1" k3="1" result="shadowInnerInner1"></feComposite>
            <feColorMatrix values="0 0 0 0 0   0 0 0 0 0.501960784   0 0 0 0 1  0 0 0 1 0" type="matrix" in="shadowInnerInner1"></feColorMatrix>
        </filter>
        <mask id="mask-5" maskContentUnits="userSpaceOnUse" maskUnits="objectBoundingBox" x="0" y="0" width="365.4" height="117.576745" fill="white">
            <use xlink:href="#path-3"></use>
        </mask>
        <linearGradient x1="50%" y1="100%" x2="50%" y2="0%" id="linearGradient-6">
            <stop stop-color="#0080FF" stop-opacity="0.2706" offset="0%"></stop>
            <stop stop-color="#00062A" stop-opacity="0" offset="51.0419011%"></stop>
            <stop stop-color="#0099FF" stop-opacity="0.2784" offset="100%"></stop>
        </linearGradient>
        <polygon id="path-7" points="224.644039 28.0229716 67.4275436 28.0229716 52.504049 38.6519716 19.8097769 109.364972 25.3875672 120.191972 189.089304 120.929972 339.764576 121.604972 345.047224 110.714972 308.998105 38.6519716 296.117588 28.0229716"></polygon>
        <filter x="-1.4%" y="-4.8%" width="102.8%" height="109.6%" filterUnits="objectBoundingBox" id="filter-8">
            <feGaussianBlur stdDeviation="4.5" in="SourceAlpha" result="shadowBlurInner1"></feGaussianBlur>
            <feOffset dx="0" dy="0" in="shadowBlurInner1" result="shadowOffsetInner1"></feOffset>
            <feComposite in="shadowOffsetInner1" in2="SourceAlpha" operator="arithmetic" k2="-1" k3="1" result="shadowInnerInner1"></feComposite>
            <feColorMatrix values="0 0 0 0 0   0 0 0 0 0.501960784   0 0 0 0 1  0 0 0 1 0" type="matrix" in="shadowInnerInner1"></feColorMatrix>
        </filter>
        <mask id="mask-9" maskContentUnits="userSpaceOnUse" maskUnits="objectBoundingBox" x="0" y="0" width="325.237447" height="93.582" fill="white">
            <use xlink:href="#path-7"></use>
        </mask>
        <linearGradient x1="50%" y1="0%" x2="50%" y2="100%" id="linearGradient-10">
            <stop stop-color="#A8E3FF" offset="0%"></stop>
            <stop stop-color="#0093FF" offset="100%"></stop>
        </linearGradient>
        <linearGradient x1="50%" y1="0%" x2="50%" y2="100%" id="linearGradient-11">
            <stop stop-color="#A8E3FF" offset="0%"></stop>
            <stop stop-color="#0093FF" offset="100%"></stop>
        </linearGradient>
        <linearGradient x1="50%" y1="0%" x2="50%" y2="100%" id="linearGradient-12">
            <stop stop-color="#A8E3FF" offset="0%"></stop>
            <stop stop-color="#0093FF" offset="100%"></stop>
        </linearGradient>
        <linearGradient x1="50%" y1="100%" x2="50%" y2="0%" id="linearGradient-13">
            <stop stop-color="#0080FF" stop-opacity="0.2706" offset="0%"></stop>
            <stop stop-color="#00062A" stop-opacity="0" offset="51.0419011%"></stop>
            <stop stop-color="#0099FF" stop-opacity="0.2784" offset="100%"></stop>
        </linearGradient>
        <path d="M336.106606,118.491134 L341.600224,109.365246 C332.802916,90.8515564 326.139601,76.9763142 321.624336,67.7395195 C317.115309,58.5027247 312.503358,49.2676724 307.802531,40.0343626 L295.692873,29.2023617 L222.528152,29.8093042 L67.4279241,28.0199816 L52.5044295,38.6489816 L22.5623855,108.072104 L27.7797528,118.491134 L188.577788,119.202362 L336.106606,118.491134 Z" id="path-14"></path>
        <filter x="-1.4%" y="-4.9%" width="102.8%" height="109.9%" filterUnits="objectBoundingBox" id="filter-15">
            <feGaussianBlur stdDeviation="4.5" in="SourceAlpha" result="shadowBlurInner1"></feGaussianBlur>
            <feOffset dx="0" dy="0" in="shadowBlurInner1" result="shadowOffsetInner1"></feOffset>
            <feComposite in="shadowOffsetInner1" in2="SourceAlpha" operator="arithmetic" k2="-1" k3="1" result="shadowInnerInner1"></feComposite>
            <feColorMatrix values="0 0 0 0 0   0 0 0 0 0.501960784   0 0 0 0 1  0 0 0 1 0" type="matrix" in="shadowInnerInner1"></feColorMatrix>
        </filter>
        <linearGradient x1="23.3510769%" y1="12.3026878%" x2="70.6031253%" y2="100.000048%" id="linearGradient-16">
            <stop stop-color="#23B9FF" offset="0%"></stop>
            <stop stop-color="#FFFFFF" offset="50.2462983%"></stop>
            <stop stop-color="#00AEFF" offset="100%"></stop>
        </linearGradient>
        <path d="M24.4348995,121.859964 L41.6518995,121.859964 C42.3988995,121.859964 43.2887972,121.256964 43.6442079,120.509964 C43.9996185,119.762964 43.6835162,119.159964 42.9365162,119.159964 L26.8355162,119.159964 L21.6929569,109.349964 L28.6341691,94.7609636 C28.9895797,94.0139636 28.6734774,93.4109636 27.9264774,93.4109636 C27.1794774,93.4109636 26.2895797,94.0139636 25.9341691,94.7609636 L18.461982,110.465964 L24.4348995,121.859964 Z" id="path-17"></path>
        <filter x="-35.5%" y="-21.1%" width="171.1%" height="163.3%" filterUnits="objectBoundingBox" id="filter-18">
            <feOffset dx="0" dy="3" in="SourceAlpha" result="shadowOffsetOuter1"></feOffset>
            <feGaussianBlur stdDeviation="2.5" in="shadowOffsetOuter1" result="shadowBlurOuter1"></feGaussianBlur>
            <feColorMatrix values="0 0 0 0 0   0 0 0 0 0   0 0 0 0 0  0 0 0 1 0" type="matrix" in="shadowBlurOuter1"></feColorMatrix>
        </filter>
        <linearGradient x1="76.6697996%" y1="12.3026878%" x2="29.3807344%" y2="100.000048%" id="linearGradient-19">
            <stop stop-color="#23B9FF" offset="0%"></stop>
            <stop stop-color="#FFFFFF" offset="50.2462983%"></stop>
            <stop stop-color="#00AEFF" offset="100%"></stop>
        </linearGradient>
        <path d="M338.09084,94.7609636 C337.736212,94.0139636 336.846946,93.4109636 336.099946,93.4109636 C335.352946,93.4109636 335.036212,94.0139636 335.39084,94.7609636 L342.316761,109.349964 L337.16392,119.159964 L321.06292,119.159964 C320.31592,119.159964 319.999186,119.762964 320.353813,120.509964 C320.708441,121.256964 321.597707,121.859964 322.344707,121.859964 L339.561707,121.859964 L345.546566,110.465964 L338.09084,94.7609636 Z" id="path-20"></path>
        <filter x="-35.5%" y="-21.1%" width="171.0%" height="163.3%" filterUnits="objectBoundingBox" id="filter-21">
            <feOffset dx="0" dy="3" in="SourceAlpha" result="shadowOffsetOuter1"></feOffset>
            <feGaussianBlur stdDeviation="2.5" in="shadowOffsetOuter1" result="shadowBlurOuter1"></feGaussianBlur>
            <feColorMatrix values="0 0 0 0 0   0 0 0 0 0   0 0 0 0 0  0 0 0 1 0" type="matrix" in="shadowBlurOuter1"></feColorMatrix>
        </filter>
        <linearGradient x1="16.3792133%" y1="69.0598716%" x2="75.9932935%" y2="24.7198313%" id="linearGradient-22">
            <stop stop-color="#23B9FF" offset="0%"></stop>
            <stop stop-color="#FFFFFF" offset="50.2462983%"></stop>
            <stop stop-color="#00AEFF" offset="100%"></stop>
        </linearGradient>
        <path d="M66.7871426,26.1373684 L51.0319144,37.5313684 L45.0205849,53.2363684 C44.7346592,53.9833684 45.1068517,54.5863684 45.8538517,54.5863684 C46.6008517,54.5863684 47.4346592,53.9833684 47.7205849,53.2363684 L53.3047483,38.6473684 L66.8696762,28.8373684 L82.9706762,28.8373684 C83.7176762,28.8373684 84.5514837,28.2343684 84.8374094,27.4873684 C85.1233351,26.7403684 84.7511426,26.1373684 84.0041426,26.1373684 L66.7871426,26.1373684 Z" id="path-23"></path>
        <filter x="-22.5%" y="-21.1%" width="145.0%" height="163.3%" filterUnits="objectBoundingBox" id="filter-24">
            <feOffset dx="0" dy="3" in="SourceAlpha" result="shadowOffsetOuter1"></feOffset>
            <feGaussianBlur stdDeviation="2.5" in="shadowOffsetOuter1" result="shadowBlurOuter1"></feGaussianBlur>
            <feColorMatrix values="0 0 0 0 0   0 0 0 0 0   0 0 0 0 0  0 0 0 1 0" type="matrix" in="shadowBlurOuter1"></feColorMatrix>
        </filter>
        <linearGradient x1="16.3792133%" y1="69.2968331%" x2="75.9932935%" y2="24.4055361%" id="linearGradient-25">
            <stop stop-color="#23B9FF" offset="0%"></stop>
            <stop stop-color="#FFFFFF" offset="50.2462983%"></stop>
            <stop stop-color="#00AEFF" offset="100%"></stop>
        </linearGradient>
        <path d="M295.363118,26.1372522 L309.156179,37.8497916 L316.737362,53.1429886 C316.995814,53.8899886 316.601444,54.4929886 315.854444,54.4929886 C315.107444,54.4929886 314.295814,53.8899886 314.037362,53.1429886 L306.842301,38.9657916 L295.181283,28.8372522 L279.080283,28.8372522 C278.333283,28.8372522 277.521652,28.2342522 277.2632,27.4872522 C277.004748,26.7402522 277.399118,26.1372522 278.146118,26.1372522 L295.363118,26.1372522 Z" id="path-26"></path>
        <filter x="-22.7%" y="-21.2%" width="145.4%" height="163.5%" filterUnits="objectBoundingBox" id="filter-27">
            <feOffset dx="0" dy="3" in="SourceAlpha" result="shadowOffsetOuter1"></feOffset>
            <feGaussianBlur stdDeviation="2.5" in="shadowOffsetOuter1" result="shadowBlurOuter1"></feGaussianBlur>
            <feColorMatrix values="0 0 0 0 0   0 0 0 0 0   0 0 0 0 0  0 0 0 1 0" type="matrix" in="shadowBlurOuter1"></feColorMatrix>
        </filter>
        <linearGradient x1="2.00687535%" y1="100%" x2="100.607789%" y2="100%" id="linearGradient-28">
            <stop stop-color="#0080FF" stop-opacity="0" offset="0%"></stop>
            <stop stop-color="#5FAFFF" offset="30.1200002%"></stop>
            <stop stop-color="#CEFAFF" offset="50.6308019%"></stop>
            <stop stop-color="#5FAFFF" offset="67.7730978%"></stop>
            <stop stop-color="#0090FF" stop-opacity="0" offset="100%"></stop>
        </linearGradient>
        <filter x="0.0%" y="0.0%" width="100.0%" height="100.0%" filterUnits="objectBoundingBox" id="filter-29">
            <feGaussianBlur stdDeviation="0" in="SourceGraphic"></feGaussianBlur>
        </filter>
        <filter x="0.0%" y="0.0%" width="100.0%" height="100.0%" filterUnits="objectBoundingBox" id="filter-30">
            <feGaussianBlur stdDeviation="0" in="SourceGraphic"></feGaussianBlur>
        </filter>
        <linearGradient x1="50%" y1="0%" x2="50%" y2="100%" id="linearGradient-31">
            <stop stop-color="#11F7FF" offset="0%"></stop>
            <stop stop-color="#07EBFD" stop-opacity="0" offset="100%"></stop>
        </linearGradient>
        <linearGradient x1="17.5582349%" y1="31.1651553%" x2="38.8206713%" y2="75.9544934%" id="linearGradient-32">
            <stop stop-color="#CEFDFF" offset="0%"></stop>
            <stop stop-color="#8DFBFF" offset="15.6987544%"></stop>
            <stop stop-color="#07EBFD" stop-opacity="0" offset="65.5403191%"></stop>
            <stop stop-color="#27EFFD" stop-opacity="0" offset="90.7643138%"></stop>
            <stop stop-color="#75F8FF" stop-opacity="0.825089089" offset="100%"></stop>
        </linearGradient>
    </defs>
    <g id="按钮" stroke="none" stroke-width="1" fill="none" fill-rule="evenodd">
        <g id="按钮切图" transform="translate(-77, -417.045)">
            <g id="按钮样式三" transform="translate(77, 417.045)">
                <g id="编组-2" transform="translate(0, -0)">
                    <g id="形状结合" opacity="0.4" stroke-dasharray="0,0">
                        <use fill="url(#linearGradient-1)" fill-rule="evenodd" xlink:href="#path-3"></use>
                        <use fill="black" fill-opacity="1" filter="url(#filter-4)" xlink:href="#path-3"></use>
                        <use stroke="url(#linearGradient-2)" mask="url(#mask-5)" stroke-width="1.8" xlink:href="#path-3"></use>
                    </g>
                    <g id="路径" stroke-dasharray="0,0">
                        <use fill="url(#linearGradient-6)" fill-rule="evenodd" xlink:href="#path-7"></use>
                        <use fill="black" fill-opacity="1" filter="url(#filter-8)" xlink:href="#path-7"></use>
                        <use stroke="#23B9FF" mask="url(#mask-9)" stroke-width="1.8" xlink:href="#path-7"></use>
                    </g>
                    <path d="M347.921001,127.25677 L343.356363,127.25677 L348.886871,116.33977 L353.451509,116.33977 L347.921001,127.25677 Z" id="路径备份" fill="url(#linearGradient-10)"></path>
                    <path d="M142.899966,35.444863 L147.464605,35.444863 L129.680601,-1.01774781 L126.944933,2.75430951 L142.899966,35.444863 Z" id="路径备份-2" fill="url(#linearGradient-11)" transform="translate(137.2048, 17.2136) scale(-1, 1) rotate(-64) translate(-137.2048, -17.2136)"></path>
                    <path d="M194.637053,150.673977 L200.010606,150.279443 L182.226603,113.816832 L178.68202,117.983423 L194.637053,150.673977 Z" id="路径备份-3" fill="url(#linearGradient-12)" transform="translate(189.3463, 132.2454) scale(-1, 1) rotate(-244) translate(-189.3463, -132.2454)"></path>
                    <g id="路径">
                        <use fill="url(#linearGradient-13)" fill-rule="evenodd" xlink:href="#path-14"></use>
                        <use fill="black" fill-opacity="1" filter="url(#filter-15)" xlink:href="#path-14"></use>
                    </g>
                    <g id="路径">
                        <use fill="black" fill-opacity="1" filter="url(#filter-18)" xlink:href="#path-17"></use>
                        <use fill="url(#linearGradient-16)" fill-rule="evenodd" xlink:href="#path-17"></use>
                    </g>
                    <path d="M338.820846,120.698813 L344.549739,110.253438 L308.516433,40.2577991 L296.234476,28.585044 L211.190666,30.061123 L64.1579735,30.061123 L52.5038568,38.651544 L20.6579537,110.628526 L26.4183219,119.841613 L79.4074645,119.206047 L338.820846,120.698813 Z" id="路径" fill="#9DE8FF" opacity="0.06"></path>
                    <g id="路径">
                        <use fill="black" fill-opacity="1" filter="url(#filter-21)" xlink:href="#path-20"></use>
                        <use fill="url(#linearGradient-19)" fill-rule="evenodd" xlink:href="#path-20"></use>
                    </g>
                    <g id="路径">
                        <use fill="black" fill-opacity="1" filter="url(#filter-24)" xlink:href="#path-23"></use>
                        <use fill="url(#linearGradient-22)" fill-rule="evenodd" xlink:href="#path-23"></use>
                    </g>
                    <g id="路径">
                        <use fill="black" fill-opacity="1" filter="url(#filter-27)" xlink:href="#path-26"></use>
                        <use fill="url(#linearGradient-25)" fill-rule="evenodd" xlink:href="#path-26"></use>
                    </g>
                    <path d="M74.1865209,29.0327659 L234.818521,29.0327659 L234.818521,27.9077659 L74.1865209,27.9077659 L74.1865209,29.0327659 Z" id="路径" fill="url(#linearGradient-28)" filter="url(#filter-29)"></path>
                    <path d="M74.1865209,120.81219 L234.818521,120.81219 L234.818521,119.68719 L74.1865209,119.68719 L74.1865209,120.81219 Z" id="路径" fill="url(#linearGradient-28)" filter="url(#filter-30)"></path>
                    <polyline id="路径-2" stroke="url(#linearGradient-31)" stroke-width="0.9" points="312.364987 42.909854 316.794914 42.909854 335.92879 81.0999767"></polyline>
                    <path d="M18.4758452,95.8684816 L10.1215274,112.783211 L12.7881075,118.108054 M14.7527586,122.031229 L17.4648421,127.446937 L29.3861512,127.446937 L41.8578643,127.446937" id="形状" stroke="url(#linearGradient-32)" stroke-width="0.9"></path>
                </g>
            </g>
        </g>
    </g>
</svg>