<?xml version="1.0" encoding="UTF-8"?>
<svg width="20px" height="20px" viewBox="0 0 20 20" version="1.1" xmlns="http://www.w3.org/2000/svg" xmlns:xlink="http://www.w3.org/1999/xlink">
    <title>手动布局</title>
    <g id="架构视图-V4" stroke="none" stroke-width="1" fill="none" fill-rule="evenodd">
        <g id="变化与确认" transform="translate(-382.000000, -218.000000)">
            <g id="编组-38" transform="translate(273.000000, 205.000000)">
                <g id="手动布局" transform="translate(119.000000, 23.000000) rotate(-90.000000) translate(-119.000000, -23.000000) translate(109.000000, 13.000000)">
                    <g id="编组-37" transform="translate(0.000000, 0.000000)">
                        <rect id="矩形" x="0" y="0" width="20" height="20"></rect>
                    </g>
                    <g id="手动同步" transform="translate(10.000000, 10.019193) rotate(-270.000000) translate(-10.000000, -10.019193) translate(2.420807, 1.019193)">
                        <path d="M13.0283166,6.1839085 L8.26568307,5.96985977 L8.26568307,2.05212531 L8.25685761,2.05212531 C8.15632255,0.902130283 7.19108934,0 6.01499386,0 C4.83889839,0 3.87368307,0.902130283 3.77313011,2.05212531 L3.76430465,2.05212531 L3.76430465,8.26186574 C3.0368039,7.60035007 1.93167014,7.47296271 1.05710823,8.02014122 C0.060081876,8.64393834 -0.279725185,9.92065838 0.244986898,10.948905 L0.237504054,10.9535773 L3.99122459,16.9533327 C4.01842304,17.0014699 4.04776321,17.0483652 4.07915696,17.0938777 C4.23062191,17.3135296 4.65596253,17.6583491 4.65596253,17.6583491 C5.00121166,17.8736151 5.42119973,18 5.87428774,18 L13.0282987,18 C14.2047164,18 15.1583852,17.1487638 15.1583852,16.0987131 L15.1583852,8.08519543 C15.1583852,7.0351447 14.2047343,6.1839085 13.0283166,6.1839085 L13.0283166,6.1839085 Z" id="路径" fill="#57689C"></path>
                        <path d="M3.51728128,9.4737643 L3.51353986,9.4761094 L3.90590584,10.094912 L3.51728128,9.4737643 Z M4.29114702,14.9675147 L4.31201928,14.9963398 L4.40571688,15.0820845 L4.38438946,15.0533437 L4.29114702,14.9675147 Z M6.6674406,16.6565 C6.64177695,16.6563855 6.6161133,16.6559272 6.59044965,16.6555835 C6.6161133,16.6559272 6.64177695,16.6563855 6.6674406,16.6565 Z M3.36830465,13.503455 L3.6475866,13.9388563 L3.24600132,13.2969786 C3.28424329,13.3672692 3.32503823,13.4361405 3.36830465,13.503455 L3.36830465,13.503455 Z" id="形状" fill="#999999" fill-rule="nonzero"></path>
                    </g>
                </g>
            </g>
        </g>
    </g>
</svg>