<?xml version="1.0" encoding="UTF-8"?>
<svg width="20px" height="20px" viewBox="0 0 20 20" version="1.1" xmlns="http://www.w3.org/2000/svg" xmlns:xlink="http://www.w3.org/1999/xlink">
    <title>图标-附件管理</title>
    <g id="迭代四" stroke="none" stroke-width="1" fill="none" fill-rule="evenodd">
        <g id="ITSM-工单详情-定稿方案" transform="translate(-264.000000, -1261.000000)">
            <g id="tabs" transform="translate(25.000000, 1260.000000)">
                <g id="编组-3备份-2" transform="translate(239.000000, 0.000000)">
                    <g id="图标-附件管理" transform="translate(0.000000, 1.000000)">
                        <rect id="矩形" fill="#000000" fill-rule="nonzero" opacity="0" x="0" y="0" width="20" height="20"></rect>
                        <path d="M7.8262355,3.65 L10.7416593,6.40220394 L17,6.40220394 L17.35,16 L3,16.35 L2.65,4 L7.8262355,3.65 Z" id="矩形" stroke="#262626" stroke-width="1.3"></path>
                        <path d="M5.64999998,10 L9.35000002,10 C9.7089851,10 10,10.2910149 10,10.65 C10,11.0089851 9.7089851,11.3 9.35000002,11.3 L5.64999998,11.3 C5.2910149,11.3 5,11.0089851 5,10.65 C5,10.2910149 5.2910149,10 5.64999998,10 Z M5.64999998,12.3 L12.35,12.3 C12.7089851,12.3 13,12.5910149 13,12.95 C13,13.3089851 12.7089851,13.6 12.35,13.6 L5.64999998,13.6 C5.2910149,13.6 5,13.3089851 5,12.95 C5,12.5910149 5.2910149,12.3 5.64999998,12.3 Z" id="形状结合" fill="#8C8C8C"></path>
                    </g>
                </g>
            </g>
        </g>
    </g>
</svg>