<?xml version="1.0" encoding="UTF-8"?>
<svg width="15px" height="14.991621px" viewBox="0 0 15 14.991621" version="1.1" xmlns="http://www.w3.org/2000/svg" xmlns:xlink="http://www.w3.org/1999/xlink">
    <title>图标-引用知识</title>
    <g id="迭代四" stroke="none" stroke-width="1" fill="none" fill-rule="evenodd">
        <g id="ITSM-工单详情-定稿方案" transform="translate(-147.000000, -1264.000000)">
            <g id="tabs" transform="translate(25.000000, 1260.000000)">
                <g id="编组-3备份" transform="translate(120.000000, 0.000000)">
                    <g id="图标-引用知识" transform="translate(0.000000, 3.000000)">
                        <rect id="矩形" fill-opacity="0" fill="#D8D8D8" x="0" y="0" width="18" height="18"></rect>
                        <path d="M12.4167132,10.4782706 L12.4167132,8.51592001 C12.4167132,8.18243772 12.146911,7.91263546 11.8134287,7.91263546 C11.4799464,7.91263546 11.2101441,8.18243772 11.2101441,8.51592001 L11.2101441,10.2101441 L3.2065691,10.2101441 L3.2065691,2.2065691 L11.2101441,2.2065691 L11.2101441,3.86225003 C11.2101441,4.19573232 11.4799464,4.46553458 11.8134287,4.46553458 C12.146911,4.46553458 12.4167132,4.19573232 12.4167132,3.86225003 L12.4167132,1.93844263 C12.4167132,1.42062339 11.9960898,1 11.4782706,1 L2.93844263,1 C2.42062339,1 2,1.42062339 2,1.93844263 L2,10.4782706 C2,10.9960898 2.42062339,11.4167132 2.93844263,11.4167132 L11.4782706,11.4167132 C11.9960898,11.4167132 12.4167132,10.9960898 12.4167132,10.4782706 L12.4167132,10.4782706 Z" id="路径" fill="#262626" fill-rule="nonzero"></path>
                        <path d="M16.0615574,5.57658362 L7.52172942,5.57658362 C7.00391018,5.57658362 6.58328678,5.99720702 6.58328678,6.51502625 L6.58328678,8.49245894 C6.58328678,8.82594124 6.85308904,9.09574349 7.18657133,9.09574349 C7.52005363,9.09574349 7.78985588,8.82594124 7.78985588,8.49245894 L7.78985588,6.78315272 L15.7934309,6.78315272 L15.7934309,14.7867277 L7.78985588,14.7867277 L7.78985588,13.0640152 C7.78985588,12.7305329 7.52005363,12.4607306 7.18657133,12.4607306 C6.85308904,12.4607306 6.58328678,12.7305329 6.58328678,13.0640152 L6.58328678,15.0531784 C6.58328678,15.5709977 7.00391018,15.991621 7.52172942,15.991621 L16.0615574,15.991621 C16.5793766,15.991621 17,15.5709977 17,15.0531784 L17,6.51502625 C17,5.99720702 16.5793766,5.57658362 16.0615574,5.57658362 Z" id="路径" fill="#8C8C8C" fill-rule="nonzero"></path>
                    </g>
                </g>
            </g>
        </g>
    </g>
</svg>