<?xml version="1.0" encoding="UTF-8"?>
<svg width="18px" height="18px" viewBox="0 0 18 18" version="1.1" xmlns="http://www.w3.org/2000/svg" xmlns:xlink="http://www.w3.org/1999/xlink">
    <title>图标-待处理</title>
    <g id="迭代五" stroke="none" stroke-width="1" fill="none" fill-rule="evenodd">
        <g id="ITSM-工单详情-新增-工单进度-查看处理人" transform="translate(-862.000000, -319.000000)">
            <g id="进度2" transform="translate(24.000000, 240.000000)">
                <g id="2.导航/4.Steps步骤条/亮色/点状-横向" transform="translate(36.000000, 68.000000)">
                    <g id="1备份-6" transform="translate(760.000000, 4.000000)">
                        <g id="图标-待处理" transform="translate(42.000000, 7.000000)">
                            <rect id="矩形" fill="#D8D8D8" opacity="0" x="0" y="0" width="18" height="18"></rect>
                            <path d="M6.12800101,1.51485613 C6.40414339,1.51485613 6.62800101,1.73871376 6.62800101,2.01485613 L6.62714387,10.7058561 L13.9851439,10.7061446 C14.2612862,10.7061446 14.4851439,10.9300023 14.4851439,11.2061446 L14.4851439,13.3490018 C14.4851439,13.6251441 14.2612862,13.8490018 13.9851439,13.8490018 L4.48514387,13.8490018 C3.93285912,13.8490018 3.48514387,13.4012865 3.48514387,12.8490018 L3.48514387,2.01485613 C3.48514387,1.73871376 3.70900149,1.51485613 3.98514387,1.51485613 L6.12800101,1.51485613 Z" id="形状结合" fill="#E9E9E9"></path>
                        </g>
                    </g>
                </g>
            </g>
        </g>
    </g>
</svg>