<?xml version="1.0" encoding="UTF-8"?>
<svg width="9.89949494px" height="9.89949494px" viewBox="0 0 9.89949494 9.89949494" version="1.1" xmlns="http://www.w3.org/2000/svg" xmlns:xlink="http://www.w3.org/1999/xlink">
    <title>图标-close</title>
    <g id="迭代四" stroke="none" stroke-width="1" fill="none" fill-rule="evenodd">
        <g id="ITSM-工单详情-选中处理历史" transform="translate(-1673.092893, -421.100000)">
            <g id="注释" transform="translate(1439.000000, -19.235751)">
                <g id="操作标记" transform="translate(32.000000, 414.235751)">
                    <g id="图标‘备份" transform="translate(177.000000, 1.000000)">
                        <g id="图标-close" transform="translate(24.000000, 24.000000)">
                            <rect id="矩形" fill-opacity="0" fill="#D8D8D8" x="0" y="0" width="12" height="12"></rect>
                            <path d="M6.34264069,2.54974747 C6.61878306,2.54974747 6.84264069,2.77360509 6.84264069,3.04974747 L6.84264069,5.24874747 L9.04264069,5.24974747 C9.31878306,5.24974747 9.54264069,5.47360509 9.54264069,5.74974747 L9.54264069,6.34974747 C9.54264069,6.62588984 9.31878306,6.84974747 9.04264069,6.84974747 L6.84264069,6.84874747 L6.84264069,9.04974747 C6.84264069,9.32588984 6.61878306,9.54974747 6.34264069,9.54974747 L5.74264069,9.54974747 C5.46649831,9.54974747 5.24264069,9.32588984 5.24264069,9.04974747 L5.24264069,6.84874747 L3.04264069,6.84974747 C2.76649831,6.84974747 2.54264069,6.62588984 2.54264069,6.34974747 L2.54264069,5.74974747 C2.54264069,5.47360509 2.76649831,5.24974747 3.04264069,5.24974747 L5.24164069,5.24874747 L5.24264069,3.04974747 C5.24264069,2.77360509 5.46649831,2.54974747 5.74264069,2.54974747 L6.34264069,2.54974747 Z" id="形状结合" fill="#FFFFFF" transform="translate(6.042641, 6.049747) rotate(45.000000) translate(-6.042641, -6.049747) "></path>
                        </g>
                    </g>
                </g>
            </g>
        </g>
    </g>
</svg>