<?xml version="1.0" encoding="UTF-8"?>
<svg width="12px" height="12px" viewBox="0 0 12 12" version="1.1" xmlns="http://www.w3.org/2000/svg" xmlns:xlink="http://www.w3.org/1999/xlink">
    <title>图标-H</title>
    <g id="迭代四" stroke="none" stroke-width="1" fill="none" fill-rule="evenodd">
        <g id="ITSM-工单详情-选中处理历史" transform="translate(-1811.000000, -419.000000)">
            <g id="注释" transform="translate(1439.000000, -19.235751)">
                <g id="操作标记" transform="translate(32.000000, 414.235751)">
                    <g id="图标‘备份-3" transform="translate(316.000000, 0.000000)">
                        <g id="图标-H" transform="translate(24.000000, 24.000000)">
                            <rect id="矩形" fill-opacity="0" fill="#D8D8D8" x="0" y="0" width="12" height="12"></rect>
                            <path d="M4.24974747,2.44974747 C4.52588984,2.44974747 4.74974747,2.67360509 4.74974747,2.94974747 L4.74974747,5.14874747 L7.14974747,5.14874747 L7.14974747,2.94974747 C7.14974747,2.67360509 7.37360509,2.44974747 7.64974747,2.44974747 L8.24974747,2.44974747 C8.52588984,2.44974747 8.74974747,2.67360509 8.74974747,2.94974747 L8.74974747,8.94974747 C8.74974747,9.22588984 8.52588984,9.44974747 8.24974747,9.44974747 L7.64974747,9.44974747 C7.37360509,9.44974747 7.14974747,9.22588984 7.14974747,8.94974747 L7.14974747,6.74874747 L4.74974747,6.74874747 L4.74974747,8.94974747 C4.74974747,9.22588984 4.52588984,9.44974747 4.24974747,9.44974747 L3.64974747,9.44974747 C3.37360509,9.44974747 3.14974747,9.22588984 3.14974747,8.94974747 L3.14974747,2.94974747 C3.14974747,2.67360509 3.37360509,2.44974747 3.64974747,2.44974747 L4.24974747,2.44974747 Z" id="形状结合" fill="#FFFFFF"></path>
                        </g>
                    </g>
                </g>
            </g>
        </g>
    </g>
</svg>