<?xml version="1.0" encoding="UTF-8"?>
<svg width="12px" height="12px" viewBox="0 0 12 12" version="1.1" xmlns="http://www.w3.org/2000/svg" xmlns:xlink="http://www.w3.org/1999/xlink">
    <title>图标-循环</title>
    <g id="迭代四" stroke="none" stroke-width="1" fill="none" fill-rule="evenodd">
        <g id="ITSM-工单详情-选中处理历史" transform="translate(-1950.000000, -420.000000)" fill="#1A7AFF" fill-rule="nonzero">
            <g id="注释" transform="translate(1439.000000, -19.235751)">
                <g id="操作标记" transform="translate(32.000000, 414.235751)">
                    <g id="图标‘备份-2" transform="translate(455.000000, 1.000000)">
                        <g id="图标-循环" transform="translate(24.000000, 24.000000)">
                            <rect id="矩形" opacity="0" x="0" y="0" width="12" height="12"></rect>
                            <path d="M6.9615,10.986 C7.35525,11.397 6.7095,12.02775 6.26475,11.631 C5.81325,11.226 5.36025,10.82175 4.908,10.41675 C4.71825,10.24725 4.7235,9.9165 4.9035,9.74475 C5.34975,9.31575 5.79525,8.88675 6.2415,8.4585 C6.6705,8.04825 7.3155,8.66025 6.95475,9.0855 C9.17925,8.8275 9.9795,6.38625 8.77125,4.63275 C8.07225,3.62325 9.68625,2.721 10.37775,3.72225 C12.483,6.77175 10.49775,10.59825 6.9615,10.986 Z M1.845,8.27475 C-0.261,5.226 1.7235,1.4025 5.2575,1.01325 C4.8645,0.603 5.51025,-0.0285 5.95425,0.369 C6.4065,0.7725 6.858,1.17675 7.31175,1.5825 C7.5,1.7505 7.49625,2.08125 7.31625,2.2545 C6.87,2.68275 6.42525,3.11025 5.97825,3.5385 C5.55075,3.9495 4.905,3.33675 5.26575,2.913 C3.042,3.1695 2.241,5.6115 3.45075,7.36425 C4.14825,8.37225 2.53575,9.27525 1.845,8.27475 Z" id="形状"></path>
                        </g>
                    </g>
                </g>
            </g>
        </g>
    </g>
</svg>