<?xml version="1.0" encoding="UTF-8"?>
<svg width="14px" height="15px" viewBox="0 0 14 15" version="1.1" xmlns="http://www.w3.org/2000/svg" xmlns:xlink="http://www.w3.org/1999/xlink">
    <title>图标-信息摘要</title>
    <g id="迭代四" stroke="none" stroke-width="1" fill="none" fill-rule="evenodd">
        <g id="ITSM-工单详情-定稿方案" transform="translate(-26.000000, -259.500000)">
            <g id="信息摘要" transform="translate(24.000000, 256.000000)">
                <g id="图标-信息摘要" transform="translate(0.000000, 2.000000)">
                    <rect id="矩形" fill-opacity="0" fill="#D8D8D8" x="0" y="0" width="18" height="18"></rect>
                    <path d="M12,1.5 C12.5522847,1.5 13,1.94771525 13,2.5 L13,4.5 L11.7,4.5 L11.7,2.8 L3.3,2.8 L3.3,12.2 L5,12.2 L5,13.5 L3,13.5 C2.44771525,13.5 2,13.0522847 2,12.5 L2,2.5 C2,1.94771525 2.44771525,1.5 3,1.5 L12,1.5 Z" id="形状结合" fill="#262626" fill-rule="nonzero"></path>
                    <path d="M15,4.5 C15.5522847,4.5 16,4.94771525 16,5.5 L16,15.5 C16,16.0522847 15.5522847,16.5 15,16.5 L6,16.5 C5.44771525,16.5 5,16.0522847 5,15.5 L5,5.5 C5,4.94771525 5.44771525,4.5 6,4.5 L15,4.5 Z M14.7,5.8 L6.3,5.8 L6.3,15.2 L14.7,15.2 L14.7,5.8 Z M13,11.4 L13,12.7 L8,12.7 L8,11.4 L13,11.4 Z M13,8.4 L13,9.7 L8,9.7 L8,8.4 L13,8.4 Z" id="形状结合" fill="#1A7AFF" fill-rule="nonzero"></path>
                </g>
            </g>
        </g>
    </g>
</svg>