<?xml version="1.0" encoding="UTF-8"?>
<svg width="20px" height="20px" viewBox="0 0 20 20" version="1.1" xmlns="http://www.w3.org/2000/svg" xmlns:xlink="http://www.w3.org/1999/xlink">
    <title>access-service-monitoring-second-menu</title>
    <g id="access-service-monitoring-second-menu" stroke="none" stroke-width="1" fill="none" fill-rule="evenodd">
        <g id="队列">
            <g id="编组">
                <rect id="矩形" x="0" y="0" width="20" height="20"></rect>
            </g>
            <g id="编组" transform="translate(2, 2)">
                <path d="M15,0 C15.5522847,-1.01453063e-16 16,0.44771525 16,1 L16,15 C16,15.5522847 15.5522847,16 15,16 L1,16 C0.44771525,16 6.76353751e-17,15.5522847 0,15 L0,1 C-6.76353751e-17,0.44771525 0.44771525,1.01453063e-16 1,0 L15,0 Z M9.67741935,3.5 C8.97440291,3.5 8.38434489,3.98363252 8.22305212,4.63598116 C7.07762081,4.71422028 6.07097098,5.44711354 5.65058328,6.52851287 C5.5164906,6.87345097 5.29260482,7.16501117 5.01183544,7.38067811 L4.24255143,7.74173223 C4.10133963,7.77363667 3.95519487,7.79032258 3.80626196,7.79032258 L3.45360456,7.78965224 C3.28826069,7.14098688 2.70014991,6.66129032 2,6.66129032 C1.17157288,6.66129032 0.5,7.3328632 0.5,8.16129032 C0.5,8.98971745 1.17157288,9.66129032 2,9.66129032 C2.5531944,9.66129032 3.03644596,9.36182946 3.29649065,8.91617178 L3.337,8.838 L4.474,8.838 L6.87155027,9.77399214 C6.92280171,9.86213978 6.9676704,9.95502064 7.00542199,10.0521323 C7.45058889,11.1972733 8.5531677,11.9516129 9.78179354,11.9516129 L9.66911462,11.9494206 C9.90651008,12.4648148 10.4276037,12.8225806 11.0322581,12.8225806 C11.8606852,12.8225806 12.5322581,12.1510078 12.5322581,11.3225806 C12.5322581,10.4941535 11.8606852,9.82258065 11.0322581,9.82258065 C10.3824635,9.82258065 9.82917176,10.2357581 9.62157136,10.8150156 L9.612,10.845 L8.37310317,10.3625815 C8.18712353,10.1741589 8.03737653,9.94679563 7.93747222,9.68980319 C7.81449835,9.37346697 7.64135755,9.08695269 7.42927259,8.83799736 L12.4031233,8.83845348 C12.6505471,9.32666578 13.1571634,9.66129032 13.7419355,9.66129032 C14.5703626,9.66129032 15.2419355,8.98971745 15.2419355,8.16129032 C15.2419355,7.3328632 14.5703626,6.66129032 13.7419355,6.66129032 C13.0245864,6.66129032 12.4248485,7.16484384 12.2769159,7.8377569 L5.98801658,7.83977971 C6.23972499,7.5691436 6.44335507,7.24911984 6.58263351,6.89084197 C6.6271028,6.7764498 6.68144746,6.66792808 6.7444672,6.56609801 L8.40152676,5.78912516 C8.66598849,6.21581169 9.13851606,6.5 9.67741935,6.5 C10.5058465,6.5 11.1774194,5.82842712 11.1774194,5 C11.1774194,4.17157288 10.5058465,3.5 9.67741935,3.5 Z" id="形状结合" fill="#57689C"></path>
                <g id="编组-3" transform="translate(1, 1.8)">
                    <g id="编组-2"></g>
                    <g id="编组-2" transform="translate(9.35, 5.45) rotate(-180) translate(-9.35, -5.45)translate(4.7, 0)"></g>
                </g>
            </g>
        </g>
    </g>
</svg>