<?xml version="1.0" encoding="UTF-8"?>
<svg width="20px" height="20px" viewBox="0 0 20 20" version="1.1" xmlns="http://www.w3.org/2000/svg" xmlns:xlink="http://www.w3.org/1999/xlink">
    <title>ai-builder-second-menu</title>
    <g id="ai-builder-second-menu" stroke="none" stroke-width="1" fill="none" fill-rule="evenodd">
        <g id="编组-3" fill="#000000" opacity="0">
            <rect id="矩形" x="0" y="0" width="20" height="20"></rect>
        </g>
        <g id="机器人" transform="translate(2.000000, 2.500000)">
            <path d="M11.0625701,4.09598565 C12.3812514,4.09598565 13.4541377,5.16887194 13.4541377,6.48755326 L13.4541377,12.4009868 C13.4541377,13.7196681 12.3812514,14.7925544 11.0625701,14.7925544 L4.87284144,14.7925544 C3.55416013,14.7925544 2.48127383,13.7196681 2.48127383,12.4009868 L2.48127383,6.48755326 C2.48127383,5.16887194 3.55416013,4.09598565 4.87284144,4.09598565 L11.0625701,4.09598565 Z M5.95469836,8.53106078 C5.45054945,8.53106078 5.04148912,8.9401211 5.04148912,9.44427002 C5.04148912,9.94841893 5.45054945,10.3574793 5.95469836,10.3574793 C6.45884728,10.3574793 6.8679076,9.94841893 6.8679076,9.44427002 C6.8679076,8.9401211 6.45884728,8.53106078 5.95469836,8.53106078 Z M9.97174254,8.53106078 C9.46759363,8.53106078 9.0585333,8.9401211 9.0585333,9.44427002 C9.0585333,9.94841893 9.46759363,10.3574793 9.97174254,10.3574793 C10.4758915,10.3574793 10.8849518,9.94841893 10.8849518,9.44427002 C10.8849518,8.9401211 10.4758915,8.53106078 9.97174254,8.53106078 Z" id="形状结合" fill="#57689C"></path>
            <path d="M15.1998206,11.8663377 C14.758466,11.8663377 14.3996412,11.5075129 14.3996412,11.0661583 L14.3996412,7.82417582 C14.3996412,7.38282126 14.758466,7.02399641 15.1998206,7.02399641 C15.6411752,7.02399641 16,7.38282126 16,7.82417582 L16,11.0661583 C16,11.509307 15.6411752,11.8663377 15.1998206,11.8663377 Z" id="路径" fill="#57689C" opacity="0.55"></path>
            <path d="M0.800179412,11.8663377 C0.358824849,11.8663377 0,11.5075129 0,11.0661583 L0,7.82417582 C0,7.38282126 0.358824849,7.02399641 0.800179412,7.02399641 C1.24153398,7.02399641 1.60035882,7.38282126 1.60035882,7.82417582 L1.60035882,11.0661583 C1.60035882,11.509307 1.2433281,11.8663377 0.800179412,11.8663377 Z" id="路径" fill="#57689C" opacity="0.55"></path>
            <path d="M7.96770576,0 C8.85041489,0 9.56806459,0.717649697 9.56806459,1.60035882 C9.56806459,2.19164531 9.24605176,2.70886885 8.76811638,2.98593914 L8.76788518,4.89795918 C8.76788518,5.33931375 8.40906033,5.6981386 7.96770576,5.6981386 C7.5263512,5.6981386 7.16752635,5.33931375 7.16752635,4.89795918 L7.16735154,2.98597183 C6.6893851,2.70890953 6.36734694,2.19166857 6.36734694,1.60035882 C6.36734694,0.717649697 7.08499664,0 7.96770576,0 Z" id="形状结合" fill="#57689C" opacity="0.55"></path>
            <path d="M8.00645885,1.64880018 L8.02942364,1.64880018 L8.00645885,1.64880018 Z" id="路径" fill="#333333" fill-rule="nonzero"></path>
            <path d="M8.00645885,1.64880018 L8.02942364,1.64880018 L8.00645885,1.64880018 Z" id="路径" fill="#333333" fill-rule="nonzero"></path>
            <path d="M8.00645885,1.64880018 L8.02942364,1.64880018 L8.00645885,1.64880018 Z" id="路径" fill="#333333" fill-rule="nonzero"></path>
            <path d="M8.00645885,1.64880018 L8.02942364,1.64880018 L8.00645885,1.64880018 Z" id="路径" fill="#333333" fill-rule="nonzero"></path>
            <path d="M8.00645885,1.64880018 L8.02942364,1.64880018 L8.00645885,1.64880018 Z" id="路径" fill="#333333" fill-rule="nonzero"></path>
            <path d="M8.00645885,1.64880018 L8.02942364,1.64880018 L8.00645885,1.64880018 Z" id="路径" fill="#333333" fill-rule="nonzero"></path>
            <path d="M8.00645885,1.64700606 L8.02942364,1.64700606 L8.00645885,1.64700606 Z" id="路径" fill="#333333" fill-rule="nonzero"></path>
        </g>
    </g>
</svg>