<?xml version="1.0" encoding="UTF-8"?>
<svg width="22px" height="22px" viewBox="0 0 22 22" version="1.1" xmlns="http://www.w3.org/2000/svg" xmlns:xlink="http://www.w3.org/1999/xlink">
    <title>alert-rules-second-menu</title>
    <g id="alert-rules-second-menu" stroke="none" stroke-width="1" fill="none" fill-rule="evenodd">
        <g id="编组-2">
            <g id="编组-3备份" fill="#000000" opacity="0">
                <rect id="矩形" x="0" y="0" width="22" height="22"></rect>
            </g>
            <g id="编组-2备份" transform="translate(2, 3)" fill="#57689C">
                <g id="编组">
                    <path d="M13.3655343,0 C13.9178191,-1.01453063e-16 14.3655343,0.44771525 14.3655343,1 L14.365,8.615 L13.2888508,7.20983997 C13.2450469,7.1526659 13.1952594,7.10047599 13.1404001,7.05412907 L13.0544216,6.98909828 C12.5966248,6.68016371 11.9750663,6.80084035 11.6661317,7.25863711 L5.4724764,16.4367464 C5.36096876,16.6019847 5.30139075,16.7967789 5.30139075,16.9961219 L1,17 C0.44771525,17 6.76353751e-17,16.5522847 0,16 L0,1 C-6.76353751e-17,0.44771525 0.44771525,1.01453063e-16 1,0 L13.3655343,0 Z M7.30723785,6.46774351 L3.52216494,6.46774351 C3.04164059,6.46774351 2.65209864,6.85728546 2.65209864,7.33780981 C2.65209864,7.81833415 3.04164059,8.2078761 3.52216494,8.2078761 L7.30723785,8.2078761 C7.78776219,8.2078761 8.17730414,7.81833415 8.17730414,7.33780981 C8.17730414,6.85728546 7.78776219,6.46774351 7.30723785,6.46774351 Z M11.7274022,3.2049949 L3.52216494,3.2049949 C3.04164059,3.2049949 2.65209864,3.59453685 2.65209864,4.0750612 C2.65209864,4.55558554 3.04164059,4.94512749 3.52216494,4.94512749 L11.7274022,4.94512749 C12.2079266,4.94512749 12.5974685,4.55558554 12.5974685,4.0750612 C12.5974685,3.59453685 12.2079266,3.2049949 11.7274022,3.2049949 Z" id="形状结合"></path>
                </g>
                <path d="M13.3036064,9.09472742 C13.4194413,9.17038803 13.5183156,9.26926233 13.5939762,9.38509719 L16.9085196,14.4595962 C17.2105402,14.9219835 17.0805372,15.5416585 16.6181499,15.8436791 C16.4555397,15.9498922 16.2655182,16.0064527 16.0712933,16.0064527 L9.4422064,16.0064527 C8.88992165,16.0064527 8.4422064,15.5587375 8.4422064,15.0064527 C8.4422064,14.8122278 8.49876693,14.6222064 8.60498008,14.4595962 L11.9195235,9.38509719 C12.2215441,8.92270986 12.8412191,8.79270689 13.3036064,9.09472742 Z M12.7492475,13.8111383 C12.4535912,13.8111383 12.2139144,14.0470284 12.2139144,14.3380137 C12.2139144,14.628999 12.4535912,14.8648892 12.7492475,14.8648892 C13.0449037,14.8648892 13.2845805,14.628999 13.2845805,14.3380137 C13.2845805,14.0470284 13.0449037,13.8111383 12.7492475,13.8111383 Z M12.7492475,10.3268638 C12.4535912,10.3268638 12.2388045,10.5627539 12.269508,10.8537392 L12.5127742,13.1592409 C12.525541,13.2802356 12.6275811,13.3720754 12.7492475,13.3720754 C12.8709138,13.3720754 12.9729539,13.2802356 12.9857208,13.1592409 L13.228987,10.8537392 C13.2596904,10.5627539 13.0449037,10.3268638 12.7492475,10.3268638 Z" id="形状结合备份-2" opacity="0.55"></path>
            </g>
        </g>
    </g>
</svg>