<?xml version="1.0" encoding="UTF-8"?>
<svg width="20px" height="20px" viewBox="0 0 20 20" version="1.1" xmlns="http://www.w3.org/2000/svg" xmlns:xlink="http://www.w3.org/1999/xlink">
    <title>all-assets-second-menu</title>
    <g id="吉林银行优化" stroke="none" stroke-width="1" fill="none" fill-rule="evenodd">
        <g id="资产-资产列表V1" transform="translate(-24, -527)">
            <g id="all-assets-second-menu" transform="translate(24, 527)">
                <rect id="矩形" x="0" y="0" width="20" height="20"></rect>
                <g id="编组-5" transform="translate(2, 2.1)" fill="#57689C" fill-rule="nonzero">
                    <path d="M8.72227146,8.49485349 L8.72227146,8.0273815 L10.2358922,8.0273815 C10.6426134,8.0273815 10.9721091,7.69788582 10.9721091,7.2911646 C10.9721091,6.88444337 10.6426134,6.5549477 10.2358922,6.5549477 L9.45539934,6.5549477 L10.0258387,5.73738655 C10.1376445,5.57739443 10.181259,5.37951711 10.1470739,5.1873469 C10.1128889,4.99517668 10.0037089,4.82447989 9.84358644,4.71286093 C9.68359431,4.60105516 9.485717,4.55744068 9.29354678,4.59162573 C9.10137657,4.62581079 8.93067977,4.73499072 8.81906082,4.89511323 L7.97163913,6.10909886 L7.07170406,4.88069779 C6.83179002,4.55326147 6.37152575,4.48221396 6.04305975,4.722128 C5.71562342,4.96204204 5.64457592,5.42230631 5.88448995,5.75077231 L6.47346348,6.5549477 L5.7362169,6.5549477 C5.32949568,6.5549477 5,6.88444337 5,7.2911646 C5,7.69788582 5.32949568,8.0273815 5.7362169,8.0273815 L7.24983766,8.0273815 L7.24983766,8.49485349 L5.7362169,8.49485349 C5.32949568,8.49485349 5,8.82434916 5,9.23107039 C5,9.63779161 5.32949568,9.96728729 5.7362169,9.96728729 L7.24983766,9.96728729 L7.24983766,10.6437831 C7.24983766,11.0505043 7.57933334,11.38 7.98605456,11.38 C8.39277579,11.38 8.72227146,11.0505043 8.72227146,10.6437831 L8.72227146,9.96625762 L10.2358922,9.96625762 C10.6426134,9.96625762 10.9721091,9.63676194 10.9721091,9.23004071 C10.9721091,8.82434916 10.6426134,8.49485349 10.2358922,8.49485349 L8.72227146,8.49485349 Z" id="路径"></path>
                    <g id="全部线性" fill-opacity="0.55">
                        <path d="M9.84086917,0.296835425 C11.9549734,-0.292977798 13.7762289,-0.00546933278 14.9199091,1.17411503 C16.0630694,2.35406664 16.293113,4.18379814 15.637061,6.27814878 C15.4709291,6.80926441 15.2518612,7.34541513 14.9848135,7.87937382 C15.2513055,8.41380593 15.4706349,8.95017719 15.6370492,9.48152043 C16.292538,11.5766569 16.0627708,13.4059486 14.9199431,14.5855569 C14.1660446,15.3632349 13.1038289,15.7598992 11.8515425,15.7598992 C11.2215168,15.7598992 10.5464465,15.6598516 9.84022872,15.4628953 C9.23169527,15.2932058 8.61448578,15.0555918 7.99945575,14.7569854 C7.38423525,15.0556531 6.76692637,15.2932948 6.15824871,15.4630245 C5.45105098,15.6596868 4.77642176,15.7598992 4.14812425,15.7598992 C2.89568827,15.7598992 1.83371821,15.3634659 1.08030191,14.5854051 C-0.0626772339,13.4056404 -0.292720846,11.5759089 0.363331112,9.48155828 C0.529436035,8.95052907 0.748468603,8.41444228 1.01547058,7.88052405 C0.748202291,7.34639287 0.528890937,6.8097543 0.362617582,6.27818662 C-0.292871223,4.18305018 -0.0631040472,2.35375848 1.07975771,1.17411503 C2.22314016,-0.00516226856 4.04394227,-0.292378048 6.158565,0.296770574 C6.76747439,0.466564915 7.38505495,0.704353485 8.00043794,1.00319408 C8.61517081,0.704126543 9.23236212,0.46651758 9.84086917,0.296835425 Z M14.1410205,9.32541311 L14.115679,9.362919 C13.5102389,10.2627041 12.7767568,11.1360925 11.9403887,11.9464022 C11.162801,12.7000845 10.3331189,13.3632347 9.48165029,13.9164845 C9.72451157,14.0068777 9.96626191,14.0860851 10.2055698,14.1528161 C10.7973335,14.3178524 11.3504928,14.3998324 11.8515425,14.3998324 C12.7545305,14.3998324 13.4617727,14.1357262 13.9432696,13.6390421 C14.6935432,12.8646217 14.8587961,11.5489601 14.3390883,9.88781962 C14.2807218,9.70146169 14.2146048,9.51384161 14.1410205,9.32541311 Z M1.8602835,9.32772776 L1.76916859,9.56611362 L1.66129411,9.88785083 C1.1411022,11.5484881 1.30653246,12.864295 2.05724315,13.6391665 C2.53833748,14.1359976 3.24510118,14.3998324 4.14812425,14.3998324 C4.64741278,14.3998324 5.20058663,14.3176616 5.79339533,14.1528095 C6.03269989,14.0860794 6.27444741,14.0068728 6.51768077,13.9157446 C5.66582255,13.3632347 4.83614044,12.7000845 4.05855274,11.9464022 C3.21155762,11.1254462 2.47008207,10.2398467 1.8602835,9.32772776 Z M7.99965158,2.53624903 L7.89782601,2.59394348 C6.90300203,3.16175416 5.9176981,3.90610801 5.00586149,4.78991207 C4.01016314,5.7549997 3.17808727,6.81202983 2.56025098,7.87995865 C3.17788164,8.94833745 4.00974874,10.0050088 5.00513612,10.969795 C5.94819372,11.8838602 6.96983577,12.6487623 7.99932358,13.2234674 C9.02932763,12.6485921 10.0508853,11.8837268 10.9939095,10.969694 C11.9895485,10.0050758 12.8215639,8.94849528 13.4394354,7.88089604 C12.8219955,6.81252936 11.989683,5.75517356 10.9938053,4.78991207 C10.0507477,3.87584684 9.02910565,3.11094477 7.99965158,2.53624903 Z M5.79354302,1.60693874 C4.11671297,1.13976221 2.80716037,1.3463328 2.05639723,2.120665 C1.30612358,2.89508539 1.14087064,4.21074695 1.66065205,5.87212237 C1.71893082,6.05843669 1.78496715,6.24601742 1.85847767,6.43441067 C2.46972465,5.52115374 3.21166452,4.63486034 4.05927811,3.8133049 C4.83656123,3.05991775 5.66589796,2.39699186 6.51696994,1.8438855 C6.27403905,1.75269513 6.03257076,1.67359161 5.79354302,1.60693874 Z M13.9434507,2.12085193 C13.1921914,1.34600789 11.8824789,1.13925303 10.2062714,1.60689757 C9.96722326,1.67355615 9.72573735,1.75266458 9.48276802,1.84366932 C10.3337688,2.39699186 11.1631056,3.05991775 11.9403887,3.8133049 C12.7881314,4.63498552 13.5302325,5.52149148 14.1404859,6.43460919 L14.2312086,6.19363512 L14.339098,5.87185623 C14.85929,4.21121892 14.6938597,2.89541206 13.9434507,2.12085193 Z" id="形状结合"></path>
                    </g>
                </g>
            </g>
        </g>
    </g>
</svg>