<?xml version="1.0" encoding="UTF-8"?>
<svg width="20px" height="20px" viewBox="0 0 20 20" version="1.1" xmlns="http://www.w3.org/2000/svg" xmlns:xlink="http://www.w3.org/1999/xlink">
    <title>amortized-assets-second-menu</title>
    <g id="吉林银行迭代二" stroke="none" stroke-width="1" fill="none" fill-rule="evenodd">
        <g id="amortized-assets-second-menu">
            <rect id="矩形" x="0" y="0" width="20" height="20"></rect>
            <path d="M10,4.5 L18,10.5 L18,18 L2,18 L2,10.5 L10,4.5 Z M7.72712912,8.66720941 C7.34190991,8.94946122 7.25832461,9.4909486 7.54057642,9.87737919 L8.23348644,10.8234679 L7.36613753,10.8234679 C6.88764197,10.8234679 6.5,11.2111098 6.5,11.6896054 C6.5,12.168101 6.88764197,12.5557429 7.36613753,12.5557429 L9.14686784,12.5557429 L9.14686784,13.10571 L7.36613753,13.10571 C6.88764197,13.10571 6.5,13.493352 6.5,13.9718475 C6.5,14.4503431 6.88764197,14.837985 7.36613753,14.837985 L9.14686784,14.837985 L9.14686784,15.6338625 C9.14686784,16.112358 9.53450981,16.5 10.0130054,16.5 C10.4915009,16.5 10.8791429,16.112358 10.8791429,15.6338625 L10.8791429,14.8367737 L12.6598732,14.8367737 C13.1383688,14.8367737 13.5260107,14.4491317 13.5260107,13.9706361 C13.5260107,13.493352 13.1383688,13.10571 12.6598732,13.10571 L10.8791429,13.10571 L10.8791429,12.5557429 L12.6598732,12.5557429 C13.1383688,12.5557429 13.5260107,12.168101 13.5260107,11.6896054 C13.5260107,11.2111098 13.1383688,10.8234679 12.6598732,10.8234679 L11.7416463,10.8234679 L12.4127514,9.86163124 C12.5442876,9.67340521 12.5955988,9.44060837 12.5553811,9.21452576 C12.5151634,8.98844316 12.3867164,8.78762339 12.198337,8.65630698 C12.010111,8.52477078 11.7773141,8.47345963 11.5512315,8.51367734 C11.3251489,8.55389504 11.1243291,8.68234202 10.9930127,8.87072145 L9.99604603,10.2989398 L8.9372989,8.85376211 C8.65504709,8.4685429 8.11355971,8.3849576 7.72712912,8.66720941 Z" id="形状结合" fill="#57689C" fill-rule="nonzero"></path>
            <polygon id="路径" fill-opacity="0.55" fill="#57689C" fill-rule="nonzero" points="2 7.2650039 10 1.25 17.9975365 7.25214531 17.9975365 8.74813727 10 2.749 2 8.74529154"></polygon>
        </g>
    </g>
</svg>