<?xml version="1.0" encoding="UTF-8"?>
<svg width="20px" height="20px" viewBox="0 0 20 20" version="1.1" xmlns="http://www.w3.org/2000/svg" xmlns:xlink="http://www.w3.org/1999/xlink">
    <title>announcement-second-menu</title>
    <g id="announcement-second-menu" stroke="none" stroke-width="1" fill="none" fill-rule="evenodd">
        <rect id="矩形" fill="#000000" opacity="0" x="0" y="0" width="20" height="20"></rect>
        <g id="01_公告管理" transform="translate(2.000000, 3.430043)" fill="#57689C">
            <path d="M0,3.86625484 C0.215062928,3.43612898 0.537657301,3.32859754 0.967783158,3.32859752 C2.6165989,3.32859752 3.4768506,3.32859752 3.54853824,3.32859752 C3.6560697,3.32859752 3.77869833,3.35465852 4.02021357,3.17214312 C4.26172881,2.98962772 6.45188771,1.17796828 7.6347338,0.210185137 C7.95732819,-0.0048777913 8.30112456,-0.0330085896 8.49498549,0.102653673 C8.68884642,0.238315935 8.81757988,0.432897835 8.81757988,0.701086227 C8.81757988,0.879878488 8.81757988,4.68011184 8.81757988,12.1017863 C8.81757988,12.3168492 8.78201636,12.6257967 8.60251695,12.8988976 C8.42301755,13.1719985 7.95732819,13.221492 7.6347338,12.8988976 C7.09707649,12.4687718 6.45188771,11.9311145 5.91423041,11.5009886 C5.26904164,10.9633313 4.62385286,10.425674 3.97866409,9.99554816 C3.87113263,9.88801669 3.76360117,9.88801669 3.6560697,9.88801671 L0.967783158,9.88801671 C0.537657301,9.88801671 0,9.6365494 0,9.17799909 C0,7.34289333 0,5.69428969 0,3.86625484 Z" id="路径"></path>
            <path d="M14.0476052,0.142103896 C14.3005012,-0.0720228224 14.679098,-0.0405941071 14.8932247,0.212301896 C15.1073514,0.4651979 15.0759227,0.84379462 14.8230267,1.05792134 L11.6485212,3.74577104 C11.3956252,3.95989776 11.0170284,3.92846905 10.8029017,3.67557304 C10.588775,3.42267704 10.6202037,3.04408032 10.8730997,2.8299536 L14.0476052,0.142103896 Z" id="路径-2" opacity="0.55"></path>
            <path d="M15.4,5.83356849 C15.7313708,5.83356849 16,6.10219764 16,6.43356849 C16,6.76493934 15.7313708,7.03356849 15.4,7.03356849 L11.5109015,7.03356849 C11.1795306,7.03356849 10.9109015,6.76493934 10.9109015,6.43356849 C10.9109015,6.10219764 11.1795306,5.83356849 11.5109015,5.83356849 L15.4,5.83356849 Z" id="路径-3" opacity="0.55"></path>
            <path d="M10.7875741,9.84937036 C10.9912821,9.58800912 11.3682952,9.54127194 11.6296564,9.74497993 L14.8041619,12.2192266 C15.0655231,12.4229345 15.1122603,12.7999476 14.9085523,13.0613089 C14.7048443,13.3226701 14.3278312,13.3694073 14.06647,13.1656993 L10.8919645,10.6914527 C10.6306033,10.4877447 10.5838661,10.1107316 10.7875741,9.84937036 Z" id="路径-4" opacity="0.55"></path>
        </g>
    </g>
</svg>