<?xml version="1.0" encoding="UTF-8"?>
<svg width="20px" height="20px" viewBox="0 0 20 20" version="1.1" xmlns="http://www.w3.org/2000/svg" xmlns:xlink="http://www.w3.org/1999/xlink">
    <title>ontract-center-second-menu</title>
    <g id="ontract-center-second-menu" stroke="none" stroke-width="1" fill="none" fill-rule="evenodd">
        <g id="编组-3" fill="#000000" opacity="0">
            <rect id="矩形" x="0" y="0" width="20" height="20"></rect>
        </g>
        <g id="编组" transform="translate(3.000000, 2.000000)" fill="#57689C">
            <path d="M12.6666667,2.22727273 L12.6666818,9.77894234 C12.3620076,9.70554453 12.0439268,9.66666667 11.7167869,9.66666667 C9.47996336,9.66666667 7.66666667,11.4842685 7.66666667,13.7264028 C7.66666667,14.1104468 7.71986619,14.4820357 7.81928129,14.8341689 L1,14.8333333 C0.44771525,14.8333333 6.76353751e-17,14.3856181 0,13.8333333 L0,2.22727273 L12.6666667,2.22727273 Z M7.44418316,8.5 L2.55581684,8.5 C2.24884768,8.5 2,8.74884768 2,9.05581684 C2,9.36278601 2.24884768,9.61163368 2.55581684,9.61163368 L7.44418316,9.61163368 C7.75115232,9.61163368 8,9.36278601 8,9.05581684 C8,8.74884768 7.75115232,8.5 7.44418316,8.5 Z M8.77751649,6.16666667 L2.55581684,6.16666667 C2.24884768,6.16666667 2,6.41551434 2,6.72248351 C2,7.02945267 2.24884768,7.27830035 2.55581684,7.27830035 L8.77751649,7.27830035 C9.08448566,7.27830035 9.33333333,7.02945267 9.33333333,6.72248351 C9.33333333,6.41551434 9.08448566,6.16666667 8.77751649,6.16666667 Z M8.77751649,3.83333333 L2.55581684,3.83333333 C2.24884768,3.83333333 2,4.08218101 2,4.38915017 C2,4.69611934 2.24884768,4.94496701 2.55581684,4.94496701 L8.77751649,4.94496701 C9.08448566,4.94496701 9.33333333,4.69611934 9.33333333,4.38915017 C9.33333333,4.08218101 9.08448566,3.83333333 8.77751649,3.83333333 Z" id="形状结合"></path>
            <path d="M1,0 L11.6666667,0 C12.2189514,-1.01453063e-16 12.6666667,0.44771525 12.6666667,1 L12.6666667,2.22727273 L12.6666667,2.22727273 L0,2.22727273 L0,1 C-6.76353751e-17,0.44771525 0.44771525,3.23497668e-16 1,0 Z" id="矩形备份-32" opacity="0.55"></path>
            <path d="M11.8333333,11.6666667 C12.5922836,11.6666667 13.2075344,12.2886451 13.2075344,13.0558945 C13.2075344,13.345094 13.1201218,13.613654 12.9705494,13.8360454 L14.3333333,15.2141341 L13.5720553,15.2303975 L13.5559678,16 L12.0066143,14.4341836 C11.9498588,14.4414026 11.8920257,14.4451223 11.8333333,14.4451223 C11.7746409,14.4451223 11.7168079,14.4414026 11.6600524,14.4341836 L10.1106989,16 L10.0946114,15.2303975 L9.33333333,15.2141341 L10.6961173,13.8360454 C10.5465449,13.613654 10.4591322,13.345094 10.4591322,13.0558945 C10.4591322,12.2886451 11.074383,11.6666667 11.8333333,11.6666667 Z M11.8333333,12.3888889 C11.5045924,12.3888889 11.2380952,12.6583471 11.2380952,12.9907407 C11.2380952,13.3231343 11.5045924,13.5925926 11.8333333,13.5925926 C12.1620743,13.5925926 12.4285714,13.3231343 12.4285714,12.9907407 C12.4285714,12.6583471 12.1620743,12.3888889 11.8333333,12.3888889 Z" id="形状" opacity="0.55"></path>
        </g>
    </g>
</svg>