<?xml version="1.0" encoding="UTF-8"?>
<svg width="20px" height="20px" viewBox="0 0 20 20" version="1.1" xmlns="http://www.w3.org/2000/svg" xmlns:xlink="http://www.w3.org/1999/xlink">
    <title>api-mock-second-menu</title>
    <g id="api-mock-second-menu" stroke="none" stroke-width="1" fill="none" fill-rule="evenodd">
        <g id="编组-3" fill="#000000" opacity="0">
            <rect id="矩形" x="0" y="0" width="20" height="20"></rect>
        </g>
        <g id="编组" transform="translate(2.000000, 3.045035)" fill="#57689C">
            <path d="M13.8120831,0.025659426 L15.6581139,0.641003026 C15.862285,0.709060049 16,0.900129471 16,1.11534467 L16,13.1816723 C16,13.4578146 15.7761424,13.6816723 15.5,13.6816723 C15.4292606,13.6816723 15.3593264,13.6666619 15.2948177,13.637633 L8.41036468,10.5396292 C8.14939136,10.4221912 7.85060864,10.4221912 7.58963532,10.5396292 L0.705182339,13.637633 C0.453362168,13.7509521 0.157358324,13.6386748 0.0440392474,13.3868546 C0.0150103115,13.3223459 5.63774586e-16,13.2524116 0,13.1816723 L0,1.1051787 C8.52737091e-17,0.894925477 0.131533875,0.707134565 0.329128468,0.635281985 L1.98650074,0.0326011611 C2.12216052,-0.0167296689 2.27252074,-0.00502349299 2.39891094,0.0647090308 L7.50833256,2.88370027 C7.81368648,3.0521714 8.18475281,3.04939203 8.48754884,2.87636573 L13.4058997,0.065879504 C13.5294084,-0.00469685754 13.6771317,-0.0193243545 13.8120831,0.025659426 Z M11.4998946,3.55496506 L8.02194688,5.57071456 L4.4851031,3.55496506 L3.2,4.34136415 L3.2,9.8622765 L4.83007125,8.99065898 L4.83007125,5.65932702 L8.02194688,7.59039101 L11.0975275,5.65932702 L11.0975275,8.99065898 L12.8,9.8622765 L12.8,4.34136415 L11.4998946,3.55496506 Z" id="形状结合"></path>
        </g>
    </g>
</svg>