<?xml version="1.0" encoding="UTF-8"?>
<svg width="20px" height="20px" viewBox="0 0 20 20" version="1.1" xmlns="http://www.w3.org/2000/svg" xmlns:xlink="http://www.w3.org/1999/xlink">
    <title>asset-inventory-second-menu</title>
    <g id="吉林银行迭代二" stroke="none" stroke-width="1" fill="none" fill-rule="evenodd">
        <g id="asset-inventory-second-menu">
            <rect id="矩形" x="0" y="0" width="20" height="20"></rect>
            <g id="icon_navmenu_transaction_24_black-2" transform="translate(2.000000, 2.000000)" fill="#57689C" fill-rule="nonzero">
                <g id="icon_navmenu_transaction_24_black">
                    <path d="M0,10.8612826 C0,12.0826761 2.26550177,12.8531854 5.07308749,13.1600253 C5.41227877,14.00584 5.95438983,14.7551944 6.65160867,15.3419985 C2.91838905,15.2226718 0,14.0038353 0,12.4841251 L0,10.8612826 Z M0.0255699974,7.97102054 C0.0255699974,9.14127408 2.21265712,9.97059434 4.78755586,10.332836 C4.7347112,10.6285956 4.70061787,10.9320262 4.70061787,11.2422755 C4.70231208,11.5670486 4.73455872,11.8909419 4.79693152,12.2096738 C1.76347748,11.7690175 -0.0213083378,10.9124226 0.0255699974,9.59301069 L0.0255699974,7.97102054 Z M0,5.105 C0,6.545067 2.68825907,7.47325791 6.14020872,7.62838257 C5.6459615,8.16203972 5.26343335,8.78915405 5.01512884,9.47283171 C2.20754312,9.07223509 0,7.96420186 0,6.72405698 L0,5.105 Z M7.24483261,0 C11.2584699,0 14.4896652,1.26912421 14.4896652,2.86810137 L14.4896652,3.83379495 C14.4896652,4.6094182 13.7072233,5.31515013 12.4449177,5.83081175 C12.1772851,5.81120808 11.9088001,5.78222876 11.6411675,5.77114842 C10.0951665,5.52003301 8.51129339,5.86023862 7.20477294,6.72405698 C3.23460467,6.71553364 0,5.42595345 0,3.83209027 L0,2.86895371 C0,1.29384187 3.25591301,0 7.24483261,0 Z" id="形状结合" fill-opacity="0.55"></path>
                    <path d="M10.4945493,6.19731476 C12.2457445,6.1966851 13.8640129,7.13115374 14.7394731,8.6481958 C15.5603948,10.0707307 15.611078,11.8026639 14.8916387,13.2633617 L15.9726257,13.9822858 C16.254661,14.1698443 16.3312495,14.5505254 16.1436909,14.8325606 C16.1389977,14.839618 16.1341586,14.8465774 16.1291768,14.8534342 C15.9191879,15.1424591 15.5186222,15.2144434 15.2211424,15.0166139 L14.1829386,14.3261786 C13.262087,15.3786578 11.9217293,16.0002855 10.4929467,15.9999999 C7.78601016,15.9994583 5.59204338,13.8046138 5.59258451,11.0976772 C5.59312605,8.3907406 7.78797054,6.19677377 10.4945493,6.19731476 Z M10.4946515,7.47581466 C8.49381084,7.47541481 6.87148466,9.09709225 6.87108438,11.0979329 C6.8706844,13.0987735 8.49236183,14.7210997 10.4932024,14.7215 C11.7876717,14.7217587 12.9839487,14.0314068 13.6314074,12.910493 C14.2788662,11.7895792 14.2791424,10.408397 13.632132,9.28722433 C12.9850648,8.1659534 11.7891094,7.47534933 10.4946515,7.47581466 Z" id="形状结合"></path>
                    <path d="M8.78840812,8.91966744 C8.61794147,9.09013409 8.61794147,9.3671424 8.78840812,9.53760904 L9.66204969,10.4112506 L9.57085004,10.4112506 C9.32960057,10.4112506 9.13402924,10.6068219 9.13402924,10.8480714 C9.13402924,11.0893209 9.32960057,11.2848922 9.57085004,11.2848922 L10.1529936,11.2848922 L10.1529936,11.8670358 L9.5699977,11.8670358 C9.4093336,11.8599371 9.25774061,11.9416073 9.17528909,12.0796837 C9.09283756,12.2177601 9.09283756,12.3899531 9.17528909,12.5280295 C9.25774061,12.6661059 9.4093336,12.7477761 9.5699977,12.7406774 L10.1529936,12.7406774 L10.1529936,13.46857 C10.1529936,13.7095841 10.3483742,13.9049646 10.5893883,13.9049646 C10.8304024,13.9049646 11.0257829,13.7095841 11.0257829,13.46857 L11.0257829,12.7406774 L11.6079265,12.7406774 C11.7685906,12.7477761 11.9201836,12.6661059 12.0026351,12.5280295 C12.0850866,12.3899531 12.0850866,12.2177601 12.0026351,12.0796837 C11.9201836,11.9416073 11.7685906,11.8599371 11.6079265,11.8670358 L11.0266352,11.8670358 L11.0266352,11.2848922 L11.6079265,11.2848922 C11.8416777,11.2745644 12.0258734,11.0820507 12.0258734,10.8480714 C12.0258734,10.6140922 11.8416777,10.4215785 11.6079265,10.4112506 L11.5167268,10.4112506 L12.3895161,9.53760904 C12.549609,9.36527265 12.5446734,9.09716477 12.3783461,8.93083743 C12.2120187,8.76451009 11.9439109,8.75957452 11.7715745,8.91966744 L10.5893883,10.102706 L9.40720205,8.91966744 C9.23673541,8.7492008 8.95887476,8.7492008 8.78840812,8.91966744 L8.78840812,8.91966744 Z" id="路径"></path>
                </g>
            </g>
        </g>
    </g>
</svg>