<?xml version="1.0" encoding="UTF-8"?>
<svg width="20px" height="20px" viewBox="0 0 20 20" version="1.1" xmlns="http://www.w3.org/2000/svg" xmlns:xlink="http://www.w3.org/1999/xlink">
    <title>availability-management-second-menu</title>
    <g id="availability-management-second-menu" stroke="none" stroke-width="1" fill="none" fill-rule="evenodd">
        <g id="统计">
            <rect id="矩形" x="0" y="0" width="20" height="20"></rect>
            <g id="编组" transform="translate(2, 2.36)" fill="#57689C">
                <path d="M15.9962546,0 L12.7178284,0.342776884 L13.7973102,1.37110753 L10.2390183,5.51489919 L6.54479177,2.26232743 C6.29691077,2.04142677 5.90509886,2.04142677 5.6492217,2.25471017 L0.219828093,6.92409305 C-0.0520413951,7.16022824 -0.0760298793,7.56394323 0.171851125,7.82293021 C0.299789707,7.96004096 0.48370142,8.02859634 0.667613133,8.02859634 C0.827536361,8.02859634 0.987459589,7.97527549 1.11539817,7.8686338 L6.08901057,3.58773138 L9.8552026,6.90124126 C9.99113735,7.02311748 10.1750491,7.07643833 10.3509646,7.06882107 C10.5348763,7.05358654 10.7027957,6.96979663 10.8227381,6.84030314 L14.7408572,2.27756196 L15.6364273,3.13069554 L15.9962546,0 Z" id="路径" opacity="0.55"></path>
                <path d="M1.86045355,15.2345282 L0.432216535,15.2345282 C0.196557427,15.2345282 0.00374543,15.028862 0.00374543,14.7774923 L0.00374543,9.59775274 C0.00374543,9.34638303 0.196557427,9.1407169 0.432216535,9.1407169 L1.86045355,9.1407169 C2.09611266,9.1407169 2.28892465,9.34638303 2.28892465,9.59775274 L2.28892465,14.7774923 C2.28892465,15.028862 2.09611266,15.2345282 1.86045355,15.2345282 Z M6.430812,15.2345282 L5.00257498,15.2345282 C4.76691588,15.2345282 4.57410388,15.028862 4.57410388,14.7774923 L4.57410388,6.55084711 C4.57410388,6.29947739 4.76691588,6.09381126 5.00257498,6.09381126 L6.430812,6.09381126 C6.66647111,6.09381126 6.8592831,6.29947739 6.8592831,6.55084711 L6.8592831,14.7774923 C6.8592831,15.028862 6.66647111,15.2345282 6.430812,15.2345282 Z M11.0011704,15.2345282 L9.57293343,15.2345282 C9.33727432,15.2345282 9.14446233,15.028862 9.14446233,14.7774923 L9.14446233,8.83602633 C9.14446233,8.58465662 9.33727432,8.37899049 9.57293343,8.37899049 L11.0011704,8.37899049 C11.2368296,8.37899049 11.4296416,8.58465662 11.4296416,8.83602633 L11.4296416,14.7774923 C11.4296416,15.028862 11.2368296,15.2345282 11.0011704,15.2345282 Z M15.5715289,15.2345282 L14.1432919,15.2345282 C13.9076328,15.2345282 13.7148208,15.028862 13.7148208,14.7774923 L13.7148208,5.02739429 C13.7148208,4.77602458 13.9076328,4.57035845 14.1432919,4.57035845 L15.5715289,4.57035845 C15.807188,4.57035845 16,4.77602458 16,5.02739429 L16,14.7774923 C16,15.028862 15.807188,15.2345282 15.5715289,15.2345282 L15.5715289,15.2345282 Z" id="形状结合"></path>
            </g>
        </g>
    </g>
</svg>