<?xml version="1.0" encoding="UTF-8"?>
<svg width="20px" height="20px" viewBox="0 0 20 20" version="1.1" xmlns="http://www.w3.org/2000/svg" xmlns:xlink="http://www.w3.org/1999/xlink">
    <title>blueprint-management-second-menu</title>
    <defs>
        <path d="M15.2,3.75287546e-14 C15.6418278,3.74475921e-14 16,0.3581722 16,0.8 L16,10.6805195 C16,11.1223473 15.6418278,11.4805195 15.2,11.4805195 L3.2,11.4805195 C1.4326888,11.4805195 1.77635684e-14,10.0478307 1.77635684e-14,8.28051948 L1.77635684e-14,0.8 C1.77635684e-14,0.3581722 0.3581722,3.84916627e-14 0.8,3.84105003e-14 L15.2,3.75287546e-14 Z M11.8518519,5.004329 C11.3609321,5.004329 10.962963,5.3997139 10.962963,5.88744589 L10.2098765,5.88744589 C10.0053266,5.88744589 9.8339734,6.03268932 9.78918981,6.22775903 L9.78068482,6.27750929 L9.77777778,6.32900433 L9.77777778,6.77056277 C9.77777778,7.01442876 9.97123498,7.21212121 10.2098765,7.21212121 C10.287866,7.21212121 10.3610296,7.19100726 10.4241923,7.1540679 L10.4665432,7.12601732 L10.5108626,7.09419785 C10.611198,7.02909737 10.7302967,6.99134199 10.8580247,6.99134199 C11.215987,6.99134199 11.5061728,7.28788066 11.5061728,7.65367965 C11.5061728,8.01947864 11.215987,8.31601732 10.8580247,8.31601732 C10.7278671,8.31601732 10.6066702,8.27681193 10.5051259,8.20932699 L10.4717337,8.18552715 C10.3990763,8.12887997 10.308321,8.0952381 10.2098765,8.0952381 C9.97123498,8.0952381 9.77777778,8.29293054 9.77777778,8.53679654 L9.77777778,8.97835498 C9.77777778,9.22222097 9.97123498,9.41991342 10.2098765,9.41991342 L13.4938272,9.41991342 C13.7324687,9.41991342 13.9259259,9.22222097 13.9259259,8.97835498 L13.9259259,6.32900433 C13.9259259,6.08513834 13.7324687,5.88744589 13.4938272,5.88744589 L12.7407407,5.88744589 C12.7407407,5.3997139 12.3427716,5.004329 11.8518519,5.004329 Z" id="path-1"></path>
    </defs>
    <g id="blueprint-management-second-menu" stroke="none" stroke-width="1" fill="none" fill-rule="evenodd">
        <g id="编组-39" transform="translate(2, 4)">
            <g id="应用蓝图" transform="translate(0, 0.8831)">
                <mask id="mask-2" fill="white">
                    <use xlink:href="#path-1"></use>
                </mask>
                <use id="形状结合" fill="#57689C" xlink:href="#path-1"></use>
                <rect id="矩形备份-3" fill="#FFFFFF" opacity="0.55" mask="url(#mask-2)" x="9.77777778" y="2.35497835" width="4.14814815" height="1.76623377" rx="0.4"></rect>
                <rect id="矩形备份-2" fill="#FFFFFF" opacity="0.55" mask="url(#mask-2)" x="4.44444444" y="2.35497835" width="4.14814815" height="3.23809524" rx="0.4"></rect>
                <g id="云-(1)" mask="url(#mask-2)" fill="#FFFFFF" opacity="0.55">
                    <g transform="translate(4.4444, 6.4762)" id="路径">
                        <path d="M1.80570146,0 C1.23410999,0 0.766868687,0.451554833 0.726307519,1.02343434 C0.306047138,1.14547619 0,1.51969697 0,1.96248196 C0,2.48474748 0.425863074,2.91385642 0.962962963,2.94372294 L2.76866442,2.94372294 C3.36646016,2.94372294 3.85185185,2.42188673 3.85185185,1.77849928 C3.85185185,1.15823233 3.37638159,0.653138528 2.77683502,0.616709957 C2.6,0.251688312 2.23232323,0 1.80570146,0 Z"></path>
                    </g>
                </g>
            </g>
            <path d="M1.48148148,0 C2.29968111,0 2.96296296,0.658974827 2.96296296,1.47186147 L2.96296296,10.008658 L2.93322732,10.0091502 C2.95272618,9.91388302 2.96296296,9.81527207 2.96296296,9.71428571 C2.96296296,8.90139907 2.29968111,8.24242424 1.48148148,8.24242424 C0.663281852,8.24242424 0,8.90139907 0,9.71428571 C0,9.81527207 0.0102367842,9.91388302 0.0297356479,10.0091502 L0,10.008658 L0,1.47186147 L0.00678180549,1.33011139 C0.0785692067,0.583728567 0.711411242,0 1.48148148,0 Z" id="形状结合" fill="#57689C"></path>
        </g>
    </g>
</svg>