<?xml version="1.0" encoding="UTF-8"?>
<svg width="20px" height="20px" viewBox="0 0 20 20" version="1.1" xmlns="http://www.w3.org/2000/svg" xmlns:xlink="http://www.w3.org/1999/xlink">
    <title>call-topology-second-menu</title>
    <g id="call-topology-second-menu" stroke="none" stroke-width="1" fill="none" fill-rule="evenodd">
        <g id="source-analysis">
            <rect id="矩形" x="0" y="0" width="20" height="20"></rect>
            <g id="编组-2" transform="translate(1.250000, 3.850000)" fill="#57689C">
                <path d="M0,5.40093189 L3.03,5.40028332 L3.0304245,4.34028332 L4.76065312,6.03732104 L3.0304245,7.73435876 L3.03,6.67328332 L0,6.67371018 L0,5.40093189 Z M0.637097862,0.0534342999 L3.26147912,1.56787262 L3.79184675,0.650097939 L4.44174983,2.98489002 L2.09480903,3.58945349 L2.62497912,2.67032296 L0.000708717284,1.15569263 L0.637097862,0.0534342999 Z M0.000708717298,10.9189494 L2.6244414,9.40338777 L2.09480903,8.48518859 L4.44174983,9.08975206 L3.79184675,11.4245441 L3.2609414,10.5058381 L0.637097862,12.0212078 L0.000708717298,10.9189494 Z M12.7277829,5.4009319 L15.7577829,5.40028332 L15.7582074,4.34028332 L17.488436,6.03732104 L15.7582074,7.73435876 L15.7577829,6.67328332 L12.7277829,6.67371018 L12.7277829,5.4009319 Z M13.3648807,3.53601919 L15.989262,2.02158087 L16.5196296,2.93935555 L17.1695327,0.604563466 L14.8225919,-5.21360732e-13 L15.352762,0.919130531 L12.7284916,2.43376086 L13.3648807,3.53601919 Z M12.7284916,9.64088122 L15.3522243,11.1564429 L14.8225919,12.0746421 L17.1695327,11.4700786 L16.5196296,9.13528653 L15.9887243,10.0539926 L13.3648807,8.53862289 L12.7284916,9.64088122 Z" id="形状结合" opacity="0.550000012"></path>
                <rect id="矩形" opacity="0.550000012" x="5.83427587" y="1.25618284" width="5.7275023" height="11.0307452" rx="1"></rect>
                <rect id="矩形" x="7.10634544" y="2.52657426" width="3.18194572" height="8.48518859"></rect>
            </g>
        </g>
    </g>
</svg>