<?xml version="1.0" encoding="UTF-8"?>
<svg width="20px" height="20px" viewBox="0 0 20 20" version="1.1" xmlns="http://www.w3.org/2000/svg" xmlns:xlink="http://www.w3.org/1999/xlink">
    <title>change-password-account-configuration-second-menu</title>
    <g id="控件" stroke="none" stroke-width="1" fill="none" fill-rule="evenodd">
        <g id="2.导航/7.Slide-Menu侧边菜单/亮色/收起" transform="translate(-20.000000, -114.000000)">
            <g id="图标项-已选" transform="translate(12.000000, 106.000000)">
                <g id="change-password-account-configuration-second-menu" transform="translate(8.000000, 8.000000)">
                    <rect id="矩形" fill="#D8D8D8" opacity="0" x="0" y="0" width="20" height="20"></rect>
                    <path d="M8.23463102,17.1069606 L3,17.1058594 C2.44771525,17.1058594 2,16.6581441 2,16.1058594 C2,15.5535746 2.44771525,15.1058594 3,15.1058594 L7.36217029,15.1066666 C7.53681942,15.8297859 7.83557584,16.5044868 8.23463102,17.1069606 Z M7.20549872,13.1063278 L3,13.1058594 C2.44771525,13.1058594 2,12.6581441 2,12.1058594 C2,11.5535746 2.44771525,11.1058594 3,11.1058594 L7.70177935,11.1059332 C7.43330319,11.7275019 7.26155294,12.4006235 7.20549872,13.1063278 Z M13.5177436,7.28230686 C11.7851136,7.28230686 10.2150106,7.97816778 9.07166147,9.10566278 L3,9.10585938 C2.44771525,9.10585938 2,8.65814412 2,8.10585938 C2,7.55357463 2.44771525,7.10585938 3,7.10585938 L14.7290904,7.10616074 C14.2494152,7.16168332 13.8338964,7.22187056 13.5177436,7.28230686 Z M15,3.10585938 C15.5522847,3.10585938 16,3.55357463 16,4.10585938 C16,4.65814412 15.5522847,5.10585938 15,5.10585938 L3,5.10585938 C2.44771525,5.10585938 2,4.65814412 2,4.10585938 C2,3.55357463 2.44771525,3.10585938 3,3.10585938 L15,3.10585938 Z" id="形状结合" fill="#57689C"></path>
                    <path d="M14.5,9 C14.5,10.5761589 15.6767951,11.2165886 17,10.5 L18,12.1675578 C16.641159,12.9034453 16.7193555,14.1389024 18,14.8324422 L17,16.5 C14.6315789,15.3635831 14.5069252,17.7266376 14.5003645,17.9785281 L14.5,18 L12.5,18 C12.5,16.4238411 11.3232049,15.7834114 10,16.5 L9,14.8324422 C10.358841,14.0965547 10.2806445,12.8610976 9,12.1675578 L10,10.5 C11.3807119,11.2477318 12.5,10.5105116 12.5,9 L14.5,9 Z M13.5,12 C12.6715729,12 12,12.6715729 12,13.5 C12,14.3284271 12.6715729,15 13.5,15 C14.3284271,15 15,14.3284271 15,13.5 C15,12.6715729 14.3284271,12 13.5,12 Z" id="形状结合" fill="#57689C" opacity="0.550000012"></path>
                </g>
            </g>
        </g>
    </g>
</svg>