<?xml version="1.0" encoding="UTF-8"?>
<svg width="20px" height="20px" viewBox="0 0 20 20" version="1.1" xmlns="http://www.w3.org/2000/svg" xmlns:xlink="http://www.w3.org/1999/xlink">
    <title>ci-second-menu</title>
    <g id="ci-second-menu" stroke="none" stroke-width="1" fill="none" fill-rule="evenodd">
        <g id="编组">
            <rect id="矩形" x="0" y="0" width="20" height="20"></rect>
            <g id="持续集成" transform="translate(1.000000, 6.000000)" fill="#57689C">
                <path d="M8.05739547,3.75549825 L9.59016393,5.28826672 L9.60408915,5.29721864 L9.46399727,5.43745005 C9.3245934,5.57699712 9.18749646,5.71424764 9.05489229,5.84700986 L8.55361837,6.34892595 C8.51470588,6.38789163 8.47661642,6.4260339 8.43943095,6.46327159 L7.95956747,6.94384671 C7.85508077,7.04849682 7.77153445,7.13217965 7.71410981,7.18969994 L7.62538221,7.27857801 L7.46250256,7.45039399 C6.7367954,8.17537074 5.75620609,8.64258611 4.66726837,8.71585927 L4.66726837,6.52263769 L4.85341737,6.48880867 C5.22009541,6.40572135 5.55166171,6.23139226 5.82306134,5.98983238 L6.00143673,5.81112544 L7.06671579,4.74584638 L7.09324001,4.71932216 L8.05739547,3.75549825 Z M13.3363787,0 L13.3363787,2.19322159 L13.1534959,2.22581719 C12.7930584,2.30596983 12.465958,2.47461516 12.1968318,2.70878615 L12.1630538,2.74132017 C12.1346474,2.76915939 12.0894945,2.81382523 12.0299786,2.87292501 L11.810725,3.0911335 C11.7821055,3.1196585 11.7521549,3.14952142 11.7209615,3.18063363 L11.2926363,3.60827518 C10.9351263,3.96547391 10.505551,4.39515397 10.068263,4.83271321 L10.0589796,4.8194511 L8.52654264,3.28668263 L10.3709707,1.44159145 L10.5342159,1.26915658 C11.2615519,0.54158807 12.2443623,0.0729652922 13.3363787,0 Z M0.0404494382,3.76909191 L2.26583164,3.76909191 C2.49128753,2.96242402 3.16599742,2.34573586 4.00416283,2.20416283 L4.00416283,2.20416283 L4.00416283,0.00265242218 C1.95616136,0.172738994 0.312654264,1.75192485 0.0404494382,3.76909191 L0.0404494382,3.76909191 Z M13.9994843,2.20482593 C14.8356603,2.34739363 15.509044,2.96408178 15.7338368,3.76909191 L15.7338368,3.76909191 L17.959219,3.76909191 C17.6876773,1.75325106 16.0454964,0.174728311 13.9994843,0.00298397495 L13.9994843,0.00298397495 L13.9994843,2.20482593 Z M15.8130779,4.43219746 C15.7776018,5.48023577 15.0070731,6.339289 13.9994843,6.51136489 L13.9994843,6.51136489 L13.9994843,8.7135384 C16.2169092,8.52720575 17.962203,6.68874563 18,4.43219746 L18,4.43219746 L15.8130779,4.43219746 Z M0,4.43219746 L0,4.44711733 C0.0457542826,6.69836066 1.78939031,8.52952662 4.00416283,8.7135384 L4.00416283,8.7135384 L4.00416283,6.512028 C2.99458464,6.34160987 2.22206668,5.48156198 2.18692209,4.43219746 L2.18692209,4.43219746 L0,4.43219746 Z" id="形状结合"></path>
                <path d="M4.66726837,2.19355314 C5.09861853,2.25256953 5.49018235,2.43624977 5.80316817,2.70878615 L5.80316817,2.70878615 C5.88008841,2.77609136 5.95236692,2.84803831 6.01967213,2.92495856 L6.01967213,2.92495856 L6.71195432,3.61724074 L8.25831645,2.07087861 L7.62869773,1.44159145 C6.88999816,0.616356603 5.84129674,0.0792411125 4.66726837,0.000331552772 L4.66726837,0.000331552772 L4.66726837,2.19355314 Z" id="Fill-1-path" fill-rule="nonzero" opacity="0.55"></path>
                <path d="M9.73869958,6.63868116 L10.3739547,7.27857801 C11.1136489,8.10215509 12.1623503,8.63794437 13.3363787,8.71619083 L13.3363787,8.71619083 L13.3363787,6.52296924 C12.8944189,6.46328974 12.4942347,6.27231534 12.1769387,5.98983238 L12.1769387,5.98983238 L11.9982317,5.81112544 L11.2824093,5.095303 L9.73869958,6.63868116 Z" id="Fill-1-path" fill-rule="nonzero" opacity="0.55"></path>
            </g>
        </g>
    </g>
</svg>