<?xml version="1.0" encoding="UTF-8"?>
<svg width="20px" height="20px" viewBox="0 0 20 20" version="1.1" xmlns="http://www.w3.org/2000/svg" xmlns:xlink="http://www.w3.org/1999/xlink">
    <title>cloud-customer-management-second-menu</title>
    <g id="cloud-customer-management-second-menu" stroke="none" stroke-width="1" fill="none" fill-rule="evenodd">
        <rect id="矩形" fill-opacity="0" fill="#D8D8D8" x="0" y="0" width="20" height="20"></rect>
        <g id="编组-3" transform="translate(1, 4)">
            <path d="M8.7,0 C11.293265,0 12.7541523,1.3196046 13.5274496,3.03902802 C13.4524805,3.01351029 13.3708621,3 13.2857554,3 L11.7929844,3 C11.3983642,3 11.0787398,3.29046654 11.0787398,3.64908722 L11.0787398,3.9168357 C11.0787398,4.2754564 11.3983642,4.56592293 11.7929844,4.56592293 L13.2857554,4.56592293 C13.573169,4.56592293 13.8208001,4.41184079 13.9341356,4.18956758 C13.983181,4.37163202 14.0266893,4.55604345 14.064855,4.74154725 C15.8775,4.88663644 17.4,6.48350492 17.4,8.36988623 C17.4,10.4026878 15.804855,12 13.774275,12 L4.35,12 C1.957935,12 0,10.0401867 0,7.64554953 C0,5.3948923 1.667355,3.58016819 3.915,3.2908772 C4.785,1.54891953 6.596775,0 8.7,0 Z M9.74310249,7.64259635 C9.58418309,7.77403652 9.39312266,7.87789047 9.19491981,7.96227181 C8.40512226,8.29817895 7.49200389,8.29817895 6.70220634,7.96227181 C6.50400348,7.87789046 6.31294307,7.77403652 6.15402365,7.64259635 C6.15402365,7.64259635 5.09872733,7.85192698 4.04343101,9.42596349 C3.91308138,9.62068965 4.04343101,10.7890467 4.88802519,11 L11.009101,11 C11.8536951,10.7906694 11.9840448,9.62231237 11.8536951,9.42596349 C10.7983988,7.85192697 9.74310249,7.64259635 9.74310249,7.64259635 Z M13.2857554,7.32778904 L12.8839929,7.32778904 C12.4893728,7.32778904 12.1697483,7.61825558 12.1697483,7.97687627 L12.1697483,8.24462475 C12.1697483,8.60324544 12.4893728,8.89371197 12.8839929,8.89371197 L13.2857554,8.89371197 C13.6803756,8.89371197 14,8.60324543 14,8.24462475 L14,7.97687627 C14,7.61825557 13.6803756,7.32778904 13.2857554,7.32778904 Z M7.99856019,3.13955376 C6.71654449,3.13955376 5.67726541,4.14868395 5.67726541,5.39350913 C5.67726541,6.63833431 6.71654449,7.64746451 7.99856019,7.64746451 C9.2805759,7.64746451 10.319855,6.63833431 10.319855,5.39350913 C10.319855,4.14868395 9.2805759,3.13955376 7.99856019,3.13955376 Z M13.2857554,5.21014199 L12.2804563,5.21014199 C11.8858361,5.21014199 11.5662117,5.50060852 11.5662117,5.85922921 L11.5662117,6.12697769 C11.5662117,6.48559839 11.8858361,6.77606491 12.2804563,6.77606491 L13.2857554,6.77606491 C13.6803756,6.77606491 14,6.48559838 14,6.12697769 L14,5.85922921 C14,5.50060852 13.6803756,5.21014199 13.2857554,5.21014199 Z" id="形状结合" fill="#57689C"></path>
            <g id="编组-2" transform="translate(4, 3)"></g>
        </g>
    </g>
</svg>