<?xml version="1.0" encoding="UTF-8"?>
<svg width="20px" height="20px" viewBox="0 0 20 20" version="1.1" xmlns="http://www.w3.org/2000/svg" xmlns:xlink="http://www.w3.org/1999/xlink">
    <title>collect-platform-second-menu</title>
    <g id="collect-platform-second-menu" stroke="none" stroke-width="1" fill="none" fill-rule="evenodd">
        <g id="solution-second-menu" transform="translate(-0.000000, 0.000000)">
            <rect id="矩形" x="0" y="0" width="20" height="20"></rect>
        </g>
        <g id="编组" transform="translate(2.000000, 2.140000)" fill="#57689C">
            <path d="M16,3.43142857 L16,14.7171429 C16,15.3483254 15.4883254,15.86 14.8571429,15.86 L1.14285714,15.86 C0.511674572,15.86 0,15.3483254 0,14.7171429 L0,3.43142857 L16,3.43142857 Z M13.5,5.86 C12.6715729,5.86 12,6.53157288 12,7.36 C12,7.65073415 12.0827135,7.92214951 12.2258924,8.15199788 L9.9917326,10.9424581 C9.83768517,10.8890278 9.67223249,10.86 9.5,10.86 C9.39752156,10.86 9.29744335,10.8702766 9.20073969,10.8898555 L7.65622706,8.31564693 C7.87095772,8.05614 8,7.72313972 8,7.36 C8,6.53157288 7.32842712,5.86 6.5,5.86 C5.67157288,5.86 5,6.53157288 5,7.36 C5,7.5911799 5.05229795,7.81014496 5.1457083,8.00570963 L3.14570963,10.0057083 C2.95014496,9.91229795 2.7311799,9.86 2.5,9.86 C1.67157288,9.86 1,10.5315729 1,11.36 C1,12.1884271 1.67157288,12.86 2.5,12.86 C3.32842712,12.86 4,12.1884271 4,11.36 C4,11.1284303 3.94752552,10.9091166 3.85381878,10.7133012 L5.8533012,8.71381878 C6.04911658,8.80752552 6.26843025,8.86 6.5,8.86 C6.60176181,8.86 6.70115684,8.84986662 6.79723107,8.8305539 L8.34294215,11.405358 C8.12870948,11.6647194 8,11.9973288 8,12.36 C8,13.1884271 8.67157288,13.86 9.5,13.86 C10.3284271,13.86 11,13.1884271 11,12.36 C11,12.0692659 10.9172865,11.7978505 10.7741076,11.5680021 L13.0072694,8.77719537 C13.1616002,8.83084664 13.3273955,8.86 13.5,8.86 C14.3284271,8.86 15,8.18842712 15,7.36 C15,6.53157288 14.3284271,5.86 13.5,5.86 Z" id="形状结合" opacity="0.55"></path>
            <path d="M14.8571429,0 C15.4883254,0 16,0.511674572 16,1.14285714 L16,3.42857143 L1.42108547e-14,3.42857143 L1.42108547e-14,1.14285714 C1.42108547e-14,0.511674572 0.511674572,0 1.14285714,0 L14.8571429,0 Z M2.85714286,1.14285714 C2.54155157,1.14285714 2.28571429,1.39869443 2.28571429,1.71428571 C2.28571429,2.029877 2.54155157,2.28571429 2.85714286,2.28571429 C3.17273414,2.28571429 3.42857143,2.029877 3.42857143,1.71428571 C3.42857143,1.39869443 3.17273414,1.14285714 2.85714286,1.14285714 Z M5.14285714,1.14285714 C4.82726586,1.14285714 4.57142857,1.39869443 4.57142857,1.71428571 C4.57142857,2.029877 4.82726586,2.28571429 5.14285714,2.28571429 C5.45844843,2.28571429 5.71428571,2.029877 5.71428571,1.71428571 C5.71428571,1.39869443 5.45844843,1.14285714 5.14285714,1.14285714 Z M7.42857143,1.14285714 C7.11298014,1.14285714 6.85714286,1.39869443 6.85714286,1.71428571 C6.85714286,2.029877 7.11298014,2.28571429 7.42857143,2.28571429 C7.74416271,2.28571429 8,2.029877 8,1.71428571 C8,1.39869443 7.74416271,1.14285714 7.42857143,1.14285714 Z" id="形状"></path>
        </g>
    </g>
</svg>