<?xml version="1.0" encoding="UTF-8"?>
<svg width="20px" height="20px" viewBox="0 0 20 20" version="1.1" xmlns="http://www.w3.org/2000/svg" xmlns:xlink="http://www.w3.org/1999/xlink">
    <title>computing-resources-second-menu</title>
    <g id="computing-resources-second-menu" stroke="none" stroke-width="1" fill="none" fill-rule="evenodd">
        <g id="compute-drm-second-menu">
            <rect id="矩形" fill="#000000" opacity="0" x="0" y="0" width="20" height="20"></rect>
            <g id="编组-2" transform="translate(2.1, 2)">
                <rect id="矩形" fill="#9FAECF" x="3.46666667" y="3.55555556" width="8.88888889" height="8.88888889" rx="1"></rect>
                <g id="编组" transform="translate(4.4444, 0)">
                    <rect id="矩形" fill="#9FAECF" x="0.8" y="0.888888889" width="1.06666667" height="3.55555556"></rect>
                    <rect id="矩形备份-2" fill="#9FAECF" x="0.8" y="11.5555556" width="1.06666667" height="3.55555556"></rect>
                    <rect id="矩形备份" fill="#9FAECF" x="5.24444444" y="0.888888889" width="1.06666667" height="3.55555556"></rect>
                    <rect id="矩形备份-3" fill="#9FAECF" x="5.24444444" y="11.5555556" width="1.06666667" height="3.55555556"></rect>
                    <circle id="椭圆形" fill="#57689C" cx="1.33333333" cy="1.33333333" r="1.33333333"></circle>
                    <circle id="椭圆形备份-2" fill="#57689C" cx="1.33333333" cy="14.6666667" r="1.33333333"></circle>
                    <circle id="椭圆形备份" fill="#57689C" cx="5.77777778" cy="1.33333333" r="1.33333333"></circle>
                    <circle id="椭圆形备份-3" fill="#57689C" cx="5.77777778" cy="14.6666667" r="1.33333333"></circle>
                </g>
                <g id="编组" transform="translate(8, 8) rotate(-270) translate(-8, -8)translate(4.4444, 0)">
                    <rect id="矩形" fill="#9FAECF" x="0.8" y="0.888888889" width="1.06666667" height="3.55555556"></rect>
                    <rect id="矩形备份-2" fill="#9FAECF" x="0.8" y="11.5555556" width="1.06666667" height="3.55555556"></rect>
                    <rect id="矩形备份" fill="#9FAECF" x="5.24444444" y="0.888888889" width="1.06666667" height="3.55555556"></rect>
                    <rect id="矩形备份-3" fill="#9FAECF" x="5.24444444" y="11.5555556" width="1.06666667" height="3.55555556"></rect>
                    <circle id="椭圆形" fill="#57689C" cx="1.33333333" cy="1.33333333" r="1.33333333"></circle>
                    <circle id="椭圆形备份-2" fill="#57689C" cx="1.33333333" cy="14.6666667" r="1.33333333"></circle>
                    <circle id="椭圆形备份" fill="#57689C" cx="5.77777778" cy="1.33333333" r="1.33333333"></circle>
                    <circle id="椭圆形备份-3" fill="#57689C" cx="5.77777778" cy="14.6666667" r="1.33333333"></circle>
                </g>
                <rect id="矩形" fill="#57689C" x="6.13333333" y="6.22222222" width="3.55555556" height="3.55555556" rx="1"></rect>
            </g>
        </g>
    </g>
</svg>