<?xml version="1.0" encoding="UTF-8"?>
<svg width="20px" height="20px" viewBox="0 0 20 20" version="1.1" xmlns="http://www.w3.org/2000/svg" xmlns:xlink="http://www.w3.org/1999/xlink">
    <title>metric-collection-second-menu</title>
    <g id="metric-collection-second-menu" stroke="none" stroke-width="1" fill="none" fill-rule="evenodd">
        <g id="编组">
            <rect id="矩形" fill="#FFFFFF" opacity="0" x="0" y="0" width="20" height="20"></rect>
            <g id="04转换" transform="translate(2.000000, 2.000000)" fill="#57689C">
                <path d="M0.803135378,4.20745916 C0.803135378,4.20745916 2.24850205,1.95895257 4.53293874,0.752664164 C6.8189471,-0.453624247 9.63310069,-0.106737514 11.4784588,1.0628327 C13.3253886,2.23240291 13.9472974,3.21993102 13.9472974,3.21993102 L15.5379743,2.30583929 C15.5379743,2.30583929 15.8660919,2.14176908 15.8660919,2.52537401 L15.8660919,8.26538927 C15.8660919,8.26538927 15.8660919,8.77714343 15.4817125,8.59352966 C15.159836,8.44041568 11.6659676,6.43643133 10.5659251,5.80437723 C9.96278544,5.53249858 10.4924887,5.31139217 10.4924887,5.31139217 L12.0284755,4.42621488 C12.0284755,4.42621488 11.1518901,3.31992206 9.87060272,2.73397071 C8.50025778,2.01363808 7.21582705,1.92769654 5.64390105,2.52693201 C4.61732225,2.91757534 3.40947128,3.91838308 2.54069873,5.39498756 L0.803135378,4.20745916 L0.803135378,4.20745916 Z" id="路径"></path>
                <path d="M15.0629383,11.7928553 C15.0629383,11.7928553 13.6175853,14.0405874 11.3331577,15.2476366 C9.04870737,16.4539341 6.23298664,16.1062775 4.38762852,14.9366936 C2.54069873,13.7671371 1.91880363,12.7795953 1.91880363,12.7795953 L0.328126741,13.6936962 C0.328126741,13.6936962 0,13.8577664 0,13.4749359 L0,7.73412798 C0,7.73412798 0,7.22317106 0.384379387,7.40598759 C0.706264932,7.55912433 4.20012427,9.56309503 5.30016223,10.19514 C5.90330187,10.4670187 5.37359864,10.6889223 5.37359864,10.6889223 L3.8376118,11.5733251 C3.8376118,11.5733251 4.71419724,12.6796043 5.99548459,13.2655693 C7.3658523,13.9859019 8.65026026,14.0718435 10.2221863,13.4725989 C11.2487651,13.0819556 12.456616,12.081936 13.3253886,10.6045297 L15.0629383,11.7928553 L15.0629383,11.7928553 Z" id="路径" fill-rule="nonzero" opacity="0.55"></path>
            </g>
        </g>
    </g>
</svg>