<?xml version="1.0" encoding="UTF-8"?>
<svg width="20px" height="20px" viewBox="0 0 20 20" version="1.1" xmlns="http://www.w3.org/2000/svg" xmlns:xlink="http://www.w3.org/1999/xlink">
    <title>data-acquisition-second-menu</title>
    <g id="data-acquisition-second-menu" stroke="none" stroke-width="1" fill="none" fill-rule="evenodd">
        <g id="编组">
            <rect id="矩形" fill="#FFFFFF" opacity="0" x="0" y="0" width="20" height="20"></rect>
            <g id="数据采集" transform="translate(2.000000, 2.000000)" fill="#57689C">
                <path d="M12.7605253,4.38405956 C12.7552336,4.40576715 12.7491894,4.42749824 12.7427218,4.44922931 C12.7407698,4.45550875 12.7388177,4.46174115 12.736654,4.46839689 C12.7319503,4.48406022 12.7266587,4.49970003 12.7212024,4.51515167 C12.7190387,4.52159574 12.7167103,4.528275 12.7143585,4.53493074 C12.7123829,4.54038703 12.7100311,4.54626667 12.7077027,4.55195814 C12.7022229,4.56663368 12.6967431,4.5815209 12.6904872,4.59619644 C12.6883235,4.60127643 12.6859952,4.60637996 12.6838315,4.61164809 C12.6791513,4.62239604 12.6742594,4.63316751 12.6693676,4.64412713 C12.6670157,4.64880732 12.6650637,4.6534875 12.6630881,4.65823824 C12.6589724,4.6668225 12.6548567,4.67540675 12.650788,4.68406154 C12.6488124,4.68758932 12.6468604,4.69149339 12.6450965,4.69504468 C12.6406045,4.70400524 12.6360889,4.71301282 12.6315969,4.7216441 C12.6271049,4.73022835 12.6228009,4.73885963 12.6184971,4.7470911 C12.6161217,4.75099518 12.6137934,4.75489925 12.6116297,4.75903851 C12.6038215,4.77331424 12.5959899,4.7873783 12.5875703,4.80148941 C12.5817142,4.81169644 12.5754347,4.82164475 12.5695786,4.8316166 C12.5634873,4.84121214 12.5576312,4.85080769 12.5515634,4.86059138 C12.5442962,4.87152747 12.537076,4.8828634 12.5296207,4.89384654 C12.524329,4.90165468 12.5190609,4.90950986 12.513581,4.91731801 C12.4994699,4.93808483 12.4847944,4.95842833 12.4697426,4.97856017 C12.4697426,4.97879535 12.4693427,4.97898351 12.4693427,4.97914814 C12.4540792,4.99949164 12.4388158,5.01948236 12.422588,5.03963772 C12.4212004,5.0413781 12.4196482,5.04335364 12.4180959,5.04509401 C12.4153678,5.04880993 12.4122163,5.05236124 12.4092765,5.05626529 C12.3985286,5.06917694 12.3877571,5.0824884 12.3765858,5.09540008 C12.3758097,5.09655249 12.3748454,5.09732859 12.3738576,5.09852805 C12.3719056,5.10087991 12.3695537,5.10363155 12.3674136,5.1059599 C12.3427427,5.13453487 12.3171075,5.16310984 12.2905081,5.1912615 C12.2900847,5.19149668 12.2900847,5.19168484 12.2900847,5.19168484 C12.2384381,5.24624775 12.1832402,5.29991696 12.124538,5.35255136 C12.1241382,5.35273949 12.1241382,5.35292765 12.1239736,5.35292765 C12.0959866,5.37818652 12.0670118,5.40304558 12.0374726,5.42771648 L12.029829,5.43432518 C11.9679989,5.48540736 11.9030173,5.53571342 11.8347431,5.58479653 C12.1703521,5.65782147 12.4936373,5.7650423 12.8000598,5.90321347 L12.8000598,4.38408317 L12.7605253,4.38408307 L12.7605253,4.38405956 Z M0.00707906396,3.01676468 C0.142898381,4.32279389 2.21135024,5.40144625 4.95468891,5.68637286 C5.24490716,5.71650005 5.54293358,5.7376432 5.84683959,5.7493554 C6.02922555,5.75643446 6.21356353,5.75991519 6.40004168,5.75991519 C6.46208348,5.75991519 6.52431342,5.75953889 6.58574374,5.75876278 C7.01782557,5.75325945 7.43894779,5.72863559 7.84558261,5.68637286 C8.35200641,5.63373847 8.8353821,5.55408132 9.28780743,5.45071752 C9.32654239,5.44194512 9.36490108,5.43293754 9.40304806,5.42371827 C9.6979465,5.35330388 9.97894552,5.27268249 10.2439284,5.18265366 C10.295575,5.16543812 10.3462809,5.14742294 10.3965635,5.12940779 C10.5049602,5.09069634 10.6102525,5.04993878 10.7126051,5.00809939 C10.7856065,4.9779722 10.856844,4.94742166 10.9265058,4.91590688 C10.9957678,4.88481542 11.0631012,4.8528773 11.1292352,4.82039827 C11.1591743,4.80574624 11.1887135,4.79085903 11.2179,4.77561905 C11.3155252,4.72550112 11.4098579,4.673831 11.4998632,4.62063215 C11.5006628,4.61985604 11.5018388,4.61907994 11.5030147,4.61868013 C11.6325546,4.54158648 11.7538865,4.46171766 11.8660227,4.37914422 C11.8932101,4.35898888 11.919833,4.33862184 11.9460562,4.31827836 C12.0501726,4.23706899 12.1460575,4.1532961 12.2327231,4.06719488 C12.2548305,4.04527565 12.2761853,4.02316826 12.2970932,4.00087273 C12.3785143,3.91416002 12.4511159,3.82533067 12.5139338,3.7343376 C12.544061,3.69031097 12.5718598,3.64607268 12.597495,3.60108179 C12.6258583,3.5517635 12.6513053,3.50206891 12.6738125,3.45195099 C12.6863244,3.42377582 12.697872,3.39560066 12.7086434,3.36742552 C12.7518704,3.25253765 12.7806571,3.13572127 12.7929808,3.01674119 C12.7953326,2.99599788 12.7968848,2.97525457 12.7980608,2.95451125 C12.7994483,2.92965219 12.8000128,2.90481667 12.8000128,2.88014577 C12.8000128,1.28958978 9.93475422,0 6.4000181,0 C2.86549365,0 2.3419529e-05,1.28958978 2.3419529e-05,2.88014577 C2.3419529e-05,2.90481667 0.000799527546,2.92965222 0.00218711739,2.95451125 C0.00357479917,2.97527803 0.00512703819,2.99602134 0.00707906396,3.01676468 Z M7.16382843,13.7391534 C7.10590237,13.7420462 7.04816445,13.7452212 6.9898621,13.7477377 C6.97441045,13.7483257 6.95914694,13.7491253 6.94369529,13.7494781 C6.86267406,13.752606 6.78127654,13.7549814 6.69926755,13.7569099 C6.68595609,13.7570981 6.6722683,13.7573333 6.65874517,13.7574979 C6.57285562,13.7588855 6.4867544,13.7600144 6.4000417,13.7600144 C6.31335251,13.7600144 6.22725129,13.758862 6.1415499,13.7574979 C6.12783861,13.7573098 6.11433901,13.7569099 6.1008629,13.7567218 C6.01904205,13.7549814 5.93766804,13.7525825 5.8566233,13.7494546 C5.84117165,13.7489136 5.82572,13.7483022 5.81043298,13.747526 C5.72863564,13.7443981 5.64723812,13.740447 5.56642856,13.7355786 C5.5564332,13.7349907 5.54664949,13.7343792 5.53686581,13.7337912 C5.45624439,13.7289229 5.37621094,13.7234666 5.29655379,13.7171637 C5.29048602,13.7166228 5.28441825,13.7161994 5.27816234,13.7158231 C5.19695297,13.7093555 5.11633155,13.7020883 5.0358983,13.6942802 C5.02261035,13.6928926 5.00948702,13.6915285 4.9963637,13.6903761 C4.91769433,13.6823328 4.83982458,13.6739367 4.76270742,13.6645058 C4.75038374,13.6631652 4.73803653,13.661566 4.72592449,13.6602254 C4.64605567,13.6504417 4.56663371,13.6402347 4.48796434,13.6288988 C4.48561248,13.6287106 4.48307248,13.6285225 4.48053249,13.6281227 C4.40148682,13.6167867 4.32281745,13.6046512 4.24492419,13.592304 C4.23728067,13.5909634 4.22966068,13.5899521 4.22220531,13.5885881 C4.14569964,13.5762879 4.06997008,13.5631881 3.99501663,13.5494533 C3.98386886,13.5475248 3.97293275,13.5451729 3.96194961,13.5431974 C3.88683153,13.5295096 3.81263067,13.5150457 3.73925296,13.4997352 C3.73182111,13.498183 3.72478909,13.4966072 3.71752187,13.495055 C3.56451053,13.4633521 3.41481529,13.4288975 3.26862432,13.3921145 C3.26156876,13.390186 3.25434858,13.3883986 3.24729303,13.3866583 C3.17645532,13.3684784 3.10641723,13.3498753 3.03710823,13.3304726 C3.02927657,13.3283089 3.02146842,13.3259805 3.01342511,13.324052 C2.94319888,13.3040613 2.87351356,13.2837178 2.80502771,13.2627863 C2.80328733,13.2622454 2.80152344,13.261822 2.79973605,13.2610459 C2.72831037,13.2391267 2.65787247,13.2168076 2.58877511,13.1937125 C2.587999,13.1933362 2.58703474,13.1931715 2.58642325,13.1929363 C2.51930146,13.1704291 2.45356725,13.1473575 2.38858565,13.123886 C2.38508138,13.1224984 2.3811538,13.1213225 2.37741437,13.1199349 L2.37781418,13.1199349 C1.10094791,12.6551624 0.229752197,11.9738315 0.0395346009,11.2000494 L0,11.2000494 L0,13.1199349 C0,14.4117119 1.89015813,15.5048047 4.49379693,15.8699529 L4.49379693,15.8699529 C4.49398506,15.8699529 4.49419673,15.8699529 4.49457303,15.870188 C4.56150667,15.8793838 4.62921643,15.8883679 4.69730247,15.8965993 C4.7137419,15.898763 4.73015782,15.9009267 4.74662076,15.9026671 C4.81393069,15.9107104 4.88164046,15.9185186 4.94975003,15.9255506 C4.95092595,15.9257858 4.95170206,15.9259739 4.95268984,15.9259739 C5.02176366,15.9331941 5.09142545,15.9396617 5.16148705,15.9459176 C5.17832629,15.9474699 5.19551831,15.9490926 5.21256922,15.950245 C5.28201934,15.9561247 5.351493,15.961581 5.42176627,15.9666845 C5.42254238,15.9666845 5.42331848,15.9666845 5.42411813,15.9666845 C5.49497937,15.9715528 5.56619338,15.975692 5.63780719,15.9795961 C5.65542254,15.9803722 5.67303791,15.9815717 5.69065326,15.9823478 C5.76186726,15.9858285 5.83350461,15.9890035 5.90551824,15.9915435 C5.90591805,15.9917317 5.90669416,15.9917317 5.90707046,15.9917317 C5.97927224,15.9940835 6.05208551,15.9958709 6.12489878,15.997235 C6.14307859,15.9976113 6.16149355,15.9977759 6.17988503,15.9981993 C6.25305109,15.9991635 6.32626416,15.9999396 6.40001817,15.9999396 C6.47377217,15.9999396 6.54738508,15.9991635 6.62036298,15.9981993 C6.63854278,15.9977759 6.65695775,15.9976113 6.67534923,15.997235 C6.74816249,15.9958474 6.82092872,15.99406 6.89296588,15.9917317 C6.89374199,15.9917317 6.8941418,15.9917317 6.89451809,15.9915435 C6.96655525,15.989027 7.03814556,15.985852 7.10938308,15.9823478 C7.12699842,15.9815717 7.14482544,15.9803722 7.16241728,15.9795961 C7.23384296,15.975692 7.30526864,15.9715528 7.37591821,15.9666845 C7.37669432,15.9666845 7.37747042,15.9666845 7.37827007,15.9666845 C7.44873148,15.961581 7.51839327,15.9561247 7.58765525,15.950245 C7.60487078,15.9490926 7.62171002,15.9474934 7.63873742,15.9459176 C7.70861089,15.9396617 7.77827268,15.9331941 7.84753463,15.9259739 C7.84831074,15.9259739 7.84908685,15.9257858 7.85026279,15.9255506 C7.91837237,15.9185186 7.9860586,15.9107104 8.05339206,15.9026671 C8.06983149,15.9009267 8.08627092,15.898763 8.10289851,15.8965993 C8.17081992,15.8883679 8.23852969,15.8793838 8.30583962,15.870188 C8.30583962,15.8699529 8.30623943,15.8699529 8.30661573,15.8699529 C9.13084499,15.7545241 9.88348395,15.5656705 10.5276556,15.320843 C9.20057737,15.2523806 8.01077656,14.6563513 7.16382843,13.7391534 Z M0.00357479917,9.80091049 C0.00456257928,9.81615046 0.00573849703,9.83141398 0.00729071307,9.846701 C0.00827849317,9.85493247 0.00905460119,9.86309338 0.0102305189,9.87132488 C0.011782735,9.88583579 0.0137347837,9.90029966 0.0160866192,9.91478706 C0.0172860714,9.92283039 0.0184619892,9.93082668 0.0200142052,9.93868185 C0.022742362,9.95434517 0.0258703055,9.96996145 0.0290217835,9.98562477 C0.0303858619,9.99209235 0.0315617796,9.99853642 0.032925858,10.0051922 C0.0380293618,10.0271114 0.0432975147,10.0490542 0.0493652871,10.0709734 C0.0501413951,10.0729019 0.0507528769,10.0752538 0.0513173128,10.0772293 C0.0567971149,10.0967967 0.0626532381,10.1163641 0.0693324924,10.1359315 C0.0714961902,10.1429635 0.0740126749,10.1500426 0.0763880449,10.1570511 C0.0814680371,10.1717501 0.0869478392,10.1864022 0.0924276642,10.2012894 C0.0953674701,10.2089094 0.0983072989,10.2165294 0.101435242,10.2243845 C0.107314877,10.2386603 0.113194489,10.2529595 0.119450422,10.2670236 C0.1226019,10.2744554 0.125729866,10.2819108 0.129234108,10.2893426 C0.136289661,10.305006 0.143721512,10.3208574 0.151529638,10.3363326 C0.154069634,10.341977 0.156633141,10.3476685 0.159361298,10.3531483 C0.170320925,10.3742679 0.181304064,10.3954111 0.193039776,10.4165307 C0.194991801,10.4196586 0.19694385,10.4228336 0.198496066,10.4259381 C0.208679585,10.4435299 0.219051242,10.4613569 0.229822708,10.4791369 C0.233938455,10.4857927 0.238030667,10.4920956 0.242334551,10.4987043 C0.25134213,10.51298 0.260514357,10.5272793 0.270133417,10.5417902 C0.2748136,10.5488222 0.279517294,10.5558543 0.284597286,10.5629098 C0.294192835,10.5770209 0.304164682,10.5910615 0.314348178,10.6051725 C0.319051872,10.6118283 0.323732054,10.6182724 0.328623909,10.6247399 C0.340782965,10.6411794 0.35350648,10.6576188 0.366018323,10.6736584 C0.36914629,10.6775625 0.372086096,10.6814666 0.375025901,10.6854177 C0.391441819,10.7057612 0.408281058,10.7262928 0.425708267,10.7464717 C0.428224752,10.7495997 0.430999931,10.7525395 0.433728065,10.7554793 C0.448191934,10.7724831 0.463079147,10.7893224 0.478342658,10.8061381 C0.483798949,10.8118296 0.489090613,10.8177092 0.494382278,10.823189 C0.50769374,10.8376529 0.521005226,10.851764 0.534692986,10.8658516 C0.540760759,10.8719193 0.546852043,10.8779871 0.552708166,10.8840314 C0.566819271,10.8983071 0.581494812,10.9123712 0.596170353,10.9268821 C0.601626643,10.9319386 0.606730147,10.9370421 0.61239811,10.9425454 C0.630977725,10.9601372 0.650145288,10.9777291 0.669736218,10.995368 C0.671123808,10.9969202 0.672487886,10.9983078 0.674063614,10.9996483 C0.695982845,11.0192157 0.718490046,11.0388301 0.741373546,11.0583975 C0.744313352,11.0607494 0.747441318,11.0632659 0.750381124,11.0657823 C0.769736848,11.0822218 0.789304243,11.0983084 0.809483098,11.1143245 C0.815362732,11.1190047 0.821218833,11.1239201 0.827286605,11.1286003 C0.845113624,11.1427114 0.863081758,11.1567519 0.881308586,11.1706749 C0.887752657,11.1757784 0.894032101,11.1804585 0.900476172,11.1853269 C0.919831896,11.2000259 0.939610963,11.2144898 0.959366496,11.2289537 C0.96447,11.2324815 0.969573527,11.2362209 0.974630008,11.2399368 C1.02608848,11.2769079 1.07952251,11.3133381 1.13472041,11.3491332 C1.13707227,11.3506854 1.13961227,11.3522612 1.14212873,11.3538134 C1.16679963,11.3699001 1.19163518,11.385728 1.21689402,11.4013913 C1.22277366,11.4048721 1.2284416,11.4084234 1.23410956,11.4119511 C1.2571812,11.4262268 1.28029988,11.4399146 1.30377135,11.4540257 C1.30983912,11.4575064 1.31571876,11.4608696 1.32159837,11.4645855 C1.34723354,11.4794257 1.37305684,11.4943129 1.39927996,11.5090119 C1.40280774,11.5109405 1.4059357,11.5127279 1.40946348,11.5146564 C1.47091731,11.549111 1.53432319,11.5831422 1.59946943,11.6164444 C1.60085702,11.6169853 1.60240923,11.617785 1.60396145,11.6185611 C1.63411217,11.6338481 1.66463917,11.6489235 1.695566,11.6641635 C1.70024619,11.6665153 1.70513804,11.6688436 1.71002987,11.6711955 C1.73860485,11.6851185 1.76755612,11.6988062 1.7969072,11.7123058 C1.80161089,11.7144695 1.80591478,11.7166332 1.8106185,11.7189616 C1.94721392,11.7821793 2.09006528,11.8424337 2.23917257,11.8997718 C2.24232405,11.9009712 2.24564015,11.9025235 2.24895626,11.9036759 C2.28399881,11.9169873 2.31920602,11.9303223 2.35502468,11.9433986 C2.35718838,11.9444099 2.35935208,11.945186 2.36168042,11.9459621 C2.51589122,12.0023124 2.67614625,12.0557464 2.84190462,12.1056292 L2.84562053,12.1067816 C3.34912804,12.2586405 3.90312977,12.3789847 4.49391444,12.4617698 L4.49391444,12.4617698 C4.49410257,12.4617698 4.49431425,12.4617698 4.49469054,12.462005 C4.51425794,12.4645215 4.53422515,12.4670615 4.55379252,12.469625 C4.59252748,12.4749166 4.63147411,12.4799966 4.67042074,12.484865 C4.67942832,12.4860644 4.68843592,12.4874285 4.69741998,12.4883927 C4.71385941,12.4905564 4.73027533,12.4927201 4.74673827,12.4944605 C4.75141845,12.4950485 4.75574585,12.4954248 4.76042603,12.4960127 C4.80955618,12.5020805 4.85906261,12.5075368 4.90856905,12.5126403 C4.92246849,12.5141925 4.93617976,12.5159564 4.94986754,12.5173205 C4.95104346,12.5177438 4.95181957,12.5177438 4.95299551,12.5177438 C4.97373882,12.5199075 4.99528178,12.5216479 5.01621323,12.5238116 C5.05398394,12.5275275 5.09175465,12.5310788 5.1297135,12.5345595 C5.14048497,12.5355708 5.15083312,12.5365351 5.16160458,12.5376875 C5.17863198,12.5392397 5.19563585,12.5406273 5.21268676,12.5420149 C5.2168025,12.5424382 5.22070656,12.542791 5.22463417,12.5429792 C5.2817606,12.5478945 5.33928685,12.5522219 5.39681309,12.5562906 C5.40504456,12.5568786 5.41346419,12.5576782 5.42186029,12.5584543 C5.4226364,12.5584543 5.42341251,12.5584543 5.42421215,12.5584543 C5.44533176,12.5600065 5.46649842,12.5608062 5.48761803,12.5623584 C5.52635299,12.5647103 5.56529962,12.5670386 5.60445792,12.5694375 C5.61560569,12.5698138 5.6265418,12.5705899 5.63790122,12.571366 C5.65551656,12.5721421 5.67313193,12.5733415 5.69074728,12.5741177 C5.69347544,12.5741177 5.69622708,12.5743058 5.69897875,12.574494 C5.75746926,12.5772456 5.8163831,12.5797856 5.87529694,12.5819258 C5.88548045,12.5823491 5.89542877,12.5828901 5.90561229,12.5833134 C5.90620026,12.5835015 5.9067882,12.5835015 5.9071645,12.5835015 C5.92771968,12.5840895 5.94827483,12.5842776 5.96901814,12.5850537 C6.0077531,12.5862532 6.04651159,12.5870293 6.08564636,12.5879936 C6.09876969,12.5881817 6.11186948,12.581573 6.12518096,12.5819258 C6.14319614,12.5823491 6.1615876,12.575858 6.17997905,12.575858 L6.18270721,12.575858 C6.18388313,12.575858 6.17605147,12.5831252 6.17605147,12.5831252 L6.17605147,12.586606 C6.25883658,12.5873821 6.31205894,12.5893576 6.37097278,12.5899691 C6.04180788,11.9295227 5.85650565,11.1831867 5.85650565,10.3966811 C5.85650565,10.3773018 5.85707008,10.367918 5.85707008,10.3358152 C5.85707008,10.3358152 5.85688195,10.3358152 5.85667027,10.3358152 C5.84121863,10.3358152 5.82576698,10.3373674 5.81047995,10.3367795 C5.72868262,10.3334634 5.64728509,10.3309469 5.56647554,10.3262197 C5.55648018,10.3256317 5.54669647,10.3256317 5.53691278,10.3248321 C5.45629137,10.3201519 5.37625792,10.3150484 5.29660077,10.3087925 C5.29072113,10.3082045 5.28446522,10.3080164 5.27842096,10.3074049 C5.19699993,10.3009843 5.11637851,10.2939053 5.03613341,10.2860971 C5.02284546,10.2845449 5.009534,10.2833455 4.99643418,10.2821931 C4.91795295,10.2743379 4.8400832,10.2657536 4.76277791,10.2563227 C4.75061886,10.2549822 4.73810701,10.2536181 4.72599498,10.2520423 C4.64612616,10.2422587 4.56670419,10.2320516 4.48803482,10.221139 C4.48568297,10.2207157 4.48314297,10.2203629 4.48079113,10.2199396 C4.4015338,10.2086037 4.32286443,10.1968444 4.24499468,10.1843326 C4.23756283,10.182945 4.22973117,10.1817691 4.2222758,10.1806167 C4.14577013,10.1682694 4.07004057,10.1549815 3.99508711,10.1412467 C3.98393935,10.1393182 3.97300323,10.1373426 3.9620201,10.1351789 C3.88706664,10.121303 3.81291283,10.1068391 3.73932345,10.0915521 C3.73207976,10.0901645 3.72485958,10.0888475 3.71759236,10.0870601 C3.56458102,10.0551925 3.41488578,10.0207379 3.26888294,9.98393146 C3.26163925,9.98200295 3.25441907,9.98045073 3.24736352,9.97847517 C3.17652581,9.96045999 3.10648772,9.94169224 3.03739037,9.92252468 C3.02934704,9.9201258 3.02153891,9.91779745 3.01349558,9.91586893 C2.94326935,9.89587822 2.87358402,9.87553471 2.80509817,9.85481491 C2.8033578,9.85399176 2.80159391,9.85361546 2.79980651,9.85302751 C2.72838083,9.83110828 2.65813107,9.80860108 2.58884558,9.78550591 C2.58806947,9.78512961 2.58729336,9.78496498 2.58649372,9.7847298 C2.51937193,9.7622226 2.45363772,9.74714725 2.38865611,9.72367578 C2.38788,9.72329948 2.38689222,9.72367578 2.38592796,9.72367578 C2.38592796,9.72367578 2.38592796,9.72367578 2.38592796,9.72386392 C2.38317629,9.72487521 2.38044815,9.72739169 2.37809629,9.72757983 C2.37788462,9.72757983 2.37788462,9.72757983 2.37769649,9.72757983 C2.30175525,9.69900486 2.22701347,9.66965377 2.1538239,9.63976177 C2.15029612,9.63837418 2.14676835,9.6370101 2.14324057,9.63562251 C2.07085065,9.60568346 1.99961311,9.57517997 1.92995131,9.54401795 C1.92644705,9.54227758 1.92233133,9.54070185 1.91861539,9.53896147 C1.8489536,9.50763483 1.78065589,9.47553208 1.7139339,9.44286489 C1.71078242,9.4414773 1.70765446,9.43992509 1.70433835,9.43818471 C1.63488823,9.40391826 1.56717847,9.36908736 1.50142075,9.33369204 C1.50102094,9.33345685 1.50083278,9.33345685 1.50064465,9.33345685 C1.438791,9.2998254 1.3785366,9.2659823 1.31999906,9.23133953 C1.31609499,9.22898767 1.31197927,9.2268475 1.30807519,9.22449565 C1.18361531,9.15067109 1.06698707,9.07437709 0.958378647,8.99568418 C0.958166975,8.99568418 0.958166975,8.99568418 0.957978838,8.99549605 C0.526484959,8.68300578 0.224719113,8.33307405 0.0863597999,7.95833031 C0.0677801844,7.90844759 0.0521168634,7.85832966 0.0396050203,7.80785896 L7.04194663e-05,7.80785896 L7.04194663e-05,9.71194004 C7.04194663e-05,9.73421206 0.000846527483,9.75653112 0.00202244524,9.77906184 C0.00239888141,9.78639957 0.00301036324,9.79366677 0.00357479917,9.80091049 Z M0.00357479917,6.39279797 C0.00456257928,6.40803794 0.00573849703,6.42353664 0.00729071307,6.43896477 C0.00827849317,6.44681995 0.00905460119,6.45500439 0.0100188698,6.46302419 C0.011782758,6.47772324 0.0139464558,6.49256343 0.0160866422,6.50707435 C0.0172860944,6.5148825 0.0184620122,6.52269062 0.0200142282,6.53035766 C0.022742385,6.5465619 0.0258703285,6.56302484 0.0293981048,6.57904095 C0.0305740225,6.58492059 0.0315618026,6.59061206 0.0329023696,6.59625649 C0.0428977279,6.64127089 0.0551978989,6.68569732 0.0698969743,6.72974748 C0.0712610526,6.73402785 0.0728132687,6.73833174 0.0742008585,6.74265913 C0.080480303,6.76083894 0.0869243737,6.77904226 0.0939799262,6.79705741 C0.0957203028,6.8017376 0.097484191,6.80606499 0.0990599185,6.81036888 C0.106891579,6.82951293 0.114723239,6.84872754 0.123119336,6.86787161 C0.124107116,6.87022347 0.125283034,6.87259884 0.126458952,6.87513884 C0.5890678,7.91014087 2.28432813,8.74417736 4.49384395,9.05412763 L4.49384395,9.05412763 C4.49403209,9.05412763 4.49424376,9.05412763 4.49462006,9.05412763 C4.56155369,9.06348799 4.62926345,9.07230743 4.6973495,9.08072704 C4.71378892,9.0827026 4.73020484,9.08467814 4.74666778,9.08660668 C4.81416588,9.09483815 4.88168748,9.1026463 4.94979705,9.10970185 C4.95097297,9.10970185 4.95174908,9.11007815 4.95292502,9.11007815 C5.0218107,9.11715721 5.09149601,9.12381295 5.16153409,9.12988073 C5.17856149,9.13143294 5.19556536,9.13282053 5.21261627,9.13437275 C5.28206639,9.14020534 5.35175169,9.14570867 5.42181331,9.15041237 C5.42258942,9.15078867 5.42336553,9.15078867 5.42416517,9.15078867 C5.49502642,9.15570403 5.56624042,9.15979624 5.63785424,9.16374736 C5.65546959,9.16452347 5.67308496,9.16548774 5.69091197,9.16626385 C5.69187624,9.16645199 5.692864,9.16645199 5.69382827,9.16645199 C5.79832094,9.17195532 5.90361326,9.17585937 6.00949355,9.17936364 C6.23197854,8.30936737 6.6863559,7.53109325 7.30317554,6.91523787 C7.28988759,6.91601398 7.27676427,6.91721343 7.26347631,6.91780138 C7.25465687,6.9183423 7.24567281,6.91918897 7.23666523,6.91954176 C7.23567745,6.91954176 7.23468967,6.91954176 7.23391356,6.91954176 C7.20691431,6.92109397 7.17970342,6.92229342 7.15251603,6.92368101 C7.09849405,6.9265738 7.04449558,6.92932544 6.99009728,6.9316773 C6.97640952,6.93226527 6.9629099,6.93287675 6.94941027,6.93322952 C6.94743471,6.9334647 6.94548269,6.9334647 6.94374231,6.93365286 C6.94197842,6.93365286 6.9400264,6.93365286 6.93826251,6.93365286 C6.85900517,6.93678083 6.77955969,6.93910915 6.69952625,6.9406849 C6.68602662,6.94110825 6.67233886,6.94110825 6.6590274,6.94146101 C6.57292618,6.94301323 6.48682496,6.94402452 6.40011226,6.94402452 C6.31342307,6.94402452 6.22732185,6.94301323 6.14162046,6.94146101 C6.12790917,6.94127287 6.11440957,6.94108471 6.10093345,6.9406849 C6.01911261,6.93913269 5.93773859,6.93678083 5.85669385,6.93365286 C5.85278978,6.93346472 5.84886219,6.93322952 5.84495812,6.93322952 C5.83362219,6.93264155 5.82188648,6.93226525 5.81050351,6.9316773 C5.74907319,6.92932544 5.688419,6.92603287 5.62734144,6.92266972 C5.60720961,6.92151732 5.58665444,6.92092935 5.56649909,6.91972992 C5.56452353,6.91954178 5.56257151,6.91954178 5.56040781,6.91935362 C5.55259966,6.91876565 5.544768,6.91834233 5.53693634,6.9178014 C5.50993709,6.91624919 5.48369047,6.91408549 5.45671476,6.91229807 C5.40346888,6.90881734 5.34987022,6.90545419 5.296836,6.90117381 C5.29234398,6.90075047 5.28782842,6.90058584 5.28333637,6.90039771 C5.28176062,6.89997436 5.2801849,6.89997436 5.27844452,6.89997436 C5.23166623,6.89607029 5.18547591,6.89174289 5.1393091,6.88743901 C5.10485449,6.88431104 5.07042342,6.88160642 5.03615697,6.87807864 C5.03166495,6.8776553 5.02696123,6.87730253 5.02246921,6.87687919 C5.01367328,6.87610308 5.00506551,6.87513881 4.99645774,6.87417457 C4.91797651,6.8663194 4.84010676,6.85773514 4.76280147,6.84872756 C4.75692184,6.84795145 4.75104222,6.84717534 4.74518612,6.84656386 C4.73874205,6.84578775 4.73225096,6.84501165 4.72601854,6.844212 C4.64614972,6.83461645 4.56672775,6.82422129 4.48805838,6.81312054 C4.48728227,6.81312054 4.48629449,6.81288536 4.48533023,6.8126972 C4.48377801,6.8126972 4.48239042,6.81227386 4.4808382,6.81227386 C4.4438436,6.80681757 4.4074605,6.80093793 4.37105386,6.79545813 C4.35188628,6.79251832 4.3326952,6.7898137 4.31390392,6.78687387 C4.29099691,6.7833461 4.2677136,6.78021813 4.24501823,6.77631408 C4.23758638,6.77511463 4.22975472,6.7739152 4.22211122,6.7727863 C4.19882791,6.76888223 4.17613255,6.76474297 4.15301387,6.76083889 C4.10019132,6.75183132 4.04734525,6.74301188 3.994899,6.73346337 C3.9894192,6.73245208 3.98393937,6.73129967 3.97845957,6.73052357 C3.97300328,6.72932411 3.96749994,6.72835987 3.961832,6.7273956 C3.88687855,6.71347266 3.8127012,6.69900876 3.7393235,6.68393341 C3.73189165,6.6823812 3.72485963,6.68080545 3.71740427,6.67925323 C3.64108673,6.66340177 3.56535717,6.64672716 3.49040374,6.6295116 C3.41566195,6.61234309 3.34169628,6.59451607 3.2684832,6.57591294 C3.26145116,6.57436072 3.25439563,6.57243221 3.24736359,6.57062128 C3.17652588,6.55244147 3.10648779,6.53383834 3.03717879,6.51448262 C3.02934713,6.51250706 3.02132733,6.51015522 3.01330751,6.50782688 C2.94305775,6.4880243 2.87358412,6.46791598 2.80491011,6.44677285 C2.80314622,6.44634951 2.80157049,6.44576156 2.79961844,6.44517359 C2.72838092,6.42325436 2.657943,6.40098234 2.58865751,6.37769903 C2.5878814,6.37746385 2.58710529,6.37711106 2.58628214,6.37692293 C2.51934851,6.35441572 2.4536143,6.33132055 2.3886562,6.30782557 C2.38494029,6.30662612 2.38122435,6.30547371 2.37732028,6.3039215 L2.37772009,6.3039215 C2.33192958,6.28724688 2.28651537,6.27024302 2.24152447,6.25283932 C2.22781318,6.24754766 2.21412542,6.24204432 2.20041415,6.23675268 C2.1687112,6.22426435 2.13719643,6.21172899 2.10610497,6.1990055 C2.09142943,6.19312587 2.07694202,6.18705809 2.06226648,6.18099032 C2.02997559,6.16772588 1.99789636,6.15399108 1.96598174,6.14030331 C1.95502212,6.13543499 1.94368621,6.13051963 1.93272659,6.12583945 C1.88966421,6.10704816 1.84700166,6.08785706 1.80532688,6.06828969 C1.80238707,6.06713728 1.79925911,6.06558507 1.79610763,6.06400932 C1.75774897,6.04599414 1.71979009,6.02800249 1.68223105,6.0095875 C1.67164772,6.00453102 1.66146423,5.99902771 1.65090441,5.99392418 C1.62000111,5.9786842 1.58947409,5.96302088 1.55951153,5.94738107 C1.54932801,5.94227757 1.53916802,5.93682128 1.52898453,5.93148257 C1.49434178,5.91330276 1.46028701,5.89491131 1.42663202,5.87612002 C1.42272794,5.87395632 1.41880036,5.87179262 1.41468461,5.86946428 C1.37498538,5.84754505 1.33622691,5.82503785 1.29786823,5.80234248 C1.29688045,5.80175451 1.29589267,5.80095489 1.29471675,5.80036692 C1.25910974,5.77924731 1.22427885,5.75791603 1.18982424,5.73602031 C1.18356833,5.73206921 1.1773124,5.72816514 1.17103296,5.72426106 C1.14050596,5.70469367 1.11037874,5.68512627 1.08062785,5.66513555 C1.075736,5.66165482 1.07063249,5.65852686 1.06576415,5.65497557 C0.961271476,5.58413786 0.863410987,5.5113481 0.773005883,5.43618298 C0.769877917,5.43366649 0.766726439,5.43107947 0.763622006,5.42837483 C0.735258705,5.40466817 0.707647977,5.38100857 0.680672265,5.35671396 C0.679284675,5.35556156 0.677920596,5.35436211 0.676556518,5.35323323 C0.618254164,5.30078698 0.563244403,5.24754111 0.512185739,5.19351913 C0.484198736,5.16416804 0.457175978,5.13444066 0.431352672,5.10431347 C0.430176754,5.10276126 0.428601004,5.10118551 0.427236926,5.09963329 C0.426249145,5.0982457 0.425073228,5.09706978 0.42389731,5.09568219 C0.412561385,5.08241775 0.401601781,5.06908278 0.390430482,5.055395 C0.389442701,5.05419554 0.388666593,5.05304314 0.387702325,5.05203185 C0.384362709,5.04793963 0.381234743,5.04403556 0.378106776,5.04008444 C0.361879019,5.01974094 0.346215698,4.99939743 0.330952187,4.97903042 C0.330740515,4.97884228 0.330740515,4.97865412 0.330364216,4.97825431 C0.315288866,4.95791081 0.300613325,4.9375673 0.286337594,4.91684752 C0.281045929,4.90918049 0.275965937,4.9015605 0.270674273,4.89391698 C0.263265956,4.8827457 0.255998732,4.87140978 0.248755042,4.8602385 C0.242687269,4.85069 0.236807634,4.84125908 0.230951534,4.83189871 C0.22467209,4.82152705 0.21841618,4.81132002 0.212348407,4.80116004 C0.203952311,4.78688431 0.19612065,4.77258506 0.18828899,4.75830933 C0.186148803,4.75459342 0.183985106,4.75087748 0.181844919,4.74697341 C0.177164737,4.73834213 0.17264918,4.72933453 0.168157158,4.72075029 C0.16639327,4.71722252 0.164817543,4.71409455 0.163053655,4.71054326 C0.158561633,4.70153568 0.153857916,4.69252808 0.149365894,4.68354402 C0.145250147,4.67495976 0.141134424,4.66654015 0.137230349,4.65814403 C0.135842759,4.65539236 0.134690353,4.65245256 0.133514435,4.64951275 C0.1276348,4.63737721 0.122154998,4.62486536 0.116863334,4.61272982 C0.114511475,4.60706186 0.111971479,4.60155854 0.109619644,4.59589058 C0.103340199,4.58142671 0.0978839088,4.5665395 0.0924041067,4.5516758 C0.0902639203,4.54619599 0.0879120848,4.54031636 0.0857718984,4.53462489 C0.0833965285,4.52818082 0.0810682044,4.52150156 0.078928018,4.51486935 C0.073448216,4.4994177 0.0681565516,4.48396606 0.0634528576,4.46809106 C0.0613126712,4.46164699 0.059337111,4.45499125 0.0573850852,4.44852367 C0.0509410146,4.42721592 0.0450849143,4.40567296 0.0395815778,4.38396538 L4.69769548e-05,4.38396538 L4.69769548e-05,6.3038744 C4.69769548e-05,6.32656974 0.000823084972,6.34884176 0.00199900273,6.37116083 C0.00239888141,6.37871037 0.00301036324,6.3857189 0.00357479917,6.39279797 Z" id="形状"></path>
            </g>
            <path d="M12.783678,8.11179897 C15.1518966,8.11179897 17.071594,10.0314963 17.071594,12.3997385 C17.071594,13.3820826 16.7412767,14.2867687 16.1857227,15.0098213 L17.9420371,16.7653361 C18.0312663,16.8547769 18.0158146,17.0148673 17.9075825,17.1230289 L17.1228878,17.9075354 C17.0148909,18.0157676 16.8545888,18.0312427 16.7655713,17.94199 L14.9337155,16.1103459 C14.3016324,16.4774461 13.5671967,16.6876545 12.783678,16.6876545 C10.4154593,16.6876545 8.49576198,14.7679101 8.49576198,12.399715 C8.49576198,10.0314728 10.4154594,8.11179897 12.783678,8.11179897 Z M12.783678,9.11093529 C10.9674855,9.11093529 9.49492184,10.5833344 9.49492184,12.399715 C9.49492184,14.2161191 10.9674855,15.6884476 12.783678,15.6884476 C14.5998704,15.6884476 16.0724341,14.2161191 16.0724341,12.399715 C16.0724341,10.5833108 14.5998704,9.11093529 12.783678,9.11093529 Z" id="形状结合" fill="#57689C" fill-rule="nonzero" opacity="0.55"></path>
        </g>
    </g>
</svg>