<?xml version="1.0" encoding="UTF-8"?>
<svg width="20px" height="20px" viewBox="0 0 20 20" version="1.1" xmlns="http://www.w3.org/2000/svg" xmlns:xlink="http://www.w3.org/1999/xlink">
    <title>databases-second-menu</title>
    <g id="databases-second-menu" stroke="none" stroke-width="1" fill="none" fill-rule="evenodd">
        <g id="图形">
            <rect id="矩形备份-4" x="0" y="0" width="20" height="20"></rect>
            <g id="编组" transform="translate(3.000000, 2.000000)" fill="#57689C">
                <path d="M7.14250286,0 C9.24728,0 11.1104,0.428457143 12.4156571,1.08108571 C13.7722286,1.75938286 14.2850286,2.53785143 14.2850286,3.14285714 C14.2850286,3.74786286 13.7722286,4.52633143 12.4156571,5.20462857 C11.1104,5.85725714 9.24728,6.28571429 7.14250286,6.28571429 C5.03772571,6.28571429 3.17458286,5.85725714 1.86933714,5.20462857 C0.512742857,4.52633143 0,3.74786286 0,3.14285714 C0,2.53785143 0.512742857,1.75938286 1.86933714,1.08108571 C3.17458286,0.428457143 5.03772571,0 7.14250286,0 Z M10.4218399,1.93221341 C10.272079,1.84986402 10.0906307,1.84971367 9.94073346,1.93181476 L9.2720941,2.29803922 C9.18708049,2.34460253 9.13422368,2.43381893 9.13422368,2.53074909 C9.13422368,2.67728644 9.25301567,2.79607843 9.39955302,2.79607843 L9.72635815,2.79607843 C9.72635815,3.62352941 8.50363721,4.29568627 7.00077387,4.29568627 C6.55337677,4.29639368 6.11387605,4.23597348 5.728525,4.12078431 C5.34317394,4.00559515 4.49567466,4.2842349 5.06299334,4.48627451 C5.63031203,4.68831412 6.30583352,4.79776806 6.99922613,4.8 C9.00820306,4.8 10.636434,3.90509804 10.636434,2.8 L10.9622958,2.8 C11.0594907,2.8 11.1489769,2.74708341 11.1958086,2.66191512 C11.2667232,2.53294953 11.2196636,2.37091461 11.090698,2.3 Z M6.99922613,0.8 C4.99024919,0.8 3.36201826,1.69490196 3.36201826,2.8 L3.03702618,2.8 C2.93985665,2.8 2.85038802,2.85288444 2.80353794,2.93801367 C2.7325704,3.06696567 2.7795761,3.22903247 2.90852809,3.3 L3.57608483,3.66738365 C3.72613001,3.74995963 3.90800034,3.74999232 4.05807521,3.6674703 L4.72635815,3.3 C4.81152644,3.25316831 4.86444303,3.16368202 4.86444303,3.06648714 C4.86444303,2.91931036 4.74513267,2.8 4.59795589,2.8 L4.2720941,2.8 C4.2720941,1.97647059 5.49945829,1.30039216 6.99922613,1.30431373 C7.44662323,1.30360632 7.88612395,1.36402652 8.271475,1.47921569 C8.65682606,1.59440485 9.50277759,1.3157651 8.93545891,1.11372549 C8.36814023,0.911685882 7.69261873,0.802231939 6.99922613,0.8 Z" id="形状结合"></path>
                <path d="M14.2857143,5.88284571 C14.0076571,6.21485714 13.6466286,6.50595429 13.1826286,6.73793143 C11.5926857,7.53293714 9.45611429,7.99994286 7.14285714,7.99998857 C4.82964571,7.99994286 2.69305143,7.53293714 1.10304,6.73793143 C0.639085714,6.50595429 0.278034286,6.21485714 0,5.88284571 L0,8.28570286 L0.000354285714,8.28570286 C0.000354285714,8.89070857 0.513097143,9.66917714 1.86969143,10.3475429 C3.17493714,11.0001143 5.03808,11.4285714 7.14285714,11.4285714 C9.24763429,11.4285714 11.1107429,11.0001143 12.416,10.3475429 C13.7725714,9.66917714 14.2853714,8.89070857 14.2853714,8.28570286 L14.2857143,8.28570286 L14.2857143,5.88284571 Z M0,12.9403429 L0,11.0257143 C0.278034286,11.3577143 0.639085714,11.6488 1.10304,11.8808 C2.69305143,12.6757714 4.82964571,13.1428571 7.14285714,13.1428571 C9.45611429,13.1428571 11.5926857,12.6757714 13.1826286,11.8808 C13.6466286,11.6488 14.0076571,11.3577143 14.2857143,11.0257143 L14.2857143,12.9403429 L14.2740571,13.0230857 C14.1891429,13.6244571 13.5874286,14.3737143 12.2444571,15.0020571 C10.9483429,15.6084571 9.15483429,16 7.14285714,16 C5.13088,16 3.33736,15.6084571 2.04121143,15.0020571 C0.698308571,14.3737143 0.0965714286,13.6244571 0.01168,13.0230857 L0,12.9403429 Z" id="形状" opacity="0.55"></path>
            </g>
        </g>
    </g>
</svg>