<?xml version="1.0" encoding="UTF-8"?>
<svg width="20px" height="20px" viewBox="0 0 20 20" version="1.1" xmlns="http://www.w3.org/2000/svg" xmlns:xlink="http://www.w3.org/1999/xlink">
    <title>type-of-data-second-menu</title>
    <g id="type-of-data-second-menu" stroke="none" stroke-width="1" fill="none" fill-rule="evenodd">
        <rect id="矩形" fill="#000000" opacity="0" x="0" y="0" width="20" height="20"></rect>
        <path d="M10.725,2 L16.866,8.073 L16.8667033,9.22034148 C16.1696907,8.93701114 15.4073869,8.780928 14.608628,8.780928 C11.2949195,8.780928 8.60862796,11.4672195 8.60862796,14.780928 C8.60862796,15.9660273 8.95221281,17.070878 9.54520412,18.0013018 L4.10000002,18 C3.49248679,18 3,17.5075132 3,16.9 L3,3.1008097 C3,2.49329646 3.49248679,2.00080967 4.10000002,2.00080967 L10.725,2 Z M8.44201802,9.03906862 L4.8,9.03906862 L4.8,10.0390686 L8.44201802,10.0390686 L8.44201802,9.03906862 Z M11,6.03906862 L4.8,6.03906862 L4.8,7.03906862 L11,7.03906862 L11,6.03906862 Z" id="形状结合" fill="#57689C"></path>
        <g id="图形" opacity="0.550000012" transform="translate(11.000000, 10.500000)" fill="#57689C">
            <path d="M7.14285714,5.51285714 L7.14285714,6.47017143 L7.13702857,6.51154286 C7.09457143,6.81222857 6.79371429,7.18685714 6.12222857,7.50102857 C5.47417143,7.80422857 4.57741714,8 3.57142857,8 C2.56544,8 1.66868,7.80422857 1.02060571,7.50102857 C0.349154286,7.18685714 0.0482857143,6.81222857 0.00584,6.51154286 L0,6.47017143 L0,5.51285714 C0.139017143,5.67885714 0.319542857,5.8244 0.55152,5.9404 C1.34652571,6.33788571 2.41482286,6.57142857 3.57142857,6.57142857 C4.72805714,6.57142857 5.79634286,6.33788571 6.59131429,5.9404 C6.82331429,5.8244 7.00382857,5.67885714 7.14285714,5.51285714 Z M7.14285714,2.94142286 L7.14285714,4.14285143 L7.13724828,4.22020489 C7.09702262,4.50987909 6.8297619,4.86285381 6.208,5.17377143 C5.55537143,5.50005714 4.62381714,5.71428571 3.57142857,5.71428571 C2.51904,5.71428571 1.58746857,5.50005714 0.934845714,5.17377143 C0.256548571,4.83458857 0.000177142857,4.44535429 0.000177142857,4.14285143 L0,2.94142286 C0.139017143,3.10742857 0.319542857,3.25297714 0.55152,3.36896571 C1.34652571,3.76646857 2.41482286,3.99997143 3.57142857,3.99999429 C4.72805714,3.99997143 5.79634286,3.76646857 6.59131429,3.36896571 C6.82331429,3.25297714 7.00382857,3.10742857 7.14285714,2.94142286 Z M3.57125143,0 C4.62364,0 5.5552,0.214228571 6.20782857,0.540542857 C6.88611429,0.879691429 7.14251429,1.26892571 7.14251429,1.57142857 C7.14251429,1.87393143 6.88611429,2.26316571 6.20782857,2.60231429 C5.5552,2.92862857 4.62364,3.14285714 3.57125143,3.14285714 C2.51886286,3.14285714 1.58729143,2.92862857 0.934668571,2.60231429 C0.256371429,2.26316571 0,1.87393143 0,1.57142857 C0,1.26892571 0.256371429,0.879691429 0.934668571,0.540542857 C1.58729143,0.214228571 2.51886286,0 3.57125143,0 Z" id="形状结合"></path>
        </g>
    </g>
</svg>