<?xml version="1.0" encoding="UTF-8"?>
<svg width="20px" height="20px" viewBox="0 0 20 20" version="1.1" xmlns="http://www.w3.org/2000/svg" xmlns:xlink="http://www.w3.org/1999/xlink">
    <title>data-model-second-menu</title>
    <g id="data-model-second-menu" stroke="none" stroke-width="1" fill="none" fill-rule="evenodd">
        <rect id="矩形" fill-opacity="0" fill="#D8D8D8" x="0" y="0" width="20" height="20"></rect>
        <g id="编组备份" transform="translate(2.300000, 1.954701)">
            <path d="M12,8 C9.790861,8 8,9.790861 8,12 C8,13.0153928 8.37834147,13.9424192 9.00174235,14.6477972 L7.42820323,15.5566243 C7.11880215,15.7352571 6.73760431,15.7352571 6.42820323,15.5566243 L0.5,12.1339746 C0.190598923,11.9553418 7.59836638e-13,11.6252148 7.59392549e-13,11.2679492 L7.5850437e-13,4.42264973 C7.59170504e-13,4.06538414 0.190598923,3.73525712 0.5,3.55662433 L6.42820323,0.133974596 C6.73760431,-0.0446581987 7.11880215,-0.0446581987 7.42820323,0.133974596 L13.3564065,3.55662433 C13.6658075,3.73525712 13.8564065,4.06538414 13.8564065,4.42264973 L13.856914,8.45622011 L13.6862991,8.37177008 C13.1738733,8.13320454 12.6024925,8 12,8 Z M9.45702603,4.84529946 L6.42820323,6.57629946 L3.39938043,4.84529946 L2.92820323,5.6530318 L5.95720323,7.38429946 L5.95702603,10.8452995 L6.89938043,10.8452995 L6.90020323,7.38429946 L9.92820323,5.6530318 L9.45702603,4.84529946 Z" id="形状结合" fill="#9FAECF"></path>
            <path d="M12,8 C14.209139,8 16,9.790861 16,12 C16,14.209139 14.209139,16 12,16 C9.790861,16 8,14.209139 8,12 C8,9.790861 9.790861,8 12,8 Z M12.5905333,10.6399975 L10.62213,12.5123811 L10.1660366,12.9204647 C10.1420317,12.9204647 10.1180268,12.9684745 10.1180268,13.0164844 L10.1180268,13.0404893 L9.70994316,14.2647401 C9.68593824,14.3127499 9.70994316,14.3367549 9.73394808,14.3607598 C9.757953,14.3847647 9.80596283,14.3847647 9.82996775,14.3847647 L11.0782235,14.000686 L11.1022284,14.000686 C11.1502382,14.000686 11.1742431,13.9526762 11.1982481,13.9526762 L13.5987398,11.6241992 L12.5905333,10.6399975 Z M13.4787152,10.0638795 C13.3826956,9.96785984 13.2146611,9.99186476 13.0946366,10.0878844 L12.7345628,10.4479582 L13.7427693,11.4321598 L14.1028431,11.0720861 C14.2228677,10.9760664 14.2228677,10.808032 14.1508529,10.7120123 Z" id="形状结合" fill="#57689C"></path>
        </g>
    </g>
</svg>