<?xml version="1.0" encoding="UTF-8"?>
<svg width="20px" height="20px" viewBox="0 0 20 20" version="1.1" xmlns="http://www.w3.org/2000/svg" xmlns:xlink="http://www.w3.org/1999/xlink">
    <title>deliver-observables-second-menu</title>
    <g id="deliver-observables-second-menu" stroke="none" stroke-width="1" fill="none" fill-rule="evenodd">
        <g id="编组" transform="translate(1.2498, 1.25)" fill="#57689C">
            <path d="M11.2743377,13.75 L11.7396971,15.0883564 L12.4725925,17.1961359 C12.5504297,17.419993 12.4582073,17.6751881 12.2666078,17.76613 C12.2218452,17.7873764 12.1739864,17.7983009 12.125671,17.7983009 L5.37468306,17.7983009 C5.16787641,17.7983009 5.00022649,17.6024255 5.00022649,17.3608009 C5.00022649,17.3043511 5.00957675,17.2484348 5.02776156,17.1961359 L6.20806722,13.8016211 L6.20806722,13.8016211" id="路径备份-8" opacity="0.55"></path>
            <path d="M17.5,11.768 L17.5002265,12.7415385 C17.5002265,13.1391835 17.1778715,13.4615385 16.7802265,13.4615385 L0.720226487,13.4615385 C0.322581467,13.4615385 0.000226487196,13.1391835 0.000226487196,12.7415385 L0,11.768 L17.5,11.768 Z M16.7802265,-1.11022302e-16 C17.1778715,-1.84068508e-16 17.5002265,0.32235498 17.5002265,0.72 L17.5,10.768 L0,10.768 L0.000226487196,0.72 C0.000226487196,0.32235498 0.322581467,-2.60020702e-16 0.720226487,-3.33066907e-16 L16.7802265,-1.11022302e-16 Z M8.44823989,2.37205414 C8.31756433,1.87838916 7.61806795,1.87510189 7.48275832,2.36751688 L6.57622649,5.667 L6.49853904,5.45132087 C6.42724648,5.25272025 6.23895081,5.1202533 6.02794172,5.1202533 L3.75022649,5.1202533 C3.47408411,5.1202533 3.25022649,5.34411093 3.25022649,5.6202533 L3.25828216,5.71012893 C3.30061812,5.94337814 3.5047666,6.1202533 3.75022649,6.1202533 L5.67622649,6.12 L6.16881434,7.49256568 L6.20808689,7.57803428 C6.41922989,7.94683112 7.00077798,7.89559195 7.1215405,7.45611636 L7.95522649,4.419 L9.13594034,8.87794586 L9.16929554,8.97007313 C9.35717905,9.36952796 9.97433195,9.34224925 10.1012198,8.88321631 L11.1102265,5.229 L11.4174935,5.84756054 C11.5019807,6.0175273 11.6754215,6.125 11.8652287,6.125 L13.7502265,6.125 C14.0263689,6.125 14.2502265,5.90114237 14.2502265,5.625 L14.2421708,5.53512437 C14.1998349,5.30187516 13.9956864,5.125 13.7502265,5.125 L12.1742265,5.125 L11.4247733,3.61562579 L11.3788783,3.53970204 C11.1423023,3.21432205 10.6091734,3.29233601 10.4951113,3.70497002 L9.62922649,6.835 Z" id="形状结合"></path>
        </g>
    </g>
</svg>