<?xml version="1.0" encoding="UTF-8"?>
<svg width="16px" height="15px" viewBox="0 0 16 15" version="1.1" xmlns="http://www.w3.org/2000/svg" xmlns:xlink="http://www.w3.org/1999/xlink">
    <title>device-password-change-second-menu</title>
    <g id="控件" stroke="none" stroke-width="1" fill="none" fill-rule="evenodd">
        <g id="2.导航/7.Slide-Menu侧边菜单/亮色/收起" transform="translate(-20.000000, -23.000000)">
            <g id="小产品图标项" transform="translate(12.000000, 4.000000)">
                <g id="device-password-change-second-menu" transform="translate(6.000000, 16.000000)">
                    <polygon id="矩形备份-14" points="0 0 20 0 20 20 13.6025995 20 0 20"></polygon>
                    <g id="图形" transform="translate(2.000000, 3.000000)" fill="#57689C">
                        <path d="M12.6311111,0 C13.0444444,0 13.4044444,0.294693457 13.4977778,0.714408381 L16,10.5555556 L9.09494702e-13,10.5555556 L2.57777778,0.714408381 C2.66666667,0.299158509 3.02666667,0 3.44444444,0 L12.6311111,0 Z M9.91821874,2.11665165 L9.16350916,2.77271067 L9.70325359,3.39398638 L9.31533286,3.73120072 L8.77595559,3.10960585 L8.02124601,3.76566488 L8.56062328,4.38725975 L7.38489248,5.40910369 C6.80874936,5.00608367 5.99693046,5.04040346 5.42520209,5.53739936 C4.75491916,6.12006742 4.66845714,7.11802763 5.23208376,7.76640588 C5.79571038,8.41478414 6.7959917,8.46805278 7.46627462,7.88538472 C7.96027794,7.45595418 8.13716168,6.80094544 7.97039705,6.22655841 L10.7882008,3.77658796 L11.1281771,3.50000572 L10.938755,3.29064433 L9.91821874,2.11665165 Z M5.90545445,6.0898665 C6.26031011,5.78139518 6.78987081,5.80959622 7.08826138,6.1528553 C7.38665194,6.49611437 7.34087793,7.02444625 6.98602226,7.33291758 C6.63116659,7.6413889 6.1016059,7.61318786 5.80321533,7.26992878 C5.50482477,6.9266697 5.55059878,6.39833783 5.90545445,6.0898665 Z" id="形状结合" opacity="0.550000012"></path>
                        <path d="M16,10.5555556 L16,14.1111111 C16,14.6 15.6044444,15 15.1111111,15 L0.888888889,15 C0.4,15 0,14.6 0,14.1111111 L0,10.5555556 L16,10.5555556 Z M11,12.3 L3,12.3 L3,13.3 L11,13.3 L11,12.3 Z M13,12.3 L12,12.3 L12,13.3 L13,13.3 L13,12.3 Z" id="形状结合" fill-rule="nonzero"></path>
                    </g>
                </g>
            </g>
        </g>
    </g>
</svg>