<?xml version="1.0" encoding="UTF-8"?>
<svg width="20px" height="20px" viewBox="0 0 20 20" version="1.1" xmlns="http://www.w3.org/2000/svg" xmlns:xlink="http://www.w3.org/1999/xlink">
    <title>digital-architecture-management-second-menu</title>
    <g id="digital-architecture-management-second-menu" stroke="none" stroke-width="1" fill="none" fill-rule="evenodd">
        <g transform="translate(2.000000, 3.000000)" fill="#57689C" id="架构拓扑">
            <path d="M7.99972,0 C9.38043187,0 10.49972,1.12869391 10.49972,2.5210084 C10.49972,3.9133229 9.38043187,5.04201681 7.99972,5.04201681 C6.61900813,5.04201681 5.49972,3.9133229 5.49972,2.5210084 C5.49972,1.12869391 6.61900813,0 7.99972,0 Z" id="矩形"></path>
            <path d="M9.16548294,3.79026693 C9.48770456,3.59530932 9.90564414,3.70067223 10.0989771,4.0256016 L13.0942866,9.0597352 C13.2876196,9.38466457 13.1831347,9.80611624 12.8609131,10.0010739 C12.5386914,10.1960315 12.1207519,10.0906686 11.9274189,9.7657392 L8.9321094,4.73160559 C8.73877643,4.40667623 8.84326132,3.98522455 9.16548294,3.79026693 Z M11.0855622,11.2289225 C11.4613339,11.2289225 11.7659571,11.5361056 11.7659571,11.9150351 C11.7659571,12.2939646 11.4613339,12.6011477 11.0855622,12.6011477 L4.88240371,12.6011477 C4.50663196,12.6011477 4.20200876,12.2939646 4.20200876,11.9150351 C4.20200876,11.5361056 4.50663196,11.2289225 4.88240371,11.2289225 L11.0855622,11.2289225 Z M5.91341387,4.00383524 C6.10674684,3.67890588 6.52468642,3.57354296 6.84690804,3.76850058 C7.16912966,3.9634582 7.27361456,4.38490987 7.08028158,4.70983924 L3.88122845,10.0863991 C3.68789547,10.4113285 3.2699559,10.5166914 2.94773428,10.3217338 C2.62551266,10.1267762 2.52102776,9.7053245 2.71436074,9.38039513 L5.91341387,4.00383524 Z" id="形状" opacity="0.55"></path>
            <path d="M2.5,9.07563025 C3.88071187,9.07563025 5,10.2043242 5,11.5966387 C5,12.9889532 3.88071187,14.1176471 2.5,14.1176471 C1.11928813,14.1176471 0,12.9889532 0,11.5966387 C0,10.2043242 1.11928813,9.07563025 2.5,9.07563025 Z" id="矩形备份"></path>
            <path d="M13.5,9.07563025 C14.8807119,9.07563025 16,10.2043242 16,11.5966387 C16,12.9889532 14.8807119,14.1176471 13.5,14.1176471 C12.1192881,14.1176471 11,12.9889532 11,11.5966387 C11,10.2043242 12.1192881,9.07563025 13.5,9.07563025 Z" id="矩形备份-2"></path>
        </g>
    </g>
</svg>