<?xml version="1.0" encoding="UTF-8"?>
<svg width="20px" height="20px" viewBox="0 0 20 20" version="1.1" xmlns="http://www.w3.org/2000/svg" xmlns:xlink="http://www.w3.org/1999/xlink">
    <title>easyhub-second-menu</title>
    <g id="easyhub-second-menu" stroke="none" stroke-width="1" fill="none" fill-rule="evenodd">
        <path d="M5.87823891,2.00008822 C6.14213034,2.73931482 6.60317703,3.38630505 7.19881113,3.87909937 L7.40205974,4.0374253 C8.12774486,4.56919013 9.02565112,4.88362575 9.99771877,4.88362575 C10.9656514,4.88362575 11.8600522,4.57185959 12.5841075,4.04419971 C13.2132875,3.58546308 13.7132942,2.9646729 14.0216124,2.24394591 L14.1171986,2.00008822 L14.7586384,2 C16.251957,2 17.4625309,3.19880441 17.4625309,4.67760459 L17.4625309,9.8490566 L17.7673815,14.0754717 L17.7673815,15.3223954 C17.7673815,16.8011956 16.5568076,18 15.0634891,18 L4.92389244,18 C3.43057388,18 2.22,16.8011956 2.22,15.3223954 L2.22,14.0754717 L2.52485062,9.8490566 L2.52485062,4.67760459 C2.52485062,3.19880441 3.7354245,2 5.22874305,2 L5.87823891,2.00008822 Z M11.5618805,11.6867559 C11.1935846,11.6867559 10.8949403,11.9861944 10.8949403,12.3556048 L10.8949403,12.8434106 C10.8949403,13.3274635 10.5022604,13.7212673 10.0195285,13.7212673 C9.53679657,13.7212673 9.14411666,13.3274635 9.14411666,12.8434106 L9.14411666,12.3556048 C9.14411666,11.9861944 8.84547232,11.6867559 8.47717649,11.6867559 C8.1088203,11.6867559 7.81023631,11.9861944 7.81023631,12.3556048 L7.81023631,12.8434106 C7.81023631,14.0651343 8.80129132,15.0590257 10.0195285,15.0590257 C11.2377657,15.0590257 12.2288206,14.0651343 12.2288206,12.8434106 L12.2288206,12.3556048 C12.2288206,11.9861944 11.9302367,11.6867559 11.5618805,11.6867559 Z M11.5535694,7.02050861 C11.1861185,7.02050861 10.8881985,7.31928131 10.8881985,7.68784431 C10.8881985,7.86531626 10.9577896,8.02626372 11.0704753,8.14580911 C11.2005437,8.34876391 11.2795505,8.59560246 11.2795505,8.88136136 C11.2795505,9.16621231 11.2009059,9.35869554 11.0716221,9.56007657 C10.9903821,9.61721624 10.9197046,9.68821713 10.8630298,9.76987117 C10.657757,9.89807227 10.3017136,9.9759735 10.0195466,9.9759735 C9.73478426,9.9759735 9.37789581,9.89680115 9.17358879,9.76660259 C9.1172761,9.68634072 9.04756425,9.61642936 8.96747107,9.56007657 C8.83812692,9.35869554 8.75954268,9.16621231 8.75954268,8.88136136 C8.75954268,8.59560246 8.83854944,8.34876391 8.96855749,8.14580911 C9.08124322,8.02626372 9.15083435,7.86531626 9.15083435,7.68784431 C9.15083435,7.31928131 8.85297464,7.02050861 8.48546345,7.02050861 C8.11795225,7.02050861 7.82009254,7.31928131 7.82009254,7.68784431 C7.82009254,7.86634526 7.89040795,8.02807959 8.00424046,8.14780658 C8.13243783,8.34967185 8.20951318,8.59832628 8.20951318,8.88136136 C8.20951318,9.16252003 8.13304139,9.35694019 8.00587009,9.55644481 C7.92336264,9.61358448 7.85177974,9.68513013 7.79419957,9.76745 C7.59339323,9.89716433 7.40145931,9.9759735 7.11742126,9.9759735 C6.83247786,9.9759735 6.58634373,9.89674062 6.38396813,9.76636048 C6.26476388,9.65329171 6.10427575,9.58350141 5.9272499,9.58350141 C5.55979906,9.58350141 5.26187899,9.88227411 5.26187899,10.2507766 C5.26187899,10.6193396 5.55979906,10.9181123 5.9272499,10.9181123 C6.10530181,10.9181123 6.26657458,10.8475956 6.38595989,10.7333768 C6.58724908,10.6048125 6.83513354,10.5275166 7.11742126,10.5275166 C7.39777756,10.5275166 7.59164289,10.6042073 7.79051782,10.7317425 C7.94261639,10.9524929 8.1964158,11.0974001 8.48419596,11.0974001 C8.77040686,11.0974001 9.02287842,10.9540062 9.17521842,10.7353743 C9.37880114,10.6055389 9.73581032,10.5275166 10.0195466,10.5275166 C10.3012911,10.5275166 10.658421,10.6048731 10.8625469,10.7335584 C11.0147662,10.9532798 11.2679017,11.0974001 11.5548369,11.0974001 C11.842617,11.0974001 12.0964164,10.9524929 12.248515,10.7317425 C12.4473899,10.6042073 12.6413156,10.5275166 12.9216719,10.5275166 C13.2038993,10.5275166 13.4518441,10.6048125 13.6530729,10.7333768 C13.7724582,10.8475956 13.9337914,10.9181123 14.1117829,10.9181123 C14.4792337,10.9181123 14.7771538,10.6193396 14.7771538,10.2507766 C14.7771538,9.88227411 14.4792337,9.58350141 14.1117829,9.58350141 C13.9347571,9.58350141 13.7743293,9.65329171 13.6551251,9.76636048 C13.4527495,9.89674062 13.206555,9.9759735 12.9216719,9.9759735 C12.6375735,9.9759735 12.4457,9.89716433 12.2448333,9.76745 C12.1872531,9.68513013 12.1156702,9.61358448 12.0332231,9.55644481 C11.9059914,9.35694019 11.8295196,9.16252003 11.8295196,8.88136136 C11.8295196,8.59832628 11.906595,8.34967185 12.0347924,8.14780658 C12.1486249,8.02807959 12.2189403,7.86634526 12.2189403,7.68784431 C12.2189403,7.31928131 11.9210806,7.02050861 11.5535694,7.02050861 Z M13.4931327,2.00021195 C13.2850614,2.49416721 12.973332,2.93460094 12.5848556,3.29486381 C11.9081327,3.9225012 10.9982538,4.30687278 9.99771877,4.30687278 C8.99308582,4.30687278 8.07985314,3.91934619 7.40213917,3.28701027 C7.0726671,2.97965173 6.7986877,2.61413363 6.59703007,2.20710779 L6.50230489,2.00021195 L13.4931327,2.00021195 Z" id="形状结合" fill="#57689C" fill-rule="nonzero"></path>
    </g>
</svg>