<?xml version="1.0" encoding="UTF-8"?>
<svg width="20px" height="20px" viewBox="0 0 20 20" version="1.1" xmlns="http://www.w3.org/2000/svg" xmlns:xlink="http://www.w3.org/1999/xlink">
    <title>easyhub-online-approval-second-menu</title>
    <g id="easyhub-online-approval-second-menu" stroke="none" stroke-width="1" fill="none" fill-rule="evenodd">
        <path d="M11.815049,6.83290582 C12.3346104,6.83290582 12.7557982,7.25409359 12.7557982,7.77365503 C12.7557982,8.29321647 12.3346104,8.71440423 11.815049,8.71440423 L7.0198629,8.71440423 C5.84863117,8.71440423 4.89916025,9.66387515 4.89916025,10.8351069 C4.89916025,12.0063386 5.84863117,12.9558095 7.0198629,12.9558095 L11.0939404,12.9551135 C10.7601884,13.6087747 10.5715547,14.351603 10.5715547,15.1393016 C10.5715547,16.2141735 10.9228018,17.2054942 11.5147265,18.0007096 L4.72738689,18 L4.56189098,17.9949059 C3.13815643,17.9070362 2,16.6935497 2,15.2222646 L2,4.77773545 L2.00500248,4.60920012 C2.09129177,3.15930853 3.28294601,2 4.72738689,2 L13.900569,2 L14.0660294,2.00509543 C15.4894671,2.09298792 16.6276235,3.30677641 16.6276235,4.77773545 L16.6275027,10.6173333 C16.1851493,10.475206 15.7142615,10.3985608 15.2257985,10.3985608 C13.9570894,10.3985608 12.806815,10.9157599 11.9672008,11.7544823 L7.0198629,11.7558095 C6.51137287,11.7558095 6.09916025,11.3435969 6.09916025,10.8351069 C6.09916025,10.3266168 6.51137287,9.91440423 7.0198629,9.91440423 L11.815049,9.91440423 C12.9973521,9.91440423 13.9557982,8.95595817 13.9557982,7.77365503 C13.9557982,6.59135189 12.9973521,5.63290582 11.815049,5.63290582 L7.95461466,5.63234765 C7.79066805,4.98166253 7.20158318,4.5 6.5,4.5 C5.67157288,4.5 5,5.17157288 5,6 C5,6.82842712 5.67157288,7.5 6.5,7.5 C7.01994244,7.5 7.47809773,7.23545773 7.74721147,6.83362759 L11.815049,6.83290582 Z" id="形状结合" fill="#57689C"></path>
        <polygon id="Clip-10" points="10.5715547 10.3985608 19.8799426 10.3985608 19.8799426 19.8800423 10.5715547 19.8800423"></polygon>
        <path d="M14.0624702,13.5406561 C14.0624702,14.0377566 14.3636663,14.4617143 14.7895296,14.6374603 L14.7895296,14.6374603 L14.7895296,15.1301587 L13.6685217,15.1301587 C13.365331,15.1301587 13.1173263,15.3831111 13.1173263,15.6915979 L13.1173263,15.6915979 L13.1173263,16.4948148 C13.1173263,16.8036402 13.365331,17.056254 13.6685217,17.056254 L13.6685217,17.056254 L16.7832082,17.056254 C17.086399,17.056254 17.3344037,16.8036402 17.3344037,16.4948148 L17.3344037,16.4948148 L17.3344037,15.6915979 C17.3344037,15.3831111 17.086399,15.1301587 16.7832082,15.1301587 L16.7832082,15.1301587 L15.6622003,15.1301587 L15.6622003,14.6374603 C16.0880637,14.4617143 16.3889273,14.0377566 16.3889273,13.5406561 L16.3889273,13.5406561 C16.3889273,12.8864339 15.8683169,12.3558095 15.2260312,12.3558095 L15.2260312,12.3558095 C14.5830807,12.3558095 14.0624702,12.8864339 14.0624702,13.5406561" id="Clip-12" fill="#57689C"></path>
    </g>
</svg>