<?xml version="1.0" encoding="UTF-8"?>
<svg width="20px" height="20px" viewBox="0 0 20 20" version="1.1" xmlns="http://www.w3.org/2000/svg" xmlns:xlink="http://www.w3.org/1999/xlink">
    <title>environmental-management-second-menu</title>
    <g id="environmental-management-second-menu" stroke="none" stroke-width="1" fill="none" fill-rule="evenodd">
        <rect id="矩形" fill="#000000" opacity="0" x="0" y="0" width="20" height="20"></rect>
        <g id="编组" transform="translate(2, 3)" fill="#57689C">
            <path d="M15,7.75384615 C15.5522847,7.75384615 16,8.2015614 16,8.75384615 L16.0005166,10.7581204 C15.2853652,10.2792703 14.4252961,10 13.5,10 C11.0485479,10 9.05493532,11.9602438 9.00111598,14.3987776 L1,14.4 C0.44771525,14.4 6.76353751e-17,13.9522847 0,13.4 L0,8.75384615 C-6.76353751e-17,8.2015614 0.44771525,7.75384615 1,7.75384615 L15,7.75384615 Z M4.8,10.4 L3.2,10.4 C2.7581722,10.4 2.4,10.7581722 2.4,11.2 C2.4,11.6418278 2.7581722,12 3.2,12 L4.8,12 C5.2418278,12 5.6,11.6418278 5.6,11.2 C5.6,10.7581722 5.2418278,10.4 4.8,10.4 Z M15,0 C15.5522847,-1.08250786e-15 16,0.44771525 16,1 L16,5.64615385 C16,6.1984386 15.5522847,6.64615385 15,6.64615385 L1,6.64615385 C0.44771525,6.64615385 6.76353751e-17,6.1984386 0,5.64615385 L0,1 C-6.76353751e-17,0.44771525 0.44771525,1.01453063e-16 1,0 L15,0 Z M4.8,2.8 L3.2,2.8 C2.7581722,2.8 2.4,3.1581722 2.4,3.6 C2.4,4.0418278 2.7581722,4.4 3.2,4.4 L4.8,4.4 C5.2418278,4.4 5.6,4.0418278 5.6,3.6 C5.6,3.1581722 5.2418278,2.8 4.8,2.8 Z" id="形状结合"></path>
        </g>
        <path d="M14.5666667,19 C14.5055556,19 14.4138889,19 14.2916667,19 C14.1694444,19 14.0472222,19 13.925,19 L13.8333333,19 C12.8251833,19 12,18.1834111 12,17.1856456 C12,16.2478718 12.7027167,15.4917367 13.65,15.3711988 C14.0166667,14.6453831 14.78025,14 15.6666667,14 C17.1014493,14 17.7137667,14.9475598 17.9277167,15.9756447 C18.6916667,16.0360985 19.3333333,16.7014604 19.3333333,17.4874526 C19.3333333,18.3344533 18.66105,19 17.80525,19 L14.9333333,19 L14.5666667,19 Z" id="路径备份" fill="#57689C" opacity="0.55"></path>
    </g>
</svg>