<?xml version="1.0" encoding="UTF-8"?>
<svg width="20px" height="20px" viewBox="0 0 20 20" version="1.1" xmlns="http://www.w3.org/2000/svg" xmlns:xlink="http://www.w3.org/1999/xlink">
    <title>event-center-second-menu</title>
    <g id="event-center-second-menu" stroke="none" stroke-width="1" fill="none" fill-rule="evenodd">
        <g id="编组-3" transform="translate(2.8, 1.875)">
            <g id="编组" fill="#57689C">
                <path d="M14.308,3.724 L14.3088798,15.1491504 C14.3088798,16.0654004 13.5588798,16.8154004 12.6426298,16.8154004 L1.66625,16.8154004 C0.75,16.8154004 0,16.0654004 0,15.1491504 L0,3.724 L14.308,3.724 Z M3.125,12.604375 C2.78,12.604375 2.5,12.884375 2.5,13.229375 C2.5,13.574375 2.78,13.854375 3.125,13.854375 C3.47,13.854375 3.75,13.574375 3.75,13.229375 C3.75,12.884375 3.47,12.604375 3.125,12.604375 Z M9.62549586,12.729375 L5.625,12.729375 C5.34885763,12.729375 5.125,12.9532326 5.125,13.229375 C5.125,13.5055174 5.34885763,13.729375 5.625,13.729375 L9.62549586,13.729375 C9.90163824,13.729375 10.1254959,13.5055174 10.1254959,13.229375 C10.1254959,12.9532326 9.90163824,12.729375 9.62549586,12.729375 Z M3.125,9.479375 C2.78,9.479375 2.5,9.759375 2.5,10.104375 C2.5,10.449375 2.78,10.729375 3.125,10.729375 C3.47,10.729375 3.75,10.449375 3.75,10.104375 C3.75,9.759375 3.47,9.479375 3.125,9.479375 Z M11.5525,9.604375 L5.625,9.604375 C5.34885763,9.604375 5.125,9.82823263 5.125,10.104375 C5.125,10.3805174 5.34885763,10.604375 5.625,10.604375 L11.5525,10.604375 C11.8286424,10.604375 12.0525,10.3805174 12.0525,10.104375 C12.0525,9.82823263 11.8286424,9.604375 11.5525,9.604375 Z M3.125,6.354375 C2.78,6.354375 2.5,6.634375 2.5,6.979375 C2.5,7.324375 2.78,7.604375 3.125,7.604375 C3.47,7.604375 3.75,7.324375 3.75,6.979375 C3.75,6.634375 3.47,6.354375 3.125,6.354375 Z M11.5525,6.479375 L5.625,6.479375 C5.34885763,6.479375 5.125,6.70323263 5.125,6.979375 C5.125,7.25551737 5.34885763,7.479375 5.625,7.479375 L11.5525,7.479375 C11.8286424,7.479375 12.0525,7.25551737 12.0525,6.979375 C12.0525,6.70323263 11.8286424,6.479375 11.5525,6.479375 Z M12.6426298,0 C13.5588798,0 14.3088798,0.75 14.3088798,1.66625 L14.308,2.524 L0,2.524 L0,1.66625 C0,0.75 0.75,0 1.66625,0 L12.6426298,0 Z" id="形状结合"></path>
            </g>
            <g id="编组-4" transform="translate(2.2, 5)"></g>
        </g>
    </g>
</svg>