<?xml version="1.0" encoding="UTF-8"?>
<svg width="20px" height="20px" viewBox="0 0 20 20" version="1.1" xmlns="http://www.w3.org/2000/svg" xmlns:xlink="http://www.w3.org/1999/xlink">
    <title>fault-self-healing-second-menu</title>
    <g id="fault-self-healing-second-menu" stroke="none" stroke-width="1" fill="none" fill-rule="evenodd">
        <path d="M9.55441891,2.04792545 C9.70000354,1.98402485 9.86569788,1.98402485 10.0112825,2.04792545 L16.2213846,4.7509556 C16.4302638,4.84156529 16.5647476,5.0485369 16.5637989,5.27553802 L16.5637989,10.2924535 C16.5637989,15.3236759 10.2888343,17.8550245 10.0217742,17.959941 C9.95405534,17.986647 9.88347516,18 9.81194119,18 C9.74326858,18 9.67364219,17.986647 9.60783094,17.9618486 C9.33790944,17.8588396 3,15.3761341 3,10.2924535 L3,5.27553802 C3,5.04770195 3.1352966,4.84161886 3.34431683,4.7509556 Z M10.4,7.5 L9.2,7.5 L9.2,9.4 L7.3,9.4 L7.3,10.6 L9.2,10.6 L9.2,12.5 L10.4,12.5 L10.4,10.6 L12.3,10.6 L12.3,9.4 L10.4,9.4 L10.4,7.5 Z" id="形状结合" fill="#57689C"></path>
        <g id="编组" transform="translate(9.8, 10) rotate(-90) translate(-9.8, -10)translate(7.3, 7.5)"></g>
    </g>
</svg>