<?xml version="1.0" encoding="UTF-8"?>
<svg width="20px" height="20px" viewBox="0 0 20 20" version="1.1" xmlns="http://www.w3.org/2000/svg" xmlns:xlink="http://www.w3.org/1999/xlink">
    <title>file-distribution-second-menu</title>
    <g id="file-distribution-second-menu" stroke="none" stroke-width="1" fill="none" fill-rule="evenodd">
        <g id="图形" transform="translate(2.8889, 4.0889)" fill="#57689C">
            <path d="M12,0 C13.1045695,0 14,0.8954305 14,2 C14,3.1045695 13.1045695,4 12,4 C11.3288023,4 10.7348281,3.66936658 10.3720634,3.16208562 L5.92169615,5.31609658 C5.97291616,5.53577349 6,5.76472386 6,6 C6,6.20799261 5.97883344,6.4110415 5.93853684,6.60711015 L10.5771036,8.59452256 C10.9396972,8.22746333 11.4432852,8 12,8 C13.1045695,8 14,8.8954305 14,10 C14,11.1045695 13.1045695,12 12,12 C10.8954305,12 10,11.1045695 10,10 C10,9.81506227 10.0251013,9.63598727 10.0720829,9.46599611 L5.57576022,7.53889691 C5.05173799,8.41410494 4.09429056,9 3,9 C1.34314575,9 0,7.65685425 0,6 C0,4.34314575 1.34314575,3 3,3 C4.0655373,3 5.0013283,3.55550996 5.53356071,4.39271758 L10.0123817,2.22380241 C10.0042007,2.15032975 10,2.07565545 10,2 C10,0.8954305 10.8954305,0 12,0 Z" id="形状结合"></path>
        </g>
    </g>
</svg>