<?xml version="1.0" encoding="UTF-8"?>
<svg width="20px" height="20px" viewBox="0 0 20 20" version="1.1" xmlns="http://www.w3.org/2000/svg" xmlns:xlink="http://www.w3.org/1999/xlink">
    <title>fixed-assets-second-menu</title>
    <g id="吉林银行迭代二" stroke="none" stroke-width="1" fill="none" fill-rule="evenodd">
        <g id="fixed-assets-second-menu">
            <rect id="矩形" x="0" y="0" width="20" height="20"></rect>
            <g id="资产-(1)" transform="translate(2.000000, 2.000000)" fill="#57689C" fill-rule="nonzero">
                <path d="M8.00001564,14.8701824 C4.17616554,14.8701824 0.984012494,14.0769019 0.192749229,13.0172815 C0.0696812077,13.1821802 0,13.3527865 0,13.5285377 C0,14.8340439 3.58170165,15.8923194 8.00001564,15.8923194 C12.4182671,15.8923194 16,14.8340439 16,13.5285377 C16,13.3527865 15.9303813,13.1822583 15.8072664,13.0172815 C15.0159875,14.0769175 11.8237563,14.8701824 8.00001564,14.8701824 L8.00001564,14.8701824 Z" id="路径" fill-opacity="0.55"></path>
                <path d="M8.00001564,5.82971811 C12.4182671,5.82971811 16,4.52461849 16,2.9148356 C16,1.3050058 12.4182671,0 8.00001564,0 C3.58170165,0 0,1.3050058 0,2.91488251 C0,4.52480614 3.58170165,5.82971811 8.00001564,5.82971811 Z" id="路径" fill-opacity="0.55"></path>
                <path d="M4.46777576,8.123975 L4.46777576,7.10238532 C2.32398399,6.78941412 0.721347493,6.2019246 0.192749229,5.49421311 C0.0696812077,5.65912738 0,5.82971811 0,6.00548489 C0,6.93581346 1.82348652,7.73830453 4.46777576,8.123975 Z" id="路径" fill-opacity="0.55"></path>
                <path d="M11.5322086,7.10238532 L11.5322086,8.123975 C14.1764822,7.73830453 16,6.935704 16,6.00548489 C16,5.82971811 15.9303813,5.65901792 15.8072664,5.49421311 C15.2787307,6.2019246 13.6758909,6.78941412 11.5322086,7.10238532 L11.5322086,7.10238532 Z" id="路径" fill-opacity="0.55"></path>
                <path d="M11.5322086,9.63420884 L11.5322086,10.6556891 C14.1764822,10.2699248 16,9.46751188 16,8.53710513 C16,8.36144781 15.9303813,8.19074761 15.8072664,8.0259428 C15.2787307,8.7336543 13.6758909,9.32103435 11.5322086,9.63420884 L11.5322086,9.63420884 Z" id="路径"></path>
                <path d="M4.46777576,10.6557047 L4.46777576,9.63422448 C2.32396836,9.32103435 0.721347493,8.7336543 0.192749229,8.0259428 C0.0696812077,8.19074761 0,8.36144781 0,8.53710513 C0,9.46751188 1.82348652,10.2699404 4.46777576,10.6557047 Z" id="路径"></path>
                <path d="M4.46777576,13.1714058 L4.46777576,12.1498318 C2.32396836,11.8367355 0.721347493,11.2493554 0.192749229,10.5417378 C0.0696812077,10.7064331 0,10.8771177 0,11.0528063 C0,11.9831192 1.82348652,12.7857354 4.46777576,13.1714058 Z" id="路径" fill-opacity="0.55"></path>
                <path d="M11.5322086,12.1498162 L11.5322086,13.1713902 C14.1764822,12.7857354 16,11.9831192 16,11.0528063 C16,10.8771333 15.9303813,10.7064488 15.8072664,10.5417378 C15.2787307,11.2493554 13.6758909,11.8367355 11.5322086,12.1498162 L11.5322086,12.1498162 Z" id="路径" fill-opacity="0.55"></path>
                <path d="M9.89159966,11.3475719 L8.62333524,11.3475719 L8.62333524,10.9143519 L9.89159966,10.9143519 C10.2323918,10.9143519 10.5084766,10.6089986 10.5084766,10.2320782 C10.5084766,9.85515772 10.2323918,9.54980445 9.89159966,9.54980445 L9.23762386,9.54980445 L9.71559561,8.79214663 C9.80927778,8.64387725 9.84582241,8.46049856 9.81717871,8.2824088 C9.78853502,8.10431904 9.69705305,7.94612933 9.56288623,7.84268878 C9.42882866,7.73907511 9.26302705,7.69865629 9.10200743,7.73033658 C8.94098781,7.76201687 8.79796078,7.8631971 8.70443514,8.01158732 L7.99437963,9.13662329 L7.2403231,7.99822811 C7.03929887,7.69478329 6.65364296,7.62894149 6.37842096,7.85127685 C6.10406172,8.0736122 6.04453094,8.50015256 6.24555516,8.80455161 L6.73905669,9.54980445 L6.12131701,9.54980445 C5.78052488,9.54980445 5.50444011,9.85515772 5.50444011,10.2320782 C5.50444011,10.6089986 5.78052488,10.9143519 6.12131701,10.9143519 L7.38958143,10.9143519 L7.38958143,11.3475719 L6.12131701,11.3475719 C5.78052488,11.3475719 5.50444011,11.6529251 5.50444011,12.0298456 C5.50444011,12.406766 5.78052488,12.7121193 6.12131701,12.7121193 L7.38958143,12.7121193 L7.38958143,13.3390478 C7.38958143,13.7159682 7.6656662,14.0213215 8.00645833,14.0213215 C8.34725047,14.0213215 8.62333524,13.7159682 8.62333524,13.3390478 L8.62333524,12.7111651 L9.89159966,12.7111651 C10.2323918,12.7111651 10.5084766,12.4058118 10.5084766,12.0288914 C10.5084766,11.6529251 10.2323918,11.3475719 9.89159966,11.3475719 L9.89159966,11.3475719 Z" id="路径备份"></path>
            </g>
        </g>
    </g>
</svg>