<?xml version="1.0" encoding="UTF-8"?>
<svg width="20px" height="20px" viewBox="0 0 20 20" version="1.1" xmlns="http://www.w3.org/2000/svg" xmlns:xlink="http://www.w3.org/1999/xlink">
    <title>green-and-low-carbon-second-menu</title>
    <g id="green-and-low-carbon-second-menu" stroke="none" stroke-width="1" fill="none" fill-rule="evenodd">
        <g id="节能" transform="translate(2.000000, 2.000000)" fill="#57689C">
            <path d="M7.99997178,0 C12.4182342,0 15.9999436,3.58170937 15.9999436,7.99997178 C15.9999436,12.4182342 12.4182342,15.9999436 7.99997178,15.9999436 C3.58170937,15.9999436 0,12.4182342 0,7.99997178 C0,3.58170937 3.58170937,0 7.99997178,0 Z M12.5024818,5.13612616 C12.5466213,4.60306563 12.8118815,4.1140317 11.6625615,4.64751556 C10.2038417,5.40330553 8.74500909,5.00317147 7.02094439,5.53665533 C5.65084227,5.93678938 4.50064734,7.00375708 4.05885736,9.80458258 C4.67782619,8.82659941 5.51780291,8.02627484 6.49039564,7.40383469 C7.33040058,6.87006863 8.21448856,6.51469494 9.18710952,6.29244528 C9.27552961,6.24793889 9.31975377,6.42579506 9.23124902,6.470245 C7.99353711,6.87006861 6.88827191,7.49284744 5.87139858,8.29297444 C4.81047042,9.13774892 4.01466142,10.2047449 3.43997319,11.449597 L3.43997319,11.4939904 C3.43997319,11.5384404 3.48416912,11.5828903 3.48416912,11.5828903 L3.70523345,11.5828903 L3.74940116,11.5384404 C5.25251442,8.82657119 7.33040058,10.5603725 9.45205934,9.67080945 C11.3972448,8.82614786 12.2814457,7.00330553 12.5024818,5.13612616 Z" id="形状结合"></path>
        </g>
    </g>
</svg>