<?xml version="1.0" encoding="UTF-8"?>
<svg width="20px" height="20px" viewBox="0 0 20 20" version="1.1" xmlns="http://www.w3.org/2000/svg" xmlns:xlink="http://www.w3.org/1999/xlink">
    <title>idc-second-menu</title>
    <g id="idc-second-menu" stroke="none" stroke-width="1" fill="none" fill-rule="evenodd">
        <g id="编组-53">
            <rect id="矩形" fill-opacity="0" fill="#D8D8D8" x="0" y="0" width="20" height="20"></rect>
            <path d="M11.9761871,3.02968559 C11.9920148,3.10091049 12,3.1736537 12,3.24661605 L11.9998062,12.3543952 C11.3775582,13.0595011 11,13.9856588 11,15 C11,15.3452689 11.0437452,15.6803206 11.1259956,15.9999149 L3,16 L3,4.80217161 C3,4.33347296 3.32553199,3.92765956 3.78306954,3.82598455 L10.7830695,2.27042899 C11.3222028,2.15062161 11.8563797,2.49055237 11.9761871,3.02968559 Z M10,8.7 L5,8.7 L5,9.9 L10,9.9 L10,8.7 Z M10,6 L5,6 L5,7.2 L10,7.2 L10,6 Z" id="形状结合" fill="#57689C"></path>
            <path d="M12,5 L16.3713907,6.74855627 C16.7510491,6.90041962 17,7.26812837 17,7.67703296 L17.0001204,11.5351985 C16.4117465,11.1948152 15.728624,11 15,11 C13.8047879,11 12.7320117,11.5242106 11.9990439,12.3552593 L12,5 Z" id="形状结合" fill="#57689C" fill-rule="nonzero" opacity="0.550000012"></path>
            <path d="M11.1259956,15.9999149 C11.32847,16.7866553 11.7642812,17.4797256 12.3552593,18.0009561 L2,18 L2,17 C2,16.4477153 2.44771525,16 3,16 Z" id="形状结合" fill="#57689C"></path>
            <g id="编组" transform="translate(11.500000, 11.500000)" fill="#57689C">
                <path d="M3.5,0 C5.43299662,0 7,1.56700338 7,3.5 C7,5.43299662 5.43299662,7 3.5,7 C1.56700338,7 0,5.43299662 0,3.5 C0,1.56700338 1.56700338,0 3.5,0 Z M3.725,1.2 C3.35220779,1.2 3.05,1.50220779 3.05,1.875 C3.05,2.00361944 3.08597371,2.12383676 3.14840847,2.22613932 L2.33480064,3.46899143 C2.27515481,3.45654351 2.21334157,3.45 2.15,3.45 C1.65294373,3.45 1.25,3.85294373 1.25,4.35 C1.25,4.84705627 1.65294373,5.25 2.15,5.25 C2.54080682,5.25 2.87343539,5.00090928 2.99778218,4.65283136 L4.41593668,4.9464765 C4.48283776,5.24884305 4.75250799,5.475 5.075,5.475 C5.44779221,5.475 5.75,5.17279221 5.75,4.8 C5.75,4.42720779 5.44779221,4.125 5.075,4.125 C4.81204471,4.125 4.58420816,4.27536122 4.47277859,4.49479543 L3.03716478,4.19768526 C3.00155362,3.9887729 2.89394313,3.80440537 2.74076967,3.67101906 L3.49950724,2.51141684 C3.57002171,2.53640204 3.64592287,2.55 3.725,2.55 C4.09779221,2.55 4.4,2.24779221 4.4,1.875 C4.4,1.50220779 4.09779221,1.2 3.725,1.2 Z" id="形状结合"></path>
            </g>
        </g>
    </g>
</svg>