<?xml version="1.0" encoding="UTF-8"?>
<svg width="20px" height="20px" viewBox="0 0 20 20" version="1.1" xmlns="http://www.w3.org/2000/svg" xmlns:xlink="http://www.w3.org/1999/xlink">
    <title>inspection-automation-second-menu</title>
    <defs>
        <path d="M7.0866445,0.913355505 C7.0866445,1.29354105 7.31944688,1.61876422 7.64992123,1.75634518 L7.64992123,1.75634518 L7.64992123,3.20392088 L6.61753895,3.23437773 C4.60633643,3.35795554 3.32924908,3.75424471 2.52651847,4.32452302 L2.52651847,4.32452302 C1.91143007,4.88779975 1.47628216,5.64116926 1.3075442,6.48765972 L1.3075442,6.48765972 L0.830386837,6.48765972 C0.373183966,6.48765972 0,6.86154385 0,7.31804656 L0,7.31804656 L0,8.50411343 C0,8.96061614 0.373183966,9.33450026 0.830386837,9.33450026 L0.830386837,9.33450026 L1.23367758,9.33450026 C1.2679853,10.4446 1.75774549,11.4458253 2.52651847,12.1498337 L2.52651847,12.1498337 C3.31874672,12.7127604 4.57587957,13.1044985 6.5408717,13.2333275 L6.5408717,13.2333275 C6.5342202,13.2763872 6.53036933,13.3232977 6.53036933,13.3761596 L6.53036933,13.3761596 L6.53036933,13.7650971 C6.53036933,14.1932435 6.87799755,14.5408717 7.3057938,14.5408717 L7.3057938,14.5408717 L7.34675302,14.5408717 L7.34675302,15.2074217 L4.38788727,15.2074217 C3.61771399,15.2074217 2.98792228,15.8375635 2.98792228,16.6077367 L2.98792228,16.6077367 L2.98792228,17.5809557 C4.3990898,18.4193944 6.0462104,18.902153 7.80640644,18.902153 L7.80640644,18.902153 C9.72518817,18.902153 11.5095396,18.328724 13.000175,17.3464029 L13.000175,17.3464029 L13.000175,16.6077367 C13.000175,15.8375635 12.3696832,15.2074217 11.59986,15.2074217 L11.59986,15.2074217 L8.64064414,15.2074217 L8.64064414,14.5408717 L8.68160336,14.5408717 C9.11009977,14.5408717 9.45737791,14.1932435 9.45737791,13.7650971 L9.45737791,13.7650971 L9.45737791,13.3761596 C9.45737791,13.3236478 9.45737791,13.2774374 9.45667775,13.2371784 L9.45667775,13.2371784 L9.52669351,13.2350779 C11.3320497,13.1167513 12.5258183,12.7743742 13.3103448,12.2814633 L13.3103448,12.2814633 C14.1648871,11.5736041 14.7169613,10.5160161 14.7533695,9.33450026 L14.7533695,9.33450026 L15.1696132,9.33450026 C15.626466,9.33450026 16,8.96061614 16,8.50411343 L16,8.50411343 L16,7.31804656 C16,6.86154385 15.626466,6.48765972 15.1696132,6.48765972 L15.1696132,6.48765972 L14.6788027,6.48765972 C14.4964117,5.57325398 14.0038509,4.76737266 13.3103448,4.1928934 L13.3103448,4.1928934 C12.5258183,3.6999825 11.3320497,3.35760546 9.52669351,3.23927884 L9.52669351,3.23927884 L8.35007877,3.20392088 L8.35007877,1.75634518 C8.68055312,1.61876422 8.9133555,1.29354105 8.9133555,0.913355505 L8.9133555,0.913355505 C8.9133555,0.408892001 8.5044635,0 8,0 L8,0 C7.49518642,0 7.0866445,0.408892001 7.0866445,0.913355505" id="path-1"></path>
    </defs>
    <g id="inspection-automation-second-menu" stroke="none" stroke-width="1" fill="none" fill-rule="evenodd">
        <g id="编组-3" fill="#000000" opacity="0">
            <rect id="矩形" x="0" y="0" width="20" height="20"></rect>
        </g>
        <g id="巡检管理" transform="translate(2, 0.5)">
            <g id="Fill-1-Clipped">
                <mask id="mask-2" fill="white">
                    <use xlink:href="#path-1"></use>
                </mask>
                <g id="path-1"></g>
                <path d="M8.05181166,4.90110275 C13.5251248,4.90110275 14.0031507,5.92503685 14.0031507,8.05181166 C14.0031507,8.1581504 14.0045409,8.26523282 14.0063689,8.37271872 L14.0103264,8.58812767 C14.0436561,10.3963348 14.021577,12.2541797 9.45815746,12.5592861 L9.45737791,13.7650971 C9.45737791,14.1932435 9.11009977,14.5408717 8.68160336,14.5408717 L8.64064414,14.5408717 L8.64064414,15.2074217 L11.59986,15.2074217 C12.3696832,15.2074217 13.000175,15.8375635 13.000175,16.6077367 L13.000175,17.3464029 C11.5095396,18.328724 9.72518817,18.902153 7.80640644,18.902153 C6.0462104,18.902153 4.3990898,18.4193944 2.98792228,17.5809557 L2.98792228,16.6077367 C2.98792228,15.8375635 3.61771399,15.2074217 4.38788727,15.2074217 L7.34675302,15.2074217 L7.34675302,14.5408717 L7.3057938,14.5408717 C6.87799755,14.5408717 6.53036933,14.1932435 6.53036933,13.7650971 L6.53058937,13.0051892 C6.5306611,12.8929391 6.53075014,12.7582727 6.53085615,12.6054373 L6.53070034,12.5517452 C2.03679187,12.2253092 1.76243323,10.3882695 1.75016667,8.59726984 L1.75039384,8.05181166 C1.75039384,5.92503685 2.57849856,4.90110275 8.05181166,4.90110275 Z" id="形状结合" fill="#57689C" mask="url(#mask-2)"></path>
                <path d="M7.64992123,1.75634518 L7.64992123,3.20392088 L6.61753895,3.23437773 C4.60633643,3.35795554 3.32924908,3.75424471 2.52651847,4.32452302 C1.91143007,4.88779975 1.47628216,5.64116926 1.3075442,6.48765972 L0.830386837,6.48765972 C0.373183966,6.48765972 0,6.86154385 0,7.31804656 L0,8.50411343 C0,8.96061614 0.373183966,9.33450026 0.830386837,9.33450026 L1.23367758,9.33450026 C1.2679853,10.4446 1.75774549,11.4458253 2.52651847,12.1498337 C3.31874672,12.7127604 4.57587957,13.1044985 6.5408717,13.2333275 C6.5342202,13.2763872 6.53036933,13.3232977 6.53036933,13.3761596 L6.53036933,13.7650971 C6.53036933,14.1932435 6.87799755,14.5408717 7.3057938,14.5408717 L7.34675302,14.5408717 L8.64064414,14.5408717 L8.68160336,14.5408717 C9.11009977,14.5408717 9.45737791,14.1932435 9.45737791,13.7650971 L9.45737791,13.3761596 C9.45737791,13.3236478 9.45737791,13.2774374 9.45667775,13.2371784 L9.52669351,13.2350779 C11.3320497,13.1167513 12.5258183,12.7743742 13.3103448,12.2814633 C14.1648871,11.5736041 14.7169613,10.5160161 14.7533695,9.33450026 L15.1696132,9.33450026 C15.626466,9.33450026 16,8.96061614 16,8.50411343 L16,7.31804656 C16,6.86154385 15.626466,6.48765972 15.1696132,6.48765972 L14.6788027,6.48765972 C14.4964117,5.57325398 14.0038509,4.76737266 13.3103448,4.1928934 C12.5258183,3.6999825 11.3320497,3.35760546 9.52669351,3.23927884 L8.35007877,3.20392088 L8.35007877,1.75634518 C8.68055312,1.61876422 8.9133555,1.29354105 8.9133555,0.913355505 C8.9133555,0.408892001 8.5044635,0 8,0 C7.49518642,0 7.0866445,0.408892001 7.0866445,0.913355505 C7.0866445,1.29354105 7.31944688,1.61876422 7.64992123,1.75634518 Z" id="Fill-1" fill="#57689C" mask="url(#mask-2)"></path>
            </g>
            <path d="M9.77903028,5.53873622 C11.1488885,5.53873622 12.2698407,6.65968843 12.2698407,8.02954665 L12.2698407,8.38557675 C12.2698407,9.36229652 11.6985122,10.2098372 10.8751269,10.6173289 C10.8677752,10.6246806 10.8586732,10.6316821 10.8464204,10.6390338 L8.48793979,11.9098197 C8.32410292,12.0053912 8.11860669,11.8874147 8.11860669,11.697672 L8.11860669,10.8760371 L6.22082969,10.8760371 C4.85097147,10.8760371 3.73001925,9.75543497 3.73001925,8.38557675 L3.73001925,8.02954665 C3.73001925,6.65968843 4.85097147,5.53873622 6.22082969,5.53873622 Z M9.77903028,7.2586732 C9.3204271,7.2586732 8.94899352,7.63045685 8.94899352,8.08870996 C8.94899352,8.54731315 9.3204271,8.9190968 9.77903028,8.9190968 C10.2376335,8.9190968 10.609067,8.54731315 10.609067,8.08870996 C10.609067,7.63045685 10.2376335,7.2586732 9.77903028,7.2586732 Z M6.33950639,7.2586732 C5.8809032,7.2586732 5.50911955,7.63045685 5.50911955,8.08870996 C5.50911955,8.54731315 5.8809032,8.9190968 6.33950639,8.9190968 C6.7977595,8.9190968 7.16989323,8.54731315 7.16989323,8.08870996 C7.16989323,7.63045685 6.7977595,7.2586732 6.33950639,7.2586732 Z" id="形状结合" fill="#FFFFFF"></path>
        </g>
    </g>
</svg>