<?xml version="1.0" encoding="UTF-8"?>
<svg width="20px" height="20px" viewBox="0 0 20 20" version="1.1" xmlns="http://www.w3.org/2000/svg" xmlns:xlink="http://www.w3.org/1999/xlink">
    <title>intangible-assets-second-menu</title>
    <g id="吉林银行迭代二" stroke="none" stroke-width="1" fill="none" fill-rule="evenodd">
        <g id="intangible-assets-second-menu">
            <rect id="矩形" x="0" y="0" width="20" height="20"></rect>
            <g id="编组-4" transform="translate(2.000000, 2.000000)" fill="#57689C" fill-rule="nonzero">
                <path d="M9.92403939,3.51709667 C9.64143613,3.56736881 9.39041143,3.72792752 9.22626591,3.96340181 L7.98005754,5.74867479 L6.65662362,3.94220264 C6.30380886,3.46067863 5.62694963,3.356197 5.1439114,3.70901176 C4.66238738,4.06182653 4.55790576,4.73868575 4.91072052,5.22172399 L5.77685805,6.40433485 L4.69267191,6.40433485 C4.6543927,6.40433485 4.61657864,6.40631953 4.57932699,6.41019165 L4.69267191,6.40433485 C4.64650129,6.40433485 4.60100738,6.40722218 4.55636084,6.41282619 L4.49303272,6.42268807 L0,4.43274833 L0,3.54619867 L8,0 L16,3.54619867 L16,4.43274833 L11.5087795,6.4225577 L11.4469995,6.41293284 C11.4389971,6.41192198 11.4309674,6.4109984 11.4229114,6.4101631 L11.5087795,6.4225577 C11.4442958,6.41059053 11.3778017,6.40433485 11.3098415,6.40433485 L10.1620579,6.40433485 L11.0009393,5.20203905 C11.1653596,4.96675651 11.2294985,4.67576046 11.1792264,4.39315721 C11.1289542,4.11055395 10.9683955,3.85952924 10.7329212,3.69538373 C10.4976387,3.53096348 10.2066426,3.46682453 9.92403939,3.51709667 Z" id="形状结合"></path>
                <path d="M11.056,5.1124735 L14,6.338947 L16,7.247719 L16,12.156491 L8,15.791579 L0,12.156491 L0,7.247719 L2,6.338947 L4.934,5.2544735 L5.77685805,6.40433485 L4.69267191,6.40433485 C4.09455246,6.40433485 3.61,6.88888731 3.61,7.48700676 C3.61,8.08512621 4.09455246,8.56967867 4.69267191,8.56967867 L6.9185848,8.56967867 L6.9185848,9.25713748 L4.69267191,9.25713748 C4.09455246,9.25713748 3.61,9.74168995 3.61,10.3398094 C3.61,10.9379288 4.09455246,11.4224813 4.69267191,11.4224813 L6.9185848,11.4224813 L6.9185848,12.4173281 C6.9185848,13.0154475 7.40313726,13.5 8.00125671,13.5 C8.59937616,13.5 9.08392862,13.0154475 9.08392862,12.4173281 L9.08392862,11.4209671 L11.3098415,11.4209671 C11.907961,11.4209671 12.3925134,10.9364146 12.3925134,10.3382952 C12.3925134,9.74168995 11.907961,9.25713748 11.3098415,9.25713748 L9.08392862,9.25713748 L9.08392862,8.56967867 L11.3098415,8.56967867 C11.907961,8.56967867 12.3925134,8.08512621 12.3925134,7.48700676 C12.3925134,6.88888731 11.907961,6.40433485 11.3098415,6.40433485 L10.1620579,6.40433485 L11.0009393,5.20203905 L11.056,5.1124735 Z M8.35943261,3.9894735 L9.017,4.2634735 L7.98005754,5.74867479 L7.046,4.4744735 L8.35943261,3.9894735 Z" id="形状结合" fill-opacity="0.55"></path>
            </g>
        </g>
    </g>
</svg>