<?xml version="1.0" encoding="UTF-8"?>
<svg width="20px" height="20px" viewBox="0 0 20 20" version="1.1" xmlns="http://www.w3.org/2000/svg" xmlns:xlink="http://www.w3.org/1999/xlink">
    <title>interface-comparison-second-menu</title>
    <g id="interface-comparison-second-menu" stroke="none" stroke-width="1" fill="none" fill-rule="evenodd">
        <g id="metric-integration-second-menu" transform="translate(2.000000, 2.000000)">
            <rect id="矩形" fill-opacity="0" fill="#D8D8D8" x="0" y="0" width="16" height="16"></rect>
            <path d="M15,2 C15.5522847,2 16,2.44771525 16,3 L16,13 C16,13.5522847 15.5522847,14 15,14 L1,14 C0.44771525,14 6.76353751e-17,13.5522847 0,13 L0,3 C-6.76353751e-17,2.44771525 0.44771525,2 1,2 L15,2 Z M14.129,5.209 L10.331,5.209 C10.145,5.209 9.971,5.245 9.809,5.317 C9.647,5.389 9.5075,5.4835 9.3905,5.6005 C9.2735,5.7175 9.179,5.8555 9.107,6.0145 C9.035,6.1735 8.999,6.346 8.999,6.532 L8.999,7.216 C8.999,7.402 9.035,7.5745 9.107,7.7335 C9.179,7.8925 9.2735,8.0305 9.3905,8.1475 C9.5075,8.2645 9.647,8.359 9.809,8.431 C9.971,8.503 10.145,8.539 10.331,8.539 L12.644,8.539 C12.734,8.539 12.8075,8.5675 12.8645,8.6245 C12.9215,8.6815 12.95,8.752 12.95,8.836 L12.95,10.132 C12.95,10.216 12.9215,10.288 12.8645,10.348 C12.8075,10.408 12.734,10.438 12.644,10.438 L8.855,10.438 L8.855,11.257 L12.887,11.257 C13.073,11.257 13.2455,11.2225 13.4045,11.1535 C13.5635,11.0845 13.703,10.99 13.823,10.87 C13.943,10.75 14.0375,10.6105 14.1065,10.4515 C14.1755,10.2925 14.21,10.123 14.21,9.943 L14.21,9.025 C14.21,8.839 14.1755,8.6665 14.1065,8.5075 C14.0375,8.3485 13.943,8.209 13.823,8.089 C13.703,7.969 13.5635,7.8745 13.4045,7.8055 C13.2455,7.7365 13.073,7.702 12.887,7.702 L10.565,7.702 C10.481,7.702 10.409,7.672 10.349,7.612 C10.289,7.552 10.259,7.48 10.259,7.396 L10.259,6.352 C10.259,6.268 10.289,6.196 10.349,6.136 C10.409,6.076 10.481,6.046 10.565,6.046 L14.129,6.046 L14.129,5.209 Z M3.095,5.209 L1.79,5.209 L4.364,11.248 L5.93,11.248 L8.495,5.209 L7.19,5.209 L5.147,10.042 L3.095,5.209 Z" id="形状结合" fill="#57689C"></path>
        </g>
    </g>
</svg>