<?xml version="1.0" encoding="UTF-8"?>
<svg width="20px" height="20px" viewBox="0 0 20 20" version="1.1" xmlns="http://www.w3.org/2000/svg" xmlns:xlink="http://www.w3.org/1999/xlink">
    <title>it-asset-management-second-menu</title>
    <g id="吉林银行迭代二" stroke="none" stroke-width="1" fill="none" fill-rule="evenodd">
        <g id="it-asset-management-second-menu">
            <rect id="矩形" x="0" y="0" width="20" height="20"></rect>
            <g id="资产" transform="translate(2.000000, 3.000000)" fill="#57689C" fill-rule="nonzero">
                <path d="M12.3492045,0 C12.4709506,0 12.5900819,0.0175568211 12.703325,0.0505661351 L12.7402983,0.061959219 C12.7949312,0.079712432 12.8480755,0.101093168 12.8993505,0.125856624 C13.1797042,0.263101535 13.4065704,0.499246401 13.5267267,0.799952327 L15.9094214,6.76860735 C15.9694893,6.91830046 16,7.07752816 16,7.23866277 L16,12.7050235 C16,13.4048626 15.4326917,13.9731244 14.7318992,13.9731244 L1.26810083,13.9731244 C0.568261725,13.9731244 0,13.4058161 0,12.7050235 L0,7.21387283 C0.00020226937,7.08373858 0.0203278015,6.95466269 0.0594543948,6.8310801 L0.10488052,6.70949288 L2.68303438,0.763720875 C2.86592521,0.342465234 3.25999544,0.0559546634 3.70979755,0.00734328398 L3.84625469,0 L12.3492045,0 Z M10.9209225,1.12889577 L5.28311781,1.12984923 C4.75394792,1.12984923 4.28007866,1.45879268 4.09510756,1.95554496 L2.39222931,6.5264287 C2.38277417,6.55193373 2.37567619,6.57757119 2.37079689,6.60314189 L2.36267648,6.67850104 C2.35687186,6.93088082 2.55908468,7.15666528 2.83082057,7.15666528 L5.00470771,7.15666528 C5.21145242,7.15676026 5.40354131,7.26343627 5.5129015,7.43888922 L6.37578213,8.81949824 C6.45396579,8.94344795 6.58935701,9.01877123 6.73618974,9.01877123 L9.49836124,9.01972469 C9.65373784,9.01972469 9.7967198,8.93490387 9.87116382,8.79852214 L10.5957929,7.47035338 C10.7016268,7.2777546 10.9028067,7.15761874 11.1230558,7.15761874 L13.4418688,7.15761874 C13.4966927,7.15761874 13.5486562,7.14845493 13.5966382,7.13176057 L13.6649485,7.10114117 C13.8613313,6.99374292 13.9662714,6.75025326 13.8775997,6.52070794 L12.103212,1.93933615 C11.9142353,1.45100358 11.4445453,1.12903864 10.9209225,1.12889577 Z M6.32810917,3.5440081 C6.03062988,3.8367201 5.71694178,4.11513021 5.38990525,4.37542459 C5.37846374,4.32775162 5.37178952,4.27721828 5.37178952,4.22573148 C5.37178952,3.84911507 5.67689649,3.5440081 6.0535129,3.5440081 L6.32810917,3.5440081 Z" id="形状" fill-opacity="0.55"></path>
                <path d="M10.2191764,5.33841845 L8.81759132,5.33841845 L8.81759132,4.90554794 L10.2191764,4.90554794 C10.5957929,4.90554794 10.9008998,4.60044097 10.9008998,4.22382456 C10.9008998,3.84720815 10.5957929,3.54210119 10.2191764,3.54210119 L9.49645432,3.54210119 L10.0246708,2.78505453 C10.1282009,2.63690475 10.1685871,2.45367398 10.1369323,2.27572787 C10.1052776,2.09778177 10.004179,1.93971966 9.85590847,1.83636255 C9.70775869,1.73283246 9.52452792,1.69244624 9.34658182,1.72410098 C9.16863571,1.75575571 9.0105736,1.85685433 8.90721649,2.00512484 L8.12251952,3.12925332 L7.28919611,1.99177641 C7.0670401,1.68857637 6.64084381,1.62278768 6.3366903,1.84494369 C6.03349026,2.0670997 5.96770157,2.49329599 6.18985758,2.7974495 L6.73523628,3.54210119 L6.05255944,3.54210119 C5.67594303,3.54210119 5.37083606,3.84720815 5.37083606,4.22382456 C5.37083606,4.60044097 5.67594303,4.90554794 6.05255944,4.90554794 L7.45414457,4.90554794 L7.45414457,5.33841845 L6.05255944,5.33841845 C5.67594303,5.33841845 5.37083606,5.64352542 5.37083606,6.02014183 C5.37083606,6.39675824 5.67594303,6.7018652 6.05255944,6.7018652 L7.45414457,6.7018652 L7.45414457,7.32828794 C7.45414457,7.70490436 7.75925153,8.01001132 8.13586795,8.01001132 C8.51248436,8.01001132 8.81759132,7.70490436 8.81759132,7.32828794 L8.81759132,6.70091175 L10.2191764,6.70091175 C10.5957929,6.70091175 10.9008998,6.39580478 10.9008998,6.01918837 C10.9008998,5.64352542 10.5957929,5.33841845 10.2191764,5.33841845 L10.2191764,5.33841845 Z" id="路径"></path>
            </g>
        </g>
    </g>
</svg>