<?xml version="1.0" encoding="UTF-8"?>
<svg width="20px" height="20px" viewBox="0 0 20 20" version="1.1" xmlns="http://www.w3.org/2000/svg" xmlns:xlink="http://www.w3.org/1999/xlink">
    <title>it-service-center-second-menu</title>
    <g id="it-service-center-second-menu" stroke="none" stroke-width="1" fill="none" fill-rule="evenodd">
        <g id="应用性能监控">
            <rect id="矩形" x="0" y="0" width="20" height="20"></rect>
            <g id="IT服务中心" transform="translate(10.000000, 10.000000) scale(-1, 1) translate(-10.000000, -10.000000) translate(1.000000, 1.000000)" fill-rule="nonzero">
                <path d="M9,0 C13.9705627,0 18,4.02943725 18,9 C18,13.9705627 13.9705627,18 9,18 C4.02943725,18 0,13.9705627 0,9 C0,4.02943725 4.02943725,0 9,0 Z M6.6,5 L5,5 L5,13 L6.6,13 L6.6,5 Z M13,5 L11.4,5 L11.4,13 L13,13 L13,5 Z M10,8 L8,8 L8,10 L10,10 L10,8 Z" id="形状结合" fill="#57689C"></path>
                <path d="M9.999686,11.4004193 L9.999686,13 L6.6,13 L6.6,11.4 L10,11.4 L9.999686,11.4004193 Z M8,6.6 L8,5 L11.4,5 L11.4,6.6 L8,6.6 Z" id="形状结合" fill="#FFFFFF" opacity="0.550000012"></path>
            </g>
        </g>
    </g>
</svg>