<?xml version="1.0" encoding="UTF-8"?>
<svg width="20px" height="20px" viewBox="0 0 20 20" version="1.1" xmlns="http://www.w3.org/2000/svg" xmlns:xlink="http://www.w3.org/1999/xlink">
    <title>itsm-mobile-terminal-second-menu</title>
    <g id="itsm-mobile-terminal-second-menu" stroke="none" stroke-width="1" fill="none" fill-rule="evenodd">
        <g id="移动端" transform="translate(0.000000, -0.100000)">
            <rect id="矩形" fill="#FFFFFF" opacity="0" x="0" y="0" width="20" height="20"></rect>
            <path d="M15,12.46 L15,16.5 C15,17.38 14.28,18.1 13.4,18.1 L6.2,18.1 C5.32,18.1 4.6,17.38 4.6,16.5 L4.6,14.66 L5.8,14.38 L5.8,14.5 C5.8,14.94 6.16,15.3 6.6,15.3 L13,15.3 C13.44,15.3 13.8,14.94 13.8,14.5 L13.8,12.7 L15,12.46 Z M9.8,15.7 C9.36,15.7 9,16.06 9,16.5 C9,16.94 9.36,17.3 9.8,17.3 C10.24,17.3 10.6,16.94 10.6,16.5 C10.6,16.06 10.24,15.7 9.8,15.7 Z M16.56,6.42 C16.6,6.58 16.64,6.7 16.6,6.86 L16.6,9.66 C16.56,10.58 15.92,11.38 15,11.62 L4.6,13.74 C3.96,13.94 3.28,13.58 3.04,12.94 C3,12.78 3,12.66 3,12.5 L3,9.7 C3.04,8.78 3.68,7.94 4.6,7.74 L15,5.66 C15.64,5.46 16.32,5.78 16.56,6.42 Z M5.48671875,9.30829621 L4.6,9.50256584 L4.6,12.3658471 L5.48671875,12.1715775 L5.48671875,9.30829621 Z M8.60976563,8.62407343 L5.9203125,9.21330093 L5.9203125,9.92033218 L6.82265625,9.72263929 L6.82265625,11.8788893 L7.70742188,11.6850476 L7.70742188,9.52879757 L8.60976563,9.33110468 L8.60976563,8.62407343 Z M10.1800781,8.23120833 C9.88190104,8.29653542 9.64720052,8.38539044 9.47597656,8.49777338 C9.3047526,8.61015632 9.1764974,8.74112011 9.09121094,8.89066475 C9.00592448,9.04020938 8.96328125,9.1885494 8.96328125,9.33568482 C8.96328125,9.55964315 9.04661458,9.72563059 9.21328125,9.83364714 C9.37864583,9.94194896 9.65533854,9.99721426 10.0433594,9.99944305 C10.2803385,9.99960704 10.4313802,10.0218541 10.4964844,10.0661843 C10.5615885,10.1105145 10.5941406,10.169789 10.5941406,10.2440077 C10.5941406,10.3221327 10.5599609,10.398306 10.4916016,10.4725275 C10.4232422,10.5467491 10.3259115,10.5976955 10.1996094,10.6253668 C10.0303385,10.662452 9.90013021,10.6330364 9.80898438,10.53712 C9.75299479,10.4777721 9.71588542,10.3817356 9.69765625,10.2490107 L8.85585938,10.4861728 C8.88059896,10.7698152 8.98671875,10.9848468 9.17421875,11.1312678 C9.36171875,11.2776887 9.69895833,11.2975535 10.1859375,11.1908621 C10.4632813,11.1300994 10.693099,11.03971 10.8753906,10.9196939 C11.0576823,10.7996778 11.1996094,10.6510702 11.3011719,10.4738712 C11.4027344,10.2966721 11.4535156,10.1162757 11.4535156,9.93268193 C11.4535156,9.77643193 11.4154297,9.64350007 11.3392578,9.53388635 C11.2630859,9.42427262 11.1413411,9.3451512 10.9740234,9.29652208 C10.8067057,9.24789296 10.5296875,9.2242745 10.1429688,9.22566669 C9.98671875,9.22734714 9.88776042,9.21387149 9.84609375,9.18523975 C9.803125,9.15819537 9.78164063,9.12188671 9.78164063,9.0763138 C9.78164063,9.0138138 9.80768229,8.95504848 9.85976563,8.90001784 C9.91184896,8.84498721 9.98932292,8.80620368 10.0921875,8.78366726 C10.2171875,8.75628123 10.3151693,8.76411146 10.3861328,8.80715793 C10.4570964,8.8502044 10.5036458,8.93375596 10.5257813,9.0578126 L11.3597656,8.82626833 C11.3233073,8.53738092 11.2090495,8.3459421 11.0169922,8.25195188 C10.8249349,8.15796167 10.5459635,8.15104715 10.1800781,8.23120833 Z M15.1097656,7.2 L13.9496094,7.45417657 L13.5023438,9.2943547 L13.053125,7.65058573 L11.8890625,7.90561811 L11.8890625,10.7688994 L12.6136719,10.610146 L12.6136719,8.42655224 L13.1722656,10.4877647 L13.8265625,10.3444159 L14.3871094,8.03801297 L14.3871094,10.2216067 L15.1097656,10.0632813 L15.1097656,7.2 Z M13.4,2.1 C14.28,2.1 15,2.82 15,3.7 L15,4.46 L13.8,4.7 L13.8,4.1 C13.8,3.66 13.44,3.3 13,3.3 L6.6,3.3 C6.16,3.3 5.8,3.66 5.8,4.1 L5.8,6.38 L4.6,6.62 L4.6,3.7 C4.6,2.82 5.32,2.1 6.2,2.1 L13.4,2.1 Z" id="形状结合" fill="#57689C" fill-rule="nonzero"></path>
        </g>
    </g>
</svg>