<?xml version="1.0" encoding="UTF-8"?>
<svg width="20px" height="20px" viewBox="0 0 20 20" version="1.1" xmlns="http://www.w3.org/2000/svg" xmlns:xlink="http://www.w3.org/1999/xlink">
    <title>key-management-second-menu</title>
    <g id="key-management-second-menu" stroke="none" stroke-width="1" fill="none" fill-rule="evenodd">
        <g>
            <g id="编组-3" fill="#000000" opacity="0">
                <rect id="矩形" x="0" y="0" width="20" height="20"></rect>
            </g>
            <g id="编组-4" transform="translate(2.300000, 2.000000)">
                <g id="编组">
                    <path d="M7.95467515,10.5973043 C7.71963387,11.1553158 7.58947536,11.7700172 7.58947536,12.4156792 C7.58947536,13.4345891 7.91361612,14.3763961 8.46256418,15.1399842 L1,15.1394603 C0.44771525,15.1394603 -3.76453835e-16,14.691745 0,14.1394603 L0,11.5976222 C-6.76353751e-17,11.0453374 0.44771525,10.5976222 1,10.5976222 L7.95467515,10.5973043 Z M4.54183808,12.1115682 L2.27091904,12.1115682 C1.85285439,12.1115682 1.51394603,12.4504766 1.51394603,12.8685412 C1.51394603,13.2866059 1.85285439,13.6255142 2.27091904,13.6255142 L4.54183808,13.6255142 C4.95990273,13.6255142 5.2988111,13.2866059 5.2988111,12.8685412 C5.2988111,12.4504766 4.95990273,12.1115682 4.54183808,12.1115682 Z M13.3824873,5.2988111 C13.934772,5.2988111 14.3824873,5.74652635 14.3824873,6.2988111 L14.3830335,8.4144045 C13.7174445,8.02325923 12.9451257,7.79946561 12.1214894,7.79946561 C10.5548608,7.79946561 9.17368991,8.60934657 8.3596914,9.84054465 L1,9.84064918 C0.44771525,9.84064918 -3.76453835e-16,9.39293393 0,8.84064918 L0,6.2988111 C-6.76353751e-17,5.74652635 0.44771525,5.2988111 1,5.2988111 L13.3824873,5.2988111 Z M4.54183808,6.81275712 L2.27091904,6.81275712 C1.85285439,6.81275712 1.51394603,7.15166549 1.51394603,7.56973014 C1.51394603,7.98779479 1.85285439,8.32670315 2.27091904,8.32670315 L4.54183808,8.32670315 C4.95990273,8.32670315 5.2988111,7.98779479 5.2988111,7.56973014 C5.2988111,7.15166549 4.95990273,6.81275712 4.54183808,6.81275712 Z M13.3824873,0 C13.934772,-1.01453063e-16 14.3824873,0.44771525 14.3824873,1 L14.3824873,3.54183808 C14.3824873,4.09412283 13.934772,4.54183808 13.3824873,4.54183808 L1,4.54183808 C0.44771525,4.54183808 -3.76453835e-16,4.09412283 0,3.54183808 L0,1 C-6.76353751e-17,0.44771525 0.44771525,1.01453063e-16 1,0 L13.3824873,0 Z M4.54183808,1.51394603 L2.27091904,1.51394603 C1.85285439,1.51394603 1.51394603,1.85285439 1.51394603,2.27091904 C1.51394603,2.68898369 1.85285439,3.02789206 2.27091904,3.02789206 L4.54183808,3.02789206 C4.95990273,3.02789206 5.2988111,2.68898369 5.2988111,2.27091904 C5.2988111,1.85285439 4.95990273,1.51394603 4.54183808,1.51394603 Z" id="形状结合" fill="#57689C"></path>
                    <g id="编组-3" transform="translate(9.381554, 10.056638) rotate(-38.000000) translate(-9.381554, -10.056638) translate(5.218203, 8.143746)"></g>
                </g>
                <g id="编组-2" transform="translate(9.294941, 9.370763)" fill="#57689C" opacity="0.55">
                    <path d="M1.51092417,1.77966052 C2.16698616,1.77966052 2.71698095,2.23378817 2.86370846,2.8448434 L4.21073052,2.85466052 L4.21147654,2.1070002 L5.27596985,2.1070002 L5.27573052,2.86166052 L5.52073052,2.86366052 L5.52083527,2.1070002 L6.58532857,2.1070002 L6.58532857,3.49819384 L6.58273052,3.49766052 L6.58325128,3.93534055 L2.69034215,3.90903238 C2.44433128,4.30126618 2.00808213,4.56204781 1.51092417,4.56204781 C0.742589135,4.56204781 0.119730524,3.9391892 0.119730524,3.17085416 C0.119730524,2.40251913 0.742589135,1.77966052 1.51092417,1.77966052 Z M1.51092417,2.43433988 C1.10415856,2.43433988 0.774409887,2.76408856 0.774409887,3.17085416 C0.774409887,3.57761977 1.10415856,3.90736845 1.51092417,3.90736845 C1.91768978,3.90736845 2.24743845,3.57761977 2.24743845,3.17085416 C2.24743845,2.76408856 1.91768978,2.43433988 1.51092417,2.43433988 Z" id="形状结合" transform="translate(3.352530, 3.170854) rotate(-41.000000) translate(-3.352530, -3.170854) "></path>
                </g>
            </g>
        </g>
    </g>
</svg>