<?xml version="1.0" encoding="UTF-8"?>
<svg width="20px" height="20px" viewBox="0 0 20 20" version="1.1" xmlns="http://www.w3.org/2000/svg" xmlns:xlink="http://www.w3.org/1999/xlink">
    <title>knowledge-document-second-menu</title>
    <g id="knowledge-document-second-menu" stroke="none" stroke-width="1" fill="none" fill-rule="evenodd">
        <g id="应用性能监控">
            <rect id="矩形" x="0" y="0" width="20" height="20"></rect>
            <g id="编组" transform="translate(3, 2)" fill="#57689C">
                <path d="M7.28593041,0 L7.28593041,3.87610048 C7.28593041,4.15224286 7.50978803,4.37610048 7.78593041,4.37610048 C7.91853865,4.37610048 8.04571561,4.32342206 8.1394838,4.22965387 L9.46444781,2.90468986 L10.3957683,4.02227449 C10.5725504,4.23441294 10.8878327,4.26307497 11.0999712,4.08629293 C11.2139675,3.99129602 11.279879,3.85057222 11.279879,3.70218229 L11.279879,0 L12.0953101,0 C12.6475949,-1.01453063e-16 13.0953101,0.44771525 13.0953101,1 L13.0953101,14.9757943 C13.0953101,15.528079 12.6475949,15.9757943 12.0953101,15.9757943 L2.1785174,15.9757943 L2.1785174,0 L7.28593041,0 Z M10.3167927,11.9818457 L4.98124054,11.9818457 C4.64986969,11.9818457 4.38124054,12.2504748 4.38124054,12.5818457 C4.38124054,12.9132165 4.64986969,13.1818457 4.98124054,13.1818457 L10.3167927,13.1818457 C10.6481636,13.1818457 10.9167927,12.9132165 10.9167927,12.5818457 C10.9167927,12.2504748 10.6481636,11.9818457 10.3167927,11.9818457 Z M10.3167927,9.44024206 L4.98124054,9.44024206 C4.64986969,9.44024206 4.38124054,9.70887121 4.38124054,10.0402421 C4.38124054,10.3716129 4.64986969,10.6402421 4.98124054,10.6402421 L10.3167927,10.6402421 C10.6481636,10.6402421 10.9167927,10.3716129 10.9167927,10.0402421 C10.9167927,9.70887121 10.6481636,9.44024206 10.3167927,9.44024206 Z" id="形状结合"></path>
                <path d="M-6.89863843,6.92284418 L9.07715582,6.92284418 L9.07715582,8.10136157 C9.07715582,8.65364632 8.62944057,9.10136157 8.07715582,9.10136157 L-5.89863843,9.10136157 C-6.45092318,9.10136157 -6.89863843,8.65364632 -6.89863843,8.10136157 L-6.89863843,6.92284418 L-6.89863843,6.92284418 Z" id="矩形备份-11" opacity="0.55" transform="translate(1.0893, 8.0121) rotate(90) translate(-1.0893, -8.0121)"></path>
            </g>
        </g>
    </g>
</svg>