<?xml version="1.0" encoding="UTF-8"?>
<svg width="20px" height="20px" viewBox="0 0 20 20" version="1.1" xmlns="http://www.w3.org/2000/svg" xmlns:xlink="http://www.w3.org/1999/xlink">
    <title>launchpad-configuration-second-menu</title>
    <g id="launchpad-configuration-second-menu" stroke="none" stroke-width="1" fill="none" fill-rule="evenodd">
        <g id="编组-2" transform="translate(2.000000, 3.000000)">
            <g id="编组" transform="translate(-2.000000, -3.000000)"></g>
            <g id="基础设施监控" fill="#57689C">
                <path d="M16,9.39046663 L16,10.2727273 C16,10.825012 15.5522847,11.2727273 15,11.2727273 L10.788,11.2724666 L11.7115385,13.4895105 C11.8177471,13.7444111 11.6972083,14.037148 11.4423077,14.1433566 C11.3813726,14.1687463 11.316013,14.1818182 11.25,14.1818182 L5.11363636,14.1818182 C4.83749399,14.1818182 4.61363636,13.9579606 4.61363636,13.6818182 C4.61363636,13.6158052 4.62670828,13.5504456 4.6520979,13.4895105 L5.575,11.2724666 L1,11.2727273 C0.44771525,11.2727273 6.76353751e-17,10.825012 0,10.2727273 L0,9.39046663 L16,9.39046663 Z" id="形状结合" opacity="0.55"></path>
                <path d="M15,0 C15.5522847,-1.01453063e-16 16,0.44771525 16,1 L16,9.39046663 L0,9.39046663 L0,1 C-6.76353751e-17,0.44771525 0.44771525,-1.20591542e-16 1,0 L15,0 Z M12,4.227273 C11.7606288,4.227273 11.5564251,4.40051453 11.5174159,4.63668578 L11.486419,4.82502705 C11.3456806,4.87100479 11.2132563,4.93536706 11.0919834,5.01527653 L10.9291227,4.92285757 C10.7210339,4.804546 10.4578904,4.85421765 10.3072493,5.04024402 C10.1566081,5.22627038 10.1627325,5.49399089 10.3217228,5.67293409 L10.450944,5.81950743 C10.4009548,5.95375271 10.3679172,6.09624988 10.3544336,6.24439661 L10.1762613,6.31789721 C9.95491821,6.40903354 9.83205268,6.64697438 9.88589949,6.88021052 C9.93974629,7.11344665 10.1544835,7.27344576 10.3933768,7.25832815 L10.5837124,7.2478555 C10.659059,7.37287145 10.7504903,7.48709846 10.8551409,7.58767129 L10.8019333,7.76926186 C10.7334638,7.99863166 10.8410568,8.24385713 11.0562022,8.34879056 C11.2713476,8.45372399 11.5308288,8.38753254 11.6694207,8.19236372 L11.7823939,8.0343324 C11.8536008,8.04369951 11.926236,8.04853277 12,8.04853277 C12.0739492,8.04853277 12.1467638,8.04367522 12.2181422,8.03426179 L12.3305793,8.19236372 C12.4691712,8.38753254 12.7286524,8.45372399 12.9437978,8.34879056 C13.1589432,8.24385713 13.2665362,7.99863166 13.1980667,7.76926186 L13.1448591,7.58767129 C13.2495097,7.48709846 13.340941,7.37287145 13.4162876,7.2478555 L13.6066232,7.25832815 C13.8455165,7.27344576 14.0602537,7.11344665 14.1141005,6.88021052 C14.1679473,6.64697438 14.0450818,6.40903354 13.8237387,6.31789721 L13.6455664,6.24439661 C13.6320489,6.0958775 13.598879,5.95303639 13.5486788,5.81849529 L13.6782772,5.67293409 C13.8372675,5.49399089 13.8433919,5.22627038 13.6927507,5.04024402 C13.5421096,4.85421765 13.2789661,4.804546 13.0708773,4.92285757 L12.9089898,5.01591832 C12.7877371,4.93589952 12.655318,4.8714305 12.5145726,4.82535135 L12.4825841,4.63668578 C12.4435749,4.40051453 12.2393712,4.227273 12,4.227273 Z M12,5.77966345 C12.3429446,5.77966345 12.6209562,6.057675 12.6209562,6.40061963 C12.6209562,6.74356426 12.3429446,7.02157581 12,7.02157581 C11.6570554,7.02157581 11.3790438,6.74356426 11.3790438,6.40061963 C11.3790438,6.057675 11.6570554,5.77966345 12,5.77966345 Z M6.36363636,4.227273 L2.36363636,4.227273 C2.06239014,4.227273 1.81818182,4.47148132 1.81818182,4.77272755 C1.81818182,5.07397377 2.06239014,5.31818209 2.36363636,5.31818209 L6.36363636,5.31818209 C6.66488259,5.31818209 6.90909091,5.07397377 6.90909091,4.77272755 C6.90909091,4.47148132 6.66488259,4.227273 6.36363636,4.227273 Z M9.63636364,1.681818 L2.36363636,1.681818 C2.06239014,1.681818 1.81818182,1.92602632 1.81818182,2.22727255 C1.81818182,2.52851877 2.06239014,2.77272709 2.36363636,2.77272709 L9.63636364,2.77272709 C9.93760986,2.77272709 10.1818182,2.52851877 10.1818182,2.22727255 C10.1818182,1.92602632 9.93760986,1.681818 9.63636364,1.681818 Z" id="形状结合"></path>
            </g>
        </g>
    </g>
</svg>