<?xml version="1.0" encoding="UTF-8"?>
<svg width="20px" height="20px" viewBox="0 0 20 20" version="1.1" xmlns="http://www.w3.org/2000/svg" xmlns:xlink="http://www.w3.org/1999/xlink">
    <title>low-value-consumables-second-menu</title>
    <g id="吉林银行迭代二" stroke="none" stroke-width="1" fill="none" fill-rule="evenodd">
        <g id="low-value-consumables-second-menu">
            <rect id="矩形" x="0" y="0" width="20" height="20"></rect>
            <path d="M9.65935801,2.13930826 C9.85026112,1.95514747 10.1526892,1.95514747 10.3435923,2.13930826 L12.3199515,4.06667696 C12.411934,4.15501335 12.5345379,4.20431828 12.6620686,4.20425867 L15.4577943,4.20425867 C15.5843717,4.20262407 15.7064132,4.25134451 15.7970655,4.33969991 C15.8877178,4.42805531 15.9395537,4.54880645 15.9411674,4.67538417 L15.9411674,7.40089009 C15.9412338,7.52659394 15.9921902,7.64691575 16.0824234,7.73443388 L18.0591909,9.66180257 C18.1485445,9.74890187 18.2,9.86939063 18.2,9.99534636 C18.2,10.1213021 18.1485445,10.2417909 18.0575579,10.3288902 L16.0807904,12.2562589 C15.9909077,12.3440167 15.9400169,12.4641837 15.9395344,12.5898026 L15.9395344,15.3173498 C15.935284,15.5807804 15.7183695,15.7909334 15.4549365,15.7868423 L12.6608439,15.7868423 C12.5332389,15.786397 12.4104958,15.8357579 12.3187267,15.924424 L10.3419593,17.8517927 C10.1510562,18.0359535 9.84862811,18.0359535 9.657725,17.8517927 L7.68095752,15.924424 C7.58897506,15.8360876 7.46637114,15.7867827 7.3388404,15.7868423 L4.54229823,15.7868423 C4.27934039,15.7902511 4.06317728,15.5802954 4.0589251,15.3173498 L4.0589251,12.5889861 C4.05885872,12.4632823 4.00790235,12.3429605 3.9176691,12.2554423 L1.94171814,10.3288902 C1.8511571,10.2415583 1.8,10.1211564 1.8,9.99534636 C1.8,9.86953636 1.8511571,9.74913445 1.94171814,9.66180257 L3.91848561,7.73361737 C4.00836829,7.6458595 4.0592591,7.52569248 4.05974161,7.40007358 L4.05974161,4.67415941 C4.06135536,4.5475817 4.11319119,4.42683055 4.20384353,4.33847515 C4.29449586,4.25011975 4.41653729,4.20139931 4.54311474,4.20303391 L7.3388404,4.20303391 C7.46644538,4.20347918 7.58918849,4.15411828 7.68095752,4.0654522 Z M12.0852053,6.49905627 C11.7642067,6.33738646 11.3728391,6.46018618 11.2017429,6.77626096 L7.77975507,13.2858763 C7.70080863,13.4374861 7.68664261,13.6146095 7.74048863,13.7768398 C7.79433466,13.9390702 7.91159989,14.0725701 8.0655331,14.1468847 C8.3868146,14.3095921 8.77923381,14.1866329 8.95022024,13.86968 L12.3709833,7.36006465 C12.4499297,7.20845479 12.4640957,7.03133147 12.4102497,6.86910109 C12.3564037,6.70687071 12.2391385,6.57337085 12.0852053,6.49905627 Z M12.840884,9.8393932 C11.9476235,9.8393932 11.2486921,10.7159153 11.2486921,11.8353486 C11.2486921,12.954782 11.9492566,13.8313041 12.840884,13.8313041 C13.733328,13.8313041 14.4330759,12.954782 14.4330759,11.8353486 C14.4330759,10.7159152 13.7341445,9.8393932 12.840884,9.8393932 Z M12.8380262,11.1192705 C13.045692,11.2960652 13.1513762,11.5648705 13.1197217,11.8357569 C13.1493716,12.1050446 13.0468382,12.3720271 12.8445583,12.5522432 C12.6364627,12.3757558 12.5306844,12.106711 12.5628628,11.8357569 C12.5332129,11.5664692 12.6357464,11.2994867 12.8380262,11.1192705 Z M7.75240204,5.9462799 C6.85914156,5.9462799 6.16021014,6.82361846 6.16021014,7.94223533 C6.16021014,9.06207696 6.85914157,9.93819075 7.75240204,9.93819075 C8.64566251,9.93819075 9.34459393,9.06166873 9.34459393,7.94223533 C9.34459393,6.82280194 8.64566253,5.9462799 7.75240204,5.9462799 Z M7.74791124,7.22493247 C7.95583428,7.40189592 8.06154484,7.67107484 8.02960673,7.94223533 C8.05953565,8.21155902 7.95695455,8.47866561 7.7544433,8.65872168 C7.54634769,8.48223425 7.4405694,8.21318947 7.47274781,7.94223533 C7.44296325,7.67269117 7.54549715,7.40540327 7.74791124,7.22493247 Z" id="形状结合" fill="#57689C" fill-rule="nonzero"></path>
        </g>
    </g>
</svg>