<?xml version="1.0" encoding="UTF-8"?>
<svg width="20px" height="20px" viewBox="0 0 20 20" version="1.1" xmlns="http://www.w3.org/2000/svg" xmlns:xlink="http://www.w3.org/1999/xlink">
    <title>message-subscription-third-menu</title>
    <g id="message-subscription-third-menu" stroke="none" stroke-width="1" fill="none" fill-rule="evenodd">
        <g id="mdb-relation-query-second-menu">
            <rect id="矩形" x="0" y="0" width="20" height="20"></rect>
            <path d="M9.5,3 C13.918278,3 17.5,5.65740665 17.5,8.93548387 C17.5,12.2135611 13.918278,14.8709677 9.5,14.8709677 C8.79051996,14.8709677 6.6842148,16.2634947 6.02924324,16.1348833 C5.66135448,16.062644 5.62211232,15.6436215 5.61202619,15.189882 L5.60633493,14.8856702 C5.59574156,14.4823291 5.55559961,14.1063506 5.27556728,13.9769087 C3.00867355,12.9290612 1.5,11.0629903 1.5,8.93548387 C1.5,5.65740665 5.081722,3 9.5,3 Z M13.3593754,6.15330597 C13.1656787,5.96505294 12.8592269,5.94813023 12.6452105,6.11386874 L8.72667898,9.15707386 C8.462337,9.36157116 8.09116102,9.36726219 7.82043132,9.17096884 L6.87835042,8.4864367 C6.65733499,8.32610255 6.35013448,8.347792 6.15481062,8.53752119 C5.96223906,8.72460193 5.94749287,9.02505084 6.12085237,9.2294095 L7.58626526,10.9630127 C7.76484087,11.1723303 8.02465349,11.2986992 8.30261819,11.3114359 C8.58058289,11.3241726 8.85127567,11.222112 9.04896982,11.0300355 L13.3593754,6.81576961 C13.5468749,6.63227413 13.5468749,6.33680145 13.3593754,6.15330597 Z" id="形状结合" fill="#57689C"></path>
        </g>
    </g>
</svg>