<?xml version="1.0" encoding="UTF-8"?>
<svg width="20px" height="20px" viewBox="0 0 20 20" version="1.1" xmlns="http://www.w3.org/2000/svg" xmlns:xlink="http://www.w3.org/1999/xlink">
    <title>model-settings-second-menu</title>
    <g id="model-settings-second-menu" stroke="none" stroke-width="1" fill="none" fill-rule="evenodd">
        <g id="编组">
            <rect id="矩形" x="0" y="0" width="20" height="20"></rect>
            <g id="编组备份" transform="translate(3.071797, 1.954701)" fill="#57689C">
                <path d="M7.42820323,0.133974596 L13.3564065,3.55662433 C13.6658075,3.73525712 13.8564065,4.06538414 13.8564065,4.42264973 L13.8567271,9.25803193 C13.2402982,8.86985883 12.5104751,8.64529946 11.7282032,8.64529946 C9.51906423,8.64529946 7.72820323,10.4361605 7.72820323,12.6452995 C7.72820323,13.5073071 8.00087362,14.3056291 8.46466839,14.9587195 L7.42820323,15.5566243 C7.11880215,15.7352571 6.73760431,15.7352571 6.42820323,15.5566243 L0.5,12.1339746 C0.190598923,11.9553418 -7.54951657e-15,11.6252148 -7.99360578e-15,11.2679492 L-8.8817842e-15,4.42264973 C-8.21565038e-15,4.06538414 0.190598923,3.73525712 0.5,3.55662433 L6.42820323,0.133974596 C6.73760431,-0.0446581987 7.11880215,-0.0446581987 7.42820323,0.133974596 Z M9.45702603,4.84529946 L6.42820323,6.57629946 L3.39938043,4.84529946 L2.92820323,5.6530318 L5.95720323,7.38429946 L5.95702603,10.8452995 L6.89938043,10.8452995 L6.90020323,7.38429946 L9.92820323,5.6530318 L9.45702603,4.84529946 Z" id="形状结合"></path>
                <path d="M14.6490379,13.4078978 L14.185694,13.0328769 C14.2076233,12.9056377 14.2189416,12.7757197 14.2189416,12.6458017 C14.2189416,12.5158838 14.2076233,12.3859658 14.185694,12.2587266 L14.6490379,11.8837056 C14.7204848,11.8261131 14.7466584,11.7323579 14.7148256,11.6479782 L14.7084591,11.6305665 C14.5804205,11.292378 14.3908386,10.9816464 14.1446651,10.7070775 L14.131932,10.6930142 C14.071096,10.6253765 13.9727681,10.5999286 13.8836363,10.6293946 L13.308524,10.8229321 C13.0963055,10.6581908 12.8593281,10.5282728 12.603251,10.4371963 L12.49219,9.86796814 C12.4752125,9.78024003 12.4023508,9.71193264 12.3096821,9.69586032 L12.2905824,9.69251192 C11.9220295,9.62956198 11.534377,9.62956198 11.1658241,9.69251192 L11.1467244,9.69586032 C11.0540556,9.71193264 10.9811939,9.78024003 10.9642165,9.86796814 L10.852448,10.4398751 C10.5984932,10.5309516 10.3629306,10.6601998 10.1521268,10.8242715 L9.57277016,10.6293946 C9.48434577,10.5999286 9.38531044,10.6247068 9.32447446,10.6930142 L9.31174135,10.7070775 C9.06556783,10.982316 8.87598592,11.2930477 8.7479474,11.6305665 L8.74158084,11.6479782 C8.70974806,11.7316882 8.73592168,11.8254434 8.80736859,11.8837056 L9.27637159,12.2627446 C9.25444234,12.3886445 9.24383141,12.5172231 9.24383141,12.645132 C9.24383141,12.7737106 9.25444234,12.9022892 9.27637159,13.0275195 L8.80736859,13.4065585 C8.73592168,13.464151 8.70974806,13.5579062 8.74158084,13.6422859 L8.7479474,13.6596976 C8.87598592,13.9972164 9.06556783,14.3086177 9.31174135,14.5831866 L9.32447446,14.5972499 C9.38531044,14.6648876 9.48363837,14.6903355 9.57277016,14.6608695 L10.1521268,14.4659926 C10.3629306,14.6300642 10.5984932,14.7599822 10.852448,14.850389 L10.9642165,15.4222959 C10.9811939,15.5100241 11.0540556,15.5783314 11.1467244,15.5944038 L11.1658241,15.5977522 C11.3504542,15.6292271 11.5393287,15.6452995 11.7282032,15.6452995 C11.9170777,15.6452995 12.1066596,15.6292271 12.2905824,15.5977522 L12.3096821,15.5944038 C12.4023508,15.5783314 12.4752125,15.5100241 12.49219,15.4222959 L12.603251,14.8530678 C12.8593281,14.7619912 13.0963055,14.632743 13.308524,14.4673319 L13.8836363,14.6608695 C13.9720607,14.6903355 14.071096,14.6655573 14.131932,14.5972499 L14.1446651,14.5831866 C14.3908386,14.307948 14.5804205,13.9972164 14.7084591,13.6596976 L14.7148256,13.6422859 C14.7466584,13.5599152 14.7204848,13.46616 14.6490379,13.4078978 L14.6490379,13.4078978 Z M12.2891676,13.1098901 C12.1391998,13.2511926 11.9404218,13.3295452 11.7289106,13.3295452 C11.5173995,13.3295452 11.3186214,13.2511926 11.1686537,13.1098901 C11.0193933,12.9679179 10.936628,12.7797378 10.936628,12.5795034 C10.936628,12.379269 11.0193933,12.1910888 11.1686537,12.0491166 C11.3186214,11.9071444 11.5173995,11.8294615 11.7289106,11.8294615 C11.9404218,11.8294615 12.1391998,11.9071444 12.2891676,12.0491166 C12.438428,12.1910888 12.5211932,12.379269 12.5211932,12.5795034 C12.5211932,12.7797378 12.438428,12.9679179 12.2891676,13.1098901 Z" id="形状" fill-opacity="0.55" fill-rule="nonzero"></path>
            </g>
        </g>
    </g>
</svg>