<?xml version="1.0" encoding="UTF-8"?>
<svg width="20px" height="20px" viewBox="0 0 20 20" version="1.1" xmlns="http://www.w3.org/2000/svg" xmlns:xlink="http://www.w3.org/1999/xlink">
    <title>model-settings-second-menu</title>
    <g id="页面-1" stroke="none" stroke-width="1" fill="none" fill-rule="evenodd">
        <g id="首页-我的资源" transform="translate(-905.000000, -398.000000)">
            <g id="1.页面布局/无菜单-首页" transform="translate(-560.000000, 0.000000)">
                <g id="编组-15" transform="translate(702.000000, 251.000000)">
                    <g id="编组-11备份-3" transform="translate(747.000000, 38.000000)">
                        <g id="编组-9" transform="translate(16.000000, 108.000000)">
                            <g id="model-settings-second-menu" transform="translate(0.000000, 1.000000)">
                                <rect id="矩形" fill-opacity="0" fill="#D8D8D8" x="0" y="0" width="20" height="20"></rect>
                                <g id="编组-21" transform="translate(2.000000, 2.100000)" fill="#57689C">
                                    <path d="M15.0588235,3.22957983 L15.0592692,8.3388137 C14.2726889,7.74784504 13.294888,7.39764706 12.2352941,7.39764706 C10.1945087,7.39764706 8.45713522,8.69670758 7.80498014,10.513022 L6.47663866,10.5129412 L6.47663866,11.8117647 L7.53830365,11.8118524 C7.53240454,11.9083215 7.52941176,12.0055759 7.52941176,12.1035294 C7.52941176,13.1632673 7.8797049,14.1411898 8.47081925,14.9278251 L1.07563025,14.9270588 C0.481576067,14.9270588 0,14.4454828 0,13.8514286 L0,3.22957983 L15.0588235,3.22957983 Z M4.01470588,9.42433757 C3.86000534,9.33502117 3.66940642,9.33502117 3.51470588,9.42433757 L2.38454042,10.0768389 C2.22983988,10.1661553 2.13454042,10.3312188 2.13454042,10.5098516 L2.13454042,11.8148543 C2.13454042,11.9934871 2.22983988,12.1585506 2.38454042,12.247867 L3.51470588,12.9003683 C3.66940642,12.9896847 3.86000534,12.9896847 4.01470588,12.9003683 L5.14487135,12.247867 C5.29957189,12.1585506 5.39487135,11.9934871 5.39487135,11.8148543 L5.39487135,10.5098516 C5.39487135,10.3312188 5.29957189,10.1661553 5.14487135,10.0768389 Z M4.01470588,4.71845521 C3.86000534,4.62913882 3.66940642,4.62913882 3.51470588,4.71845521 L2.38454042,5.37095655 C2.22983988,5.46027295 2.13454042,5.62533646 2.13454042,5.80396925 L2.13454042,7.10897192 C2.13454042,7.28760472 2.22983988,7.45266823 2.38454042,7.54198463 L3.51470588,8.19448596 C3.66940642,8.28380236 3.86000534,8.28380236 4.01470588,8.19448596 L5.14487135,7.54198463 C5.29957189,7.45266823 5.39487135,7.28760472 5.39487135,7.10897192 L5.39487135,5.80396925 C5.39487135,5.62533646 5.29957189,5.46027295 5.14487135,5.37095655 Z M13.0648739,5.80705882 L6.47663866,5.80705882 L6.47663866,7.10588235 L13.0648739,7.10588235 L13.0648739,5.80705882 Z" id="形状结合" opacity="0.55"></path>
                                    <path d="M12.2352941,8.33882353 C14.3144838,8.33882353 16,10.0243398 16,12.1035294 C16,14.1827191 14.3144838,15.8682353 12.2352941,15.8682353 C10.1561045,15.8682353 8.47058824,14.1827191 8.47058824,12.1035294 C8.47058824,10.0243398 10.1561045,8.33882353 12.2352941,8.33882353 Z M12.8029055,10.7523735 L11.0383834,12.4308214 L10.6295307,12.796637 C10.6080121,12.796637 10.5864936,12.8396741 10.5864936,12.8827112 L10.5864936,12.9042298 L10.220678,14.0016765 C10.1991594,14.0447136 10.220678,14.0662322 10.2421965,14.0877507 C10.2637151,14.1092693 10.3067522,14.1092693 10.3282708,14.1092693 L11.4472361,13.7649723 L11.4687546,13.7649723 C11.5117918,13.7649723 11.5333103,13.7219352 11.5548289,13.7219352 L13.7066852,11.6346346 L12.8029055,10.7523735 Z M13.5990924,10.235928 C13.5130181,10.1498537 13.3623882,10.1713723 13.2547954,10.2574465 L12.9320169,10.580225 L13.8357966,11.4624861 L14.158575,11.1397076 C14.2661678,11.0536334 14.2661678,10.9030034 14.2016121,10.8169292 Z" id="形状"></path>
                                    <path d="M13.9831933,0 C14.5772475,0 15.0588235,0.481576067 15.0588235,1.07563025 L15.0588235,3.22689076 L0,3.22689076 L0,1.07563025 C0,0.481576067 0.481576067,0 1.07563025,0 L13.9831933,0 Z M2.68907563,1.07563025 C2.39204854,1.07563025 2.1512605,1.31641829 2.1512605,1.61344538 C2.1512605,1.91047247 2.39204854,2.1512605 2.68907563,2.1512605 C2.98610272,2.1512605 3.22689076,1.91047247 3.22689076,1.61344538 C3.22689076,1.31641829 2.98610272,1.07563025 2.68907563,1.07563025 Z M4.84033613,1.07563025 C4.54330904,1.07563025 4.30252101,1.31641829 4.30252101,1.61344538 C4.30252101,1.91047247 4.54330904,2.1512605 4.84033613,2.1512605 C5.13736323,2.1512605 5.37815126,1.91047247 5.37815126,1.61344538 C5.37815126,1.31641829 5.13736323,1.07563025 4.84033613,1.07563025 Z M6.99159664,1.07563025 C6.69456955,1.07563025 6.45378151,1.31641829 6.45378151,1.61344538 C6.45378151,1.91047247 6.69456955,2.1512605 6.99159664,2.1512605 C7.28862373,2.1512605 7.52941176,1.91047247 7.52941176,1.61344538 C7.52941176,1.31641829 7.28862373,1.07563025 6.99159664,1.07563025 Z" id="形状"></path>
                                </g>
                            </g>
                        </g>
                    </g>
                </g>
            </g>
        </g>
    </g>
</svg>