<?xml version="1.0" encoding="UTF-8"?>
<svg width="20px" height="20px" viewBox="0 0 20 20" version="1.1" xmlns="http://www.w3.org/2000/svg" xmlns:xlink="http://www.w3.org/1999/xlink">
    <title>monitoring-ledger-second-menu</title>
    <g id="monitoring-ledger-second-menu" stroke="none" stroke-width="1" fill="none" fill-rule="evenodd">
        <g id="编组-3" fill="#000000" opacity="0">
            <rect id="矩形" x="0" y="0" width="20" height="20"></rect>
        </g>
        <g id="alert-ledger-second-menu">
            <polygon id="路径" fill="#D8D8D8" fill-rule="nonzero" opacity="0.001" points="0 0 20 0 20 20 0 20"></polygon>
            <g id="编组-7" transform="translate(2.4, 1.5455)">
                <g id="编组" fill="#57689C">
                    <path d="M4.59014989,0.000856541087 C4.81027838,0.000856541087 4.91905783,0.110492512 4.91905781,0.329764454 L4.91905781,1.25738758 L8.20214131,1.25738758 L8.20214131,0.329764454 C8.20214131,0.110492512 8.31263383,0.000856522685 8.5301927,0.000856541087 L9.84411135,0.000856541087 C10.0633833,0.000856541087 10.1721627,0.110492512 10.1721627,0.329764454 L10.1721627,1.25824412 L12.3546038,1.25824412 C12.785439,1.25824412 13.1340471,1.59828693 13.1340471,2.01884368 L13.1352023,7.28919961 C12.7905708,7.2051548 12.4304672,7.16059957 12.0599572,7.16059957 C9.56225826,7.16059957 7.53747323,9.1853846 7.53747323,11.6830835 C7.53747323,12.9140923 8.02931004,14.0302264 8.82719517,14.8456973 L0.746895068,14.8453961 C0.339776171,14.8501585 0.00564008852,14.5244524 0,14.1173448 L0,2.01713063 C0.00517332949,1.59171135 0.35401912,1.25091583 0.779443243,1.25567451 L2.94817986,1.25567451 L2.94817986,0.328907931 C2.94817986,0.108779448 3.05867237,0 3.27708779,0 L4.59014989,0.000856541087 Z M5.86466809,7.28051392 L2.22441113,7.28051392 C1.90412833,7.2786533 1.63762147,7.52618619 1.61586498,7.8457346 C1.5941085,8.16528301 1.82460484,8.44665442 2.14218414,8.48822271 L2.22441113,8.49421842 L5.86466809,8.49421842 C6.19982333,8.49421842 6.47152034,8.22252141 6.47152034,7.88736617 C6.47152034,7.55221093 6.19982333,7.28051392 5.86466809,7.28051392 Z M9.10064239,4.04453961 L2.22441113,4.04453961 C1.90412833,4.04267898 1.63762147,4.29021187 1.61586498,4.60976028 C1.5941085,4.9293087 1.82460484,5.2106801 2.14218414,5.25224839 L2.22441113,5.25824412 L9.10064239,5.25824412 C9.43579763,5.25824412 9.70749464,4.98654711 9.70749464,4.65139186 C9.70749464,4.31623662 9.43579763,4.04453961 9.10064239,4.04453961 Z" id="形状结合"></path>
                    <path d="M11.988498,8.46252677 C13.7974916,8.46252677 15.2403793,9.9054145 15.2403793,11.7144081 C15.2403793,13.1357602 14.3358825,14.3417559 13.0437443,14.7940043 C13.711349,15.0416641 14.131294,15.4831447 14.131294,16 L9.75955949,16 C9.75955949,15.4831447 10.2118079,15.0308963 10.9009483,14.7940043 C9.64111348,14.3417559 8.73661669,13.1357602 8.73661669,11.7144081 C8.73661669,9.9054145 10.1795044,8.46252677 11.988498,8.46252677 Z M12.0531049,10.7237687 C11.1163047,10.7237687 10.3302539,11.5098195 10.3302539,12.4466198 C10.3302539,13.38342 11.1163047,14.1694708 12.0531049,14.1694708 C13.0222086,14.1694708 13.7759559,13.38342 13.7759559,12.4466198 C13.7759559,11.5098195 13.0114408,10.7237687 12.0531049,10.7237687 Z M12.0531049,11.6928724 C12.5053533,11.6928724 12.8929948,12.0589783 12.8929948,12.5327623 C12.8929948,12.9850107 12.5268889,13.3726522 12.0531049,13.3726522 C11.6008565,13.3726522 11.213215,13.0065463 11.213215,12.5327623 C11.213215,12.0805139 11.6008565,11.6928724 12.0531049,11.6928724 Z" id="形状结合" opacity="0.55"></path>
                </g>
                <g id="监控" transform="translate(8.1548, 8.4625)"></g>
            </g>
        </g>
    </g>
</svg>