<?xml version="1.0" encoding="UTF-8"?>
<svg width="20px" height="20px" viewBox="0 0 20 20" version="1.1" xmlns="http://www.w3.org/2000/svg" xmlns:xlink="http://www.w3.org/1999/xlink">
    <title>network-connections-second-menu</title>
    <g id="页面架构调整" stroke="none" stroke-width="1" fill="none" fill-rule="evenodd">
        <g id="network-connections-second-menu">
            <rect id="安全区" fill="#D8D8D8" opacity="0" x="0" y="0" width="20" height="20"></rect>
            <g id="形状" transform="translate(3.180000, 2.000000)" fill="#57689C" fill-rule="nonzero">
                <path d="M6.85396852,4.82194313 L6.83018542,4.82194313 C5.92494118,4.83383467 5.19063798,5.58002943 5.18915153,6.48527367 C5.18915153,6.93417968 5.36603833,7.34146526 5.65292199,7.64024044 C5.76143238,7.75321017 5.81048502,7.9107732 5.78075614,8.06387692 L5.1742871,11.1839223 L4.99145452,12.1278141 L4.34931083,15.4336649 C4.29282598,15.7279808 4.51727896,16 4.81605416,16 L8.89485577,16 C9.19363096,16 9.41957041,15.7264943 9.3615991,15.4336649 L8.71945541,12.1278141 L8.53364994,11.1839223 L7.92718089,8.06387692 C7.89745201,7.91077322 7.94501821,7.75321018 8.0535286,7.64024044 C8.34189869,7.34146525 8.51878549,6.93417968 8.5187855,6.48676011 C8.5187855,5.56665144 7.77407719,4.82194313 6.85396852,4.82194313 L6.85396852,4.82194313 Z" id="路径"></path>
                <path d="M6.81980966,0 C10.5862865,0 13.6396193,3.05333279 13.6396193,6.81980966 C13.6396193,8.66500323 12.9023265,10.3951946 11.6167361,11.6674181 C11.3122878,11.9687009 10.8212456,11.9661348 10.5199628,11.6616865 C10.2186799,11.3572381 10.2212461,10.866196 10.5256944,10.5649131 C11.5198149,9.58112896 12.0885264,8.24654427 12.0885264,6.81980966 C12.0885264,3.90997773 9.72964158,1.55109288 6.81980966,1.55109288 C3.90997773,1.55109288 1.55109288,3.90997773 1.55109288,6.81980966 C1.55109288,8.22771338 2.10477911,9.54611592 3.07573298,10.5267317 C3.37709954,10.8310972 3.37466846,11.32214 3.070303,11.6235066 C2.76593754,11.9248731 2.27489472,11.9224421 1.97352815,11.6180766 C0.717843471,10.3498966 0,8.64061329 0,6.81980966 C0,3.05333279 3.05333279,0 6.81980966,0 Z M6.81980966,2.11982693 C9.22246993,2.11982693 11.1702109,4.06756793 11.1702109,6.47022821 C11.1702109,7.64708751 10.6997383,8.75113678 9.87980579,9.5625441 C9.59565401,9.84374142 9.13734802,9.84134635 8.8561507,9.55719457 C8.57495338,9.27304279 8.57734845,8.81473679 8.86150023,8.53353948 C9.40939424,7.99134218 9.72252424,7.25652582 9.72252424,6.47022821 C9.72252424,4.86710321 8.42293465,3.56751362 6.81980966,3.56751362 C5.21668466,3.56751362 3.91709507,4.86710321 3.91709507,6.47022821 C3.91709507,7.24615379 4.22194727,7.97204851 4.75706445,8.51249064 C5.03833991,8.79656506 5.0360709,9.2548717 4.75199648,9.53614716 C4.46792205,9.81742262 4.00961541,9.81515361 3.72833995,9.53107919 C2.92747401,8.72224384 2.46940838,7.63152704 2.46940838,6.47022821 C2.46940838,4.06756793 4.41714938,2.11982693 6.81980966,2.11982693 Z" id="形状结合" opacity="0.550000012"></path>
            </g>
        </g>
    </g>
</svg>