<?xml version="1.0" encoding="UTF-8"?>
<svg width="20px" height="20px" viewBox="0 0 20 20" version="1.1" xmlns="http://www.w3.org/2000/svg" xmlns:xlink="http://www.w3.org/1999/xlink">
    <title>next-artifact-second-menu</title>
    <g id="next-artifact-second-menu" stroke="none" stroke-width="1" fill="none" fill-rule="evenodd">
        <g id="编组-3">
            <g id="编组">
                <rect id="矩形" x="0" y="0" width="20" height="20"></rect>
            </g>
            <g id="编组-2" transform="translate(2.000000, 2.000000)" fill="#57689C">
                <g id="编组" transform="translate(5.000000, 0.000000)">
                    <path d="M5.64327783,0.0603645596 L10.7224531,3.68460417 C10.8944441,3.84119012 11,4.12647313 11,4.43472228 L11,15.1291528 C11,15.6101084 10.7474427,16 10.4358974,16 L0.564102564,16 C0.252557321,16 0,15.6101084 0,15.1291528 L0,4.43472228 C0,4.12647313 0.105555935,3.84119012 0.277546912,3.68460417 L5.35672217,0.0603645596 C5.44512653,-0.0201215199 5.55487347,-0.0201215199 5.64327783,0.0603645596 Z M9.30769231,12.0811875 L6.48717949,12.0811875 C6.33140687,12.0811875 6.20512821,12.2761333 6.20512821,12.5166111 L6.20512821,12.9520347 C6.20512821,13.1925125 6.33140687,13.3874583 6.48717949,13.3874583 L9.30769231,13.3874583 C9.46346493,13.3874583 9.58974359,13.1925125 9.58974359,12.9520347 L9.58974359,12.5166111 C9.58974359,12.2761333 9.46346493,12.0811875 9.30769231,12.0811875 Z M4.51282051,12.0811875 L1.69230769,12.0811875 C1.53653507,12.0811875 1.41025641,12.2761333 1.41025641,12.5166111 L1.41025641,12.9520347 C1.41025641,13.1925125 1.53653507,13.3874583 1.69230769,13.3874583 L4.51282051,13.3874583 C4.66859313,13.3874583 4.79487179,13.1925125 4.79487179,12.9520347 L4.79487179,12.5166111 C4.79487179,12.2761333 4.66859313,12.0811875 4.51282051,12.0811875 Z M9.30769231,9.03322215 L6.48717949,9.03322215 C6.33140687,9.03322215 6.20512821,9.22816795 6.20512821,9.46864577 L6.20512821,9.90406938 C6.20512821,10.1445472 6.33140687,10.339493 6.48717949,10.339493 L9.30769231,10.339493 C9.46346493,10.339493 9.58974359,10.1445472 9.58974359,9.90406938 L9.58974359,9.46864577 C9.58974359,9.22816795 9.46346493,9.03322215 9.30769231,9.03322215 Z M4.51282051,9.03322215 L1.69230769,9.03322215 C1.53653507,9.03322215 1.41025641,9.22816795 1.41025641,9.46864577 L1.41025641,9.90406938 C1.41025641,10.1445472 1.53653507,10.339493 1.69230769,10.339493 L4.51282051,10.339493 C4.66859313,10.339493 4.79487179,10.1445472 4.79487179,9.90406938 L4.79487179,9.46864577 C4.79487179,9.22816795 4.66859313,9.03322215 4.51282051,9.03322215 Z M9.30769231,5.98525684 L6.48717949,5.98525684 C6.33140687,5.98525684 6.20512821,6.18020264 6.20512821,6.42068046 L6.20512821,6.85610407 C6.20512821,7.0965819 6.33140687,7.29152769 6.48717949,7.29152769 L9.30769231,7.29152769 C9.46346493,7.29152769 9.58974359,7.0965819 9.58974359,6.85610407 L9.58974359,6.42068046 C9.58974359,6.18020264 9.46346493,5.98525684 9.30769231,5.98525684 Z" id="形状"></path>
                </g>
                <g id="编组备份" transform="translate(0.000000, 6.000000)" opacity="0.55">
                    <path d="M4.78270905,0.0359312855 L6.537,0.866 L5.92002509,1.20328869 C5.78640873,1.29649461 5.69580242,1.45353836 5.66931188,1.63071503 L5.6612803,1.73908734 L5.6612803,9.37796626 C5.6612803,9.72150601 5.89672839,10 6.18716833,10 L8.85468914,9.99988417 C8.85129486,9.99996126 8.84789189,10 8.84448057,10 L0.478080031,10 C0.21404372,10 0,9.76792168 0,9.48163855 L0,2.52066802 C0,2.33718639 0.0894592361,2.16737507 0.235222537,2.07416915 L4.53985155,0.0359312855 C4.61477473,-0.0119770952 4.70778587,-0.0119770952 4.78270905,0.0359312855 Z" id="形状结合"></path>
                </g>
            </g>
        </g>
    </g>
</svg>