<?xml version="1.0" encoding="UTF-8"?>
<svg width="20px" height="20px" viewBox="0 0 20 20" version="1.1" xmlns="http://www.w3.org/2000/svg" xmlns:xlink="http://www.w3.org/1999/xlink">
    <title>notification-configuration-second-menu</title>
    <g id="notification-configuration-second-menu" stroke="none" stroke-width="1" fill="none" fill-rule="evenodd">
        <g id="next-documents-second-menu">
            <g id="编组-3" fill="#000000" opacity="0">
                <rect id="矩形" x="0" y="0" width="20" height="20"></rect>
            </g>
            <g id="系统管路-Next-Documents" transform="translate(2.000000, 2.000000)">
                <path d="M2.71997103,4.26666667 C3.17411318,4.26666667 3.57123079,4.57269122 3.68695797,5.01184076 L3.91111111,5.86243386 L13.2978723,5.86243386 C13.8501571,5.86243386 14.2978723,6.31014911 14.2978723,6.86243386 L14.297,7.23266667 L2.49981874,7.23298352 C2.07205342,7.23298352 1.69641731,7.50418971 1.55689184,7.89984175 L1.52483165,8.01072202 L0.27863104,13.4773887 C0.262008233,13.5503074 0.253618131,13.6248608 0.253618131,13.6996502 C0.253618131,14.0453822 0.429068792,14.3501355 0.695790233,14.5297303 C0.292442654,14.4021884 2.34119666e-16,14.0241349 0,13.5777778 L0,5.26666667 C-6.76353751e-17,4.71438192 0.44771525,4.26666667 1,4.26666667 L2.71997103,4.26666667 Z" id="形状结合" fill="#7986B0"></path>
                <g id="编组" transform="translate(7.466225, 3.651404) rotate(-360.000000) translate(-7.466225, -3.651404) translate(2.132451, 0.000000)" fill="#57689C">
                    <path d="M9.66754936,-2.84217094e-14 C10.2198341,-2.85231625e-14 10.6675494,0.44771525 10.6675494,1 L10.6666784,7.232 L0.367368096,7.23298352 C0.238504747,7.23298352 0.114372135,7.25759554 -1.49547606e-13,7.3028074 L0.000882690488,1 C0.000882690488,0.44771525 0.448597941,-2.83202564e-14 1.00088269,-2.84217094e-14 L9.66754936,-2.84217094e-14 Z M5.86754936,4.62222222 L2.3119938,4.62222222 C2.01744194,4.62222222 1.77866047,4.86100369 1.77866047,5.15555556 C1.77866047,5.45010742 2.01744194,5.68888889 2.3119938,5.68888889 L5.86754936,5.68888889 C6.16210122,5.68888889 6.40088269,5.45010742 6.40088269,5.15555556 C6.40088269,4.86100369 6.16210122,4.62222222 5.86754936,4.62222222 Z M8.7119938,1.77777778 L1.95643825,1.77777778 C1.66188638,1.77777778 1.42310491,2.01655924 1.42310491,2.31111111 C1.42310491,2.60566298 1.66188638,2.84444444 1.95643825,2.84444444 L8.7119938,2.84444444 C9.00654567,2.84444444 9.24532713,2.60566298 9.24532713,2.31111111 C9.24532713,2.01655924 9.00654567,1.77777778 8.7119938,1.77777778 Z" id="形状结合"></path>
                </g>
                <path d="M14.7463819,7.23298352 C15.2986666,7.23298352 15.7463819,7.68069877 15.7463819,8.23298352 C15.7463819,8.30777293 15.7379918,8.3823263 15.721369,8.45524501 L14.4751684,13.9219117 C14.3714493,14.3768924 13.9668343,14.6996502 13.5001813,14.6996502 L1.25361813,14.6996502 C0.701333381,14.6996502 0.253618131,14.2519349 0.253618131,13.6996502 C0.253618131,13.6248608 0.262008233,13.5503074 0.27863104,13.4773887 L1.52483165,8.01072202 C1.62855066,7.5557413 2.03316566,7.23298352 2.49981874,7.23298352 L14.7463819,7.23298352 Z M9.24444444,12.8 L7.11111111,12.8 C6.9147432,12.8 6.75555556,12.9591876 6.75555556,13.1555556 C6.75555556,13.3519235 6.9147432,13.5111111 7.11111111,13.5111111 L9.24444444,13.5111111 C9.44081236,13.5111111 9.6,13.3519235 9.6,13.1555556 C9.6,12.9591876 9.44081236,12.8 9.24444444,12.8 Z" id="形状结合" fill="#57689C" opacity="0.55"></path>
            </g>
        </g>
    </g>
</svg>