<?xml version="1.0" encoding="UTF-8"?>
<svg width="20px" height="20px" viewBox="0 0 20 20" version="1.1" xmlns="http://www.w3.org/2000/svg" xmlns:xlink="http://www.w3.org/1999/xlink">
    <title>operation-and-maintenance-work-management-second-menu</title>
    <g id="operation-and-maintenance-work-management-second-menu" stroke="none" stroke-width="1" fill="none" fill-rule="evenodd">
        <g id="okr-(4)">
            <rect id="矩形" x="0" y="0" width="20" height="20"></rect>
            <g id="编组-30" transform="translate(1.250000, 1.250000)" fill="#57689C" fill-rule="nonzero">
                <path d="M7.88917825,1.72164352 C8.50526793,1.72164352 9.15409675,1.78712179 9.79043079,1.91807835 L8.38799291,3.32130479 C8.22172135,3.30770361 8.0554498,3.29947918 7.88917825,3.29947918 C4.3904992,3.29947918 1.57783566,6.11214272 1.57783566,9.61082178 C1.57783566,13.1095008 4.3904992,15.9221644 7.88917825,15.9221644 C11.3878573,15.9221644 14.2005208,13.1095008 14.2005208,9.61082178 C14.2005208,9.36256727 14.2005208,9.11431285 14.1815643,8.86605843 L15.5075617,7.53860373 C15.6982862,8.20821013 15.7783565,8.92953346 15.7783565,9.61082178 C15.7783565,14.001321 12.2796774,17.5 7.88917825,17.5 C3.49867905,17.5 0,14.001321 0,9.61082178 C0,5.22032256 3.49867905,1.72164352 7.88917825,1.72164352 Z M7.18850247,4.9292309 L7.18865387,6.53655199 C5.7992323,6.86362718 4.73350695,8.13572682 4.73350695,9.61082178 C4.73350695,11.3258605 6.1741395,12.7664931 7.88917825,12.7664931 C9.47011681,12.7664931 10.8178837,11.542341 11.0189838,10.0075318 L12.606191,10.0071241 C12.4037215,12.4298147 10.3626047,14.3443287 7.88917825,14.3443287 C5.28231936,14.3443287 3.15567131,12.2176807 3.15567131,9.61082178 C3.15567131,7.24194093 4.91176225,5.26959676 7.18850247,4.9292309 Z" id="形状结合"></path>
                <path d="M14.579094,0 L10.7337918,3.84530219 L10.7337918,5.26639212 L8.30957958,7.69060438 C8.14239253,7.60701085 8.05879899,7.60701085 7.89161195,7.60701085 C6.80489611,7.60701085 5.96896086,8.44294612 5.96896086,9.52966192 C5.96896086,10.6163777 6.80489613,11.4523131 7.89161195,11.4523131 C8.9783278,11.4523131 9.81426305,10.6163777 9.81426305,9.52966192 C9.81426305,9.36247487 9.81426305,9.27888135 9.73066952,9.1116943 L12.1548817,6.68748208 L13.5759717,6.68748208 L17.4212739,2.84217988 L14.579094,2.84217988 L14.579094,0" id="路径" opacity="0.550000012"></path>
            </g>
        </g>
    </g>
</svg>