<?xml version="1.0" encoding="UTF-8"?>
<svg width="20px" height="20px" viewBox="0 0 20 20" version="1.1" xmlns="http://www.w3.org/2000/svg" xmlns:xlink="http://www.w3.org/1999/xlink">
    <title>performance-management-second-menu</title>
    <g id="performance-management-second-menu" stroke="none" stroke-width="1" fill="none" fill-rule="evenodd">
        <g id="Dashboard">
            <rect id="矩形" x="0" y="0" width="20" height="20"></rect>
            <path d="M10,3.5 C14.418278,3.5 18,7.081722 18,11.5 C18,13.3921736 17.3430872,15.130917 16.2448832,16.5006084 L3.75511684,16.5006084 C2.65691284,15.130917 2,13.3921736 2,11.5 C2,7.081722 5.581722,3.5 10,3.5 Z M13.1266527,8.44515689 C12.9160124,8.23451657 12.5848515,8.20471396 12.3399874,8.37436146 L9.43299076,10.3883961 C9.37135583,10.4310982 9.31368062,10.4792496 9.26066017,10.5322701 C8.77160353,11.0213267 8.77160353,11.8142442 9.26066017,12.3033009 C9.31320349,12.3558442 9.37031021,12.4036164 9.43130709,12.4460544 C10.0001834,12.8418444 10.7822,12.7015302 11.17799,12.1326539 L13.1966164,9.23124478 C13.3666664,8.98682884 13.3371951,8.65569921 13.1266527,8.44515689 Z M17,10.9 L14.9497475,10.9 L14.9497475,12.1 L17,12.1 L17,10.9 Z M5.05025253,10.9 L3,10.9 L3,12.1 L5.05025253,12.1 L5.05025253,10.9 Z M14.5254834,6.12598846 L13.0757359,7.57573593 L13.9242641,8.42426407 L15.3740115,6.9745166 L14.5254834,6.12598846 Z M5.4745166,6.12598846 L4.62598846,6.9745166 L6.07573593,8.42426407 L6.92426407,7.57573593 L5.4745166,6.12598846 Z M10.6,4.5 L9.4,4.5 L9.4,6.55025253 L10.6,6.55025253 L10.6,4.5 Z" id="形状结合" fill="#57689C" fill-rule="nonzero"></path>
        </g>
    </g>
</svg>