<?xml version="1.0" encoding="UTF-8"?>
<svg width="20px" height="20px" viewBox="0 0 20 20" version="1.1" xmlns="http://www.w3.org/2000/svg" xmlns:xlink="http://www.w3.org/1999/xlink">
    <title>permission-center-second-menu</title>
    <g id="permission-center-second-menu" stroke="none" stroke-width="1" fill="none" fill-rule="evenodd">
        <g>
            <rect id="矩形" fill="#000000" opacity="0" x="0" y="0" width="20" height="20"></rect>
            <g id="编组" transform="translate(3.800000, 2.000000)" fill="#57689C">
                <path d="M6.44066182,0.078480247 C8.52970755,1.6351437 10.5122731,2.41334221 12.3881606,2.41334221 L12.3985656,3.62312246 C12.4034737,4.35607233 12.4063492,5.13670047 12.407192,5.96500689 L12.4058498,7.82893869 C12.4051671,8.12259477 12.4042666,8.42136092 12.4031483,8.72523715 C12.3967906,10.4494874 11.5920314,12.0735278 10.2244002,13.1236064 L6.68746615,15.8357691 C6.40190128,16.0547436 6.00489807,16.0547436 5.7193332,15.8357691 L2.18541902,13.1259221 C0.815946034,12.077212 0.0105292148,10.4526914 0.0040889061,8.72781259 L0,7.18961572 L0,5.49848501 L0.00471082067,4.11672483 C0.00791677839,3.50399809 0.0125594264,2.93620388 0.0186387646,2.41334221 C1.89452621,2.41334221 3.8770918,1.6351437 5.96633556,0.0787466892 C6.10699144,-0.026204447 6.29980791,-0.026204447 6.44066182,0.078480247 Z M6.16248039,3.40526023 C4.9942251,3.40526023 4.04716706,4.35231827 4.04716706,5.52057355 C4.04716706,5.68868056 4.06677684,5.85220745 4.10383369,6.00899153 L3.86637105,6.00872278 C3.42702719,6.00872278 3.07086861,6.36488136 3.07086861,6.80422523 L3.07086861,9.7692798 C3.07086861,10.2086237 3.42702719,10.5647822 3.86637105,10.5647822 L8.45858972,10.5647822 C8.89793359,10.5647822 9.25409216,10.2086237 9.25409216,9.7692798 L9.25409216,6.80422523 C9.25409216,6.36488136 8.89793359,6.00872278 8.45858972,6.00872278 L8.22110549,6.00908285 C8.25817631,5.85227095 8.27779371,5.6887132 8.27779371,5.52057355 C8.27779371,4.35231827 7.33073567,3.40526023 6.16248039,3.40526023 Z M6.16248039,7.31045406 C6.52194355,7.31045406 6.81334602,7.60185653 6.81334602,7.96131969 C6.81334602,8.2021235 6.68257511,8.41238413 6.48817569,8.52495918 L6.4879132,8.93761815 C6.4879132,9.11734973 6.34221197,9.26305097 6.16248039,9.26305097 C5.99558677,9.26305097 5.85803565,9.13742082 5.83923699,8.97557049 L5.83704757,8.93761815 L5.83678509,8.52495918 C5.64238566,8.41238413 5.51161475,8.2021235 5.51161475,7.96131969 C5.51161475,7.60185653 5.80301722,7.31045406 6.16248039,7.31045406 Z M6.16248039,4.05612587 C6.97127251,4.05612587 7.62692807,4.71178143 7.62692807,5.52057355 C7.62692807,5.69186658 7.597519,5.85629075 7.54347462,6.00907231 L4.78148481,6.00907231 C4.72744129,5.85628803 4.6980327,5.69186517 4.6980327,5.52057355 C4.6980327,4.71178143 5.35368826,4.05612587 6.16248039,4.05612587 Z" id="形状"></path>
            </g>
        </g>
    </g>
</svg>