<?xml version="1.0" encoding="UTF-8"?>
<svg width="20px" height="20px" viewBox="0 0 20 20" version="1.1" xmlns="http://www.w3.org/2000/svg" xmlns:xlink="http://www.w3.org/1999/xlink">
    <title>proxy-manage-second-menu</title>
    <g id="proxy-manage-second-menu" stroke="none" stroke-width="1" fill="none" fill-rule="evenodd">
        <g id="链路" transform="translate(-14.000000, 1.000000)"></g>
        <rect id="矩形" x="0" y="0" width="20" height="20"></rect>
        <g id="后台管理-后台管理" transform="translate(2.000000, 2.000000)" fill="#57689C" fill-rule="nonzero">
            <path d="M3.19770105,14.3992285 L12.7965439,14.3992285 C13.2382025,14.3992285 13.5969296,14.7579556 13.5969296,15.1996143 C13.5969296,15.6412729 13.2382025,16 12.7965439,16 L3.19770105,16 C2.75604242,16 2.39731532,15.6412729 2.39731532,15.1996143 C2.39731532,14.7579556 2.75604242,14.3992285 3.19770105,14.3992285 Z" id="路径" opacity="0.55"></path>
            <path d="M15.1977011,0 C15.6393597,0 15.9980868,0.358727097 15.9980868,0.800385728 L15.9980868,12 C15.9980868,12.2121504 15.9132266,12.4165863 15.7647213,12.5650916 C15.6142874,12.7155256 15.4117801,12.7984571 15.1996297,12.7984571 L0.798472507,12.7984571 C0.586322073,12.7984571 0.3818862,12.7135969 0.233380896,12.5650916 C0.0829469524,12.4146577 7.6786414e-06,12.2121504 7.6786414e-06,12 L7.6786414e-06,0.800385728 C-0.00191322116,0.358727097 0.356813876,0 0.798472507,0 L15.1977011,0 Z M8.79654387,2.39922854 L7.19577241,2.39922854 L7.19577241,3.56412729 C7.03183798,3.67598843 6.860189,3.81099325 6.68468273,3.95949855 L5.73193442,3.00675024 L4.60367984,4.13693346 L5.55642815,5.08968177 C5.41756605,5.2536162 5.28448986,5.42333655 5.16105688,5.60077146 L3.99808678,5.60077146 L3.99808678,7.20154291 L5.16105688,7.20154291 C5.27291802,7.36547734 5.40792284,7.53712633 5.55642815,7.71263259 L4.60367984,8.66152363 L5.7357917,9.79363549 L6.68854001,8.84088717 C6.86404628,8.98939248 7.03569526,9.12246866 7.19770105,9.23625844 L7.19770105,10.4011572 L8.79847251,10.4011572 L8.79847251,9.23818708 C8.96240693,9.12632594 9.13405592,8.99132112 9.30956219,8.84281581 L10.2623105,9.79556413 L11.3944224,8.66345227 L10.4397454,7.71070395 C10.5882507,7.53712633 10.7213269,7.3635487 10.8351167,7.19961427 L11.9980868,7.19961427 L11.9980868,5.59884282 L10.8351167,5.59884282 C10.7116837,5.42333655 10.5786075,5.25168756 10.4397454,5.08775313 L11.3924937,4.13500482 L10.2603819,3.0048216 L9.30763355,3.95756991 C9.14369912,3.81677917 8.97397877,3.68563163 8.79654387,3.56219865 L8.79654387,2.39922854 Z" id="形状结合"></path>
        </g>
    </g>
</svg>