<?xml version="1.0" encoding="UTF-8"?>
<svg width="20px" height="20px" viewBox="0 0 20 20" version="1.1" xmlns="http://www.w3.org/2000/svg" xmlns:xlink="http://www.w3.org/1999/xlink">
    <title>router-second-menu</title>
    <g id="页面架构调整" stroke="none" stroke-width="1" fill="none" fill-rule="evenodd">
        <g id="router-second-menu">
            <rect id="矩形" x="0" y="0" width="20" height="20"></rect>
            <g id="编组备份" transform="translate(2.000000, 2.000000)">
                <rect id="矩形备份-13" opacity="0.446149554" x="0" y="0" width="16" height="16"></rect>
                <path d="M14.239039,9.55675676 L10.5201201,9.55675676 L10.5201201,6.18378378 C10.5201201,5.75135135 10.1741742,5.40540541 9.74174174,5.36216216 L9.74174174,5.36216216 C9.30930931,5.36216216 8.96336336,5.75135135 8.96336336,6.18378378 L8.96336336,6.18378378 L8.96336336,9.55675676 L1.78498498,9.55675676 C1.09309309,9.55675676 0.530930931,10.1189189 0.530930931,10.8108108 L0.530930931,14.3567568 C0.530930931,15.0486486 1.09309309,15.6108108 1.78498498,15.6108108 L14.239039,15.6108108 C14.9309309,15.6108108 15.4930931,15.0486486 15.4930931,14.3567568 L15.4930931,10.8108108 C15.4930931,10.1189189 14.9309309,9.55675676 14.239039,9.55675676 Z M5.15795796,12.2378378 C5.15795796,12.8864865 4.63903904,13.4054054 3.99039039,13.4054054 C3.34174174,13.4054054 2.82282282,12.8864865 2.82282282,12.2378378 C2.82282282,11.5891892 3.34174174,11.0702703 3.99039039,11.0702703 L3.99039039,11.0702703 C4.63903904,11.1135135 5.15795796,11.6324324 5.15795796,12.2378378 L5.15795796,12.2378378 Z M7.44984985,13.4054054 C6.8012012,13.4054054 6.28228228,12.8864865 6.28228228,12.2810811 C6.28228228,11.6324324 6.8012012,11.1135135 7.40660661,11.1135135 C8.05525526,11.1135135 8.57417417,11.6324324 8.57417417,12.2378378 L8.57417417,12.2378378 C8.57417417,12.8864865 8.05525526,13.4054054 7.44984985,13.4054054 L7.44984985,13.4054054 Z" id="形状" fill="#57689C" fill-rule="nonzero"></path>
                <path d="M9.74174174,2.76756757 C7.83903904,2.76756757 6.28228228,4.41081081 6.28228228,6.48648649 C6.23903904,6.91891892 6.58498498,7.35135135 7.06066066,7.35135135 C7.49309309,7.39459459 7.92552553,7.04864865 7.92552553,6.57297297 C7.92552553,6.52972973 7.92552553,6.48648649 7.92552553,6.44324324 C7.83903904,5.44864865 8.61741742,4.58378378 9.61201201,4.4972973 C10.6066066,4.41081081 11.4714715,5.18918919 11.557958,6.18378378 C11.557958,6.27027027 11.557958,6.35675676 11.557958,6.44324324 C11.5147147,6.87567568 11.8606607,7.30810811 12.3363363,7.30810811 C12.7687688,7.35135135 13.2012012,7.00540541 13.2012012,6.52972973 C13.2012012,6.48648649 13.2012012,6.44324324 13.2012012,6.4 C13.2012012,4.41081081 11.6444444,2.76756757 9.74174174,2.76756757 Z" id="路径" fill="#57689C" fill-rule="nonzero"></path>
                <path d="M9.74174174,0.12972973 C6.58498498,0.12972973 3.99039039,2.85405405 3.99039039,6.18378378 C3.94714715,6.61621622 4.29309309,7.00540541 4.72552553,7.00540541 C5.15795796,7.00540541 5.54714715,6.7027027 5.54714715,6.27027027 C5.54714715,6.22702703 5.54714715,6.18378378 5.54714715,6.14054054 C5.41741742,3.80540541 7.14714715,1.81621622 9.48228228,1.68648649 C11.8174174,1.55675676 13.8066066,3.28648649 13.9363363,5.62162162 C13.9363363,5.79459459 13.9363363,5.96756757 13.9363363,6.14054054 C13.8930931,6.57297297 14.239039,6.96216216 14.6714715,6.96216216 C15.1039039,7.00540541 15.4930931,6.65945946 15.4930931,6.22702703 C15.4930931,6.18378378 15.4930931,6.14054054 15.4930931,6.0972973 C15.4930931,2.85405405 12.8984985,0.12972973 9.74174174,0.12972973 Z" id="路径" fill="#57689C" fill-rule="nonzero"></path>
            </g>
        </g>
    </g>
</svg>