<?xml version="1.0" encoding="UTF-8"?>
<svg width="20px" height="20px" viewBox="0 0 20 20" version="1.1" xmlns="http://www.w3.org/2000/svg" xmlns:xlink="http://www.w3.org/1999/xlink">
    <title>security-audit-second-menu</title>
    <g id="security-audit-second-menu" stroke="none" stroke-width="1" fill="none" fill-rule="evenodd">
        <g id="permission-center-second-menu">
            <rect id="矩形" fill="#000000" opacity="0" x="0" y="0" width="20" height="20"></rect>
            <g id="编组" transform="translate(3.800000, 2.000000)" fill="#57689C">
                <path d="M6.44066182,0.078480247 C8.52970755,1.6351437 10.5122731,2.41334221 12.3881606,2.41334221 L12.3985656,3.62312246 C12.4034737,4.35607233 12.4063492,5.13670047 12.407192,5.96500689 L12.4058498,7.82893869 C12.4051671,8.12259477 12.4042666,8.42136092 12.4031483,8.72523715 C12.3967906,10.4494874 11.5920314,12.0735278 10.2244002,13.1236064 L6.68746615,15.8357691 C6.40190128,16.0547436 6.00489807,16.0547436 5.7193332,15.8357691 L2.18541902,13.1259221 C0.815946034,12.077212 0.0105292148,10.4526914 0.0040889061,8.72781259 L0,7.18961572 L0,5.49848501 L0.00471082067,4.11672483 C0.00791677839,3.50399809 0.0125594264,2.93620388 0.0186387646,2.41334221 C1.89452621,2.41334221 3.8770918,1.6351437 5.96633556,0.0787466892 C6.10699144,-0.026204447 6.29980791,-0.026204447 6.44066182,0.078480247 Z M9.24838319,4.60497816 L5.283,9.137 L3.15896476,6.61353998 L2.24103524,7.38646002 L5.26671105,10.9797905 L10.1516168,5.39502184 L9.24838319,4.60497816 Z" id="形状结合"></path>
            </g>
        </g>
    </g>
</svg>