<?xml version="1.0" encoding="UTF-8"?>
<svg width="20px" height="20px" viewBox="0 0 20 20" version="1.1" xmlns="http://www.w3.org/2000/svg" xmlns:xlink="http://www.w3.org/1999/xlink">
    <title>shared-drive-second-menu</title>
    <g id="页面架构调整" stroke="none" stroke-width="1" fill="none" fill-rule="evenodd">
        <g id="shared-drive-second-menu">
            <rect id="矩形" x="0" y="0" width="20" height="20"></rect>
            <g id="编组-10" transform="translate(2.000000, 3.150000)" fill="#57689C" fill-rule="nonzero">
                <path d="M13.1428571,0 C13.3975236,0.0012042918 13.6209154,0.170144333 13.6914286,0.414857143 L16,7.92872699 L0.0457142857,7.92872699 L2.30857143,0.414857143 C2.37908459,0.170144333 2.60247638,0.0012042918 2.85714286,0 Z M7.42857143,2.28571429 C6.67428571,2.28571429 6.04571429,2.77257143 5.81257143,3.44685714 L5.71428571,3.42857143 C5.08571429,3.42857143 4.57142857,3.94285714 4.57142857,4.57142857 C4.57142857,5.2 5.08571429,5.71428571 5.71428571,5.71428571 L10.2857143,5.71428571 C10.9142857,5.71428571 11.4285714,5.2 11.4285714,4.57142857 C11.4285714,3.94285714 10.9142857,3.42857143 10.2857143,3.42857143 C10.0753585,3.43393333 9.8708521,3.4989315 9.696,3.616 C9.64812126,3.18751385 9.28826855,2.86197952 8.85714286,2.85714286 C8.808,2.85714286 8.768,2.87542857 8.72342857,2.88342857 C8.3986362,2.50620619 7.92634713,2.28819456 7.42857143,2.28571429 Z" id="形状结合" opacity="0.550000012"></path>
                <path d="M16,8.57142857 L16,13.1428571 C16,13.4594286 15.7451429,13.7142857 15.4285714,13.7142857 L0.571428571,13.7142857 C0.254857143,13.7142857 0,13.4594286 0,13.1428571 L0,8.57142857 L16,8.57142857 Z M4.68956218,10.5437789 L1.43164363,10.5437789 L1.43164363,11.6866361 L4.68956218,11.6866361 L4.68956218,10.5437789 Z M9.17357911,10.5437789 L5.91566056,10.5437789 L5.91566056,11.6866361 L9.17357911,11.6866361 L9.17357911,10.5437789 Z" id="形状结合"></path>
            </g>
        </g>
    </g>
</svg>