<?xml version="1.0" encoding="UTF-8"?>
<svg width="20px" height="20px" viewBox="0 0 20 20" version="1.1" xmlns="http://www.w3.org/2000/svg" xmlns:xlink="http://www.w3.org/1999/xlink">
    <title>slow-query-analysis-second-menu</title>
    <g id="slow-query-analysis-second-menu" stroke="none" stroke-width="1" fill="none" fill-rule="evenodd">
        <g>
            <rect id="矩形" x="0" y="0" width="20" height="20"></rect>
            <g id="编组" transform="translate(2.000000, 2.000000)">
                <g id="infrastructure"></g>
                <path d="M0,11.0257143 C0.278034286,11.3577143 0.639085714,11.6488 1.10304,11.8808 C2.69305143,12.6757714 4.82964571,13.1428571 7.14285714,13.1428571 L7.41291372,13.14032 C7.96642233,14.3076561 8.95878803,15.226422 10.176908,15.6835148 C9.26000131,15.8849408 8.23352893,16 7.14285714,16 C5.13088,16 3.33736,15.6084571 2.04121143,15.0020571 C0.698308571,14.3737143 0.0965714286,13.6244571 0.01168,13.0230857 L0,12.9403429 L0,11.0257143 Z M0,5.88284571 C0.278034286,6.21485714 0.639085714,6.50595429 1.10304,6.73793143 C2.69305143,7.53293714 4.82964571,7.99994286 7.14285714,7.99998857 C7.41440753,7.99998321 7.68352316,7.99354307 7.94960561,7.98089296 C7.31139665,8.81923357 6.93328879,9.86581487 6.93328879,11.000708 C6.93328879,11.1440181 6.93931798,11.28592 6.95113656,11.426174 L7.14285714,11.4285714 C5.03808,11.4285714 3.17493714,11.0001143 1.86969143,10.3475429 C0.513097143,9.66917714 0.000354285714,8.89070857 0.000354285714,8.28570286 L0,5.88284571 Z M7.14250286,0 C9.24728,0 11.1104,0.428457143 12.4156571,1.08108571 C13.7722286,1.75938286 14.2850286,2.53785143 14.2850286,3.14285714 C14.2850286,3.74786286 13.7722286,4.52633143 12.4156571,5.20462857 C11.1104,5.85725714 9.24728,6.28571429 7.14250286,6.28571429 C5.03772571,6.28571429 3.17458286,5.85725714 1.86933714,5.20462857 C0.512742857,4.52633143 0,3.74786286 0,3.14285714 C0,2.53785143 0.512742857,1.75938286 1.86933714,1.08108571 C3.17458286,0.428457143 5.03772571,0 7.14250286,0 Z" id="形状结合" fill="#57689C"></path>
                <path d="M11.6936174,8 C13.3303781,8 14.6572348,9.3268567 14.6572348,10.9636174 C14.6572348,11.5975374 14.4582029,12.184971 14.1192203,12.6668372 L15.8817573,14.408738 C16.1174482,14.6416681 16.1196862,15.0215605 15.8867561,15.2572514 C15.653826,15.4929423 15.2739336,15.4951803 15.0382427,15.2622502 L13.2438049,13.4899641 C12.792807,13.7672907 12.2618907,13.9272348 11.6936174,13.9272348 C10.0568567,13.9272348 8.73,12.6003781 8.73,10.9636174 C8.73,9.3268567 10.0568567,8 11.6936174,8 Z M11.6936174,9.2 C10.7195984,9.2 9.93,9.9895984 9.93,10.9636174 C9.93,11.9376364 10.7195984,12.7272348 11.6936174,12.7272348 C12.6676364,12.7272348 13.4572348,11.9376364 13.4572348,10.9636174 C13.4572348,9.9895984 12.6676364,9.2 11.6936174,9.2 Z" id="形状结合" fill="#57689C" fill-rule="nonzero" opacity="0.550000012"></path>
            </g>
        </g>
    </g>
</svg>