<?xml version="1.0" encoding="UTF-8"?>
<svg width="20px" height="20px" viewBox="0 0 20 20" version="1.1" xmlns="http://www.w3.org/2000/svg" xmlns:xlink="http://www.w3.org/1999/xlink">
    <title>storage-resource-monitoring-second-menu</title>
    <g id="storage-resource-monitoring-second-menu" stroke="none" stroke-width="1" fill="none" fill-rule="evenodd">
        <g id="磁盘" transform="translate(2, 2)">
            <rect id="矩形备份-15" x="0" y="0" width="16" height="16"></rect>
            <g id="disk" transform="translate(0.2194, 0.3523)" fill="#57689C" fill-rule="nonzero">
                <path d="M3.424,0 L3.42465306,5.21960454 L3.42983008,5.33409254 C3.48807537,5.97532976 4.03050143,6.48131882 4.68636735,6.48131882 L10.9949388,6.48131882 L11.1094268,6.4761418 C11.750664,6.41789652 12.2566531,5.87547046 12.2566531,5.21960454 L12.256,0 L14.8035918,0.000339229025 C15.2816327,0.000339229025 15.6734694,0.392175964 15.6734694,0.87021678 L15.6734694,10.8071964 L0,10.8071964 L0,0.87021678 C0,0.392175964 0.391836735,0.000339229025 0.869877551,0.000339229025 L3.424,0 Z M11.472,0 L11.4729796,5.21960454 L11.4666586,5.29656707 C11.4292462,5.52235693 11.2304106,5.69764535 10.9949388,5.69764535 L4.68636735,5.69764535 L4.60940481,5.69132436 C4.38361495,5.65391196 4.20832653,5.45507636 4.20832653,5.21960454 L4.208,0 L11.472,0 Z M9.95265306,0.846706576 L7.83673469,0.846706576 L7.83673469,4.71805351 L9.95265306,4.71805351 L9.95265306,0.846706576 Z" id="形状结合"></path>
                <path d="M14.8035918,15.6346249 L0.869877551,15.6346249 C0.391836735,15.6346249 2.27373675e-13,15.2427882 2.27373675e-13,14.7647474 L2.27373675e-13,11.5516862 L15.6734694,11.5516862 L15.6734694,14.7647474 C15.6734694,15.2427882 15.2816327,15.6346249 14.8035918,15.6346249 Z" id="路径"></path>
            </g>
        </g>
    </g>
</svg>