<?xml version="1.0" encoding="UTF-8"?>
<svg width="20px" height="20px" viewBox="0 0 20 20" version="1.1" xmlns="http://www.w3.org/2000/svg" xmlns:xlink="http://www.w3.org/1999/xlink">
    <title>storage-device-second-menu</title>
    <g id="页面架构调整" stroke="none" stroke-width="1" fill="none" fill-rule="evenodd">
        <g id="storage-device-second-menu">
            <rect id="矩形备份-14" opacity="0.446149554" x="0" y="0" width="20" height="20"></rect>
            <g id="编组" transform="translate(2.000000, 2.000000)" fill="#57689C" fill-rule="nonzero">
                <path d="M15,16 L1,16 C0.44771525,16 6.76353751e-17,15.5522847 0,15 L0,10.5363636 C-8.93288388e-17,10.2602213 0.223857625,10.0363636 0.5,10.0363636 L3.13190184,10.0363636 C3.40804422,10.0363636 3.63190184,10.2602213 3.63190184,10.5363636 C3.63190184,11.0808081 3.63190184,11.6252525 3.63190184,12.169697 C3.63190184,12.5090909 3.95771863,12.8969697 4.36809816,12.8969697 C4.36809816,12.8969697 6.78936605,12.8969697 11.6319018,12.8969697 C12.0245399,12.8484848 12.3190184,12.5575758 12.3680982,12.169697 L12.3680982,10.5363636 C12.3680982,10.2602213 12.5919558,10.0363636 12.8680982,10.0363636 L15.5,10.0363636 C15.7761424,10.0363636 16,10.2602213 16,10.5363636 L16,15 C16,15.5522847 15.5522847,16 15,16 Z" id="路径"></path>
                <path d="M15,0 L1,0 C0.44771525,1.01453063e-16 -6.76353751e-17,0.44771525 0,1 L0,8.13030303 C3.38176876e-17,8.40644541 0.223857625,8.63030303 0.5,8.63030303 L4.35474006,8.63030303 L4.35474006,8.63030303 C4.88728072,8.63030303 5.08868502,9.08334948 5.08868502,9.64848485 L5.08868502,10.9909091 C5.08868502,11.2670515 5.31254264,11.4909091 5.58868502,11.4909091 L10.411315,11.4909091 C10.6874574,11.4909091 10.911315,11.2670515 10.911315,10.9909091 L10.911315,9.64848485 L10.911315,9.64848485 C10.911315,8.99415668 11.1552055,8.63030303 11.6452599,8.63030303 L15.5,8.63030303 C15.7761424,8.63030303 16,8.40644541 16,8.13030303 L16,1 C16,0.44771525 15.5522847,1.20591542e-16 15,0 Z M3.12448888,2.13333333 L12.7287221,2.13333333 L12.7287221,2.86060606 L12.7287221,3.58787879 L3.12448888,3.58787879 L3.12448888,2.86060606 L3.12448888,2.13333333 Z M3.17341855,6.44848485 L3.17341855,5.76969697 L3.17341855,5.04242424 L12.7287221,5.04242424 L12.7287221,5.76969697 L12.7287221,6.44848485 L3.17341855,6.44848485 Z" id="形状" opacity="0.550000012"></path>
            </g>
        </g>
    </g>
</svg>