<?xml version="1.0" encoding="UTF-8"?>
<svg width="20px" height="20px" viewBox="0 0 20 20" version="1.1" xmlns="http://www.w3.org/2000/svg" xmlns:xlink="http://www.w3.org/1999/xlink">
    <title>tool-library-second-menu</title>
    <g id="tool-library-second-menu" stroke="none" stroke-width="1" fill="none" fill-rule="evenodd">
        <g id="编组-3" fill="#000000" opacity="0">
            <rect id="矩形" x="0" y="0" width="20" height="20"></rect>
        </g>
        <g id="编组-38" transform="translate(2.0035, 2.0139)" fill="#57689C">
            <path d="M8.66481302,-1.34318773 C8.73361381,-1.34318773 8.79972508,-1.27316805 8.81256306,-1.18679439 L9.28321693,1.62828557 C9.28696561,1.64851325 9.2926168,1.72153032 9.29193725,1.74123631 L9.03487526,2.3711539 C9.03178604,2.42153853 9.00273788,2.46619927 8.96053882,2.49386632 L8.9841007,8.0223948 C9.5360719,8.32811091 9.91037294,8.91541589 9.91319249,9.59053846 L9.93782848,15.4894591 C9.94198021,16.483563 9.13946543,17.2928091 8.14536155,17.2969608 L8.13069916,17.2969623 L7.83343558,17.2957823 C6.84505204,17.291859 6.04472413,16.4916966 6.0405963,15.5033139 L6.01596031,9.60439322 C6.0129915,8.89353005 6.42250232,8.2771918 7.0195912,7.98216646 L6.99656306,2.50806973 C6.94059715,2.4834561 6.89991166,2.43139639 6.89635533,2.3711539 L6.66736543,1.74123631 C6.66668588,1.72153032 6.67233707,1.64851325 6.67608575,1.62828557 L7.14673962,-1.18679439 C7.15957761,-1.27316805 7.22568887,-1.34318773 7.29448966,-1.34318773 L8.66481302,-1.34318773 Z" id="形状结合" transform="translate(7.9769, 7.9769) rotate(-45) translate(-7.9769, -7.9769)"></path>
            <path d="M10.974765,6.21671964 L11.275609,6.21807565 C12.2639626,6.2225305 13.0638486,7.02308009 13.0674837,8.01143703 L13.0903404,14.2258849 C13.0939967,15.2199908 12.2910788,16.0288368 11.2969729,16.0324931 C11.2920618,16.0325112 11.2871506,16.0325091 11.2822395,16.032487 L10.9813954,16.031131 C9.99304185,16.0266761 9.19315591,15.2261266 9.18952074,14.2377696 L9.16666405,8.0233217 C9.16300774,7.02921588 9.96592571,6.22036985 10.9600315,6.21671354 C10.9649427,6.21669547 10.9698539,6.21669751 10.974765,6.21671964 Z" id="矩形备份-23" transform="translate(11.1285, 11.1246) rotate(-405) translate(-11.1285, -11.1246)"></path>
            <path d="M13.7075753,1.18041293 L11.5461518,3.36092628 C11.1260621,3.7847282 11.1260621,4.46791811 11.5461518,4.89172004 C11.9718118,5.31370969 12.6481927,5.31073431 13.0635367,4.89172004 L15.2253398,2.71194459 C15.9407326,4.0858492 15.725935,5.82404392 14.5809469,6.9791914 C13.5399342,8.02936577 12.0212145,8.30387943 10.7304583,7.8027324 L5.06962248,13.5143232 C5.05409082,14.046817 4.84489886,14.5746308 4.4420466,14.9810576 C3.60400299,15.8264766 2.24529026,15.8264766 1.40724666,14.9810576 C0.569233176,14.1356085 0.569233176,12.7648891 1.40724666,11.9194399 C1.81042739,11.5127109 2.33411953,11.3016583 2.86236758,11.2862819 L8.58898893,5.5084724 C8.19445513,4.25347423 8.49044723,2.82537847 9.47696521,1.83010719 C10.6222023,0.674791222 12.3455891,0.45822647 13.7075753,1.18041293 Z M2.37286345,12.6152635 C1.99194823,12.9995586 1.99194823,13.6226128 2.37286345,14.0069079 C2.75379236,14.3911892 3.37138906,14.3911892 3.75231797,14.0069079 C4.13323319,13.6226128 4.13323319,12.9995586 3.75231797,12.6152635 C3.37138906,12.2309821 2.75379236,12.2309821 2.37286345,12.6152635 Z" id="形状结合"></path>
        </g>
    </g>
</svg>