<?xml version="1.0" encoding="UTF-8"?>
<svg width="20px" height="20px" viewBox="0 0 20 20" version="1.1" xmlns="http://www.w3.org/2000/svg" xmlns:xlink="http://www.w3.org/1999/xlink">
    <title>uwin-products-gtm-second-menu</title>
    <g id="uwin-products-gtm-second-menu" stroke="none" stroke-width="1" fill="none" fill-rule="evenodd">
        <g id="流程库" transform="translate(2, 4)" fill="#57689C">
            <path d="M3.76470588,0.945454545 C5.20331697,0.945454545 6.45346133,1.75604434 7.08722391,2.9473638 C7.05846019,2.94576886 7.0292668,2.94545455 7,2.94545455 C6.67204755,2.94545455 6.35331318,2.98492186 6.04828747,3.05936591 C5.53557847,2.35132237 4.70366653,1.89090909 3.76470588,1.89090909 C2.20531365,1.89090909 0.941176471,3.16079235 0.941176471,4.72727273 C0.941176471,6.03992527 1.82883075,7.14431267 3.0340467,7.46775099 C3.07990061,7.82178342 3.1725533,8.16185735 3.30535912,8.48102827 C1.44279188,8.25357707 0,6.65968181 0,4.72727273 C0,2.63863222 1.68551624,0.945454545 3.76470588,0.945454545 Z" id="形状结合"></path>
            <path d="M9.09803922,0 C12.9098869,0 16,3.10415907 16,6.93333333 C16,10.7625076 12.9098869,13.8666667 9.09803922,13.8666667 C5.28619153,13.8666667 2.19607843,10.7625076 2.19607843,6.93333333 C2.19607843,3.10415907 5.28619153,0 9.09803922,0 Z M9.09803922,3.15151515 C8.94750249,3.15151515 8.80700154,3.23157593 8.73675109,3.37168227 L7.79338761,5.28313328 L5.67583768,5.59336878 C5.52530096,5.61338399 5.40487156,5.72346755 5.35469264,5.86357389 C5.30451376,6.00368026 5.34465688,6.16380182 5.45505048,6.27388537 L6.99052508,7.7650173 L6.62923693,9.86661265 C6.60916536,10.0167266 6.66938005,10.1668405 6.78980944,10.2569089 C6.86005992,10.3069469 6.95038193,10.3369697 7.0306682,10.3369697 C7.09088289,10.3369697 7.15109757,10.3169545 7.21131225,10.2869317 L9.10807501,9.29617961 L11.0048377,10.2869317 C11.1353029,10.3569849 11.3059112,10.3469773 11.4263405,10.2569089 C11.5467699,10.1668405 11.6170204,10.0167266 11.5869131,9.86661265 L11.2256249,7.7650173 L12.741028,6.27388537 C12.8514216,6.16380182 12.8915647,6.00368026 12.8413858,5.86357389 C12.8012426,5.72346755 12.6707775,5.61338399 12.5202408,5.59336878 L10.4026908,5.28313328 L9.45932734,3.37168227 C9.38907689,3.24158353 9.24857594,3.15151515 9.09803922,3.15151515 Z M9.09803922,4.48775758 L9.72950588,5.8358614 C9.78522353,5.9539435 9.88737255,6.03266489 10.0080941,6.05234521 L11.4196078,6.26882906 L10.3981176,7.32172765 C10.3052549,7.41028923 10.2681098,7.53821149 10.2866824,7.66613375 L10.5281255,9.152 L9.26519216,8.45334765 C9.20947451,8.42382713 9.14447059,8.40414678 9.08875294,8.40414678 C9.03303529,8.40414678 8.96803137,8.41398697 8.9216,8.45334765 L7.65866667,9.152 L7.90939608,7.66613375 C7.92796863,7.53821149 7.88153725,7.41028923 7.79796078,7.32172765 L6.77647059,6.26882906 L8.18798431,6.05234521 C8.30870588,6.03266489 8.4108549,5.9539435 8.46657255,5.8358614 L9.09803922,4.48775758 Z" id="形状结合"></path>
        </g>
    </g>
</svg>