<?xml version="1.0" encoding="UTF-8"?>
<svg width="20px" height="20px" viewBox="0 0 20 20" version="1.1" xmlns="http://www.w3.org/2000/svg" xmlns:xlink="http://www.w3.org/1999/xlink">
    <title>vip-second-menu</title>
    <g id="页面架构调整" stroke="none" stroke-width="1" fill="none" fill-rule="evenodd">
        <g id="vip-second-menu">
            <rect id="矩形" x="0" y="0" width="20" height="20"></rect>
            <g id="编组-18" transform="translate(2.000000, 2.000000)" fill="#57689C" fill-rule="nonzero">
                <path d="M8.00000291,10.2857164 L11.9215518,15.1876525 C12.0940566,15.4032834 12.0590959,15.7179296 11.8434649,15.8904344 C11.7548084,15.9613596 11.6446531,16 11.5311174,16 L4.46888843,16 C4.19274605,16 3.96888843,15.7761424 3.96888843,15.5 C3.96888843,15.3864643 4.00752881,15.276309 4.07845402,15.1876525 L8.00000291,10.2857164 L8.00000291,10.2857164 Z" id="三角形" opacity="0.550000012"></path>
                <path d="M15.0217326,5.8248859e-06 C15.2814694,-0.000891346982 15.5308322,0.101883818 15.714495,0.285546657 C15.8981579,0.469209497 16.0009331,0.718572257 16.0000359,0.978309123 L16.0000359,11.8228766 C16.0006281,12.0824157 15.8977183,12.3314839 15.7140887,12.514899 C15.5304591,12.698314 15.2812708,12.8009326 15.0217326,12.8000311 L0.978309123,12.8000311 C0.718572257,12.8009342 0.469209497,12.6981591 0.285546657,12.5144962 C0.101883818,12.3308334 -0.000891346982,12.0814706 5.8248859e-06,11.8217337 L5.8248859e-06,0.978309123 C-0.000891346982,0.718572257 0.101883818,0.469209497 0.285546657,0.285546657 C0.469209497,0.101883818 0.718572257,-0.000891346982 0.978309123,5.8248859e-06 L15.0217326,5.8248859e-06 Z M6.47087855,2.96002269 L4.31087934,2.96002269 C4.21241489,2.96002269 4.13259369,3.03984389 4.13259369,3.13830834 L4.13259369,3.87545093 C4.13259369,3.97391537 4.21241489,4.05373657 4.31087934,4.05373657 L4.78173631,4.05373657 L4.78173631,8.95087765 L4.31087934,8.95087765 C4.21241489,8.95087765 4.13259369,9.03069885 4.13259369,9.1291633 L4.13259369,9.86630589 C4.13259369,9.91359018 4.1513773,9.95893783 4.18481235,9.99237288 C4.21824739,10.0258079 4.26359504,10.0445915 4.31087934,10.0445915 L6.47087855,10.0445915 C6.51816285,10.0445915 6.5635105,10.0258079 6.59694554,9.99237288 C6.63038059,9.95893783 6.6491642,9.91359018 6.6491642,9.86630589 L6.6491642,9.1291633 C6.6491642,9.03069885 6.569343,8.95087765 6.47087855,8.95087765 L6.00002158,8.95087765 L6.00002158,4.05373657 L6.47087855,4.05373657 C6.569343,4.05373657 6.6491642,3.97391537 6.6491642,3.87545093 L6.6491642,3.13830834 C6.6491642,3.03984389 6.569343,2.96002269 6.47087855,2.96002269 Z M10.4028089,2.96835208 L10.1863058,2.97145125 L8.27544932,2.97145125 C8.17830843,2.97143329 8.09903177,3.0491854 8.09716367,3.14630833 L8.09716367,9.86630589 C8.09716367,9.96477033 8.17698488,10.0445915 8.27544932,10.0445915 L9.14287758,10.0445915 C9.19027381,10.046695 9.23629859,10.0283832 9.26929503,9.9942942 C9.30229146,9.96020516 9.31909471,9.91360849 9.31544895,9.86630589 L9.31544895,7.52802102 L10.001163,7.52802102 C10.6864564,7.57498245 11.3629072,7.35182342 11.8857337,6.90630697 C12.3885025,6.47544692 12.6691825,5.84013536 12.649162,5.17830759 C12.6843192,4.56232038 12.4429778,3.96273766 11.9908765,3.54287962 C11.4790331,3.13896152 10.8373514,2.93576909 10.1863058,2.97145125 Z M10.0320201,4.09145085 C10.369128,4.00678771 10.72641,4.08722101 10.9947149,4.30817805 C11.2630199,4.52913509 11.4104704,4.86436379 11.3920196,5.21145044 C11.4161273,5.54664885 11.2851195,5.87437889 11.0365912,6.10059297 C10.7195717,6.3288871 10.3325788,6.43887881 9.94287729,6.41145 L9.3245918,6.41145 L9.3245918,4.09145085 Z" id="形状结合"></path>
            </g>
        </g>
    </g>
</svg>