<?xml version="1.0" encoding="UTF-8"?>
<svg width="20px" height="20px" viewBox="0 0 20 20" version="1.1" xmlns="http://www.w3.org/2000/svg" xmlns:xlink="http://www.w3.org/1999/xlink">
    <title>visual-bulider-second-menu</title>
    <g id="visual-bulider-second-menu" stroke="none" stroke-width="1" fill="none" fill-rule="evenodd">
        <rect id="矩形" fill="#000000" opacity="0" x="0" y="0" width="20" height="20"></rect>
        <g id="编组-3" transform="translate(9.499918, 10.000004) rotate(-3.000000) translate(-9.499918, -10.000004) translate(1.000581, 1.000004)" fill="#57689C">
            <polygon id="路径-2" points="8.37100422 12.61206 0.962638012 2.54332432e-14 6.46984643 17.3628069"></polygon>
            <polygon id="路径-3" points="7.02844966 18 16.2906149 1.34487394 13.7898449 0.386318993"></polygon>
            <polygon id="路径-4" opacity="0.55" points="8.75257919 11.69271 13.353569 0.386318993 7.71521962 9.99820693"></polygon>
            <path d="M0.303642975,12.7398606 C0.963065734,12.9582467 1.47553527,13.0870795 1.84105158,13.126359 C3.07941133,13.2594371 4.43142781,13.0839201 5.70009286,12.7370478 C8.44562831,11.9863768 14.9698813,9.0375641 14.9707371,7.40533078 C14.9713077,6.31717524 13.7899445,5.95043545 11.4266475,6.30511142 C14.5295723,5.62421163 16.2733853,5.82757306 16.6580865,6.91519568 C17.2351384,8.54662962 10.9366452,12.3985472 5.85604796,13.3382522 C3.04274843,13.8223338 1.19194676,13.6228699 0.303642975,12.7398606 Z" id="路径-7备份" transform="translate(8.499337, 9.753625) rotate(5.000000) translate(-8.499337, -9.753625) "></path>
        </g>
    </g>
</svg>