<?xml version="1.0" encoding="UTF-8"?>
<svg width="20px" height="20px" viewBox="0 0 20 20" version="1.1" xmlns="http://www.w3.org/2000/svg" xmlns:xlink="http://www.w3.org/1999/xlink">
    <title>work-order-center-second-menu</title>
    <g id="work-order-center-second-menu" stroke="none" stroke-width="1" fill="none" fill-rule="evenodd">
        <g id="编组" transform="translate(1.000000, 1.000000)" fill="#57689C">
            <path d="M3.11959462,0 L3.11959462,2.52 C3.11959462,2.85413227 3.39046235,3.125 3.72459462,3.125 L11.2645946,3.125 C11.5987269,3.125 11.8695946,2.85413227 11.8695946,2.52 L11.8695946,0 L13.79,0 C14.4582645,-1.22758206e-16 15,0.541735453 15,1.21 L15.001178,8.91413237 C14.576339,8.79676148 14.12881,8.73405406 13.6666348,8.73405406 C10.9052111,8.73405406 8.66663485,10.9726303 8.66663485,13.7340541 C8.66663485,15.2366778 9.32947115,16.5844879 10.3787042,17.5010446 L1.21,17.5 C0.541735453,17.5 8.18388039e-17,16.9582645 0,16.29 L0,1.21 C-8.18388039e-17,0.541735453 0.541735453,1.01093663e-15 1.21,0 L3.11959462,0 Z M7.11959462,11.3878743 L3.11959462,11.3878743 L3.11959462,12.6378743 L7.11959462,12.6378743 L7.11959462,11.3878743 Z M8.11959462,8.63787431 L3.11959462,8.63787431 L3.11959462,9.88787431 L8.11959462,9.88787431 L8.11959462,8.63787431 Z M11.8695946,5.88787431 L3.11959462,5.88787431 L3.11959462,7.13787431 L11.8695946,7.13787431 L11.8695946,5.88787431 Z M10.6195946,0 L10.6195946,1.875 L4.36959462,1.875 L4.36959462,0 L10.6195946,0 Z" id="形状结合"></path>
            <path d="M13.6666348,9.46740012 C16.0230427,9.46740012 17.9332888,11.3776462 17.9332888,13.7340541 C17.9332888,16.090462 16.0230427,18.000708 13.6666348,18.000708 C11.3102269,18.000708 9.39998091,16.090462 9.39998091,13.7340541 C9.39998091,11.3776462 11.3102269,9.46740012 13.6666348,9.46740012 Z M16.178132,12.3987169 C15.9868514,12.215174 15.682997,12.2214466 15.4994541,12.4127271 L13.0417052,14.974061 L11.7382528,13.6763128 C11.5503254,13.4893381 11.2464072,13.4901104 11.0594325,13.6780379 C10.8724578,13.8659653 10.8732302,14.1698835 11.0611576,14.3568582 L12.7115542,15.9988879 C12.9018912,16.18826 13.2105495,16.1846822 13.3964459,15.9909491 L16.1921422,13.0773948 C16.3756851,12.8861143 16.3694125,12.5822599 16.178132,12.3987169 Z" id="形状结合" fill-opacity="0.55"></path>
        </g>
    </g>
</svg>