<?xml version="1.0" encoding="UTF-8"?>
<svg width="20px" height="20px" viewBox="0 0 20 20" version="1.1" xmlns="http://www.w3.org/2000/svg" xmlns:xlink="http://www.w3.org/1999/xlink">
    <title>workbench-second-menu</title>
    <g id="workbench-second-menu" stroke="none" stroke-width="1" fill="none" fill-rule="evenodd">
        <g id="permission-center-second-menu">
            <rect id="矩形" fill="#000000" opacity="0" x="0" y="0" width="20" height="20"></rect>
            <g id="编组" transform="translate(2.000000, 2.000000)" fill="#57689C">
                <path d="M15,0 C15.5522847,-1.01453063e-16 16,0.44771525 16,1 L16,11 C16,11.5522847 15.5522847,12 15,12 L1,12 C0.44771525,12 6.76353751e-17,11.5522847 0,11 L0,1 C-6.76353751e-17,0.44771525 0.44771525,-2.31613845e-16 1,0 L15,0 Z M11.975,1.9 C11.1465729,1.9 10.475,2.57157288 10.475,3.4 C10.475,3.85872746 10.6809179,4.26936023 11.0053617,4.54450641 L10.3197575,5.91598346 C10.2480298,5.90545337 10.1746518,5.9 10.1,5.9 C9.8166994,5.9 9.55174232,5.97853794 9.32571368,6.1150289 L7.80854845,5.00166724 C7.83564673,4.88886939 7.85,4.77111089 7.85,4.65 C7.85,3.82157288 7.17842712,3.15 6.35,3.15 C5.52157288,3.15 4.85,3.82157288 4.85,4.65 C4.85,5.01923109 4.98340775,5.35730314 5.20465087,5.61864375 L4.4596682,6.81839709 C4.34444187,6.79004076 4.22397742,6.775 4.1,6.775 C3.27157288,6.775 2.6,7.44657288 2.6,8.275 C2.6,9.10342712 3.27157288,9.775 4.1,9.775 C4.92842712,9.775 5.6,9.10342712 5.6,8.275 C5.6,8.01400003 5.53333998,7.76856934 5.41611632,7.55480432 L6.28779576,6.14873362 C6.30842582,6.14957514 6.32916329,6.15 6.35,6.15 C6.61636864,6.15 6.86652091,6.08056943 7.08334655,5.95881854 L8.63109999,7.09465791 C8.61071231,7.19324532 8.6,7.29537166 8.6,7.4 C8.6,8.22842712 9.27157288,8.9 10.1,8.9 C10.9284271,8.9 11.6,8.22842712 11.6,7.4 C11.6,7.08803453 11.5047648,6.79831244 11.3417813,6.55832068 L12.178791,4.88627284 C12.9108206,4.78683911 13.475,4.15930513 13.475,3.4 C13.475,2.57157288 12.8034271,1.9 11.975,1.9 Z" id="形状结合"></path>
                <path d="M6.1571889,13 L9.8428111,13 C10.1820633,13 10.7091766,13.3837559 11.0201517,13.8571429 L11.864757,15.1428571 C12.1757321,15.6162441 11.9322257,16 11.3208704,16 L4.67912961,16 C4.06777426,16 3.82426794,15.6162441 4.13524302,15.1428571 L4.97984833,13.8571429 C5.29082341,13.3837559 5.81793674,13 6.1571889,13 Z" id="矩形" opacity="0.55"></path>
            </g>
        </g>
    </g>
</svg>