<?xml version="1.0" encoding="UTF-8"?>
<svg width="20px" height="20px" viewBox="0 0 20 20" version="1.1" xmlns="http://www.w3.org/2000/svg" xmlns:xlink="http://www.w3.org/1999/xlink">
    <title>work-calendar-second-menu</title>
    <g id="work-calendar-second-menu" stroke="none" stroke-width="1" fill="none" fill-rule="evenodd">
        <g id="编组-3" fill="#000000" opacity="0">
            <rect id="矩形" x="0" y="0" width="20" height="20"></rect>
        </g>
        <g id="编组-6" transform="translate(2.000000, 2.750000)">
            <g id="基础设施监控" transform="translate(0.000000, 1.866667)">
                <path d="M16,2.48888889 L16,11.4444444 C16,11.9967292 15.5522847,12.4444444 15,12.4444444 L1,12.4444444 C0.44771525,12.4444444 6.76353751e-17,11.9967292 0,11.4444444 L0,2.48888889 L16,2.48888889 Z M4.83333333,7.82222222 L2.98888889,7.82222222 C2.71274651,7.82222222 2.48888889,8.04607985 2.48888889,8.32222222 L2.48888889,9.81111111 C2.48888889,10.0872535 2.71274651,10.3111111 2.98888889,10.3111111 L4.83333333,10.3111111 C5.10947571,10.3111111 5.33333333,10.0872535 5.33333333,9.81111111 L5.33333333,8.32222222 C5.33333333,8.04607985 5.10947571,7.82222222 4.83333333,7.82222222 Z M9.1,7.82222222 L7.25555556,7.82222222 C6.97941318,7.82222222 6.75555556,8.04607985 6.75555556,8.32222222 L6.75555556,9.81111111 C6.75555556,10.0872535 6.97941318,10.3111111 7.25555556,10.3111111 L9.1,10.3111111 C9.37614237,10.3111111 9.6,10.0872535 9.6,9.81111111 L9.6,8.32222222 C9.6,8.04607985 9.37614237,7.82222222 9.1,7.82222222 Z M4.83333333,3.91111111 L2.98888889,3.91111111 C2.71274651,3.91111111 2.48888889,4.13496874 2.48888889,4.41111111 L2.48888889,5.9 C2.48888889,6.17614237 2.71274651,6.4 2.98888889,6.4 L4.83333333,6.4 C5.10947571,6.4 5.33333333,6.17614237 5.33333333,5.9 L5.33333333,4.41111111 C5.33333333,4.13496874 5.10947571,3.91111111 4.83333333,3.91111111 Z M9.1,3.91111111 L7.25555556,3.91111111 C6.97941318,3.91111111 6.75555556,4.13496874 6.75555556,4.41111111 L6.75555556,5.9 C6.75555556,6.17614237 6.97941318,6.4 7.25555556,6.4 L9.1,6.4 C9.37614237,6.4 9.6,6.17614237 9.6,5.9 L9.6,4.41111111 C9.6,4.13496874 9.37614237,3.91111111 9.1,3.91111111 Z M13.3666667,3.91111111 L11.5222222,3.91111111 C11.2460798,3.91111111 11.0222222,4.13496874 11.0222222,4.41111111 L11.0222222,5.9 C11.0222222,6.17614237 11.2460798,6.4 11.5222222,6.4 L13.3666667,6.4 C13.642809,6.4 13.8666667,6.17614237 13.8666667,5.9 L13.8666667,4.41111111 C13.8666667,4.13496874 13.642809,3.91111111 13.3666667,3.91111111 Z" id="形状结合" fill="#57689C" fill-rule="nonzero"></path>
                <g id="编组-2" transform="translate(2.488889, 3.911111)"></g>
                <path d="M15,8.8817842e-16 C15.5522847,8.8817842e-16 16,0.44771525 16,1 L16,2.48888889 L0,2.48888889 L0,1 C1.77635684e-15,0.44771525 0.44771525,4.4408921e-16 1,-8.8817842e-16 L15,8.8817842e-16 Z M11.5555556,0.355555556 C11.0646358,0.355555556 10.6666667,0.753524667 10.6666667,1.24444444 C10.6666667,1.73536422 11.0646358,2.13333333 11.5555556,2.13333333 C12.0464753,2.13333333 12.4444444,1.73536422 12.4444444,1.24444444 C12.4444444,0.753524667 12.0464753,0.355555556 11.5555556,0.355555556 Z M4.44444444,0.355555556 C3.95352467,0.355555556 3.55555556,0.753524667 3.55555556,1.24444444 C3.55555556,1.73536422 3.95352467,2.13333333 4.44444444,2.13333333 C4.93536422,2.13333333 5.33333333,1.73536422 5.33333333,1.24444444 C5.33333333,0.753524667 4.93536422,0.355555556 4.44444444,0.355555556 Z" id="形状结合" fill="#57689C" fill-rule="nonzero" opacity="0.55"></path>
            </g>
            <path d="M11.3777778,0 C12.3105254,0 13.0666667,0.756141311 13.0666667,1.68888889 C13.0666667,2.4815163 12.5164065,3.16243892 11.7532913,3.33582154 C11.6096755,3.36845156 11.4668001,3.27847986 11.4341701,3.13486412 C11.40154,2.99124838 11.4915117,2.84837295 11.6351275,2.81574292 C12.1566852,2.69724307 12.5333333,2.23115766 12.5333333,1.68888889 C12.5333333,1.05069318 12.0159735,0.533333333 11.3777778,0.533333333 C10.7395821,0.533333333 10.2222222,1.05069318 10.2222222,1.68888889 C10.2222222,1.71605199 10.2257778,1.77531125 10.2328889,1.86666667 L9.69955556,1.86666667 C9.69244444,1.76985256 9.68888889,1.7105933 9.68888889,1.68888889 C9.68888889,0.756141311 10.4450302,0 11.3777778,0 Z" id="路径备份" fill="#57689C" fill-rule="nonzero"></path>
            <path d="M4.26666667,0 C5.19941424,0 5.95555556,0.756141311 5.95555556,1.68888889 C5.95555556,2.484154 5.40167229,3.16669665 4.63515825,3.33740112 C4.49140402,3.36941553 4.34891539,3.2788325 4.31690099,3.13507827 C4.28488658,2.99132404 4.37546961,2.84883541 4.51922384,2.81682101 C5.04309404,2.70015388 5.42222222,2.2329595 5.42222222,1.68888889 C5.42222222,1.05069318 4.90486238,0.533333333 4.26666667,0.533333333 C3.62847096,0.533333333 3.11111111,1.05069318 3.11111111,1.68888889 C3.11111111,1.70614725 3.11794343,1.76540651 3.13160807,1.86666667 L2.58486328,1.86666667 C2.58013961,1.76925052 2.57777778,1.70999126 2.57777778,1.68888889 C2.57777778,0.756141311 3.33391909,0 4.26666667,0 Z" id="路径" fill="#57689C" fill-rule="nonzero"></path>
        </g>
    </g>
</svg>