<?xml version="1.0" encoding="UTF-8"?>
<svg width="18px" height="18px" viewBox="0 0 18 18" version="1.1" xmlns="http://www.w3.org/2000/svg" xmlns:xlink="http://www.w3.org/1999/xlink">
    <title>图标-数字人</title>
    <g id="控件" stroke="none" stroke-width="1" fill="none" fill-rule="evenodd">
        <g id="通用图标/数字人" transform="translate(-1, 0)">
            <rect id="Rectangle" x="0" y="0" width="20" height="20"></rect>
            <g id="编组" stroke-width="1" fill-rule="evenodd" transform="translate(1.5, 1.5)">
                <path d="M3.99062172,14.0336077 L0.292255786,11.8983552 C1.14635681,10.4190088 1.85810767,9.18622015 2.42750835,8.19998924 C2.87100885,7.07509548 0.542569674,6.71180191 0.792808464,6.39249624 C0.959640017,6.17956885 1.96735806,5.52014166 3.9668043,4.5043593 C5.4668043,1.90628309 7.3328297,0.674232286 9.83757534,0.555664894 C15.2396397,0.299946839 17.3544318,5.17033004 17.3544318,8.10544822 C17.3544318,11.0405237 14.5700588,13.6527002 10.9930837,14.3344863 C10.7409969,14.8640245 10.2409969,15.7300499 9.49308374,16.9325625" id="路径" stroke="#262626" stroke-linecap="round" stroke-linejoin="round" transform="translate(8.8233, 8.7393) rotate(-30) translate(-8.8233, -8.7393)"></path>
                <path d="M11.6939576,4.46433371 C11.5233718,4.46412853 11.3597137,4.5318024 11.2390913,4.65242483 C11.1184688,4.77304726 11.0507949,4.93670539 11.0510001,5.10729114 L11.0510001,10.7894524 C11.0510001,11.144334 11.338689,11.4320225 11.6935707,11.4320225 C12.0484524,11.4320225 12.3361408,11.144334 12.3361408,10.7894524 L12.3361408,5.10729114 C12.3361408,4.93697355 12.2684824,4.77363173 12.1480497,4.65319901 C12.027617,4.53276629 11.8642752,4.46510789 11.6939576,4.46510789 L11.6939576,4.46433371 Z M7.34568059,8.84046488 L7.86174834,7.40677141 L8.35073608,8.84046488 L7.34490689,8.84046488 L7.34568059,8.84046488 Z M8.48381502,5.25816552 C8.39587726,4.99930875 8.15369656,4.82450396 7.88031749,4.82256411 L7.87644892,4.82256411 C7.60540485,4.82267678 7.36361423,4.99295186 7.2721777,5.24810723 L5.28992047,10.7623723 C5.1694188,11.0961021 5.34227435,11.4643295 5.67600414,11.5848311 C6.00973392,11.7053328 6.37796126,11.5324773 6.49846293,11.1987475 L6.88377289,10.1232839 L8.79175349,10.1232839 L9.15385199,11.1879155 C9.227933,11.4051829 9.41229746,11.5664245 9.63749707,11.6109022 C9.86269669,11.6553799 10.0945183,11.5763364 10.2456369,11.4035466 C10.3967555,11.2307569 10.4442126,10.9904718 10.3701316,10.7732043 L8.48381502,5.25584438 L8.48381502,5.25661809 L8.48381502,5.25816552 Z" id="形状" fill="#333333" fill-rule="nonzero"></path>
            </g>
        </g>
    </g>
</svg>