<?xml version="1.0" encoding="UTF-8"?>
<svg width="18px" height="18px" viewBox="0 0 18 18" version="1.1" xmlns="http://www.w3.org/2000/svg" xmlns:xlink="http://www.w3.org/1999/xlink">
    <title>图标-数字人</title>
    <g id="设计稿" stroke="none" stroke-width="1" fill="none" fill-rule="evenodd">
        <g id="首页" transform="translate(-32, -186)">
            <g id="侧边栏-展开" transform="translate(10, 13)">
                <g id="1.通用/1.对话列表/1.侧边栏/2.会话/默认备份-7" transform="translate(12, 164)">
                    <g id="通用图标/收藏" transform="translate(10, 9)">
                        <g id="编组" transform="translate(1.35, 1.35)">
                            <g transform="translate(-2.437, -2.8189)">
                                <path d="M6.02852926,15.7388602 L2.69999992,13.8171329 C3.46869085,12.4857212 4.10926662,11.3762114 4.62172723,10.4886036 C5.02087768,9.47619921 2.92528242,9.14923499 3.15049733,8.86185989 C3.30064573,8.67022524 4.20759197,8.07674077 6.00709358,7.16253665 C7.35709358,4.82426806 9.03651644,3.71542233 11.2907875,3.60871168 C16.1526455,3.37856543 18.0559595,7.76191031 18.0559595,10.4035167 C18.0559595,13.0450846 15.5500227,15.3960434 12.3307451,16.009651 C12.1038669,16.4862353 11.6538669,17.2656582 10.9807451,18.3479196" id="路径" stroke="#262626" stroke-linecap="round" stroke-linejoin="round" transform="translate(10.378, 10.974) rotate(-30) translate(-10.378, -10.974)"></path>
                                <path d="M12.9615316,7.12651391 C12.8080044,7.12632924 12.6607121,7.18723573 12.5521519,7.29579591 C12.4435917,7.4043561 12.3826852,7.55164841 12.3828699,7.70517559 L12.3828699,12.8191207 C12.3828699,13.1385142 12.6417899,13.3974338 12.9611834,13.3974338 C13.2805769,13.3974338 13.5394965,13.1385142 13.5394965,12.8191207 L13.5394965,7.70517559 C13.5394965,7.55188976 13.478604,7.40488212 13.3702145,7.29649267 C13.2618251,7.18810322 13.1148174,7.12721067 12.9615316,7.12721067 L12.9615316,7.12651391 Z M9.04808233,11.065032 L9.5125433,9.77470784 L9.95263226,11.065032 L9.04738599,11.065032 L9.04808233,11.065032 Z M10.0724033,7.84096254 C9.99325933,7.60799144 9.7752967,7.45066713 9.52925554,7.44892126 L9.52577382,7.44892126 C9.28183416,7.44902267 9.0642226,7.60227024 8.98192972,7.83191007 L7.19789821,12.7947487 C7.08944672,13.0951055 7.24501671,13.4265101 7.54537352,13.5349616 C7.84573032,13.6434131 8.17713493,13.4878431 8.28558643,13.1874863 L8.63236539,12.2195691 L10.3495479,12.2195691 L10.6754366,13.1777375 C10.7421095,13.3732782 10.9080375,13.5183956 11.1107172,13.5584256 C11.3133968,13.5984555 11.5220362,13.5273163 11.658043,13.3718055 C11.7940497,13.2162948 11.8367611,13.0000382 11.7700882,12.8044975 L10.0724033,7.83887351 L10.0724033,7.83956985 L10.0724033,7.84096254 Z" id="形状" fill="#333333" fill-rule="nonzero"></path>
                            </g>
                        </g>
                    </g>
                </g>
            </g>
        </g>
    </g>
</svg>