<?xml version="1.0" encoding="UTF-8"?>
<svg width="16px" height="16px" viewBox="0 0 16 16" version="1.1" xmlns="http://www.w3.org/2000/svg" xmlns:xlink="http://www.w3.org/1999/xlink">
    <title>常量</title>
    <g id="安全大屏" stroke="none" stroke-width="1" fill="none" fill-rule="evenodd">
        <g id="常量">
            <rect id="矩形" x="0" y="0" width="16" height="16"></rect>
            <g id="编组-26" transform="translate(1.000000, 3.000000)" fill="#000000">
                <g id="{-}" fill-rule="nonzero">
                    <path d="M2.4617737,0 C1.96941896,0 1.59480122,0.149847095 1.33792049,0.470948012 C1.10244648,0.759938838 0.98470948,1.14525994 0.98470948,1.63761468 L0.98470948,3.58562691 C0.98470948,3.8853211 0.920489297,4.11009174 0.79204893,4.25993884 C0.642201835,4.40978593 0.374617737,4.50611621 0,4.5382263 L0,5.4587156 C0.374617737,5.48012232 0.642201835,5.5764526 0.79204893,5.74770642 C0.920489297,5.87614679 0.98470948,6.10091743 0.98470948,6.41131498 L0.98470948,8.37003058 C0.98470948,8.85168196 1.10244648,9.23700306 1.33792049,9.52599388 C1.59480122,9.83639144 1.96941896,9.9969419 2.4617737,9.9969419 L3.30733945,9.9969419 L3.30733945,9.06574924 L2.67584098,9.06574924 C2.29051988,9.06574924 2.09785933,8.84097859 2.09785933,8.41284404 L2.09785933,6.3470948 C2.09785933,5.70489297 1.78746177,5.25535168 1.16666667,4.99847095 C1.78746177,4.77370031 2.09785933,4.32415902 2.09785933,3.64984709 L2.09785933,1.59480122 C2.09785933,1.14525994 2.29051988,0.931192661 2.67584098,0.931192661 L3.30733945,0.931192661 L3.30733945,0 L2.4617737,0 Z" id="路径"></path>
                    <path d="M10.6926606,0 L10.6926606,0.931192661 L11.324159,0.931192661 C11.7094801,0.931192661 11.9021407,1.14525994 11.9021407,1.59480122 L11.9021407,3.64984709 C11.9021407,4.32415902 12.2125382,4.77370031 12.8333333,4.99847095 C12.2125382,5.25535168 11.9021407,5.70489297 11.9021407,6.3470948 L11.9021407,8.41284404 C11.9021407,8.84097859 11.7094801,9.06574924 11.324159,9.06574924 L10.6926606,9.06574924 L10.6926606,9.9969419 L11.5382263,9.9969419 C12.0198777,9.9969419 12.3944954,9.83639144 12.6620795,9.52599388 C12.8975535,9.23700306 13.0152905,8.85168196 13.0152905,8.37003058 L13.0152905,6.41131498 C13.0152905,6.10091743 13.0795107,5.87614679 13.2079511,5.74770642 C13.3577982,5.5764526 13.6146789,5.48012232 14,5.4587156 L14,4.5382263 C13.6146789,4.50611621 13.3577982,4.4204893 13.2186544,4.2706422 C13.0795107,4.12079511 13.0152905,3.8853211 13.0152905,3.58562691 L13.0152905,1.63761468 C13.0152905,1.14525994 12.8975535,0.759938838 12.6620795,0.470948012 C12.3944954,0.149847095 12.0198777,0 11.5382263,0 L10.6926606,0 Z" id="路径"></path>
                </g>
                <rect id="矩形" x="3.65519878" y="2.54650866" width="6.68960245" height="1.33792049"></rect>
                <rect id="矩形备份-41" x="3.65519878" y="6.11429664" width="6.68960245" height="1.33792049"></rect>
            </g>
        </g>
    </g>
</svg>