<?xml version="1.0" encoding="UTF-8"?>
<svg width="14px" height="14px" viewBox="0 0 14 14" version="1.1" xmlns="http://www.w3.org/2000/svg" xmlns:xlink="http://www.w3.org/1999/xlink">
    <title>赞</title>
    <g id="页面-1" stroke="none" stroke-width="1" fill="none" fill-rule="evenodd">
        <g id="对话终端方案一" transform="translate(-829, -342)" fill="#606F7C" fill-rule="nonzero">
            <g id="编组-14" transform="translate(829, 342)">
                <path d="M13.6800179,5.53765805 C13.3152617,4.92577608 12.759097,4.59666927 12.0265495,4.55941979 C11.9823888,4.55411837 11.9401423,4.55146766 11.8991262,4.55146766 L9.54266919,4.5432365 C9.64957078,4.05719359 9.70644648,3.56555629 9.70644648,3.10908975 C9.70644648,2.64188085 9.65640682,2.17075168 9.55755803,1.70856519 C9.54998504,1.67342607 9.53918194,1.63909389 9.525292,1.60602449 C9.2698984,0.655409445 8.44384784,0 7.48355155,0 C6.345095,0 5.48664169,0.952568198 5.48664169,2.21567428 L5.4858077,2.24748282 C5.48471394,2.28082598 5.48348345,2.32365591 5.48594442,2.37332188 C5.43714893,3.68958171 4.37648626,4.83858161 3.05496118,5.00683206 L1.19313101,5.037385 C1.16250566,5.03459478 1.1318803,5.03319967 1.10125495,5.03319967 C0.496828022,5.03319967 0.00505865236,5.54058778 0.00505865236,6.1637841 L0,12.8768096 C0,13.4958067 0.49204281,13.9995815 1.09689357,13.9995815 L3.13905786,14 L3.14015161,14 L10.9049096,13.9863279 L10.9050599,13.9863279 C11.3347582,13.9863279 11.6042341,13.8635581 11.9248432,13.6512221 C12.241675,13.4408438 12.4989915,13.1494682 12.6711859,12.8060914 C12.7303858,12.7087126 12.7744097,12.6046373 12.8023007,12.4960977 C12.804078,12.4889686 12.8058554,12.4818536 12.8073593,12.474878 L13.9646696,7.149542 C13.9897039,7.04601477 14.0004264,6.93942364 13.9965254,6.83286564 C14.0214086,6.37401346 13.9123057,5.92689417 13.6800179,5.53765805 Z M1.12519468,6.17911638 C1.142148,6.18051149 1.15923804,6.18106953 1.17619136,6.18079051 L2.52860156,6.15846873 L2.52860156,12.8569851 L1.11999931,12.8567061 L1.12519468,6.17911638 Z M12.8729851,6.8942366 L11.7188057,12.2050495 L11.7185322,12.2050495 C11.7047343,12.2260206 11.6923551,12.2479283 11.6814811,12.2706197 C11.597398,12.4450087 11.4736662,12.5872961 11.3145237,12.69292 C11.1095935,12.8286504 11.0503937,12.8434525 10.8993177,12.8434525 L10.8991673,12.8434525 L3.64860087,12.8562178 L3.64860087,6.05453291 C5.31984288,5.63460434 6.55906232,4.13335274 6.60636755,2.37888838 C6.60705116,2.3554505 6.60677771,2.33982525 6.60459019,2.31638738 C6.60430308,2.30550551 6.60486363,2.29462364 6.6052738,2.28360226 C6.60595739,2.26114096 6.60650428,2.23854016 6.60650428,2.21566032 C6.60650428,1.6824487 6.90783589,1.14283351 7.48355155,1.14283351 C7.95016437,1.14283351 8.35046784,1.4779393 8.45710973,1.95756469 C8.46312538,1.98435084 8.47093209,2.01029991 8.48035214,2.03527241 C8.55076312,2.39074682 8.5864471,2.75150871 8.5864471,3.1090758 C8.5864471,3.67380299 8.47283251,4.33662049 8.27487516,4.92715724 C8.21635212,5.10136433 8.24379274,5.29368142 8.34856742,5.44362753 C8.45315326,5.59370508 8.62228329,5.68306143 8.80275239,5.68358671 L11.89955,5.69488712 C11.9181439,5.69753783 11.9367379,5.69921196 11.9554686,5.70004902 C12.3222892,5.71539526 12.5519794,5.84430356 12.7232763,6.1318221 C12.8403226,6.32797478 12.8934931,6.55523844 12.8770867,6.78904518 C12.8750359,6.81722644 12.875446,6.84652378 12.8776336,6.87470503 C12.8759793,6.88126206 12.8743386,6.88767957 12.8729851,6.8942366 Z" id="赞"></path>
            </g>
        </g>
    </g>
</svg>