<?xml version="1.0" encoding="UTF-8"?>
<svg width="14px" height="15px" viewBox="0 0 14 15" version="1.1" xmlns="http://www.w3.org/2000/svg" xmlns:xlink="http://www.w3.org/1999/xlink">
    <title>图标-MCP</title>
    <g id="首页优化" stroke="none" stroke-width="1" fill="none" fill-rule="evenodd" stroke-linecap="round">
        <g id="首页-增加show-case-方案2" transform="translate(-24, -188)">
            <g id="1.通用/1.对话列表/1.侧边栏/2.会话/默认备份-6" transform="translate(12, 177)">
                <g id="通用图标/收藏" transform="translate(10, 9)">
                    <g id="图标-MCP" transform="translate(2.7787, 2.7)">
                        <path d="M5.85071561,13.3411765 L1.5,13.3411765 C0.671572875,13.3411765 0,12.6696036 0,11.8411765 L0,1.5 C0,0.671572875 0.671572875,0 1.5,0 L10.3588235,2.22044605e-16 C11.1872507,-1.33226763e-15 11.8588235,0.671572875 11.8588235,1.5 L11.8588235,4.98845282 L11.8588235,4.98845282" id="路径" stroke="#000000" stroke-linejoin="round"></path>
                        <g id="图形" transform="translate(8.4713, 9.45) scale(-1, 1) translate(-8.4713, -9.45)translate(4.4213, 5.4)" stroke="#333333" stroke-linejoin="round">
                            <path d="M7.425,2.7 C7.425,3.81837375 6.51837375,4.725 5.4,4.725 C5.05799437,4.725 4.73578312,4.64020313 4.453245,4.490505 L1.51875,7.425 L0.675,6.58125 L3.609495,3.646755 C3.45979687,3.36421688 3.375,3.04200563 3.375,2.7 C3.375,1.58162288 4.28162625,0.675 5.4,0.675 C5.74200562,0.675 6.06421687,0.759788438 6.346755,0.909493313 L5.0625,2.19375 L5.90625,3.0375 L7.190505,1.753245 C7.34020312,2.03578313 7.425,2.35799438 7.425,2.7 Z" id="路径"></path>
                        </g>
                        <line x1="2.88600972" y1="2.96470588" x2="8.81542149" y2="2.96470588" id="路径" stroke="#000000"></line>
                    </g>
                </g>
            </g>
        </g>
    </g>
</svg>