<?xml version="1.0" encoding="UTF-8"?>
<svg width="16px" height="11px" viewBox="0 0 16 11" version="1.1" xmlns="http://www.w3.org/2000/svg" xmlns:xlink="http://www.w3.org/1999/xlink">
    <title>图标-新建对话</title>
    <g id="首页" stroke="none" stroke-width="1" fill="none" fill-rule="evenodd">
        <g id="交互明细" transform="translate(-570, -1925)" fill="#595959">
            <g id="编组" transform="translate(570, 1920)">
                <g id="图标-新建对话" transform="translate(0, 3)">
                    <g transform="translate(0.9451, 2)" id="路径">
                        <path d="M7.05091731,1.00490626 L8.23680996,4.36327548 L12.2931959,5.54468097 C12.3112379,5.5485496 12.3287692,5.55354756 12.3455798,5.55971255 C12.3524323,5.76485747 12.3693992,5.93445488 12.3015037,5.95071884 L8.66147228,6.76408144 L7.31667523,10.2146524 C7.14030249,10.4101271 7.06841524,10.5 6.97249891,10.5 C6.94321937,10.5 6.91445295,10.4969849 6.88680531,10.4910361 L5.70874634,7.1340236 L1.71526813,5.97062765 C1.6505201,5.77067954 1.59809323,5.56309597 1.65241519,5.5451638 L5.28416985,4.73262405 L6.62886797,1.28263137 C7.00232939,0.997277594 7.03109581,1.00029266 7.05874345,1.00624147 Z" stroke="#595959"></path>
                        <path d="M13.0844645,0 C13.1930276,0 13.288428,0.0643136617 13.318621,0.160305779 L13.5864951,1.08409606 C13.6029272,1.14070332 13.6527554,1.18498617 13.7166383,1.19963236 L14.7587225,1.43831326 C14.8637978,1.46407088 14.9367089,1.54916045 14.9367089,1.64631397 C14.9367089,1.7434675 14.8637978,1.82855707 14.7561513,1.85492421 L13.7166775,2.0929866 C13.6527554,2.10764178 13.6029272,2.15192463 13.5864992,2.20851762 L13.3176022,3.13513092 C13.2882586,3.22831429 13.1928582,3.29262795 13.0842951,3.29262795 C12.9757319,3.29262795 12.8803315,3.22831429 12.8501386,3.13232217 L12.5822543,2.20849679 L12.5685522,2.17618492 C12.545338,2.13539674 12.5032229,2.10471148 12.452098,2.09299026 L11.4089133,1.85388464 C11.3046954,1.82759597 11.2326562,1.74287346 11.2326562,1.64631397 C11.2326562,1.54975448 11.3046954,1.46503198 11.4125617,1.43786499 L12.4521038,1.19948578 C12.5160025,1.18484461 12.5658257,1.1405971 12.5822603,1.08411032 L12.8511574,0.157497027 C12.8805009,0.0643136617 12.9759013,0 13.0844645,0 Z"></path>
                        <path d="M1.23437151,8.3716318 C1.29929742,8.3716318 1.35594284,8.41050973 1.37364579,8.46780443 L1.55511037,9.10492224 C1.56824339,9.15098287 1.60774793,9.18672597 1.65798638,9.19845228 L2.36360714,9.36298975 C2.42610571,9.37858744 2.46903842,9.42959759 2.46903842,9.48743227 C2.46903842,9.54526695 2.42610571,9.5962771 2.36217262,9.61222101 L1.65800825,9.77640715 C1.60774793,9.78813857 1.56824339,9.82388167 1.55511258,9.86993456 L1.37307869,10.5085829 C1.35582806,10.5643548 1.29918264,10.6032327 1.23425673,10.6032327 C1.16933082,10.6032327 1.1126854,10.5643548 1.09498245,10.5070601 L0.913517869,9.86994229 C0.90038485,9.82388167 0.860880307,9.78813857 0.810628878,9.77640923 L0.104394327,9.61161225 C0.042414419,9.5956952 0,9.54491097 0,9.48743227 C0,9.42995356 0.042414419,9.37916933 0.106429649,9.36275344 L0.810632123,9.1983507 C0.86087374,9.18663058 0.900373783,9.15091642 0.913515664,9.10492998 L1.09554955,8.46628162 C1.11280018,8.41050973 1.1694456,8.3716318 1.23437151,8.3716318 Z"></path>
                    </g>
                </g>
            </g>
        </g>
    </g>
</svg>
