<?xml version="1.0" encoding="UTF-8"?>
<svg width="21px" height="21px" viewBox="0 0 21 21" version="1.1" xmlns="http://www.w3.org/2000/svg" xmlns:xlink="http://www.w3.org/1999/xlink">
    <title>并行</title>
    <g id="设计稿" stroke="none" stroke-width="1" fill="none" fill-rule="evenodd">
        <g id="蓝绿发布详情-发布前" transform="translate(-857, -431)" fill="#3E4763" fill-rule="nonzero">
            <g id="编组-44备份" transform="translate(41, 416)">
                <g id="并行" transform="translate(816, 15)">
                    <rect id="矩形" opacity="0" x="0" y="0" width="21" height="21"></rect>
                    <path d="M18.9,7.21875 L13.3875,7.21875 C13.125,7.21875 12.8625,6.95625 12.8625,6.5625 C12.8625,6.16875 13.125,5.90625 13.51875,5.90625 L19.03125,5.90625 C19.425,5.90625 19.6875,6.16875 19.6875,6.5625 C19.55625,6.95625 19.29375,7.21875 18.9,7.21875 Z M18.9,14.4375 L13.3875,14.4375 C12.99375,14.4375 12.73125,14.175 12.73125,13.78125 C12.73125,13.3875 12.99375,13.125 13.3875,13.125 L18.9,13.125 C19.29375,13.125 19.55625,13.3875 19.55625,13.78125 C19.55625,14.175 19.29375,14.4375 18.9,14.4375 L18.9,14.4375 Z M19.03125,2.625 L6.0375,2.625 C5.775,1.575 4.85625,0.91875 3.80625,0.91875 C2.49375,0.91875 1.3125,1.96875 1.3125,3.28125 C1.3125,4.59375 2.3625,5.64375 3.675,5.64375 C4.725,5.64375 5.64375,4.85625 6.0375,3.9375 L18.9,3.9375 C19.29375,3.9375 19.6875,3.675 19.6875,3.28125 C19.6875,2.8875 19.29375,2.625 19.03125,2.625 Z M3.80625,4.725 C3.01875,4.725 2.3625,4.06875 2.3625,3.28125 C2.3625,2.49375 3.01875,1.8375 3.80625,1.8375 C4.59375,1.8375 5.25,2.49375 5.25,3.28125 C5.11875,4.06875 4.59375,4.725 3.80625,4.725 Z M19.03125,9.45 L6.16875,9.45 C5.775,8.4 4.85625,7.6125 3.80625,7.6125 C2.49375,7.6125 1.44375,8.6625 1.44375,9.975 C1.44375,11.2875 2.49375,12.3375 3.80625,12.3375 C4.85625,12.3375 5.775,11.55 6.16875,10.63125 L19.03125,10.63125 C19.425,10.63125 19.6875,10.36875 19.6875,9.975 C19.6875,9.58125 19.425,9.45 19.03125,9.45 L19.03125,9.45 Z M3.80625,11.41875 C3.01875,11.41875 2.3625,10.7625 2.3625,9.975 C2.3625,9.1875 3.01875,8.53125 3.80625,8.53125 C4.59375,8.6625 5.25,9.31875 5.25,10.10625 C5.25,10.7625 4.59375,11.41875 3.80625,11.41875 L3.80625,11.41875 Z M19.03125,17.0625 L6.16875,17.0625 C5.90625,16.0125 4.9875,15.35625 3.80625,15.35625 C2.49375,15.35625 1.44375,16.40625 1.44375,17.71875 C1.44375,19.03125 2.49375,20.08125 3.80625,20.08125 C4.85625,20.08125 5.775,19.29375 6.16875,18.375 L19.03125,18.375 C19.425,18.375 19.6875,18.1125 19.6875,17.71875 C19.6875,17.325 19.425,17.0625 19.03125,17.0625 Z M3.80625,19.03125 C3.01875,19.03125 2.3625,18.375 2.3625,17.5875 C2.3625,16.8 3.01875,16.14375 3.80625,16.14375 C4.59375,16.14375 5.25,16.8 5.25,17.5875 C5.25,18.50625 4.59375,19.03125 3.80625,19.03125 L3.80625,19.03125 Z" id="形状"></path>
                </g>
            </g>
        </g>
    </g>
</svg>