<?xml version="1.0" encoding="UTF-8"?>
<svg width="16px" height="16px" viewBox="0 0 16 16" version="1.1" xmlns="http://www.w3.org/2000/svg" xmlns:xlink="http://www.w3.org/1999/xlink">
    <title>形状结合</title>
    <g id="页面-1" stroke="none" stroke-width="1" fill="none" fill-rule="evenodd">
        <g id="-AI助手icon" fill="#979797" fill-rule="nonzero">
            <g id="编组">
                <path d="M11.5737592,0.577721912 C11.806977,0.34231562 12.1868718,0.340541456 12.4222781,0.573759204 C12.6576844,0.806976952 12.6594585,1.1868718 12.4262408,1.42227809 L11.358,2.49999996 L12,2.5 C13.6568542,2.5 15,3.84314575 15,5.5 L15,10.5 C15,12.1568542 13.6568542,13.5 12,13.5 L4,13.5 C2.34314575,13.5 1,12.1568542 1,10.5 L1,5.5 C1,3.84314575 2.34314575,2.5 4,2.5 L4.641,2.49999996 L3.5737592,1.42227809 C3.34054146,1.1868718 3.34231562,0.806976952 3.57772191,0.573759204 C3.8131282,0.340541456 4.19302305,0.34231562 4.4262408,0.577721912 L6.27640404,2.44524731 L6.331,2.49999996 L9.668,2.49999996 L9.72359596,2.44524731 Z M12,3.7 L4,3.7 C3.00588745,3.7 2.2,4.50588745 2.2,5.5 L2.2,10.5 C2.2,11.4941125 3.00588745,12.3 4,12.3 L12,12.3 C12.9941125,12.3 13.8,11.4941125 13.8,10.5 L13.8,5.5 C13.8,4.50588745 12.9941125,3.7 12,3.7 Z M5.5,5.75 C5.91421356,5.75 6.25,6.08578644 6.25,6.5 L6.25,8 C6.25,8.41421356 5.91421356,8.75 5.5,8.75 C5.08578644,8.75 4.75,8.41421356 4.75,8 L4.75,6.5 C4.75,6.08578644 5.08578644,5.75 5.5,5.75 Z M10.5,5.75 C10.9142136,5.75 11.25,6.08578644 11.25,6.5 L11.25,8 C11.25,8.41421356 10.9142136,8.75 10.5,8.75 C10.0857864,8.75 9.75,8.41421356 9.75,8 L9.75,6.5 C9.75,6.08578644 10.0857864,5.75 10.5,5.75 Z M11.1,14.4 L11.1,15.6 L4.9,15.6 L4.9,14.4 L11.1,14.4 Z" id="形状结合"></path>
            </g>
        </g>
    </g>
</svg>