<?xml version="1.0" encoding="UTF-8"?>
<svg width="22px" height="6px" viewBox="0 0 22 6" version="1.1" xmlns="http://www.w3.org/2000/svg" xmlns:xlink="http://www.w3.org/1999/xlink">
    <title>串形图标</title>
    <g id="设计稿" stroke="none" stroke-width="1" fill="none" fill-rule="evenodd">
        <g id="蓝绿发布详情-发布前" transform="translate(-63, -436)" fill="#3E4763" fill-rule="nonzero">
            <g id="编组-44备份" transform="translate(41, 416)">
                <g id="串形图标" transform="translate(22.2778, 20.9187)">
                    <path d="M17.25,1.70625 L4.6,1.70625 C4.34444444,0.65625 3.45,7.27595761e-11 2.42777778,7.27595761e-11 C1.15,7.27595761e-11 0,1.05 0,2.3625 C0,3.675 1.02222222,4.725 2.3,4.725 C3.32222222,4.725 4.21666667,3.9375 4.6,3.01875 L17.1222222,3.01875 C17.5055556,3.01875 17.8888889,2.75625 17.8888889,2.3625 C17.8888889,1.96875 17.5055556,1.70625 17.25,1.70625 Z M2.42777778,3.80625 C1.66111111,3.80625 1.02222222,3.15 1.02222222,2.3625 C1.02222222,1.575 1.66111111,0.91875 2.42777778,0.91875 C3.19444444,0.91875 3.83333333,1.575 3.83333333,2.3625 C3.70555556,3.15 3.19444444,3.80625 2.42777778,3.80625 Z" id="形状"></path>
                    <path d="M21.0833333,1.70625 L8.43333333,1.70625 C8.17777778,0.65625 7.28333333,0 6.26111111,0 C4.98333333,0 3.83333333,1.05 3.83333333,2.3625 C3.83333333,3.675 4.85555556,4.725 6.13333333,4.725 C7.15555556,4.725 8.05,3.9375 8.43333333,3.01875 L20.9555556,3.01875 C21.3388889,3.01875 21.7222222,2.75625 21.7222222,2.3625 C21.7222222,1.96875 21.3388889,1.70625 21.0833333,1.70625 Z M6.26111111,3.80625 C5.49444444,3.80625 4.85555556,3.15 4.85555556,2.3625 C4.85555556,1.575 5.49444444,0.91875 6.26111111,0.91875 C7.02777778,0.91875 7.66666667,1.575 7.66666667,2.3625 C7.53888889,3.15 7.02777778,3.80625 6.26111111,3.80625 Z" id="形状" transform="translate(12.7778, 2.3625) rotate(-180) translate(-12.7778, -2.3625)"></path>
                </g>
            </g>
        </g>
    </g>
</svg>