<?xml version="1.0" encoding="UTF-8"?>
<svg width="18px" height="16px" viewBox="0 0 18 16" version="1.1" xmlns="http://www.w3.org/2000/svg" xmlns:xlink="http://www.w3.org/1999/xlink">
    <title>图标-折叠侧边栏</title>
    <g id="首页" stroke="none" stroke-width="1" fill="none" fill-rule="evenodd">
        <g id="交互明细" transform="translate(-531, -1923)" fill="#595959">
            <g id="通用图标/查看代码" transform="translate(530, 1921)">
                <g id="图标-折叠侧边栏" transform="translate(1.4286, 0.7589)">
                    <path d="M14.0535714,1.42857143 L3,1.42857143 C1.34314575,1.42857143 0,2.77171718 4.4408921e-16,4.42857143 L4.4408921e-16,14.0535714 C4.4408921e-16,15.7104257 1.34314575,17.0535714 3,17.0535714 L14.0535714,17.0535714 C15.7104257,17.0535714 17.0535714,15.7104257 17.0535714,14.0535714 L17.0535714,4.42857143 C17.0535714,2.77171718 15.7104257,1.42857143 14.0535714,1.42857143 Z M13.6473214,15.6473214 L3.40625,15.6473214 C2.3016805,15.6473214 1.40625,14.7518909 1.40625,13.6473214 L1.40625,4.83482143 C1.40625,3.73025193 2.3016805,2.83482143 3.40625,2.83482143 L13.6473214,2.83482143 C14.7518909,2.83482143 15.6473214,3.73025193 15.6473214,4.83482143 L15.6473214,13.6473214 C15.6473214,14.7518909 14.7518909,15.6473214 13.6473214,15.6473214 Z" id="形状"></path>
                    <polygon id="路径" points="6.523125 17.0061384 8.090625 17.0061384 8.090625 1.64899554 6.46205357 1.64899554"></polygon>
                    <path d="M3.38646545,6.13470982 L4.21919688,6.13470982 C4.66891446,6.13470982 5.0334826,5.77014169 5.0334826,5.32042411 C5.0334826,4.87070653 4.66891446,4.50613839 4.21919688,4.50613839 L3.38646545,4.50613839 C2.93674787,4.50613839 2.57217974,4.87070653 2.57217974,5.32042411 C2.57217974,5.77014169 2.93674787,6.13470982 3.38646545,6.13470982 Z" id="路径备份"></path>
                    <path d="M3.38646545,8.99185268 L4.21919688,8.99185268 C4.66891446,8.99185268 5.0334826,8.62728455 5.0334826,8.17756696 C5.0334826,7.72784938 4.66891446,7.36328125 4.21919688,7.36328125 L3.38646545,7.36328125 C2.93674787,7.36328125 2.57217974,7.72784938 2.57217974,8.17756696 C2.57217974,8.62728455 2.93674787,8.99185268 3.38646545,8.99185268 Z" id="路径备份-2"></path>
                </g>
            </g>
        </g>
    </g>
</svg>