<?xml version="1.0" encoding="UTF-8"?>
<svg width="18px" height="18px" viewBox="0 0 18 18" version="1.1" xmlns="http://www.w3.org/2000/svg" xmlns:xlink="http://www.w3.org/1999/xlink">
    <title>团队管理</title>
    <g id="团队管理" stroke="none" fill="none" fill-rule="evenodd" stroke-linecap="round" stroke-linejoin="round" stroke-width="1">
        <g id="编组" transform="translate(1.5, 2.25)" stroke="#333333">
            <path d="M7.49996625,5.25 C8.94971625,5.25 10.1249663,4.07475 10.1249663,2.625 C10.1249663,1.17525375 8.94971625,-8.41432187e-16 7.49996625,-8.41432187e-16 C6.05021625,-8.41432187e-16 4.87496625,1.17525375 4.87496625,2.625 C4.87496625,4.07475 6.05021625,5.25 7.49996625,5.25 Z" id="路径"></path>
            <path d="M2.99996625,0.47058 C2.31990375,0.94493625 1.87496625,1.733025 1.87496625,2.625075 C1.87496625,3.5799375 2.38481625,4.4157375 3.14711625,4.875075" id="路径"></path>
            <path d="M11.9999663,0.47058 C12.6800288,0.94493625 13.1249663,1.733025 13.1249663,2.625075 C13.1249663,3.5170875 12.6800288,4.305225 11.9999663,4.7795625" id="路径"></path>
            <path d="M2.99996625,12.75 L2.99996625,13.5 L11.9999663,13.5 L11.9999663,12.75 C11.9999663,11.3521875 11.9999663,10.6532625 11.7715913,10.1019375 C11.4671288,9.3668625 10.8831038,8.7828375 10.1480288,8.478375 C9.59670375,8.25 8.89777875,8.25 7.49996625,8.25 C6.10215375,8.25 5.40322875,8.25 4.85190375,8.478375 C4.11682875,8.7828375 3.53280375,9.3668625 3.22834125,10.1019375 C2.99996625,10.6532625 2.99996625,11.3521875 2.99996625,12.75 Z" id="路径"></path>
            <path d="M14.9999287,13.5000375 L14.9999287,13.0500375 C14.9999287,11.3698875 14.9999287,10.5298125 14.6729662,9.888075 C14.3853412,9.3235875 13.9263787,8.8646625 13.3618912,8.5770375" id="路径"></path>
            <path d="M0,13.5000375 L0,13.0500375 C0,11.3698875 0,10.5298125 0.32698125,9.888075 C0.61459875,9.3235875 1.0735425,8.8646625 1.63802625,8.5770375" id="路径"></path>
        </g>
    </g>
</svg>