<?xml version="1.0" encoding="UTF-8"?>
<svg width="14px" height="14px" viewBox="0 0 14 14" version="1.1" xmlns="http://www.w3.org/2000/svg" xmlns:xlink="http://www.w3.org/1999/xlink">
    <title>踩</title>
    <g id="页面-1" stroke="none" stroke-width="1" fill="none" fill-rule="evenodd">
        <g id="对话终端方案一" transform="translate(-857, -342)" fill="#606F7C" fill-rule="nonzero">
            <g id="编组-14" transform="translate(829, 342)">
                <path d="M41.6800179,5.53765805 C41.3152617,4.92577608 40.759097,4.59666927 40.0265495,4.55941979 C39.9823888,4.55411837 39.9401423,4.55146766 39.8991262,4.55146766 L37.5426692,4.5432365 C37.6495708,4.05719359 37.7064465,3.56555629 37.7064465,3.10908975 C37.7064465,2.64188085 37.6564068,2.17075168 37.557558,1.70856519 C37.549985,1.67342607 37.5391819,1.63909389 37.525292,1.60602449 C37.2698984,0.655409445 36.4438478,0 35.4835515,0 C34.345095,0 33.4866417,0.952568198 33.4866417,2.21567428 L33.4858077,2.24748282 C33.4847139,2.28082598 33.4834835,2.32365591 33.4859444,2.37332188 C33.4371489,3.68958171 32.3764863,4.83858161 31.0549612,5.00683206 L29.193131,5.037385 C29.1625057,5.03459478 29.1318803,5.03319967 29.1012549,5.03319967 C28.496828,5.03319967 28.0050587,5.54058778 28.0050587,6.1637841 L28,12.8768096 C28,13.4958067 28.4920428,13.9995815 29.0968936,13.9995815 L31.1390579,14 L31.1401516,14 L38.9049096,13.9863279 L38.9050599,13.9863279 C39.3347582,13.9863279 39.6042341,13.8635581 39.9248432,13.6512221 C40.241675,13.4408438 40.4989915,13.1494682 40.6711859,12.8060914 C40.7303858,12.7087126 40.7744097,12.6046373 40.8023007,12.4960977 C40.804078,12.4889686 40.8058554,12.4818536 40.8073593,12.474878 L41.9646696,7.149542 C41.9897039,7.04601477 42.0004264,6.93942364 41.9965254,6.83286564 C42.0214086,6.37401346 41.9123057,5.92689417 41.6800179,5.53765805 Z M29.1251947,6.17911638 C29.142148,6.18051149 29.159238,6.18106953 29.1761914,6.18079051 L30.5286016,6.15846873 L30.5286016,12.8569851 L29.1199993,12.8567061 L29.1251947,6.17911638 Z M40.8729851,6.8942366 L39.7188057,12.2050495 L39.7185322,12.2050495 C39.7047343,12.2260206 39.6923551,12.2479283 39.6814811,12.2706197 C39.597398,12.4450087 39.4736662,12.5872961 39.3145237,12.69292 C39.1095935,12.8286504 39.0503937,12.8434525 38.8993177,12.8434525 L38.8991673,12.8434525 L31.6486009,12.8562178 L31.6486009,6.05453291 C33.3198429,5.63460434 34.5590623,4.13335274 34.6063676,2.37888838 C34.6070512,2.3554505 34.6067777,2.33982525 34.6045902,2.31638738 C34.6043031,2.30550551 34.6048636,2.29462364 34.6052738,2.28360226 C34.6059574,2.26114096 34.6065043,2.23854016 34.6065043,2.21566032 C34.6065043,1.6824487 34.9078359,1.14283351 35.4835515,1.14283351 C35.9501644,1.14283351 36.3504678,1.4779393 36.4571097,1.95756469 C36.4631254,1.98435084 36.4709321,2.01029991 36.4803521,2.03527241 C36.5507631,2.39074682 36.5864471,2.75150871 36.5864471,3.1090758 C36.5864471,3.67380299 36.4728325,4.33662049 36.2748752,4.92715724 C36.2163521,5.10136433 36.2437927,5.29368142 36.3485674,5.44362753 C36.4531533,5.59370508 36.6222833,5.68306143 36.8027524,5.68358671 L39.89955,5.69488712 C39.9181439,5.69753783 39.9367379,5.69921196 39.9554686,5.70004902 C40.3222892,5.71539526 40.5519794,5.84430356 40.7232763,6.1318221 C40.8403226,6.32797478 40.8934931,6.55523844 40.8770867,6.78904518 C40.8750359,6.81722644 40.875446,6.84652378 40.8776336,6.87470503 C40.8759793,6.88126206 40.8743386,6.88767957 40.8729851,6.8942366 Z" id="踩" transform="translate(35, 7) rotate(180) translate(-35, -7)"></path>
            </g>
        </g>
    </g>
</svg>