<?xml version="1.0" encoding="UTF-8"?>
<svg width="105px" height="55px" viewBox="0 0 105 55" version="1.1" xmlns="http://www.w3.org/2000/svg" xmlns:xlink="http://www.w3.org/1999/xlink">
    <title>forms.user-or-user-group-select</title>
    <defs>
        <rect id="path-1" x="10" y="20" width="68" height="14" rx="1"></rect>
    </defs>
    <g id="lydia" stroke="none" stroke-width="1" fill="none" fill-rule="evenodd">
        <g id="构件概览图二" transform="translate(-336.000000, -195.000000)">
            <g id="forms.user-or-user-group-select" transform="translate(336.000000, 195.000000)">
                <g id="编组-16">
                    <rect id="矩形" x="0" y="0" width="105" height="55" rx="4"></rect>
                    <rect id="矩形备份-4" fill="#D6DBEC" x="14" y="24" width="18" height="6" rx="1"></rect>
                    <rect id="矩形备份-5" fill="#D6DBEC" x="36" y="24" width="18" height="6" rx="1"></rect>
                    <g id="矩形备份-23">
                        <use stroke="#1A7AFF" stroke-width="2" xlink:href="#path-1"></use>
                        <rect stroke="#C6DEFF" stroke-width="1" x="9.5" y="19.5" width="69" height="15" rx="1"></rect>
                    </g>
                    <rect id="矩形" fill="#000000" fill-rule="nonzero" opacity="0" x="79" y="20" width="17" height="17"></rect>
                    <path d="M93.382716,33 L89.617284,33 C89.2777778,33 89,32.775 89,32.5 C89,32.225 89.2777778,32 89.617284,32 L93.382716,32 C93.7222222,32 94,32.225 94,32.5 C94,32.775 93.7222222,33 93.382716,33 Z" id="路径" fill="#1A7AFF" fill-rule="nonzero"></path>
                    <path d="M92,30.617284 L92,34.382716 C92,34.7222222 91.775,35 91.5,35 C91.225,35 91,34.7222222 91,34.382716 L91,30.617284 C91,30.2777778 91.225,30 91.5,30 C91.775,30 92,30.2777778 92,30.617284 Z" id="形状" fill="#1A7AFF" fill-rule="nonzero"></path>
                    <path d="M88.5040102,22.1343805 C89.1306963,22.1343805 89.7212906,22.3758414 90.1642362,22.8133882 C90.6071819,23.2509349 90.8516223,23.8343306 90.8516223,24.4533782 C90.8516223,25.0724258 90.6071819,25.6558215 90.1642362,26.0933682 C89.7212906,26.530915 89.1306963,26.772376 88.5040102,26.772376 C87.8773241,26.772376 87.2867299,26.530915 86.8437842,26.0933682 C86.4008385,25.6558215 86.1563981,25.0724258 86.1563981,24.4533782 C86.1563981,23.8343306 86.4008385,23.2509349 86.8437842,22.8133882 C87.2867299,22.3758414 87.8773241,22.1343805 88.5040102,22.1343805 M88.5040102,21 C86.5730952,21 85.0080204,22.5459985 85.0080204,24.4533782 C85.0080204,26.3607579 86.5730952,27.9067564 88.5040102,27.9067564 C90.4349253,27.9067564 92,26.3607579 92,24.4533782 C92,22.5459985 90.4349253,21 88.5040102,21 Z M86.7847248,34 L83,34 L83.0902297,33.3550237 C83.1771783,32.7359761 83.3641998,32.136375 83.644732,31.5740464 C84.0647102,30.7297432 84.6913963,29.9826727 85.4542472,29.4187235 C86.502552,28.6408626 87.7542836,28.2292446 89.0765585,28.2292446 C89.9230769,28.2292446 90.7433467,28.3994016 91.5160408,28.7348542 C91.8064163,28.8612565 91.9376595,29.1950885 91.811338,29.4819247 C91.6833759,29.7687609 91.3454247,29.8984044 91.0550492,29.7736225 C90.4300036,29.5013712 89.7639446,29.3652456 89.0781991,29.3652456 C88.0069267,29.3652456 86.9930733,29.697457 86.1449143,30.3278484 C85.5247904,30.7864622 85.0178637,31.390925 84.6766314,32.0780354 C84.5486693,32.3324607 84.4453153,32.5966093 84.36821,32.8688606 L86.7863653,32.8688606 C87.1029894,32.8688606 87.3605541,33.123286 87.3605541,33.4360509 C87.3605541,33.7488158 87.1013489,34 86.7847248,34 Z" id="形状" fill="#1A7AFF" fill-rule="nonzero"></path>
                </g>
                <g id="编组-2" transform="translate(10.000000, 20.000000)"></g>
            </g>
        </g>
    </g>
</svg>