<?xml version="1.0" encoding="UTF-8"?>
<svg width="105px" height="55px" viewBox="0 0 105 55" version="1.1" xmlns="http://www.w3.org/2000/svg" xmlns:xlink="http://www.w3.org/1999/xlink">
    <title>presentational-bricks.brick-alert</title>
    <g id="nora" stroke="none" stroke-width="1" fill="none" fill-rule="evenodd">
        <g id="构件概览图一" transform="translate(-700.000000, -233.000000)">
            <g id="presentational-bricks.brick-alert" transform="translate(700.000000, 233.000000)">
                <rect id="矩形" x="0" y="0" width="105" height="55" rx="4"></rect>
                <g id="编组备份" transform="translate(6.000000, 6.500000)" fill="#F24C25">
                    <rect id="矩形备份-76" stroke-opacity="0.5" stroke="#F24C25" fill-opacity="0.1" x="-0.5" y="-6.25277607e-13" width="94" height="7" rx="1"></rect>
                    <g id="编组-9" transform="translate(10.000000, 1.500000)">
                        <rect id="矩形备份-5" x="0" y="0" width="1" height="4" rx="0.5"></rect>
                        <rect id="矩形备份-12" x="2" y="0" width="1" height="4" rx="0.5"></rect>
                        <rect id="矩形备份-13" x="4" y="0" width="1" height="4" rx="0.5"></rect>
                        <rect id="矩形备份-14" x="6" y="0" width="1" height="4" rx="0.5"></rect>
                        <rect id="矩形备份-15" x="8" y="0" width="1" height="4" rx="0.5"></rect>
                        <rect id="矩形备份-16" x="10" y="0" width="1" height="4" rx="0.5"></rect>
                        <rect id="矩形备份-17" x="12" y="0" width="1" height="4" rx="0.5"></rect>
                        <rect id="矩形备份-18" x="14" y="0" width="1" height="4" rx="0.5"></rect>
                        <rect id="矩形备份-19" x="16" y="0" width="1" height="4" rx="0.5"></rect>
                        <rect id="矩形备份-20" x="18" y="0" width="1" height="4" rx="0.5"></rect>
                        <rect id="矩形备份-21" x="20" y="0" width="1" height="4" rx="0.5"></rect>
                        <rect id="矩形备份-42" x="22" y="0" width="1" height="4" rx="0.5"></rect>
                        <rect id="矩形备份-43" x="24" y="0" width="1" height="4" rx="0.5"></rect>
                        <rect id="矩形备份-44" x="26" y="0" width="1" height="4" rx="0.5"></rect>
                        <rect id="矩形备份-45" x="28" y="0" width="1" height="4" rx="0.5"></rect>
                        <rect id="矩形备份-46" x="30" y="0" width="1" height="4" rx="0.5"></rect>
                        <rect id="矩形备份-47" x="32" y="0" width="1" height="4" rx="0.5"></rect>
                        <rect id="矩形备份-57" x="34" y="0" width="1" height="4" rx="0.5"></rect>
                        <rect id="矩形备份-61" x="36" y="0" width="1" height="4" rx="0.5"></rect>
                        <rect id="矩形备份-65" x="38" y="0" width="1" height="4" rx="0.5"></rect>
                        <rect id="矩形备份-66" x="40" y="0" width="1" height="4" rx="0.5"></rect>
                        <rect id="矩形备份-67" x="42" y="0" width="1" height="4" rx="0.5"></rect>
                        <rect id="矩形备份-68" x="44" y="0" width="1" height="4" rx="0.5"></rect>
                        <rect id="矩形备份-69" x="46" y="0" width="1" height="4" rx="0.5"></rect>
                    </g>
                    <g id="通用图标/Close-Circle-Fill" transform="translate(2.000000, 1.000000)">
                        <rect id="矩形" fill-rule="nonzero" opacity="0" x="0" y="0" width="5" height="5"></rect>
                        <path d="M2.5,0.3125 C1.29199219,0.3125 0.3125,1.29199219 0.3125,2.5 C0.3125,3.70800781 1.29199219,4.6875 2.5,4.6875 C3.70800781,4.6875 4.6875,3.70800781 4.6875,2.5 C4.6875,1.29199219 3.70800781,0.3125 2.5,0.3125 Z M3.30761719,3.33105469 L2.98535156,3.32958984 L2.5,2.75097656 L2.01513672,3.32910156 L1.69238281,3.33056641 C1.67089844,3.33056641 1.65332031,3.31347656 1.65332031,3.29150391 C1.65332031,3.28222656 1.65673828,3.2734375 1.66259766,3.26611328 L2.29785156,2.50927734 L1.66259766,1.75292969 C1.65673828,1.74560547 1.65332031,1.73681641 1.65332031,1.72753906 C1.65332031,1.70605469 1.67089844,1.68847656 1.69238281,1.68847656 L2.01513672,1.68994141 L2.5,2.26855469 L2.98486328,1.69042969 L3.30712891,1.68896484 C3.32861328,1.68896484 3.34619141,1.70605469 3.34619141,1.72802734 C3.34619141,1.73730469 3.34277344,1.74609375 3.33691406,1.75341797 L2.70263672,2.50976562 L3.33740234,3.26660156 C3.34326172,3.27392578 3.34667969,3.28271484 3.34667969,3.29199219 C3.34667969,3.31347656 3.32910156,3.33105469 3.30761719,3.33105469 Z" id="形状"></path>
                    </g>
                    <g id="编组-13" transform="translate(88.742641, 3.535534) rotate(-315.000000) translate(-88.742641, -3.535534) translate(86.242641, 1.035534)">
                        <rect id="矩形" x="2.08333333" y="1.74813768e-14" width="1" height="5" rx="0.5"></rect>
                        <path d="M2.5,6.66133815e-14 C2.73011865,6.65711094e-14 2.91666667,0.186548021 2.91666667,0.416666667 L2.91666667,4.58333333 C2.91666667,4.81345198 2.73011865,5 2.5,5 C2.26988135,5 2.08333333,4.81345198 2.08333333,4.58333333 L2.08333333,0.416666667 C2.08333333,0.186548021 2.26988135,6.66556536e-14 2.5,6.66133815e-14 Z" id="矩形" transform="translate(2.500000, 2.500000) rotate(-90.000000) translate(-2.500000, -2.500000) "></path>
                    </g>
                </g>
                <g id="编组备份" transform="translate(6.000000, 18.500000)" fill="#4886F6">
                    <rect id="矩形备份-76" stroke-opacity="0.5" stroke="#4886F6" fill-opacity="0.1" x="-0.5" y="-3.41116024e-13" width="94" height="7" rx="1"></rect>
                    <g id="编组-10" transform="translate(88.267767, 3.535534) rotate(-315.000000) translate(-88.267767, -3.535534) translate(85.767767, 1.035534)">
                        <rect id="矩形备份-11" x="2.08333333" y="0" width="1" height="5" rx="0.5"></rect>
                        <path d="M2.5,-1.10844667e-12 C2.73011865,-1.10848894e-12 2.91666667,0.186548021 2.91666667,0.416666667 L2.91666667,4.58333333 C2.91666667,4.81345198 2.73011865,5 2.5,5 C2.26988135,5 2.08333333,4.81345198 2.08333333,4.58333333 L2.08333333,0.416666667 C2.08333333,0.186548021 2.26988135,-1.1084044e-12 2.5,-1.10844667e-12 Z" id="矩形备份-70" transform="translate(2.500000, 2.500000) rotate(-90.000000) translate(-2.500000, -2.500000) "></path>
                    </g>
                    <g id="编组-9备份" transform="translate(10.000000, 1.500000)">
                        <rect id="矩形备份-5" x="0" y="0" width="1" height="4" rx="0.5"></rect>
                        <rect id="矩形备份-12" x="2" y="0" width="1" height="4" rx="0.5"></rect>
                        <rect id="矩形备份-13" x="4" y="0" width="1" height="4" rx="0.5"></rect>
                        <rect id="矩形备份-14" x="6" y="0" width="1" height="4" rx="0.5"></rect>
                        <rect id="矩形备份-15" x="8" y="0" width="1" height="4" rx="0.5"></rect>
                        <rect id="矩形备份-16" x="10" y="0" width="1" height="4" rx="0.5"></rect>
                        <rect id="矩形备份-17" x="12" y="0" width="1" height="4" rx="0.5"></rect>
                        <rect id="矩形备份-18" x="14" y="0" width="1" height="4" rx="0.5"></rect>
                        <rect id="矩形备份-19" x="16" y="0" width="1" height="4" rx="0.5"></rect>
                        <rect id="矩形备份-20" x="18" y="0" width="1" height="4" rx="0.5"></rect>
                        <rect id="矩形备份-21" x="20" y="0" width="1" height="4" rx="0.5"></rect>
                        <rect id="矩形备份-42" x="22" y="0" width="1" height="4" rx="0.5"></rect>
                        <rect id="矩形备份-43" x="24" y="0" width="1" height="4" rx="0.5"></rect>
                        <rect id="矩形备份-44" x="26" y="0" width="1" height="4" rx="0.5"></rect>
                        <rect id="矩形备份-45" x="28" y="0" width="1" height="4" rx="0.5"></rect>
                        <rect id="矩形备份-46" x="30" y="0" width="1" height="4" rx="0.5"></rect>
                        <rect id="矩形备份-47" x="32" y="0" width="1" height="4" rx="0.5"></rect>
                        <rect id="矩形备份-57" x="34" y="0" width="1" height="4" rx="0.5"></rect>
                        <rect id="矩形备份-61" x="36" y="0" width="1" height="4" rx="0.5"></rect>
                        <rect id="矩形备份-65" x="38" y="0" width="1" height="4" rx="0.5"></rect>
                        <rect id="矩形备份-66" x="40" y="0" width="1" height="4" rx="0.5"></rect>
                        <rect id="矩形备份-67" x="42" y="0" width="1" height="4" rx="0.5"></rect>
                        <rect id="矩形备份-68" x="44" y="0" width="1" height="4" rx="0.5"></rect>
                        <rect id="矩形备份-69" x="46" y="0" width="1" height="4" rx="0.5"></rect>
                    </g>
                </g>
                <g id="编组备份" transform="translate(6.000000, 30.500000)">
                    <rect id="矩形备份-76" stroke-opacity="0.5" stroke="#F7BF02" fill-opacity="0.1" fill="#F7BF02" x="-0.5" y="1.70530257e-13" width="94" height="7" rx="1"></rect>
                    <g id="编组-10" transform="translate(88.267767, 3.535534) rotate(-315.000000) translate(-88.267767, -3.535534) translate(85.767767, 1.035534)" fill="#F7BF02">
                        <rect id="矩形备份-11" x="2.08333333" y="0" width="1" height="5" rx="0.5"></rect>
                        <path d="M2.5,-1.10844667e-12 C2.73011865,-1.10848894e-12 2.91666667,0.186548021 2.91666667,0.416666667 L2.91666667,4.58333333 C2.91666667,4.81345198 2.73011865,5 2.5,5 C2.26988135,5 2.08333333,4.81345198 2.08333333,4.58333333 L2.08333333,0.416666667 C2.08333333,0.186548021 2.26988135,-1.1084044e-12 2.5,-1.10844667e-12 Z" id="矩形备份-70" transform="translate(2.500000, 2.500000) rotate(-90.000000) translate(-2.500000, -2.500000) "></path>
                    </g>
                    <g id="编组-9备份-2" transform="translate(10.000000, 1.500000)" fill="#F7BF02">
                        <rect id="矩形备份-5" x="0" y="0" width="1" height="4" rx="0.5"></rect>
                        <rect id="矩形备份-12" x="2" y="0" width="1" height="4" rx="0.5"></rect>
                        <rect id="矩形备份-13" x="4" y="0" width="1" height="4" rx="0.5"></rect>
                        <rect id="矩形备份-14" x="6" y="0" width="1" height="4" rx="0.5"></rect>
                        <rect id="矩形备份-15" x="8" y="0" width="1" height="4" rx="0.5"></rect>
                        <rect id="矩形备份-16" x="10" y="0" width="1" height="4" rx="0.5"></rect>
                        <rect id="矩形备份-17" x="12" y="0" width="1" height="4" rx="0.5"></rect>
                        <rect id="矩形备份-18" x="14" y="0" width="1" height="4" rx="0.5"></rect>
                        <rect id="矩形备份-19" x="16" y="0" width="1" height="4" rx="0.5"></rect>
                        <rect id="矩形备份-20" x="18" y="0" width="1" height="4" rx="0.5"></rect>
                        <rect id="矩形备份-21" x="20" y="0" width="1" height="4" rx="0.5"></rect>
                        <rect id="矩形备份-42" x="22" y="0" width="1" height="4" rx="0.5"></rect>
                        <rect id="矩形备份-43" x="24" y="0" width="1" height="4" rx="0.5"></rect>
                        <rect id="矩形备份-44" x="26" y="0" width="1" height="4" rx="0.5"></rect>
                        <rect id="矩形备份-45" x="28" y="0" width="1" height="4" rx="0.5"></rect>
                        <rect id="矩形备份-46" x="30" y="0" width="1" height="4" rx="0.5"></rect>
                        <rect id="矩形备份-47" x="32" y="0" width="1" height="4" rx="0.5"></rect>
                        <rect id="矩形备份-57" x="34" y="0" width="1" height="4" rx="0.5"></rect>
                        <rect id="矩形备份-61" x="36" y="0" width="1" height="4" rx="0.5"></rect>
                        <rect id="矩形备份-65" x="38" y="0" width="1" height="4" rx="0.5"></rect>
                        <rect id="矩形备份-66" x="40" y="0" width="1" height="4" rx="0.5"></rect>
                        <rect id="矩形备份-67" x="42" y="0" width="1" height="4" rx="0.5"></rect>
                        <rect id="矩形备份-68" x="44" y="0" width="1" height="4" rx="0.5"></rect>
                        <rect id="矩形备份-69" x="46" y="0" width="1" height="4" rx="0.5"></rect>
                    </g>
                    <rect id="矩形备份-79" stroke-opacity="0.5" stroke="#52C41A" fill-opacity="0.1" fill="#52C41A" x="-0.5" y="12" width="94" height="7" rx="1"></rect>
                    <g id="编组-10" transform="translate(88.267767, 15.535534) rotate(-315.000000) translate(-88.267767, -15.535534) translate(85.767767, 13.035534)" fill="#52C41A">
                        <rect id="矩形备份-11" x="2.08333333" y="0" width="1" height="5" rx="0.5"></rect>
                        <path d="M2.5,-1.26920696e-12 C2.73011865,-1.26924923e-12 2.91666667,0.186548021 2.91666667,0.416666667 L2.91666667,4.58333333 C2.91666667,4.81345198 2.73011865,5 2.5,5 C2.26988135,5 2.08333333,4.81345198 2.08333333,4.58333333 L2.08333333,0.416666667 C2.08333333,0.186548021 2.26988135,-1.26916469e-12 2.5,-1.26920696e-12 Z" id="矩形备份-70" transform="translate(2.500000, 2.500000) rotate(-90.000000) translate(-2.500000, -2.500000) "></path>
                    </g>
                    <g id="编组-9备份-3" transform="translate(10.000000, 13.500000)" fill="#52C41A">
                        <rect id="矩形备份-5" x="0" y="0" width="1" height="4" rx="0.5"></rect>
                        <rect id="矩形备份-12" x="2" y="0" width="1" height="4" rx="0.5"></rect>
                        <rect id="矩形备份-13" x="4" y="0" width="1" height="4" rx="0.5"></rect>
                        <rect id="矩形备份-14" x="6" y="0" width="1" height="4" rx="0.5"></rect>
                        <rect id="矩形备份-15" x="8" y="0" width="1" height="4" rx="0.5"></rect>
                        <rect id="矩形备份-16" x="10" y="0" width="1" height="4" rx="0.5"></rect>
                        <rect id="矩形备份-17" x="12" y="0" width="1" height="4" rx="0.5"></rect>
                        <rect id="矩形备份-18" x="14" y="0" width="1" height="4" rx="0.5"></rect>
                        <rect id="矩形备份-19" x="16" y="0" width="1" height="4" rx="0.5"></rect>
                        <rect id="矩形备份-20" x="18" y="0" width="1" height="4" rx="0.5"></rect>
                        <rect id="矩形备份-21" x="20" y="0" width="1" height="4" rx="0.5"></rect>
                        <rect id="矩形备份-42" x="22" y="0" width="1" height="4" rx="0.5"></rect>
                        <rect id="矩形备份-43" x="24" y="0" width="1" height="4" rx="0.5"></rect>
                        <rect id="矩形备份-44" x="26" y="0" width="1" height="4" rx="0.5"></rect>
                        <rect id="矩形备份-45" x="28" y="0" width="1" height="4" rx="0.5"></rect>
                        <rect id="矩形备份-46" x="30" y="0" width="1" height="4" rx="0.5"></rect>
                        <rect id="矩形备份-47" x="32" y="0" width="1" height="4" rx="0.5"></rect>
                        <rect id="矩形备份-57" x="34" y="0" width="1" height="4" rx="0.5"></rect>
                        <rect id="矩形备份-61" x="36" y="0" width="1" height="4" rx="0.5"></rect>
                        <rect id="矩形备份-65" x="38" y="0" width="1" height="4" rx="0.5"></rect>
                        <rect id="矩形备份-66" x="40" y="0" width="1" height="4" rx="0.5"></rect>
                        <rect id="矩形备份-67" x="42" y="0" width="1" height="4" rx="0.5"></rect>
                        <rect id="矩形备份-68" x="44" y="0" width="1" height="4" rx="0.5"></rect>
                        <rect id="矩形备份-69" x="46" y="0" width="1" height="4" rx="0.5"></rect>
                    </g>
                </g>
                <g id="通用图标/Info--Circle-Fill" transform="translate(8.000000, 19.500000)" fill="#4886F6">
                    <rect id="矩形" fill-rule="nonzero" opacity="0" x="0" y="0" width="5" height="5"></rect>
                    <path d="M2.5,0.3125 C1.29199219,0.3125 0.3125,1.29199219 0.3125,2.5 C0.3125,3.70800781 1.29199219,4.6875 2.5,4.6875 C3.70800781,4.6875 4.6875,3.70800781 4.6875,2.5 C4.6875,1.29199219 3.70800781,0.3125 2.5,0.3125 Z M2.65625,3.5546875 C2.65625,3.57617188 2.63867188,3.59375 2.6171875,3.59375 L2.3828125,3.59375 C2.36132812,3.59375 2.34375,3.57617188 2.34375,3.5546875 L2.34375,2.2265625 C2.34375,2.20507812 2.36132812,2.1875 2.3828125,2.1875 L2.6171875,2.1875 C2.63867188,2.1875 2.65625,2.20507812 2.65625,2.2265625 L2.65625,3.5546875 Z M2.5,1.875 C2.37060547,1.875 2.265625,1.77001953 2.265625,1.640625 C2.265625,1.51123047 2.37060547,1.40625 2.5,1.40625 C2.62939453,1.40625 2.734375,1.51123047 2.734375,1.640625 C2.734375,1.77001953 2.62939453,1.875 2.5,1.875 Z" id="形状"></path>
                </g>
                <g id="通用图标/Warning-circle-fill" transform="translate(8.000000, 31.500000)" fill="#F7BF02">
                    <rect id="矩形" fill-rule="nonzero" opacity="0" x="0" y="0" width="5" height="5"></rect>
                    <path d="M2.5,0.3125 C1.29199219,0.3125 0.3125,1.29199219 0.3125,2.5 C0.3125,3.70800781 1.29199219,4.6875 2.5,4.6875 C3.70800781,4.6875 4.6875,3.70800781 4.6875,2.5 C4.6875,1.29199219 3.70800781,0.3125 2.5,0.3125 Z M2.34375,1.4453125 C2.34375,1.42382812 2.36132812,1.40625 2.3828125,1.40625 L2.6171875,1.40625 C2.63867188,1.40625 2.65625,1.42382812 2.65625,1.4453125 L2.65625,2.7734375 C2.65625,2.79492188 2.63867188,2.8125 2.6171875,2.8125 L2.3828125,2.8125 C2.36132812,2.8125 2.34375,2.79492188 2.34375,2.7734375 L2.34375,1.4453125 Z M2.5,3.59375 C2.37060547,3.59375 2.265625,3.48876953 2.265625,3.359375 C2.265625,3.22998047 2.37060547,3.125 2.5,3.125 C2.62939453,3.125 2.734375,3.22998047 2.734375,3.359375 C2.734375,3.48876953 2.62939453,3.59375 2.5,3.59375 Z" id="形状"></path>
                </g>
                <g id="通用图标/Check-Circle-Fill" transform="translate(8.000000, 43.500000)" fill="#52C41A">
                    <rect id="矩形" fill-rule="nonzero" opacity="0" x="0" y="0" width="5" height="5"></rect>
                    <path d="M2.5,0.3125 C1.29199219,0.3125 0.3125,1.29199219 0.3125,2.5 C0.3125,3.70800781 1.29199219,4.6875 2.5,4.6875 C3.70800781,4.6875 4.6875,3.70800781 4.6875,2.5 C4.6875,1.29199219 3.70800781,0.3125 2.5,0.3125 Z M3.44482422,1.78564453 L2.41650391,3.21142578 C2.35449219,3.29785156 2.22607422,3.29785156 2.1640625,3.21142578 L1.55517578,2.36767578 C1.53662109,2.34179687 1.55517578,2.30566406 1.58691406,2.30566406 L1.81591797,2.30566406 C1.86572266,2.30566406 1.91308594,2.32958984 1.94238281,2.37060547 L2.29003906,2.85302734 L3.05761719,1.78857422 C3.08691406,1.74804687 3.13378906,1.72363281 3.18408203,1.72363281 L3.41308594,1.72363281 C3.44482422,1.72363281 3.46337891,1.75976562 3.44482422,1.78564453 Z" id="形状"></path>
                </g>
            </g>
        </g>
    </g>
</svg>