<?xml version="1.0" encoding="UTF-8"?>
<svg width="105px" height="55px" viewBox="0 0 105 55" version="1.1" xmlns="http://www.w3.org/2000/svg" xmlns:xlink="http://www.w3.org/1999/xlink">
    <title>presentational-bricks-widgets.brick-alert-success</title>
    <defs>
        <rect id="path-1" x="0" y="0" width="105" height="55" rx="4"></rect>
    </defs>
    <g id="nora" stroke="none" stroke-width="1" fill="none" fill-rule="evenodd">
        <g id="-构件概览图七" transform="translate(-573.000000, -202.000000)">
            <g id="presentational-bricks-widgets.brick-alert-success" transform="translate(573.000000, 202.000000)">
                <mask id="mask-2" fill="white">
                    <use xlink:href="#path-1"></use>
                </mask>
                <g id="矩形备份-46"></g>
                <g id="编组-17" mask="url(#mask-2)">
                    <g transform="translate(6.000000, 25.000000)">
                        <rect id="矩形备份-79" stroke-opacity="0.5" stroke="#52C41A" fill-opacity="0.1" fill="#52C41A" x="-0.5" y="-0.5" width="94" height="7" rx="1"></rect>
                        <g id="编组-9备份-3" stroke="none" fill="none" transform="translate(10.000000, 1.000000)">
                            <rect id="矩形备份-5" fill="#52C41A" x="0" y="0" width="1" height="4" rx="0.5"></rect>
                            <rect id="矩形备份-12" fill="#52C41A" x="2" y="0" width="1" height="4" rx="0.5"></rect>
                            <rect id="矩形备份-13" fill="#52C41A" x="4" y="0" width="1" height="4" rx="0.5"></rect>
                            <rect id="矩形备份-14" fill="#52C41A" x="6" y="0" width="1" height="4" rx="0.5"></rect>
                            <rect id="矩形备份-15" fill="#52C41A" x="8" y="0" width="1" height="4" rx="0.5"></rect>
                            <rect id="矩形备份-16" fill="#52C41A" x="10" y="0" width="1" height="4" rx="0.5"></rect>
                            <rect id="矩形备份-17" fill="#52C41A" x="12" y="0" width="1" height="4" rx="0.5"></rect>
                            <rect id="矩形备份-18" fill="#52C41A" x="14" y="0" width="1" height="4" rx="0.5"></rect>
                            <rect id="矩形备份-19" fill="#52C41A" x="16" y="0" width="1" height="4" rx="0.5"></rect>
                            <rect id="矩形备份-20" fill="#52C41A" x="18" y="0" width="1" height="4" rx="0.5"></rect>
                            <rect id="矩形备份-21" fill="#52C41A" x="20" y="0" width="1" height="4" rx="0.5"></rect>
                            <rect id="矩形备份-42" fill="#52C41A" x="22" y="0" width="1" height="4" rx="0.5"></rect>
                            <rect id="矩形备份-43" fill="#52C41A" x="24" y="0" width="1" height="4" rx="0.5"></rect>
                            <rect id="矩形备份-44" fill="#52C41A" x="26" y="0" width="1" height="4" rx="0.5"></rect>
                            <rect id="矩形备份-45" fill="#52C41A" x="28" y="0" width="1" height="4" rx="0.5"></rect>
                            <rect id="矩形备份-46" fill="#52C41A" x="30" y="0" width="1" height="4" rx="0.5"></rect>
                            <rect id="矩形备份-47" fill="#52C41A" x="32" y="0" width="1" height="4" rx="0.5"></rect>
                            <rect id="矩形备份-57" fill="#52C41A" x="34" y="0" width="1" height="4" rx="0.5"></rect>
                            <rect id="矩形备份-61" fill="#52C41A" x="36" y="0" width="1" height="4" rx="0.5"></rect>
                            <rect id="矩形备份-65" fill="#52C41A" x="38" y="0" width="1" height="4" rx="0.5"></rect>
                            <rect id="矩形备份-66" fill="#52C41A" x="40" y="0" width="1" height="4" rx="0.5"></rect>
                            <rect id="矩形备份-67" fill="#52C41A" x="42" y="0" width="1" height="4" rx="0.5"></rect>
                            <rect id="矩形备份-68" fill="#52C41A" x="44" y="0" width="1" height="4" rx="0.5"></rect>
                            <rect id="矩形备份-69" fill="#52C41A" x="46" y="0" width="1" height="4" rx="0.5"></rect>
                        </g>
                        <g id="通用图标/Check-Circle-Fill" stroke="none" fill="none" transform="translate(2.000000, 0.500000)">
                            <rect id="矩形" fill="#52C41A" fill-rule="nonzero" opacity="0" x="0" y="0" width="5" height="5"></rect>
                            <path d="M2.5,0.3125 C1.29199219,0.3125 0.3125,1.29199219 0.3125,2.5 C0.3125,3.70800781 1.29199219,4.6875 2.5,4.6875 C3.70800781,4.6875 4.6875,3.70800781 4.6875,2.5 C4.6875,1.29199219 3.70800781,0.3125 2.5,0.3125 Z M3.44482422,1.78564453 L2.41650391,3.21142578 C2.35449219,3.29785156 2.22607422,3.29785156 2.1640625,3.21142578 L1.55517578,2.36767578 C1.53662109,2.34179687 1.55517578,2.30566406 1.58691406,2.30566406 L1.81591797,2.30566406 C1.86572266,2.30566406 1.91308594,2.32958984 1.94238281,2.37060547 L2.29003906,2.85302734 L3.05761719,1.78857422 C3.08691406,1.74804687 3.13378906,1.72363281 3.18408203,1.72363281 L3.41308594,1.72363281 C3.44482422,1.72363281 3.46337891,1.75976562 3.44482422,1.78564453 Z" id="形状" fill="#52C41A"></path>
                        </g>
                    </g>
                </g>
            </g>
        </g>
    </g>
</svg>