<?xml version="1.0" encoding="UTF-8"?>
<svg width="105px" height="55px" viewBox="0 0 105 55" version="1.1" xmlns="http://www.w3.org/2000/svg" xmlns:xlink="http://www.w3.org/1999/xlink">
    <title>code-bricks.code-display</title>
    <g id="lydia" stroke="none" stroke-width="1" fill="none" fill-rule="evenodd">
        <g id="构件概览图二" transform="translate(-719.000000, -195.000000)">
            <g id="code-bricks.code-display" transform="translate(719.000000, 195.000000)">
                <rect id="矩形备份-52" x="0" y="0" width="105" height="55" rx="4"></rect>
                <rect id="矩形备份-48" fill="#1A7AFF" fill-rule="nonzero" x="16" y="8" width="15" height="4" rx="1"></rect>
                <rect id="矩形备份-49" fill="#52C41A" x="81" y="8" width="8" height="4" rx="1"></rect>
                <rect id="矩形备份-49" fill="#D6DBEC" x="35" y="8" width="42" height="4" rx="1"></rect>
                <rect id="矩形备份-48" fill="#D6DBEC" x="16" y="17" width="45" height="4" rx="1"></rect>
                <rect id="矩形备份-62" fill="#52C41A" x="24" y="44" width="11" height="4" rx="1"></rect>
                <rect id="矩形备份-49" fill="#1A7AFF" x="65" y="17" width="16" height="4" rx="1"></rect>
                <rect id="矩形备份-63" fill="#D6DBEC" x="39" y="44" width="42" height="4" rx="1"></rect>
                <rect id="矩形备份-48" fill="#1A7AFF" fill-rule="nonzero" x="16" y="36" width="34" height="4" rx="1"></rect>
                <rect id="矩形备份-49" fill="#52C41A" x="54" y="36" width="11" height="4" rx="1"></rect>
                <path d="M19.584,28.304 C19.712,28.176 19.7813333,28.0053333 19.792,27.792 C19.8026667,27.5786667 19.744,27.4133333 19.616,27.296 L16.992,24.656 C16.864,24.528 16.7066667,24.464 16.52,24.464 C16.3333333,24.464 16.176,24.528 16.048,24.656 C15.92,24.7946667 15.856,24.9573333 15.856,25.144 C15.856,25.3306667 15.92,25.488 16.048,25.616 L18.192,27.792 L16.048,29.952 C15.92,30.08 15.856,30.2373333 15.856,30.424 C15.856,30.6106667 15.92,30.7733333 16.048,30.912 C16.176,31.04 16.3333333,31.104 16.52,31.104 C16.7066667,31.104 16.864,31.04 16.992,30.912 L19.584,28.304 Z" id="路径" fill="#D6DBEC" fill-rule="nonzero"></path>
                <path d="M88.584,46.304 C88.712,46.176 88.7813333,46.0053333 88.792,45.792 C88.8026667,45.5786667 88.744,45.4133333 88.616,45.296 L85.992,42.656 C85.864,42.528 85.7066667,42.464 85.52,42.464 C85.3333333,42.464 85.176,42.528 85.048,42.656 C84.92,42.7946667 84.856,42.9573333 84.856,43.144 C84.856,43.3306667 84.92,43.488 85.048,43.616 L87.192,45.792 L85.048,47.952 C84.92,48.08 84.856,48.2373333 84.856,48.424 C84.856,48.6106667 84.92,48.7733333 85.048,48.912 C85.176,49.04 85.3333333,49.104 85.52,49.104 C85.7066667,49.104 85.864,49.04 85.992,48.912 L88.584,46.304 Z" id="路径备份" fill="#D6DBEC" fill-rule="nonzero"></path>
                <path d="M19.584,46.304 C19.712,46.176 19.7813333,46.0053333 19.792,45.792 C19.8026667,45.5786667 19.744,45.4133333 19.616,45.296 L16.992,42.656 C16.864,42.528 16.7066667,42.464 16.52,42.464 C16.3333333,42.464 16.176,42.528 16.048,42.656 C15.92,42.7946667 15.856,42.9573333 15.856,43.144 C15.856,43.3306667 15.92,43.488 16.048,43.616 L18.192,45.792 L16.048,47.952 C15.92,48.08 15.856,48.2373333 15.856,48.424 C15.856,48.6106667 15.92,48.7733333 16.048,48.912 C16.176,49.04 16.3333333,49.104 16.52,49.104 C16.7066667,49.104 16.864,49.04 16.992,48.912 L19.584,46.304 Z" id="路径备份" fill="#D6DBEC" fill-rule="nonzero" transform="translate(17.824615, 45.784000) scale(-1, 1) translate(-17.824615, -45.784000) "></path>
                <polygon id="路径" fill="#D6DBEC" fill-rule="nonzero" points="22.864 30.08 19.856 30.08 19.856 31.088 22.864 31.088 22.864 30.08"></polygon>
            </g>
        </g>
    </g>
</svg>