<?xml version="1.0" encoding="UTF-8"?>
<svg width="105px" height="55px" viewBox="0 0 105 55" version="1.1" xmlns="http://www.w3.org/2000/svg" xmlns:xlink="http://www.w3.org/1999/xlink">
    <title>presentational-bricks.brick-descriptions</title>
    <g id="nora" stroke="none" stroke-width="1" fill="none" fill-rule="evenodd">
        <g id="构件概览图一" transform="translate(-178.000000, -234.000000)">
            <g id="presentational-bricks.brick-descriptions" transform="translate(178.000000, 234.000000)">
                <rect id="矩形备份-22" x="0" y="0" width="105" height="55" rx="4"></rect>
                <g id="编组-2备份" transform="translate(6.000000, 13.000000)">
                    <rect id="矩形备份-28" fill="#F4F5F9" x="18" y="10" width="19" height="4" rx="1"></rect>
                    <rect id="矩形备份-31" fill="#F4F5F9" x="18" y="18" width="23" height="4" rx="1"></rect>
                    <rect id="矩形备份-35" fill="#F4F5F9" x="18" y="26" width="15" height="4" rx="1"></rect>
                    <rect id="矩形备份-29" fill="#F4F5F9" x="71" y="10" width="18" height="4" rx="1"></rect>
                    <rect id="矩形备份-33" fill="#F4F5F9" x="71" y="18" width="22" height="4" rx="1"></rect>
                    <rect id="矩形备份-36" fill="#F4F5F9" x="71" y="26" width="12" height="4" rx="1"></rect>
                    <rect id="矩形" fill="#1A7AFF" x="0" y="0" width="25" height="4" rx="1"></rect>
                    <rect id="矩形备份-26" fill="#D6DBEC" x="0" y="10" width="14" height="4" rx="1"></rect>
                    <rect id="矩形备份-32" fill="#D6DBEC" x="3" y="18" width="11" height="4" rx="1"></rect>
                    <rect id="矩形备份-40" fill="#D6DBEC" x="3" y="26" width="11" height="4" rx="1"></rect>
                    <rect id="矩形备份-30" fill="#D6DBEC" x="55" y="10" width="12" height="4" rx="1"></rect>
                    <rect id="矩形备份-34" fill="#D6DBEC" x="51" y="18" width="16" height="4" rx="1"></rect>
                    <rect id="矩形备份-41" fill="#D6DBEC" x="58" y="26" width="9" height="4" rx="1"></rect>
                </g>
            </g>
        </g>
    </g>
</svg>