<?xml version="1.0" encoding="UTF-8"?>
<svg width="105px" height="55px" viewBox="0 0 105 55" version="1.1" xmlns="http://www.w3.org/2000/svg" xmlns:xlink="http://www.w3.org/1999/xlink">
    <title>presentational-bricks.general-pagination</title>
    <g id="nora" stroke="none" stroke-width="1" fill="none" fill-rule="evenodd">
        <g id="-构件概览图四" transform="translate(-48.000000, -371.000000)">
            <g id="presentational-bricks.general-pagination" transform="translate(48.000000, 371.000000)">
                <rect id="矩形备份-46" x="0" y="0" width="105" height="55" rx="4"></rect>
                <g id="编组-22" transform="translate(13.000000, 22.000000)">
                    <rect id="矩形备份-145" fill="#F4F5F9" x="0" y="0" width="10" height="10" rx="1"></rect>
                    <polyline id="路径-2" stroke="#778DC3" stroke-linecap="round" stroke-linejoin="round" transform="translate(5.200000, 5.000000) rotate(-180.000000) translate(-5.200000, -5.000000) " points="4 3 6.4 5 4 7"></polyline>
                    <rect id="矩形备份-146" fill="#F4F5F9" x="14" y="0" width="10" height="10" rx="1"></rect>
                    <rect id="矩形备份-147" fill="#F4F5F9" x="28" y="0" width="10" height="10" rx="1"></rect>
                    <rect id="矩形备份-148" fill="#F4F5F9" x="42" y="0" width="10" height="10" rx="1"></rect>
                    <rect id="矩形备份-149" fill="#F4F5F9" x="56" y="0" width="10" height="10" rx="1"></rect>
                    <g id="编组-25" transform="translate(70.000000, 0.000000)">
                        <rect id="矩形备份-155" fill="#F4F5F9" x="0" y="0" width="10" height="10" rx="1"></rect>
                        <polyline id="路径-2备份" stroke="#778DC3" stroke-linecap="round" stroke-linejoin="round" points="4 3 6.4 5 4 7"></polyline>
                    </g>
                </g>
            </g>
        </g>
    </g>
</svg>