<?xml version="1.0" encoding="UTF-8"?>
<svg width="105px" height="55px" viewBox="0 0 105 55" version="1.1" xmlns="http://www.w3.org/2000/svg" xmlns:xlink="http://www.w3.org/1999/xlink">
    <title>presentational-bricks.statistic-card[normal]</title>
    <g id="snippet截图" stroke="none" stroke-width="1" fill="none" fill-rule="evenodd">
        <g id="snippet" transform="translate(-8484.000000, -360.000000)">
            <g id="presentational-bricks.statistic-card[normal]" transform="translate(8484.000000, 360.000000)">
                <rect id="矩形备份-46" x="0" y="0" width="105" height="55" rx="4"></rect>
                <g id="编组-36" transform="translate(8.000000, 13.000000)">
                    <rect id="矩形备份-104" stroke="#F4F5F9" x="0" y="0" width="89" height="29" rx="1"></rect>
                    <circle id="椭圆形" fill="#1A7AFF" cx="73" cy="15" r="10"></circle>
                    <circle id="椭圆形" fill-opacity="0.5" fill="#FFFFFF" cx="73" cy="15" r="6"></circle>
                    <g id="编组-28" transform="translate(9.000000, 19.000000)" fill="#D6DBEC">
                        <rect id="矩形备份-76" x="0" y="0" width="1" height="6"></rect>
                        <rect id="矩形备份-90" x="2" y="0" width="1" height="6"></rect>
                        <rect id="矩形备份-91" x="4" y="0" width="1" height="6"></rect>
                        <rect id="矩形备份-92" x="6" y="0" width="1" height="6"></rect>
                        <rect id="矩形备份-93" x="8" y="0" width="1" height="6"></rect>
                        <rect id="矩形备份-94" x="10" y="0" width="1" height="6"></rect>
                        <rect id="矩形备份-95" x="12" y="0" width="1" height="6"></rect>
                        <rect id="矩形备份-96" x="14" y="0" width="1" height="6"></rect>
                        <rect id="矩形备份-97" x="16" y="0" width="1" height="6"></rect>
                        <rect id="矩形备份-98" x="18" y="0" width="1" height="6"></rect>
                        <rect id="矩形备份-99" x="20" y="0" width="1" height="6"></rect>
                        <rect id="矩形备份-100" x="22" y="0" width="1" height="6"></rect>
                        <rect id="矩形备份-101" x="24" y="0" width="1" height="6"></rect>
                        <rect id="矩形备份-102" x="26" y="0" width="1" height="6"></rect>
                    </g>
                    <text id="99" fill="#778DC3" fill-rule="nonzero" font-family="PingFang-SC-Medium, PingFang SC" font-size="14" font-weight="400">
                        <tspan x="8.1" y="15">99</tspan>
                    </text>
                </g>
            </g>
        </g>
    </g>
</svg>