<?xml version="1.0" encoding="UTF-8"?>
<svg width="16px" height="16px" viewBox="0 0 16 16" version="1.1" xmlns="http://www.w3.org/2000/svg" xmlns:xlink="http://www.w3.org/1999/xlink">
    <title>access-service-monitoring-third-menu</title>
    <g id="access-service-monitoring-third-menu" stroke="none" stroke-width="1" fill="none" fill-rule="evenodd">
        <rect id="矩形" fill-opacity="0" fill="#F0F0F0" x="0" y="0" width="15" height="15"></rect>
        <g id="access-services-second-menu备份-3">
            <g id="编组">
                <rect id="矩形" x="0" y="0" width="15" height="15"></rect>
            </g>
            <g id="应用性能管理备份" transform="translate(2.55, 4.65)" fill="#262626" fill-rule="nonzero">
                <g id="编组-3">
                    <path d="M6.55,0 C7.40604136,0 8.1,0.693958638 8.1,1.55 C8.1,2.40604136 7.40604136,3.1 6.55,3.1 C5.89876423,3.1 5.34133298,2.69837515 5.11188138,2.1293006 L5.071,2.14 L4.80476054,2.24509859 C4.59153542,2.36264014 4.4162328,2.54732944 4.31087024,2.77828153 C4.17299475,3.08050116 3.9736584,3.34206669 3.73162367,3.55091499 L9,3.549 L9.00633434,3.40891841 C9.07760677,2.61899397 9.74151649,2 10.55,2 C11.4060414,2 12.1,2.69395864 12.1,3.55 C12.1,4.40604136 11.4060414,5.1 10.55,5.1 C10.0749067,5.1 9.64973699,4.88625212 9.3654114,4.54967705 L4.7334008,4.54806703 C4.97594348,4.75713046 5.17564852,5.01912209 5.31364492,5.32190406 C5.46567774,5.65548377 5.7637244,5.89254613 6.11188423,5.97140773 C6.34133298,5.40162485 6.89876423,5 7.55,5 C8.40604136,5 9.1,5.69395864 9.1,6.55 C9.1,7.40604136 8.40604136,8.1 7.55,8.1 C6.88084614,8.1 6.31072967,7.67597051 6.09369173,7.08195266 C5.31941509,6.98850834 4.64120713,6.49888119 4.31270088,5.77809594 C4.2383834,5.61503376 4.1291759,5.47503442 3.99628004,5.36530282 L3.202,5.1 L1.55,5.1 C0.693958638,5.1 0,4.40604136 0,3.55 C0,2.69395864 0.693958638,2 1.55,2 C2.13359129,2 2.64185312,2.32252374 2.9062651,2.79905082 C3.07857222,2.68308835 3.2199386,2.51934003 3.31009545,2.32171847 C3.63918281,1.60036722 4.31841427,1.11062348 5.09265934,1.01652057 C5.31072967,0.42402949 5.88084614,0 6.55,0 Z" id="形状结合"></path>
                </g>
            </g>
        </g>
    </g>
</svg>