<?xml version="1.0" encoding="UTF-8"?>
<svg width="16px" height="16px" viewBox="0 0 16 16" version="1.1" xmlns="http://www.w3.org/2000/svg" xmlns:xlink="http://www.w3.org/1999/xlink">
    <title>ai-builder-third-menu</title>
    <g id="ai-builder-third-menu" stroke="none" stroke-width="1" fill="none" fill-rule="evenodd">
        <rect id="矩形" fill="#000000" opacity="0" x="0" y="0" width="16" height="16"></rect>
        <g id="机器人" transform="translate(1.000000, 1.500000)" fill="#262626">
            <path d="M6.97174254,0 C7.74411303,0 8.37205651,0.627943485 8.37205651,1.40031397 C8.37205651,1.9176835 8.09030199,2.37024948 7.67211675,2.6126881 L7.671,3.583 L9.67974882,3.58398744 C10.833595,3.58398744 11.7723705,4.52276295 11.7723705,5.67660911 L11.7723705,10.8508634 C11.7723705,12.0047096 10.833595,12.9434851 9.67974882,12.9434851 L4.26373626,12.9434851 C3.10989011,12.9434851 2.1711146,12.0047096 2.1711146,10.8508634 L2.1711146,5.67660911 C2.1711146,4.52276295 3.10989011,3.58398744 4.26373626,3.58398744 L6.271,3.583 L6.27037607,2.6121123 C5.85273746,2.36953336 5.57142857,1.91727419 5.57142857,1.40031397 C5.57142857,0.627943485 6.19937206,0 6.97174254,0 Z M6.955,4.984 L4.26373626,4.98430141 C3.8822606,4.98587127 3.57142857,5.2967033 3.57142857,5.67817896 L3.57142857,10.8524333 C3.57142857,11.2339089 3.8822606,11.544741 4.26373626,11.544741 L9.67974882,11.544741 C10.0612245,11.544741 10.3720565,11.2339089 10.3720565,10.8524333 L10.3720565,5.67660911 C10.3720565,5.29513344 10.0612245,4.98430141 9.67974882,4.98430141 L6.98795963,4.9856864 C6.98256861,4.98580942 6.97716269,4.98587127 6.97174254,4.98587127 L6.955,4.984 Z M13.299843,6.14599686 C13.6860283,6.14599686 14,6.4599686 14,6.84615385 L14,9.68288854 C14,10.0706436 13.6860283,10.3830455 13.299843,10.3830455 C12.9136578,10.3830455 12.599686,10.0690738 12.599686,9.68288854 L12.599686,6.84615385 C12.599686,6.4599686 12.9136578,6.14599686 13.299843,6.14599686 Z M0.700156986,6.14599686 C1.08634223,6.14599686 1.40031397,6.4599686 1.40031397,6.84615385 L1.40031397,9.68288854 C1.40031397,10.0706436 1.08791209,10.3830455 0.700156986,10.3830455 C0.313971743,10.3830455 0,10.0690738 0,9.68288854 L0,6.84615385 C0,6.4599686 0.313971743,6.14599686 0.700156986,6.14599686 Z M5.21036107,7.46467818 C5.65149137,7.46467818 6.00941915,7.82260597 6.00941915,8.26373626 C6.00941915,8.70486656 5.65149137,9.06279435 5.21036107,9.06279435 C4.76923077,9.06279435 4.41130298,8.70486656 4.41130298,8.26373626 C4.41130298,7.82260597 4.76923077,7.46467818 5.21036107,7.46467818 Z M8.72527473,7.46467818 C9.16640502,7.46467818 9.52433281,7.82260597 9.52433281,8.26373626 C9.52433281,8.70486656 9.16640502,9.06279435 8.72527473,9.06279435 C8.28414443,9.06279435 7.92621664,8.70486656 7.92621664,8.26373626 C7.92621664,7.82260597 8.28414443,7.46467818 8.72527473,7.46467818 Z" id="形状结合"></path>
        </g>
    </g>
</svg>