<?xml version="1.0" encoding="UTF-8"?>
<svg width="16px" height="16px" viewBox="0 0 16 16" version="1.1" xmlns="http://www.w3.org/2000/svg" xmlns:xlink="http://www.w3.org/1999/xlink">
    <title>all-assets-third-menu</title>
    <g id="吉林银行优化" stroke="none" stroke-width="1" fill="none" fill-rule="evenodd">
        <g id="资产-资产列表V1" transform="translate(-68, -527)">
            <g id="all-assets-third-menu" transform="translate(68, 527)">
                <rect id="矩形" x="0" y="0" width="16" height="16"></rect>
                <g id="编组-5" transform="translate(1, 1.11)" fill="#262626" fill-rule="nonzero">
                    <path d="M7.63198753,7.4329968 L7.63198753,7.02395881 L8.9564057,7.02395881 C9.31228677,7.02395881 9.60059548,6.73565009 9.60059548,6.37976902 C9.60059548,6.02388795 9.31228677,5.73557923 8.9564057,5.73557923 L8.27347442,5.73557923 L8.77260889,5.02021323 C8.87043894,4.88022012 8.90860161,4.70707748 8.87868969,4.53892854 C8.84877777,4.3707796 8.75324533,4.2214199 8.61313813,4.12375332 C8.47314502,4.02592327 8.30000237,3.9877606 8.13185344,4.01767252 C7.9637045,4.04758444 7.8143448,4.14311688 7.71667822,4.28322408 L6.97518424,5.3454615 L6.18774105,4.27061057 C5.97781627,3.98410378 5.57508503,3.92193722 5.28767728,4.131862 C5.00117049,4.34178678 4.93900393,4.74451802 5.14892871,5.03192577 L5.66428054,5.73557923 L5.01918979,5.73557923 C4.66330872,5.73557923 4.375,6.02388795 4.375,6.37976902 C4.375,6.73565009 4.66330872,7.02395881 5.01918979,7.02395881 L6.34360795,7.02395881 L6.34360795,7.4329968 L5.01918979,7.4329968 C4.66330872,7.4329968 4.375,7.72130552 4.375,8.07718659 C4.375,8.43306766 4.66330872,8.72137638 5.01918979,8.72137638 L6.34360795,8.72137638 L6.34360795,9.31331021 C6.34360795,9.66919128 6.63191667,9.9575 6.98779774,9.9575 C7.34367881,9.9575 7.63198753,9.66919128 7.63198753,9.31331021 L7.63198753,8.72047541 L8.9564057,8.72047541 C9.31228677,8.72047541 9.60059548,8.4321667 9.60059548,8.07628563 C9.60059548,7.72130552 9.31228677,7.4329968 8.9564057,7.4329968 L7.63198753,7.4329968 Z" id="路径"></path>
                    <g id="全部线性">
                        <path d="M8.61076053,0.259730997 C10.4606017,-0.256355573 12.0542003,-0.00478566618 13.0549204,1.02735065 C14.0551857,2.05980831 14.2564739,3.66082337 13.6824284,5.49338018 C13.5369591,5.9584384 13.3451046,6.42790861 13.1112109,6.89545354 C13.3450488,7.36246287 13.5368649,7.83159459 13.6824181,8.29633038 C14.2559708,10.1295748 14.0549245,11.730205 13.0549502,12.7623623 C12.395289,13.4428305 11.4658503,13.7899118 10.3700997,13.7899118 C9.81882718,13.7899118 9.22814071,13.7023702 8.61020013,13.5300334 C8.07779289,13.3815717 7.53779581,13.1736893 6.99970428,12.9124498 C6.46108507,13.173743 5.92100103,13.3816496 5.38846762,13.5301465 C4.76966961,13.702226 4.17936904,13.7899118 3.62960872,13.7899118 C2.53372724,13.7899118 1.60450343,13.4430326 0.945264167,12.7622295 C-0.0548425797,11.7299354 -0.256130741,10.1289203 0.317914723,8.29636349 C0.463256707,7.83171237 0.654910493,7.36263586 0.888537611,6.89545684 C0.654554679,6.42779443 0.462733197,5.95838676 0.317290384,5.49341329 C-0.25626232,3.66016891 -0.0552160413,2.05953867 0.944787996,1.02735065 C1.94524764,-0.00451698499 3.53844949,-0.255830792 5.38874438,0.259674252 C5.92119178,0.408147174 6.46121654,0.616037283 6.99932715,0.877282053 C7.53772691,0.616321537 8.07804693,0.40827815 8.61076053,0.259730997 Z M12.3732838,8.15945703 L12.2378188,8.35827401 C11.7307613,9.08706089 11.1282059,9.79393396 10.4478401,10.4531019 C9.76766369,11.1123677 9.0419332,11.6924673 8.29714319,12.1764696 C8.50993839,12.2563425 8.72096956,12.3254612 8.92987353,12.3837141 C9.4476668,12.5281209 9.93168118,12.5998533 10.3700997,12.5998533 C11.1602142,12.5998533 11.7790511,12.3687604 12.2003609,11.9341618 C12.8568503,11.256544 13.0014466,10.1053401 12.5467022,8.65184216 C12.4956027,8.48868686 12.4377139,8.32442591 12.3732838,8.15945703 Z M1.62630289,8.15959966 L1.55478446,8.35151487 L1.45363235,8.65186947 C0.998464426,10.1049271 1.14321591,11.2562581 1.80008775,11.9342707 C2.2210453,12.3689979 2.83946353,12.5998533 3.62960872,12.5998533 C4.06648618,12.5998533 4.5505133,12.5279539 5.06922092,12.3837083 C5.27812203,12.3254562 5.48915072,12.2563382 5.70147541,12.1768366 C4.95713852,11.6924657 4.2314091,11.1123667 3.55123364,10.4531019 C2.80944368,9.73411674 2.16015016,8.95846631 1.62630289,8.15959966 Z M6.99987809,2.21932004 L6.77526615,2.34822734 C5.9508924,2.83440617 5.13661547,3.45794302 4.3801288,4.19117306 C3.50873848,5.03577427 2.78056852,5.96085365 2.23993244,6.89546022 C2.78045229,7.82954866 3.50841399,8.75427008 4.3794941,9.59857061 C5.20461364,10.3983235 6.09848525,11.0675764 6.99922516,11.5704319 C7.90060444,11.0675609 8.79449823,10.3982866 9.6196708,9.59848227 C10.4909711,8.75432874 11.2190626,7.82968678 11.7597223,6.8954103 C11.2190491,5.96071304 10.4908548,5.03566269 9.61957963,4.19117306 C8.7944601,3.39142014 7.90058849,2.72216731 6.99987809,2.21932004 Z M12.2005194,1.85574544 C11.5431675,1.17775691 10.397169,0.996846402 8.93048752,1.40603538 C8.72910554,1.46219073 8.52574638,1.52844388 8.32115525,1.60436256 L8.29816339,1.61392847 C9.04258087,2.09779407 9.76796721,2.6776702 10.4478401,3.33664178 C11.1898122,4.05580352 11.8392988,4.8317176 12.3733511,5.63092045 L12.4455447,5.43826748 L12.5467108,5.1378742 C13.0018787,3.68481655 12.8571272,2.53348555 12.2005194,1.85574544 Z M5.06935015,1.4060714 C3.60212385,0.997291932 2.45626532,1.1780412 1.79934758,1.85558188 C1.14285813,2.53319972 0.998261806,3.68440358 1.45307055,5.13810707 C1.50409327,5.30122421 1.56191155,5.4654507 1.62627699,5.63038873 C2.16078486,4.83127736 2.81007838,4.05562693 3.55186834,3.33664178 C4.23174123,2.6776702 4.95712756,2.09779407 5.701528,1.61393322 L5.67863731,1.60438601 C5.47405912,1.52847093 5.27071489,1.46222195 5.06935015,1.4060714 Z" id="形状结合"></path>
                    </g>
                </g>
            </g>
        </g>
    </g>
</svg>