<?xml version="1.0" encoding="UTF-8"?>
<svg width="16px" height="16px" viewBox="0 0 16 16" version="1.1" xmlns="http://www.w3.org/2000/svg" xmlns:xlink="http://www.w3.org/1999/xlink">
    <title>amortized-assets-third-menu</title>
    <g id="吉林银行迭代二" stroke="none" stroke-width="1" fill="none" fill-rule="evenodd">
        <g id="amortized-assets-third-menu">
            <rect id="矩形" x="0" y="0" width="16" height="16"></rect>
            <path d="M8,3.6 L14.4,8.4 L14.4,14.4 L1.6,14.4 L1.6,8.4 L8,3.6 Z M8,4.849 L2.6,8.9 L2.6,13.4 L13.4,13.4 L13.4,8.901 L8,4.849 Z" id="矩形" fill="#262626" fill-rule="nonzero"></path>
            <path d="M8.70331432,10.484568 L8.70331432,10.0445944 L10.1278986,10.0445944 C10.510695,10.0445944 10.8208086,9.73448077 10.8208086,9.35168433 C10.8208086,8.96888788 10.510695,8.6587743 10.1278986,8.6587743 L9.39331703,8.6587743 L9.93020116,7.88930499 C10.0354301,7.73872417 10.076479,7.5524867 10.0443049,7.37162061 C10.0121307,7.19075453 9.90937313,7.03009872 9.75866959,6.92504558 C9.60808876,6.81981663 9.42185129,6.7787677 9.24098521,6.81094187 C9.06011912,6.84311604 8.89946331,6.94587362 8.79441018,7.09657716 L7.99683683,8.23915187 L7.14983912,7.08300969 C6.92403767,6.77483432 6.49084777,6.70796608 6.18170329,6.93376753 C5.87352793,7.15956898 5.80665969,7.59275888 6.03246113,7.90190335 L6.58678915,8.6587743 L5.89291002,8.6587743 C5.51011358,8.6587743 5.2,8.96888788 5.2,9.35168433 C5.2,9.73448077 5.51011358,10.0445944 5.89291002,10.0445944 L7.31749427,10.0445944 L7.31749427,10.484568 L5.89291002,10.484568 C5.51011358,10.484568 5.2,10.7946816 5.2,11.177478 C5.2,11.5602745 5.51011358,11.870388 5.89291002,11.870388 L7.31749427,11.870388 L7.31749427,12.50709 C7.31749427,12.8898864 7.62760785,13.2 8.01040429,13.2 C8.39320074,13.2 8.70331432,12.8898864 8.70331432,12.50709 L8.70331432,11.8694189 L10.1278986,11.8694189 C10.510695,11.8694189 10.8208086,11.5593054 10.8208086,11.1765089 C10.8208086,10.7946816 10.510695,10.484568 10.1278986,10.484568 L8.70331432,10.484568 Z" id="路径" fill="#262626" fill-rule="nonzero"></path>
            <polygon id="路径" fill="#262626" fill-rule="nonzero" points="1.6 5.81200312 8 1 14.3980292 5.80171625 14.3980292 6.99850982 8 2.1992 1.6 6.99623323"></polygon>
        </g>
    </g>
</svg>