<?xml version="1.0" encoding="UTF-8"?>
<svg width="16px" height="16px" viewBox="0 0 16 16" version="1.1" xmlns="http://www.w3.org/2000/svg" xmlns:xlink="http://www.w3.org/1999/xlink">
    <title>announcement-third-menu</title>
    <g id="announcement-third-menu" stroke="none" stroke-width="1" fill="none" fill-rule="evenodd">
        <rect id="矩形" fill="#000000" opacity="0" x="0" y="0" width="16" height="16"></rect>
        <g id="01_公告管理" transform="translate(1.000000, 2.030046)" stroke="#262626" stroke-width="1.2">
            <path d="M6.8463664,0.569448474 C6.86651798,0.576749927 7.07243964,0.52709824 7.07243964,0.592671047 L7.07243964,10.5127607 C7.07243964,10.5708165 7.07008142,10.645359 7.05048771,10.7226449 L7.039,10.755 L5.89308026,9.82216075 L5.73600979,9.69280071 C4.80425281,8.92531095 4.24308566,8.46529142 3.65013363,8.08639815 L0.850666181,7.98641719 C0.768581074,7.98788833 0.671454284,7.96823303 0.6,7.91925042 L0.6,3.52161735 L0.615432644,3.51115524 C0.679392051,3.47562223 0.757803888,3.47894711 0.842097033,3.47894711 L3.20753924,3.47894711 C3.2599293,3.45887736 3.30606182,3.43947897 3.34524984,3.42085344 C3.94460105,3.13598994 5.70988137,1.70569471 6.80767745,0.806349695 L6.99690769,0.651389669 Z" id="路径" fill-rule="nonzero"></path>
            <line x1="9.79836753" y1="2.84350219" x2="12.5605996" y2="0.50472388" id="路径-2" stroke-linecap="round"></line>
            <line x1="10.0159792" y1="5.58067509" x2="13.4" y2="5.58067509" id="路径-3" stroke-linecap="round"></line>
            <line x1="9.79836753" y1="8.87381021" x2="12.5605996" y2="11.0267261" id="路径-4" stroke-linecap="round"></line>
        </g>
    </g>
</svg>