<?xml version="1.0" encoding="UTF-8"?>
<svg width="16px" height="16px" viewBox="0 0 16 16" version="1.1" xmlns="http://www.w3.org/2000/svg" xmlns:xlink="http://www.w3.org/1999/xlink">
    <title>api-market-third-menu</title>
    <g id="api-market-third-menu" stroke="none" stroke-width="1" fill="none" fill-rule="evenodd">
        <rect id="矩形" fill="#000000" opacity="0" x="0" y="0" width="16" height="16"></rect>
        <g id="编组" transform="translate(1.600000, 1.600000)">
            <path d="M4.37960946,12.5772402 L0.967480018,12.5772402 C0.433155558,12.5772402 0,12.1440847 0,11.6097602 L0,0.967480018 C0,0.433155558 0.433155558,0 0.967480018,0 L9.75542352,0 C10.289748,0 10.7229035,0.433155558 10.7229035,0.967480018 L10.7229035,5.15754634" id="路径" stroke="#262626" stroke-width="1.2" stroke-linecap="round" stroke-linejoin="round"></path>
            <path d="M9.91878756,7.12650125 C11.8123594,7.12650125 13.3473967,8.66518304 13.3473967,10.5632506 C13.3473967,12.4613182 11.8123594,14 9.91878756,14 C8.02521573,14 6.49017846,12.4613182 6.49017846,10.5632506 C6.49017846,8.66518304 8.02521573,7.12650125 9.91878756,7.12650125 Z M10.0174494,8.81959128 C9.37496375,8.81959128 8.85412626,9.34612406 8.85412626,9.99563516 C8.85412626,10.2404556 8.92812502,10.4678037 9.05474478,10.656068 L7.90108682,11.8226821 L8.54554296,11.8364498 L8.55916174,12.487953 L9.87075923,11.1624189 C9.91880534,11.1685301 9.96776359,11.171679 10.0174494,11.171679 C10.0671351,11.171679 10.1160934,11.1685301 10.1641395,11.1624189 L11.475737,12.487953 L11.4893558,11.8364498 L12.1338119,11.8226821 L10.9801539,10.656068 C11.1067737,10.4678037 11.1807725,10.2404556 11.1807725,9.99563516 C11.1807725,9.34612406 10.659935,8.81959128 10.0174494,8.81959128 Z M10.0174494,9.4309849 C10.2957433,9.4309849 10.5213452,9.65909344 10.5213452,9.94047959 C10.5213452,10.2218657 10.2957433,10.4499743 10.0174494,10.4499743 C9.73915537,10.4499743 9.51355351,10.2218657 9.51355351,9.94047959 C9.51355351,9.65909344 9.73915537,9.4309849 10.0174494,9.4309849 Z" id="形状结合" fill="#262626"></path>
            <path d="M8.14295682,4.81149829 C8.14295682,5.10888238 7.90187938,5.34995983 7.60449528,5.34995983 L2.47342158,5.34995983 C2.17603748,5.34995983 1.93496004,5.10888238 1.93496004,4.81149829 C1.93496004,4.51411419 2.17603748,4.27303675 2.47342158,4.27303675 L7.60449528,4.27303675 C7.90187938,4.27303675 8.14295682,4.51411419 8.14295682,4.81149829 Z" id="直线-5备份-60" fill="#262626" fill-rule="nonzero"></path>
            <path d="M7.01423013,6.78676999 C7.01423013,7.08415409 6.77315269,7.32523153 6.4757686,7.32523153 L2.47342158,7.32523153 C2.17603748,7.32523153 1.93496004,7.08415409 1.93496004,6.78676999 C1.93496004,6.48938589 2.17603748,6.24830845 2.47342158,6.24830845 L6.4757686,6.24830845 C6.77315269,6.24830845 7.01423013,6.48938589 7.01423013,6.78676999 Z" id="直线-5备份-62" fill="#262626" fill-rule="nonzero"></path>
            <path d="M8.14295682,2.83622658 C8.14295682,3.13361068 7.90187938,3.37468812 7.60449528,3.37468812 L2.47342158,3.37468812 C2.17603748,3.37468812 1.93496004,3.13361068 1.93496004,2.83622658 C1.93496004,2.53884249 2.17603748,2.29776504 2.47342158,2.29776504 L7.60449528,2.29776504 C7.90187938,2.29776504 8.14295682,2.53884249 8.14295682,2.83622658 Z" id="直线-5备份-61" fill="#262626" fill-rule="nonzero"></path>
        </g>
    </g>
</svg>