<?xml version="1.0" encoding="UTF-8"?>
<svg width="16px" height="16px" viewBox="0 0 16 16" version="1.1" xmlns="http://www.w3.org/2000/svg" xmlns:xlink="http://www.w3.org/1999/xlink">
    <title>app-deploy-third-menu</title>
    <g id="app-deploy-third-menu" stroke="none" stroke-width="1" fill="none" fill-rule="evenodd">
        <g id="编组">
            <rect id="矩形" x="0" y="0" width="16" height="16"></rect>
        </g>
        <g id="统计" transform="translate(1.000000, 1.360000)" fill="#262626">
            <path d="M13.9967227,0 L11.1280998,0.299929773 L12.0726464,1.19971909 L8.95914106,4.8255368 L5.7266928,1.9795365 C5.50979692,1.78624843 5.1669615,1.78624843 4.94306898,1.9728714 L0.192349582,6.05858142 C-0.0455362207,6.26519971 -0.0665261444,6.61845033 0.150369734,6.84506393 C0.262315994,6.96503584 0.423238742,7.0250218 0.584161491,7.0250218 C0.724094316,7.0250218 0.864027141,6.97836606 0.9759734,6.88505457 L5.32788425,3.13926496 L8.62330228,6.0385861 C8.74224518,6.1452278 8.90316793,6.19188354 9.05709403,6.18521843 C9.21801678,6.17188822 9.36494625,6.09857205 9.46989587,5.98526525 L12.8982501,1.99286672 L13.6818739,2.7393586 L13.9967227,0 Z" id="路径"></path>
            <path d="M1.62789686,13.3302121 L0.378189468,13.3302121 C0.171987749,13.3302121 0.00327725125,13.1502543 0.00327725125,12.9303058 L0.00327725125,8.39803365 C0.00327725125,8.17808515 0.171987749,7.99812729 0.378189468,7.99812729 L1.62789686,7.99812729 C1.83409858,7.99812729 2.00280907,8.17808515 2.00280907,8.39803365 L2.00280907,12.9303058 C2.00280907,13.1502543 1.83409858,13.3302121 1.62789686,13.3302121 Z M5.6269605,13.3302121 L4.37725311,13.3302121 C4.17105139,13.3302121 4.00234089,13.1502543 4.00234089,12.9303058 L4.00234089,5.73199122 C4.00234089,5.51204272 4.17105139,5.33208486 4.37725311,5.33208486 L5.6269605,5.33208486 C5.83316222,5.33208486 6.00187271,5.51204272 6.00187271,5.73199122 L6.00187271,12.9303058 C6.00187271,13.1502543 5.83316222,13.3302121 5.6269605,13.3302121 Z M9.62602414,13.3302121 L8.37631675,13.3302121 C8.17011503,13.3302121 8.00140454,13.1502543 8.00140454,12.9303058 L8.00140454,7.73152304 C8.00140454,7.51157454 8.17011503,7.33161668 8.37631675,7.33161668 L9.62602414,7.33161668 C9.83222586,7.33161668 10.0009364,7.51157454 10.0009364,7.73152304 L10.0009364,12.9303058 C10.0009364,13.1502543 9.83222586,13.3302121 9.62602414,13.3302121 Z M13.6250878,13.3302121 L12.3753804,13.3302121 C12.1691787,13.3302121 12.0004682,13.1502543 12.0004682,12.9303058 L12.0004682,4.39897001 C12.0004682,4.17902151 12.1691787,3.99906364 12.3753804,3.99906364 L13.6250878,3.99906364 C13.8312895,3.99906364 14,4.17902151 14,4.39897001 L14,12.9303058 C14,13.1502543 13.8312895,13.3302121 13.6250878,13.3302121 L13.6250878,13.3302121 Z" id="形状结合"></path>
        </g>
    </g>
</svg>