<?xml version="1.0" encoding="UTF-8"?>
<svg width="16px" height="16px" viewBox="0 0 16 16" version="1.1" xmlns="http://www.w3.org/2000/svg" xmlns:xlink="http://www.w3.org/1999/xlink">
    <title>architectural-observability-third-menu</title>
    <g id="architectural-observability-third-menu" stroke="none" stroke-width="1" fill="none" fill-rule="evenodd">
        <g id="architecture-observe-second-menu">
            <rect id="矩形" x="0" y="0" width="16" height="16"></rect>
            <g id="架构拓扑" transform="translate(1.6, 2.6514)">
                <path d="M6.58823529,3.01176471 L6.58764706,4.75276471 L10.5680672,4.75294118 C11.0730133,4.75294118 11.4823529,5.16228083 11.4823529,5.66722689 L11.4823529,7.24705882 L10.7294118,7.24705882 L10.7294118,5.66722689 C10.7294118,5.57811876 10.6571754,5.50588235 10.5680672,5.50588235 L6.58764706,5.50576471 L6.58823529,7.24705882 L5.83529412,7.24705882 L5.83464706,5.50576471 L2.23193277,5.50588235 C2.14282465,5.50588235 2.07058824,5.57811876 2.07058824,5.66722689 L2.07058824,7.24705882 L1.31764706,7.24705882 L1.31764706,5.66722689 C1.31764706,5.16228083 1.72698672,4.75294118 2.23193277,4.75294118 L5.83464706,4.75276471 L5.83529412,3.01176471 L6.58823529,3.01176471 Z" id="形状结合" stroke="#262626" stroke-width="0.5" fill="#262626"></path>
                <g id="Fill-3-Clipped" transform="translate(1.3176, 5.5529)"></g>
                <path d="M7.17988243,0 L7.28718719,0.00699952234 C7.63733321,0.0531080614 7.90588235,0.321435148 7.90588235,0.645497832 L7.90588235,2.36605743 L7.89801283,2.46144256 C7.84617252,2.77272477 7.5444783,3.01176471 7.17988243,3.01176471 L5.24411826,3.01176471 L5.13674941,3.00476031 C4.78639095,2.9586203 4.51764706,2.69012012 4.51764706,2.36605743 L4.51764706,0.645497832 L4.52552225,0.550117578 C4.57739973,0.238866843 4.87930817,0 5.24411826,0 L7.17988243,0 Z M6.21176471,0.981645379 C5.89988626,0.981645379 5.64705882,1.23447281 5.64705882,1.54635126 C5.64705882,1.85822971 5.89988626,2.11105714 6.21176471,2.11105714 C6.52364315,2.11105714 6.77647059,1.85822971 6.77647059,1.54635126 C6.77647059,1.23447281 6.52364315,0.981645379 6.21176471,0.981645379 Z" id="形状结合" fill="#262626"></path>
                <path d="M0.726471202,7.24705882 C0.325180103,7.24705882 0,7.5360877 0,7.89255666 L0,7.89255666 L0,9.61311626 C0,9.96958521 0.325180103,10.2588235 0.726471202,10.2588235 L0.726471202,10.2588235 L2.66223537,10.2588235 C3.06329083,10.2588235 3.38823529,9.96958521 3.38823529,9.61311626 L3.38823529,9.61311626 L3.38823529,7.89255666 C3.38823529,7.5360877 3.06329083,7.24705882 2.66223537,7.24705882 L2.66223537,7.24705882 L0.726471202,7.24705882 Z M1.12941176,8.18823529 L2.25882353,8.18823529 L2.25882353,9.31764706 L1.12941176,9.31764706 Z" id="形状结合备份" fill="#262626"></path>
                <path d="M5.24411826,7.24705882 C4.84282716,7.24705882 4.51764706,7.5360877 4.51764706,7.89255666 L4.51764706,7.89255666 L4.51764706,9.61311626 C4.51764706,9.96958521 4.84282716,10.2588235 5.24411826,10.2588235 L5.24411826,10.2588235 L7.17988243,10.2588235 C7.58093789,10.2588235 7.90588235,9.96958521 7.90588235,9.61311626 L7.90588235,9.61311626 L7.90588235,7.89255666 C7.90588235,7.5360877 7.58093789,7.24705882 7.17988243,7.24705882 L7.17988243,7.24705882 L5.24411826,7.24705882 Z M5.64705882,8.18823529 L6.77647059,8.18823529 L6.77647059,9.31764706 L5.64705882,9.31764706 Z" id="形状结合备份-3" fill="#262626"></path>
                <path d="M10.1382359,7.24705882 C9.73694481,7.24705882 9.41176471,7.5360877 9.41176471,7.89255666 L9.41176471,7.89255666 L9.41176471,9.61311626 C9.41176471,9.96958521 9.73694481,10.2588235 10.1382359,10.2588235 L10.1382359,10.2588235 L12.0740001,10.2588235 C12.4750555,10.2588235 12.8,9.96958521 12.8,9.61311626 L12.8,9.61311626 L12.8,7.89255666 C12.8,7.5360877 12.4750555,7.24705882 12.0740001,7.24705882 L12.0740001,7.24705882 L10.1382359,7.24705882 Z M10.5411765,8.18823529 L11.6705882,8.18823529 L11.6705882,9.31764706 L10.5411765,9.31764706 Z" id="形状结合备份-2" fill="#262626"></path>
            </g>
        </g>
    </g>
</svg>