<?xml version="1.0" encoding="UTF-8"?>
<svg width="16px" height="16px" viewBox="0 0 16 16" version="1.1" xmlns="http://www.w3.org/2000/svg" xmlns:xlink="http://www.w3.org/1999/xlink">
    <title>asset-inventory-third-menu</title>
    <g id="吉林银行迭代二" stroke="none" stroke-width="1" fill="none" fill-rule="evenodd">
        <g id="asset-inventory-third-menu">
            <rect id="矩形" x="0" y="0" width="16" height="16"></rect>
            <g id="icon_navmenu_transaction_24_black-2" transform="translate(1.600000, 1.600000)" fill="#262626" fill-rule="nonzero">
                <g id="icon_navmenu_transaction_24_black">
                    <path d="M5.79586609,0 C9.00677589,0 11.5917322,1.01529937 11.5917322,2.2944811 L11.5917322,3.06703596 C11.5917322,3.68753456 10.9657786,4.2521201 9.9559342,4.6646494 C9.74182808,4.64896646 9.5270401,4.62578301 9.31293399,4.61691874 C8.07613323,4.41602641 6.80903471,4.68819089 5.76381835,5.37924559 L5.70486383,5.37924559 C2.52872922,5.37242692 0,4.34076276 0,3.06567222 L0,2.29516297 C0,1.0350735 2.60473041,0 5.79586609,0 Z M5.79586609,1 C3.11626294,1 1,1.83894709 1,2.29516297 L1,3.06567222 C1,3.51260825 2.77740217,4.26454709 5.18070898,4.36747184 L5.484,4.376 L5.69476857,4.25765973 C6.76460378,3.68654028 7.98531107,3.45278415 9.19449726,3.59127233 L9.405,3.62 L9.786,3.647 L9.87555728,3.60618232 C10.3259401,3.38677325 10.5493251,3.18285584 10.5862184,3.0911009 L10.5917322,3.06703596 L10.5917322,2.2944811 C10.5917322,1.82421259 8.50471178,1 5.79586609,1 Z" id="路径"></path>
                    <path d="M4.01210307,7.57826537 C4.21074668,7.03132324 4.5167692,6.52963178 4.91216698,6.10270606 C2.15060726,5.97860633 0,5.2360536 0,4.08165346 L0,5.37924559 C0,6.37136149 1.76603449,7.25778807 4.01210307,7.57826537" id="路径"></path>
                    <path d="M0.0204559979,6.37681643 L0.0204559979,7.67440856 C-0.0170466703,8.72993805 1.41078199,9.41521398 3.83754521,9.76773902 C3.78764698,9.5127535 3.76184966,9.25363884 3.76049429,8.99382042 C3.76049429,8.74562098 3.78776896,8.50287647 3.83004469,8.26626877 C1.77012569,7.97647547 0.0204559979,7.31301926 0.0204559979,6.37681643" id="路径"></path>
                    <path d="M4.05846999,10.5280203 C1.81240142,10.2825483 0,9.6661409 0,8.68902605 L0,9.98730007 C0,11.2030682 2.33471124,12.1781374 5.32128694,12.2735988 C4.76351187,11.8041555 4.32982301,11.204672 4.05846999,10.5280203" id="路径"></path>
                    <path d="M8.39563946,4.95785181 C9.79659558,4.95734808 11.0912103,5.70492299 11.7915785,6.91855664 C12.4482259,8.05642864 12.4888512,9.44175146 11.9135475,10.6102091 L12.7781006,11.1858286 C13.0037288,11.3358755 13.0649996,11.6404203 12.9149528,11.8660485 C12.9111981,11.8716944 12.9073269,11.8772619 12.9033414,11.8827473 C12.7353503,12.1139673 12.4148978,12.1715547 12.1769139,12.0132911 L11.3465642,11.4606991 C10.6098766,12.3028303 9.53749373,12.8002284 8.39435738,12.7999999 C6.22880813,12.7995666 4.4736347,11.043691 4.47406761,8.87814175 C4.47450084,6.71259248 6.23037644,4.95741902 8.39563946,4.95785181 Z M8.39572117,5.98065173 C6.79504867,5.98033184 5.49718773,7.2776738 5.49686751,8.87834629 C5.49654752,10.4790188 6.79388947,11.7768798 8.39456192,11.7772 C9.43013733,11.777407 10.3871589,11.2251254 10.9051259,10.3283944 C11.423093,9.43166336 11.4233139,8.32671759 10.9057056,7.42977947 C10.3880518,6.53276272 9.43128755,5.98027946 8.39572117,5.98065173 Z" id="形状结合"></path>
                    <path d="M7.03072649,7.13573395 C6.89435318,7.27210727 6.89435318,7.49371392 7.03072649,7.63008723 L7.72963975,8.32900049 L7.65668003,8.32900049 C7.46368046,8.32900049 7.30722339,8.48545756 7.30722339,8.67845713 C7.30722339,8.8714567 7.46368046,9.02791376 7.65668003,9.02791376 L8.12239491,9.02791376 L8.12239491,9.49362864 L7.65599816,9.49362864 C7.52746688,9.48794968 7.40619249,9.55328582 7.34023127,9.66374694 C7.27427005,9.77420805 7.27427005,9.9119625 7.34023127,10.0224236 C7.40619249,10.1328847 7.52746688,10.1982209 7.65599816,10.1925419 L8.12239491,10.1925419 L8.12239491,10.774856 C8.12239491,10.9676673 8.27869933,11.1239717 8.47151061,11.1239717 C8.66432189,11.1239717 8.82062631,10.9676673 8.82062631,10.774856 L8.82062631,10.1925419 L9.28634119,10.1925419 C9.41487247,10.1982209 9.53614686,10.1328847 9.60210808,10.0224236 C9.6680693,9.9119625 9.6680693,9.77420805 9.60210808,9.66374694 C9.53614686,9.55328582 9.41487247,9.48794968 9.28634119,9.49362864 L8.82130818,9.49362864 L8.82130818,9.02791376 L9.28634119,9.02791376 C9.47334215,9.01965149 9.6206987,8.86564052 9.6206987,8.67845713 C9.6206987,8.49127373 9.47334215,8.33726276 9.28634119,8.32900049 L9.21338147,8.32900049 L9.91161287,7.63008723 C10.0396872,7.49221812 10.0357387,7.27773182 9.90267687,7.14466994 C9.76961499,7.01160807 9.55512869,7.00765962 9.41725958,7.13573395 L8.47151062,8.08216479 L7.52576164,7.13573395 C7.38938833,6.99936064 7.16709981,6.99936064 7.03072649,7.13573395 L7.03072649,7.13573395 Z" id="路径"></path>
                </g>
            </g>
        </g>
    </g>
</svg>