<?xml version="1.0" encoding="UTF-8"?>
<svg width="16px" height="16px" viewBox="0 0 16 16" version="1.1" xmlns="http://www.w3.org/2000/svg" xmlns:xlink="http://www.w3.org/1999/xlink">
    <title>blueprint-management-third-menu</title>
    <g id="blueprint-management-third-menu" stroke="none" stroke-width="1" fill="none" fill-rule="evenodd">
        <g id="编组-39" transform="translate(0.4, 3)" fill="#262626">
            <g id="应用蓝图" transform="translate(0, 0.1692)">
                <path d="M11.96,-2 C12.6448331,-2 13.2,-1.4448331 13.2,-0.760000014 L13.2,10.0400001 C13.2,11.7852198 11.7852198,13.2 10.0400001,13.2 L3.6,13.2 C2.7163444,13.2 2,12.4836556 2,11.6 L2,-0.760000014 C2,-1.4448331 2.5551669,-2 3.23999999,-2 L11.96,-2 Z M11.96,-0.8 L3.23999999,-0.8 C3.2179086,-0.8 3.2,-0.782091396 3.2,-0.760000014 L3.2,11.6 C3.2,11.8209139 3.3790861,12 3.6,12 L10.0400001,12 C11.1224781,12 12,11.1224781 12,10.0400001 L12,-0.760000014 C12,-0.782091396 11.9820914,-0.8 11.96,-0.8 Z" id="矩形备份-31" fill-rule="nonzero" transform="translate(7.6, 5.6) rotate(90) translate(-7.6, -5.6)"></path>
                <path d="M10.9703704,4.95897436 C11.3999252,4.95897436 11.7481481,5.30337071 11.7481481,5.72820513 L12.4070988,5.72820513 C12.5860799,5.72820513 12.736014,5.85471807 12.7751997,6.02463173 L12.7826415,6.06796623 L12.7851852,6.11282051 L12.7851852,6.4974359 C12.7851852,6.70985311 12.6159101,6.88205128 12.4070988,6.88205128 C12.338858,6.88205128 12.2748398,6.86366017 12.2195725,6.83148448 L12.1825154,6.80705128 L12.1437359,6.77933523 C12.0559425,6.72263006 11.9517311,6.68974359 11.8399691,6.68974359 C11.5267521,6.68974359 11.2728395,6.94804085 11.2728395,7.26666667 C11.2728395,7.58529248 11.5267521,7.84358974 11.8399691,7.84358974 C11.953857,7.84358974 12.0599043,7.80944025 12.1487556,7.75065812 L12.1779738,7.72992749 C12.241549,7.6805855 12.3209599,7.65128205 12.4070988,7.65128205 C12.6159101,7.65128205 12.7851852,7.82348022 12.7851852,8.03589744 L12.7851852,8.42051282 C12.7851852,8.63293003 12.6159101,8.80512821 12.4070988,8.80512821 L9.53364198,8.80512821 C9.32483061,8.80512821 9.15555556,8.63293003 9.15555556,8.42051282 L9.15555556,6.11282051 C9.15555556,5.9004033 9.32483061,5.72820513 9.53364198,5.72820513 L10.1925926,5.72820513 C10.1925926,5.30337071 10.5408156,4.95897436 10.9703704,4.95897436 Z" id="形状结合" transform="translate(10.9704, 6.8821) scale(-1, 1) translate(-10.9704, -6.8821)"></path>
                <rect id="矩形备份-3" x="9.15555556" y="2.65128205" width="3.62962963" height="1.53846154" rx="0.32"></rect>
                <rect id="矩形备份-2" x="4.48888889" y="2.65128205" width="3.62962963" height="2.82051282" rx="0.32"></rect>
                <g id="云-(1)" transform="translate(4.4889, 6.241)">
                    <path d="M1.57998878,0 C1.07984624,0 0.671010101,0.393322649 0.635519079,0.891452992 C0.267791246,0.99775641 0,1.32371795 0,1.70940171 C0,2.16431624 0.37263019,2.53808761 0.842592593,2.56410256 L2.42258137,2.56410256 C2.94565264,2.56410256 3.37037037,2.10956197 3.37037037,1.5491453 C3.37037037,1.00886752 2.95433389,0.568910256 2.42973064,0.537179487 C2.275,0.219230769 1.95328283,0 1.57998878,0 Z" id="路径"></path>
                </g>
            </g>
            <path d="M1.8962963,0 C2.61222097,0 3.19259259,0.573993911 3.19259259,1.28205128 L3.19259259,8.71794872 L3.16666284,8.7179445 C3.18366653,8.63509711 3.19259259,8.54934873 3.19259259,8.46153846 C3.19259259,7.75348109 2.61222097,7.17948718 1.8962963,7.17948718 C1.18037162,7.17948718 0.6,7.75348109 0.6,8.46153846 C0.6,8.54934873 0.608926061,8.63509711 0.625929758,8.7179445 L0.6,8.71794872 L0.6,1.28205128 L0.606692632,1.15096899 C0.673075957,0.504486835 1.22511691,0 1.8962963,0 Z" id="形状结合"></path>
        </g>
    </g>
</svg>