<?xml version="1.0" encoding="UTF-8"?>
<svg width="16px" height="16px" viewBox="0 0 16 16" version="1.1" xmlns="http://www.w3.org/2000/svg" xmlns:xlink="http://www.w3.org/1999/xlink">
    <title>call-topology-third-menu</title>
    <g id="call-topology-third-menu" stroke="none" stroke-width="1" fill="none" fill-rule="evenodd">
        <g id="编组-3">
            <rect id="矩形" x="0" y="0" width="16" height="16"></rect>
            <g id="编组-2" transform="translate(1.300000, 2.962285)" fill="#262626">
                <path d="M7.90066819,1.12996491 C8.45295294,1.12996491 8.90066819,1.57768016 8.90066819,2.12996491 L8.90066819,8.52996491 C8.90066819,9.08224966 8.45295294,9.52996491 7.90066819,9.52996491 L5.50066819,9.52996491 C4.94838344,9.52996491 4.50066819,9.08224966 4.50066819,8.52996491 L4.50066819,2.12996491 C4.50066819,1.57768016 4.94838344,1.12996491 5.50066819,1.12996491 L7.90066819,1.12996491 Z M7.7,2.32771452 L5.7,2.32771452 L5.7,8.32771452 L7.7,8.32771452 L7.7,2.32771452 Z M0,4.55721543 L2.582,4.55631525 L2.58257195,3.65331525 L4.05709801,5.09955554 L2.58257195,6.54579583 L2.582,5.64131525 L0,5.64189565 L0,4.55721543 Z M0.542944088,0 L2.77947177,1.29022042 L3.23146709,0.508485454 L3.78532397,2.49822931 L1.7852268,3.01344712 L2.23697177,2.22985798 L0.000603979215,0.939360623 L0.542944088,0 Z M0.000603979216,9.25975045 L2.23623148,7.96797087 L1.7852268,7.18566396 L3.78532397,7.70088176 L3.23146709,9.69062562 L2.77873148,8.90760844 L0.542944088,10.1991111 L0.000603979216,9.25975045 Z M9.34,4.55721543 L11.922,4.55631525 L11.9225719,3.65331525 L13.397098,5.09955554 L11.9225719,6.54579583 L11.922,5.64131525 L9.34,5.64189565 L9.34,4.55721543 Z M9.88294409,3.01344712 L12.1194718,1.7232267 L12.5714671,2.50496166 L13.125324,0.515217801 L11.1252268,0 L11.5769718,0.783589133 L9.34060398,2.07408649 L9.88294409,3.01344712 Z M9.34060398,8.12502458 L11.5762315,9.41680416 L11.1252268,10.1991111 L13.125324,9.68389328 L12.5714671,7.69414941 L12.1187315,8.4771666 L9.88294409,7.18566396 L9.34060398,8.12502458 Z" id="形状结合"></path>
            </g>
        </g>
    </g>
</svg>