<?xml version="1.0" encoding="UTF-8"?>
<svg width="16px" height="16px" viewBox="0 0 16 16" version="1.1" xmlns="http://www.w3.org/2000/svg" xmlns:xlink="http://www.w3.org/1999/xlink">
    <title>ci-statistic-third-menu</title>
    <g id="ci-statistic-third-menu" stroke="none" stroke-width="1" fill="none" fill-rule="evenodd">
        <rect id="矩形" fill="#000000" opacity="0" x="0" y="0" width="16" height="16"></rect>
        <g id="编组-29" transform="translate(0.657401, 0.657401)">
            <path d="M11.5346006,2.75059746 L11.9346006,11.5346006 L3.15059746,11.9346006 L2.75059746,3.15059746 L11.5346006,2.75059746 Z" id="矩形" stroke="#262626" stroke-width="1.2" transform="translate(7.342599, 7.342599) rotate(-45.000000) translate(-7.342599, -7.342599) "></path>
            <path d="M7.37227222,2.34970505 C7.65383404,2.3504545 7.88147744,2.57931299 7.8807283,2.86074472 L7.87819293,3.63052639 L7.96370846,3.66724289 C8.05062758,3.71080673 8.13306362,3.76373645 8.20967603,3.82549522 L8.32005933,3.92468806 L10.7686225,6.37325124 C10.8929465,6.49757527 10.9905596,6.64207567 11.0585784,6.79929291 L11.0762503,6.84862693 L11.8505076,6.85184409 C12.1007848,6.85251027 12.3084598,7.03341076 12.3509936,7.2713525 L12.3589634,7.36301386 C12.358214,7.64457567 12.1293555,7.87221907 11.8477697,7.87146955 L11.0656393,7.86964728 L11.0288877,7.95651026 C10.9851113,8.04487107 10.9316826,8.12865786 10.8691591,8.20646626 L10.7686225,8.31851951 L8.32005933,10.7670827 C8.21079051,10.8763515 8.08592142,10.9650045 7.95049005,11.0310649 L7.8581498,11.0700627 L7.85682436,11.8412493 C7.85615819,12.0915265 7.6752577,12.2992014 7.43731595,12.3417352 L7.3456546,12.349705 C7.06409279,12.3489556 6.83644939,12.1200971 6.83719856,11.8386494 L6.83771895,11.0706522 L6.74684853,11.0322756 C6.65592667,10.9881536 6.56973847,10.9338608 6.4898065,10.8699924 L6.37479106,10.7670827 L3.92622788,8.31851951 C3.80348911,8.19578074 3.70677234,8.05336686 3.63886692,7.8984353 L3.62020792,7.85078316 L2.86741917,7.847566 C2.61714201,7.84689982 2.40946704,7.66599933 2.36693325,7.42805759 L2.35896341,7.33639623 C2.35971286,7.05483442 2.58857136,6.82719102 2.87013318,6.82794047 L3.62492395,6.82976281 L3.66347922,6.74029855 C3.70743399,6.65065379 3.76129943,6.5656634 3.82449929,6.48679022 L3.92622788,6.37325124 L6.37479106,3.92468806 C6.50071407,3.79876505 6.64732522,3.70025731 6.80685141,3.63214463 L6.85835158,3.61284128 L6.86110246,2.85816081 C6.86176864,2.60788364 7.04266912,2.40020868 7.28061087,2.35767489 L7.37227222,2.34970505 Z M7.09577774,4.64567474 L4.64721456,7.09423792 C4.50823351,7.23321898 4.50823351,7.45855178 4.64721456,7.59753283 L7.09577774,10.046096 C7.23475879,10.1850771 7.4600916,10.1850771 7.59907265,10.046096 L10.0476358,7.59753283 C10.1866169,7.45855178 10.1866169,7.23321898 10.0476358,7.09423792 L7.59907265,4.64567474 C7.4600916,4.50669369 7.23475879,4.50669369 7.09577774,4.64567474 Z" id="形状结合" fill="#262626" fill-rule="nonzero"></path>
            <path d="M6.87948735,6.49310253 C7.03823632,6.32889223 7.30004655,6.32446495 7.46425686,6.48321393 C7.62846716,6.64196291 7.63289444,6.90377313 7.47414546,7.06798344 L6.42008624,8.18364159 C6.26133726,8.34785189 5.99952703,8.35227917 5.83531673,8.19353019 C5.67110643,8.03478121 5.66667915,7.77297099 5.82542812,7.60876068 L6.87948735,6.49310253 Z" id="路径-61" fill="#262626" fill-rule="nonzero"></path>
            <path d="M8.17634151,6.91857103 C8.3375449,6.75676952 8.59939211,6.75628466 8.76119362,6.91748805 C8.92299512,7.07869145 8.92347999,7.34053866 8.76227659,7.50234016 L7.27485432,9.04444794 C7.11365092,9.20624945 6.85180371,9.20673431 6.69000221,9.04553092 C6.5282007,8.88432752 6.52771584,8.62248031 6.68891923,8.46067881 L8.17634151,6.91857103 Z" id="路径-61备份" fill="#262626" fill-rule="nonzero"></path>
        </g>
    </g>
</svg>