<?xml version="1.0" encoding="UTF-8"?>
<svg width="16px" height="16px" viewBox="0 0 16 16" version="1.1" xmlns="http://www.w3.org/2000/svg" xmlns:xlink="http://www.w3.org/1999/xlink">
    <title>ci-third-menu</title>
    <g id="ci-third-menu" stroke="none" stroke-width="1" fill="none" fill-rule="evenodd">
        <g id="编组">
            <rect id="矩形" x="0" y="0" width="16" height="16"></rect>
            <g id="持续集成" transform="translate(1.000000, 5.000000)" fill="#262626" fill-rule="nonzero">
                <path d="M6.26686314,2.92094308 L7.45901639,4.11309633 L7.46984712,4.12005894 L7.20571018,4.38447038 C6.9458577,4.64461151 6.70161777,4.88917511 6.49782272,5.09326199 L6.22556787,5.36592236 C6.14699683,5.44461503 6.08164107,5.51007613 6.03260461,5.55919324 L5.93085283,5.66111623 L5.78236196,5.81633914 C5.22015999,6.36788901 4.46619083,6.72274206 3.63009762,6.77900166 L3.63009762,5.07316265 L3.79858271,5.04130203 C4.07436504,4.97465463 4.32382268,4.84141954 4.52904771,4.65875852 L4.66778412,4.51976423 L5.4963345,3.69121385 L5.51696445,3.6705839 L6.26686314,2.92094308 Z M8.77520722,3.96301345 L9.47095229,4.65875852 L9.59956953,4.76253863 C9.82239209,4.92514275 10.0862835,5.03473936 10.372739,5.07342052 L10.372739,6.77925953 L10.1465691,6.75670746 C9.32533206,6.6473926 8.59600602,6.24829619 8.06863142,5.66111623 L7.57454411,5.16341868 L8.77520722,3.96301345 Z M10.372739,-8.8817842e-16 L10.372739,1.70583901 L10.2071956,1.73654517 C9.93605739,1.80085856 9.68993062,1.92975993 9.48642476,2.10683367 L9.47467834,2.11796834 L9.41158746,2.18002463 C9.39692324,2.19453643 9.38026806,2.21104888 9.36174727,2.22943614 L9.14807328,2.4421435 L9.03069153,2.55924348 L8.75800078,2.83157614 C8.56148179,3.02793944 8.33835438,3.2510662 8.10566983,3.48383899 L7.83087125,3.75877694 L7.82365076,3.74846196 L6.63175539,2.55630871 L8.06631055,1.1212378 L8.21513466,0.965456452 C8.77859898,0.411939993 9.53428194,0.0560232087 10.372739,-8.8817842e-16 Z M3.63009762,0.000257874378 L3.85626703,0.0229494766 C4.67749918,0.132814259 5.40676613,0.532875913 5.93343157,1.1212378 L6.42313502,1.61068337 L5.22040892,2.81340947 L4.68196721,2.27496777 L4.60057561,2.18809633 L4.51357524,2.10683367 L4.3869052,2.00673543 C4.1677657,1.84993348 3.90967643,1.74434825 3.63009762,1.70609689 L3.63009762,0.000257874378 Z M0.0314606742,2.93151593 L1.7623135,2.93151593 C1.93766808,2.30410757 2.46244244,1.82446123 3.11434887,1.71434887 L3.11434887,1.71434887 L3.11434887,0.00206299503 C1.52145883,0.134352551 0.243175539,1.36260822 0.0314606742,2.93151593 L0.0314606742,2.93151593 Z M10.8884878,1.71486462 C11.5388469,1.8257506 12.0625898,2.30539694 12.2374286,2.93151593 L12.2374286,2.93151593 L13.9682815,2.93151593 C13.7570823,1.36363971 12.4798305,0.135899797 10.8884878,0.00232086941 L10.8884878,0.00232086941 L10.8884878,1.71486462 Z M12.2990606,3.44726469 C12.271468,4.2624056 11.672168,4.93055811 10.8884878,5.06439492 L10.8884878,5.06439492 L10.8884878,6.77719654 C12.6131516,6.63227114 13.9706023,5.20235771 14,3.44726469 L14,3.44726469 L12.2990606,3.44726469 Z M0,3.44726469 L0,3.45886904 C0.0355866642,5.20983607 1.39174802,6.63407626 3.11434887,6.77719654 L3.11434887,6.77719654 L3.11434887,5.06491066 C2.32912139,4.93236323 1.72827408,4.2634371 1.7009394,3.44726469 L1.7009394,3.44726469 L0,3.44726469 Z" id="形状结合"></path>
            </g>
        </g>
    </g>
</svg>