<?xml version="1.0" encoding="UTF-8"?>
<svg width="16px" height="16px" viewBox="0 0 16 16" version="1.1" xmlns="http://www.w3.org/2000/svg" xmlns:xlink="http://www.w3.org/1999/xlink">
    <title>cloud-customer-management-third-menu</title>
    <g id="cloud-customer-management-third-menu" stroke="none" stroke-width="1" fill="none" fill-rule="evenodd">
        <g id="编组-3备份" transform="translate(1, 3)">
            <path d="M4.9,9.65517241 C4.78333333,9.65517241 4.60833333,9.65517241 4.375,9.65517241 C4.14166667,9.65517241 3.90833333,9.65517241 3.675,9.65517241 L3.5,9.65517241 C1.57535,9.65517241 0,8.07831114 0,6.15159157 C0,4.34071794 1.34155,2.88059509 3.15,2.64783223 C3.85,1.2462571 5.30775,0 7,0 C9.73913043,0 10.9081,1.82977074 11.31655,3.81503802 C12.775,3.93177644 14,5.21661315 14,6.73439122 C14,8.36997871 12.71655,9.65517241 11.08275,9.65517241 L5.6,9.65517241 L4.9,9.65517241 Z" id="路径" stroke="#262626" stroke-width="1.2"></path>
            <g id="编组-2" transform="translate(3.2184, 2.4138)" fill="#262626">
                <path d="M1.34952389,1.92581195 C1.34952389,2.92739542 2.18572545,3.73933926 3.21723234,3.73933926 C4.24873923,3.73933926 5.08494078,2.92739542 5.08494078,1.92581195 C5.08494078,0.924228468 4.24873923,0.112284634 3.21723234,0.112284634 C2.18572545,0.112284634 1.34952389,0.924228468 1.34952389,1.92581195 Z" id="路径备份-4"></path>
                <path d="M5.63950652,6.43678161 C6.31906505,6.26835467 6.42394406,5.32829731 6.31906505,5.17031545 C5.46997606,3.90384929 4.62088706,3.73542235 4.62088706,3.73542235 C4.49302087,3.84117881 4.3392941,3.92473946 4.17982054,3.99263249 C3.54435124,4.2629026 2.8096583,4.2629026 2.17418901,3.99263249 C2.01471544,3.92473945 1.86098867,3.84117881 1.73312247,3.73542235 C1.73312247,3.73542235 0.884033483,3.9038493 0.0349444918,5.17031545 C-0.0699345235,5.32699167 0.0349444918,6.26704903 0.71450303,6.43678161 L5.63950652,6.43678161 L5.63950652,6.43678161 Z M7.47129749,1.25993799 L6.27021729,1.25993799 C5.95270686,1.25993799 5.69553777,1.02622929 5.69553777,0.737683899 L5.69553777,0.522254088 C5.69553777,0.233708708 5.95270685,0 6.27021729,0 L7.47129749,0 C7.78880792,0 8.04597701,0.233708701 8.04597701,0.522254088 L8.04597701,0.737683899 C8.04597701,1.02622928 7.78880793,1.25993799 7.47129749,1.25993799 Z M7.47129749,3.03821315 L6.66243607,3.03821315 C6.34492563,3.03821315 6.08775654,2.80450445 6.08775654,2.51595906 L6.08775654,2.30052925 C6.08775654,2.01198387 6.34492563,1.77827516 6.66243607,1.77827516 L7.47129749,1.77827516 C7.78880792,1.77827516 8.04597701,2.01198386 8.04597701,2.30052925 L8.04597701,2.51595906 C8.04597701,2.80450444 7.78880793,3.03821315 7.47129749,3.03821315 Z M7.47129749,4.7420671 L7.14804026,4.7420671 C6.83052983,4.7420671 6.57336073,4.5083584 6.57336073,4.21981302 L6.57336073,4.0043832 C6.57336073,3.71583783 6.83052982,3.48212912 7.14804026,3.48212912 L7.47129749,3.48212912 C7.78880792,3.48212912 8.04597701,3.71583782 8.04597701,4.0043832 L8.04597701,4.21981302 C8.04597701,4.5083584 7.78880793,4.7420671 7.47129749,4.7420671 L7.47129749,4.7420671 Z" id="形状备份-2"></path>
            </g>
        </g>
    </g>
</svg>