<?xml version="1.0" encoding="UTF-8"?>
<svg width="16px" height="16px" viewBox="0 0 16 16" version="1.1" xmlns="http://www.w3.org/2000/svg" xmlns:xlink="http://www.w3.org/1999/xlink">
    <title>cmdb-data-operations-third-menu</title>
    <g id="cmdb-data-operations-third-menu" stroke="none" stroke-width="1" fill="none" fill-rule="evenodd">
        <path d="M3.11221025,10.8684636 C3.38835263,10.8684636 3.61221025,11.0923212 3.61221025,11.3684636 L3.61221025,14.5 C3.61221025,14.7761424 3.38835263,15 3.11221025,15 L1.53,15 C1.25385763,15 1.03,14.7761424 1.03,14.5 L1.03,11.3684636 C1.03,11.0923212 1.25385763,10.8684636 1.53,10.8684636 L3.11221025,10.8684636 Z M8.79307281,7.25336924 C9.06921519,7.25336924 9.29307281,7.47722686 9.29307281,7.75336924 L9.29307281,14.5 C9.29307281,14.7761424 9.06921519,15 8.79307281,15 L7.21086256,15 C6.93472018,15 6.71086256,14.7761424 6.71086256,14.5 L6.71086256,7.75336924 C6.71086256,7.47722686 6.93472018,7.25336924 7.21086256,7.25336924 L8.79307281,7.25336924 Z M6.83163431,1 L10.1328008,1.08651281 L9.83508645,4.54798695 L8.85735326,3.47098651 L3.19952463,8.3214623 C3.11020791,8.39640794 2.97571622,8.38464144 2.90077058,8.29532471 L1.89767303,7.0998796 C1.82272739,7.01056288 1.83449388,6.87607118 1.92381062,6.80112554 L4.56133866,4.58797674 L6.22062564,3.19553101 L7.66147685,2.03918851 L6.83163431,1 Z M12.8917251,1.05606463 L14.4739354,1.05606463 C14.7500777,1.05606463 14.9739354,1.27992226 14.9739354,1.55606463 L14.9739354,14.5 C14.9739354,14.7761424 14.7500777,15 14.4739354,15 L12.8917251,15 C12.6155827,15 12.3917251,14.7761424 12.3917251,14.5 L12.3917251,1.55606463 C12.3917251,1.27992226 12.6155827,1.05606463 12.8917251,1.05606463 Z" id="形状结合" fill="#262626" fill-rule="nonzero"></path>
    </g>
</svg>