<?xml version="1.0" encoding="UTF-8"?>
<svg width="16px" height="16px" viewBox="0 0 16 16" version="1.1" xmlns="http://www.w3.org/2000/svg" xmlns:xlink="http://www.w3.org/1999/xlink">
    <title>collect-platform-second-menu</title>
    <g id="collect-platform-second-menu" stroke="none" stroke-width="1" fill="none" fill-rule="evenodd">
        <g id="solution-second-menu" transform="translate(-0.000000, 0.000000)">
            <rect id="矩形" x="0" y="0" width="16" height="16"></rect>
        </g>
        <g id="编组" transform="translate(1.000000, 1.140000)">
            <path d="M13.4,4.03142857 L13.4,12.7171429 L1.14285714,13.26 L0.6,4.03142857 L13.4,4.03142857 Z" id="形状结合" stroke="#262626" stroke-width="1.2"></path>
            <path d="M12.8571429,0.6 L13.4,4.03 L0.6,4.03 L0.6,1.14285714 L12.8571429,0.6 Z" id="路径" stroke="#262626" stroke-width="1.2"></path>
            <path d="M2.85714286,1.64 C2.54155157,1.64 2.28571429,1.89583729 2.28571429,2.21142857 C2.28571429,2.52701986 2.54155157,2.78285714 2.85714286,2.78285714 C3.17273414,2.78285714 3.42857143,2.52701986 3.42857143,2.21142857 C3.42857143,1.89583729 3.17273414,1.64 2.85714286,1.64 Z" id="路径" fill="#262626"></path>
            <path d="M5.14285714,1.64 C4.82726586,1.64 4.57142857,1.89583729 4.57142857,2.21142857 C4.57142857,2.52701986 4.82726586,2.78285714 5.14285714,2.78285714 C5.45844843,2.78285714 5.71428571,2.52701986 5.71428571,2.21142857 C5.71428571,1.89583729 5.45844843,1.64 5.14285714,1.64 Z" id="路径" fill="#262626"></path>
            <path d="M7.42857143,1.64 C7.11298014,1.64 6.85714286,1.89583729 6.85714286,2.21142857 C6.85714286,2.52701986 7.11298014,2.78285714 7.42857143,2.78285714 C7.74416271,2.78285714 8,2.52701986 8,2.21142857 C8,1.89583729 7.74416271,1.64 7.42857143,1.64 Z" id="路径" fill="#262626"></path>
            <path d="M11.1666667,5.61 C11.626904,5.61 12,5.98309604 12,6.44333333 C12,6.90357062 11.626904,7.27666667 11.1666667,7.27666667 C11.0914356,7.27666667 11.0185329,7.26669766 10.9492075,7.2480086 L8.57058086,10.2211688 C8.63193022,10.3372504 8.66666667,10.4695686 8.66666667,10.61 C8.66666667,11.0702373 8.29357062,11.4433333 7.83333333,11.4433333 C7.37309604,11.4433333 7,11.0702373 7,10.61 C7,10.4297672 7.05721694,10.2628982 7.15447753,10.1265661 L5.4409144,7.26978647 C5.4056955,7.2743259 5.36978777,7.27666667 5.33333333,7.27666667 C5.26712997,7.27666667 5.20272971,7.26894667 5.14098367,7.2543578 L3.55819982,9.36526191 C3.62723619,9.48663762 3.66666667,9.6270474 3.66666667,9.77666667 C3.66666667,10.236904 3.29357062,10.61 2.83333333,10.61 C2.37309604,10.61 2,10.236904 2,9.77666667 C2,9.31642938 2.37309604,8.94333333 2.83333333,8.94333333 C2.89923174,8.94333333 2.96334362,8.95098237 3.02482956,8.96544104 L4.60788415,6.85371193 C4.53920865,6.73257127 4.5,6.59253114 4.5,6.44333333 C4.5,5.98309604 4.87309604,5.61 5.33333333,5.61 C5.79357062,5.61 6.16666667,5.98309604 6.16666667,6.44333333 C6.16666667,6.62356612 6.10944973,6.79043517 6.01218913,6.92676721 L7.72572179,9.78355079 C7.76095045,9.77900878 7.79686838,9.77666667 7.83333333,9.77666667 C7.90782687,9.77666667 7.98003745,9.78644116 8.0487525,9.80477757 L10.4294361,6.83219671 C10.3680762,6.7161074 10.3333333,6.58377768 10.3333333,6.44333333 C10.3333333,5.98309604 10.7064294,5.61 11.1666667,5.61 Z" id="形状结合" fill="#262626"></path>
        </g>
    </g>
</svg>