<?xml version="1.0" encoding="UTF-8"?>
<svg width="16px" height="16px" viewBox="0 0 16 16" version="1.1" xmlns="http://www.w3.org/2000/svg" xmlns:xlink="http://www.w3.org/1999/xlink">
    <title>compliance-check-third-menu</title>
    <g id="compliance-check-third-menu" stroke="none" stroke-width="1" fill="none" fill-rule="evenodd">
        <g id="应用性能监控">
            <rect id="矩形" x="0" y="0" width="16" height="16"></rect>
            <path d="M12.2327273,1 C13.1163829,1 13.8327273,1.7163444 13.8327273,2.6 L13.8327273,13.4 C13.8327273,14.2836556 13.1163829,15 12.2327273,15 L3.76,15 C2.8763444,15 2.16,14.2836556 2.16,13.4 L2.16,2.6 C2.16,1.7163444 2.8763444,1 3.76,1 L12.2327273,1 Z M12.2327273,2.2 L3.76,2.2 C3.5390861,2.2 3.36,2.3790861 3.36,2.6 L3.36,13.4 C3.36,13.6209139 3.5390861,13.8 3.76,13.8 L12.2327273,13.8 C12.4536412,13.8 12.6327273,13.6209139 12.6327273,13.4 L12.6327273,2.6 C12.6327273,2.3790861 12.4536412,2.2 12.2327273,2.2 Z M6.42458947,9.784831 C6.55347814,9.88075203 6.58020369,10.0629963 6.48428267,10.191885 L5.50553339,11.5070261 C5.44622507,11.5867185 5.35391545,11.6273539 5.26162138,11.6240906 C5.17560296,11.6300613 5.08754948,11.5986406 5.02466634,11.5302566 L4.41999089,10.872686 C4.31124004,10.754422 4.318952,10.57039 4.43721604,10.4616392 C4.55548008,10.3528883 4.73951201,10.3606003 4.84826286,10.4788643 L5.233,10.897 L6.01753552,9.8445242 C6.11345654,9.71563553 6.2957008,9.68890998 6.42458947,9.784831 Z M11.5690909,10.3272727 C11.8452333,10.3272727 12.0690909,10.5511304 12.0690909,10.8272727 C12.0690909,11.1034151 11.8452333,11.3272727 11.5690909,11.3272727 L8.20545455,11.3272727 C7.92931217,11.3272727 7.70545455,11.1034151 7.70545455,10.8272727 C7.70545455,10.5511304 7.92931217,10.3272727 8.20545455,10.3272727 L11.5690909,10.3272727 Z M5.37818182,6.98181818 C5.86017578,6.98181818 6.25090909,7.37255149 6.25090909,7.85454545 C6.25090909,8.33653942 5.86017578,8.72727273 5.37818182,8.72727273 C4.89618785,8.72727273 4.50545455,8.33653942 4.50545455,7.85454545 C4.50545455,7.37255149 4.89618785,6.98181818 5.37818182,6.98181818 Z M11.5690909,7.41818182 C11.8452333,7.41818182 12.0690909,7.64203944 12.0690909,7.91818182 C12.0690909,8.19432419 11.8452333,8.41818182 11.5690909,8.41818182 L8.20545455,8.41818182 C7.92931217,8.41818182 7.70545455,8.19432419 7.70545455,7.91818182 C7.70545455,7.64203944 7.92931217,7.41818182 8.20545455,7.41818182 L11.5690909,7.41818182 Z M5.37818182,7.56363636 C5.21751716,7.56363636 5.08727273,7.6938808 5.08727273,7.85454545 C5.08727273,8.01521011 5.21751716,8.14545455 5.37818182,8.14545455 C5.53884647,8.14545455 5.66909091,8.01521011 5.66909091,7.85454545 C5.66909091,7.6938808 5.53884647,7.56363636 5.37818182,7.56363636 Z M6.42458947,3.96664919 C6.55347814,4.06257021 6.58020369,4.24481447 6.48428267,4.37370314 L5.50553339,5.68884431 C5.4468674,5.76767354 5.35591106,5.8082873 5.26462006,5.80599939 C5.17767829,5.81261366 5.08828928,5.78126326 5.02466634,5.71207477 L4.41999089,5.05450418 C4.31124004,4.93624014 4.318952,4.75220821 4.43721604,4.64345736 C4.55548008,4.53470651 4.73951201,4.54241847 4.84826286,4.66068251 L5.233,5.079 L6.01753552,4.02634238 C6.11345654,3.89745372 6.2957008,3.87072816 6.42458947,3.96664919 Z M11.5690909,4.50909091 C11.8452333,4.50909091 12.0690909,4.73294853 12.0690909,5.00909091 C12.0690909,5.28523328 11.8452333,5.50909091 11.5690909,5.50909091 L8.20545455,5.50909091 C7.92931217,5.50909091 7.70545455,5.28523328 7.70545455,5.00909091 C7.70545455,4.73294853 7.92931217,4.50909091 8.20545455,4.50909091 L11.5690909,4.50909091 Z" id="形状结合" fill="#000000" fill-rule="nonzero"></path>
        </g>
    </g>
</svg>