<?xml version="1.0" encoding="UTF-8"?>
<svg width="16px" height="16px" viewBox="0 0 16 16" version="1.1" xmlns="http://www.w3.org/2000/svg" xmlns:xlink="http://www.w3.org/1999/xlink">
    <title>metric-collection-third-menu</title>
    <g id="metric-collection-third-menu" stroke="none" stroke-width="1" fill="none" fill-rule="evenodd">
        <rect id="矩形" fill-opacity="0" fill="#F0F0F0" x="0" y="0" width="16" height="16"></rect>
        <path d="M1.35428178,6.51570095 C1.41919098,6.5152082 1.48250907,6.53578149 1.53473207,6.57433281 L4.2594602,8.58574219 C4.39275938,8.68414439 4.42104898,8.87197546 4.32264678,9.00527464 C4.29498631,9.04274452 4.25898175,9.07325974 4.21748443,9.09440368 L3.07578192,9.67534738 C3.77300217,11.7252465 5.71427752,13.2 8,13.2 C9.93775107,13.2 11.6861979,12.1312685 12.5858564,10.4539215 L13.6433489,11.0211161 C12.5367135,13.0843561 10.3843176,14.4 8,14.4 C5.24777903,14.4 2.90131461,12.6627496 1.99736961,10.2250117 L1.51846567,10.4696224 C1.37083887,10.544842 1.19018616,10.4861444 1.11496655,10.3385176 C1.0938226,10.2970203 1.08263069,10.25117 1.08227715,10.2045978 L1.05656778,6.81796969 C1.05531002,6.65228903 1.18860112,6.51695871 1.35428178,6.51570095 Z M8,1.6 C10.7079341,1.6 13.0230649,3.28179088 13.9578772,5.65785743 L14.5315224,5.36536865 C14.6791492,5.29014904 14.8598019,5.34884666 14.9350216,5.49647346 C14.9561655,5.53797078 14.9673574,5.58382106 14.967711,5.63039325 L14.9934203,9.01702138 C14.9946781,9.18270204 14.861387,9.31803236 14.6957063,9.31929012 C14.6307971,9.31978287 14.567479,9.29920958 14.515256,9.26065826 L11.7905279,7.24924888 C11.6572287,7.15084669 11.6289391,6.96301561 11.7273413,6.82971644 C11.7550018,6.79224655 11.7910063,6.76173134 11.8325037,6.7405874 L12.8823103,6.20619088 C12.1516661,4.21817679 10.2414495,2.8 8,2.8 C6.01955984,2.8 4.23882057,3.91663382 3.35893726,5.65191445 L2.28866209,5.10922571 C3.37107639,2.97451928 5.5630756,1.6 8,1.6 Z" id="形状结合" fill="#262626" fill-rule="nonzero"></path>
    </g>
</svg>