<?xml version="1.0" encoding="UTF-8"?>
<svg width="16px" height="16px" viewBox="0 0 16 16" version="1.1" xmlns="http://www.w3.org/2000/svg" xmlns:xlink="http://www.w3.org/1999/xlink">
    <title>databases-third-menu</title>
    <g id="databases-third-menu" stroke="none" stroke-width="1" fill="none" fill-rule="evenodd">
        <rect id="矩形" fill-opacity="0" fill="#F0F0F0" x="1" y="1" width="14" height="14"></rect>
        <g id="图形" transform="translate(2.000000, 1.000000)" stroke="#262626">
            <path d="M12.4994,6.29585498 C12.4994,7.40023227 12.4994,9.05679819 12.4994,11.2655528 C12.4909113,11.79216 12.0395579,12.4661111 10.8637,13.05405 C9.7216,13.6251 8.09137,14 6.24969,14 C4.40801,14 2.77776,13.6251 1.63567,13.05405 C0.44865,12.46054 0,11.77938 0,11.25 C0,11.2414775 0,11.2329156 0.000350052321,11.2243154 L0,2.75" id="路径" stroke-linecap="round"></path>
            <path d="M6.24969,0 C4.40801,0 2.77776,0.3749 1.63567,0.94595 C0.44865,1.53946 0,2.22062 0,2.75 C0,3.27938 0.44865,3.96054 1.63567,4.55405 C2.77776,5.1251 4.40801,5.5 6.24969,5.5 C8.09137,5.5 9.7216,5.1251 10.8637,4.55405 C12.0507,3.96054 12.4994,3.27938 12.4994,2.75 C12.4994,2.22062 12.0507,1.53946 10.8637,0.94595 C9.7216,0.3749 8.09137,0 6.24969,0 Z" id="路径"></path>
            <path d="M0,7.25 C0,7.77938 0.44865,8.46054 1.63567,9.05405 C2.77776,9.6251 4.40801,10 6.24969,10 C8.09137,10 9.7216,9.6251 10.8637,9.05405 C12.0507,8.46054 12.4994,7.77938 12.4994,7.25" id="路径"></path>
        </g>
        <g id="编组-2" transform="translate(4.300000, 2.000000)" fill="#262626">
            <path d="M0.829620942,1.6 L1.08961461,1.6 L1.08961461,1.6 C1.08961461,0.715921569 2.39219935,0 3.9993809,0 C4.55409499,0.0017855514 5.09451218,0.0893487052 5.54836713,0.250980392 C6.00222207,0.412612079 5.32546085,0.635523882 5.01718,0.543372549 C4.70889916,0.451221216 4.35729858,0.402885052 3.9993809,0.40345098 C2.79956663,0.400313725 1.81767528,0.941176471 1.81767528,1.6 L2.07836471,1.6 C2.19610614,1.6 2.29155442,1.69544829 2.29155442,1.81318971 C2.29155442,1.89094562 2.24922115,1.96253465 2.18108652,2 L1.69466397,2.2674703 C1.5445891,2.34999232 1.36271878,2.34995963 1.21267359,2.26738365 L0.726822473,2 C0.623660877,1.94322597 0.586056322,1.81357253 0.642830349,1.71041094 C0.680310416,1.64230755 0.75188532,1.6 0.829620942,1.6 Z" id="路径备份-8"></path>
            <path d="M6.90914719,1.6 C6.90914719,2.48407843 5.60656245,3.2 3.9993809,3.2 C3.44466681,3.19821445 2.90424962,3.11065129 2.45039468,2.94901961 C1.99653973,2.78738792 2.67453915,2.56447612 2.98282,2.65662745 C3.29110084,2.74877878 3.64270142,2.79711495 4.0006191,2.79654902 C5.20290977,2.79654902 6.18108652,2.25882353 6.18108652,1.59686275 L5.91964242,1.59686275 C5.80241254,1.59686275 5.70737894,1.50182915 5.70737894,1.38459927 C5.70737894,1.30705514 5.7496644,1.23568202 5.81767528,1.19843137 L6.30445424,0.931814758 C6.45435144,0.849713668 6.63579976,0.84986402 6.78556069,0.932213413 L7.27255843,1.2 C7.3757309,1.25673169 7.41337859,1.38635962 7.3566469,1.4895321 C7.31918155,1.55766673 7.24759252,1.6 7.16983662,1.6 L6.90914719,1.6 L6.90914719,1.6 Z" id="路径备份-9"></path>
        </g>
    </g>
</svg>