<?xml version="1.0" encoding="UTF-8"?>
<svg width="16px" height="16px" viewBox="0 0 16 16" version="1.1" xmlns="http://www.w3.org/2000/svg" xmlns:xlink="http://www.w3.org/1999/xlink">
    <title>data-acquisition-third-menu</title>
    <g id="data-acquisition-third-menu" stroke="none" stroke-width="1" fill="none" fill-rule="evenodd">
        <g id="编组">
            <rect id="矩形" fill-opacity="0" fill="#F0F0F0" x="0" y="0" width="16" height="16"></rect>
            <g id="数据采集" transform="translate(1.795440, 1.600000)">
                <path d="M7.92382907,6 C9.60032516,6 10.9593066,7.35898144 10.9593066,9.03549417 C10.9593066,9.73090974 10.7254702,10.37135 10.3323354,10.8829098 L11.5755058,12.1259636 C11.6386724,12.1892801 11.627734,12.3026104 11.5511149,12.3791795 L10.9956182,12.934543 C10.9191656,13.0111621 10.8056855,13.0221172 10.7426687,12.9589339 L9.44587159,11.6622866 C8.99841084,11.9221622 8.47849326,12.0709717 7.92382905,12.0709717 C6.24733296,12.0709717 4.88835154,10.711957 4.88835154,9.03547751 C4.88835154,7.35896476 6.24733297,6 7.92382907,6 Z M7.8645598,6.98 C6.76007387,6.98 5.8645598,7.87541395 5.8645598,8.9800143 C5.8645598,10.0846289 6.76007387,10.98 7.8645598,10.98 C8.96904574,10.98 9.8645598,10.0846289 9.8645598,8.9800143 C9.8645598,7.87539965 8.96904574,6.98 7.8645598,6.98 Z" id="形状结合" fill="#262626" fill-rule="nonzero"></path>
                <g id="infrastructure备份" stroke="#262626" stroke-linecap="round" stroke-width="1.2">
                    <g id="编组-2">
                        <path d="M5.96085207,0 C4.20563152,0 2.65191518,0.343557651 1.5634417,0.866866792 C0.432147496,1.41075823 0.00455980349,2.03497197 0.00455980349,2.5200948 C0.00455980349,3.00521763 0.432147496,3.62943137 1.5634417,4.17332281 C2.65191518,4.69663195 4.20563152,5.0401896 5.96085207,5.0401896 C7.71607262,5.0401896 9.2697699,4.69663195 10.3582529,4.17332281 C11.4895281,3.62943137 11.9171634,3.00521763 11.9171634,2.5200948 C11.9171634,2.03497197 11.4895281,1.41075823 10.3582529,0.866866792 C9.2697699,0.343557651 7.71607262,0 5.96085207,0 Z" id="路径"></path>
                        <path d="M11.9171634,6.60215415 L11.9171634,5.0401896 C11.5909803,5.30847216 11.3452599,5.48366612 11.1800022,5.56577148 C11.0147446,5.64787684 10.7831843,5.73301031 10.4853215,5.82117188 M3.98605394,6.5 C3.44760189,6.42635456 2.5119179,6.27610939 1.75936937,6 C0.871793913,5.67434935 0.189708104,5.21137383 0,5.0401896 L0,6.3087349 C0.000295446751,6.79385773 0.427883139,7.41807147 1.55917734,7.96201789 C1.98839767,8.16835756 2.48996234,8.34675335 3.04769945,8.4871582" id="形状"></path>
                        <path d="M5.07591417,12.8 C3.75933982,12.7112149 2.59348788,12.4282671 1.70677149,12.0293747 C0.586894879,11.525539 0.0850928694,10.9247484 0.0143000157,10.4425397 L0.00455980349,10.3761925 L0.00455980349,9.15744629 C0.46505785,9.5 1.09011893,9.84019189 1.47702074,10.0262207 C2.1444456,10.3470842 2.37474658,10.418208 3.23379882,10.5916077" id="路径"></path>
                    </g>
                </g>
            </g>
        </g>
    </g>
</svg>