<?xml version="1.0" encoding="UTF-8"?>
<svg width="16px" height="16px" viewBox="0 0 16 16" version="1.1" xmlns="http://www.w3.org/2000/svg" xmlns:xlink="http://www.w3.org/1999/xlink">
    <title>data-bulider-third-menu</title>
    <g id="data-bulider-third-menu" stroke="none" stroke-width="1" fill="none" fill-rule="evenodd">
        <rect id="矩形" fill="#000000" opacity="0" x="0" y="0" width="16" height="16"></rect>
        <g id="低代码-Data-Builder" transform="translate(2.200000, 1.600000)" stroke="#262626" stroke-linejoin="round" stroke-width="1.2">
            <g id="路径">
                <path d="M5.49153528,5.65781886 L1.57107141,3.34255771 C1.33329656,3.20213788 1.25437472,2.89555051 1.39479455,2.65777565 C1.43864477,2.58352347 1.50095352,2.52187442 1.57566823,2.478817 L5.62739541,0.143842728 C5.78189142,0.0548080525 5.97211147,0.0547899338 6.12662444,0.143795176 L10.1515487,2.46230188 C10.3908309,2.60013738 10.4730698,2.9058517 10.3352343,3.14513393 C10.2902976,3.22314389 10.2251323,3.28757407 10.1466176,3.33162285 L5.99043003,5.66335157 C5.83502643,5.75053701 5.64496714,5.74842927 5.49153528,5.65781886 Z"></path>
                <path d="M10.0226919,11.1612379 L7.21884252,12.7748952 C7.00156738,12.9000793 6.72394929,12.8254248 6.59876516,12.6081497 C6.55904592,12.5392112 6.53813915,12.4610459 6.53813915,12.3814838 L6.53813915,7.55119609 C6.53813915,7.38695561 6.62683717,7.23551897 6.77008855,7.15518233 L11.0770633,4.73979264 C11.2957757,4.61713681 11.5725093,4.69500601 11.6951651,4.91371837 C11.733216,4.98156833 11.7531888,5.05805678 11.7531888,5.13584807 L11.7529873,8.09424022" stroke-linecap="round"></path>
                <path d="M4.17623647,12.5682408 L0.25045486,10.3069402 C0.0954986027,10.2176834 7.6780199e-06,10.0524665 2.0136393e-05,9.87364199 L0.000342581188,5.24534568 C0.000361819514,4.96920331 0.22423504,4.74536128 0.500377414,4.74538052 C0.589771224,4.74538674 0.677528648,4.76935914 0.754510884,4.81480128 L4.67997005,7.13197598 C4.83231716,7.22190556 4.92580174,7.38564571 4.92580174,7.56255521 L4.92580174,12.1349774 C4.92580174,12.4111198 4.70194412,12.6349774 4.42580174,12.6349774 C4.33820358,12.6349774 4.25214262,12.6119637 4.17623647,12.5682408 Z"></path>
            </g>
        </g>
    </g>
</svg>