<?xml version="1.0" encoding="UTF-8"?>
<svg width="16px" height="16px" viewBox="0 0 16 16" version="1.1" xmlns="http://www.w3.org/2000/svg" xmlns:xlink="http://www.w3.org/1999/xlink">
    <title>database-monitoring-third-menu</title>
    <g id="database-monitoring-third-menu" stroke="none" stroke-width="1" fill="none" fill-rule="evenodd">
        <g id="service-drm-second-menu">
            <rect id="矩形" fill="#000000" fill-rule="nonzero" opacity="0" x="0" y="0" width="16" height="16"></rect>
            <g id="编组" transform="translate(1.6, 1.6)">
                <path d="M2.61187919,0.628057753 C3.35230045,0.531534189 4.00012128,0.737486766 4.54478389,1.24917618 C4.93189368,1.61351481 5.16645717,2.06274826 5.26072286,2.58163411 C5.29238422,3.64301224 5.29887111,4.4441458 5.30017583,5.18521278 L2.97766157,5.30204454 C2.37133938,5.29896505 1.83910035,5.10057044 1.38318268,4.69247782 C1.0181272,4.37108346 0.764723112,3.94050323 0.659674706,3.46172439 C0.564597723,3.03997265 0.58924306,2.60937811 0.719367151,2.21352248 C0.849455567,1.81777539 1.0849624,1.45676544 1.41102295,1.17450353 C1.75810776,0.874748465 2.15806347,0.687515018 2.61187919,0.628057753 Z" id="路径" stroke="#262626" stroke-width="1.2" fill-rule="nonzero"></path>
                <path d="M5.24777154,7.36696849 L5.29897331,9.68542817 C5.29892625,10.2948015 5.09767778,10.8291084 4.69052236,11.2825872 C4.3328139,11.6803105 3.89023992,11.9391437 3.35935825,12.0253968 C2.53836493,12.1591611 1.83375293,11.9177944 1.24870675,11.325375 C0.939281549,11.0159498 0.730751049,10.6189128 0.650023218,10.1863753 C0.508269797,9.44094783 0.67456775,8.76907618 1.16996572,8.19050027 C1.53514062,7.76405442 2.00476754,7.51259121 2.55428557,7.40879234 L5.24777154,7.36696849 Z" id="路径" stroke="#262626" stroke-width="1.2" fill-rule="nonzero"></path>
                <g id="编组备份-4" transform="translate(7.2748, 7.1494)" fill="#262626">
                    <path d="M3.9916197,4.24984864 L4.38712558,5.12019323 C4.4311247,5.21634675 4.41904474,5.31853126 4.35253,5.40752565 C4.2275898,5.57539675 3.9489348,5.65057692 3.7279671,5.65057692 L0.891764957,5.65057692 C0.633309207,5.65057692 0.39387053,5.56089842 0.28156839,5.42225201 C0.21094298,5.33482391 0.191805889,5.2320033 0.227739693,5.13209315 L0.232606479,5.12019323 L0.628106366,4.24984864 C1.06189244,4.63185834 1.65578438,4.86835656 2.30989604,4.86835656 C2.96391768,4.86835656 3.55759958,4.63206239 3.9916197,4.24984864 Z M2.32571169,0 C3.61015916,0 4.65142338,1.04104217 4.65142338,2.32521361 C4.65142338,3.60938505 3.61015916,4.65041521 2.32571169,4.65041521 C1.0412642,4.65041521 0,3.60938505 0,2.32520761 C0,1.04103016 1.0412642,0 2.32571169,0 Z M2.32571169,1.42173766 C1.59449357,1.42173766 1.00174182,2.0143694 1.00174182,2.74542548 C1.00174182,3.47648159 1.59449957,4.06911932 2.32571169,4.06911932 C3.0569298,4.06911932 3.64968156,3.47648758 3.64968156,2.74543148 C3.64968156,2.0143754 3.0569298,1.42173766 2.32571169,1.42173766 Z M2.32571169,2.05206748 C2.72420606,2.05206748 3.04723823,2.37503966 3.04723823,2.77344402 C3.04723823,3.17184836 2.72420606,3.49482053 2.32571169,3.49482053 C1.92721732,3.49482053 1.60418513,3.17184836 1.60418513,2.77344402 C1.60418513,2.37503966 1.92722332,2.05206748 2.32571169,2.05206748 Z" id="形状结合"></path>
                </g>
                <path d="M9.07679656,0.689838179 C9.92829065,0.47481442 10.6911205,0.655456548 11.3431398,1.25795603 C11.6948088,1.57732889 11.9288332,2.00572632 12.0118315,2.47601439 C12.1676864,3.33628439 11.9307548,4.07809699 11.2911958,4.6796017 C10.9470133,5.00310886 10.5298399,5.18954883 10.0622117,5.26403299 C9.16613521,5.29263495 8.53608499,5.29817111 7.9590199,5.2990947 L7.53282702,5.29921087 L7.36385396,2.96911427 C7.36498996,2.45134954 7.51022562,1.9790177 7.81560753,1.5604834 C8.13496407,1.12499721 8.55299766,0.822905504 9.07679656,0.689838179 Z" id="路径" stroke="#262626" stroke-width="1.2" fill-rule="nonzero"></path>
            </g>
        </g>
    </g>
</svg>