<?xml version="1.0" encoding="UTF-8"?>
<svg width="16px" height="16px" viewBox="0 0 16 16" version="1.1" xmlns="http://www.w3.org/2000/svg" xmlns:xlink="http://www.w3.org/1999/xlink">
    <title>deliver-observables-third-menu</title>
    <g id="deliver-observables-third-menu" stroke="none" stroke-width="1" fill="none" fill-rule="evenodd">
        <g id="编组" transform="translate(1, 1)">
            <path d="M9.01928893,11 L9.3915765,12.0706851 L9.97789278,13.7569088 C10.0401626,13.9359944 9.96638464,14.1401505 9.81310507,14.212904 C9.77729498,14.2299011 9.73900791,14.2386407 9.70035558,14.2386407 L4.29956526,14.2386407 C4.13411994,14.2386407 4,14.0819404 4,13.8886407 C4,13.8434809 4.00748021,13.7987478 4.02202806,13.7569088 L4.96627259,11.0412969 L4.96627259,11.0412969" id="路径备份-8" fill="#262626"></path>
            <rect id="矩形备份-46" stroke="#262626" stroke-width="1.2" x="0.6" y="0.6" width="12.8" height="9.56923077" rx="0.72"></rect>
            <line x1="0.31421881" y1="8.01501773" x2="13.6985108" y2="8.01501773" id="直线-7备份-2" stroke="#262626" stroke-width="1.2"></line>
            <polyline id="路径-2备份-4" stroke="#262626" stroke-linecap="round" stroke-linejoin="round" points="3 4.49620264 4.82217219 4.49620264 5.31134814 5.8589066 6.37172854 2 7.69525326 7 8.78144927 3.07054906 9.49200179 4.5 11 4.5"></polyline>
        </g>
    </g>
</svg>