<?xml version="1.0" encoding="UTF-8"?>
<svg width="16px" height="16px" viewBox="0 0 16 16" version="1.1" xmlns="http://www.w3.org/2000/svg" xmlns:xlink="http://www.w3.org/1999/xlink">
    <title>digital-architecture-management-third-menu</title>
    <g id="digital-architecture-management-third-menu" stroke="none" stroke-width="1" fill="none" fill-rule="evenodd">
        <g transform="translate(1.000000, 2.000000)" fill="#262626" fill-rule="nonzero" id="工作负载">
            <g id="架构拓扑">
                <path d="M7.05447917,0 C8.27204718,0 9.25908107,0.987033892 9.25908107,2.2046019 C9.25908107,3.42216991 8.27204718,4.4092038 7.05447917,4.4092038 C5.83691116,4.4092038 4.84987727,3.42216991 4.84987727,2.2046019 C4.84987727,0.987033892 5.83691116,0 7.05447917,0 Z M7.05447917,1.2 C6.49965286,1.2 6.04987727,1.64977559 6.04987727,2.2046019 C6.04987727,2.75942821 6.49965286,3.2092038 7.05447917,3.2092038 C7.60930548,3.2092038 8.05908107,2.75942821 8.05908107,2.2046019 C8.05908107,1.64977559 7.60930548,1.2 7.05447917,1.2 Z" id="矩形"></path>
                <path d="M8.08249645,3.31455845 C8.36664461,3.14406955 8.73520076,3.23620859 8.90568966,3.52035675 L11.5470757,7.92266675 C11.7175646,8.20681491 11.6254255,8.57537106 11.3412774,8.74585996 C11.0571292,8.91634886 10.688573,8.82420982 10.5180841,8.54006166 L7.87669815,4.13775165 C7.70620925,3.85360349 7.79834829,3.48504734 8.08249645,3.31455845 Z M9.77570059,9.81960392 C10.1070714,9.81960392 10.3757006,10.0882331 10.3757006,10.4196039 C10.3757006,10.7509748 10.1070714,11.0196039 9.77570059,11.0196039 L4.3055026,11.0196039 C3.97413175,11.0196039 3.7055026,10.7509748 3.7055026,10.4196039 C3.7055026,10.0882331 3.97413175,9.81960392 4.3055026,9.81960392 L9.77570059,9.81960392 Z M5.21468939,3.50132224 C5.38517828,3.21717408 5.75373444,3.12503504 6.03788259,3.29552394 C6.32203075,3.46601284 6.41416979,3.83456899 6.2436809,4.11871715 L3.42262545,8.82047623 C3.25213655,9.10462439 2.8835804,9.19676343 2.59943224,9.02627453 C2.31528408,8.85578564 2.22314504,8.48722948 2.39363394,8.20308133 L5.21468939,3.50132224 Z" id="形状"></path>
                <path d="M2.2046019,7.93656685 C3.42216991,7.93656685 4.4092038,8.92360074 4.4092038,10.1411687 C4.4092038,11.3587368 3.42216991,12.3457707 2.2046019,12.3457707 C0.987033892,12.3457707 0,11.3587368 0,10.1411687 C0,8.92360074 0.987033892,7.93656685 2.2046019,7.93656685 Z M2.2046019,9.13656685 C1.64977559,9.13656685 1.2,9.58634244 1.2,10.1411687 C1.2,10.6959951 1.64977559,11.1457707 2.2046019,11.1457707 C2.75942821,11.1457707 3.2092038,10.6959951 3.2092038,10.1411687 C3.2092038,9.58634244 2.75942821,9.13656685 2.2046019,9.13656685 Z" id="矩形备份"></path>
                <path d="M11.9048503,7.93656685 C13.1224183,7.93656685 14.1094522,8.92360074 14.1094522,10.1411687 C14.1094522,11.3587368 13.1224183,12.3457707 11.9048503,12.3457707 C10.6872823,12.3457707 9.70024837,11.3587368 9.70024837,10.1411687 C9.70024837,8.92360074 10.6872823,7.93656685 11.9048503,7.93656685 Z M11.9048503,9.13656685 C11.350024,9.13656685 10.9002484,9.58634244 10.9002484,10.1411687 C10.9002484,10.6959951 11.350024,11.1457707 11.9048503,11.1457707 C12.4596766,11.1457707 12.9094522,10.6959951 12.9094522,10.1411687 C12.9094522,9.58634244 12.4596766,9.13656685 11.9048503,9.13656685 Z" id="矩形备份-2"></path>
            </g>
        </g>
    </g>
</svg>