<?xml version="1.0" encoding="UTF-8"?>
<svg width="16px" height="16px" viewBox="0 0 16 16" version="1.1" xmlns="http://www.w3.org/2000/svg" xmlns:xlink="http://www.w3.org/1999/xlink">
    <title>easyhub-online-approval-third-menu</title>
    <defs>
        <path d="M2.98327273,0 C1.34254545,0 0,1.25020106 0,2.77773545 L0,2.77773545 L0,13.2222646 C0,14.7501376 1.34254545,16 2.98327273,16 L2.98327273,16 L13.0170909,16 C14.6574545,16 16,14.7501376 16,13.2222646 L16,13.2222646 L16,2.77773545 C16,1.25020106 14.6574545,0 13.0170909,0 L13.0170909,0 L2.98327273,0 Z" id="path-1"></path>
        <polygon id="path-3" points="7.71149223 7.57603879 14.9999219 7.57603879 14.9999219 15 7.71149223 15"></polygon>
    </defs>
    <g id="easyhub-online-approval-third-menu" stroke="none" stroke-width="1" fill="none" fill-rule="evenodd">
        <rect id="矩形" fill="#000000" opacity="0" x="0" y="0" width="16" height="16"></rect>
        <g id="编组-2">
            <mask id="mask-2" fill="white">
                <use xlink:href="#path-1"></use>
            </mask>
            <g id="Clip-2"></g>
            <g id="编组" mask="url(#mask-2)">
                <g transform="translate(1.8, 1.5279)">
                    <path d="M11.4533694,4.78929705 C11.4533694,4.18796473 11.4533694,3.28596624 11.4533694,2.08330159 C11.4533694,0.937650794 10.4923275,0 9.31809688,0 L2.13553278,0 C0.96104181,0 0,0.937650794 0,2.08330159 L0,9.91669841 C0,11.0626032 0.96104181,12 2.13553278,12 C3.40862932,12 4.36345173,12 5,12" id="路径" stroke="#262626" stroke-width="1.2" fill="none" stroke-linecap="round"></path>
                    <path d="M4.13908442,3.31654242 C3.99870881,3.69910784 3.63123074,3.97206545 3.2,3.97206545 C2.64771525,3.97206545 2.2,3.5243502 2.2,2.97206545 C2.2,2.4197807 2.64771525,1.97206545 3.2,1.97206545 C3.68874757,1.97206545 4.09560188,2.32269217 4.18274571,2.78612837 L7.64655572,2.78641339 C8.36998473,2.78641339 8.96082985,3.3884441 8.96082985,4.12537783 C8.96082985,4.84291856 8.40067267,5.43256301 7.70338473,5.46310002 L7.64655572,5.46434226 L3.79395463,5.46436877 C3.35792011,5.46436877 3.00002789,5.82885018 3.00002789,6.27305026 C3.00002789,6.70122828 3.33290557,7.05558441 3.74755833,7.08034942 L3.79395463,7.08173175 L8.18007448,7.08173175 L8.18007448,7.6120147 L3.79395463,7.6120147 C3.07049611,7.6120147 2.47942019,7.00995391 2.47942019,6.27305026 C2.47942019,5.55535982 3.03972049,4.9658572 3.7371169,4.93532776 L3.79395463,4.93408583 L7.64655572,4.93405932 C8.08242134,4.93405932 8.44022215,4.56948479 8.44022215,4.12537783 C8.44022215,3.69713182 8.10752216,3.34283882 7.69294414,3.31807841 L7.64655572,3.31669634 Z" id="形状结合" stroke="#262626" stroke-width="0.64125" fill="#262626" fill-rule="evenodd" stroke-linecap="round" stroke-linejoin="round"></path>
                    <path d="M9.35574611,6.04810424 C11.3684155,6.04810424 13,7.71001098 13,9.76008485 C13,11.8101587 11.3684155,13.4720655 9.35574611,13.4720655 C7.34333706,13.4720655 5.71149223,11.8101587 5.71149223,9.76008485 C5.71149223,7.71001098 7.34333706,6.04810424 9.35574611,6.04810424 Z M9.35592833,7.58062195 C8.85250068,7.58062195 8.44486486,7.99609863 8.44486486,8.50835196 C8.44486486,8.85433212 8.63120385,9.15506147 8.90680457,9.31426565 L9.01414937,9.36714518 L9.01414937,9.75292603 L8.13640479,9.75292603 C7.92538514,9.75292603 7.74850707,9.90941841 7.71180601,10.1138385 L7.70482101,10.1925306 L7.70482101,10.8214462 C7.70482101,11.0363875 7.85825246,11.2165528 8.05907991,11.2539359 L8.13640479,11.2610507 L10.5751916,11.2610507 C10.7862112,11.2610507 10.9630893,11.1047678 10.9997903,10.9002081 L11.0067753,10.8214462 L11.0067753,10.1925306 C11.0067753,9.97782491 10.8533439,9.79747634 10.6525164,9.76004957 L10.5751916,9.75292603 L9.69744698,9.75292603 L9.69744698,9.36714518 C9.99384629,9.24482658 10.2129129,8.96894852 10.2579351,8.63578535 L10.2664712,8.50835196 C10.2664712,8.03268816 9.91498928,7.64046952 9.46212205,7.58686514 L9.35592833,7.58062195 Z" id="形状结合" stroke="none" fill="#262626" fill-rule="evenodd"></path>
                </g>
            </g>
            <mask id="mask-4" fill="white">
                <use xlink:href="#path-3"></use>
            </mask>
            <g id="Clip-10"></g>
            <path d="M4.79400669,4.49326541 C4.79400669,4.98748911 4.40042727,5.38811787 3.9154812,5.38811787 C3.43027483,5.38811787 3.03695571,4.98748911 3.03695571,4.49326541 C3.03695571,3.9990417 3.43027483,3.59841294 3.9154812,3.59841294 C4.40042727,3.59841294 4.79400669,3.9990417 4.79400669,4.49326541" id="Fill-3" fill="#FFFFFF" mask="url(#mask-4)"></path>
        </g>
    </g>
</svg>