<?xml version="1.0" encoding="UTF-8"?>
<svg width="16px" height="16px" viewBox="0 0 16 16" version="1.1" xmlns="http://www.w3.org/2000/svg" xmlns:xlink="http://www.w3.org/1999/xlink">
    <title>easycmp-third-menu</title>
    <g id="easycmp-third-menu" stroke="none" stroke-width="1" fill="none" fill-rule="evenodd">
        <g id="编组-2" transform="translate(1.2, 1)">
            <g id="编组">
                <rect id="矩形备份-11" opacity="0.446149554" x="0.1" y="0" width="11.8977636" height="13.5974441"></rect>
                <path d="M8.12957632,9.80006688 C8.06737002,9.89571125 8.01101297,9.99372008 7.96102236,10.0930236 C7.31585098,10.175407 6.76857264,10.5130945 6.42696319,10.9989214 L1.2,11 L1.199,12.399 L6.05809163,12.3996275 C6.10116997,12.8571924 6.29305519,13.2735773 6.58483968,13.6002231 L0.899894708,13.5996077 C0.402913361,13.5995205 0,13.1966382 0,12.699589 L0,10.7002276 C0,10.20321 0.402928045,9.80029803 0.899980657,9.80025299 Z" id="形状结合" fill="#262626" fill-rule="nonzero"></path>
                <path d="M2.43838582,12.3200335 L2.43573559,12.3200335 C2.08445207,12.3200335 1.79968051,12.0352619 1.79968051,11.6839784 C1.79968051,11.3326949 2.08445207,11.0479233 2.43573559,11.0479233 L2.43838582,11.0479233 C2.78966934,11.0479233 3.07444089,11.3326949 3.07444089,11.6839784 C3.07444089,12.0352619 2.78966934,12.3200335 2.43838582,12.3200335 Z" id="路径" fill="#262626"></path>
                <path d="M11.1479233,5.48658147 L11.3977636,7.86102236 L0.949840256,8.11086262 L0.7,5.73642173 L11.1479233,5.48658147 Z" id="路径" stroke="#262626" stroke-width="1.2"></path>
                <path d="M2.43838582,7.43345201 L2.43573559,7.43345201 C2.08445207,7.43345201 1.79968051,7.14868045 1.79968051,6.79739693 C1.79968051,6.44611341 2.08445207,6.16134185 2.43573559,6.16134185 L2.43838582,6.16134185 C2.78966934,6.16134185 3.07444089,6.44611341 3.07444089,6.79739693 C3.07444089,7.14868045 2.78966934,7.43345201 2.43838582,7.43345201 Z" id="路径" fill="#262626"></path>
                <path d="M11.1479233,0.6 L11.3977636,2.97444089 L0.949840256,3.22428115 L0.7,0.849840256 L11.1479233,0.6 Z" id="路径" stroke="#262626" stroke-width="1.2"></path>
                <path d="M2.43838582,2.54687054 L2.43573559,2.54687054 C2.08445207,2.54687054 1.79968051,2.26209898 1.79968051,1.91081546 C1.79968051,1.55953194 2.08445207,1.27476038 2.43573559,1.27476038 L2.43838582,1.27476038 C2.78966934,1.27476038 3.07444089,1.55953194 3.07444089,1.91081546 C3.07444089,2.26209898 2.78966934,2.54687054 2.43838582,2.54687054 Z" id="路径" fill="#262626"></path>
            </g>
            <path d="M9.27827476,14 C9.22161874,14 9.13663472,14 9.02332268,14 C8.91001065,14 8.79669862,14 8.68338658,14 L8.59840256,14 C7.66374824,14 6.89872204,13.2402854 6.89872204,12.3120128 C6.89872204,11.4395536 7.55020958,10.7360822 8.4284345,10.6239396 C8.76837061,9.94867594 9.47628754,9.34824281 10.2980831,9.34824281 C11.6282678,9.34824281 12.1959463,10.2298065 12.394299,11.1862867 C13.1025559,11.24253 13.6974441,11.8615504 13.6974441,12.5927993 C13.6974441,13.3808076 13.0741712,14 12.2807604,14 L9.61821086,14 L9.27827476,14 Z" id="路径" fill="#262626"></path>
        </g>
        <g id="编组" transform="translate(7.2489, 9.4984)"></g>
    </g>
</svg>