<?xml version="1.0" encoding="UTF-8"?>
<svg width="16px" height="16px" viewBox="0 0 16 16" version="1.1" xmlns="http://www.w3.org/2000/svg" xmlns:xlink="http://www.w3.org/1999/xlink">
    <title>easyhub-third-menu</title>
    <g id="easyhub-third-menu" stroke="none" stroke-width="1" fill="none" fill-rule="evenodd">
        <g id="micro-app-store-third-menu" transform="translate(1.1194, 1)" fill="#262626" fill-rule="nonzero">
            <path d="M11.3560631,1.11423958e-07 C12.4408307,-0.000358322473 13.3281318,0.864098054 13.3560019,1.94850764 L13.3862547,3.23324915 C13.4030618,4.07106899 13.4131461,4.87153986 13.4165075,5.63466174 L13.417768,6.20000022 C13.417768,7.4704605 13.5323696,9.10429281 13.7615728,11.1014971 C13.9261817,12.5279713 12.9034502,13.8179673 11.4770032,13.9828111 C11.3778666,13.9942676 11.2781526,14.0000001 11.1783563,14.0000001 L2.60149448,14.0000001 C1.16555442,14.0008252 0.00082585785,12.8374349 0,11.4014949 C0,11.2959463 0.0063063497,11.190492 0.0195029222,11.0857706 C0.238032836,9.31165963 0.347297793,7.68306949 0.347297793,6.20000022 C0.347297793,4.69705363 0.36482885,3.28019404 0.399890963,1.94942145 C0.427269108,0.865063105 1.31407616,0.000226496024 2.39878005,1.11423958e-07 L11.3560631,1.11423958e-07 Z M11.3564598,1.20000011 L10.7155799,1.20112938 C9.89424541,2.4449386 8.49350197,3.23656372 6.94257235,3.23656372 C5.41535765,3.23656372 4.04006171,2.44231336 3.21861889,1.20083584 L2.39903038,1.20000011 C1.96515535,1.20000011 1.61045891,1.54600628 1.59947468,1.9810271 C1.56469896,3.30092941 1.54729779,4.70729158 1.54729779,6.20000011 C1.54729779,7.54276853 1.46114805,8.99467337 1.28908667,10.5586551 L1.21008688,11.2358034 C1.20335135,11.2892532 1.2,11.3443417 1.2,11.4008051 C1.20044469,12.1740036 1.82760631,12.8004447 2.60149448,12.8000005 L11.1784351,12.8000005 C11.2321716,12.8000005 11.2858638,12.7969134 11.339245,12.7907445 C12.107345,12.701981 12.6581353,12.0073006 12.5693978,11.2383135 L12.469666,10.3229182 C12.3172329,8.84000632 12.2337707,7.57061009 12.2198556,6.51144583 L12.2127623,5.0647739 C12.204418,4.09525178 12.1856384,3.06692039 12.1563981,1.97933837 C12.1452511,1.54561839 11.7903597,1.19985674 11.3564598,1.20000011 Z M9.1406505,1.20096651 L4.7914071,1.20211083 C5.37621472,1.7263387 6.13198385,2.03656372 6.94257235,2.03656372 C7.77468831,2.03656372 8.54853842,1.72568859 9.1406505,1.20096651 Z" id="形状结合"></path>
            <path d="M4.97201027,9.4879845 L4.97201027,9.06115445 C4.97201027,8.73792036 5.23327126,8.47591164 5.55558293,8.47591164 C5.87784178,8.47591164 6.13915558,8.73792036 6.13915558,9.06115445 L6.13915558,9.4879845 C6.13915558,9.91153082 6.4827505,10.2561091 6.90514091,10.2561091 C7.32753136,10.2561091 7.67112625,9.91153082 7.67112625,9.4879845 L7.67112625,9.06115445 C7.67112625,8.73792036 7.93244005,8.47591164 8.25469891,8.47591164 C8.57701058,8.47591164 8.83827157,8.73792036 8.83827157,9.06115445 L8.83827157,9.4879845 C8.83827157,10.5569927 7.97109845,11.4266477 6.90514091,11.4266477 C5.83918341,11.4266477 4.97201027,10.5569927 4.97201027,9.4879845 Z M10.4858635,6.63556396 C10.3309659,6.63556396 10.1905916,6.69663047 10.0862879,6.79556564 C9.90920927,6.90964827 9.69378911,6.97897703 9.44451643,6.97897703 C9.19593032,6.97897703 9.02804097,6.91001901 8.85228261,6.79651898 C8.80189993,6.72448909 8.73926491,6.66188664 8.66712371,6.61188943 C8.55579601,6.43732289 8.48888319,6.26720525 8.48888319,6.02119141 C8.48888319,5.77353571 8.55632411,5.55596309 8.66849682,5.37933098 C8.76810028,5.27456987 8.82962625,5.13305233 8.82962625,4.976864 C8.82962625,4.65437137 8.568999,4.39294526 8.2474267,4.39294526 C7.92590722,4.39294526 7.66522716,4.65437137 7.66522716,4.976864 C7.66522716,5.13215195 7.72611939,5.27298097 7.82471941,5.3775832 C7.93852927,5.55516864 8.00766018,5.77115237 8.00766018,6.02119141 C8.00766018,6.270436 7.93884615,6.43885882 7.82572285,6.61506722 C7.75463788,6.66506443 7.69279502,6.72719021 7.64320454,6.7986375 C7.46359091,6.91081346 7.15205289,6.97897703 6.90515677,6.97897703 C6.65598973,6.97897703 6.34371234,6.90970123 6.16494369,6.79577749 C6.11567009,6.72554835 6.05467222,6.66437591 5.98459068,6.61506722 C5.87141456,6.43885882 5.80265335,6.270436 5.80265335,6.02119141 C5.80265335,5.77115237 5.87178426,5.55516864 5.98554131,5.3775832 C6.08414132,5.27298097 6.14503356,5.13215195 6.14503356,4.976864 C6.14503356,4.65437137 5.88440631,4.39294526 5.56283402,4.39294526 C5.24126172,4.39294526 4.98063447,4.65437137 4.98063447,4.976864 C4.98063447,5.13305233 5.04216046,5.27456987 5.1417639,5.37933098 C5.2539366,5.55596309 5.32137753,5.77353571 5.32137753,6.02119141 C5.32137753,6.26720525 5.25446472,6.43732289 5.14318983,6.61188943 C5.07099582,6.66188664 5.00836078,6.72448909 4.95797812,6.79651898 C4.78227258,6.91001901 4.6143304,6.97897703 4.3657971,6.97897703 C4.11647163,6.97897703 3.90110427,6.90964827 3.72402561,6.79556564 C3.6197219,6.69663047 3.47929478,6.63556396 3.32439717,6.63556396 C3.00287768,6.63556396 2.74219762,6.89699007 2.74219762,7.21942974 C2.74219762,7.54192236 3.00287768,7.80334848 3.32439717,7.80334848 C3.48019258,7.80334848 3.62130626,7.7416464 3.72576841,7.64170494 C3.90189645,7.52921119 4.11879535,7.46157727 4.3657971,7.46157727 C4.61110887,7.46157727 4.78074103,7.52868158 4.95475659,7.64027495 C5.08784285,7.83343154 5.30991733,7.96022532 5.56172497,7.96022532 C5.8121595,7.96022532 6.03307212,7.83475563 6.16636962,7.64345272 C6.3445045,7.52984677 6.65688753,7.46157727 6.90515677,7.46157727 C7.15168321,7.46157727 7.46417185,7.52926417 7.64278204,7.64186382 C7.77597394,7.83412006 7.99746748,7.96022532 8.24853575,7.96022532 C8.5003434,7.96022532 8.72241789,7.83343154 8.85550414,7.64027495 C9.02951969,7.52868158 9.19920467,7.46157727 9.44451643,7.46157727 C9.69146537,7.46157727 9.90841708,7.52921119 10.0844923,7.64170494 C10.1889545,7.7416464 10.330121,7.80334848 10.4858635,7.80334848 C10.807383,7.80334848 11.0680631,7.54192236 11.0680631,7.21942974 C11.0680631,6.89699007 10.807383,6.63556396 10.4858635,6.63556396" id="形状结合"></path>
        </g>
    </g>
</svg>