<?xml version="1.0" encoding="UTF-8"?>
<svg width="16px" height="16px" viewBox="0 0 16 16" version="1.1" xmlns="http://www.w3.org/2000/svg" xmlns:xlink="http://www.w3.org/1999/xlink">
    <title>easy-agile-ideas-third-menu</title>
    <g id="easy-agile-ideas-third-menu" stroke="none" stroke-width="1" fill="none" fill-rule="evenodd">
        <g id="编组">
            <rect id="矩形" x="0" y="0" width="16" height="16"></rect>
            <path d="M12.7904762,1.1 C13.6189033,1.1 14.2904762,1.77157288 14.2904762,2.6 L14.2904762,13.4 C14.2904762,14.2284271 13.6189033,14.9 12.7904762,14.9 L2.6,14.9 C1.77157288,14.9 1.1,14.2284271 1.1,13.4 L1.1,2.6 C1.1,1.77157288 1.77157288,1.1 2.6,1.1 L12.7904762,1.1 Z M12.7904762,2.1 L2.6,2.1 C2.32385763,2.1 2.1,2.32385763 2.1,2.6 L2.1,13.4 C2.1,13.6761424 2.32385763,13.9 2.6,13.9 L12.7904762,13.9 C13.0666186,13.9 13.2904762,13.6761424 13.2904762,13.4 L13.2904762,2.6 C13.2904762,2.32385763 13.0666186,2.1 12.7904762,2.1 Z M10.7428571,11.352381 C11.0794878,11.352381 11.352381,11.6252741 11.352381,11.9619048 C11.352381,12.2985355 11.0794878,12.5714286 10.7428571,12.5714286 L4.64761905,12.5714286 C4.31098834,12.5714286 4.03809524,12.2985355 4.03809524,11.9619048 C4.03809524,11.6252741 4.31098834,11.352381 4.64761905,11.352381 L10.7428571,11.352381 Z M10.7428571,8.91428571 C11.0794878,8.91428571 11.352381,9.18717882 11.352381,9.52380952 C11.352381,9.86044023 11.0794878,10.1333333 10.7428571,10.1333333 L4.64761905,10.1333333 C4.31098834,10.1333333 4.03809524,9.86044023 4.03809524,9.52380952 C4.03809524,9.18717882 4.31098834,8.91428571 4.64761905,8.91428571 L10.7428571,8.91428571 Z M8.89027188,4.17077197 L9.98758083,5.03284576 L9.92097336,5.1218985 C9.53314282,5.63854396 8.26317028,7.33120343 8.19161655,7.42271412 C8.12861002,7.50335115 8.04409893,7.58279461 7.96581871,7.63516013 C7.80223842,7.74494867 7.27730875,8.00001943 7.1044024,8.04513247 C7.06368939,8.05577348 7.02817551,8.06095238 6.99604005,8.06095238 C6.93433836,8.06095238 6.8842993,8.0416529 6.84697484,8.00351923 C6.79980845,7.95518961 6.77879953,7.88207816 6.78112599,7.77371582 C6.78527316,7.58875236 6.88482529,7.00652104 6.92267574,6.88311765 C6.9511799,6.79031224 6.98591491,6.70644851 7.06264754,6.5995124 C7.17334645,6.44578415 8.54624955,4.62648448 8.82026575,4.26329416 L8.89027188,4.17077197 Z M9.7218893,3.42857143 C9.81416873,3.42857143 9.89322782,3.44918586 9.94351976,3.46656349 C10.1110146,3.52409779 10.3321089,3.7175073 10.43684,3.89765601 C10.5498653,4.09248164 10.5488437,4.29273903 10.4342505,4.44723602 C10.341435,4.57321874 10.2680909,4.66680301 10.2406084,4.70103227 L10.1703493,4.78955903 L9.07147255,3.92694915 L9.14923691,3.83129129 C9.21380116,3.75158484 9.30194355,3.64256503 9.35610953,3.58307853 C9.44813609,3.48210017 9.57463467,3.42857143 9.7218893,3.42857143 Z" id="形状结合" fill="#000000" fill-rule="nonzero"></path>
        </g>
    </g>
</svg>