<?xml version="1.0" encoding="UTF-8"?>
<svg width="16px" height="16px" viewBox="0 0 16 16" version="1.1" xmlns="http://www.w3.org/2000/svg" xmlns:xlink="http://www.w3.org/1999/xlink">
    <title>emergency-drills-third-menu</title>
    <g id="emergency-drills-third-menu" stroke="none" stroke-width="1" fill="none" fill-rule="evenodd">
        <g id="business-scene-third-menu" transform="translate(1.6113, 1.4953)" fill="#262626" fill-rule="nonzero">
            <path d="M8.05422093,0.000238472952 L8.66385801,0.0100316107 L10.1,0.0331790346 C10.9836556,0.0331790346 11.7,0.749523435 11.7,1.63317903 L11.7,6.11547387 C11.7,6.44684472 11.4313708,6.71547387 11.1,6.71547387 C10.7686292,6.71547387 10.5,6.44684472 10.5,6.11547387 L10.5,1.63317903 C10.5,1.41226513 10.3209139,1.23317903 10.0903629,1.23310164 L9.254,1.21895421 L9.25422093,2.41206329 C9.25422093,2.81990434 8.94903278,3.15646487 8.55457123,3.20583016 L8.45422093,3.21206329 L3.21141625,3.21206329 C2.76958845,3.21206329 2.41141625,2.85389109 2.41141625,2.41206329 L2.411,1.21895421 L1.6,1.23317903 C1.40670034,1.23317903 1.24542508,1.37029183 1.20812658,1.55256508 L1.2,1.63317903 L1.2,11.883179 C1.2,12.1040929 1.3790861,12.283179 1.6,12.283179 L6.86254194,12.283179 C7.19391279,12.283179 7.46254194,12.5518082 7.46254194,12.883179 C7.46254194,13.2145499 7.19391279,13.483179 6.86254194,13.483179 L1.6,13.483179 C0.7163444,13.483179 0,12.7668346 0,11.883179 L0,1.63317903 C0,0.749523435 0.7163444,0.0331790346 1.59012835,0.033260248 L3.0015446,0.0100354246 L3.61141625,0 L3.611,2.01195421 L8.054,2.01195421 L8.05422093,0.000238472952 Z M6.34300195,6.95469105 L6.34300195,8.15469105 L2.38871624,8.15469105 L2.38871624,6.95469105 L6.34300195,6.95469105 Z M9.30871624,4.75469105 L9.30871624,5.95469105 L2.38871624,5.95469105 L2.38871624,4.75469105 L9.30871624,4.75469105 Z M7.18871624,0.134691053 L7.18871624,1.33469105 L4.38871624,1.33469105 L4.38871624,0.134691053 L7.18871624,0.134691053 Z" id="形状结合"></path>
        </g>
        <path d="M14.2927112,12.2063701 L12.1867299,15.5001316 C12.074992,15.6750084 11.8247238,15.5689156 11.8487999,15.3568656 L12.0611636,13.4874884 C12.0751154,13.3645727 11.9875771,13.2563092 11.8748515,13.2569875 L10.4710286,13.2659416 C10.3166945,13.2668913 10.228045,13.0732923 10.3207689,12.9376237 L12.5996044,9.60451831 C12.7134413,9.43791731 12.9546963,9.54251778 12.9344477,9.74968368 L12.7493702,11.6418532 C12.7376408,11.7621912 12.8227098,11.86747 12.9329661,11.8688267 L14.1422046,11.8833432 C14.2923408,11.8852426 14.3791383,12.0712442 14.2927112,12.2063701 L14.2927112,12.2063701 Z" id="形状结合" fill="#262626"></path>
    </g>
</svg>