<?xml version="1.0" encoding="UTF-8"?>
<svg width="16px" height="16px" viewBox="0 0 16 16" version="1.1" xmlns="http://www.w3.org/2000/svg" xmlns:xlink="http://www.w3.org/1999/xlink">
    <title>fault-self-healing-third-menu</title>
    <g id="fault-self-healing-third-menu" stroke="none" stroke-width="1" fill="none" fill-rule="evenodd">
        <g id="编组" transform="translate(2, 1)">
            <path d="M11.5687115,2.40708615 L6.1348722,0.0419347709 C6.00748565,-0.013978257 5.8625031,-0.013978257 5.73511655,0.0419347709 L0.301277223,2.40708615 C0.118384528,2.4864165 0,2.6667392 0,2.86609577 L0,7.25589685 C0,11.7041173 5.54567076,13.8764847 5.78185207,13.9666175 C5.83943692,13.9883161 5.90036001,14 5.96044854,14 C6.02304076,14 6.08479842,13.9883161 6.14405239,13.9649484 C6.37773001,13.8731464 11.868324,11.6582164 11.868324,7.25589685 L11.868324,2.86609577 C11.8691542,2.66746979 11.7514808,2.48636963 11.5687115,2.40708615 Z" id="路径备份-3" stroke="#262626" stroke-width="1.2"></path>
            <g id="编组备份" transform="translate(5.8875, 7.1875) rotate(-90) translate(-5.8875, -7.1875)translate(3.7, 5)" fill="#262626" fill-rule="nonzero">
                <polygon id="路径" points="2.7125 4.32529941e-14 2.7125 1.6625 4.375 1.6625 4.375 2.7125 2.7125 2.7125 2.7125 4.375 1.6625 4.375 1.6625 2.7125 0 2.7125 0 1.6625 1.6625 1.6625 1.6625 4.32529941e-14"></polygon>
            </g>
        </g>
    </g>
</svg>