<?xml version="1.0" encoding="UTF-8"?>
<svg width="16px" height="16px" viewBox="0 0 16 16" version="1.1" xmlns="http://www.w3.org/2000/svg" xmlns:xlink="http://www.w3.org/1999/xlink">
    <title>file-distribution-third-menu</title>
    <g id="file-distribution-third-menu" stroke="none" stroke-width="1" fill="none" fill-rule="evenodd">
        <g id="图形" transform="translate(1, 1)">
            <rect id="矩形" fill="#FFFFFF" opacity="0" x="0" y="0" width="14" height="14"></rect>
            <path d="M11.375,1.75 C12.3414983,1.75 13.125,2.53350169 13.125,3.5 C13.125,4.46649831 12.3414983,5.25 11.375,5.25 C10.7787051,5.25 10.2520669,4.95176405 9.9361106,4.49631737 L9.95276129,4.51990245 L6.06029406,6.41816937 L6.05359099,6.38931046 C6.10028113,6.5852685 6.125,6.78974755 6.125,7 C6.125,7.21557979 6.09901262,7.42508991 6.04999964,7.62556855 L6.05459468,7.60646148 L10.0321856,9.37772666 L10.0102575,9.4044655 C10.3310054,9.00541107 10.8231755,8.75 11.375,8.75 C12.3414983,8.75 13.125,9.53350169 13.125,10.5 C13.125,11.4664983 12.3414983,12.25 11.375,12.25 C10.4085017,12.25 9.625,11.4664983 9.625,10.5 C9.625,10.3814805 9.63678196,10.2657128 9.65923852,10.1538043 L9.65610318,10.1698174 L5.71211564,8.41381623 L5.72854779,8.38782548 C5.26493568,9.13071333 4.44019126,9.625 3.5,9.625 C2.05025253,9.625 0.875,8.44974747 0.875,7 C0.875,5.55025253 2.05025253,4.375 3.5,4.375 C4.44533829,4.375 5.27396227,4.87471338 5.73612935,5.62439755 L5.72611301,5.60828065 L9.63647334,3.70148548 L9.63934772,3.72513767 C9.629881,3.65142864 9.625,3.57628433 9.625,3.5 C9.625,2.53350169 10.4085017,1.75 11.375,1.75 Z" id="形状结合" fill="#262626"></path>
        </g>
    </g>
</svg>