<?xml version="1.0" encoding="UTF-8"?>
<svg width="16px" height="16px" viewBox="0 0 16 16" version="1.1" xmlns="http://www.w3.org/2000/svg" xmlns:xlink="http://www.w3.org/1999/xlink">
    <title>fixed-assets-third-menu</title>
    <g id="吉林银行迭代二" stroke="none" stroke-width="1" fill="none" fill-rule="evenodd">
        <g id="fixed-assets-third-menu">
            <rect id="矩形" x="0" y="0" width="16" height="16"></rect>
            <g id="资产-(1)" transform="translate(1.000000, 1.000000)" fill="#262626" fill-rule="nonzero">
                <path d="M13.8313581,11.3901213 C13.9390837,11.5344761 14,11.6836882 14,11.8374705 C14,12.9797884 10.8659837,13.9057795 7.00001368,13.9057795 C3.13398894,13.9057795 0,12.9797884 0,11.8374705 C0,11.6836882 0.0609710567,11.5344076 0.168655576,11.3901213 C0.861010933,12.3172891 3.65414485,13.0114096 7.00001368,13.0114096 C10.3457867,13.0114096 13.1389891,12.3173028 13.8313581,11.3901213 Z M8.36752545,6.86235269 C8.48492142,6.95286316 8.56496814,7.09127916 8.59003137,7.2471077 C8.61509461,7.40293624 8.58311806,7.56339259 8.50114616,7.6931283 L8.08292087,8.35607889 L8.6551497,8.35607889 C8.95334282,8.35607889 9.19491699,8.62326301 9.19491699,8.9530684 C9.19491699,9.2828738 8.95334282,9.55005791 8.6551497,9.55005791 L7.54541834,9.55005791 L7.54541834,9.92912538 L8.6551497,9.92912538 C8.95334282,9.92912538 9.19491699,10.1963095 9.19491699,10.5252799 C9.19491699,10.8550853 8.95334282,11.1222695 8.6551497,11.1222695 L7.54541834,11.1222695 L7.54541834,11.6716668 C7.54541834,12.0014722 7.30384416,12.2686563 7.00565104,12.2686563 C6.70745792,12.2686563 6.46588375,12.0014722 6.46588375,11.6716668 L6.46588375,11.1231044 L5.35615239,11.1231044 C5.05795927,11.1231044 4.81638509,10.8559203 4.81638509,10.5261149 C4.81638509,10.1963095 5.05795927,9.92912538 5.35615239,9.92912538 L6.46588375,9.92912538 L6.46588375,9.55005791 L5.35615239,9.55005791 C5.05795927,9.55005791 4.81638509,9.2828738 4.81638509,8.9530684 C4.81638509,8.62326301 5.05795927,8.35607889 5.35615239,8.35607889 L5.8966746,8.35607889 L5.46486076,7.70398265 C5.28896457,7.43763349 5.341054,7.06441067 5.58111834,6.86986724 C5.82193759,6.6753238 6.15938651,6.73293538 6.33528271,6.9984496 L6.99508217,7.99454538 L7.61638075,7.0101389 C7.69821568,6.88029746 7.82336433,6.79176476 7.9642565,6.76404451 C8.10514867,6.73632426 8.25022508,6.77169072 8.36752545,6.86235269 Z M0.168655576,9.22402055 C0.631179057,9.84318601 2.03347231,10.3571436 3.90930379,10.6311028 L3.90930379,11.5249801 C1.59555071,11.1875184 0,10.4852293 0,9.67120548 C0,9.51747797 0.0609710567,9.36812898 0.168655576,9.22402055 Z M13.8313581,9.22402055 C13.9390837,9.36814266 14,9.51749165 14,9.67120548 C14,10.4852293 12.4044219,11.1875184 10.0906825,11.5249664 L10.0906825,10.6310891 C11.9664045,10.3571436 13.3688894,9.84318601 13.8313581,9.22402055 Z M13.8313581,7.02269995 C13.9390837,7.16690416 14,7.31626683 14,7.46996699 C14,8.28407289 12.4044219,8.98618417 10.0906825,9.32372793 L10.0906825,8.42993274 C11.9664045,8.15590506 13.3688894,7.64194751 13.8313581,7.02269995 Z M0.168655576,7.02269995 C0.631179057,7.64194751 2.03347231,8.15590506 3.90930379,8.42994642 L3.90930379,9.32374161 C1.59555071,8.98619785 0,8.28407289 0,7.46996699 C0,7.31626683 0.0609710567,7.16690416 0.168655576,7.02269995 Z M0.168655576,4.80743647 C0.631179057,5.42668402 2.033486,5.94073735 3.90930379,6.21458716 L3.90930379,7.10847813 C1.59555071,6.77101646 0,6.06883678 0,5.25479928 C0,5.10100335 0.0609710567,4.95173646 0.168655576,4.80743647 Z M13.8313581,4.80743647 C13.9390837,4.95164068 14,5.10100335 14,5.25479928 C14,6.068741 12.4044219,6.77101646 10.0906825,7.10847813 L10.0906825,6.21458716 C11.9664045,5.94073735 13.3688894,5.42668402 13.8313581,4.80743647 Z M7.00001368,0 C10.8659837,0 14,1.14188007 14,2.55048115 C14,3.95904118 10.8659837,5.10100335 7.00001368,5.10100335 C3.13398894,5.10100335 0,3.95920537 0,2.5505222 C0,1.14188007 3.13398894,0 7.00001368,0 Z M7.00001368,1 C3.6600681,1 1,1.96921639 1,2.5505222 C1,3.13183842 3.66001558,4.10100335 7.00001368,4.10100335 C10.3398457,4.10100335 13,3.13173398 13,2.55048115 C13,1.96921791 10.3398982,1 7.00001368,1 Z" id="形状结合"></path>
            </g>
        </g>
    </g>
</svg>