<?xml version="1.0" encoding="UTF-8"?>
<svg width="16px" height="16px" viewBox="0 0 16 16" version="1.1" xmlns="http://www.w3.org/2000/svg" xmlns:xlink="http://www.w3.org/1999/xlink">
    <title>flow-builder-third-menu</title>
    <g id="flow-builder-third-menu" stroke="none" stroke-width="1" fill="none" fill-rule="evenodd">
        <g id="编组" transform="translate(2.300000, 1.200000)" fill="#262626">
            <path d="M10.4545455,0 C11.0068302,-3.23497668e-16 11.4545455,0.44771525 11.4545455,1 L11.4545455,13 C11.4545455,13.5522847 11.0068302,14 10.4545455,14 L1,14 C0.44771525,14 0,13.5522847 0,13 L0,1 C-6.76353751e-17,0.44771525 0.44771525,-1.20591542e-16 1,0 L10.4545455,0 Z M10.254,2.79090909 L1.2,2.79090909 L1.2,12.7999091 L10.254,12.7999091 L10.254,2.79090909 Z M1.45454545,0.8 C1.17840308,0.8 0.954545455,1.02385763 0.954545455,1.3 C0.954545455,1.57614237 1.17840308,1.8 1.45454545,1.8 C1.73068783,1.8 1.95454545,1.57614237 1.95454545,1.3 C1.95454545,1.02385763 1.73068783,0.8 1.45454545,0.8 Z M4.07954545,0.8 C3.80340308,0.8 3.57954545,1.02385763 3.57954545,1.3 C3.57954545,1.57614237 3.80340308,1.8 4.07954545,1.8 C4.35568783,1.8 4.57954545,1.57614237 4.57954545,1.3 C4.57954545,1.02385763 4.35568783,0.8 4.07954545,0.8 Z M2.76704545,0.8 C2.49090308,0.8 2.26704545,1.02385763 2.26704545,1.3 C2.26704545,1.57614237 2.49090308,1.8 2.76704545,1.8 C3.04318783,1.8 3.26704545,1.57614237 3.26704545,1.3 C3.26704545,1.02385763 3.04318783,0.8 2.76704545,0.8 Z" id="形状结合" fill-rule="nonzero"></path>
            <path d="M7.684573,3.3 L9.22727273,4.64986226 L8.06963636,4.649 L8.07024793,7.98595041 C8.07024793,8.73145875 7.46589401,9.33581267 6.72038567,9.33581267 C5.99972761,9.33581267 5.41097052,8.77107751 5.37252077,8.06001358 L5.37052342,7.98595041 L5.37052342,7.02176309 C5.37052342,6.70225951 5.11151459,6.44325069 4.79201102,6.44325069 C4.49130177,6.44325069 4.24417957,6.67268411 4.21614689,6.96604848 L4.21349862,7.02176309 L4.21358387,9.85960491 C4.55407094,10.0084094 4.79201102,10.3481808 4.79201102,10.7435262 C4.79201102,11.2760321 4.36032965,11.7077135 3.82782369,11.7077135 C3.29531773,11.7077135 2.86363636,11.2760321 2.86363636,10.7435262 C2.86363636,10.348565 3.1011142,10.0090698 3.44107113,9.86003928 L3.44214876,7.02176309 C3.44214876,6.27625475 4.04650268,5.67190083 4.79201102,5.67190083 C5.51266908,5.67190083 6.10142618,6.23663599 6.13987592,6.94769992 L6.14187328,7.02176309 L6.14187328,7.98595041 C6.14187328,8.30545399 6.4008821,8.56446281 6.72038567,8.56446281 C7.02109492,8.56446281 7.26821712,8.33502939 7.2962498,8.04166502 L7.29889807,7.98595041 L7.29863636,4.649 L6.14187328,4.64986226 L7.684573,3.3 Z" id="形状结合"></path>
        </g>
    </g>
</svg>