<?xml version="1.0" encoding="UTF-8"?>
<svg width="16px" height="16px" viewBox="0 0 16 16" version="1.1" xmlns="http://www.w3.org/2000/svg" xmlns:xlink="http://www.w3.org/1999/xlink">
    <title>green-and-low-carbon-third-menu</title>
    <g id="green-and-low-carbon-third-menu" stroke="none" stroke-width="1" fill="none" fill-rule="evenodd">
        <g id="节能备份" transform="translate(1.000000, 1.000000)" fill-rule="nonzero">
            <path d="M7,0.6 C8.7673112,0.6 10.3673112,1.3163444 11.5254834,2.4745166 C12.6836556,3.6326888 13.4,5.2326888 13.4,7 C13.4,8.7673112 12.6836556,10.3673112 11.5254834,11.5254834 C10.3673112,12.6836556 8.7673112,13.4 7,13.4 C5.2326888,13.4 3.6326888,12.6836556 2.4745166,11.5254834 C1.3163444,10.3673112 0.6,8.7673112 0.6,7 C0.6,5.2326888 1.3163444,3.6326888 2.4745166,2.4745166 C3.6326888,1.3163444 5.2326888,0.6 7,0.6 Z" id="路径" stroke="#262626" stroke-width="1.2"></path>
            <path d="M3.55151272,8.57904002 C3.93808032,6.12830906 4.94450442,5.19470903 6.14334801,4.8445905 C7.65190995,4.37779048 8.92839302,4.72790902 10.2047773,4.06659046 C11.2104359,3.59979044 10.9783323,4.02769663 10.9397101,4.49412624 C10.7463029,6.12791396 9.97262437,7.72290662 8.2705811,8.46198812 C6.41412313,9.24035856 4.59596633,7.72327703 3.28073758,10.0961709 L3.24209071,10.1350648 L3.04865874,10.1350648 C3.04865874,10.1350648 3.00998716,10.0961709 3.00998716,10.0572771 L3.00998716,10.0184327 C3.51284114,8.92918325 4.20917647,7.99555851 5.13749188,7.25637823 C6.02725918,6.55626463 6.99436964,6.01133124 8.07737138,5.66148435 C8.15481331,5.62259051 8.11611704,5.46696581 8.03874918,5.50590904 C7.18770285,5.70037818 6.41412313,6.01133125 5.67911622,6.4783782 C4.82809457,7.02301526 4.09311235,7.72330172 3.55151272,8.57904002 Z" id="路径" fill="#262626"></path>
        </g>
    </g>
</svg>