<?xml version="1.0" encoding="UTF-8"?>
<svg width="16px" height="16px" viewBox="0 0 16 16" version="1.1" xmlns="http://www.w3.org/2000/svg" xmlns:xlink="http://www.w3.org/1999/xlink">
    <title>hyper-deploy-third-menu</title>
    <g id="hyper-deploy-third-menu" stroke="none" stroke-width="1" fill="none" fill-rule="evenodd">
        <g id="编组-10" transform="translate(2.000000, 1.000000)" fill="#262626">
            <path d="M4.54747351e-13,8.97814307 L4.73546395,11.7020536 L6.26435962,10.860035 L6.266,10.872 C6.27741884,10.9412651 6.28956714,11.005123 6.3034279,11.0683867 L6.3168732,11.1273127 C6.32898433,11.1783485 6.3421931,11.2289126 6.35649109,11.2790528 L6.38046871,11.3594752 C6.39164617,11.39539 6.40338256,11.4310675 6.41567116,11.4665076 C6.4257349,11.4955248 6.43608257,11.5241536 6.44678937,11.552621 C6.4639017,11.5981469 6.48220308,11.6438976 6.50142723,11.6892029 C6.50871875,11.7063828 6.51602436,11.7232309 6.52345739,11.7400158 C6.57940802,11.8653756 6.63702864,11.9778897 6.70031684,12.0870372 L6.71041722,12.1043459 L6.72656154,12.1315646 L4.73546395,13.2631579 L4.54747351e-13,10.4781319 L4.54747351e-13,8.97814307 Z M7.11025539,7.97228946 C7.02836034,8.06630047 6.95129236,8.16422536 6.87941092,8.26572358 C6.86222293,8.29009477 6.85005054,8.30768976 6.83803374,8.32538856 C6.81086518,8.36540729 6.78457913,8.40581676 6.759104,8.44673341 L6.739,8.478 C6.53847935,8.80929495 6.39049639,9.17073138 6.30543031,9.5541106 C6.30216609,9.56883521 6.29913423,9.58292306 6.2961875,9.59703991 L6.28495894,9.65312266 C6.27527502,9.70359738 6.26660829,9.75489708 6.25907137,9.80653868 C6.25559388,9.83039477 6.25243426,9.85371046 6.24950579,9.87709329 C6.24299197,9.92905084 6.23758408,9.98178194 6.23336182,10.0348265 L6.23026473,10.0769242 L4.73546395,10.9277299 L0,8.25333975 L0.00633567425,6.03574712 L1.96677431,4.92119658 L2.006,4.944 L2.01112403,3.5747062 L3.97156266,2.46104092 L4.01,2.483 L4.01500728,1.11455055 L5.97544591,0 L10.7109099,2.67350489 L10.6993887,6.67345783 C10.6370442,6.66449554 10.5742137,6.6569356 10.510934,6.65081301 C10.5064189,6.65037636 10.5020971,6.64996532 10.4977732,6.64956098 L10.3399202,6.63785001 L10.3112328,6.63637282 L10.1111111,6.63157895 C10.0187814,6.63157895 9.92720312,6.63462721 9.83648241,6.6406233 L9.77303264,6.64530784 L9.75436924,6.64687315 C9.69634218,6.65187268 9.63868336,6.65807982 9.581421,6.66546782 L9.77303264,6.64530784 C9.67770649,6.65307741 9.58325871,6.66412645 9.48987762,6.67833106 C9.43101283,6.687275 9.37188133,6.69760887 9.31323459,6.70919423 L9.29006211,6.71384204 L9.21817613,6.72915925 L9.16999981,6.7401922 C9.15500619,6.74372256 9.14004696,6.74733534 9.12512267,6.75103001 L9.21817613,6.72915925 C9.15531602,6.7431565 9.09336,6.75851213 9.03202653,6.77525943 L9.01154613,6.78090985 L8.99115469,6.78665153 C8.91791342,6.8074802 8.84545587,6.83034269 8.77398069,6.85513586 L8.74155987,6.86653822 C8.218525,7.05301852 7.74911388,7.34321057 7.36125141,7.71065923 L7.245,7.825 L7.22393465,7.84754747 C7.20992289,7.86225074 7.195926,7.87717539 7.18205596,7.89220777 L7.13829419,7.94046692 Z M1.96711345,5.35003868 L0.76389123,6.034565 L2.002,6.734 L4.74066901,8.28045974 L5.94389123,7.59667026 L4.651,6.866 L1.96711345,5.35003868 Z M3.9719018,2.88988303 L2.76945736,3.57293566 L4.006,4.271 L6.74545736,5.81956724 L7.94867958,5.13504092 L3.9719018,2.88988303 Z M5.97578506,0.428842105 L4.77178506,1.11336842 L8.74934062,3.35852632 L9.95334062,2.674 L5.97578506,0.428842105 Z" id="形状结合"></path>
            <path d="M10.8407357,9.31110587 L10.8405556,10.2482632 L11.8888889,10.2488659 L10.222291,12.5263158 L8.55555556,10.2488659 L9.60355556,10.2482632 L9.60357128,9.31110587 L10.8407357,9.31110587 Z M9.60357128,9.04317059 L10.8407357,9.04317059 L10.8407357,8.64126768 L9.60357128,8.64126768 L9.60357128,9.04317059 Z M9.60370874,8.3733324 L10.8408732,8.3733324 L10.8408732,8.10526316 L9.60370874,8.10526316 L9.60370874,8.3733324 Z" id="形状结合" transform="translate(10.222222, 10.315789) rotate(-180.000000) translate(-10.222222, -10.315789) "></path>
        </g>
    </g>
</svg>