<?xml version="1.0" encoding="UTF-8"?>
<svg width="16px" height="16px" viewBox="0 0 16 16" version="1.1" xmlns="http://www.w3.org/2000/svg" xmlns:xlink="http://www.w3.org/1999/xlink">
    <title>idc-third-menu</title>
    <g id="idc-third-menu" stroke="none" stroke-width="1" fill="none" fill-rule="evenodd">
        <g id="编组-53">
            <rect id="矩形" fill-opacity="0" fill="#D8D8D8" x="0" y="0" width="16" height="16"></rect>
            <path d="M12.5,9 C14.4329966,9 16,10.5670034 16,12.5 C16,14.4329966 14.4329966,16 12.5,16 C10.5670034,16 9,14.4329966 9,12.5 C9,10.5670034 10.5670034,9 12.5,9 Z M10.3625318,1.70105992 C10.3874378,1.81453809 10.4,1.93040732 10.4,2.04661605 L10.4,2.54923869 L13.901,4.523 L13.9717817,4.55225854 C14.4904938,4.7919858 14.8424915,5.29167279 14.8935756,5.86081417 L14.9,6.00443623 L14.9,8 C14.9,8.33137085 14.6313708,8.6 14.3,8.6 C13.9686292,8.6 13.7,8.33137085 13.7,8 L13.7,6.00443623 C13.7,5.83544627 13.5938004,5.68468803 13.434677,5.62779037 L13.3420514,5.58549414 L10.4,3.926 L10.4,8.5 C10.4,8.79823376 10.1824104,9.04564675 9.89732312,9.09214701 L9.8,9.1 C9.46862915,9.1 9.2,8.83137085 9.2,8.5 L9.2,2.04661605 C9.2,2.01690009 9.19678899,1.9872829 9.19043034,1.95831126 C9.14308018,1.74257211 8.93629151,1.60933441 8.72980069,1.65579484 L2.70510933,3.0113504 C2.52815849,3.05116434 2.4,3.21292583 2.4,3.40217161 L2.4,13.7994018 L8,13.8 C8.29823376,13.8 8.54564675,14.0175896 8.59214701,14.3026769 L8.6,14.4 C8.6,14.7313708 8.33137085,15 8,15 L1.2,15 L1.2,3.40217161 C1.2,2.65402009 1.71486766,2.00415478 2.4416947,1.84061869 L8.46638606,0.485063137 C9.32484976,0.291908804 10.1732254,0.838532627 10.3625318,1.70105992 Z M12.5,10 C11.1192881,10 10,11.1192881 10,12.5 C10,13.8807119 11.1192881,15 12.5,15 C13.8807119,15 15,13.8807119 15,12.5 C15,11.1192881 13.8807119,10 12.5,10 Z M12.7025,10.43 C13.038013,10.43 13.31,10.701987 13.31,11.0375 C13.31,11.373013 13.038013,11.645 12.7025,11.645 C12.6311553,11.645 12.562683,11.6327015 12.4990877,11.6101088 L11.8172068,12.6543652 C11.9633924,12.7818817 12.0633646,12.9610365 12.088689,13.1633953 L13.3369356,13.4905628 C13.4134735,13.2426421 13.6444495,13.0625 13.9175,13.0625 C14.253013,13.0625 14.525,13.334487 14.525,13.67 C14.525,14.005513 14.253013,14.2775 13.9175,14.2775 C13.7195001,14.2775 13.5436241,14.1827761 13.4327163,14.0361725 L11.9898881,13.664326 C11.8506607,13.9095612 11.5871505,14.075 11.285,14.075 C10.8376494,14.075 10.475,13.7123506 10.475,13.265 C10.475,12.8176494 10.8376494,12.455 11.285,12.455 C11.3418845,12.455 11.3973994,12.4608638 11.4509732,12.4720199 L12.1835596,11.3535122 C12.1273733,11.2614428 12.095,11.153252 12.095,11.0375 C12.095,10.701987 12.366987,10.43 12.7025,10.43 Z M8,6.83 L8,7.91 L3.5,7.91 L3.5,6.83 L8,6.83 Z M8,4.4 L8,5.48 L3.5,5.48 L3.5,4.4 L8,4.4 Z" id="形状结合" fill="#000000" fill-rule="nonzero"></path>
        </g>
    </g>
</svg>