<?xml version="1.0" encoding="UTF-8"?>
<svg width="16px" height="16px" viewBox="0 0 16 16" version="1.1" xmlns="http://www.w3.org/2000/svg" xmlns:xlink="http://www.w3.org/1999/xlink">
    <title>inspection-automation-third-menu</title>
    <defs>
        <path d="M5.37403874,0.676482572 C5.37403874,0.958069415 5.55058055,1.19894803 5.80119027,1.30084824 L5.80119027,1.30084824 L5.80119027,2.37300441 L5.01830037,2.39556247 C3.49313846,2.48709116 2.52468055,2.78060525 1.91594317,3.20298552 L1.91594317,3.20298552 C1.44950114,3.62018002 1.11951397,4.17816794 0.99155435,4.8051265 L0.99155435,4.8051265 L0.629710018,4.8051265 C0.282997841,4.8051265 0,5.08204615 0,5.4201578 L0,5.4201578 L0,6.29862577 C0,6.63673742 0.282997841,6.91365707 0.629710018,6.91365707 L0.629710018,6.91365707 L0.93553883,6.91365707 C0.961555517,7.73585954 1.332957,8.47742342 1.91594317,8.99885172 L1.91594317,8.99885172 C2.51671626,9.41578694 3.47004201,9.70593029 4.96016104,9.8013483 L4.96016104,9.8013483 C4.95511698,9.83324073 4.95219674,9.86798533 4.95219674,9.90713783 L4.95219674,9.90713783 L4.95219674,10.1952069 C4.95219674,10.5123162 5.21581481,10.7697892 5.54022697,10.7697892 L5.54022697,10.7697892 L5.57128771,10.7697892 L5.57128771,11.2634737 L3.32748118,11.2634737 C2.74343311,11.2634737 2.26584106,11.7301922 2.26584106,12.300626 L2.26584106,12.300626 L2.26584106,13.0214468 C3.33597643,13.6424418 4.58504288,14 5.91985822,14 L5.91985822,14 C7.37493436,14 8.72806757,13.5752861 9.85846607,12.8477238 L9.85846607,12.8477238 L9.85846607,12.300626 C9.85846607,11.7301922 9.38034308,11.2634737 8.79656048,11.2634737 L8.79656048,11.2634737 L6.55248848,11.2634737 L6.55248848,10.7697892 L6.58354922,10.7697892 C6.90849233,10.7697892 7.17184492,10.5123162 7.17184492,10.1952069 L7.17184492,10.1952069 L7.17184492,9.90713783 C7.17184492,9.86824462 7.17184492,9.83401859 7.17131396,9.80420047 L7.17131396,9.80420047 L7.22440924,9.80264474 C8.59347103,9.71500537 9.49874555,9.46142164 10.0936782,9.09634404 L10.0936782,9.09634404 C10.7417061,8.57206356 11.1603623,7.78875431 11.1879719,6.91365707 L11.1879719,6.91365707 L11.5036233,6.91365707 C11.85007,6.91365707 12.1333333,6.63673742 12.1333333,6.29862577 L12.1333333,6.29862577 L12.1333333,5.4201578 C12.1333333,5.08204615 11.85007,4.8051265 11.5036233,4.8051265 L11.5036233,4.8051265 L11.1314254,4.8051265 C10.9931122,4.12786606 10.6195869,3.53098492 10.0936782,3.1054932 L10.0936782,3.1054932 C9.49874555,2.7404156 8.59347103,2.48683187 7.22440924,2.3991925 L7.22440924,2.3991925 L6.33214307,2.37300441 L6.33214307,1.30084824 C6.58275279,1.19894803 6.75929459,0.958069415 6.75929459,0.676482572 L6.75929459,0.676482572 C6.75929459,0.302848465 6.44921816,0 6.06666667,0 L6.06666667,0 C5.6838497,0 5.37403874,0.302848465 5.37403874,0.676482572" id="path-1"></path>
    </defs>
    <g id="inspection-automation-third-menu" stroke="none" stroke-width="1" fill="none" fill-rule="evenodd">
        <rect id="矩形" fill="#000000" opacity="0" x="0" y="0" width="16" height="16"></rect>
        <g id="巡检管理" transform="translate(2, 1)">
            <g id="Fill-1-Clipped">
                <mask id="mask-2" fill="white">
                    <use xlink:href="#path-1"></use>
                </mask>
                <g id="path-1"></g>
                <path d="M6.10595717,3.63003297 C10.2565529,3.63003297 10.619056,4.38841628 10.619056,5.96362559 C10.619056,6.02421056 10.6196798,6.08512146 10.6205986,6.14624359 L10.6239117,6.33012899 C10.6498266,7.67896166 10.6594966,9.07433757 7.17269963,9.30209804 L7.17184492,10.1952069 C7.17184492,10.5123162 6.90849233,10.7697892 6.58354922,10.7697892 L6.55248848,10.7697892 L6.55248848,11.2634737 L8.79656048,11.2634737 C9.38034308,11.2634737 9.85846607,11.7301922 9.85846607,12.300626 L9.85846607,12.8477238 C8.72806757,13.5752861 7.37493436,14 5.91985822,14 C4.58504288,14 3.33597643,13.6424418 2.26584106,13.0214468 L2.26584106,12.300626 C2.26584106,11.7301922 2.74343311,11.2634737 3.32748118,11.2634737 L5.57128771,11.2634737 L5.57128771,10.7697892 L5.54022697,10.7697892 C5.21581481,10.7697892 4.95219674,10.5123162 4.95219674,10.1952069 L4.95108628,9.29643334 C1.59907478,9.05826747 1.3439943,7.73725432 1.3278219,6.43137597 L1.32738199,5.96362559 C1.32738199,4.38841628 1.95536141,3.63003297 6.10595717,3.63003297 Z" id="形状结合" fill="#262626" mask="url(#mask-2)"></path>
                <path d="M5.80119027,1.30084824 L5.80119027,2.37300441 L5.01830037,2.39556247 C3.49313846,2.48709116 2.52468055,2.78060525 1.91594317,3.20298552 C1.44950114,3.62018002 1.11951397,4.17816794 0.99155435,4.8051265 L0.629710018,4.8051265 C0.282997841,4.8051265 0,5.08204615 0,5.4201578 L0,6.29862577 C0,6.63673742 0.282997841,6.91365707 0.629710018,6.91365707 L0.93553883,6.91365707 C0.961555517,7.73585954 1.332957,8.47742342 1.91594317,8.99885172 C2.51671626,9.41578694 3.47004201,9.70593029 4.96016104,9.8013483 C4.95511698,9.83324073 4.95219674,9.86798533 4.95219674,9.90713783 L4.95219674,10.1952069 C4.95219674,10.5123162 5.21581481,10.7697892 5.54022697,10.7697892 L5.57128771,10.7697892 L6.55248848,10.7697892 L6.58354922,10.7697892 C6.90849233,10.7697892 7.17184492,10.5123162 7.17184492,10.1952069 L7.17184492,9.90713783 C7.17184492,9.86824462 7.17184492,9.83401859 7.17131396,9.80420047 L7.22440924,9.80264474 C8.59347103,9.71500537 9.49874555,9.46142164 10.0936782,9.09634404 C10.7417061,8.57206356 11.1603623,7.78875431 11.1879719,6.91365707 L11.5036233,6.91365707 C11.85007,6.91365707 12.1333333,6.63673742 12.1333333,6.29862577 L12.1333333,5.4201578 C12.1333333,5.08204615 11.85007,4.8051265 11.5036233,4.8051265 L11.1314254,4.8051265 C10.9931122,4.12786606 10.6195869,3.53098492 10.0936782,3.1054932 C9.49874555,2.7404156 8.59347103,2.48683187 7.22440924,2.3991925 L6.33214307,2.37300441 L6.33214307,1.30084824 C6.58275279,1.19894803 6.75929459,0.958069415 6.75929459,0.676482572 C6.75929459,0.302848465 6.44921816,0 6.06666667,0 C5.6838497,0 5.37403874,0.302848465 5.37403874,0.676482572 C5.37403874,0.958069415 5.55058055,1.19894803 5.80119027,1.30084824 Z" id="Fill-1" fill="#262626" mask="url(#mask-2)"></path>
            </g>
            <path d="M7.41576463,4.10230026 C8.45457378,4.10230026 9.30462921,4.93254065 9.30462921,5.94713487 L9.30462921,6.21083083 C9.30462921,6.93424455 8.87137173,7.56198096 8.24697124,7.86379227 C8.24139623,7.86923732 8.23449384,7.87442308 8.22520217,7.87986813 L6.43668767,8.82108382 C6.31244472,8.89186947 6.15661007,8.80448939 6.15661007,8.66395525 L6.15661007,8.05540616 L4.71746251,8.05540616 C3.67865336,8.05540616 2.82859793,7.22542505 2.82859793,6.21083083 L2.82859793,5.94713487 C2.82859793,4.93254065 3.67865336,4.10230026 4.71746251,4.10230026 Z M7.41576463,5.37618254 C7.06799055,5.37618254 6.78632009,5.65154647 6.78632009,5.99095455 C6.78632009,6.33062192 7.06799055,6.60598585 7.41576463,6.60598585 C7.76353871,6.60598585 8.04520917,6.33062192 8.04520917,5.99095455 C8.04520917,5.65154647 7.76353871,5.37618254 7.41576463,5.37618254 Z M4.80745901,5.37618254 C4.45968493,5.37618254 4.17774899,5.65154647 4.17774899,5.99095455 C4.17774899,6.33062192 4.45968493,6.60598585 4.80745901,6.60598585 C5.15496762,6.60598585 5.43716903,6.33062192 5.43716903,5.99095455 C5.43716903,5.65154647 5.15496762,5.37618254 4.80745901,5.37618254 Z" id="形状结合" fill="#FFFFFF"></path>
        </g>
    </g>
</svg>