<?xml version="1.0" encoding="UTF-8"?>
<svg width="16px" height="16px" viewBox="0 0 16 16" version="1.1" xmlns="http://www.w3.org/2000/svg" xmlns:xlink="http://www.w3.org/1999/xlink">
    <title>intangible-assets-third-menu</title>
    <g id="吉林银行迭代二" stroke="none" stroke-width="1" fill="none" fill-rule="evenodd">
        <g id="intangible-assets-third-menu">
            <rect id="矩形" x="0" y="0" width="16" height="16"></rect>
            <g id="编组-4" transform="translate(1.100000, 1.100000)" fill-rule="nonzero">
                <path d="M6.69737731,0.042896023 L0.297377311,2.87985496 C0.116573006,2.96000095 0,3.1391874 0,3.33695893 L0,4.04619867 L0.00698646126,4.12959701 C0.0346269462,4.29317838 0.142440645,4.43465206 0.297448669,4.50333427 L1.789,5.164 L0.293158686,5.84296462 C0.114629034,5.924086 0,6.10207952 0,6.2981752 L0,10.2251928 C0,10.4212885 0.114629034,10.599282 0.293158686,10.6804034 L6.69315869,13.5884738 C6.82458709,13.648193 6.97541291,13.648193 7.10684131,13.5884738 L13.5068413,10.6804034 C13.685371,10.599282 13.8,10.4212885 13.8,10.2251928 L13.8,6.2981752 L13.7931298,6.21547214 C13.7659448,6.05320121 13.6598667,5.91249723 13.5068413,5.84296462 L12.012,5.163 L13.5024569,4.50337612 C13.6833504,4.42326908 13.8,4.24403598 13.8,4.04619867 L13.8,3.33695893 C13.8,3.1391874 13.683427,2.96000095 13.5026227,2.87985496 L7.10262269,0.042896023 C6.97359507,-0.0142986743 6.82640493,-0.0142986743 6.69737731,0.042896023 Z M6.9,1.047 L12.8,3.662 L12.8,3.72 L10.5485431,4.71782255 C10.1471539,4.89557408 10.1532797,5.46730015 10.5583854,5.63641046 L11.5073854,6.03256806 L12.8,6.62 L12.8,9.902 L6.9,12.584 L1,9.903 L1,6.619 L2.30684131,6.02636818 L3.27737197,5.66897991 L3.36142401,5.62930554 C3.69887009,5.43131789 3.68764051,4.91172047 3.30655133,4.7428644 L1,3.721 L1,3.662 L6.9,1.047 Z" id="路径" fill="#262626"></path>
                <path d="M9.54787321,7.90570999 L7.7671429,7.90570999 L7.7671429,7.35574294 L9.54787321,7.35574294 C10.0263688,7.35574294 10.4140107,6.96810097 10.4140107,6.48960541 C10.4140107,6.01110985 10.0263688,5.62346788 9.54787321,5.62346788 L8.62964628,5.62346788 L9.30075145,4.66163124 C9.43228765,4.47340521 9.4835988,4.24060837 9.44338109,4.01452576 C9.40316338,3.78844316 9.27471641,3.58762339 9.08633698,3.45630698 C8.89811095,3.32477078 8.66531412,3.27345963 8.43923151,3.31367734 C8.2131489,3.35389504 8.01232914,3.48234202 7.88101273,3.67072145 L6.88404603,5.09893984 L5.8252989,3.65376211 C5.54304709,3.2685429 5.00155971,3.1849576 4.61512912,3.46720941 C4.22990991,3.74946122 4.14632461,4.2909486 4.42857642,4.67737919 L5.12148644,5.62346788 L4.25413753,5.62346788 C3.77564197,5.62346788 3.388,6.01110985 3.388,6.48960541 C3.388,6.96810097 3.77564197,7.35574294 4.25413753,7.35574294 L6.03486784,7.35574294 L6.03486784,7.90570999 L4.25413753,7.90570999 C3.77564197,7.90570999 3.388,8.29335196 3.388,8.77184752 C3.388,9.25034308 3.77564197,9.63798505 4.25413753,9.63798505 L6.03486784,9.63798505 L6.03486784,10.4338625 C6.03486784,10.912358 6.42250981,11.3 6.90100537,11.3 C7.37950093,11.3 7.7671429,10.912358 7.7671429,10.4338625 L7.7671429,9.63677367 L9.54787321,9.63677367 C10.0263688,9.63677367 10.4140107,9.24913169 10.4140107,8.77063614 C10.4140107,8.29335196 10.0263688,7.90570999 9.54787321,7.90570999 L9.54787321,7.90570999 Z" id="路径" fill="#57689C"></path>
                <path d="M9.54787321,7.90570999 L7.7671429,7.90570999 L7.7671429,7.35574294 L9.54787321,7.35574294 C10.0263688,7.35574294 10.4140107,6.96810097 10.4140107,6.48960541 C10.4140107,6.01110985 10.0263688,5.62346788 9.54787321,5.62346788 L8.62964628,5.62346788 L9.30075145,4.66163124 C9.43228765,4.47340521 9.4835988,4.24060837 9.44338109,4.01452576 C9.40316338,3.78844316 9.27471641,3.58762339 9.08633698,3.45630698 C8.89811095,3.32477078 8.66531412,3.27345963 8.43923151,3.31367734 C8.2131489,3.35389504 8.01232914,3.48234202 7.88101273,3.67072145 L6.88404603,5.09893984 L5.8252989,3.65376211 C5.54304709,3.2685429 5.00155971,3.1849576 4.61512912,3.46720941 C4.22990991,3.74946122 4.14632461,4.2909486 4.42857642,4.67737919 L5.12148644,5.62346788 L4.25413753,5.62346788 C3.77564197,5.62346788 3.388,6.01110985 3.388,6.48960541 C3.388,6.96810097 3.77564197,7.35574294 4.25413753,7.35574294 L6.03486784,7.35574294 L6.03486784,7.90570999 L4.25413753,7.90570999 C3.77564197,7.90570999 3.388,8.29335196 3.388,8.77184752 C3.388,9.25034308 3.77564197,9.63798505 4.25413753,9.63798505 L6.03486784,9.63798505 L6.03486784,10.4338625 C6.03486784,10.912358 6.42250981,11.3 6.90100537,11.3 C7.37950093,11.3 7.7671429,10.912358 7.7671429,10.4338625 L7.7671429,9.63677367 L9.54787321,9.63677367 C10.0263688,9.63677367 10.4140107,9.24913169 10.4140107,8.77063614 C10.4140107,8.29335196 10.0263688,7.90570999 9.54787321,7.90570999 L9.54787321,7.90570999 Z" id="路径" fill="#57689C"></path>
                <path d="M7.7671429,7.90570999 L7.7671429,7.35574294 L9.54787321,7.35574294 C10.0263688,7.35574294 10.4140107,6.96810097 10.4140107,6.48960541 C10.4140107,6.01110985 10.0263688,5.62346788 9.54787321,5.62346788 L8.62964628,5.62346788 L9.30075145,4.66163124 C9.43228765,4.47340521 9.4835988,4.24060837 9.44338109,4.01452576 C9.40316338,3.78844316 9.27471641,3.58762339 9.08633698,3.45630698 C8.89811095,3.32477078 8.66531412,3.27345963 8.43923151,3.31367734 C8.2131489,3.35389504 8.01232914,3.48234202 7.88101273,3.67072145 L6.88404603,5.09893984 L5.8252989,3.65376211 C5.54304709,3.2685429 5.00155971,3.1849576 4.61512912,3.46720941 C4.22990991,3.74946122 4.14632461,4.2909486 4.42857642,4.67737919 L5.12148644,5.62346788 L4.25413753,5.62346788 C3.77564197,5.62346788 3.388,6.01110985 3.388,6.48960541 C3.388,6.96810097 3.77564197,7.35574294 4.25413753,7.35574294 L6.03486784,7.35574294 L6.03486784,7.90570999 L4.25413753,7.90570999 C3.77564197,7.90570999 3.388,8.29335196 3.388,8.77184752 C3.388,9.25034308 3.77564197,9.63798505 4.25413753,9.63798505 L6.03486784,9.63798505 L6.03486784,10.4338625 C6.03486784,10.912358 6.42250981,11.3 6.90100537,11.3 C7.37950093,11.3 7.7671429,10.912358 7.7671429,10.4338625 L7.7671429,9.63677367 L9.54787321,9.63677367 C10.0263688,9.63677367 10.4140107,9.24913169 10.4140107,8.77063614 C10.4140107,8.29335196 10.0263688,7.90570999 9.54787321,7.90570999 L7.7671429,7.90570999 Z" id="路径" fill="#262626"></path>
            </g>
        </g>
    </g>
</svg>