<?xml version="1.0" encoding="UTF-8"?>
<svg width="16px" height="16px" viewBox="0 0 16 16" version="1.1" xmlns="http://www.w3.org/2000/svg" xmlns:xlink="http://www.w3.org/1999/xlink">
    <title>interface-comparison-third-menu</title>
    <g id="interface-comparison-third-menu" stroke="none" stroke-width="1" fill="none" fill-rule="evenodd">
        <g id="metric-integration-second-menu" transform="translate(0.400000, 1.000000)">
            <rect id="矩形" fill-opacity="0" fill="#D8D8D8" x="0.6" y="0" width="14" height="14"></rect>
            <path d="M13.6,1.15 C14.4836556,1.15 15.2,1.8663444 15.2,2.75 L15.2,11.25 C15.2,12.1336556 14.4836556,12.85 13.6,12.85 L1.6,12.85 C0.7163444,12.85 0,12.1336556 0,11.25 L0,2.75 C0,1.8663444 0.7163444,1.15 1.6,1.15 L13.6,1.15 Z M13.6,2.35 L1.6,2.35 C1.3790861,2.35 1.2,2.5290861 1.2,2.75 L1.2,11.25 C1.2,11.4709139 1.3790861,11.65 1.6,11.65 L13.6,11.65 C13.8209139,11.65 14,11.4709139 14,11.25 L14,2.75 C14,2.5290861 13.8209139,2.35 13.6,2.35 Z M12.962875,4.557875 L12.962875,5.29025 L9.844375,5.29025 C9.770875,5.29025 9.707875,5.3165 9.655375,5.369 C9.602875,5.4215 9.576625,5.4845 9.576625,5.558 L9.576625,6.4715 C9.576625,6.545 9.602875,6.608 9.655375,6.6605 C9.707875,6.713 9.770875,6.73925 9.844375,6.73925 L11.876125,6.73925 C12.038875,6.73925 12.1898125,6.7694375 12.3289375,6.8298125 C12.4680625,6.8901875 12.590125,6.972875 12.695125,7.077875 C12.800125,7.182875 12.8828125,7.3049375 12.9431875,7.4440625 C13.0035625,7.5831875 13.03375,7.734125 13.03375,7.896875 L13.03375,8.700125 C13.03375,8.857625 13.0035625,9.0059375 12.9431875,9.1450625 C12.8828125,9.2841875 12.800125,9.40625 12.695125,9.51125 C12.590125,9.61625 12.4680625,9.6989375 12.3289375,9.7593125 C12.1898125,9.8196875 12.038875,9.849875 11.876125,9.849875 L8.348125,9.849875 L8.348125,9.13325 L11.6635,9.13325 C11.74225,9.13325 11.8065625,9.107 11.8564375,9.0545 C11.9063125,9.002 11.93125,8.939 11.93125,8.8655 L11.93125,7.7315 C11.93125,7.658 11.9063125,7.5963125 11.8564375,7.5464375 C11.8065625,7.4965625 11.74225,7.471625 11.6635,7.471625 L9.639625,7.471625 C9.476875,7.471625 9.324625,7.440125 9.182875,7.377125 C9.041125,7.314125 8.9190625,7.2314375 8.8166875,7.1290625 C8.7143125,7.0266875 8.631625,6.9059375 8.568625,6.7668125 C8.505625,6.6276875 8.474125,6.47675 8.474125,6.314 L8.474125,5.7155 C8.474125,5.55275 8.505625,5.4018125 8.568625,5.2626875 C8.631625,5.1235625 8.7143125,5.0028125 8.8166875,4.9004375 C8.9190625,4.7980625 9.041125,4.715375 9.182875,4.652375 C9.324625,4.589375 9.476875,4.557875 9.639625,4.557875 L12.962875,4.557875 Z M3.308125,4.557875 L5.103625,8.78675 L6.89125,4.557875 L8.033125,4.557875 L5.78875,9.842 L4.4185,9.842 L2.16625,4.557875 L3.308125,4.557875 Z" id="形状结合" fill="#262626" fill-rule="nonzero"></path>
        </g>
    </g>
</svg>