<?xml version="1.0" encoding="UTF-8"?>
<svg width="16px" height="16px" viewBox="0 0 16 16" version="1.1" xmlns="http://www.w3.org/2000/svg" xmlns:xlink="http://www.w3.org/1999/xlink">
    <title>it-asset-management-third-menu</title>
    <g id="吉林银行迭代二" stroke="none" stroke-width="1" fill="none" fill-rule="evenodd">
        <g id="it-asset-management-third-menu">
            <rect id="矩形" x="0" y="0" width="16" height="16"></rect>
            <g id="资产" transform="translate(1.000000, 1.830000)" fill="#262626" fill-rule="nonzero">
                <path d="M10.5518503,0 C10.6944947,0 10.835774,0.0203366679 10.9784726,0.0619887244 L11.0154655,0.0734448655 C11.080059,0.0944347939 11.1430868,0.119764607 11.2063218,0.150311595 C11.5423046,0.314789241 11.8070099,0.596846748 11.9469018,0.946943884 L13.8924594,5.82057151 C13.9636293,5.99793145 14,6.18694447 14,6.37824126 L14,10.8424359 C14,11.6719188 13.3275499,12.3447182 12.4977177,12.3447182 L1.50228234,12.3447182 C0.67279944,12.3447182 0,11.6722681 0,10.8424359 L0,6.3572708 C0.000239449039,6.2035789 0.023975559,6.0509051 0.0780679328,5.88205757 L0.124169894,5.76043553 L2.22974743,0.904525337 C2.44530287,0.408032704 2.91047878,0.0665947494 3.47125782,0.00667126822 L3.60777467,0 Z M3.679,0.932 L3.63285151,0.93265908 L3.54647667,0.93662872 C3.34394402,0.958516994 3.16761784,1.08793997 3.08596061,1.27602237 L0.989472247,6.10941036 L0.960122304,6.18623906 C0.9424665,6.24200547 0.933333333,6.30016946 0.933333333,6.35799615 L0.933333333,10.8424359 C0.933333333,11.1566938 1.18815673,11.4113849 1.50228234,11.4113849 L12.4977177,11.4113849 C12.8119756,11.4113849 13.0666667,11.1565615 13.0666667,10.8424359 L13.0666667,6.37824126 C13.0666667,6.30580584 13.0530015,6.23478987 13.0259524,6.16737986 L11.0801417,1.29311999 C11.0269003,1.15987692 10.9258089,1.05215862 10.7981865,0.989674767 C10.7752055,0.978575959 10.7514185,0.969016372 10.7338198,0.963240315 L10.7104547,0.955983514 C10.6590999,0.941014074 10.6057416,0.933333333 10.5518503,0.933333333 L10.484,0.933 L12.2353559,5.62375197 C12.3910866,6.02689358 12.2188077,6.47383445 11.8172546,6.69177535 L11.7239384,6.73168874 C11.6346797,6.76274452 11.5403656,6.77872197 11.4441928,6.77872197 L9.5504956,6.77872197 C9.54164162,6.77872197 9.53369123,6.78344641 9.52955962,6.79096079 L8.93773354,7.87571569 C8.795138,8.13695126 8.52126963,8.2994418 8.22350059,8.2994418 L5.96788829,8.29866317 C5.68769675,8.29866317 5.42814367,8.1549107 5.27782287,7.91658974 L4.57283508,6.78860862 C4.56870231,6.78197818 4.56144319,6.77794685 4.55384463,6.77794331 L2.77850347,6.77794331 C2.29711332,6.77794331 1.91881786,6.38069135 1.93220508,5.87077911 L1.94442148,5.77176312 C1.95330749,5.72519469 1.96610995,5.67926682 1.98134115,5.63823314 L3.679,0.932 Z M4.671,0.932 L2.89821961,5.84388677 L4.55405903,5.84461002 C4.84269534,5.84474263 5.11342827,5.97507329 5.2932932,6.19486956 L5.3646021,6.29442669 L6.03328628,7.3652201 L8.15288628,7.3652201 L8.71091128,6.3427153 C8.86064062,6.07023488 9.13095323,5.88921463 9.43504663,5.85235186 L9.5504956,5.84538863 L11.3215529,5.8448201 L9.487,0.933 L4.671,0.932 Z M8.09970848,1.50212493 C8.24503113,1.47627356 8.3946696,1.50925564 8.51565858,1.59380521 C8.63674617,1.67821352 8.71931004,1.80729758 8.74516141,1.95262023 C8.77101277,2.09794288 8.7380307,2.24758134 8.65348112,2.36857033 L8.22210436,2.9868251 L8.81232743,2.9868251 C9.1198975,2.9868251 9.36906819,3.23599579 9.36906819,3.54356586 C9.36906819,3.85113593 9.1198975,4.10030661 8.81232743,4.10030661 L7.66769958,4.10030661 L7.66769958,4.45381753 L8.81232743,4.45381753 C9.1198975,4.45381753 9.36906819,4.70298822 9.36906819,5.00977963 C9.36906819,5.3173497 9.1198975,5.56652039 8.81232743,5.56652039 L7.66769958,5.56652039 L7.66769958,6.07887762 C7.66769958,6.38644769 7.41852889,6.63561838 7.11095882,6.63561838 C6.80338875,6.63561838 6.55421806,6.38644769 6.55421806,6.07887762 L6.55421806,5.56729905 L5.40959021,5.56729905 C5.10202014,5.56729905 4.85284945,5.31812836 4.85284945,5.01055829 C4.85284945,4.70298822 5.10202014,4.45381753 5.40959021,4.45381753 L6.55421806,4.45381753 L6.55421806,4.10030661 L5.40959021,4.10030661 C5.10202014,4.10030661 4.85284945,3.85113593 4.85284945,3.54356586 C4.85284945,3.23599579 5.10202014,2.9868251 5.40959021,2.9868251 L5.96710963,2.9868251 L5.52171702,2.37869288 C5.34028961,2.13030085 5.39401704,1.78224055 5.64163042,1.60081314 C5.89002245,1.41938573 6.23808275,1.47311316 6.41951016,1.72072653 L7.1000576,2.64966601 L7.74089347,1.73162775 C7.82530177,1.61054016 7.95438583,1.52797629 8.09970848,1.50212493 Z" id="形状结合"></path>
            </g>
        </g>
    </g>
</svg>