<?xml version="1.0" encoding="UTF-8"?>
<svg width="16px" height="16px" viewBox="0 0 16 16" version="1.1" xmlns="http://www.w3.org/2000/svg" xmlns:xlink="http://www.w3.org/1999/xlink">
    <title>it-resource-management-third-menu</title>
    <g id="it-resource-management-third-menu" stroke="none" stroke-width="1" fill="none" fill-rule="evenodd">
        <g id="it-resource-management-second-menu">
            <rect id="矩形" x="0" y="0" width="16" height="16"></rect>
            <path d="M13.4,2.4 C13.9522847,2.4 14.4,2.84771525 14.4,3.4 L14.4,6.71692308 C14.4,7.26920783 13.9522847,7.71692308 13.4,7.71692308 L2.6,7.71692308 C2.04771525,7.71692308 1.6,7.26920783 1.6,6.71692308 L1.6,3.4 C1.6,2.84771525 2.04771525,2.4 2.6,2.4 L13.4,2.4 Z M13.2,3.6 L2.8,3.6 L2.8,6.516 L13.2,6.516 L13.2,3.6 Z M5.44,4.64 C5.79346224,4.64 6.08,4.92653776 6.08,5.28 C6.08,5.63346224 5.79346224,5.92 5.44,5.92 L4.16,5.92 C3.80653776,5.92 3.52,5.63346224 3.52,5.28 C3.52,4.92653776 3.80653776,4.64 4.16,4.64 L5.44,4.64 Z M13.4,8.60307692 C13.9522847,8.60307692 14.4,9.05079217 14.4,9.60307692 L14.4,12.92 C14.4,13.4722847 13.9522847,13.92 13.4,13.92 L2.6,13.92 C2.04771525,13.92 1.6,13.4722847 1.6,12.92 L1.6,9.60307692 C1.6,9.05079217 2.04771525,8.60307692 2.6,8.60307692 L13.4,8.60307692 Z M13.2,9.80307692 L2.8,9.80307692 L2.8,12.7190769 L13.2,12.7190769 L13.2,9.80307692 Z M5.44,10.72 C5.79346224,10.72 6.08,11.0065378 6.08,11.36 C6.08,11.7134622 5.79346224,12 5.44,12 L4.16,12 C3.80653776,12 3.52,11.7134622 3.52,11.36 C3.52,11.0065378 3.80653776,10.72 4.16,10.72 L5.44,10.72 Z" id="形状结合" fill="#000000" fill-rule="nonzero"></path>
        </g>
    </g>
</svg>