<?xml version="1.0" encoding="UTF-8"?>
<svg width="16px" height="16px" viewBox="0 0 16 16" version="1.1" xmlns="http://www.w3.org/2000/svg" xmlns:xlink="http://www.w3.org/1999/xlink">
    <title>itsm-mobile-terminal-third-menu</title>
    <g id="itsm-mobile-terminal-third-menu" stroke="none" stroke-width="1" fill="none" fill-rule="evenodd">
        <g id="移动端" transform="translate(0.000000, -0.100000)">
            <rect id="矩形" fill="#FFFFFF" opacity="0" x="0" y="0" width="16" height="16"></rect>
            <path d="M11.799252,10.589 L11.8,14 C11.8,14.5522847 11.3522847,15 10.8,15 L4.8,15 C4.24771525,15 3.8,14.5522847 3.8,14 L3.79925205,12.219 L4.99925205,11.975 L5,13.8 L10.6,13.8 L10.599252,10.833 L11.799252,10.589 Z M7.8,12 C8.18659932,12 8.5,12.3134007 8.5,12.7 C8.5,13.0865993 8.18659932,13.4 7.8,13.4 C7.41340068,13.4 7.1,13.0865993 7.1,12.7 C7.1,12.3134007 7.41340068,12 7.8,12 Z M13.8300855,4.99047862 L13.8515889,5.07407069 C13.8645379,5.12722619 13.8746975,5.17624163 13.8819697,5.22714719 C13.8948427,5.31725824 13.8970993,5.40629171 13.8869167,5.49666186 L13.878,5.542 L13.8794337,7.75406233 C13.8383288,8.69947469 13.2169983,9.51767587 12.3223314,9.82502301 L12.1514531,9.87657036 L12.1198431,9.88390954 L3.858965,11.564688 C3.04088995,11.8203364 2.17335338,11.3710764 1.8499145,10.4975214 C1.82618018,10.4025841 1.81223816,10.3127355 1.80552478,10.2187482 C1.80315887,10.1856255 1.80177768,10.1575662 1.80098796,10.1244737 L1.8005663,7.73393767 C1.84487772,6.71477508 2.5594267,5.82158886 3.56233032,5.60365159 L11.821035,3.95531201 C12.6395227,3.69953461 13.5069619,4.11776422 13.8300855,4.99047862 Z M12.1176697,5.11634841 L3.80745779,6.77830582 C3.35956277,6.8756743 3.02059354,7.29938583 3,7.76 L3.00048931,10.0852082 C3.00085869,10.1053429 3.00147749,10.1192836 3.00247522,10.1332518 C3.00341265,10.1463758 3.00470335,10.158235 3.00402962,10.1618929 L3.03162508,10.219923 C3.11967897,10.3664231 3.27957152,10.4467203 3.46533315,10.4241296 L3.5601569,10.4040905 L11.852,8.71364 L11.9647188,8.67847721 C12.3413893,8.53629673 12.6090581,8.20884832 12.6685101,7.83981414 L12.68,7.728 L12.68,5.488 L12.692,5.38764 C12.6894248,5.37464409 12.6879523,5.3685989 12.685935,5.36049443 L12.679,5.33164 L12.6505641,5.27346096 C12.5531087,5.11484044 12.3580477,5.04428784 12.1176697,5.11634841 Z M4.389375,7.44663697 L4.389375,9.73726197 L3.68,9.89267768 L3.68,7.60205268 L4.389375,7.44663697 Z M6.8878125,6.89925874 L6.8878125,7.46488374 L6.1659375,7.62303805 L6.1659375,9.34803805 L5.458125,9.50311143 L5.458125,7.77811143 L4.73625,7.93626574 L4.73625,7.37064074 L6.8878125,6.89925874 Z M8.81359375,6.60156151 C8.96723958,6.67675368 9.05864583,6.82990473 9.0878125,7.06101466 L8.420625,7.24625008 C8.40291667,7.14700477 8.36567708,7.08016352 8.30890625,7.04572634 C8.25213542,7.01128916 8.17375,7.00502499 8.07375,7.02693381 C7.99145833,7.04496294 7.92947917,7.07598976 7.8878125,7.12001427 C7.84614583,7.16403878 7.8253125,7.21105104 7.8253125,7.26105104 C7.8253125,7.29750937 7.8425,7.32655629 7.876875,7.3481918 C7.91020833,7.37109719 7.989375,7.38187771 8.114375,7.38053335 C8.42375,7.3794196 8.64536458,7.39831437 8.77921875,7.43721767 C8.91307292,7.47612096 9.01046875,7.5394181 9.07140625,7.62710908 C9.13234375,7.71480005 9.1628125,7.82114554 9.1628125,7.94614554 C9.1628125,8.09302054 9.1221875,8.23733767 9.0409375,8.37909692 C8.9596875,8.52085617 8.84614583,8.63974223 8.7003125,8.7357551 C8.55447917,8.83176796 8.370625,8.90407949 8.14875,8.95268969 C7.75916667,9.03804281 7.489375,9.02215099 7.339375,8.90501422 C7.189375,8.78787745 7.10447917,8.61585213 7.0846875,8.38893825 L7.758125,8.19920853 C7.77270833,8.30538849 7.80239583,8.38221764 7.8471875,8.42969598 C7.92010417,8.50642913 8.02427083,8.52996161 8.1596875,8.50029341 C8.26072917,8.47815638 8.33859375,8.43739925 8.39328125,8.37802203 C8.44796875,8.31864481 8.4753125,8.25770619 8.4753125,8.19520619 C8.4753125,8.13583119 8.44927083,8.08841162 8.3971875,8.05294746 C8.34510417,8.01748331 8.22427083,7.99968563 8.0346875,7.99955444 C7.72427083,7.99777141 7.50291667,7.95355917 7.370625,7.86691771 C7.23729167,7.78050448 7.170625,7.64771452 7.170625,7.46854786 C7.170625,7.35083952 7.20473958,7.2321675 7.27296875,7.1125318 C7.34119792,6.99289609 7.44380208,6.88812506 7.58078125,6.7982187 C7.71776042,6.70831235 7.90552083,6.63722834 8.1440625,6.58496667 C8.43677083,6.52083772 8.65994792,6.52636933 8.81359375,6.60156151 Z M12.0878125,5.76 L12.0878125,8.050625 L11.5096875,8.17728538 L11.5096875,6.43041038 L11.06125,8.27553275 L10.5378125,8.39021174 L10.0909375,6.74124179 L10.0909375,8.48811679 L9.51125,8.61511949 L9.51125,6.32449449 L10.4425,6.12046859 L10.801875,7.43548376 L11.1596875,5.96334125 L12.0878125,5.76 Z M10.8,1 C11.3522847,1 11.8,1.44771525 11.8,2 L11.799252,3.306 L10.599252,3.546 L10.6,2.2 L5,2.2 L4.99925205,4.666 L3.79925205,4.906 L3.8,2 C3.8,1.44771525 4.24771525,1 4.8,1 L10.8,1 Z" id="形状结合" fill="#262626" fill-rule="nonzero"></path>
        </g>
    </g>
</svg>