<?xml version="1.0" encoding="UTF-8"?>
<svg width="16px" height="16px" viewBox="0 0 16 16" version="1.1" xmlns="http://www.w3.org/2000/svg" xmlns:xlink="http://www.w3.org/1999/xlink">
    <title>key-management-third-menu</title>
    <g id="key-management-third-menu" stroke="none" stroke-width="1" fill="none" fill-rule="evenodd">
        <rect id="矩形" fill="#000000" opacity="0" x="0" y="0" width="16" height="16"></rect>
        <g id="编组-4" transform="translate(1.000000, 1.000000)">
            <g id="编组" stroke="#262626" stroke-width="1.2">
                <path d="M3.08631459,9.50377267 L0.930669835,11.303325 L0.689658358,9.74478415 L3.08631459,9.50377267 Z M10.8836003,4.97551028 L11.0527536,5.53183677 L0.998558298,7.38678154 L0.695257611,5.4254371 L10.8836003,4.97551028 Z M10.8114526,0.623140839 L11.1269646,2.66345179 L1.01076961,3.11019249 L0.695257611,1.06988154 L10.8114526,0.623140839 Z" id="形状结合"></path>
            </g>
            <g id="编组-2" transform="translate(6.238453, 6.411062)" fill="#262626">
                <path d="M3.72525808,0 C5.78266491,0 7.45051617,1.69883801 7.45051617,3.79446906 C7.45051617,5.89010012 5.78266491,7.58893813 3.72525808,7.58893813 C1.66811735,7.58893813 0,5.89010012 0,3.79446906 C0,1.69883801 1.66811735,0 3.72525808,0 Z M5.27640388,1.61362591 L4.66700968,2.11274244 L5.09640325,2.60807604 L4.74329781,2.9137009 L4.31446755,2.42036411 L3.70941828,2.9757857 L4.12161442,3.451472 L3.53674963,3.95829763 C3.11630624,3.65943771 2.53110918,3.67469075 2.12459072,4.02807185 C1.64794509,4.44241358 1.59743779,5.16470155 2.01177952,5.64134719 C2.42612125,6.11799282 3.14840922,6.16850012 3.62505485,5.75415839 C3.96854234,5.45556927 4.09072993,4.99705914 3.97713068,4.58580095 L6.19054383,2.66959159 L6.02409643,2.4787263 L5.27640388,1.61362591 Z M2.47764111,4.43420986 C2.72998291,4.21485247 3.11237066,4.24159163 3.33172805,4.49393344 C3.55108543,4.74627524 3.52434628,5.12866299 3.27200447,5.34802038 C3.01966266,5.56737777 2.63727491,5.54063861 2.41791753,5.2882968 C2.19856014,5.035955 2.2252993,4.65356725 2.47764111,4.43420986 Z" id="形状结合"></path>
            </g>
        </g>
    </g>
</svg>