<?xml version="1.0" encoding="UTF-8"?>
<svg width="16px" height="16px" viewBox="0 0 16 16" version="1.1" xmlns="http://www.w3.org/2000/svg" xmlns:xlink="http://www.w3.org/1999/xlink">
    <title>knowledge-base-third-menu</title>
    <g id="knowledge-base-third-menu" stroke="none" stroke-width="1" fill="none" fill-rule="evenodd">
        <rect id="矩形" fill="#000000" opacity="0" x="0" y="0" width="16" height="16"></rect>
        <g id="编组" transform="translate(2.270000, 1.000000)" fill="#262626" fill-rule="nonzero">
            <path d="M10.4583964,0 C11.0106811,0 11.4583964,0.44771525 11.4583964,1 L11.4583964,12.97882 C11.4583964,13.5311047 11.0106811,13.97882 10.4583964,13.97882 L1.906,13.978 L1.90620272,14 L1,14 C0.44771525,14 -1.99840144e-15,13.5522847 -1.99840144e-15,13 L-2.88657986e-15,1.02118003 C-2.88657986e-15,0.500522424 0.397905754,0.0728006869 0.906211785,0.0255202948 L0.906202723,0 L10.4583964,0 Z M6.375,1.2 L2.10620272,1.2 L2.10620272,12.778 L10.2582027,12.778 L10.2582027,1.2 L9.869,1.2 L9.8698941,4.06678139 C9.8698941,4.21517131 9.80398259,4.35589511 9.6899863,4.45089203 C9.47784785,4.62767407 9.1625655,4.59901203 8.98578346,4.38687359 L8.28139183,3.54160363 L7.2287425,4.59425296 C7.13497431,4.68802115 7.00779735,4.74069957 6.87518911,4.74069957 C6.59904673,4.74069957 6.37518911,4.51684195 6.37518911,4.24069957 L6.375,1.2 Z M9.02719365,10.484115 C9.31714314,10.484115 9.55219365,10.7191655 9.55219365,11.009115 C9.55219365,11.2990645 9.31714314,11.534115 9.02719365,11.534115 L4.35858548,11.534115 C4.06863598,11.534115 3.83358548,11.2990645 3.83358548,11.009115 C3.83358548,10.7191655 4.06863598,10.484115 4.35858548,10.484115 L9.02719365,10.484115 Z M9.02719365,8.2602118 C9.31714314,8.2602118 9.55219365,8.49526231 9.55219365,8.7852118 C9.55219365,9.07516129 9.31714314,9.3102118 9.02719365,9.3102118 L4.35858548,9.3102118 C4.06863598,9.3102118 3.83358548,9.07516129 3.83358548,8.7852118 C3.83358548,8.49526231 4.06863598,8.2602118 4.35858548,8.2602118 L9.02719365,8.2602118 Z M8.669,1.2 L7.575,1.2 L7.57518911,2.573 L7.64792147,2.52201129 C7.95311968,2.33185398 8.32342947,2.29301486 8.65437414,2.40075476 L8.66918911,2.406 L8.669,1.2 Z" id="形状结合"></path>
        </g>
    </g>
</svg>