<?xml version="1.0" encoding="UTF-8"?>
<svg width="16px" height="16px" viewBox="0 0 16 16" version="1.1" xmlns="http://www.w3.org/2000/svg" xmlns:xlink="http://www.w3.org/1999/xlink">
    <title>knowledge-document-third-menu</title>
    <g id="knowledge-document-third-menu" stroke="none" stroke-width="1" fill="none" fill-rule="evenodd">
        <rect id="矩形" fill="#000000" opacity="0" x="0" y="0" width="16" height="16"></rect>
        <g id="编组" transform="translate(2.27, 1)">
            <path d="M10.4583964,0.6 L10.8583964,12.97882 L1.50620272,13.37882 L1.50620272,0.6 L10.4583964,0.6 Z" id="矩形备份-50" stroke="#262626" stroke-width="1.2"></path>
            <path d="M9.2698941,0.6 L9.269,3.603 L8.25178622,2.7226811 L7.166,3.808 L7.00603867,0.6 L9.2698941,0.6 Z" id="路径-2" stroke="#262626" stroke-width="1.2"></path>
            <path d="M9.55219365,11.009115 C9.55219365,11.2990645 9.31714314,11.534115 9.02719365,11.534115 L4.35858548,11.534115 C4.06863598,11.534115 3.83358548,11.2990645 3.83358548,11.009115 C3.83358548,10.7191655 4.06863598,10.484115 4.35858548,10.484115 L9.02719365,10.484115 C9.31714314,10.484115 9.55219365,10.7191655 9.55219365,11.009115 Z" id="直线-5备份-60" fill="#262626" fill-rule="nonzero"></path>
            <path d="M9.55219365,8.7852118 C9.55219365,9.07516129 9.31714314,9.3102118 9.02719365,9.3102118 L4.35858548,9.3102118 C4.06863598,9.3102118 3.83358548,9.07516129 3.83358548,8.7852118 C3.83358548,8.49526231 4.06863598,8.2602118 4.35858548,8.2602118 L9.02719365,8.2602118 C9.31714314,8.2602118 9.55219365,8.49526231 9.55219365,8.7852118 Z" id="直线-5备份-61" fill="#262626" fill-rule="nonzero"></path>
            <path d="" id="矩形备份-11" stroke="#262626" stroke-width="1.2" transform="translate(0.9531, 7.0106) rotate(90) translate(-0.9531, -7.0106)"></path>
        </g>
    </g>
</svg>