<?xml version="1.0" encoding="UTF-8"?>
<svg width="16px" height="16px" viewBox="0 0 16 16" version="1.1" xmlns="http://www.w3.org/2000/svg" xmlns:xlink="http://www.w3.org/1999/xlink">
    <title>launchpad-configuration-third-menu</title>
    <g id="launchpad-configuration-third-menu" stroke="none" stroke-width="1" fill="none" fill-rule="evenodd">
        <g id="编组">
            <rect id="矩形" x="0" y="0" width="16" height="16"></rect>
        </g>
        <g id="基础设施监控" transform="translate(1.000000, 1.200000)">
            <path d="M9.48935941,11.4875392 L9.99328794,12.373509 C10.0562801,12.5830863 9.95414964,12.8096139 9.76517321,12.879473 C9.72839583,12.8930685 9.68988259,12.9 9.65111584,12.9 L4.37257583,12.9 C4.17337718,12.9 4.01189476,12.7209139 4.01189476,12.5 C4.01189476,12.4570072 4.0181446,12.4142956 4.03040372,12.373509 L5.3441027,9.48093327" id="路径" stroke="#262626" stroke-width="1.2" stroke-linecap="round"></path>
            <rect id="矩形备份-10" stroke="#262626" stroke-width="1.2" x="0.6" y="0.6" width="12.8" height="8.66363636" rx="1"></rect>
            <path d="M10,4.3 C10.2198658,4.3 10.4074297,4.45912476 10.4432602,4.67605133 L10.4726062,4.84933154 C10.6015326,4.89153764 10.7228529,4.95054356 10.8339798,5.02376187 L10.9836156,4.9389041 C11.1747481,4.83023328 11.4164491,4.87585738 11.5548151,5.04672518 C11.6931811,5.21759298 11.6875558,5.46349799 11.541521,5.62785981 L11.4224486,5.76146761 C11.4685966,5.88512377 11.4990818,6.01641433 11.5114911,6.15292614 L11.6751294,6.2202674 C11.8784361,6.30397739 11.9912898,6.52252935 11.9418307,6.73675999 C11.8923717,6.95099063 11.6951326,7.09795203 11.4757057,7.08406629 L11.3014121,7.07356318 C11.2319301,7.18902604 11.1475169,7.29448507 11.0508446,7.38726821 L11.1004409,7.55336601 C11.1633311,7.76404536 11.0645054,7.98928836 10.8668914,8.08567118 C10.6692773,8.18205399 10.4309403,8.12125623 10.3036417,7.94199095 L10.1994648,7.79689078 C10.1341913,7.80545931 10.0676119,7.80988022 10,7.80988022 C9.93238806,7.80988022 9.86580868,7.80545931 9.80053516,7.79689078 L9.69635829,7.94199095 C9.56905973,8.12125623 9.33072269,8.18205399 9.13310863,8.08567118 C8.93549458,7.98928836 8.83666893,7.76404536 8.89955908,7.55336601 L8.94915537,7.38726821 C8.85248309,7.29448507 8.76806992,7.18902604 8.69858791,7.07356318 L8.52429429,7.08406629 C8.30486743,7.09795203 8.10762833,6.95099063 8.05816929,6.73675999 C8.00871025,6.52252935 8.12156394,6.30397739 8.32487061,6.2202674 L8.4885089,6.15292614 C8.5009182,6.01641433 8.53140342,5.88512377 8.57755141,5.76146761 L8.45847902,5.62785981 C8.31244424,5.46349799 8.30681889,5.21759298 8.44518491,5.04672518 C8.58355093,4.87585738 8.8252519,4.83023328 9.01638435,4.9389041 L9.16602018,5.02376187 C9.27699108,4.95064635 9.39812681,4.89170335 9.52685083,4.8495094 L9.55673983,4.67605133 C9.59257029,4.45912476 9.78013422,4.3 10,4.3 Z M10,5.72589221 C9.68500059,5.72589221 9.42964312,5.98124968 9.42964312,6.29624909 C9.42964312,6.6112485 9.68500059,6.86660597 10,6.86660597 C10.3149994,6.86660597 10.5703569,6.6112485 10.5703569,6.29624909 C10.5703569,5.98124968 10.3149994,5.72589221 10,5.72589221 Z" id="形状结合备份-7" fill="#2E2D26"></path>
            <path d="M10.1818182,3.02727255 C10.1818182,3.32851877 9.93760986,3.57272709 9.63636364,3.57272709 L2.36363636,3.57272709 C2.06239014,3.57272709 1.81818182,3.32851877 1.81818182,3.02727255 C1.81818182,2.72602632 2.06239014,2.481818 2.36363636,2.481818 L9.63636364,2.481818 C9.93760986,2.481818 10.1818182,2.72602632 10.1818182,3.02727255 Z" id="路径" fill="#262626" fill-rule="nonzero"></path>
            <path d="M6.90909091,5.57272755 C6.90909091,5.87397377 6.66488259,6.11818209 6.36363636,6.11818209 L2.36363636,6.11818209 C2.06239014,6.11818209 1.81818182,5.87397377 1.81818182,5.57272755 C1.81818182,5.27148132 2.06239014,5.027273 2.36363636,5.027273 L6.36363636,5.027273 C6.66488259,5.027273 6.90909091,5.27148132 6.90909091,5.57272755 Z" id="路径" fill="#262626" fill-rule="nonzero"></path>
        </g>
    </g>
</svg>