<?xml version="1.0" encoding="UTF-8"?>
<svg width="16px" height="16px" viewBox="0 0 16 16" version="1.1" xmlns="http://www.w3.org/2000/svg" xmlns:xlink="http://www.w3.org/1999/xlink">
    <title>logical-service-monitoring-third-menu</title>
    <g id="logical-service-monitoring-third-menu" stroke="none" stroke-width="1" fill="none" fill-rule="evenodd">
        <g id="编组-2">
            <rect id="矩形" x="0" y="0" width="16" height="16"></rect>
            <g id="编组-33" transform="translate(1.6, 1.6)" fill="#262626">
                <path d="M10.9268293,9.36585366 C11.5015646,9.36585366 11.9674797,9.83176872 11.9674797,10.4065041 C11.9674797,10.9812394 11.5015646,11.4471545 10.9268293,11.4471545 C10.7639876,11.4471545 10.6098818,11.4097518 10.472634,11.3430688 C9.96129389,11.7790707 9.37849454,12.1292011 8.74835694,12.3767685 C8.03951135,12.6552585 7.28147294,12.8 6.50406504,12.8 C4.81788729,12.8 3.23951406,12.1164107 2.09034896,10.928274 C1.93052195,10.7630268 1.93491589,10.4995021 2.1001631,10.3396751 C2.26541031,10.1798481 2.52893504,10.184242 2.68876205,10.3494892 C3.68265043,11.3770833 5.04584596,11.9674797 6.50406504,11.9674797 C7.17685783,11.9674797 7.83166816,11.8424488 8.44392971,11.6019045 C8.98735275,11.3884054 9.49029734,11.0864395 9.93334193,10.7109714 C9.90200036,10.6146295 9.88617886,10.5124144 9.88617886,10.4065041 C9.88617886,9.83176872 10.3520939,9.36585366 10.9268293,9.36585366 Z M5.60015716,0.992167876 C5.65253828,1.216015 5.51353762,1.43994223 5.2896905,1.49232335 C2.90927562,2.04934993 1.19674797,4.1819634 1.19674797,6.6601626 C1.19674797,6.87666342 1.20969199,7.09133824 1.23528639,7.30338708 C1.71737997,7.39430845 2.08130081,7.81725672 2.08130081,8.32520325 C2.08130081,8.8999386 1.61538576,9.36585366 1.04065041,9.36585366 C0.465915057,9.36585366 0,8.8999386 0,8.32520325 C0,7.98267022 0.165491561,7.67878981 0.420880716,7.48915599 C0.382936777,7.21677928 0.364227642,6.93968683 0.364227642,6.6601626 C0.364227642,3.79312492 2.34508234,1.32636333 5.10000169,0.681701215 C5.32384881,0.629320096 5.54777604,0.768320755 5.60015716,0.992167876 Z M7.80487805,0 C8.3796134,0 8.84552846,0.465915057 8.84552846,1.04065041 L8.84264483,0.981030243 C11.0993381,1.90960345 12.6439024,4.12836001 12.6439024,6.6601626 C12.6439024,7.08707467 12.6002682,7.50861745 12.5144232,7.9200811 C12.4674706,8.14512948 12.2469703,8.28950466 12.0219219,8.24255209 C11.7968735,8.19559952 11.6524983,7.97509919 11.6994509,7.75005081 C11.7736453,7.39442943 11.8113821,7.02986139 11.8113821,6.6601626 C11.8113821,4.4819589 10.4884887,2.57150792 8.55324689,1.7623306 C8.36426124,1.95944839 8.09879972,2.08130081 7.80487805,2.08130081 C7.2301427,2.08130081 6.76422764,1.61538576 6.76422764,1.04065041 C6.76422764,0.465915057 7.2301427,0 7.80487805,0 Z" id="形状结合"></path>
                <g id="webx-Web应用托管服务器" transform="translate(2.332, 2.4739)">
                    <path d="M0.312195127,2.61108647 C0.113525508,3.09356984 0,3.63281596 0,4.17206209 C0,4.62616408 0.0851441242,5.08026608 0.227051002,5.47760532 C0.482483375,5.0518847 0.823059872,4.56940132 1.24878049,4.05853658 C1.19201774,3.94501108 1.135255,3.80310421 1.13525499,3.66119734 C1.13525499,3.54767185 1.16363636,3.46252772 1.19201774,3.37738359 C0.794678488,3.09356984 0.510864745,2.83813747 0.312195127,2.61108647 L0.312195127,2.61108647 Z M1.78802661,7.57782706 C1.92993349,7.46430156 2.04345898,7.35077605 2.18536586,7.26563193 C3.34900223,6.38580932 4.39911309,5.87494457 5.22217295,5.59113082 C5.22217295,5.53436806 5.19379158,5.47760532 5.19379158,5.42084257 L5.19379158,5.33569844 C4.90997783,5.25055432 4.59778271,5.16541019 4.31396897,5.0518847 C3.57605322,4.79645233 2.95166298,4.4842572 2.41241685,4.20044346 C2.27050997,4.34235034 2.07184035,4.42749446 1.87317073,4.42749446 C1.75964524,4.42749446 1.67450111,4.39911309 1.58935699,4.37073171 C1.05011087,4.99512195 0.681152994,5.59113082 0.425720621,6.04523282 C0.766297118,6.66962306 1.22039911,7.18048781 1.78802661,7.57782706 L1.78802661,7.57782706 Z M4.48425721,4.62616408 C4.79645234,4.73968957 5.10864745,4.8248337 5.42084258,4.90997782 C5.5059867,4.8248337 5.59113083,4.76807094 5.67627495,4.73968957 C5.59113083,4.42749445 5.47760533,4.11529933 5.33569846,3.80310421 C5.13702884,3.34900222 4.90997783,2.92328159 4.68292683,2.55432373 C4.59778271,2.5827051 4.54101995,2.5827051 4.45587583,2.5827051 C4.28558758,2.5827051 4.11529933,2.52594234 3.97339247,2.41241685 C3.66119734,2.61108647 3.34900223,2.8097561 3.00842572,3.06518847 L2.5827051,3.40576497 C2.61108647,3.49090909 2.63946785,3.60443459 2.63946785,3.68957871 L2.63946785,3.80310421 C3.1503326,4.05853658 3.77472284,4.37073171 4.48425721,4.62616408 L4.48425721,4.62616408 Z M8.45764967,4.17206209 C8.45764967,2.98004435 7.94678492,1.87317073 7.09534368,1.13525499 C6.66962306,1.22039911 6.01685144,1.39068736 5.22217295,1.73126385 L5.22217295,1.81640798 C5.22217295,1.98669623 5.16541019,2.12860311 5.08026608,2.27050997 C5.33569846,2.66784922 5.56274946,3.12195121 5.78980045,3.63281596 C5.93170733,4.00177383 6.07361419,4.37073171 6.1871397,4.7113082 C6.4141907,4.76807096 6.61286032,4.93835921 6.72638581,5.16541019 C6.89667406,5.19379156 7.06696231,5.19379156 7.23725056,5.19379158 C7.66297118,5.22217295 8.06031043,5.19379158 8.37250554,5.19379158 C8.40088692,4.82483371 8.45764967,4.51263858 8.45764967,4.17206209 L8.45764967,4.17206209 Z M4.22882484,1.07849223 C4.31396897,1.05011086 4.37073172,1.05011086 4.45587583,1.05011086 C4.68292683,1.05011086 4.88159645,1.13525499 5.02350333,1.30554323 C5.64789357,1.02172949 6.1871397,0.851441242 6.61286032,0.737915734 C5.93170733,0.283813743 5.10864745,0 4.22882484,0 C3.91662971,0 3.57605322,0.0283813703 3.29223947,0.113525495 C3.54767185,0.368957867 3.88824834,0.681152994 4.22882484,1.07849223 L4.22882484,1.07849223 Z M6.15875831,7.8616408 C6.18713969,7.43592018 6.15875831,6.86829268 6.01685145,6.15875831 L5.9600887,6.15875831 C5.76141908,6.15875831 5.59113083,6.10199556 5.47760532,5.98847007 C4.68292683,6.27228381 3.63281596,6.75476718 2.49756097,7.6345898 C2.41241685,7.69135255 2.32727272,7.77649668 2.21374723,7.83325943 C2.8097561,8.14545456 3.49090909,8.3157428 4.20044346,8.31574279 C4.90997782,8.34412416 5.59113082,8.17383591 6.15875831,7.8616408 Z M0.539246116,2.15698448 C0.737915734,2.38403548 1.05011086,2.69623059 1.50421287,3.03680709 C1.61773836,2.98004433 1.75964524,2.92328159 1.9015521,2.92328159 C2.04345898,2.92328159 2.18536585,2.95166296 2.29889135,3.03680709 L2.72461198,2.69623059 C3.06518847,2.44079822 3.40576497,2.21374722 3.7179601,2.0150776 C3.68957873,1.95831484 3.68957873,1.9015521 3.68957871,1.81640798 C3.68957871,1.64611973 3.74634147,1.50421285 3.83148559,1.36230599 C3.40576497,0.879822613 3.0368071,0.510864745 2.72461198,0.283813743 C1.78802661,0.62439024 1.02172949,1.30554323 0.539246116,2.15698448 L0.539246116,2.15698448 Z M7.12372506,5.64789357 C7.03858094,5.64789357 6.89667406,5.64789357 6.69800444,5.70465632 C6.64124169,5.81818182 6.58447895,5.90332594 6.49933481,5.98847007 C6.61286031,6.61286031 6.66962306,7.15210644 6.66962306,7.57782706 C7.35077605,7.09534368 7.89002217,6.44257207 8.2022173,5.64789357 L7.12372506,5.64789357 L7.12372506,5.64789357 Z" id="形状结合"></path>
                </g>
            </g>
        </g>
    </g>
</svg>