<?xml version="1.0" encoding="UTF-8"?>
<svg width="16px" height="16px" viewBox="0 0 16 16" version="1.1" xmlns="http://www.w3.org/2000/svg" xmlns:xlink="http://www.w3.org/1999/xlink">
    <title>low-value-consumables-third-menu</title>
    <g id="吉林银行迭代二" stroke="none" stroke-width="1" fill="none" fill-rule="evenodd">
        <g id="low-value-consumables-third-menu">
            <rect id="矩形" x="0" y="0" width="16" height="16"></rect>
            <path d="M7.38034474,1.35159572 C7.72677405,1.0174016 8.27558619,1.0174016 8.62396275,1.35348442 L10.172,2.86295013 L12.3597791,2.86344862 C12.5546736,2.86093179 12.7437479,2.92302573 12.8982893,3.03826796 L12.9866404,3.1136994 C13.1541361,3.27695106 13.2499116,3.50005938 13.2529339,3.74030733 L13.252,5.86595013 L14.8293908,7.40687906 C14.94663,7.54573514 15.0238764,7.70094248 15.0500853,7.86842617 L15.06,7.99627709 C15.06,8.26092726 14.9691622,8.4545122 14.7950983,8.62111034 L13.251,10.1249501 L13.2515625,12.2619462 C13.2443132,12.711238 12.9022571,13.0766526 12.4729503,13.1243138 L12.3639492,13.1294738 L10.171,13.1289501 L8.62070907,14.6412851 C8.30314888,14.9476297 7.81553089,14.9731584 7.46815632,14.7164442 L7.37712804,14.6394324 L5.828,13.1289501 L3.64031969,13.1294318 C3.19183406,13.1352457 2.81701955,12.8051499 2.75577868,12.365849 L2.74714008,12.2538799 L2.747,10.1249501 L1.2062961,8.62302402 C1.0644885,8.4862729 0.974099054,8.30636873 0.947908337,8.11339153 L0.94,7.99627709 C0.94,7.75987324 1.03612698,7.53363151 1.20424677,7.37151774 L2.747,5.86595013 L2.74783392,3.73295347 C2.75031866,3.53805855 2.81724357,3.35063974 2.93641319,3.1991062 L3.01408677,3.11271959 C3.18158241,2.94946793 3.40707475,2.85944862 3.63449179,2.86242713 L5.828,2.86195013 Z M8,2.14295013 L6.49218797,3.61194205 C6.32511277,3.77336802 6.10164597,3.86323474 5.87107232,3.86242713 L3.747,3.86195013 L3.7477896,5.92197938 C3.74703896,6.11740419 3.68093833,6.30576112 3.56172202,6.45802399 L3.48391623,6.54481821 L1.995,7.99595013 L3.48224759,9.44544188 C3.62325697,9.58220828 3.71311733,9.76169384 3.73922595,9.95429278 L3.74714008,10.0711889 L3.747,12.1289501 L5.87083864,12.1294739 C6.06351717,12.1293838 6.2499927,12.1914454 6.40487958,12.3063393 L6.49381798,12.381541 L8,13.8489501 L9.50755944,12.3799589 C9.64678878,12.2454373 9.82517894,12.1606096 10.0142087,12.1365377 L10.1286751,12.1294738 L12.251,12.1289501 L12.2516312,10.0699216 C12.2523819,9.87449679 12.3184825,9.68613986 12.4377426,9.53383422 L12.5155804,9.44700886 L14.004,7.99495013 L12.5178264,6.54645909 C12.376817,6.4096927 12.2869567,6.23020714 12.2608481,6.03760819 L12.2529339,5.92071207 L12.252,3.86295013 L10.1298886,3.86340688 C9.93721006,3.86349694 9.75073453,3.80143541 9.59582625,3.68652062 L9.50687228,3.61130375 L8,2.14295013 Z M9.66816421,5.19924502 C9.79131078,5.25869668 9.88512296,5.36549657 9.92819978,5.49528087 C9.9712766,5.62506517 9.95994378,5.76676383 9.89678663,5.88805172 L7.16017619,11.095744 C7.02338705,11.3493063 6.70945168,11.4476737 6.45242648,11.3175077 C6.32927991,11.2580561 6.23546773,11.1512562 6.19239091,11.0214719 C6.14931409,10.8916876 6.16064691,10.7499889 6.22380406,10.628701 L8.9613943,5.42100877 C9.0982713,5.16814894 9.41136538,5.06990917 9.66816421,5.19924502 Z M10.2727072,7.87151456 C10.9873156,7.87151456 11.5464607,8.5727322 11.5464607,9.46827891 C11.5464607,10.3638256 10.9866624,11.0650432 10.273687,11.0650432 C9.55940525,11.0650432 8.99895371,10.3638256 8.99895371,9.46827891 C8.99895371,8.57273221 9.55809884,7.87151456 10.2727072,7.87151456 Z M10.270421,8.89541644 C10.1085971,9.03958933 10.0265703,9.25317535 10.0502903,9.46860551 C10.0245475,9.68536882 10.1091702,9.90060465 10.2756467,10.0417946 C10.4374705,9.8976217 10.5194973,9.68403567 10.4957774,9.46860551 C10.5211009,9.25189644 10.4365536,9.03685215 10.270421,8.89541644 Z M6.20192163,4.75702392 C6.91653002,4.75702392 7.47567514,5.45824155 7.47567514,6.35378827 C7.47567514,7.24933498 6.91653001,7.9505526 6.20192163,7.9505526 C5.48731326,7.9505526 4.92816811,7.24966157 4.92816811,6.35378827 C4.92816811,5.45889477 5.48731325,4.75702392 6.20192163,4.75702392 Z M6.19832899,5.77994597 C6.03639772,5.92432262 5.9543706,6.13815294 5.97819825,6.35378827 C5.95245552,6.57055158 6.03707815,6.7857874 6.20355464,6.92697734 C6.36556364,6.78293249 6.44762852,6.56924722 6.42368538,6.35378827 C6.44923587,6.13685988 6.36466742,5.92151673 6.19832899,5.77994597 Z" id="形状结合" fill="#262626" fill-rule="nonzero"></path>
        </g>
    </g>
</svg>