<?xml version="1.0" encoding="UTF-8"?>
<svg width="16px" height="16px" viewBox="0 0 16 16" version="1.1" xmlns="http://www.w3.org/2000/svg" xmlns:xlink="http://www.w3.org/1999/xlink">
    <title>message-subscription-third-menu</title>
    <g id="message-subscription-third-menu" stroke="none" stroke-width="1" fill="none" fill-rule="evenodd">
        <g id="mdb-relation-query-second-menu">
            <rect id="矩形" x="0" y="0" width="16" height="16"></rect>
            <path d="M8,2.1 C11.8337709,2.1 15,4.44913775 15,7.4483871 C15,10.4476364 11.8337709,12.7967742 8,12.7967742 C7.91367898,12.7967742 7.6075698,12.9225901 6.92769733,13.247159 L6.88565037,13.2672232 C5.88218584,13.7457934 5.52893321,13.8793608 5.10778522,13.7966634 C4.7076513,13.7180923 4.45966589,13.435978 4.3577806,13.0606478 C4.30389998,12.8621596 4.29341003,12.7101425 4.28778176,12.3548354 L4.28754057,12.339648 C4.28457857,12.1541158 4.279646,12.0539859 4.2685971,11.9840418 L4.13428184,11.9129108 C2.28614439,10.9805675 1.0978767,9.42133024 1.00577231,7.66847154 L1,7.4483871 C1,4.44913775 4.16622914,2.1 8,2.1 Z M8,3.3 C4.76452606,3.3 2.2,5.20271288 2.2,7.4483871 C2.2,8.85196319 3.20566587,10.1665575 4.87220337,10.9368966 C5.39780596,11.1798508 5.47456675,11.5174233 5.48738767,12.3204926 L5.48763124,12.3358291 C5.48892931,12.4177752 5.490565,12.4835689 5.49281389,12.5372491 L5.494,12.569 L5.54847808,12.5484818 C5.69906443,12.4889405 5.92636332,12.3915898 6.2179782,12.2554207 L6.36908791,12.1840966 C6.38987676,12.1741798 6.38987676,12.1741798 6.41071239,12.164234 C7.37018054,11.706187 7.63638111,11.5967742 8,11.5967742 C11.2354739,11.5967742 13.8,9.69406131 13.8,7.4483871 C13.8,5.20271288 11.2354739,3.3 8,3.3 Z M11.0875003,5.22264477 C11.2374999,5.36944116 11.2374999,5.6058193 11.0875003,5.75261569 L7.63917585,9.12402842 C7.48102054,9.27768962 7.26446631,9.35933805 7.04209455,9.34914871 C6.81972279,9.33895937 6.6118727,9.23786424 6.46901221,9.07041015 L5.2966819,7.6835276 C5.1579943,7.52004067 5.16979125,7.27968155 5.32384849,7.13001695 C5.48010758,6.9782336 5.72586799,6.96088204 5.90268033,7.08914936 L6.65634506,7.63677507 C6.87292882,7.79380975 7.1698696,7.78925693 7.38134318,7.62565909 L10.5161684,5.19109499 C10.6873816,5.05850418 10.932543,5.07204235 11.0875003,5.22264477 Z" id="形状结合" fill="#000000" fill-rule="nonzero"></path>
        </g>
    </g>
</svg>