<?xml version="1.0" encoding="UTF-8"?>
<svg width="16px" height="16px" viewBox="0 0 16 16" version="1.1" xmlns="http://www.w3.org/2000/svg" xmlns:xlink="http://www.w3.org/1999/xlink">
    <title>mission-history-third-menu</title>
    <g id="mission-history-third-menu" stroke="none" stroke-width="1" fill="none" fill-rule="evenodd">
        <path d="M14,1 C14.5522847,1 15,1.44771525 15,2 L15,7.4 C15,7.73137085 14.7313708,8 14.4,8 C14.0686292,8 13.8,7.73137085 13.8,7.4 L13.8,2.2 L13.8,2.2 L2.2,2.2 L2.2,13.8 L7.4,13.8 C7.73137085,13.8 8,14.0686292 8,14.4 C8,14.7313708 7.73137085,15 7.4,15 L2,15 L2,15 C1.44771525,15 1,14.5522847 1,14 L1,2 C1,1.44771525 1.44771525,1 2,1 L14,1 Z" id="路径" fill="#262626" fill-rule="nonzero"></path>
        <polygon id="路径-36" fill="#262626" fill-rule="nonzero" points="7.075736 3.5 7.92426414 4.34852814 5.00000007 7.27279221 3.075736 5.34852814 3.92426414 4.5 5.00000007 5.57526407"></polygon>
        <path d="M5.5,8.5 C4.3954305,8.5 3.5,9.3954305 3.5,10.5 C3.5,11.6045695 4.3954305,12.5 5.5,12.5 C6.6045695,12.5 7.5,11.6045695 7.5,10.5 C7.5,9.3954305 6.6045695,8.5 5.5,8.5 Z M5.5,9.5 C6.05228475,9.5 6.5,9.94771525 6.5,10.5 C6.5,11.0522847 6.05228475,11.5 5.5,11.5 C4.94771525,11.5 4.5,11.0522847 4.5,10.5 C4.5,9.94771525 4.94771525,9.5 5.5,9.5 Z" id="椭圆形" fill="#262626" fill-rule="nonzero"></path>
        <polygon id="路径-37" fill="#262626" fill-rule="nonzero" points="12.5 4.9 12.5 6.1 8.5 6.1 8.5 4.9"></polygon>
        <path d="M12,9 C13.6568542,9 15,10.3431458 15,12 C15,13.6568542 13.6568542,15 12,15 C10.3431458,15 9,13.6568542 9,12 C9,10.3431458 10.3431458,9 12,9 Z M12,10 C10.8954305,10 10,10.8954305 10,12 C10,13.1045695 10.8954305,14 12,14 C13.1045695,14 14,13.1045695 14,12 C14,10.8954305 13.1045695,10 12,10 Z" id="椭圆形备份-4" fill="#262626" fill-rule="nonzero"></path>
        <path d="M12.5,10.5 L12.5,11.75 L13.362055,12.6551577 L13.7068973,13.0172127 L12.9827873,13.7068973 L12.637945,13.3448423 L11.637945,12.2949276 C11.5493928,12.2019553 11.5,12.0784806 11.5,11.9500853 L11.5,10.5 L12.5,10.5 Z" id="路径" fill="#262626" fill-rule="nonzero"></path>
    </g>
</svg>