<?xml version="1.0" encoding="UTF-8"?>
<svg width="16px" height="16px" viewBox="0 0 16 16" version="1.1" xmlns="http://www.w3.org/2000/svg" xmlns:xlink="http://www.w3.org/1999/xlink">
    <title>model-settings-third-menu</title>
    <g id="model-settings-third-menu" stroke="none" stroke-width="1" fill="none" fill-rule="evenodd">
        <g id="编组">
            <rect id="矩形" x="0" y="0" width="16" height="16"></rect>
            <path d="M7.80217783,0.480384758 L13.8643557,3.98038476 C14.0499963,4.08756443 14.1643557,4.28564065 14.1643557,4.5 L14.1643557,8.16321832 C14.1643557,8.49458917 13.8957265,8.76321832 13.5643557,8.76321832 C13.2329848,8.76321832 12.9643557,8.49458917 12.9643557,8.16321832 L12.964,4.846 L7.502,1.692 L2.04,4.846 L2.04,11.153 L7.502,14.307 L8.06985875,13.9794289 C8.32813676,13.8303121 8.6511975,13.8950437 8.83401154,14.1186864 L8.88947399,14.1990442 C9.05515941,14.4860198 8.95683432,14.852974 8.66985875,15.0186594 L7.80217783,15.5196152 C7.61653718,15.6267949 7.38781847,15.6267949 7.20217783,15.5196152 L1.14,12.0196152 C0.954359354,11.9124356 0.84,11.7143594 0.84,11.5 L0.84,4.5 C0.84,4.28564065 0.954359354,4.08756443 1.14,3.98038476 L7.20217783,0.480384758 C7.38781847,0.373205081 7.61653718,0.373205081 7.80217783,0.480384758 Z M12.8377207,9.44535242 L12.8529206,9.44801781 C13.0908865,9.48929024 13.2830476,9.67019846 13.3292529,9.90895832 L13.38,10.173 L13.5285053,10.2465615 L13.68,10.338 L13.9706418,10.2402943 C14.1624249,10.1768931 14.3722391,10.214709 14.5271076,10.3366953 L14.5996252,10.4046238 L14.6115415,10.417792 C14.8493605,10.6830426 15.0333249,10.9844231 15.1592205,11.3170246 L15.1631053,11.3277095 C15.2509808,11.5606426 15.1783197,11.8209757 14.985681,11.9762584 L14.769,12.15 L14.7718647,12.1698152 L14.7756153,12.3004186 C14.7756153,12.3439343 14.7743607,12.3874993 14.7718647,12.4310219 L14.769,12.45 L14.985681,12.6245787 C15.1787197,12.7819908 15.2517641,13.0426333 15.164526,13.2681867 L15.1575403,13.2872072 C15.0332766,13.6147754 14.8494467,13.9159354 14.6102361,14.1833778 L14.601814,14.1926598 C14.4437735,14.3701096 14.1936941,14.4337563 13.9686159,14.3587509 L13.681,14.261 L13.5294646,14.3528443 L13.38,14.426 L13.3293694,14.6901632 C13.2888379,14.8996026 13.136648,15.0642904 12.9402953,15.1297554 L12.8536371,15.1515782 L12.836121,15.1546456 C12.660361,15.1847237 12.4798008,15.2 12.3,15.2 C12.1204515,15.2 11.9405645,15.1847663 11.7622793,15.1543685 L11.7470794,15.1517032 C11.5091135,15.1104307 11.3169524,14.9295225 11.2707709,14.6908848 L11.218,14.423 L11.0731768,14.3514797 L10.923,14.26 L10.6293582,14.3594266 C10.4375751,14.4228279 10.2277609,14.3850119 10.0728924,14.2630256 L10.0003748,14.1950972 L9.98845846,14.181929 C9.75104612,13.9171318 9.56694933,13.615371 9.44077947,13.2826964 L9.4368947,13.2720115 C9.3490192,13.0390784 9.42168034,12.7787453 9.61454441,12.6232803 L9.834,12.445 L9.83335876,12.4305926 L9.82969015,12.2998605 C9.82969015,12.25634 9.8309103,12.2128781 9.83335452,12.1695788 L9.834,12.154 L9.61318156,11.9753343 C9.44535837,11.838481 9.36886917,11.6224864 9.41038095,11.4181356 L9.435474,11.3315343 L9.44245966,11.3125138 C9.56672342,10.9849455 9.75055333,10.6837855 9.98976386,10.4163432 L9.998186,10.4070612 C10.1562265,10.2296114 10.4063059,10.1659647 10.6313318,10.2409525 L10.923,10.338 L11.0721702,10.2490036 L11.218,10.176 L11.2706306,9.90955774 C11.3111621,9.70011837 11.463352,9.53543059 11.6597047,9.46996554 L11.7463629,9.44814275 L11.7640048,9.44505381 C12.1157067,9.38498206 12.4842933,9.38498206 12.8377207,9.44535242 Z M12.0986749,10.208299 L12.024,10.217 L11.9627774,10.5388674 L11.9191827,10.7619368 L11.7052359,10.8386651 C11.5332847,10.9003324 11.3743624,10.9875543 11.2322848,11.0981354 L11.062727,11.2301048 L10.8590769,11.1616035 L10.509,11.043 L10.4626862,11.1004183 C10.3866448,11.202489 10.3209361,11.3099104 10.2661177,11.4214677 L10.249,11.461 L10.5082337,11.6701021 L10.6912537,11.8180152 L10.6508739,12.0498429 C10.6367941,12.1306775 10.6296901,12.2147978 10.6296901,12.2998605 C10.6296901,12.3854178 10.6367834,12.4694114 10.6508117,12.5495219 L10.691443,12.7815528 L10.5082337,12.9296189 L10.249,13.139 L10.2655075,13.1766502 C10.320813,13.2895933 10.3865506,13.3973331 10.4621279,13.4988806 L10.509,13.556 L10.8590769,13.4381175 L11.062727,13.3696162 L11.2322848,13.5015855 C11.3752106,13.6128268 11.5340314,13.7001066 11.7043551,13.7607411 L11.9190639,13.8371766 L11.9627774,14.0608536 L12.026,14.383 C12.0759725,14.3898949 12.1206984,14.393678 12.1654987,14.3962043 L12.3,14.4 C12.4346674,14.4 12.5700841,14.3885431 12.6995779,14.366386 L12.574,14.383 L12.6366093,14.063208 L12.680284,13.8393591 L12.8951675,13.7629335 C13.0690388,13.7010944 13.228614,13.613879 13.3710317,13.5028734 L13.5406674,13.370653 L13.7445123,13.4392512 L14.091,13.556 L14.1373138,13.4993026 C14.2133552,13.397232 14.2790639,13.2898106 14.3338823,13.1782532 L14.35,13.139 L14.0962568,12.9339011 L13.9138679,12.7862793 L13.9537205,12.5550442 C13.9682417,12.4707886 13.9756153,12.3852497 13.9756153,12.3004186 C13.9756153,12.2155874 13.9682417,12.1300485 13.9537205,12.0457929 L13.9138679,11.8145578 L14.0962568,11.666936 L14.35,11.46 L14.3345694,11.4229931 C14.2793647,11.3101792 14.2136895,11.202576 14.1380558,11.1010084 L14.091,11.043 L13.7445123,11.1604697 L13.5411475,11.2289063 L13.3716524,11.0973304 C13.2280094,10.985823 13.0680027,10.8982581 12.8951675,10.8367874 L12.680284,10.7603618 L12.6366093,10.536513 L12.574,10.217 L12.50208,10.2084037 C12.3680547,10.1971832 12.2322688,10.1971718 12.0986749,10.208299 Z M12.3005895,11.2201351 C12.5785446,11.2201351 12.8427457,11.323631 13.0431485,11.5133508 C13.2463587,11.7066385 13.360825,11.9679285 13.360825,12.2451699 C13.360825,12.5224114 13.2463587,12.7837013 13.0431485,12.9769891 C12.8419637,13.1665554 12.5779653,13.2702048 12.3005895,13.2702048 C12.0232137,13.2702048 11.7592153,13.1665554 11.5580305,12.9769891 C11.3548203,12.7837013 11.240354,12.5224114 11.240354,12.2451699 C11.240354,11.9679285 11.3548203,11.7066385 11.5587155,11.5127008 C11.7584333,11.323631 12.0226344,11.2201351 12.3005895,11.2201351 Z M12.3005895,12.0201351 C12.225633,12.0201351 12.1586529,12.0463733 12.1093869,12.0930112 C12.0633626,12.1367881 12.040354,12.1893094 12.040354,12.2451699 C12.040354,12.3010304 12.0633626,12.3535517 12.1080155,12.3960304 C12.1586178,12.4437089 12.2261038,12.4702048 12.3005895,12.4702048 C12.3750752,12.4702048 12.4425612,12.4437089 12.4931635,12.3960304 C12.5378164,12.3535517 12.560825,12.3010304 12.560825,12.2451699 C12.560825,12.1893094 12.5378164,12.1367881 12.4924771,12.0936612 C12.4425261,12.0463733 12.375546,12.0201351 12.3005895,12.0201351 Z M9.71489778,5.375 L10.1271778,6.0817658 L7.47717783,7.596 L7.47695788,10.625 L6.65239778,10.625 L6.65317783,7.596 L4.00217783,6.0817658 L4.41445788,5.375 L7.06517783,6.89 L9.71489778,5.375 Z" id="形状结合" fill="#262626" fill-rule="nonzero"></path>
        </g>
    </g>
</svg>