<?xml version="1.0" encoding="UTF-8"?>
<svg width="16px" height="16px" viewBox="0 0 16 16" version="1.1" xmlns="http://www.w3.org/2000/svg" xmlns:xlink="http://www.w3.org/1999/xlink">
    <title>next-artifact-third-menu</title>
    <g id="next-artifact-third-menu" stroke="none" stroke-width="1" fill="none" fill-rule="evenodd">
        <g id="编组">
            <rect id="矩形" x="0" y="0" width="16" height="16"></rect>
        </g>
        <g id="编组-2" transform="translate(2.000000, 1.000000)">
            <g id="编组" transform="translate(3.375000, 0.000000)">
                <path d="M4.69652087,0.783204779 L8.99378131,3.68575464 L9.025,13.188 L0.699351462,13.3947051 L0.6,3.880382 L4.69652087,0.783204779 Z" id="路径" stroke="#262626" stroke-width="1.2"></path>
                <path d="M7.25833333,10.571039 L5.59166667,10.571039 C5.49961921,10.571039 5.425,10.7416166 5.425,10.9520347 L5.425,11.3330304 C5.425,11.5434484 5.49961921,11.714026 5.59166667,11.714026 L7.25833333,11.714026 C7.35038079,11.714026 7.425,11.5434484 7.425,11.3330304 L7.425,10.9520347 C7.425,10.7416166 7.35038079,10.571039 7.25833333,10.571039 Z" id="路径" fill="#262626"></path>
                <path d="M4.06730733,10.571039 L2.40064067,10.571039 C2.30859321,10.571039 2.233974,10.7416166 2.233974,10.9520347 L2.233974,11.3330304 C2.233974,11.5434484 2.30859321,11.714026 2.40064067,11.714026 L4.06730733,11.714026 C4.15935479,11.714026 4.233974,11.5434484 4.233974,11.3330304 L4.233974,10.9520347 C4.233974,10.7416166 4.15935479,10.571039 4.06730733,10.571039 Z" id="路径" fill="#262626"></path>
                <path d="M7.25833333,7.90406938 L5.59166667,7.90406938 C5.49961921,7.90406938 5.425,8.07464695 5.425,8.28506505 L5.425,8.66606071 C5.425,8.8764788 5.49961921,9.04705637 5.59166667,9.04705637 L7.25833333,9.04705637 C7.35038079,9.04705637 7.425,8.8764788 7.425,8.66606071 L7.425,8.28506505 C7.425,8.07464695 7.35038079,7.90406938 7.25833333,7.90406938 Z" id="路径" fill="#262626"></path>
                <path d="M4.06730733,7.90406938 L2.40064067,7.90406938 C2.30859321,7.90406938 2.233974,8.07464695 2.233974,8.28506505 L2.233974,8.66606071 C2.233974,8.8764788 2.30859321,9.04705637 2.40064067,9.04705637 L4.06730733,9.04705637 C4.15935479,9.04705637 4.233974,8.8764788 4.233974,8.66606071 L4.233974,8.28506505 C4.233974,8.07464695 4.15935479,7.90406938 4.06730733,7.90406938 Z" id="路径" fill="#262626"></path>
                <path d="M7.25833333,5.23709974 L5.59166667,5.23709974 C5.49961921,5.23709974 5.425,5.40767731 5.425,5.6180954 L5.425,5.99909107 C5.425,6.20950916 5.49961921,6.38008673 5.59166667,6.38008673 L7.25833333,6.38008673 C7.35038079,6.38008673 7.425,6.20950916 7.425,5.99909107 L7.425,5.6180954 C7.425,5.40767731 7.35038079,5.23709974 7.25833333,5.23709974 Z" id="路径" fill="#262626"></path>
            </g>
            <g id="编组备份" transform="translate(0.000000, 6.000000)" stroke="#262626" stroke-width="1.2">
                <path d="M3.86858974,7 L0.448717949,7 C0.200897869,7 0,6.80584667 0,6.5663464 L0,2.10875398 C0,1.95525593 0.083964948,1.81319427 0.220775953,1.73521956 L3.261029,0.0300595876 C3.33135065,-0.0100198625 3.41864935,-0.0100198625 3.488971,0.0300595876 C3.66524947,0.104479865 3.79745832,0.160295073 3.88559756,0.197505212" id="路径"></path>
            </g>
        </g>
    </g>
</svg>