<?xml version="1.0" encoding="UTF-8"?>
<svg width="16px" height="16px" viewBox="0 0 16 16" version="1.1" xmlns="http://www.w3.org/2000/svg" xmlns:xlink="http://www.w3.org/1999/xlink">
    <title>notification-configuration-third-menu</title>
    <g id="notification-configuration-third-menu" stroke="none" stroke-width="1" fill="none" fill-rule="evenodd">
        <rect id="矩形" fill="#000000" opacity="0" x="0" y="0" width="16" height="16"></rect>
        <g id="系统管路-Next-Documents" transform="translate(1.000000, 1.500000)">
            <path d="M10.8278874,5.12962963 L11.5106383,5.12962963 C12.062923,5.12962963 12.5106383,5.57734488 12.5106383,6.12962963 C12.5106383,6.37221689 12.5106383,6.55415733 12.5106383,6.67545096 M1,12.7555556 C0.44771525,12.7555556 0,12.3078403 0,11.7555556 L0,4.73333333 C0,4.18104858 0.44771525,3.73333333 1,3.73333333 L2.3149873,3.73333333" id="形状" stroke="#262626" stroke-width="1.2" stroke-linejoin="round"></path>
            <path d="M2.27148257,6.86219391 L12.7214252,6.86219391 C13.27371,6.86219391 13.7214252,7.30990916 13.7214252,7.86219391 C13.7214252,7.94339716 13.7115344,8.02429811 13.6919713,8.1031096 L12.6990635,12.1031096 C12.5883651,12.5490659 12.1880076,12.8621939 11.7285174,12.8621939 L1.27857476,12.8621939 C0.726290015,12.8621939 0.278574765,12.4144787 0.278574765,11.8621939 C0.278574765,11.7809907 0.288465581,11.7000897 0.308028716,11.6212782 L1.30093652,7.62127823 C1.4116349,7.1753219 1.81199244,6.86219391 2.27148257,6.86219391 Z" id="矩形" stroke="#262626" stroke-width="1.2" stroke-linejoin="round"></path>
            <g id="编组" transform="translate(6.533333, 3.567034) rotate(-360.000000) translate(-6.533333, -3.567034) translate(1.866667, 0.000000)">
                <path d="M-4.34749614e-14,7.13406804 L-4.34749614e-14,7.13406804 L-4.34749614e-14,1 C-4.34749614e-14,0.44771525 0.44771525,0 1,0 L8.33333333,0 C8.88561808,0 9.33333333,0.44771525 9.33333333,1 L9.33333333,7.07050667 L9.33333333,7.07050667" id="路径" stroke="#262626" stroke-width="1.2" stroke-linejoin="round"></path>
                <path d="M8.08888889,2.15555556 C8.08888889,2.48692641 7.82025974,2.75555556 7.48888889,2.75555556 L1.84444444,2.75555556 C1.51307359,2.75555556 1.24444444,2.48692641 1.24444444,2.15555556 C1.24444444,1.82418471 1.51307359,1.55555556 1.84444444,1.55555556 L7.48888889,1.55555556 C7.82025974,1.55555556 8.08888889,1.82418471 8.08888889,2.15555556 Z" id="直线-5备份-68" fill="#2E2D26"></path>
                <path d="M5.6,4.64444444 C5.6,4.97581529 5.33137085,5.24444444 5,5.24444444 L2.15555556,5.24444444 C1.82418471,5.24444444 1.55555556,4.97581529 1.55555556,4.64444444 C1.55555556,4.31307359 1.82418471,4.04444444 2.15555556,4.04444444 L5,4.04444444 C5.33137085,4.04444444 5.6,4.31307359 5.6,4.64444444 Z" id="直线-5备份-69" fill="#2E2D26"></path>
            </g>
            <rect id="矩形" fill="#262626" fill-rule="nonzero" x="5.91111111" y="10.2" width="2.48888889" height="1.2" rx="0.6"></rect>
        </g>
    </g>
</svg>