<?xml version="1.0" encoding="UTF-8"?>
<svg width="16px" height="16px" viewBox="0 0 16 16" version="1.1" xmlns="http://www.w3.org/2000/svg" xmlns:xlink="http://www.w3.org/1999/xlink">
    <title>operations-center-third-menu</title>
    <g id="operations-center-third-menu" stroke="none" stroke-width="1" fill="none" fill-rule="evenodd">
        <g id="编组" transform="translate(1.85, 1)">
            <path d="M11.4667217,0.6 L11.8667217,13 L1,13.4 L0.6,1 L11.4667217,0.6 Z" id="矩形备份-50" stroke="#262626" stroke-width="1.2"></path>
            <path d="M3.48148913,5.04076522 L3.48148913,5.07965869 C3.48148913,5.35580107 3.2576315,5.57965869 2.98148913,5.57965869 L2.94259565,5.57965869 C2.66645328,5.57965869 2.44259565,5.35580107 2.44259565,5.07965869 L2.44259565,5.04076522 C2.44259565,4.76462284 2.66645328,4.54076522 2.94259565,4.54076522 L2.98148913,4.54076522 C3.2576315,4.54076522 3.48148913,4.76462284 3.48148913,5.04076522 Z M5.21297826,3.65557391 L5.21297826,5.07965869 C5.21297826,5.35580107 4.98912063,5.57965869 4.71297826,5.57965869 L4.67408478,5.57965869 C4.39794241,5.57965869 4.17408478,5.35580107 4.17408478,5.07965869 L4.17408478,3.65557391 C4.17408478,3.37943154 4.39794241,3.15557391 4.67408478,3.15557391 L4.71297826,3.15557391 C4.98912063,3.15557391 5.21297826,3.37943154 5.21297826,3.65557391 Z M10.4074456,2.96297826 L10.4074456,5.07965869 C10.4074456,5.35580107 10.183588,5.57965869 9.90744565,5.57965869 L9.86855217,5.57965869 C9.5924098,5.57965869 9.36855217,5.35580107 9.36855217,5.07965869 L9.36855217,2.96297826 C9.36855217,2.68683588 9.5924098,2.46297826 9.86855217,2.46297826 L9.90744565,2.46297826 C10.183588,2.46297826 10.4074456,2.68683588 10.4074456,2.96297826 Z M6.94446739,4.00187174 L6.94446739,5.07965869 C6.94446739,5.35580107 6.72060976,5.57965869 6.44446739,5.57965869 L6.40557391,5.57965869 C6.12943154,5.57965869 5.90557391,5.35580107 5.90557391,5.07965869 L5.90557391,4.00187174 C5.90557391,3.72572936 6.12943154,3.50187174 6.40557391,3.50187174 L6.44446739,3.50187174 C6.72060976,3.50187174 6.94446739,3.72572936 6.94446739,4.00187174 Z M8.67595652,4.00187174 L8.67595652,5.07965869 C8.67595652,5.35580107 8.45209889,5.57965869 8.17595652,5.57965869 L8.13706304,5.57965869 C7.86092067,5.57965869 7.63706304,5.35580107 7.63706304,5.07965869 L7.63706304,4.00187174 C7.63706304,3.72572936 7.86092067,3.50187174 8.13706304,3.50187174 L8.17595652,3.50187174 C8.45209889,3.50187174 8.67595652,3.72572936 8.67595652,4.00187174 Z M9.52596027,10.2352326 C9.52596027,10.511375 9.30210265,10.7352326 9.02596027,10.7352326 L8.13706304,10.7352326 C7.86092067,10.7352326 7.63706304,10.511375 7.63706304,10.2352326 C7.63706304,9.95909023 7.86092067,9.73523261 8.13706304,9.73523261 L9.02596027,9.73523261 C9.30210265,9.73523261 9.52596027,9.95909023 9.52596027,10.2352326 Z M10.7537435,8.8500413 C10.7537435,9.12618368 10.5298859,9.3500413 10.2537435,9.3500413 L8.13706304,9.3500413 C7.86092067,9.3500413 7.63706304,9.12618368 7.63706304,8.8500413 C7.63706304,8.57389893 7.86092067,8.3500413 8.13706304,8.3500413 L10.2537435,8.3500413 C10.5298859,8.3500413 10.7537435,8.57389893 10.7537435,8.8500413 Z M4.17408478,11.8130196 C2.83529972,11.8130196 1.75,10.7277198 1.75,9.38893478 C1.75,8.05014972 2.83529972,6.96485 4.17408478,6.96485 C5.51286984,6.96485 6.59816956,8.05014972 6.59816956,9.38893478 C6.59816956,9.45306003 6.59567964,9.51660372 6.5907912,9.57947445 C6.58931688,9.59841979 6.58764091,9.61714455 6.58575327,9.63580678 C6.58116474,9.68123361 6.57527009,9.72661619 6.56813876,9.77158705 C6.56545591,9.78850909 6.56258355,9.80545259 6.55953636,9.82233531 C6.53769235,9.94326272 6.50698886,10.0607518 6.46807313,10.1744306 C6.46126096,10.1943212 6.45431086,10.2137899 6.4471207,10.2331419 C6.43251743,10.2724597 6.41681459,10.3115469 6.40013876,10.3501152 C6.39255038,10.3676629 6.3848236,10.3849663 6.37690142,10.4021611 C6.32681816,10.5108815 6.26884805,10.6153754 6.20377014,10.7147969 C6.19427178,10.7293149 6.18431835,10.7441673 6.17420632,10.7589023 C6.15144288,10.7920624 6.12809188,10.8243447 6.10397906,10.8560155 C6.05667356,10.9181392 6.00655823,10.9777787 5.95372978,11.0348711 L6.06268519,10.9087324 C6.03454012,10.943663 6.00544582,10.9777966 5.97544146,11.011094 L5.95372978,11.0348711 L5.94000241,11.0495842 C5.49787881,11.5195545 4.87025301,11.8130196 4.17408478,11.8130196 Z M4.17408478,7.74402011 C3.26562349,7.74402011 2.52917011,8.48047349 2.52917011,9.38893478 C2.52917011,10.2973961 3.26562349,11.0338495 4.17408478,11.0338495 C4.65120499,11.0338495 5.08088012,10.8307129 5.38134164,10.5062084 L4.17408478,9.38893478 L4.17408478,7.74402011 Z" id="形状结合" fill="#262626" fill-rule="nonzero"></path>
        </g>
    </g>
</svg>