<?xml version="1.0" encoding="UTF-8"?>
<svg width="16px" height="16px" viewBox="0 0 16 16" version="1.1" xmlns="http://www.w3.org/2000/svg" xmlns:xlink="http://www.w3.org/1999/xlink">
    <title>operational-dimensions-third-menu</title>
    <g id="operational-dimensions-third-menu" stroke="none" stroke-width="1" fill="none" fill-rule="evenodd">
        <g id="编组备份" transform="translate(-0.9301, -1.7301)" fill="#262626" fill-rule="nonzero">
            <g id="架构拓扑" transform="translate(1.8003, 2.6681)">
                <path d="M7.05447917,0 C8.27204718,0 9.25908107,0.987033892 9.25908107,2.2046019 C9.25908107,3.42216991 8.27204718,4.4092038 7.05447917,4.4092038 C5.83691116,4.4092038 4.84987727,3.42216991 4.84987727,2.2046019 C4.84987727,0.987033892 5.83691116,0 7.05447917,0 Z M7.05447917,1.2 C6.49965286,1.2 6.04987727,1.64977559 6.04987727,2.2046019 C6.04987727,2.75942821 6.49965286,3.2092038 7.05447917,3.2092038 C7.60930548,3.2092038 8.05908107,2.75942821 8.05908107,2.2046019 C8.05908107,1.64977559 7.60930548,1.2 7.05447917,1.2 Z" id="矩形"></path>
                <path d="M8.08249645,3.31455845 C8.36664461,3.14406955 8.73520076,3.23620859 8.90568966,3.52035675 L11.5470757,7.92266675 C11.7175646,8.20681491 11.6254255,8.57537106 11.3412774,8.74585996 C11.0571292,8.91634886 10.688573,8.82420982 10.5180841,8.54006166 L7.87669815,4.13775165 C7.70620925,3.85360349 7.79834829,3.48504734 8.08249645,3.31455845 Z M9.77570059,9.81960392 C10.1070714,9.81960392 10.3757006,10.0882331 10.3757006,10.4196039 C10.3757006,10.7509748 10.1070714,11.0196039 9.77570059,11.0196039 L4.3055026,11.0196039 C3.97413175,11.0196039 3.7055026,10.7509748 3.7055026,10.4196039 C3.7055026,10.0882331 3.97413175,9.81960392 4.3055026,9.81960392 L9.77570059,9.81960392 Z M5.21468939,3.50132224 C5.38517828,3.21717408 5.75373444,3.12503504 6.03788259,3.29552394 C6.32203075,3.46601284 6.41416979,3.83456899 6.2436809,4.11871715 L3.42262545,8.82047623 C3.25213655,9.10462439 2.8835804,9.19676343 2.59943224,9.02627453 C2.31528408,8.85578564 2.22314504,8.48722948 2.39363394,8.20308133 L5.21468939,3.50132224 Z" id="形状"></path>
                <path d="M2.2046019,7.93656685 C3.42216991,7.93656685 4.4092038,8.92360074 4.4092038,10.1411687 C4.4092038,11.3587368 3.42216991,12.3457707 2.2046019,12.3457707 C0.987033892,12.3457707 0,11.3587368 0,10.1411687 C0,8.92360074 0.987033892,7.93656685 2.2046019,7.93656685 Z M2.2046019,9.13656685 C1.64977559,9.13656685 1.2,9.58634244 1.2,10.1411687 C1.2,10.6959951 1.64977559,11.1457707 2.2046019,11.1457707 C2.75942821,11.1457707 3.2092038,10.6959951 3.2092038,10.1411687 C3.2092038,9.58634244 2.75942821,9.13656685 2.2046019,9.13656685 Z" id="矩形备份"></path>
                <path d="M11.9048503,7.93656685 C13.1224183,7.93656685 14.1094522,8.92360074 14.1094522,10.1411687 C14.1094522,11.3587368 13.1224183,12.3457707 11.9048503,12.3457707 C10.6872823,12.3457707 9.70024837,11.3587368 9.70024837,10.1411687 C9.70024837,8.92360074 10.6872823,7.93656685 11.9048503,7.93656685 Z M11.9048503,9.13656685 C11.350024,9.13656685 10.9002484,9.58634244 10.9002484,10.1411687 C10.9002484,10.6959951 11.350024,11.1457707 11.9048503,11.1457707 C12.4596766,11.1457707 12.9094522,10.6959951 12.9094522,10.1411687 C12.9094522,9.58634244 12.4596766,9.13656685 11.9048503,9.13656685 Z" id="矩形备份-2"></path>
            </g>
            <path d="M14.756369,6.5897557 C15.0742724,6.49624619 15.4077885,6.67815344 15.501298,6.9960569 C15.7193552,7.73738396 15.8319672,8.52115974 15.8319672,9.32248725 C15.8319672,10.1611288 15.7086166,10.9804227 15.4703041,11.7517022 C15.3724792,12.0683043 15.0365198,12.2456584 14.7199176,12.1478336 C14.4033154,12.0500088 14.2259613,11.7140493 14.3237861,11.3974471 C14.5265965,10.7410678 14.6319672,10.0411959 14.6319672,9.32248725 C14.6319672,8.63565029 14.5357403,7.96591403 14.3500678,7.33468478 C14.2565583,7.01678132 14.4384655,6.68326521 14.756369,6.5897557 Z M7.82349569,2.48798671 C8.15002574,2.43155301 8.46047921,2.65050936 8.51691291,2.97703942 C8.57334662,3.30356948 8.35439026,3.61402294 8.02786021,3.67045665 C6.36152746,3.95844645 4.90992291,4.8369328 4.00062465,6.07914245 C3.80489577,6.34653139 3.4294646,6.40462335 3.16207566,6.20889447 C2.89468672,6.01316559 2.83659476,5.63773442 3.03232363,5.37034548 C4.12809982,3.8733848 5.85522049,2.82816079 7.82349569,2.48798671 Z M2.9019262,12.4612449 C3.16379994,12.2581962 3.54069407,12.3058833 3.74374278,12.567757 C4.75767052,13.8754287 6.1882728,14.7432667 7.77049127,14.9879817 C8.09796839,15.0386312 8.32238152,15.3451634 8.27173202,15.6726406 C8.22108252,16.0001177 7.91455032,16.2245308 7.58707319,16.1738813 C5.69600017,15.8813971 3.99404981,14.8489527 2.79541407,13.3030615 C2.59236535,13.0411877 2.64005245,12.6642936 2.9019262,12.4612449 Z" id="形状" transform="translate(9.2508, 9.3301) rotate(-33) translate(-9.2508, -9.3301)"></path>
        </g>
    </g>
</svg>