<?xml version="1.0" encoding="UTF-8"?>
<svg width="16px" height="16px" viewBox="0 0 16 16" version="1.1" xmlns="http://www.w3.org/2000/svg" xmlns:xlink="http://www.w3.org/1999/xlink">
    <title>ops-metrics-thid-menu</title>
    <g id="ops-metrics-thid-menu" stroke="none" stroke-width="1" fill="none" fill-rule="evenodd">
        <g id="Dashboard" transform="translate(1.000000, 1.200000)" fill="#262626" fill-rule="nonzero">
            <g id="基础设施监控">
                <path d="M13,0 C13.5522847,0 14,0.44771525 14,1 L14,8.86363636 C14,9.41592111 13.5522847,9.86363636 13,9.86363636 L5.829,9.863 L4.71689476,12.2999333 L9.26089476,12.2999333 L8.96782121,11.7841837 C8.82037225,11.5249498 8.88718493,11.202313 9.11200137,11.0209444 L9.192715,10.966001 C9.48075259,10.8021689 9.84706542,10.9028572 10.0108976,11.1908948 L10.5148261,12.0768646 L10.5678939,12.2008011 C10.7193084,12.7045631 10.4694219,13.2588173 9.97321567,13.4422503 C9.87003251,13.4803942 9.76109437,13.5 9.65111584,13.5 L4.37257583,13.5 C3.82736743,13.5 3.41189476,13.0392354 3.41189476,12.5 C3.41189476,12.3986473 3.42665927,12.2977461 3.48410502,12.1254007 L4.511,9.863 L1,9.86363636 C0.44771525,9.86363636 0,9.41592111 0,8.86363636 L0,1 C0,0.44771525 0.44771525,0 1,0 L13,0 Z M12.8,1.2 L1.2,1.2 L1.2,8.663 L12.8,8.663 L12.8,1.2 Z M3.94545455,6.37272727 C4.18645153,6.37272727 4.38181818,6.56809393 4.38181818,6.80909091 L4.38181818,7.39090909 C4.38181818,7.63190607 4.18645153,7.82727273 3.94545455,7.82727273 C3.70445756,7.82727273 3.50909091,7.63190607 3.50909091,7.39090909 L3.50909091,6.80909091 C3.50909091,6.56809393 3.70445756,6.37272727 3.94545455,6.37272727 Z M5.98181818,5.20909091 C6.22281516,5.20909091 6.41818182,5.40445756 6.41818182,5.64545455 L6.41818182,7.39090909 C6.41818182,7.63190607 6.22281516,7.82727273 5.98181818,7.82727273 C5.7408212,7.82727273 5.54545455,7.63190607 5.54545455,7.39090909 L5.54545455,5.64545455 C5.54545455,5.40445756 5.7408212,5.20909091 5.98181818,5.20909091 Z M10.0545455,4.62727273 C10.2955424,4.62727273 10.4909091,4.82263938 10.4909091,5.06363636 L10.4909091,7.39090909 C10.4909091,7.63190607 10.2955424,7.82727273 10.0545455,7.82727273 C9.81354847,7.82727273 9.61818182,7.63190607 9.61818182,7.39090909 L9.61818182,5.06363636 C9.61818182,4.82263938 9.81354847,4.62727273 10.0545455,4.62727273 Z M8.01818182,5.5 C8.2591788,5.5 8.45454545,5.69536665 8.45454545,5.93636364 L8.45454545,7.39090909 C8.45454545,7.63190607 8.2591788,7.82727273 8.01818182,7.82727273 C7.77718484,7.82727273 7.58181818,7.63190607 7.58181818,7.39090909 L7.58181818,5.93636364 C7.58181818,5.69536665 7.77718484,5.5 8.01818182,5.5 Z M10.0545455,2.3 C10.2955424,2.3 10.4909091,2.49536665 10.4909091,2.73636364 C10.4909091,2.97736062 10.2955424,3.17272727 10.0545455,3.17272727 C10.0411567,3.17272727 10.0279088,3.17212429 10.0148275,3.170944 L8.45376902,4.50806629 C8.44019602,4.73684233 8.25036597,4.91818182 8.01818182,4.91818182 C7.77718484,4.91818182 7.58181818,4.72281516 7.58181818,4.48181818 C7.58181818,4.47392227 7.5820279,4.46607534 7.58244206,4.45828266 L6.29870117,3.90908972 C6.21916896,3.99306947 6.10661117,4.04545455 5.98181818,4.04545455 C5.96087685,4.04545455 5.94028005,4.0439794 5.92012604,4.04112734 L4.37409091,5.277 L4.38181818,5.35454545 C4.38181818,5.56876499 4.22745441,5.74693094 4.02389146,5.78387869 L3.94545455,5.79090909 C3.70445756,5.79090909 3.50909091,5.59554244 3.50909091,5.35454545 C3.50909091,5.11354847 3.70445756,4.91818182 3.94545455,4.91818182 C4.00570379,4.91818182 4.06310114,4.93039223 4.11530697,4.95247344 L5.58061715,3.78098795 C5.55798627,3.7282376 5.54545455,3.67012773 5.54545455,3.60909091 C5.54545455,3.36809393 5.7408212,3.17272727 5.98181818,3.17272727 C6.18554386,3.17272727 6.3566617,3.31233799 6.40471732,3.50110504 L7.80559484,4.10065069 C7.86849792,4.06549279 7.94099978,4.04545455 8.01818182,4.04545455 C8.10904953,4.04545455 8.19343016,4.07322906 8.2632973,4.12075168 L9.66067285,2.92442227 C9.63343428,2.86747602 9.61818182,2.80370103 9.61818182,2.73636364 C9.61818182,2.49536665 9.81354847,2.3 10.0545455,2.3 Z" id="形状结合"></path>
            </g>
        </g>
    </g>
</svg>