<?xml version="1.0" encoding="UTF-8"?>
<svg width="16px" height="16px" viewBox="0 0 16 16" version="1.1" xmlns="http://www.w3.org/2000/svg" xmlns:xlink="http://www.w3.org/1999/xlink">
    <title>permission-center-third-menu</title>
    <g id="permission-center-third-menu" stroke="none" stroke-width="1" fill="none" fill-rule="evenodd">
        <g id="编组-5" transform="translate(2.800000, 1.000000)">
            <path d="M5.2526147,0.787266271 C7.19188047,1.92981262 8.77241746,2.55207912 10.2445471,2.68467102 C10.2530458,3.81451464 10.2555571,4.49642853 10.2562931,5.21894897 L10.2551202,6.84892658 C10.2545235,7.10560915 10.2537364,7.36675841 10.2527588,7.63237019 C10.2478805,8.95540851 9.63033737,10.2015253 8.58124777,11.0070251 L5.81077278,13.131458 L2.25134723,10.9889885 C1.21631422,10.1838585 0.608474155,8.94708716 0.603575673,7.63524108 L0.6,6.29091376 L0.599996513,4.81321995 L0.604113755,3.60527355 C0.605792995,3.28433516 0.607923516,2.97752155 0.610779092,2.68484265 C2.08670972,2.55235708 3.63622979,1.92811467 5.2526147,0.787266271 Z" id="路径" stroke="#262626" stroke-width="1.2"></path>
            <path d="M5.39217034,2.9796027 C6.41439371,2.9796027 7.24306949,3.80827848 7.24306949,4.83050186 C7.24306949,4.97762405 7.22590427,5.12073708 7.1934673,5.2579475 L7.401266,5.25763243 C7.78569189,5.25763243 8.09733064,5.56927119 8.09733064,5.95369707 L8.09733064,8.54811982 C8.09733064,8.93254571 7.78569189,9.24418446 7.401266,9.24418446 L3.38307467,9.24418446 C2.99864879,9.24418446 2.68701003,8.93254571 2.68701003,8.54811982 L2.68701003,5.95369707 C2.68701003,5.56927119 2.99864879,5.25763243 3.38307467,5.25763243 L3.59085448,5.25786759 C3.55842974,5.12068152 3.54127118,4.97759549 3.54127118,4.83050186 C3.54127118,3.80827848 4.36994696,2.9796027 5.39217034,2.9796027 Z M5.39217034,6.3966473 C5.07764007,6.3966473 4.8226629,6.65162446 4.8226629,6.96615473 C4.8226629,7.17685807 4.93708745,7.36083611 5.10718695,7.45933928 L5.10741662,7.82041588 L5.10933237,7.85362418 C5.1257812,7.99524322 5.24613843,8.1051696 5.39217034,8.1051696 C5.54943547,8.1051696 5.67692405,7.97768102 5.67692405,7.82041588 L5.67715373,7.45933928 C5.84725322,7.36083611 5.96167777,7.17685807 5.96167777,6.96615473 C5.96167777,6.65162446 5.70670061,6.3966473 5.39217034,6.3966473 Z M5.39217034,3.54911014 C4.68447723,3.54911014 4.11077861,4.12280875 4.11077861,4.83050186 C4.11077861,4.98038202 4.13651113,5.12425203 4.18379921,5.25793827 L6.60054029,5.25793827 C6.64782912,5.12425441 6.67356206,4.98038326 6.67356206,4.83050186 C6.67356206,4.12280875 6.09986344,3.54911014 5.39217034,3.54911014 Z" id="形状结合" fill="#262626"></path>
        </g>
    </g>
</svg>