<?xml version="1.0" encoding="UTF-8"?>
<svg width="16px" height="16px" viewBox="0 0 16 16" version="1.1" xmlns="http://www.w3.org/2000/svg" xmlns:xlink="http://www.w3.org/1999/xlink">
    <title>product-agile-management-third-menu</title>
    <g id="product-agile-management-third-menu" stroke="none" stroke-width="1" fill="none" fill-rule="evenodd">
        <path d="M8.09803922,0.4 C12.2418684,0.4 15.6,3.77339582 15.6,7.93333333 C15.6,12.0932708 12.2418684,15.4666667 8.09803922,15.4666667 C3.95421002,15.4666667 0.596078431,12.0932708 0.596078431,7.93333333 C0.596078431,3.77339582 3.95421002,0.4 8.09803922,0.4 Z M8.09803922,1.6 C4.61817304,1.6 1.79607843,4.43492231 1.79607843,7.93333333 C1.79607843,11.4317444 4.61817304,14.2666667 8.09803922,14.2666667 C11.5779054,14.2666667 14.4,11.4317444 14.4,7.93333333 C14.4,4.43492231 11.5779054,1.6 8.09803922,1.6 Z M8.09803922,3.55151515 C8.47022249,3.55151515 8.81266273,3.76323183 8.99736832,4.10614148 L9.80033333,5.73451515 L11.5993202,5.99860291 C11.9407999,6.0440057 12.2378858,6.26726832 12.3662611,6.55188758 L12.4062508,6.66126834 C12.5361999,7.02410423 12.4368857,7.42731939 12.1618533,7.7015605 L10.8693333,8.97251515 L11.1751977,10.7486243 C11.2432054,11.087708 11.122439,11.4258177 10.8815307,11.6562415 L10.7856926,11.7373942 C10.4782118,11.9673572 10.0567847,11.9958482 9.72704764,11.8187518 L8.10733333,10.9725152 L6.47903723,11.8238892 C6.37212267,11.8771964 6.26415769,11.9141506 6.14876837,11.929296 L6.0306682,11.9369697 C5.82311627,11.9369697 5.61171869,11.8667017 5.4304575,11.7373943 C5.13483109,11.5162972 4.98580189,11.1515256 5.03791118,10.764957 L5.34533333,8.97351515 L4.03138344,7.69874564 C3.78943616,7.45747786 3.68408263,7.11208058 3.7549252,6.78347289 L3.7898277,6.66126819 C3.91505866,6.31160636 4.22039998,6.04864312 4.58886207,5.99970621 L6.39533333,5.73451515 L7.2003972,4.10275011 C7.35332498,3.79775345 7.64514802,3.5994294 7.97342616,3.55912278 L8.09803922,3.55151515 Z M8.09833333,4.99451515 L7.33142858,6.54867407 L7.19202474,6.83113531 L6.88036322,6.87679585 L5.16533333,7.12751515 L6.40852842,8.33458355 L6.63544076,8.55494293 L6.58185083,8.86667292 L6.28833333,10.5695152 L7.83028491,9.76435947 L8.10807501,9.61925903 L8.38586511,9.76435947 L9.92633333,10.5685152 L9.6342992,8.86667292 L9.58113575,8.55742374 L9.80479957,8.33734218 L11.0333333,7.12851515 L9.31571521,6.87679585 L9.00405369,6.83113531 L8.86464985,6.54867407 L8.09833333,4.99451515 Z" id="形状结合" fill="#000000" fill-rule="nonzero"></path>
    </g>
</svg>