<?xml version="1.0" encoding="UTF-8"?>
<svg width="16px" height="16px" viewBox="0 0 16 16" version="1.1" xmlns="http://www.w3.org/2000/svg" xmlns:xlink="http://www.w3.org/1999/xlink">
    <title>proxy-manage-third-menu</title>
    <g id="proxy-manage-third-menu" stroke="none" stroke-width="1" fill="none" fill-rule="evenodd">
        <g id="third-party-events">
            <g id="编组-2" transform="translate(8.882353, 8.305882)"></g>
            <g id="图形">
                <rect id="矩形" x="0" y="0" width="16" height="16"></rect>
            </g>
        </g>
        <g id="后台管理-后台管理备份" transform="translate(1.000007, 1.000000)" fill-rule="nonzero">
            <path d="M2.7979817,12.599325 L11.1969692,12.599325 C11.5834205,12.599325 11.8973067,12.9132112 11.8973067,13.2996625 C11.8973067,13.6861138 11.5834205,14 11.1969692,14 L2.7979817,14 C2.4115304,14 2.09764419,13.6861138 2.09764419,13.2996625 C2.09764419,12.9132112 2.4115304,12.599325 2.7979817,12.599325 Z" id="路径" fill="#262626"></path>
            <path d="M13.2979817,0.6 L13.3983192,10.5 L0.698656725,10.59865 L0.599994325,0.697727965 L13.2979817,0.6 Z" id="路径" stroke="#262626" stroke-width="1.2"></path>
            <path d="M6.89629414,2.69932498 L7.09696916,3.44143469 C7.3314369,3.58513937 7.54816115,3.74190828 7.75325699,3.91804942 L8.17517334,4.28040111 L8.97818895,3.4773855 L9.1195353,3.61849106 L8.30116568,4.43686069 C8.61567657,4.74188697 8.92184881,5.11586579 9.15817299,5.49898746 L9.89831921,5.49898746 L9.89831921,5.69966249 L9.15264431,5.69966249 C9.0400575,5.89388474 8.87694108,6.12528415 8.67885917,6.35680847 L8.31761924,6.77903696 L9.12115551,7.58094993 L8.97951497,7.72259047 L8.17136628,6.91444179 C7.89114522,7.16822755 7.61451857,7.41445243 7.36047373,7.58780068 C7.2801024,7.64264229 7.19211506,7.69692887 7.09865672,7.75085471 L7.09865672,8.50101254 L6.8979817,8.50101254 L6.8979817,7.75520485 C6.59038542,7.57683049 6.20787568,7.27322289 5.83303305,6.90668088 L5.01881102,7.72090291 L4.87760272,7.57969462 L5.68565952,6.77490931 C5.43160202,6.49439776 5.18505453,6.21746867 5.01153107,5.96316705 C4.95668946,5.88279573 4.90240288,5.79480838 4.84847704,5.70135005 L4.09831921,5.70135005 L4.09831921,5.50067502 L4.8432867,5.50067502 C5.07651009,5.10355954 5.38000808,4.75868119 5.68918067,4.43225617 L4.87637912,3.61945462 L5.01579836,3.47979706 L5.82358458,4.28758328 C6.10380565,4.03379753 6.38043229,3.78757264 6.63447714,3.61422439 C6.71484846,3.55938278 6.80283581,3.5050962 6.89629414,3.45117036 L6.89629414,2.69932498 Z" id="路径" stroke="#262626" stroke-width="1.2"></path>
        </g>
    </g>
</svg>