<?xml version="1.0" encoding="UTF-8"?>
<svg width="16px" height="16px" viewBox="0 0 16 16" version="1.1" xmlns="http://www.w3.org/2000/svg" xmlns:xlink="http://www.w3.org/1999/xlink">
    <title>relation-query-third-menu</title>
    <g id="relation-query-third-menu" stroke="none" stroke-width="1" fill="none" fill-rule="evenodd">
        <g id="应用性能监控">
            <rect id="矩形" x="0" y="0" width="16" height="16"></rect>
            <path d="M12.10125,1.8 C12.4326208,1.8 12.70125,2.06862915 12.70125,2.4 C12.70125,2.73137085 12.4326208,3 12.10125,3 L4.03875,3 C3.70737915,3 3.43875,2.73137085 3.43875,2.4 C3.43875,2.06862915 3.70737915,1.8 4.03875,1.8 L12.10125,1.8 Z M13.4,3.62857143 C14.2836556,3.62857143 15,4.34491583 15,5.22857143 L15,12.8285714 C15,13.712227 14.2836556,14.4285714 13.4,14.4285714 L2.6,14.4285714 C1.7163444,14.4285714 1,13.712227 1,12.8285714 L1,5.22857143 C1,4.34491583 1.7163444,3.62857143 2.6,3.62857143 L13.4,3.62857143 Z M13.4,4.82857143 L2.6,4.82857143 C2.3790861,4.82857143 2.2,5.00765753 2.2,5.22857143 L2.2,12.8285714 C2.2,13.0494853 2.3790861,13.2285714 2.6,13.2285714 L13.4,13.2285714 C13.6209139,13.2285714 13.8,13.0494853 13.8,12.8285714 L13.8,5.22857143 C13.8,5.00765753 13.6209139,4.82857143 13.4,4.82857143 Z M7.68,6.06857143 C9.13803174,6.06857143 10.32,7.25053969 10.32,8.70857143 C10.32,9.29338636 10.1298446,9.8337881 9.80799073,10.2713196 L11.1425191,11.6054051 C11.2987288,11.7616148 11.2987288,12.0148808 11.1425191,12.1710905 C10.9967234,12.3168863 10.7663808,12.326606 10.6093122,12.2002497 L10.5768337,12.1710905 L9.24217273,10.8369853 C8.80474289,11.1585827 8.26455857,11.3485714 7.68,11.3485714 C6.22196826,11.3485714 5.04,10.1666032 5.04,8.70857143 C5.04,7.25053969 6.22196826,6.06857143 7.68,6.06857143 Z M7.68,7.07 C6.77425301,7.07 6.04,7.80425301 6.04,8.71 C6.04,9.61574699 6.77425301,10.35 7.68,10.35 C8.58574699,10.35 9.32,9.61574699 9.32,8.71 C9.32,7.80425301 8.58574699,7.07 7.68,7.07 Z" id="形状结合" fill="#000000" fill-rule="nonzero"></path>
        </g>
    </g>
</svg>