<?xml version="1.0" encoding="UTF-8"?>
<svg width="16px" height="16px" viewBox="0 0 16 16" version="1.1" xmlns="http://www.w3.org/2000/svg" xmlns:xlink="http://www.w3.org/1999/xlink">
    <title>resource-data-operation-third-menu</title>
    <g id="resource-data-operation-third-menu" stroke="none" stroke-width="1" fill="none" fill-rule="evenodd">
        <rect id="矩形" fill="#000000" opacity="0" x="0" y="0" width="16" height="16"></rect>
        <g id="编组">
            <rect id="矩形" x="0" y="0" width="16" height="16"></rect>
            <path d="M13.4,1.8 C14.2836556,1.8 15,2.5163444 15,3.4 L15,12.92 C15,13.8036556 14.2836556,14.52 13.4,14.52 L2.6,14.52 C1.7163444,14.52 1,13.8036556 1,12.92 L1,3.4 C1,2.5163444 1.7163444,1.8 2.6,1.8 L13.4,1.8 Z M13.4,3 L2.6,3 C2.3790861,3 2.2,3.1790861 2.2,3.4 L2.2,12.92 C2.2,13.1409139 2.3790861,13.32 2.6,13.32 L13.4,13.32 C13.6209139,13.32 13.8,13.1409139 13.8,12.92 L13.8,3.4 C13.8,3.1790861 13.6209139,3 13.4,3 Z M4.62,10.08 C4.89614237,10.08 5.12,10.3038576 5.12,10.58 L5.12,12.14 C5.12,12.4161424 4.89614237,12.64 4.62,12.64 L4.02,12.64 C3.74385763,12.64 3.52,12.4161424 3.52,12.14 L3.52,10.58 C3.52,10.3038576 3.74385763,10.08 4.02,10.08 L4.62,10.08 Z M8.14,7.84 C8.41614237,7.84 8.64,8.06385763 8.64,8.34 L8.64,12.14 C8.64,12.4161424 8.41614237,12.64 8.14,12.64 L7.54,12.64 C7.26385763,12.64 7.04,12.4161424 7.04,12.14 L7.04,8.34 C7.04,8.06385763 7.26385763,7.84 7.54,7.84 L8.14,7.84 Z M11.66,4 C11.9361424,4 12.16,4.22385763 12.16,4.5 L12.16,12.14 C12.16,12.4161424 11.9361424,12.64 11.66,12.64 L11.06,12.64 C10.7838576,12.64 10.56,12.4161424 10.56,12.14 L10.56,4.5 C10.56,4.22385763 10.7838576,4 11.06,4 L11.66,4 Z M7.1148331,3.965261 L9.16031581,4.01886643 L8.97584478,6.16367962 L8.37001762,5.49634407 L4.86428999,8.50181632 C4.80894719,8.54825446 4.72561288,8.54096365 4.67917475,8.48562084 L4.05763122,7.7448941 C4.01119308,7.6895513 4.01848389,7.60621699 4.0738267,7.55977886 L5.70810294,6.18845827 L6.73623734,5.32566517 L7.62902363,4.60916736 L7.1148331,3.965261 Z" id="形状结合" fill="#000000" fill-rule="nonzero"></path>
        </g>
    </g>
</svg>