<?xml version="1.0" encoding="UTF-8"?>
<svg width="16px" height="16px" viewBox="0 0 16 16" version="1.1" xmlns="http://www.w3.org/2000/svg" xmlns:xlink="http://www.w3.org/1999/xlink">
    <title>resource-automatic-discovery-third-menu</title>
    <g id="resource-automatic-discovery-third-menu" stroke="none" stroke-width="1" fill="none" fill-rule="evenodd">
        <g id="auto-discovery-second-menu">
            <rect id="矩形" x="0" y="0" width="16" height="16"></rect>
            <path d="M7.56378785,1.6 C10.8574969,1.6 13.5275757,4.27007877 13.5275757,7.56378785 C13.5275757,9.14077584 12.9154926,10.5748042 11.9159371,11.6412622 L13.5432732,13.2687975 C13.8020515,13.5275757 13.8020515,13.9471381 13.5432732,14.2059163 C13.284495,14.4646946 12.8649326,14.4646946 12.6061544,14.2059163 L10.9047596,12.5046154 C9.95164679,13.1503675 8.80176816,13.5275757 7.56378785,13.5275757 C4.27007877,13.5275757 1.6,10.8574969 1.6,7.56378785 C1.6,4.27007877 4.27007877,1.6 7.56378785,1.6 Z M7.56378785,2.6501617 C4.85006706,2.6501617 2.6501617,4.85006706 2.6501617,7.56378785 C2.6501617,10.2775086 4.85006706,12.477414 7.56378785,12.477414 C8.51029903,12.477414 9.41450186,12.2102547 10.193733,11.715253 L10.3157189,11.6352072 L10.7721123,11.3255475 L11.1497158,10.9231086 C11.9677192,10.0503544 12.4427007,8.91434917 12.4755846,7.69912896 L12.477414,7.56378785 C12.477414,4.85006706 10.2775086,2.6501617 7.56378785,2.6501617 Z M5.57925012,6.5506038 L7.45459687,7.67358388 L7.45459687,9.84605756 L5.57925012,8.7239396 L5.57925012,6.5506038 Z M9.71935959,6.56414873 L9.71935959,8.77343522 L7.8917071,9.83448784 L7.8917071,7.67274042 L9.71935959,6.56414873 Z M7.64631841,5.16676245 L9.47325208,6.15425576 L7.64631841,7.27327713 L5.79088477,6.19690906 L7.64631841,5.16676245 Z" id="形状结合" fill="#000000"></path>
        </g>
    </g>
</svg>