<?xml version="1.0" encoding="UTF-8"?>
<svg width="16px" height="16px" viewBox="0 0 16 16" version="1.1" xmlns="http://www.w3.org/2000/svg" xmlns:xlink="http://www.w3.org/1999/xlink">
    <title>security-audit-third-menu</title>
    <g id="security-audit-third-menu" stroke="none" stroke-width="1" fill="none" fill-rule="evenodd">
        <g id="编组" transform="translate(2.570000, 1.000000)" fill="#262626" fill-rule="nonzero">
            <path d="M5.63557909,0.0686702161 C7.4634941,1.43075074 9.198239,2.11167444 10.8396405,2.11167444 L10.8487449,3.17023215 C10.8530395,3.81156329 10.8555555,4.49461291 10.856293,5.21938103 L10.8527547,7.63458251 C10.8471918,9.14330146 10.1430274,10.5643369 8.94635021,11.4831556 L5.85153288,13.856298 C5.60166362,14.0479007 5.25428581,14.0479007 5.00441655,13.856298 L1.91224164,11.4851818 C0.71395278,10.5675605 0.00921306298,9.146105 0.00357779283,7.63683602 L0,6.29091376 L0,4.81117438 L0.0125550603,2.46217415 C0.0137277776,2.34288366 0.0149790638,2.22605043 0.0163089191,2.11167444 C1.65771043,2.11167444 3.39245533,1.43075074 5.22054361,0.068903353 C5.34361751,-0.0229288912 5.51233192,-0.0229288912 5.63557909,0.0686702161 Z M5.428,1.394 L5.26560441,1.50587449 C3.92534583,2.40084346 2.60555159,2.96912145 1.30731674,3.19732488 L1.206,3.213 L1.19999576,4.81117438 L1.19999576,6.28772387 L1.20356943,7.63235552 C1.20781702,8.76997004 1.7390063,9.84108739 2.64244652,10.5329209 L5.428,12.669 L8.21554817,10.5313529 C9.05769042,9.88474906 9.5761552,8.90841423 9.6449498,7.85661429 L9.65276288,7.63016618 L9.65511887,6.84945725 L9.65541015,4.68654982 L9.648,3.212 L9.54855585,3.19730838 C8.25025959,2.9690721 6.9304586,2.40071258 5.59032302,1.50561702 L5.428,1.394 Z" id="形状"></path>
            <polygon id="路径-6" points="8.03588319 3.97997816 8.93911681 4.77002184 4.60728941 9.72247229 1.90353524 6.51146002 2.82146476 5.73853998 4.6245 7.879"></polygon>
        </g>
    </g>
</svg>