<?xml version="1.0" encoding="UTF-8"?>
<svg width="16px" height="16px" viewBox="0 0 16 16" version="1.1" xmlns="http://www.w3.org/2000/svg" xmlns:xlink="http://www.w3.org/1999/xlink">
    <title>service-catalog-third-menu</title>
    <g id="service-catalog-third-menu" stroke="none" stroke-width="1" fill="none" fill-rule="evenodd">
        <g id="应用性能监控">
            <rect id="矩形" x="0" y="0" width="16" height="16"></rect>
            <path d="M13.9,2.25 C14.7836556,2.25 15.5,2.9663444 15.5,3.85 L15.5,12.2 C15.5,13.0836556 14.7836556,13.8 13.9,13.8 L2.1,13.8 C1.2163444,13.8 0.5,13.0836556 0.5,12.2 L0.5,3.85 C0.5,2.9663444 1.2163444,2.25 2.1,2.25 L13.9,2.25 Z M13.9,3.45 L2.1,3.45 C1.8790861,3.45 1.7,3.6290861 1.7,3.85 L1.7,12.2 C1.7,12.4209139 1.8790861,12.6 2.1,12.6 L13.9,12.6 C14.1209139,12.6 14.3,12.4209139 14.3,12.2 L14.3,3.85 C14.3,3.6290861 14.1209139,3.45 13.9,3.45 Z M11.98,9.6 C12.2561424,9.6 12.48,9.82385763 12.48,10.1 C12.48,10.3761424 12.2561424,10.6 11.98,10.6 L4.02,10.6 C3.74385763,10.6 3.52,10.3761424 3.52,10.1 C3.52,9.82385763 3.74385763,9.6 4.02,9.6 L11.98,9.6 Z M7.5,7.57333333 C7.77614237,7.57333333 8,7.79719096 8,8.07333333 C8,8.34947571 7.77614237,8.57333333 7.5,8.57333333 L4.02,8.57333333 C3.74385763,8.57333333 3.52,8.34947571 3.52,8.07333333 C3.52,7.79719096 3.74385763,7.57333333 4.02,7.57333333 L7.5,7.57333333 Z M6.4,5.44 C6.75346224,5.44 7.04,5.72653776 7.04,6.08 C7.04,6.43346224 6.75346224,6.72 6.4,6.72 C6.04653776,6.72 5.76,6.43346224 5.76,6.08 C5.76,5.72653776 6.04653776,5.44 6.4,5.44 Z M4.16,5.44 C4.51346224,5.44 4.8,5.72653776 4.8,6.08 C4.8,6.43346224 4.51346224,6.72 4.16,6.72 C3.80653776,6.72 3.52,6.43346224 3.52,6.08 C3.52,5.72653776 3.80653776,5.44 4.16,5.44 Z" id="形状结合" fill="#000000" fill-rule="nonzero"></path>
        </g>
    </g>
</svg>