<?xml version="1.0" encoding="UTF-8"?>
<svg width="16px" height="16px" viewBox="0 0 16 16" version="1.1" xmlns="http://www.w3.org/2000/svg" xmlns:xlink="http://www.w3.org/1999/xlink">
    <title>sprint-planning-third-menu</title>
    <g id="sprint-planning-third-menu" stroke="none" stroke-width="1" fill="none" fill-rule="evenodd">
        <g id="编组">
            <rect id="矩形" x="0" y="0" width="16" height="16"></rect>
        </g>
        <g id="部署编排" transform="translate(1.000000, 1.000000)" stroke="#262626" stroke-width="1.2">
            <g id="形状结合备份-2" transform="translate(0.000000, 0.000000)">
                <path d="M4.28571429,0.6 L4.4,7.27272727 L0.714285714,7.4 L0.6,0.727272727 L4.28571429,0.6 Z" id="路径" transform="translate(2.500000, 4.000000) rotate(180.000000) translate(-2.500000, -4.000000) "></path>
                <path d="M13.2857143,6.6 L13.4,13.2727273 L9.71428571,13.4 L9.6,6.72727273 L13.2857143,6.6 Z" id="路径" transform="translate(11.500000, 10.000000) rotate(180.000000) translate(-11.500000, -10.000000) "></path>
            </g>
            <path d="M13.2727273,0.6 L13.4,4.28571429 L6.72727273,4.4 L6.6,0.714285714 L13.2727273,0.6 Z" id="形状结合-path"></path>
            <path d="M7.27272727,9.6 L7.4,13.2857143 L0.727272727,13.4 L0.6,9.71428571 L7.27272727,9.6 Z" id="形状结合-path"></path>
        </g>
    </g>
</svg>