<?xml version="1.0" encoding="UTF-8"?>
<svg width="16px" height="16px" viewBox="0 0 16 16" version="1.1" xmlns="http://www.w3.org/2000/svg" xmlns:xlink="http://www.w3.org/1999/xlink">
    <title>storage-resource-monitoring-third-menu</title>
    <g id="storage-resource-monitoring-third-menu" stroke="none" stroke-width="1" fill="none" fill-rule="evenodd">
        <g id="磁盘备份" transform="translate(1, 1)">
            <rect id="矩形备份-15" x="0" y="0" width="14" height="14"></rect>
            <g id="disk" transform="translate(0.192, 0.3083)" fill-rule="nonzero">
                <path d="M12.9531429,0.000296825397 C13.3714286,0.000296825397 13.7142857,0.343153968 13.7142857,0.761439683 L13.7142857,9.45629683 L0,9.45629683 L0,0.761439683 C0,0.343153968 0.342857143,0.000296825397 0.761142857,0.000296825397 L2.996,0 L2.99657143,4.56715397 L3.00110132,4.66733097 C3.05206595,5.22841354 3.52668875,5.67115397 4.10057143,5.67115397 L9.62057143,5.67115397 L9.72074843,5.66662408 C10.281831,5.61565945 10.7245714,5.14103665 10.7245714,4.56715397 L10.724,0 L12.9531429,0.000296825397 Z M10.038,0 L10.0388571,4.56715397 L10.0333263,4.63449619 C10.0005904,4.83206232 9.82660928,4.98543968 9.62057143,4.98543968 L4.10057143,4.98543968 L4.03322921,4.97990882 C3.83566308,4.94717297 3.68228571,4.77319182 3.68228571,4.56715397 L3.682,0 L10.038,0 Z" id="形状结合" stroke="#262626" stroke-width="1.2"></path>
                <path d="M12.9531429,13.6802968 L0.761142857,13.6802968 C0.342857143,13.6802968 2.27373675e-13,13.3374397 2.27373675e-13,12.919154 L2.27373675e-13,9.1077254 L13.7142857,9.1077254 L13.7142857,12.919154 C13.7142857,13.3374397 13.3714286,13.6802968 12.9531429,13.6802968 Z" id="路径" stroke="#262626" stroke-width="1.2"></path>
                <rect id="矩形" fill="#262626" x="6.85714286" y="0.740868254" width="1.85142857" height="3.38742857"></rect>
            </g>
        </g>
    </g>
</svg>