<?xml version="1.0" encoding="UTF-8"?>
<svg width="16px" height="16px" viewBox="0 0 16 16" version="1.1" xmlns="http://www.w3.org/2000/svg" xmlns:xlink="http://www.w3.org/1999/xlink">
    <title>uwin-products-gtm-third-menu</title>
    <g id="uwin-products-gtm-third-menu" stroke="none" stroke-width="1" fill="none" fill-rule="evenodd">
        <rect id="矩形" fill="#000000" opacity="0" x="0" y="0" width="16" height="16"></rect>
        <g id="流程库" transform="translate(1, 1.4)" fill="#262626">
            <path d="M3.29411765,1.42727273 L2.995943,2.27243621 C2.66387112,2.31256462 2.35206809,2.41886623 2.07398201,2.57783179 C2.15251244,2.72934245 2.19607843,2.9004695 2.19607843,3.08181818 C2.19607843,3.691005 1.70446953,4.18484848 1.09803922,4.18484848 C1.02728901,4.18484848 0.958101656,4.17812673 0.891075472,4.16528425 C0.846353362,4.34793539 0.823529412,4.53947199 0.823529412,4.73636364 C0.823529412,5.4079921 1.08910883,6.01730921 1.52052816,6.46412211 L1.22317351,7.30986865 C0.477037316,6.70321387 0,5.77575099 0,4.73636364 C0,4.36524983 0.060815141,4.00840472 0.172980353,3.67533641 C0.0635619821,3.50500105 0,3.30086621 0,3.08181818 C0,2.47263137 0.491608902,1.97878788 1.09803922,1.97878788 C1.2056084,1.97878788 1.30956485,1.99432617 1.40780566,2.0232903 C1.94139765,1.64786266 2.59211344,1.42727273 3.29411765,1.42727273 Z M0.924006974,2.83363636 C0.792710959,2.90978472 0.747725623,3.0784354 0.823529412,3.21032822 C0.899333201,3.34222103 1.06722076,3.38741085 1.19851678,3.3112625 C1.32981279,3.23511414 1.37479813,3.06646346 1.29899434,2.93457064 C1.22319055,2.80267783 1.05530299,2.75748801 0.924006974,2.83363636 Z" id="形状结合"></path>
            <path d="M7.96078431,0 C11.6281325,0 14.6,2.98537594 14.6,6.66666667 C14.6,10.3479574 11.6281325,13.3333333 7.96078431,13.3333333 C4.29343608,13.3333333 1.32156863,10.3479574 1.32156863,6.66666667 C1.32156863,2.98537594 4.29343608,0 7.96078431,0 Z M7.96078431,1.2 C4.9573991,1.2 2.52156863,3.64690243 2.52156863,6.66666667 C2.52156863,9.6864309 4.9573991,12.1333333 7.96078431,12.1333333 C10.9641695,12.1333333 13.4,9.6864309 13.4,6.66666667 C13.4,3.64690243 10.9641695,1.2 7.96078431,1.2 Z" id="椭圆形" fill-rule="nonzero"></path>
            <path d="M7.96078431,3.35757576 C8.09250395,3.35757576 8.21544228,3.43638559 8.27691142,3.55022199 L9.10235447,5.22274162 L10.9552107,5.49419768 C11.0869303,5.51171099 11.2010873,5.60803411 11.2362126,5.73062715 C11.2801191,5.85322023 11.2449939,5.99332659 11.1483995,6.0896497 L9.82242182,7.39439014 L10.1385489,9.23328607 C10.1648929,9.36463577 10.1034237,9.49598547 9.99804798,9.57479531 C9.89267229,9.65360514 9.74339004,9.66236177 9.62923302,9.60106524 L7.96956564,8.73415716 L6.30989822,9.60106524 C6.25721037,9.6273352 6.20452253,9.64484848 6.15183468,9.64484848 C6.08158419,9.64484848 6.00255243,9.61857855 5.94108326,9.57479531 C5.83570754,9.49598547 5.78301969,9.36463577 5.80058231,9.23328607 L6.11670945,7.39439014 L4.77316917,6.0896497 C4.67657477,5.99332659 4.64144954,5.85322023 4.68535606,5.73062715 C4.72926262,5.60803411 4.83463834,5.51171099 4.96635797,5.49419768 L6.81921416,5.22274162 L7.6446572,3.55022199 C7.70612635,3.42762894 7.82906468,3.35757576 7.96078431,3.35757576 Z M7.96078431,4.52678788 L7.40825098,5.70637872 C7.35949804,5.80970056 7.27011765,5.87858178 7.16448627,5.89580206 L5.92941176,6.08522543 L6.82321569,7.00651169 C6.8963451,7.08400307 6.93697255,7.19593505 6.92072157,7.30786703 L6.70133333,8.608 L7.8064,7.9966792 C7.84702745,7.9622386 7.90390588,7.95362843 7.95265882,7.95362843 C8.00141176,7.95362843 8.0582902,7.97084874 8.10704314,7.9966792 L9.2121098,8.608 L9.00084706,7.30786703 C8.98459608,7.19593505 9.01709804,7.08400307 9.09835294,7.00651169 L9.99215686,6.08522543 L8.75708235,5.89580206 C8.65145098,5.87858178 8.56207059,5.80970056 8.51331765,5.70637872 L7.96078431,4.52678788 Z" id="形状结合" fill-rule="nonzero"></path>
        </g>
    </g>
</svg>