<?xml version="1.0" encoding="UTF-8"?>
<svg width="16px" height="16px" viewBox="0 0 16 16" version="1.1" xmlns="http://www.w3.org/2000/svg" xmlns:xlink="http://www.w3.org/1999/xlink">
    <title>visual-bulider-third-menu</title>
    <g id="visual-bulider-third-menu" stroke="none" stroke-width="1" fill="none" fill-rule="evenodd">
        <g id="编组-3" transform="translate(7.599592, 8.000604) rotate(-3.000000) translate(-7.599592, -8.000604) translate(1.058461, 1.000604)" fill="#262626">
            <path d="M0.690725398,1.96259735e-14 L6.10596189,9.22001888 C6.30328315,9.16014804 6.50509724,9.09649518 6.70941565,9.02955012 L5.94273331,7.77638317 L10.3281161,0.300470328 L6.78653242,9.00416541 C6.99226542,8.93613082 7.20027093,8.86483976 7.40853656,8.79078793 L10.6674419,0.300470328 L12.6124852,1.04601306 L10.4185685,4.99237973 C12.0054444,4.93303202 12.8881082,5.24888879 13.0665601,5.93995005 C13.3019302,6.85142945 10.8575678,8.37655415 7.99817,9.34231691 L5.4085789,14 L7.08781998,9.62625417 C6.87447503,9.68727344 6.66018288,9.74465406 6.44582546,9.79793923 L6.452788,9.80938001 L4.97410972,13.5044054 L3.92819293,10.209053 C1.90566685,10.3389081 0.596269212,10.0506818 3.56576902e-13,9.34437409 C0.496128776,9.55828439 0.884466153,9.69284557 1.16501213,9.74805763 C1.99280161,9.91096839 2.90325338,9.89836341 3.78938691,9.77166457 L0.690725398,1.96259735e-14 Z M10.346052,5.12449281 L8.54724746,8.35748554 C10.226,7.67305942 11.6681989,6.8614239 11.725946,6.20533389 C11.7801192,5.58984896 11.3201545,5.2295686 10.346052,5.12449281 Z" id="形状结合"></path>
        </g>
    </g>
</svg>