<?xml version="1.0" encoding="UTF-8"?>
<svg width="16px" height="16px" viewBox="0 0 16 16" version="1.1" xmlns="http://www.w3.org/2000/svg" xmlns:xlink="http://www.w3.org/1999/xlink">
    <title>work-order-center-third-menu</title>
    <g id="work-order-center-third-menu" stroke="none" stroke-width="1" fill="none" fill-rule="evenodd">
        <path d="M9.66550469,1.49554742 L10.2751418,1.50534056 L11.7112838,1.52848798 C12.5949394,1.52848798 13.3112838,2.24483238 13.3112838,3.12848798 L13.3112838,7.61078282 C13.3112838,7.94215367 13.0426546,8.21078282 12.7112838,8.21078282 C12.3799129,8.21078282 12.1112838,7.94215367 12.1112838,7.61078282 L12.1112838,3.12848798 C12.1112838,2.90757408 11.9321977,2.72848798 11.7016467,2.72841058 L10.8652838,2.71426316 L10.8655047,3.90737224 C10.8655047,4.31521328 10.5603165,4.65177382 10.165855,4.7011391 L10.0655047,4.70737224 L4.82270001,4.70737224 C4.38087221,4.70737224 4.02270001,4.34920004 4.02270001,3.90737224 L4.02228376,2.71426316 L3.21128376,2.72848798 C3.0179841,2.72848798 2.85670885,2.86560078 2.81941034,3.04787403 L2.81128376,3.12848798 L2.81128376,13.378488 C2.81128376,13.5994019 2.99036986,13.778488 3.21128376,13.778488 L8.47382571,13.778488 C8.80519656,13.778488 9.07382571,14.0471171 9.07382571,14.378488 C9.07382571,14.7098588 8.80519656,14.978488 8.47382571,14.978488 L3.21128376,14.978488 C2.32762816,14.978488 1.61128376,14.2621436 1.61128376,13.378488 L1.61128376,3.12848798 C1.61128376,2.24483238 2.32762816,1.52848798 3.20141211,1.52856919 L4.61282836,1.50534437 L5.22270001,1.49530895 L5.22228376,3.50726316 L9.66528376,3.50726316 L9.66550469,1.49554742 Z M14.2612155,10.3121309 C14.5003161,10.5415596 14.5081568,10.9213776 14.2787282,11.1604783 L11.4830319,14.0740325 C11.2506614,14.316199 10.8648386,14.3206712 10.6269173,14.083956 L8.97652068,12.4419263 C8.74161141,12.208208 8.74064599,11.8283102 8.97436436,11.5934009 C9.20808272,11.3584917 9.58798048,11.3575263 9.82288975,11.5912446 L11.0397052,12.802061 L13.4128681,10.3296436 C13.6422967,10.090543 14.0221148,10.0827023 14.2612155,10.3121309 Z M7.95428571,8.45 L7.95428571,9.65 L4,9.65 L4,8.45 L7.95428571,8.45 Z M10.92,6.25 L10.92,7.45 L4,7.45 L4,6.25 L10.92,6.25 Z M8.8,1.63 L8.8,2.83 L6,2.83 L6,1.63 L8.8,1.63 Z" id="形状结合" fill="#262626" fill-rule="nonzero"></path>
    </g>
</svg>