<?xml version="1.0" encoding="UTF-8"?>
<svg width="16px" height="16px" viewBox="0 0 16 16" version="1.1" xmlns="http://www.w3.org/2000/svg" xmlns:xlink="http://www.w3.org/1999/xlink">
    <title>work-order-statistics-center-third-menu</title>
    <g id="work-order-statistics-center-third-menu" stroke="none" stroke-width="1" fill="none" fill-rule="evenodd">
        <g id="scenario-ops-second-menu">
            <rect id="矩形" x="0" y="0" width="16" height="16"></rect>
            <path d="M3.4,1.4 L12.6390244,1.4 C13.1913091,1.4 13.6390244,1.84771525 13.6390244,2.4 L13.6390244,13.4 C13.6390244,13.9522847 13.1913091,14.4 12.6390244,14.4 L3.4,14.4 C2.84771525,14.4 2.4,13.9522847 2.4,13.4 L2.4,2.4 C2.4,1.84771525 2.84771525,1.4 3.4,1.4 Z" id="矩形备份-50" stroke="#000000" stroke-width="1.2"></path>
            <path d="M5.38658537,12.6414634 C5.38658537,12.9000943 5.17692359,13.1097561 4.91829268,13.1097561 C4.65966178,13.1097561 4.45,12.9000943 4.45,12.6414634 C4.45,12.3828325 4.65966178,12.1731707 4.91829268,12.1731707 C5.17692359,12.1731707 5.38658537,12.3828325 5.38658537,12.6414634 Z M6.94756098,11.3926829 L6.94756098,12.6414634 C6.94756098,12.9000943 6.7378992,13.1097561 6.47926829,13.1097561 C6.22063739,13.1097561 6.01097561,12.9000943 6.01097561,12.6414634 L6.01097561,11.3926829 C6.01097561,11.134052 6.22063739,10.9243902 6.47926829,10.9243902 C6.7378992,10.9243902 6.94756098,11.134052 6.94756098,11.3926829 Z M11.6304878,10.7682927 L11.6304878,12.6414634 C11.6304878,12.9000943 11.420826,13.1097561 11.1621951,13.1097561 C10.9035642,13.1097561 10.6939024,12.9000943 10.6939024,12.6414634 L10.6939024,10.7682927 C10.6939024,10.5096618 10.9035642,10.3 11.1621951,10.3 C11.420826,10.3 11.6304878,10.5096618 11.6304878,10.7682927 Z M8.50853659,11.704878 L8.50853659,12.6414634 C8.50853659,12.9000943 8.29887481,13.1097561 8.0402439,13.1097561 C7.781613,13.1097561 7.57195122,12.9000943 7.57195122,12.6414634 L7.57195122,11.704878 C7.57195122,11.4462471 7.781613,11.2365854 8.0402439,11.2365854 C8.29887481,11.2365854 8.50853659,11.4462471 8.50853659,11.704878 Z M10.0695122,11.704878 L10.0695122,12.6414634 C10.0695122,12.9000943 9.85985042,13.1097561 9.60121951,13.1097561 C9.3425886,13.1097561 9.13292683,12.9000943 9.13292683,12.6414634 L9.13292683,11.704878 C9.13292683,11.4462471 9.3425886,11.2365854 9.60121951,11.2365854 C9.85985042,11.2365854 10.0695122,11.4462471 10.0695122,11.704878 Z M8.21219527,4.7804878 C9.69528196,4.7804878 10.8975613,5.98276712 10.8975613,7.4658538 C10.8975613,7.53177636 10.8951858,7.5971441 10.8905159,7.66187612 C10.8890957,7.68154287 10.8874825,7.70095054 10.885664,7.72029852 C10.8820043,7.75927407 10.877479,7.79824188 10.8721289,7.83694622 C10.8690051,7.85953299 10.8656317,7.8818395 10.8619857,7.90405424 C10.8545838,7.94915556 10.8460525,7.99390532 10.8364259,8.03824662 C10.8314511,8.06114122 10.8262992,8.08345752 10.8208711,8.1056655 C10.8149086,8.13007816 10.8084894,8.15480782 10.8017293,8.17939633 C10.7694533,8.29672974 10.7295619,8.41050936 10.6825378,8.52051233 C10.6671219,8.55657257 10.6509639,8.59217616 10.634062,8.62735468 C10.6281619,8.63963665 10.6220973,8.65201469 10.6159407,8.66433876 C10.5965366,8.70317078 10.576363,8.74121059 10.5553161,8.77869408 C10.5441073,8.79865874 10.5325798,8.81858467 10.5208058,8.83834663 C10.4997809,8.87363573 10.4779666,8.90840709 10.45539,8.94263128 C10.4441571,8.95965856 10.4327688,8.97650249 10.4211958,8.9932088 C10.3535045,9.09092733 10.2794777,9.18395765 10.1997219,9.27168623 L10.1840106,9.28881946 C9.69345583,9.81917153 8.99160256,10.1512198 8.21219527,10.1512198 C6.72910858,10.1512198 5.52682927,8.94894049 5.52682927,7.4658538 C5.52682927,5.98276712 6.72910858,4.7804878 8.21219527,4.7804878 Z M8.21219527,5.4658538 C7.10762577,5.4658538 6.21219527,6.36128431 6.21219527,7.4658538 C6.21219527,8.5704233 7.10762577,9.4658538 8.21219527,9.4658538 C8.79253726,9.4658538 9.31514722,9.21867354 9.68048883,8.82384932 L8.21219527,7.4658538 L8.21219527,5.4658538 Z" id="形状结合" fill="#000000" fill-rule="nonzero"></path>
            <rect id="矩形" fill="#000000" x="2.4" y="3" width="11.24" height="1.2"></rect>
        </g>
    </g>
</svg>