<?xml version="1.0" encoding="UTF-8"?>
<svg width="16px" height="16px" viewBox="0 0 16 16" version="1.1" xmlns="http://www.w3.org/2000/svg" xmlns:xlink="http://www.w3.org/1999/xlink">
    <title>work-calendar-third-menu</title>
    <g id="work-calendar-third-menu" stroke="none" stroke-width="1" fill="none" fill-rule="evenodd">
        <rect id="矩形" fill="#000000" opacity="0" x="0" y="0" width="16" height="16"></rect>
        <g id="编组-6备份" transform="translate(1.000000, 1.750000)" fill="#262626">
            <g id="基础设施监控" transform="translate(0.000000, 1.633333)">
                <path d="M13,8.8817842e-16 C13.5522847,8.8817842e-16 14,0.44771525 14,1 L14,9.88888889 C14,10.4411736 13.5522847,10.8888889 13,10.8888889 L1,10.8888889 C0.44771525,10.8888889 0,10.4411736 0,9.88888889 L0,1 C0,0.44771525 0.44771525,-8.8817842e-16 1,-8.8817842e-16 L13,8.8817842e-16 Z M12.8,2.37777778 L1.2,2.37777778 L1.2,9.68877778 L12.8,9.68877778 L12.8,2.37777778 Z M10.1111111,0.311111111 C9.68155631,0.311111111 9.33333333,0.659334083 9.33333333,1.08888889 C9.33333333,1.51844369 9.68155631,1.86666667 10.1111111,1.86666667 C10.5406659,1.86666667 10.8888889,1.51844369 10.8888889,1.08888889 C10.8888889,0.659334083 10.5406659,0.311111111 10.1111111,0.311111111 Z M3.88888889,0.311111111 C3.45933408,0.311111111 3.11111111,0.659334083 3.11111111,1.08888889 C3.11111111,1.51844369 3.45933408,1.86666667 3.88888889,1.86666667 C4.31844369,1.86666667 4.66666667,1.51844369 4.66666667,1.08888889 C4.66666667,0.659334083 4.31844369,0.311111111 3.88888889,0.311111111 Z" id="形状结合" fill-rule="nonzero"></path>
                <path d="M4.66666667,3.92222222 L4.66666667,5.1 C4.66666667,5.37614237 4.44280904,5.6 4.16666667,5.6 L2.67777778,5.6 C2.4016354,5.6 2.17777778,5.37614237 2.17777778,5.1 L2.17777778,3.92222222 C2.17777778,3.64607985 2.4016354,3.42222222 2.67777778,3.42222222 L4.16666667,3.42222222 C4.44280904,3.42222222 4.66666667,3.64607985 4.66666667,3.92222222 Z" id="直线-5备份-61"></path>
                <path d="M4.66666667,7.34444444 L4.66666667,8.52222222 C4.66666667,8.7983646 4.44280904,9.02222222 4.16666667,9.02222222 L2.67777778,9.02222222 C2.4016354,9.02222222 2.17777778,8.7983646 2.17777778,8.52222222 L2.17777778,7.34444444 C2.17777778,7.06830207 2.4016354,6.84444444 2.67777778,6.84444444 L4.16666667,6.84444444 C4.44280904,6.84444444 4.66666667,7.06830207 4.66666667,7.34444444 Z" id="直线-5备份-71"></path>
                <path d="M8.4,3.92222222 L8.4,5.1 C8.4,5.37614237 8.17614237,5.6 7.9,5.6 L6.41111111,5.6 C6.13496874,5.6 5.91111111,5.37614237 5.91111111,5.1 L5.91111111,3.92222222 C5.91111111,3.64607985 6.13496874,3.42222222 6.41111111,3.42222222 L7.9,3.42222222 C8.17614237,3.42222222 8.4,3.64607985 8.4,3.92222222 Z" id="直线-5备份-62"></path>
                <path d="M8.4,7.34444444 L8.4,8.52222222 C8.4,8.7983646 8.17614237,9.02222222 7.9,9.02222222 L6.41111111,9.02222222 C6.13496874,9.02222222 5.91111111,8.7983646 5.91111111,8.52222222 L5.91111111,7.34444444 C5.91111111,7.06830207 6.13496874,6.84444444 6.41111111,6.84444444 L7.9,6.84444444 C8.17614237,6.84444444 8.4,7.06830207 8.4,7.34444444 Z" id="直线-5备份-72"></path>
                <path d="M12.1333333,3.92222222 L12.1333333,5.1 C12.1333333,5.37614237 11.9094757,5.6 11.6333333,5.6 L10.1444444,5.6 C9.86830207,5.6 9.64444444,5.37614237 9.64444444,5.1 L9.64444444,3.92222222 C9.64444444,3.64607985 9.86830207,3.42222222 10.1444444,3.42222222 L11.6333333,3.42222222 C11.9094757,3.42222222 12.1333333,3.64607985 12.1333333,3.92222222 Z" id="直线-5备份-70"></path>
            </g>
            <path d="M9.95555556,0 C10.7717097,0 11.4333333,0.661623648 11.4333333,1.47777778 C11.4333333,2.17132677 10.9518557,2.76713406 10.2841298,2.91884384 C10.1584661,2.94739512 10.0334501,2.86866988 10.0048988,2.74300611 C9.97634752,2.61734233 10.0550728,2.49232633 10.1807365,2.46377506 C10.6370996,2.36008769 10.9666667,1.95226295 10.9666667,1.47777778 C10.9666667,0.919356531 10.5139768,0.466666667 9.95555556,0.466666667 C9.39713431,0.466666667 8.94444444,0.919356531 8.94444444,1.47777778 C8.94444444,1.50154549 8.94755556,1.55339734 8.95377778,1.63333333 L8.48711111,1.63333333 C8.48088889,1.54862099 8.47777778,1.49676914 8.47777778,1.47777778 C8.47777778,0.661623648 9.13940143,0 9.95555556,0 Z" id="路径备份" fill-rule="nonzero"></path>
            <path d="M3.73333333,0 C4.54948746,0 5.21111111,0.661623648 5.21111111,1.47777778 C5.21111111,2.17363475 4.72646325,2.77085957 4.05576347,2.92022598 C3.92997852,2.94823859 3.80530097,2.86897844 3.77728836,2.74319349 C3.74927576,2.61740854 3.82853591,2.49273098 3.95432086,2.46471838 C4.41270728,2.36263465 4.74444444,1.95383956 4.74444444,1.47777778 C4.74444444,0.919356531 4.29175458,0.466666667 3.73333333,0.466666667 C3.17491209,0.466666667 2.72222222,0.919356531 2.72222222,1.47777778 C2.72222222,1.49287884 2.7282005,1.54473069 2.74015706,1.63333333 L2.26175537,1.63333333 C2.25762216,1.54809421 2.25555556,1.49624236 2.25555556,1.47777778 C2.25555556,0.661623648 2.9171792,0 3.73333333,0 Z" id="路径" fill-rule="nonzero"></path>
        </g>
    </g>
</svg>