<?xml version="1.0" encoding="UTF-8"?>
<svg width="16px" height="16px" viewBox="0 0 16 16" version="1.1" xmlns="http://www.w3.org/2000/svg" xmlns:xlink="http://www.w3.org/1999/xlink">
    <title>workbench-third-menu</title>
    <g id="workbench-third-menu" stroke="none" stroke-width="1" fill="none" fill-rule="evenodd">
        <g id="图形" transform="translate(1.000000, 1.000000)" fill="#262626">
            <path d="M13,0 C13.5522847,0 14,0.44771525 14,1 L14,10 C14,10.5522847 13.5522847,11 13,11 L1,11 C0.44771525,11 0,10.5522847 0,10 L0,1 C0,0.44771525 0.44771525,0 1,0 L13,0 Z M12.8,1.2 L1.2,1.2 L1.2,9.8 L12.8,9.8 L12.8,1.2 Z" id="矩形" fill-rule="nonzero"></path>
            <g id="编组-40" transform="translate(2.500000, 2.200000)">
                <path d="M7.75862069,0 C8.44421555,0 9,0.555784449 9,1.24137931 C9,1.86984127 8.53298668,2.38922642 7.92706851,2.47142629 L7.23414971,3.85453225 C7.3692938,4.05326894 7.44827586,4.29327292 7.44827586,4.55172414 C7.44827586,5.237319 6.89249141,5.79310345 6.20689655,5.79310345 C5.52130169,5.79310345 4.96551724,5.237319 4.96551724,4.55172414 C4.96551724,4.46458445 4.97449573,4.37954181 4.99157807,4.29747084 L3.71061656,3.35887576 C3.53111445,3.45972591 3.32399809,3.51724138 3.10344828,3.51724138 C3.08624092,3.51724138 3.06911534,3.51689127 3.05207827,3.5161978 L2.33069692,4.6800531 C2.4276364,4.85691163 2.48275862,5.05994961 2.48275862,5.27586207 C2.48275862,5.96145693 1.92697417,6.51724138 1.24137931,6.51724138 C0.555784449,6.51724138 0,5.96145693 0,5.27586207 C0,4.59026721 0.555784449,4.03448276 1.24137931,4.03448276 C1.34400249,4.03448276 1.4437172,4.04693542 1.53909481,4.07041213 L2.15509406,3.07693204 C1.97228281,2.86072817 1.86206897,2.58116603 1.86206897,2.27586207 C1.86206897,1.59026721 2.41785341,1.03448276 3.10344828,1.03448276 C3.78904314,1.03448276 4.34482759,1.59026721 4.34482759,2.27586207 C4.34482759,2.37596468 4.33297912,2.47329993 4.31060811,2.56654191 L5.56667882,3.48795521 C5.75361217,3.37520958 5.97267938,3.31034483 6.20689655,3.31034483 C6.2690977,3.31034483 6.33023035,3.31491958 6.38997641,3.32375099 L6.95755072,2.18973353 C6.68824415,1.96202127 6.51724138,1.62167021 6.51724138,1.24137931 C6.51724138,0.555784449 7.07302583,0 7.75862069,0 Z" id="形状结合"></path>
            </g>
            <path d="M4.3955243,10.347933 C4.60304226,10.0895865 4.98070006,10.0483818 5.2390466,10.2558997 C5.49739314,10.4634177 5.53859783,10.8410755 5.33107986,11.099422 L3.784,13.0246775 L10.226,13.0246775 L10.2187848,13.0139279 C10.0873963,12.8389207 10.0436001,12.7805849 9.93723798,12.6389124 L9.87814791,12.5602054 C9.67919648,12.2952055 9.73273938,11.9190986 9.99773933,11.7201471 C10.2627393,11.5211957 10.6388462,11.5747386 10.8377976,11.8397385 C11.0348803,12.1022494 11.0348803,12.1022494 11.3445818,12.5147666 C11.9916193,13.3766095 11.3763817,14.225 10.3208704,14.225 L3.67912961,14.225 C2.62361834,14.225 2.00838073,13.3766095 2.66746524,12.4992555 L4.3955243,10.347933 Z" id="路径" fill-rule="nonzero"></path>
        </g>
    </g>
</svg>