<?xml version="1.0" encoding="UTF-8"?>
<svg width="36px" height="36px" viewBox="0 0 36 36" version="1.1" xmlns="http://www.w3.org/2000/svg" xmlns:xlink="http://www.w3.org/1999/xlink">
    <title>app</title>
    <g id="页面-1" stroke="none" stroke-width="1" fill="none" fill-rule="evenodd">
        <g id="模型icon-库" transform="translate(-5145, -132)">
            <g id="app" transform="translate(5145, 132)">
                <path d="M34.7635558,12.4330664 L29.5378444,17.6587778 C27.888928,19.3073701 25.21585,19.3073701 23.5669336,17.6587778 L18.3412222,12.4330664 C16.6926299,10.78415 16.6926299,8.11107203 18.3412222,6.46215561 L23.5669336,1.23644426 C25.21585,-0.412148085 27.888928,-0.412148085 29.5378444,1.23644426 L34.7635558,6.46215561 C36.4121481,8.11107203 36.4121481,10.78415 34.7635558,12.4330664 L34.7635558,12.4330664 Z M11.6157969,17.360698 L4.21969206,17.360698 C1.89094365,17.360698 0,15.4697543 0,13.141006 L0,5.75421608 C0,3.41615274 1.89094365,1.52520904 4.21969206,1.52520904 L11.6064819,1.52520904 C13.9445453,1.52520904 15.8354889,3.41615274 15.8354889,5.7449011 L15.8354889,13.1316909 C15.8354889,15.4697543 13.9445452,17.360698 11.6157969,17.360698 Z M30.2457839,35.990685 L22.8589941,35.990685 C20.5302457,35.990685 18.639302,34.0997413 18.639302,31.7709929 L18.639302,24.3842031 C18.639302,22.0554547 20.5302457,20.164511 22.8589941,20.164511 L30.2457839,20.164511 C32.5745323,20.164511 34.465476,22.0554547 34.465476,24.3842031 L34.465476,31.7709929 C34.465476,34.0997413 32.5745323,35.990685 30.2457839,35.990685 L30.2457839,35.990685 Z M11.6157969,35.990685 L4.21969206,35.990685 C1.89094365,35.990685 0,34.0997413 0,31.7709929 L0,24.3842031 C0,22.0461397 1.89094365,20.1551961 4.21969206,20.1551961 L11.6064819,20.1551961 C13.9352303,20.1551961 15.8262152,22.0461398 15.8262152,24.3748881 L15.8262152,31.761678 C15.8311292,32.8815638 15.3897257,33.957282 14.5995891,34.7509147 C13.8094526,35.5445475 12.7356937,35.990685 11.6157969,35.990685 L11.6157969,35.990685 Z" id="形状" fill="#1DC897" fill-rule="nonzero"></path>
                <rect id="矩形备份-19" x="0" y="0" width="36" height="36"></rect>
            </g>
        </g>
    </g>
</svg>