<?xml version="1.0" encoding="UTF-8"?>
<svg width="36px" height="36px" viewBox="0 0 36 36" version="1.1" xmlns="http://www.w3.org/2000/svg" xmlns:xlink="http://www.w3.org/1999/xlink">
    <title>availability Zone</title>
    <g id="页面-1" stroke="none" stroke-width="1" fill="none" fill-rule="evenodd">
        <g id="模型icon-库" transform="translate(-5531, -388)">
            <g id="availability-Zone" transform="translate(5531, 388)">
                <rect id="矩形备份-27" x="0" y="0" width="36" height="36"></rect>
                <path d="M26.2425608,2.00010914 C26.7793029,1.99361469 27.2777782,2.27736213 27.5461289,2.7422531 L35.7886897,17.0413915 C36.0704368,17.5031818 36.0704368,18.0837182 35.7886897,18.5455085 L27.5461289,32.824592 C27.2777782,33.2894829 26.7793029,33.5732304 26.2425608,33.5667359 L9.75743917,33.5667359 C9.22069709,33.5732304 8.72222185,33.2894829 8.45387114,32.824592 L0.211310309,18.5455085 C-0.0704367698,18.0837182 -0.0704367698,17.5031818 0.211310309,17.0413915 L8.45387114,2.7422531 C8.72222185,2.27736213 9.22069709,1.99361469 9.75743917,2.00010914 Z M25.3802005,5.00845598 L10.6197995,5.00845598 L3.23959908,17.7834225 L10.6197995,30.5583891 L25.3802005,30.5583891 L32.7604009,17.7834225 L25.3802005,5.00845598 Z M17.0774749,7.83619582 C17.9081758,7.83619582 18.5815919,8.50961192 18.5815919,9.34031278 L18.5815919,9.7614655 L27.3856897,14.1935968 C27.8770411,14.4628021 28.184038,14.977022 28.1878854,15.5372746 C28.1854199,16.0927639 27.8769907,16.6016721 27.3856897,16.8608975 L18.5815919,21.4735228 L18.5815919,24.7224154 L22.0109785,24.7224154 C22.8415894,24.7225425 23.5148652,25.3959214 23.5148652,26.2265323 C23.5148652,27.0571433 22.8415894,27.7306493 22.0109785,27.7306493 L12.5250143,27.7306493 C11.6944034,27.7306493 11.0211276,27.0571433 11.0211276,26.2265323 C11.0211276,25.3959214 11.6944034,24.7225425 12.5250143,24.7224154 L15.573358,24.7224154 L15.573358,9.34031278 C15.573358,8.50961192 16.2467741,7.83619582 17.0774749,7.83619582 Z" id="形状结合" fill="#6641F9" fill-rule="nonzero"></path>
            </g>
        </g>
    </g>
</svg>