<?xml version="1.0" encoding="UTF-8"?>
<svg width="36px" height="36px" viewBox="0 0 36 36" version="1.1" xmlns="http://www.w3.org/2000/svg" xmlns:xlink="http://www.w3.org/1999/xlink">
    <title>dm</title>
    <g id="页面-1" stroke="none" stroke-width="1" fill="none" fill-rule="evenodd">
        <g id="模型icon-库" transform="translate(-5531, -239)">
            <g id="dm" transform="translate(5531, 239)">
                <rect id="矩形" x="0" y="0" width="36" height="36"></rect>
                <path d="M5.37992858,13.5132235 C5.46273013,15.9756689 6.13594253,17.7577018 7.3977658,18.8611222 C8.49758608,19.8205399 9.88181164,20.317349 11.255237,20.6845558 L11.4532406,20.7367568 L11.6476442,20.7871577 L11.8420478,20.8357586 L12.1336532,20.9077599 L12.8968673,21.0913633 L13.1758724,21.1597646 L13.3594758,21.2065654 L13.5394791,21.2533663 L13.7194825,21.3019672 C14.6663,21.559372 15.4979153,21.8635776 16.0829261,22.3639868 C16.730938,22.918397 17.0369437,24.1136191 16.9937429,25.949653 L16.9883428,26.1386565 L16.9847427,26.2358583 L16.9739425,26.4302618 C16.945142,26.9918722 16.8875409,27.6056835 16.8011393,28.2716958 L16.7705388,28.5093002 L16.7525384,28.6299024 L16.7165378,28.8747069 L16.6985374,28.9989092 L16.6607367,29.2509139 L16.6391363,29.3769162 L16.5977356,29.634321 L16.5527347,29.8953258 L16.5059339,30.1617307 L16.455533,30.4317357 L16.403332,30.7089408 C9.46240391,32.726778 3.21988873,31.7421599 0.905046026,27.7334859 C-1.30359473,23.9066153 0.660241494,18.3589129 5.37992858,13.5132235 Z M9.81701044,9.76015424 L9.79721009,9.98515837 L9.77920975,10.2065625 L9.77020959,10.3163645 L9.75580934,10.5341685 L9.7486092,10.6421705 L9.73600895,10.8545744 L9.7324089,10.9607764 L9.72340874,11.1695802 L9.71800864,11.374784 C9.64780735,14.2674374 10.2544186,16.2726744 11.5360422,17.3922951 C12.5278605,18.2617111 13.6654815,18.7297197 14.7959023,19.0609259 L14.9759057,19.1113268 L15.1523089,19.1599277 L15.3323122,19.2085286 L15.4187138,19.231929 L15.5969171,19.2769299 L15.8597219,19.3417311 L16.6373363,19.5307345 L16.889341,19.5919356 L17.054944,19.6351364 L17.2205471,19.6765372 L17.3015486,19.6999376 L17.4635515,19.7431384 C18.2915668,19.9771428 19.0295804,20.265148 19.5947909,20.747557 C20.248203,21.3055673 20.6640106,22.4935892 20.845814,24.3116227 L20.8638143,24.4988262 C20.8782146,24.6554291 20.8908148,24.8174321 20.899815,24.9848352 L20.9142152,25.1882389 L20.9232154,25.3934427 L20.9286155,25.4996447 L20.9358156,25.7120486 L20.9430158,25.9298526 L20.9484159,26.1530567 L20.9502159,26.3780609 L20.9520159,26.8442695 L20.9520159,27.0836739 L20.9466158,27.3266784 L20.9448158,27.4508807 L20.9394157,27.7010853 L20.9322156,27.95489 L20.9268155,28.0844924 L20.9178153,28.3454972 L20.9070151,28.6119021 L20.8926148,28.8819071 L20.8854147,29.0169096 C19.973671,29.4416154 19.0426455,29.8236362 18.0953632,30.1617307 L18.1187636,30.017728 L18.1601644,29.7387229 C18.8153765,25.2260396 18.3473678,22.4665887 16.7597386,21.4585701 C15.8327215,20.8699593 14.7977024,20.5765538 13.7536831,20.3425495 L13.5430792,20.2975487 L13.2298734,20.2309474 L12.6574629,20.1121453 L12.4180585,20.0617443 L12.2596555,20.0257437 L12.1030526,19.989743 L11.9446497,19.9537423 C11.9188152,19.9478894 11.8930144,19.9418892 11.8672483,19.935742 L11.7106454,19.8979413 L11.633244,19.8781409 L11.4784411,19.8367402 C10.3210198,19.5271344 9.23919982,19.0717261 8.37878393,18.1141084 C7.33476465,16.9512869 6.84875569,15.1566538 6.91535693,12.7320091 L6.92255703,12.5322054 L6.93155723,12.3288016 L6.94955753,12.0173959 C7.86191471,11.2113555 8.81927088,10.4577304 9.81701044,9.76015424 Z M13.4260771,7.54791343 C12.8860671,11.806792 13.424277,14.6436444 15.0461069,16.0584705 C16.0397253,16.9278865 17.1791463,17.3940951 18.3095672,17.7253012 L18.4877705,17.7775022 L18.6659738,17.8261031 L18.842377,17.8729039 L18.9323786,17.8963044 L19.1087819,17.9413052 L19.3733868,18.0079064 L20.1492011,18.1951099 L20.4012057,18.258111 L20.5686088,18.2995118 L20.7324119,18.3427126 L20.8134134,18.364313 L20.9754164,18.4093138 C21.8034316,18.6433182 22.5414453,18.9295234 23.1084557,19.4119323 C23.720467,19.9375421 24.1272745,21.021162 24.3252782,22.6645923 L24.3432785,22.8373955 L24.3540787,22.9237971 L24.372079,23.1038005 L24.3792792,23.1938021 L24.3936794,23.3774055 L24.4080797,23.564609 L24.4206799,23.7572125 L24.4314801,23.9534161 L24.4404803,24.1532198 L24.4440804,24.2540217 L24.4512805,24.4610255 L24.4566806,24.6716294 L24.4620807,24.8840333 L24.4638807,25.1018373 L24.4638807,25.7804498 L24.4620807,25.897452 L24.4566806,26.1314563 L24.4548806,26.2520586 L24.4476804,26.495063 L24.4404803,26.7398676 L24.4314801,26.9918722 L24.42608,27.1178745 C23.7924683,27.5066817 23.1462564,27.8738885 22.4874443,28.2230949 L22.474844,27.9386897 L22.4604438,27.6596845 L22.4460435,27.3842794 L22.419043,26.981072 L22.4010427,26.7164671 L22.3902425,26.5868647 L22.3686421,26.32946 L22.3560418,26.2034577 L22.3326414,25.9550531 L22.3074409,25.7084485 C22.2943917,25.5883611 22.2805912,25.4683566 22.2660402,25.3484419 L22.2372396,25.1162376 C21.8592327,22.1875835 21.121219,20.3641499 20.0195987,19.6441366 C19.3049855,19.176128 18.4499698,18.8953228 17.542753,18.6487183 L17.324949,18.5911172 L17.105345,18.5335161 L16.3745315,18.3445126 L16.1261269,18.2797114 L15.9623238,18.2365106 L15.7967208,18.1915098 L15.7157193,18.1681094 L15.5501163,18.1213085 L15.3881133,18.0727076 L15.2243102,18.0223067 C14.0272882,17.6460998 12.8788669,17.1222901 11.9860505,16.1268717 C11.0230327,15.0558519 10.6360256,13.376421 10.8268291,11.0867787 L10.8430294,10.9067754 L10.8610297,10.724972 L10.8808301,10.5395686 L10.9042305,10.3541652 L10.9438313,10.0679599 L10.9726318,9.87535638 C11.0014323,9.68095279 11.0356329,9.48294915 11.0716336,9.28134542 L11.1112344,9.07794163 L11.1508351,8.87273785 C11.8924488,8.40292918 12.6520628,7.96012101 13.4260771,7.54791343 Z M17.5085524,5.70647945 C16.7255379,10.4423668 17.272748,13.5114235 19.1519827,14.9154493 C20.0607652,15.605428 21.0880889,16.1233602 22.1832386,16.4436775 L22.3362415,16.4886784 L22.4892443,16.5318792 L22.638647,16.5714799 L22.7880498,16.6110806 L23.0094539,16.6686817 L23.664666,16.8324847 L23.88067,16.8900858 L24.0228726,16.9278865 L24.1632752,16.9674872 L24.2352765,16.9890876 L24.3756791,17.0304884 C25.0128908,17.226692 25.6375024,17.4840968 26.2783142,17.930505 C27.13333,18.524516 27.7111407,19.6873374 28.0135462,21.4153693 L28.0405467,21.5719722 L28.0657472,21.7321751 L28.0999478,21.9769797 L28.1197482,22.1443828 L28.1305484,22.2289843 L28.1485487,22.3999875 C28.1593489,22.4863891 28.1665491,22.5745907 28.1755492,22.6627923 L28.1899495,22.8427956 L28.2043497,23.022799 L28.2097498,23.1164007 L28.2223501,23.3036041 L28.2313502,23.4926076 L28.2367503,23.5880094 L28.2439505,23.782413 L28.2475505,23.8814148 L28.2529506,24.0794184 L28.2547507,24.1802203 L28.2583507,24.3836241 C27.5203371,24.9956354 26.753523,25.573446 25.9633084,26.1170561 L25.9543082,25.9892537 L25.9381079,25.733649 L25.9201076,25.4834444 L25.9111074,25.3592421 L25.8931071,25.1162376 L25.8805069,24.9938353 L25.8589065,24.7562309 L25.8481063,24.6392288 L25.8229058,24.4052245 C25.4718993,21.1111637 24.7086852,19.0771262 23.5314635,18.308512 C22.8186504,17.8423034 21.9618346,17.5614982 21.0564179,17.3148936 L20.8368138,17.2554925 L20.6172097,17.1996915 L19.8863963,17.010688 L19.6397917,16.9458868 L19.4741887,16.900886 L19.3103856,16.8558852 L19.2275841,16.8324847 L19.0637811,16.7856839 L18.899978,16.737083 L18.7361751,16.686682 C17.539153,16.3122751 16.3925318,15.7866654 15.4979153,14.7930471 C14.1658907,13.3098198 13.9372865,10.6619709 14.8121026,6.84950053 C15.6941189,6.42829276 16.5941355,6.04848573 17.5085524,5.70647945 Z M35.0948769,7.99252161 C37.4061195,11.9957955 35.1488779,17.8855042 29.9431818,22.8841964 C29.8297797,20.3281492 29.1439671,18.5317161 27.8839438,17.494897 C26.971327,16.7442831 25.939908,16.305075 24.9300893,15.9918692 L24.7608862,15.9414683 C24.7051735,15.9249654 24.6493716,15.9087649 24.5934831,15.8928674 L24.42608,15.8460665 L24.2586769,15.8010657 L24.1758754,15.7794653 L23.9292709,15.7164641 L23.6844663,15.655263 L22.8186504,15.4482592 L22.5918462,15.3906581 L22.4442435,15.3546575 L22.3002408,15.3150567 L22.1562381,15.277256 C21.8052738,15.1844968 21.4621974,15.0641191 21.1302192,14.9172494 C19.4741887,14.1504352 18.1331639,12.1271979 18.5993725,8.71613496 L18.678574,8.14732449 L18.7433752,7.70631632 L18.8045763,7.2923087 L18.8639774,6.90530157 L18.9215784,6.54709495 L18.9647792,6.28069002 L19.0187802,5.97468439 L19.060181,5.7478802 L19.0997817,5.54087637 L19.1393825,5.35007287 L19.168183,5.22047048 L19.1861833,5.13946899 C26.2963146,2.96142878 32.7368334,3.90644622 35.0948769,7.99252161 Z" id="形状结合" fill="#778DC3" fill-rule="nonzero"></path>
            </g>
        </g>
    </g>
</svg>