<?xml version="1.0" encoding="UTF-8"?>
<svg width="36px" height="36px" viewBox="0 0 36 36" version="1.1" xmlns="http://www.w3.org/2000/svg" xmlns:xlink="http://www.w3.org/1999/xlink">
    <title>ip-address</title>
    <g id="页面-1" stroke="none" stroke-width="1" fill="none" fill-rule="evenodd">
        <g id="模型icon-库" transform="translate(-5531, -557)">
            <g id="ip-address" transform="translate(5531, 557)">
                <rect id="矩形" fill-opacity="0" fill="#D8D8D8" x="0" y="0" width="36" height="36"></rect>
                <path d="M17.9999794,0 C27.8999805,0 36,8.09997843 36,17.9999794 C36,27.8999805 27.8999393,36 17.9999794,36 C8.09997843,36 0,27.8999805 0,17.9999794 C0,8.09997843 8.09997843,0 17.9999794,0 Z M27.622013,24.9339593 C27.2046287,24.6307185 26.6125723,24.7127482 26.2996181,25.1171778 C24.3421455,27.6468124 21.2833324,29.1694653 17.9829832,29.1694653 C14.7007786,29.1694653 11.6570391,27.6636747 9.69757143,25.15734 C9.38256027,24.7544125 8.79009316,24.6752163 8.37425912,24.9804502 C7.95842507,25.2856841 7.87669197,25.8597624 8.19170313,26.2626899 C10.5038371,29.2201164 14.1016163,31 17.9829832,31 C21.8858168,31 25.5013192,29.2002316 27.8111003,26.21531 C28.1240545,25.8108804 28.0393972,25.2372002 27.622013,24.9339593 Z M15.050991,11 L13.2827276,11 L13.2827276,21.4560141 L15.050991,21.4560141 L15.050991,11 Z M21.6404169,11 L17.1668617,11 L17.1668617,21.4560141 L18.9351251,21.4560141 L18.9351251,17.4434821 L21.6101902,17.4434821 C24.2399152,17.4434821 25.5547777,16.3598056 25.5547777,14.2070968 C25.5547777,12.0690323 24.2399152,11 21.6404169,11 Z M21.5043966,12.4644277 C22.2751781,12.4644277 22.8494859,12.5962262 23.2122066,12.8744675 C23.5749273,13.1380645 23.771401,13.5773928 23.771401,14.2070968 C23.771401,14.8368007 23.5900406,15.2907733 23.2273199,15.5690146 C22.8645992,15.8326116 22.2902915,15.9790543 21.5043966,15.9790543 L18.9351251,15.9790543 L18.9351251,12.4644277 L21.5043966,12.4644277 Z" id="形状结合" fill="#3ABCFB" fill-rule="nonzero"></path>
            </g>
        </g>
    </g>
</svg>