<?xml version="1.0" encoding="UTF-8"?>
<svg width="36px" height="36px" viewBox="0 0 36 36" version="1.1" xmlns="http://www.w3.org/2000/svg" xmlns:xlink="http://www.w3.org/1999/xlink">
    <title>package</title>
    <g id="页面-1" stroke="none" stroke-width="1" fill="none" fill-rule="evenodd">
        <g id="模型icon-库" transform="translate(-5269, -132)">
            <g id="package" transform="translate(5269, 132)">
                <rect id="矩形备份-24" x="0" y="0" width="36" height="36"></rect>
                <path d="M22.6285714,0.5 C24.1907483,0.5 25.4571429,1.76639456 25.4571429,3.32857143 L25.4571429,7.18314286 L33.4285714,7.18571429 C34.8487322,7.18571429 36,8.33698207 36,9.75714286 L36,12.3285714 L0,12.3285714 L0,9.75714286 C0,8.33698207 1.15126779,7.18571429 2.57142857,7.18571429 L10.5428571,7.18314286 L10.5428571,3.32857143 C10.5428571,1.76639456 11.8092517,0.5 13.3714286,0.5 L22.6285714,0.5 Z M22.3688571,3.58571429 L13.6285714,3.58571429 L13.6285714,7.18314286 L22.3688571,7.18314286 L22.3688571,3.58571429 Z M36,14.9 L36,32.9 C36,34.3201608 34.8487322,35.4714286 33.4285714,35.4714286 L2.57142857,35.4714286 C1.15126779,35.4714286 0,34.3201608 0,32.9 L0,14.9 L36,14.9 Z M14.5491684,20.0663943 L12.3909031,17.8610546 L5.49489412,24.6098638 L12.4169506,31.2242232 L14.5487319,28.9932724 L9.93085714,24.5814286 L14.5491684,20.0663943 Z M22.3233827,17.8610546 L20.1651173,20.0663943 L24.7834286,24.5814286 L20.1655538,28.9932724 L22.2973351,31.2242232 L29.2193916,24.6098638 L22.3233827,17.8610546 Z" id="形状结合" fill="#E38306" fill-rule="nonzero"></path>
            </g>
        </g>
    </g>
</svg>