<?xml version="1.0" encoding="UTF-8"?>
<svg width="36px" height="36px" viewBox="0 0 36 36" version="1.1" xmlns="http://www.w3.org/2000/svg" xmlns:xlink="http://www.w3.org/1999/xlink">
    <title>region</title>
    <g id="页面-1" stroke="none" stroke-width="1" fill="none" fill-rule="evenodd">
        <g id="模型icon-库" transform="translate(-5531, -344)">
            <g id="region" transform="translate(5531, 344)">
                <rect id="矩形备份-26" x="0" y="0" width="36" height="36"></rect>
                <path d="M10.5666697,25.2907754 L24.7057684,34.9495859 L7.46616124,34.9495859 L10.5666697,25.2907754 Z M0,17.6132286 L7.06958458,22.5671274 L3.09726937,34.038382 C1.11111176,32.8847044 0,30.6560027 0,28.1782084 L0,17.6132286 Z M20.5236521,1.19462382 C20.1199465,2.31227637 19.9147547,3.49190529 19.9173447,4.68023131 C19.9173447,6.67131796 20.7416214,8.78693334 22.1853731,11.3466554 C22.6065245,12.0922787 23.0768256,12.862512 23.5881433,13.6507363 C24.6086043,15.2201147 25.6966568,16.7444923 26.8492329,18.2195712 L29.5777395,21.660923 L29.5400675,21.7379921 C29.5609377,21.7231084 29.5806515,21.7066665 29.59904,21.6888073 L29.8645041,22.0231372 L32.9453668,18.2703756 C33.0328884,18.1648527 33.1191993,18.0583315 33.2042824,17.9508328 L33.2042824,28.0930415 C33.2042824,30.1578526 32.0899668,31.9719514 30.5839331,33.2927939 L12.2332493,21.1611181 L18.8259491,1.19462382 L20.5236521,1.19462382 Z M13.2640177,1.18969478 L8.18228068,18.2752694 L0,12.415131 L0,7.95772759 C0,4.08209203 2.46304245,1.18969478 5.96012757,1.18969478 L13.2640177,1.18969478 Z M29.918618,0 C33.3059263,0 36,2.70886083 36,6.14038969 L35.9925984,6.33899633 C35.7831508,10.1026969 29.918618,17.2429167 29.918618,17.2429167 C29.918618,17.2429167 23.8355812,9.570299 23.8355812,6.1371154 C23.8355812,2.70558654 26.5280354,0 29.918618,0 Z M29.918618,3.46596174 C28.4076905,3.46596174 27.0573441,4.7851495 27.0573441,6.35342994 C27.0573441,7.92332992 28.171695,9.24255289 29.6793482,9.24255289 C31.1886562,9.24255289 32.5389673,7.92332992 32.5389673,6.35342994 C32.5389673,4.7851495 31.4262712,3.46596174 29.918618,3.46596174 Z" id="changed" fill="#778DC3" fill-rule="nonzero"></path>
            </g>
        </g>
    </g>
</svg>