<?xml version="1.0" encoding="UTF-8"?>
<svg width="36px" height="36px" viewBox="0 0 36 36" version="1.1" xmlns="http://www.w3.org/2000/svg" xmlns:xlink="http://www.w3.org/1999/xlink">
    <title>service-set</title>
    <g id="页面-1" stroke="none" stroke-width="1" fill="none" fill-rule="evenodd">
        <g id="模型icon-库" transform="translate(-5329, -132)">
            <g id="service-set" transform="translate(5329, 132)">
                <g id="编组-3" fill="#000000" opacity="0">
                    <rect id="矩形" x="0" y="0" width="36" height="36"></rect>
                </g>
                <g id="编组" transform="translate(0, 1)" fill="#778DC3">
                    <path d="M28.3846154,22.8461538 C31.3645485,22.8461538 32.6362846,24.8141628 33.0806423,26.9494159 C34.6673077,27.0749738 36,28.4568793 36,30.0893246 C36,31.8484798 34.6037192,33.2307692 32.8262885,33.2307692 L24.5769231,33.2307692 C22.4830731,33.2307692 20.7692308,31.534777 20.7692308,29.4624948 C20.7692308,27.5148106 22.2287192,25.9443763 24.1961538,25.6940283 C24.9576923,24.186565 26.5435962,22.8461538 28.3846154,22.8461538 Z M32.2307692,16.104142 C32.783054,16.104142 33.2307692,16.5518573 33.2307692,17.104142 L33.230502,22.3428913 C31.7454532,21.3489049 29.9596525,20.7692308 28.0384615,20.7692308 C22.9462282,20.7692308 18.8051745,24.8417154 18.694576,29.9074095 L1,29.9076923 C0.44771525,29.9076923 6.76353751e-17,29.4599771 0,28.9076923 L0,17.104142 C-6.76353751e-17,16.5518573 0.44771525,16.104142 1,16.104142 L32.2307692,16.104142 Z M10.6307692,21.6 L5.98461538,21.6 C5.43233063,21.6 4.98461538,22.0477153 4.98461538,22.6 L4.98461538,23.9230769 C4.98461538,24.4753617 5.43233063,24.9230769 5.98461538,24.9230769 L10.6307692,24.9230769 C11.183054,24.9230769 11.6307692,24.4753617 11.6307692,23.9230769 L11.6307692,22.6 C11.6307692,22.0477153 11.183054,21.6 10.6307692,21.6 Z M32.2307692,0 C32.783054,-1.01453063e-16 33.2307692,0.44771525 33.2307692,1 L33.2307692,12.8035503 C33.2307692,13.355835 32.783054,13.8035503 32.2307692,13.8035503 L1,13.8035503 C0.44771525,13.8035503 6.76353751e-17,13.355835 0,12.8035503 L0,1 C-6.76353751e-17,0.44771525 0.44771525,1.01453063e-16 1,0 L32.2307692,0 Z M10.6307692,5.81538462 L5.98461538,5.81538462 C5.43233063,5.81538462 4.98461538,6.26309987 4.98461538,6.81538462 L4.98461538,8.13846154 C4.98461538,8.69074629 5.43233063,9.13846154 5.98461538,9.13846154 L10.6307692,9.13846154 C11.183054,9.13846154 11.6307692,8.69074629 11.6307692,8.13846154 L11.6307692,6.81538462 C11.6307692,6.26309987 11.183054,5.81538462 10.6307692,5.81538462 Z" id="形状结合"></path>
                </g>
            </g>
        </g>
    </g>
</svg>