<?xml version="1.0" encoding="UTF-8"?>
<svg width="36px" height="36px" viewBox="0 0 36 36" version="1.1" xmlns="http://www.w3.org/2000/svg" xmlns:xlink="http://www.w3.org/1999/xlink">
    <title>system</title>
    <g id="页面-1" stroke="none" stroke-width="1" fill="none" fill-rule="evenodd">
        <g id="模型icon-库" transform="translate(-5210, -132)">
            <g id="system" transform="translate(5210, 132)">
                <rect id="矩形备份-23" x="0" y="0" width="36" height="36"></rect>
                <path d="M35.0908828,25.2127558 C35.5320631,26.0355128 35.230044,27.0600739 34.4131229,27.511969 L18.9624739,35.7973597 C18.714626,35.9303546 18.4377261,36 18.15645,36 C17.8750621,36 17.5980484,35.9303209 17.3500744,35.7973245 L1.89977709,27.511969 C1.08285601,27.0600739 0.78083688,26.0355128 1.22201721,25.2127558 C1.66319754,24.3899988 2.68372407,24.0746156 3.51217656,24.5050058 L18.15645,32.3582776 L32.8007234,24.5050058 C33.6291759,24.0746156 34.6497025,24.3899988 35.0908828,25.2127558 Z M35.0908828,17.3748834 C35.5320631,18.1976404 35.230044,19.2222015 34.4131229,19.6740966 L18.9624739,27.9594521 C18.7146872,28.092601 18.4377449,28.1622142 18.15645,28.1620575 C17.8750433,28.1622138 17.5979872,28.0926023 17.3500744,27.9594521 L1.89977709,19.6740966 C1.08285601,19.2222015 0.78083688,18.1976404 1.22201721,17.3748834 C1.66319754,16.5521263 2.68372407,16.2367432 3.51217656,16.6671334 L18.15645,24.5200535 L32.8007234,16.6671334 C33.6291759,16.2367432 34.6497025,16.5521263 35.0908828,17.3748834 Z M18.9881864,0.216466206 L34.4384837,8.84333097 C34.982685,9.14733843 35.3177718,9.72393775 35.3125513,10.3472737 C35.3072077,10.9706096 34.9623979,11.5414476 34.4131229,11.8361892 L18.9624739,20.1218964 C18.7145965,20.2547705 18.437695,20.3241851 18.15645,20.3241851 C17.8750872,20.3241851 17.5980716,20.2547613 17.3500744,20.1218612 L1.89977709,11.836154 C1.35031932,11.5415657 1.00534435,10.9706837 1,10.3472591 C0.994778703,9.72383457 1.33002966,9.14718835 1.87441627,8.84333097 L17.3247136,0.216466206 C17.8416465,-0.0721554019 18.4712535,-0.0721554019 18.9881864,0.216466206 Z" id="形状结合" fill="#6641F9"></path>
            </g>
        </g>
    </g>
</svg>