<?xml version="1.0" encoding="UTF-8"?>
<svg width="36px" height="36px" viewBox="0 0 36 36" version="1.1" xmlns="http://www.w3.org/2000/svg" xmlns:xlink="http://www.w3.org/1999/xlink">
    <title>web</title>
    <g id="页面-1" stroke="none" stroke-width="1" fill="none" fill-rule="evenodd">
        <g id="模型icon-库" transform="translate(-5090, -132)">
            <g id="web" transform="translate(5090, 132)">
                <rect id="矩形" x="0" y="0" width="36" height="36"></rect>
                <path d="M30.6775777,26.7692308 C31.9934534,26.7692308 32.9754501,27.8101473 32.9754501,29.1260229 C32.9754501,30.4418985 31.8363339,31.502455 30.5204583,31.502455 C30.2847791,31.502455 30.1080196,31.502455 29.9509002,31.4238953 C26.8477905,34.2716858 22.5859247,36 18.00982,36 C12.608838,36 7.69885434,33.6432079 4.41898527,29.8723404 L6.61865794,28.6546645 C9.46644845,31.6792144 13.5711948,33.6432079 18.0687398,33.6432079 C21.9967267,33.6432079 25.5908347,32.1702128 28.3011457,29.7937807 C28.3011457,29.5581015 28.2225859,29.400982 28.2225859,29.1456628 C28.2225859,27.8297872 29.3617021,26.7692308 30.6775777,26.7692308 Z M21.7610475,23.6464812 C22.0949264,23.9803601 22.5859247,24.1374795 23.1554828,24.1374795 L23.3126023,24.1374795 C23.7250409,26.1800327 23.8036007,27.8297872 23.7250409,29.0474632 C22.0752864,29.9509002 20.111293,30.4418985 18.0687398,30.3633388 C16.0261866,30.3633388 14.0621931,29.8723404 12.3338789,28.9689034 C12.6677578,28.811784 12.9230769,28.5564648 13.1587561,28.3993453 C16.4386252,25.8461538 19.4631751,24.4713584 21.7610475,23.6464812 Z M12.9230769,18.4811784 C14.4746318,19.3060556 16.2815057,20.1898527 18.4026187,20.9361702 C19.207856,21.2700491 20.111293,21.5057283 20.9361702,21.7610475 L20.9361702,22.0163666 C20.9361702,22.1734861 21.01473,22.3502455 21.01473,22.507365 C18.6382979,23.3322422 15.613748,24.8052373 12.2553191,27.3387889 C11.8625205,27.594108 11.5286416,27.908347 11.1162029,28.2422259 C9.48608838,27.0834697 8.17021277,25.6301146 7.18821604,23.8036007 C7.93453355,22.487725 8.99509002,20.7790507 10.5466448,18.9721768 C10.801964,19.0507365 11.0376432,19.1292962 11.3715221,19.1292962 C11.9410802,19.1292962 12.5106383,18.893617 12.9230769,18.4811784 Z M29.6170213,22.6644845 C28.7135843,24.9427169 27.1620295,26.8281506 25.198036,28.2225859 C25.198036,27.00491 25.0409165,25.4533552 24.7070376,23.6464812 C24.9427169,23.391162 25.1194763,23.1554828 25.2765957,22.8216039 C25.8461538,22.6644845 26.2585925,22.6644845 26.4942717,22.6644845 Z M14.8870704,1.15875614 L14.8870704,3.61374795 C7.93453355,5.08674304 2.69067103,11.1358429 2.69067103,18.4222586 C2.69067103,19.4828151 2.86743044,20.386252 3.02454992,21.3682488 C4.08510638,21.603928 4.8903437,22.507365 4.90998363,23.6464812 C4.90998363,24.9623568 3.77086743,26.0229133 2.45499182,26.0229133 C1.06055646,26.0229133 0,24.9623568 0,23.6464812 C0,22.9983633 0.235679214,22.4288052 0.64811784,22.0163666 C0.392798691,20.8772504 0.235679214,19.6399345 0.235679214,18.4222586 C0.235679214,9.81996727 6.5400982,2.63175123 14.8870704,1.15875614 Z M21.3486088,0 C22.507365,0 23.391162,0.746317512 23.7250409,1.72831424 C30.8346972,4.02618658 36,10.6448445 35.9804159,18.4026187 C35.9804159,20.4451718 35.5679214,22.487725 34.9198036,24.294599 L32.7986907,23.0769231 C33.309329,21.603928 33.5450082,20.0327332 33.5450082,18.4026187 C33.5450082,11.7839607 29.2045827,6.12765957 23.0769231,4.00654664 C22.6644845,4.51718494 21.9967267,4.75286416 21.3486088,4.75286416 C19.9541735,4.75286416 18.893617,3.69230769 18.893617,2.37643208 C18.893617,1.06055646 20.0327332,0 21.3486088,0 Z M6.85433715,13.9247136 C7.42389525,14.5728314 8.2487725,15.299509 9.36824877,16.1440262 C9.28968903,16.3993453 9.2111293,16.6350245 9.2111293,16.9689034 C9.2111293,17.3617021 9.38788871,17.7741408 9.54500818,18.1080196 C8.32733224,19.5810147 7.34533552,20.9754501 6.599018,22.193126 C6.18657938,21.0343699 5.95090016,19.7381342 5.95090016,18.4222586 C5.95090016,16.8707038 6.28477905,15.3191489 6.85433715,13.9247136 Z M26.4157119,9.66284779 C28.8707038,11.8036007 30.3436989,14.98527 30.3436989,18.4222586 C30.3436989,19.4042553 30.1865794,20.3076923 30.0883797,21.3486088 C29.1849427,21.3486088 28.0261866,21.4271686 26.8085106,21.3486088 C26.3175123,21.3486088 25.8265139,21.3486088 25.3355155,21.2700491 C25.0016367,20.6022913 24.4320786,20.111293 23.7839607,19.9541735 C23.4697218,18.9721768 23.0572831,17.9116203 22.6448445,16.8510638 C21.9967267,15.3780687 21.3486088,14.0621931 20.6022913,12.9230769 C20.8576105,12.5106383 21.01473,12.0981997 21.01473,11.6072013 L21.01473,11.3715221 C23.3126023,10.4091653 25.198036,9.898527 26.4157119,9.66284779 Z M17.4402619,13.3551555 C17.8527005,13.6890344 18.3436989,13.8461538 18.8346972,13.8461538 C19.0703764,13.8461538 19.2471358,13.8461538 19.4828151,13.7675941 C20.1505728,14.8281506 20.7986907,16.0458265 21.3682488,17.3617021 C21.7806874,18.2651391 22.0949264,19.1685761 22.3502455,20.0720131 C22.0949264,20.1505728 21.8396072,20.3273322 21.603928,20.5630115 C20.700491,20.3076923 19.797054,20.0720131 18.893617,19.7381342 C16.8510638,18.9918167 15.0441899,18.0883797 13.5908347,17.3813421 L13.5908347,17.0474632 C13.5908347,16.792144 13.512275,16.4582651 13.4337152,16.2225859 L14.6513912,15.2405892 C15.6333879,14.4942717 16.5368249,13.9247136 17.4402619,13.3551555 Z M13.8265139,7.20785597 C14.710311,7.85597381 15.7905074,8.93617021 17.0081833,10.3109656 C16.7528642,10.7234043 16.5957447,11.1358429 16.5957447,11.6268412 C16.5957447,11.8625205 16.5957447,12.0392799 16.6743044,12.1963993 C15.7708674,12.7659574 14.7888707,13.4140753 13.806874,14.1603928 L12.589198,15.1423895 C12.2749591,14.8870704 11.8625205,14.8085106 11.4500818,14.8085106 C11.0572831,14.8085106 10.6448445,14.98527 10.3109656,15.1423895 C8.99509002,14.1603928 8.09165303,13.2569558 7.52209493,12.608838 C8.91653028,10.1538462 11.1162029,8.1898527 13.8265139,7.20785597 Z M18.1276596,6.42225859 C20.6612111,6.42225859 23.0376432,7.22749591 25.0016367,8.54337152 C23.7839607,8.85761047 22.2324059,9.34860884 20.4255319,10.1734861 C20.0130933,9.66284779 19.4435352,9.42716858 18.7954173,9.42716858 C18.5597381,9.42716858 18.3829787,9.42716858 18.1472995,9.50572831 C17.1653028,8.34697218 16.1833061,7.44353519 15.4173486,6.75613748 C16.2422259,6.50081833 17.2242226,6.42225859 18.1276596,6.42225859 Z" id="形状结合" fill="#1A7AFF" fill-rule="nonzero"></path>
            </g>
        </g>
    </g>
</svg>