<?xml version="1.0" encoding="UTF-8"?>
<svg width="105px" height="55px" viewBox="0 0 105 55" version="1.1" xmlns="http://www.w3.org/2000/svg" xmlns:xlink="http://www.w3.org/1999/xlink">
    <title>forms.general-checkbox</title>
    <g id="lydia" stroke="none" stroke-width="1" fill="none" fill-rule="evenodd">
        <g id="构件概览图二" transform="translate(-1102.000000, -539.000000)">
            <g id="forms.general-checkbox" transform="translate(1102.000000, 539.000000)">
                <rect id="矩形备份-125" fill="#FFFFFF" x="0" y="0" width="105" height="55" rx="4"></rect>
                <rect id="矩形备份-70" fill="#D6DBEC" x="29" y="25" width="64.4" height="6" rx="1"></rect>
                <rect id="矩形备份-71" fill="#1A7AFF" x="29" y="11" width="52.1333333" height="6" rx="1"></rect>
                <rect id="矩形备份-131" fill="#D6DBEC" x="29" y="39" width="52.1333333" height="6" rx="1"></rect>
                <rect id="矩形备份-132" stroke="#D6DBEC" transform="translate(19.000000, 28.000000) rotate(-180.000000) translate(-19.000000, -28.000000) " x="14.5" y="23.5" width="9" height="9" rx="1"></rect>
                <rect id="矩形备份-133" stroke="#D6DBEC" transform="translate(19.000000, 42.000000) rotate(-180.000000) translate(-19.000000, -42.000000) " x="14.5" y="37.5" width="9" height="9" rx="1"></rect>
                <path d="M21.75,9 L16.25,9 C15.0073593,9 14,10.0073593 14,11.25 L14,16.75 C14,17.9926407 15.0073593,19 16.25,19 L21.75,19 C22.9926407,19 24,17.9926407 24,16.75 L24,11.25 C24,10.0073593 22.9926407,9 21.75,9 Z M22.446875,12.45125 L18.724375,16.173125 L18.709375,16.186875 L18.693125,16.20125 L18.674375,16.215 L18.656875,16.2275 L18.6375,16.239375 L18.619375,16.25 L18.59875,16.26 L18.58,16.26875 L18.558125,16.276875 L18.539375,16.28375 L18.516875,16.289375 L18.498125,16.29375 L18.474375,16.2975 L18.370625,16.2975 L18.34625,16.294375 L18.32875,16.294375 L18.304375,16.28875 L18.2875,16.284375 L18.263125,16.27625 L18.246875,16.270625 L18.223125,16.259375 L18.2075,16.251875 L18.18375,16.238125 L18.169375,16.23 C18.160625,16.224375 18.1525,16.218125 18.144375,16.211875 L18.133125,16.20375 C18.1213759,16.194326 18.1101115,16.1843131 18.099375,16.17375 L16.125,14.19875 C16.0412553,14.1151231 15.9946149,14.0013602 15.9955412,13.8830143 C15.9964953,13.7646684 16.0449372,13.6516609 16.13,13.569375 C16.3098365,13.4028902 16.5896015,13.4100992 16.760625,13.585625 L18.4125,15.236875 L21.8225,11.826875 C21.9341455,11.7152295 22.0968724,11.671627 22.2493829,11.7124921 C22.4018935,11.7533571 22.5210179,11.8724815 22.5618829,12.0249921 C22.602748,12.1775026 22.5591455,12.3402295 22.4475,12.451875 L22.446875,12.45125 Z" id="形状" fill="#1A7AFF"></path>
                <path d="M93.516,13.523 L88.06,18.979 L85.418,16.337 C85.1443624,16.0561588 84.6967383,16.0446244 84.409,16.311 C84.2727662,16.4425224 84.195078,16.6232592 84.1933575,16.8126132 C84.1916933,17.0019671 84.2661388,17.1840636 84.4,17.318 L87.56,20.477 C87.5771784,20.493901 87.5952015,20.5099215 87.614,20.525 L87.632,20.538 C87.645,20.548 87.658,20.558 87.672,20.567 L87.695,20.58 L87.733,20.602 L87.758,20.614 L87.796,20.632 L87.822,20.641 L87.861,20.654 L87.888,20.661 L87.927,20.67 L87.955,20.67 L87.994,20.675 L88.16,20.675 L88.198,20.669 L88.228,20.662 L88.264,20.653 L88.294,20.642 L88.329,20.629 L88.359,20.615 L88.392,20.599 L88.421,20.582 L88.452,20.563 L88.48,20.543 L88.51,20.521 L88.536,20.498 L88.56,20.476 L94.515,14.521 C94.6936328,14.3423672 94.7633969,14.0820042 94.6980127,13.8379873 C94.6326286,13.5939703 94.4420297,13.4033714 94.1980127,13.3379873 C93.9539958,13.2726031 93.6936328,13.3423672 93.515,13.521 L93.516,13.523 Z" id="路径" fill="#FFFFFF" fill-rule="nonzero"></path>
                <rect id="矩形" fill="#000000" fill-rule="nonzero" opacity="0" x="89.0000004" y="17.0000004" width="15.9999996" height="15.9999996"></rect>
            </g>
        </g>
    </g>
</svg>