<?xml version="1.0" encoding="UTF-8"?>
<svg width="105px" height="55px" viewBox="0 0 105 55" version="1.1" xmlns="http://www.w3.org/2000/svg" xmlns:xlink="http://www.w3.org/1999/xlink">
    <title>forms.general-checkbox[item-color]</title>
    <g id="snippet截图" stroke="none" stroke-width="1" fill="none" fill-rule="evenodd">
        <g id="snippet" transform="translate(-4671.000000, -649.000000)">
            <g id="forms.general-checkbox[item-color]" transform="translate(4671.000000, 649.000000)">
                <rect id="矩形备份-125" x="0" y="0" width="105" height="55" rx="4"></rect>
                <path d="M21.75,23 L16.25,23 C15.0073593,23 14,24.0073593 14,25.25 L14,30.75 C14,31.9926407 15.0073593,33 16.25,33 L21.75,33 C22.9926407,33 24,31.9926407 24,30.75 L24,25.25 C24,24.0073593 22.9926407,23 21.75,23 Z M22.446875,26.45125 L18.724375,30.173125 L18.709375,30.186875 L18.693125,30.20125 L18.674375,30.215 L18.656875,30.2275 L18.6375,30.239375 L18.619375,30.25 L18.59875,30.26 L18.58,30.26875 L18.558125,30.276875 L18.539375,30.28375 L18.516875,30.289375 L18.498125,30.29375 L18.474375,30.2975 L18.370625,30.2975 L18.34625,30.294375 L18.32875,30.294375 L18.304375,30.28875 L18.2875,30.284375 L18.263125,30.27625 L18.246875,30.270625 L18.223125,30.259375 L18.2075,30.251875 L18.18375,30.238125 L18.169375,30.23 C18.160625,30.224375 18.1525,30.218125 18.144375,30.211875 L18.133125,30.20375 C18.1213759,30.194326 18.1101115,30.1843131 18.099375,30.17375 L16.125,28.19875 C16.0412553,28.1151231 15.9946149,28.0013602 15.9955412,27.8830143 C15.9964953,27.7646684 16.0449372,27.6516609 16.13,27.569375 C16.3098365,27.4028902 16.5896015,27.4100992 16.760625,27.585625 L18.4125,29.236875 L21.8225,25.826875 C21.9341455,25.7152295 22.0968724,25.671627 22.2493829,25.7124921 C22.4018935,25.7533571 22.5210179,25.8724815 22.5618829,26.0249921 C22.602748,26.1775026 22.5591455,26.3402295 22.4475,26.451875 L22.446875,26.45125 Z" id="形状备份-2" fill="#52C41A"></path>
                <rect id="矩形备份-70" fill="#D6DBEC" x="29" y="25" width="64.4" height="6" rx="1"></rect>
                <rect id="矩形备份-71" fill="#D6DBEC" x="29" y="11" width="52.1333333" height="6" rx="1"></rect>
                <rect id="矩形备份-131" fill="#D6DBEC" x="29" y="39" width="52.1333333" height="6" rx="1"></rect>
                <path d="M21.75,37 L16.25,37 C15.0073593,37 14,38.0073593 14,39.25 L14,44.75 C14,45.9926407 15.0073593,47 16.25,47 L21.75,47 C22.9926407,47 24,45.9926407 24,44.75 L24,39.25 C24,38.0073593 22.9926407,37 21.75,37 Z" id="形状备份" fill="#F7BF02"></path>
                <path d="M22.446875,40.45125 L18.724375,44.173125 L18.709375,44.186875 L18.693125,44.20125 L18.674375,44.215 L18.656875,44.2275 L18.6375,44.239375 L18.619375,44.25 L18.59875,44.26 L18.58,44.26875 L18.558125,44.276875 L18.539375,44.28375 L18.516875,44.289375 L18.498125,44.29375 L18.474375,44.2975 L18.370625,44.2975 L18.34625,44.294375 L18.32875,44.294375 L18.304375,44.28875 L18.2875,44.284375 L18.263125,44.27625 L18.246875,44.270625 L18.223125,44.259375 L18.2075,44.251875 L18.18375,44.238125 L18.169375,44.23 C18.160625,44.224375 18.1525,44.218125 18.144375,44.211875 L18.133125,44.20375 C18.1213759,44.194326 18.1101115,44.1843131 18.099375,44.17375 L16.125,42.19875 C16.0412553,42.1151231 15.9946149,42.0013602 15.9955412,41.8830143 C15.9964953,41.7646684 16.0449372,41.6516609 16.13,41.569375 C16.3098365,41.4028902 16.5896015,41.4100992 16.760625,41.585625 L18.4125,43.236875 L21.8225,39.826875 C21.9341455,39.7152295 22.0968724,39.671627 22.2493829,39.7124921 C22.4018935,39.7533571 22.5210179,39.8724815 22.5618829,40.0249921 C22.602748,40.1775026 22.5591455,40.3402295 22.4475,40.451875 L22.446875,40.45125 Z" id="路径" fill="#FFFFFF"></path>
                <path d="M21.75,9 L16.25,9 C15.0073593,9 14,10.0073593 14,11.25 L14,16.75 C14,17.9926407 15.0073593,19 16.25,19 L21.75,19 C22.9926407,19 24,17.9926407 24,16.75 L24,11.25 C24,10.0073593 22.9926407,9 21.75,9 Z M22.446875,12.45125 L18.724375,16.173125 L18.709375,16.186875 L18.693125,16.20125 L18.674375,16.215 L18.656875,16.2275 L18.6375,16.239375 L18.619375,16.25 L18.59875,16.26 L18.58,16.26875 L18.558125,16.276875 L18.539375,16.28375 L18.516875,16.289375 L18.498125,16.29375 L18.474375,16.2975 L18.370625,16.2975 L18.34625,16.294375 L18.32875,16.294375 L18.304375,16.28875 L18.2875,16.284375 L18.263125,16.27625 L18.246875,16.270625 L18.223125,16.259375 L18.2075,16.251875 L18.18375,16.238125 L18.169375,16.23 C18.160625,16.224375 18.1525,16.218125 18.144375,16.211875 L18.133125,16.20375 C18.1213759,16.194326 18.1101115,16.1843131 18.099375,16.17375 L16.125,14.19875 C16.0412553,14.1151231 15.9946149,14.0013602 15.9955412,13.8830143 C15.9964953,13.7646684 16.0449372,13.6516609 16.13,13.569375 C16.3098365,13.4028902 16.5896015,13.4100992 16.760625,13.585625 L18.4125,15.236875 L21.8225,11.826875 C21.9341455,11.7152295 22.0968724,11.671627 22.2493829,11.7124921 C22.4018935,11.7533571 22.5210179,11.8724815 22.5618829,12.0249921 C22.602748,12.1775026 22.5591455,12.3402295 22.4475,12.451875 L22.446875,12.45125 Z" id="形状" fill="#F24C25"></path>
            </g>
        </g>
    </g>
</svg>