<?xml version="1.0" encoding="UTF-8"?>
<svg width="105px" height="55px" viewBox="0 0 105 55" version="1.1" xmlns="http://www.w3.org/2000/svg" xmlns:xlink="http://www.w3.org/1999/xlink">
    <title>forms-widgets.checkbox-default-with-icon</title>
    <defs>
        <rect id="path-1" x="0" y="0" width="105" height="55" rx="4"></rect>
    </defs>
    <g id="nora" stroke="none" stroke-width="1" fill="none" fill-rule="evenodd">
        <g id="-构件概览图八" transform="translate(-1342.000000, -103.000000)">
            <g id="forms-widgets.checkbox-default-with-icon" transform="translate(1342.000000, 103.000000)">
                <mask id="mask-2" fill="white">
                    <use xlink:href="#path-1"></use>
                </mask>
                <g id="矩形备份-46"></g>
                <g id="编组-10" mask="url(#mask-2)">
                    <g transform="translate(19.000000, 20.000000)" id="编组-6">
                        <g id="编组-4">
                            <g id="编组-3" transform="translate(8.000000, 0.000000)">
                                <rect id="矩形备份-76" fill="#D6DBEC" x="8" y="0" width="14" height="6" rx="1"></rect>
                                <rect id="矩形备份-76" fill="#778DC3" x="0" y="0" width="6" height="6" rx="3"></rect>
                            </g>
                            <rect id="矩形备份-76" fill="#D6DBEC" x="52" y="0" width="14" height="6" rx="1"></rect>
                            <rect id="矩形备份-93" fill="#778DC3" x="44" y="0" width="6" height="6" rx="3"></rect>
                            <rect id="矩形备份-76" fill="#F4F5F9" x="16" y="10" width="14" height="6" rx="1"></rect>
                            <rect id="矩形备份-92" fill="#778DC3" x="8" y="10" width="6" height="6" rx="3"></rect>
                            <path d="M4.65,0 L1.35,0 C0.604415588,0 0,0.604415588 0,1.35 L0,4.65 C0,5.39558441 0.604415588,6 1.35,6 L4.65,6 C5.39558441,6 6,5.39558441 6,4.65 L6,1.35 C6,0.604415588 5.39558441,0 4.65,0 Z M5.068125,2.07075 L2.834625,4.303875 L2.825625,4.312125 L2.815875,4.32075 L2.804625,4.329 L2.794125,4.3365 L2.7825,4.343625 L2.771625,4.35 L2.75925,4.356 L2.748,4.36125 L2.734875,4.366125 L2.723625,4.37025 L2.710125,4.373625 L2.698875,4.37625 L2.684625,4.3785 L2.622375,4.3785 L2.60775,4.376625 L2.59725,4.376625 L2.582625,4.37325 L2.5725,4.370625 L2.557875,4.36575 L2.548125,4.362375 L2.533875,4.355625 L2.5245,4.351125 L2.51025,4.342875 L2.501625,4.338 C2.496375,4.334625 2.4915,4.330875 2.486625,4.327125 L2.479875,4.32225 C2.47282556,4.31659558 2.46606691,4.31058789 2.459625,4.30425 L1.275,3.11925 C1.22475317,3.06907385 1.19676897,3.00081612 1.19732471,2.92980857 C1.19789719,2.85880102 1.22696233,2.79099651 1.278,2.741625 C1.38590187,2.64173413 1.5537609,2.64605954 1.656375,2.751375 L2.6475,3.742125 L4.6935,1.696125 C4.7604873,1.6291377 4.85812341,1.60297618 4.94962976,1.62749524 C5.04113611,1.65201429 5.11261071,1.72348889 5.13712976,1.81499524 C5.16164882,1.90650159 5.1354873,2.0041377 5.0685,2.071125 L5.068125,2.07075 Z" id="形状" fill="#1A7AFF"></path>
                            <path d="M40.65,0 L37.35,0 C36.6044156,0 36,0.604415588 36,1.35 L36,4.65 C36,5.39558441 36.6044156,6 37.35,6 L40.65,6 C41.3955844,6 42,5.39558441 42,4.65 L42,1.35 C42,0.604415588 41.3955844,0 40.65,0 Z M41.068125,2.07075 L38.834625,4.303875 L38.825625,4.312125 L38.815875,4.32075 L38.804625,4.329 L38.794125,4.3365 L38.7825,4.343625 L38.771625,4.35 L38.75925,4.356 L38.748,4.36125 L38.734875,4.366125 L38.723625,4.37025 L38.710125,4.373625 L38.698875,4.37625 L38.684625,4.3785 L38.622375,4.3785 L38.60775,4.376625 L38.59725,4.376625 L38.582625,4.37325 L38.5725,4.370625 L38.557875,4.36575 L38.548125,4.362375 L38.533875,4.355625 L38.5245,4.351125 L38.51025,4.342875 L38.501625,4.338 C38.496375,4.334625 38.4915,4.330875 38.486625,4.327125 L38.479875,4.32225 C38.4728256,4.31659558 38.4660669,4.31058789 38.459625,4.30425 L37.275,3.11925 C37.2247532,3.06907385 37.196769,3.00081612 37.1973247,2.92980857 C37.1978972,2.85880102 37.2269623,2.79099651 37.278,2.741625 C37.3859019,2.64173413 37.5537609,2.64605954 37.656375,2.751375 L38.6475,3.742125 L40.6935,1.696125 C40.7604873,1.6291377 40.8581234,1.60297618 40.9496298,1.62749524 C41.0411361,1.65201429 41.1126107,1.72348889 41.1371298,1.81499524 C41.1616488,1.90650159 41.1354873,2.0041377 41.0685,2.071125 L41.068125,2.07075 Z" id="形状备份-3" fill="#1A7AFF"></path>
                        </g>
                        <g id="编组-4备份" transform="translate(0.000000, 10.000000)" stroke="#D6DBEC">
                            <path d="M4.65,0.5 C4.88472102,0.5 5.09722102,0.595139491 5.25104076,0.748959236 C5.40486051,0.902778981 5.5,1.11527898 5.5,1.35 L5.5,1.35 L5.5,4.65 C5.5,4.88472102 5.40486051,5.09722102 5.25104076,5.25104076 C5.09722102,5.40486051 4.88472102,5.5 4.65,5.5 L4.65,5.5 L1.35,5.5 C1.11527898,5.5 0.902778981,5.40486051 0.748959236,5.25104076 C0.595139491,5.09722102 0.5,4.88472102 0.5,4.65 L0.5,4.65 L0.5,1.35 C0.5,1.11527898 0.595139491,0.902778981 0.748959236,0.748959236 C0.902778981,0.595139491 1.11527898,0.5 1.35,0.5 L1.35,0.5 Z" id="路径"></path>
                        </g>
                    </g>
                </g>
            </g>
        </g>
    </g>
</svg>