<?xml version="1.0" encoding="UTF-8"?>
<svg width="105px" height="55px" viewBox="0 0 105 55" version="1.1" xmlns="http://www.w3.org/2000/svg" xmlns:xlink="http://www.w3.org/1999/xlink">
    <title>forms-widgets.checkbox-with-col</title>
    <defs>
        <rect id="path-1" x="0" y="0" width="105" height="55" rx="4"></rect>
    </defs>
    <g id="nora" stroke="none" stroke-width="1" fill="none" fill-rule="evenodd">
        <g id="-构件概览图八" transform="translate(-917.000000, -400.000000)">
            <g id="forms-widgets.checkbox-with-col" transform="translate(917.000000, 400.000000)">
                <mask id="mask-2" fill="white">
                    <use xlink:href="#path-1"></use>
                </mask>
                <g id="矩形备份-46"></g>
                <g id="编组-11" mask="url(#mask-2)">
                    <g transform="translate(13.000000, 20.000000)">
                        <g id="编组-6">
                            <g id="编组-4">
                                <g id="编组-3" transform="translate(8.000000, 0.000000)" fill="#D6DBEC">
                                    <rect id="矩形备份-76" x="0" y="0" width="14" height="6" rx="1"></rect>
                                </g>
                                <g id="编组-3备份" transform="translate(36.000000, 0.000000)">
                                    <rect id="矩形备份-76" fill="#D6DBEC" x="0" y="0" width="14" height="6" rx="1"></rect>
                                    <rect id="矩形备份-76" fill="#F4F5F9" x="28" y="0" width="14" height="6" rx="1"></rect>
                                </g>
                                <path d="M4.65,0 L1.35,0 C0.604415588,0 0,0.604415588 0,1.35 L0,4.65 C0,5.39558441 0.604415588,6 1.35,6 L4.65,6 C5.39558441,6 6,5.39558441 6,4.65 L6,1.35 C6,0.604415588 5.39558441,0 4.65,0 Z M5.068125,2.07075 L2.834625,4.303875 L2.825625,4.312125 L2.815875,4.32075 L2.804625,4.329 L2.794125,4.3365 L2.7825,4.343625 L2.771625,4.35 L2.75925,4.356 L2.748,4.36125 L2.734875,4.366125 L2.723625,4.37025 L2.710125,4.373625 L2.698875,4.37625 L2.684625,4.3785 L2.622375,4.3785 L2.60775,4.376625 L2.59725,4.376625 L2.582625,4.37325 L2.5725,4.370625 L2.557875,4.36575 L2.548125,4.362375 L2.533875,4.355625 L2.5245,4.351125 L2.51025,4.342875 L2.501625,4.338 C2.496375,4.334625 2.4915,4.330875 2.486625,4.327125 L2.479875,4.32225 C2.47282556,4.31659558 2.46606691,4.31058789 2.459625,4.30425 L1.275,3.11925 C1.22475317,3.06907385 1.19676897,3.00081612 1.19732471,2.92980857 C1.19789719,2.85880102 1.22696233,2.79099651 1.278,2.741625 C1.38590187,2.64173413 1.5537609,2.64605954 1.656375,2.751375 L2.6475,3.742125 L4.6935,1.696125 C4.7604873,1.6291377 4.85812341,1.60297618 4.94962976,1.62749524 C5.04113611,1.65201429 5.11261071,1.72348889 5.13712976,1.81499524 C5.16164882,1.90650159 5.1354873,2.0041377 5.0685,2.071125 L5.068125,2.07075 Z" id="形状" fill="#1A7AFF"></path>
                                <path d="M32.65,0 L29.35,0 C28.6044156,0 28,0.604415588 28,1.35 L28,4.65 C28,5.39558441 28.6044156,6 29.35,6 L32.65,6 C33.3955844,6 34,5.39558441 34,4.65 L34,1.35 C34,0.604415588 33.3955844,0 32.65,0 Z M33.068125,2.07075 L30.834625,4.303875 L30.825625,4.312125 L30.815875,4.32075 L30.804625,4.329 L30.794125,4.3365 L30.7825,4.343625 L30.771625,4.35 L30.75925,4.356 L30.748,4.36125 L30.734875,4.366125 L30.723625,4.37025 L30.710125,4.373625 L30.698875,4.37625 L30.684625,4.3785 L30.622375,4.3785 L30.60775,4.376625 L30.59725,4.376625 L30.582625,4.37325 L30.5725,4.370625 L30.557875,4.36575 L30.548125,4.362375 L30.533875,4.355625 L30.5245,4.351125 L30.51025,4.342875 L30.501625,4.338 C30.496375,4.334625 30.4915,4.330875 30.486625,4.327125 L30.479875,4.32225 C30.4728256,4.31659558 30.4660669,4.31058789 30.459625,4.30425 L29.275,3.11925 C29.2247532,3.06907385 29.196769,3.00081612 29.1973247,2.92980857 C29.1978972,2.85880102 29.2269623,2.79099651 29.278,2.741625 C29.3859019,2.64173413 29.5537609,2.64605954 29.656375,2.751375 L30.6475,3.742125 L32.6935,1.696125 C32.7604873,1.6291377 32.8581234,1.60297618 32.9496298,1.62749524 C33.0411361,1.65201429 33.1126107,1.72348889 33.1371298,1.81499524 C33.1616488,1.90650159 33.1354873,2.0041377 33.0685,2.071125 L33.068125,2.07075 Z" id="形状备份-3" fill="#1A7AFF"></path>
                            </g>
                            <g id="编组-4备份" transform="translate(56.000000, 0.000000)" stroke="#D6DBEC">
                                <path d="M4.65,0.5 C4.88472102,0.5 5.09722102,0.595139491 5.25104076,0.748959236 C5.40486051,0.902778981 5.5,1.11527898 5.5,1.35 L5.5,1.35 L5.5,4.65 C5.5,4.88472102 5.40486051,5.09722102 5.25104076,5.25104076 C5.09722102,5.40486051 4.88472102,5.5 4.65,5.5 L4.65,5.5 L1.35,5.5 C1.11527898,5.5 0.902778981,5.40486051 0.748959236,5.25104076 C0.595139491,5.09722102 0.5,4.88472102 0.5,4.65 L0.5,4.65 L0.5,1.35 C0.5,1.11527898 0.595139491,0.902778981 0.748959236,0.748959236 C0.902778981,0.595139491 1.11527898,0.5 1.35,0.5 L1.35,0.5 Z" id="路径"></path>
                            </g>
                        </g>
                        <g id="编组-6备份" transform="translate(0.000000, 10.000000)">
                            <g id="编组-4" transform="translate(8.000000, 0.000000)">
                                <g id="编组-3" fill="#F4F5F9">
                                    <rect id="矩形备份-76" x="0" y="0" width="14" height="6" rx="1"></rect>
                                </g>
                                <g id="编组-3备份" transform="translate(28.000000, 0.000000)">
                                    <rect id="矩形备份-76" fill="#D6DBEC" x="0" y="0" width="14" height="6" rx="1"></rect>
                                    <rect id="矩形备份-76" fill="#F4F5F9" x="28" y="0" width="14" height="6" rx="1"></rect>
                                </g>
                                <path d="M24.65,0 L21.35,0 C20.6044156,0 20,0.604415588 20,1.35 L20,4.65 C20,5.39558441 20.6044156,6 21.35,6 L24.65,6 C25.3955844,6 26,5.39558441 26,4.65 L26,1.35 C26,0.604415588 25.3955844,0 24.65,0 Z M25.068125,2.07075 L22.834625,4.303875 L22.825625,4.312125 L22.815875,4.32075 L22.804625,4.329 L22.794125,4.3365 L22.7825,4.343625 L22.771625,4.35 L22.75925,4.356 L22.748,4.36125 L22.734875,4.366125 L22.723625,4.37025 L22.710125,4.373625 L22.698875,4.37625 L22.684625,4.3785 L22.622375,4.3785 L22.60775,4.376625 L22.59725,4.376625 L22.582625,4.37325 L22.5725,4.370625 L22.557875,4.36575 L22.548125,4.362375 L22.533875,4.355625 L22.5245,4.351125 L22.51025,4.342875 L22.501625,4.338 C22.496375,4.334625 22.4915,4.330875 22.486625,4.327125 L22.479875,4.32225 C22.4728256,4.31659558 22.4660669,4.31058789 22.459625,4.30425 L21.275,3.11925 C21.2247532,3.06907385 21.196769,3.00081612 21.1973247,2.92980857 C21.1978972,2.85880102 21.2269623,2.79099651 21.278,2.741625 C21.3859019,2.64173413 21.5537609,2.64605954 21.656375,2.751375 L22.6475,3.742125 L24.6935,1.696125 C24.7604873,1.6291377 24.8581234,1.60297618 24.9496298,1.62749524 C25.0411361,1.65201429 25.1126107,1.72348889 25.1371298,1.81499524 C25.1616488,1.90650159 25.1354873,2.0041377 25.0685,2.071125 L25.068125,2.07075 Z" id="形状备份-3" fill="#1A7AFF"></path>
                            </g>
                            <g id="编组-4备份" transform="translate(56.000000, 0.000000)" stroke="#D6DBEC">
                                <path d="M4.65,0.5 C4.88472102,0.5 5.09722102,0.595139491 5.25104076,0.748959236 C5.40486051,0.902778981 5.5,1.11527898 5.5,1.35 L5.5,1.35 L5.5,4.65 C5.5,4.88472102 5.40486051,5.09722102 5.25104076,5.25104076 C5.09722102,5.40486051 4.88472102,5.5 4.65,5.5 L4.65,5.5 L1.35,5.5 C1.11527898,5.5 0.902778981,5.40486051 0.748959236,5.25104076 C0.595139491,5.09722102 0.5,4.88472102 0.5,4.65 L0.5,4.65 L0.5,1.35 C0.5,1.11527898 0.595139491,0.902778981 0.748959236,0.748959236 C0.902778981,0.595139491 1.11527898,0.5 1.35,0.5 L1.35,0.5 Z" id="路径"></path>
                            </g>
                            <g id="编组-4备份-4" stroke="#D6DBEC">
                                <path d="M4.65,0.5 C4.88472102,0.5 5.09722102,0.595139491 5.25104076,0.748959236 C5.40486051,0.902778981 5.5,1.11527898 5.5,1.35 L5.5,1.35 L5.5,4.65 C5.5,4.88472102 5.40486051,5.09722102 5.25104076,5.25104076 C5.09722102,5.40486051 4.88472102,5.5 4.65,5.5 L4.65,5.5 L1.35,5.5 C1.11527898,5.5 0.902778981,5.40486051 0.748959236,5.25104076 C0.595139491,5.09722102 0.5,4.88472102 0.5,4.65 L0.5,4.65 L0.5,1.35 C0.5,1.11527898 0.595139491,0.902778981 0.748959236,0.748959236 C0.902778981,0.595139491 1.11527898,0.5 1.35,0.5 L1.35,0.5 Z" id="路径"></path>
                            </g>
                        </g>
                    </g>
                </g>
            </g>
        </g>
    </g>
</svg>