<?xml version="1.0" encoding="UTF-8"?>
<svg width="105px" height="55px" viewBox="0 0 105 55" version="1.1" xmlns="http://www.w3.org/2000/svg" xmlns:xlink="http://www.w3.org/1999/xlink">
    <title>forms-widgets.checkbox-icon</title>
    <defs>
        <rect id="path-1" x="0" y="0" width="105" height="55" rx="4"></rect>
    </defs>
    <g id="nora" stroke="none" stroke-width="1" fill="none" fill-rule="evenodd">
        <g id="-构件概览图八" transform="translate(-917.000000, -608.000000)">
            <g id="forms-widgets.checkbox-icon" transform="translate(917.000000, 608.000000)">
                <mask id="mask-2" fill="white">
                    <use xlink:href="#path-1"></use>
                </mask>
                <g id="矩形备份-46"></g>
                <g id="编组-7" mask="url(#mask-2)">
                    <g transform="translate(9.000000, 15.000000)">
                        <rect id="矩形" stroke-opacity="0.5" stroke="#1A7AFF" stroke-width="1" fill="none" x="0" y="0" width="25" height="25" rx="1"></rect>
                        <rect id="矩形备份-76" stroke="none" fill="#D6DBEC" fill-rule="evenodd" x="8" y="5" width="9" height="9" rx="1"></rect>
                        <rect id="矩形备份-76" stroke="none" fill="#F4F5F9" fill-rule="evenodd" x="5" y="16" width="15" height="4" rx="1"></rect>
                        <path d="M22.1,2 L19.9,2 C19.4029437,2 19,2.40294373 19,2.9 L19,5.1 C19,5.59705627 19.4029437,6 19.9,6 L22.1,6 C22.5970563,6 23,5.59705627 23,5.1 L23,2.9 C23,2.40294373 22.5970563,2 22.1,2 Z M22.37875,3.3805 L20.88975,4.86925 L20.88375,4.87475 L20.87725,4.8805 L20.86975,4.886 L20.86275,4.891 L20.855,4.89575 L20.84775,4.9 L20.8395,4.904 L20.832,4.9075 L20.82325,4.91075 L20.81575,4.9135 L20.80675,4.91575 L20.79925,4.9175 L20.78975,4.919 L20.74825,4.919 L20.7385,4.91775 L20.7315,4.91775 L20.72175,4.9155 L20.715,4.91375 L20.70525,4.9105 L20.69875,4.90825 L20.68925,4.90375 L20.683,4.90075 L20.6735,4.89525 L20.66775,4.892 C20.66425,4.88975 20.661,4.88725 20.65775,4.88475 L20.65325,4.8815 C20.6485504,4.87773039 20.6440446,4.87372526 20.63975,4.8695 L19.85,4.0795 C19.8165021,4.04604923 19.797846,4.00054408 19.7982165,3.95320571 C19.7985981,3.90586735 19.8179749,3.86066434 19.852,3.82775 C19.9239346,3.76115609 20.0358406,3.76403969 20.10425,3.83425 L20.765,4.49475 L22.129,3.13075 C22.1736582,3.0860918 22.2387489,3.06865079 22.2997532,3.08499682 C22.3607574,3.10134286 22.4084071,3.14899259 22.4247532,3.20999682 C22.4410992,3.27100106 22.4236582,3.3360918 22.379,3.38075 L22.37875,3.3805 Z" id="形状" stroke="none" fill="#1A7AFF" fill-rule="evenodd"></path>
                    </g>
                </g>
                <g id="编组-7备份" mask="url(#mask-2)">
                    <g transform="translate(40.000000, 15.000000)">
                        <rect id="矩形" stroke-opacity="0.5" stroke="#1A7AFF" stroke-width="1" fill="none" x="0" y="0" width="25" height="25" rx="1"></rect>
                        <rect id="矩形备份-76" stroke="none" fill="#D6DBEC" fill-rule="evenodd" x="8" y="5" width="9" height="9" rx="1"></rect>
                        <rect id="矩形备份-76" stroke="none" fill="#F4F5F9" fill-rule="evenodd" x="5" y="16" width="15" height="4" rx="1"></rect>
                        <path d="M22.1,2 L19.9,2 C19.4029437,2 19,2.40294373 19,2.9 L19,5.1 C19,5.59705627 19.4029437,6 19.9,6 L22.1,6 C22.5970563,6 23,5.59705627 23,5.1 L23,2.9 C23,2.40294373 22.5970563,2 22.1,2 Z M22.37875,3.3805 L20.88975,4.86925 L20.88375,4.87475 L20.87725,4.8805 L20.86975,4.886 L20.86275,4.891 L20.855,4.89575 L20.84775,4.9 L20.8395,4.904 L20.832,4.9075 L20.82325,4.91075 L20.81575,4.9135 L20.80675,4.91575 L20.79925,4.9175 L20.78975,4.919 L20.74825,4.919 L20.7385,4.91775 L20.7315,4.91775 L20.72175,4.9155 L20.715,4.91375 L20.70525,4.9105 L20.69875,4.90825 L20.68925,4.90375 L20.683,4.90075 L20.6735,4.89525 L20.66775,4.892 C20.66425,4.88975 20.661,4.88725 20.65775,4.88475 L20.65325,4.8815 C20.6485504,4.87773039 20.6440446,4.87372526 20.63975,4.8695 L19.85,4.0795 C19.8165021,4.04604923 19.797846,4.00054408 19.7982165,3.95320571 C19.7985981,3.90586735 19.8179749,3.86066434 19.852,3.82775 C19.9239346,3.76115609 20.0358406,3.76403969 20.10425,3.83425 L20.765,4.49475 L22.129,3.13075 C22.1736582,3.0860918 22.2387489,3.06865079 22.2997532,3.08499682 C22.3607574,3.10134286 22.4084071,3.14899259 22.4247532,3.20999682 C22.4410992,3.27100106 22.4236582,3.3360918 22.379,3.38075 L22.37875,3.3805 Z" id="形状" stroke="none" fill="#1A7AFF" fill-rule="evenodd"></path>
                    </g>
                </g>
                <g id="编组-7备份-2" mask="url(#mask-2)">
                    <g transform="translate(71.000000, 15.000000)">
                        <rect id="矩形" stroke="#D6DBEC" stroke-width="1" fill="none" x="0" y="0" width="25" height="25" rx="1"></rect>
                        <rect id="矩形备份-76" stroke="none" fill="#D6DBEC" fill-rule="evenodd" x="8" y="5" width="9" height="9" rx="1"></rect>
                        <path d="M22.1,2.5 L22.5,5.1 L19.9,5.5 L19.5,2.9 L22.1,2.5 Z" id="路径" stroke="#D6DBEC" stroke-width="1" fill="none"></path>
                        <rect id="矩形备份-76" stroke="none" fill="#F4F5F9" fill-rule="evenodd" x="5" y="16" width="15" height="4" rx="1"></rect>
                    </g>
                </g>
            </g>
        </g>
    </g>
</svg>