<?xml version="1.0" encoding="UTF-8"?>
<svg width="105px" height="55px" viewBox="0 0 105 55" version="1.1" xmlns="http://www.w3.org/2000/svg" xmlns:xlink="http://www.w3.org/1999/xlink">
    <title>forms.general-form[basic]</title>
    <g id="snippet截图" stroke="none" stroke-width="1" fill="none" fill-rule="evenodd">
        <g id="画板" transform="translate(-1115.000000, -31.000000)">
            <g id="forms.general-form[basic]" transform="translate(1115.000000, 31.000000)">
                <rect id="矩形" x="0" y="0" width="105" height="55" rx="4"></rect>
                <rect id="矩形备份-137" fill="#1A7AFF" x="35" y="46" width="11" height="4" rx="1"></rect>
                <rect id="矩形备份-138" fill="#D6DBEC" x="48" y="46" width="10" height="4" rx="1"></rect>
                <rect id="矩形备份-48" fill="#D6DBEC" x="16" y="6" width="16" height="4" rx="1"></rect>
                <rect id="矩形备份-49" fill="#F4F5F9" x="35" y="6" width="54" height="4" rx="1"></rect>
                <rect id="矩形备份-48" fill="#778DC3" x="16" y="14" width="16" height="4" rx="1"></rect>
                <rect id="矩形备份-49" fill="#F4F5F9" x="35" y="14" width="38" height="4" rx="1"></rect>
                <rect id="矩形备份-48" fill="#F24C25" x="16" y="22" width="16" height="4" rx="1"></rect>
                <rect id="矩形备份-49" fill="#F4F5F9" x="35" y="22" width="20" height="4" rx="1"></rect>
                <rect id="矩形备份-48" fill="#52C41A" x="16" y="30" width="16" height="4" rx="1"></rect>
                <rect id="矩形备份-49" fill="#F4F5F9" x="35" y="30" width="48" height="4" rx="1"></rect>
                <rect id="矩形备份-48" fill="#D6DBEC" x="16" y="38" width="16" height="4" rx="1"></rect>
                <rect id="矩形备份-49" fill="#F4F5F9" x="35" y="38" width="29" height="4" rx="1"></rect>
            </g>
        </g>
    </g>
</svg>