<?xml version="1.0" encoding="UTF-8"?>
<svg width="105px" height="55px" viewBox="0 0 105 55" version="1.1" xmlns="http://www.w3.org/2000/svg" xmlns:xlink="http://www.w3.org/1999/xlink">
    <title>forms.general-form[dynamic]</title>
    <g id="snippet截图" stroke="none" stroke-width="1" fill="none" fill-rule="evenodd">
        <g id="画板" transform="translate(-828.000000, -36.000000)">
            <g id="forms.general-form[dynamic]" transform="translate(828.000000, 36.000000)">
                <rect id="矩形" x="0" y="0" width="105" height="55" rx="4"></rect>
                <rect id="矩形备份-137" fill="#1A7AFF" x="35" y="46" width="11" height="4" rx="1"></rect>
                <rect id="矩形备份-138" fill="#D6DBEC" x="48" y="46" width="10" height="4" rx="1"></rect>
                <rect id="矩形备份-48" fill="#D6DBEC" x="16" y="6" width="16" height="4" rx="1"></rect>
                <rect id="矩形备份-49" fill="#F4F5F9" x="35" y="6" width="54" height="4" rx="1"></rect>
                <rect id="矩形备份-48" fill="#D6DBEC" x="16" y="14" width="16" height="4" rx="1"></rect>
                <rect id="矩形备份-49" fill="#F4F5F9" x="35" y="14" width="38" height="4" rx="1"></rect>
                <rect id="矩形备份-48" fill="#778DC3" x="16" y="22" width="16" height="4" rx="1"></rect>
                <rect id="矩形备份-49" stroke="#1A7AFF" fill="#F4F5F9" x="35.5" y="22.5" width="3" height="3" rx="1.5"></rect>
                <g id="编组-4" transform="translate(40.000000, 22.000000)" fill="#D6DBEC">
                    <rect id="矩形备份-76" x="0.82025641" y="0" width="1" height="4"></rect>
                    <rect id="矩形备份-90" x="1.64051282" y="0" width="1" height="4"></rect>
                    <rect id="矩形备份-91" x="2.46076923" y="0" width="1" height="4"></rect>
                    <rect id="矩形备份-92" x="3.28102564" y="0" width="1" height="4"></rect>
                    <rect id="矩形备份-93" x="0" y="0" width="1" height="4"></rect>
                    <rect id="矩形备份-94" x="4.10128205" y="0" width="1" height="4"></rect>
                    <rect id="矩形备份-95" x="4.92153846" y="0" width="1" height="4"></rect>
                    <rect id="矩形备份-96" x="5.74179487" y="0" width="1" height="4"></rect>
                    <rect id="矩形备份-97" x="6.56205128" y="0" width="1" height="4"></rect>
                    <rect id="矩形备份-98" x="8.2025641" y="0" width="1" height="4"></rect>
                    <rect id="矩形备份-99" x="15.5848718" y="0" width="1" height="4"></rect>
                    <rect id="矩形备份-100" x="7.38230769" y="0" width="1" height="4"></rect>
                    <rect id="矩形备份-101" x="9.02282051" y="0" width="1" height="4"></rect>
                    <rect id="矩形备份-102" x="9.84307692" y="0" width="1" height="4"></rect>
                    <rect id="矩形备份-103" x="10.6633333" y="0" width="1" height="4"></rect>
                    <rect id="矩形备份-104" x="11.4835897" y="0" width="1" height="4"></rect>
                    <rect id="矩形备份-105" x="12.3038462" y="0" width="1" height="4"></rect>
                    <rect id="矩形备份-106" x="13.1241026" y="0" width="1" height="4"></rect>
                    <rect id="矩形备份-107" x="13.944359" y="0" width="1" height="4"></rect>
                    <rect id="矩形备份-108" x="14.7646154" y="0" width="1" height="4"></rect>
                </g>
                <rect id="矩形备份-49" stroke="#D6DBEC" x="61.5" y="22.5" width="3" height="3" rx="1.5"></rect>
                <g id="编组-4" transform="translate(66.000000, 22.000000)" fill="#D6DBEC">
                    <rect id="矩形备份-76" x="0.82025641" y="0" width="1" height="4"></rect>
                    <rect id="矩形备份-90" x="1.64051282" y="0" width="1" height="4"></rect>
                    <rect id="矩形备份-91" x="2.46076923" y="0" width="1" height="4"></rect>
                    <rect id="矩形备份-92" x="3.28102564" y="0" width="1" height="4"></rect>
                    <rect id="矩形备份-93" x="0" y="0" width="1" height="4"></rect>
                    <rect id="矩形备份-94" x="4.10128205" y="0" width="1" height="4"></rect>
                    <rect id="矩形备份-95" x="4.92153846" y="0" width="1" height="4"></rect>
                    <rect id="矩形备份-96" x="5.74179487" y="0" width="1" height="4"></rect>
                    <rect id="矩形备份-97" x="6.56205128" y="0" width="1" height="4"></rect>
                    <rect id="矩形备份-98" x="8.2025641" y="0" width="1" height="4"></rect>
                    <rect id="矩形备份-99" x="15.5848718" y="0" width="1" height="4"></rect>
                    <rect id="矩形备份-100" x="7.38230769" y="0" width="1" height="4"></rect>
                    <rect id="矩形备份-101" x="9.02282051" y="0" width="1" height="4"></rect>
                    <rect id="矩形备份-102" x="9.84307692" y="0" width="1" height="4"></rect>
                    <rect id="矩形备份-103" x="10.6633333" y="0" width="1" height="4"></rect>
                    <rect id="矩形备份-104" x="11.4835897" y="0" width="1" height="4"></rect>
                    <rect id="矩形备份-105" x="12.3038462" y="0" width="1" height="4"></rect>
                    <rect id="矩形备份-106" x="13.1241026" y="0" width="1" height="4"></rect>
                    <rect id="矩形备份-107" x="13.944359" y="0" width="1" height="4"></rect>
                    <rect id="矩形备份-108" x="14.7646154" y="0" width="1" height="4"></rect>
                </g>
                <rect id="矩形备份-48" fill="#D6DBEC" x="16" y="30" width="16" height="4" rx="1"></rect>
                <rect id="矩形备份-49" fill="#F4F5F9" x="35" y="30" width="48" height="4" rx="1"></rect>
                <rect id="矩形备份-48" fill="#D6DBEC" x="16" y="38" width="16" height="4" rx="1"></rect>
                <rect id="矩形备份-49" fill="#F4F5F9" x="35" y="38" width="29" height="4" rx="1"></rect>
            </g>
        </g>
    </g>
</svg>