<?xml version="1.0" encoding="UTF-8"?>
<svg width="105px" height="55px" viewBox="0 0 105 55" version="1.1" xmlns="http://www.w3.org/2000/svg" xmlns:xlink="http://www.w3.org/1999/xlink">
    <title>forms.general-input[with-addon]</title>
    <g id="snippet截图" stroke="none" stroke-width="1" fill="none" fill-rule="evenodd">
        <g id="snippet" transform="translate(-5372.000000, -364.000000)">
            <g id="forms.general-input[with-addon]" transform="translate(5372.000000, 364.000000)">
                <rect id="矩形" x="0" y="0" width="105" height="55" rx="4"></rect>
                <g id="编组备份" transform="translate(10.000000, 19.000000)">
                    <path d="M1,0 L27,0 L27,0 L27,17 L1,17 C0.44771525,17 -1.59769916e-15,16.5522847 0,16 L0,1 C-6.76353751e-17,0.44771525 0.44771525,3.23497668e-16 1,0 Z" id="矩形备份-5" fill="#F4F5F9"></path>
                    <rect id="矩形备份-76" stroke="#F4F5F9" x="-0.5" y="-0.5" width="89" height="17" rx="1"></rect>
                    <path d="M70,0 L88,0 L88,0 L88,16 L70,16 C69.4477153,16 69,15.5522847 69,15 L69,1 C69,0.44771525 69.4477153,1.01453063e-16 70,0 Z" id="矩形备份-76" fill="#F4F5F9" transform="translate(78.500000, 8.000000) scale(-1, 1) translate(-78.500000, -8.000000) "></path>
                    <text id=".com" font-family="PingFangSC-Regular, PingFang SC" font-size="6" font-weight="normal" fill="#778DC3">
                        <tspan x="73" y="10">.com</tspan>
                    </text>
                    <text id="http://" font-family="PingFangSC-Regular, PingFang SC" font-size="6" font-weight="normal" fill="#778DC3">
                        <tspan x="4" y="10">http://</tspan>
                    </text>
                </g>
            </g>
        </g>
    </g>
</svg>