<?xml version="1.0" encoding="UTF-8"?>
<svg width="105px" height="55px" viewBox="0 0 105 55" version="1.1" xmlns="http://www.w3.org/2000/svg" xmlns:xlink="http://www.w3.org/1999/xlink">
    <title>forms.general-input</title>
    <defs>
        <rect id="path-1" x="17" y="0" width="58" height="10" rx="1"></rect>
    </defs>
    <g id="nora" stroke="none" stroke-width="1" fill="none" fill-rule="evenodd">
        <g id="构件概览图一" transform="translate(-700.000000, -104.000000)">
            <g id="forms.general-input" transform="translate(700.000000, 104.000000)">
                <rect id="矩形" x="0" y="0" width="105" height="55" rx="4"></rect>
                <g id="编组-3" transform="translate(15.000000, 8.000000)">
                    <g id="编组">
                        <rect id="矩形备份-5" fill="#D6DBEC" x="20" y="3" width="38" height="4" rx="1"></rect>
                        <rect id="矩形备份-6" fill="#D6DBEC" x="0" y="2" width="12" height="6" rx="1"></rect>
                        <g id="矩形备份-76">
                            <use stroke="#1A7AFF" stroke-width="2" xlink:href="#path-1"></use>
                            <rect stroke="#C6DEFF" stroke-width="1" x="16.5" y="-0.5" width="59" height="11" rx="1"></rect>
                        </g>
                    </g>
                    <g id="编组备份" transform="translate(0.000000, 16.000000)">
                        <rect id="矩形备份-5" fill="#F4F5F9" x="20" y="3" width="38" height="4" rx="1"></rect>
                        <rect id="矩形备份-7" fill="#D6DBEC" x="0" y="2" width="12" height="6" rx="1"></rect>
                        <rect id="矩形备份-76" stroke="#F4F5F9" x="16.5" y="-0.5" width="59" height="11" rx="1"></rect>
                    </g>
                    <g id="编组备份-2" transform="translate(0.000000, 32.000000)">
                        <rect id="矩形备份-5" fill="#F4F5F9" x="20" y="3" width="38" height="4" rx="1"></rect>
                        <rect id="矩形备份-8" fill="#D6DBEC" x="0" y="2" width="12" height="6" rx="1"></rect>
                        <rect id="矩形备份-76" stroke="#F4F5F9" x="16.5" y="-0.5" width="59" height="11" rx="1"></rect>
                    </g>
                </g>
            </g>
        </g>
    </g>
</svg>