<?xml version="1.0" encoding="UTF-8"?>
<svg width="105px" height="55px" viewBox="0 0 105 55" version="1.1" xmlns="http://www.w3.org/2000/svg" xmlns:xlink="http://www.w3.org/1999/xlink">
    <title>forms.general-input[copyable]</title>
    <g id="snippet截图" stroke="none" stroke-width="1" fill="none" fill-rule="evenodd">
        <g id="snippet" transform="translate(-5372.000000, -149.000000)">
            <g id="forms.general-input[copyable]" transform="translate(5372.000000, 149.000000)">
                <rect id="矩形" x="0" y="0" width="105" height="55" rx="4"></rect>
                <g id="编组备份" transform="translate(7.000000, 19.000000)">
                    <rect id="矩形备份-5" fill="#F4F5F9" x="24" y="3" width="38" height="10" rx="1"></rect>
                    <rect id="矩形备份-7" fill="#D6DBEC" x="0" y="3" width="16" height="10" rx="1"></rect>
                    <path d="M74.5,-0.5 L74.5,16.5 L22,16.5 C21.5857864,16.5 21.2107864,16.3321068 20.9393398,16.0606602 C20.6678932,15.7892136 20.5,15.4142136 20.5,15 L20.5,1 C20.5,0.585786438 20.6678932,0.210786438 20.9393398,-0.0606601718 C21.2107864,-0.332106781 21.5857864,-0.5 22,-0.5 L74.5,-0.5 Z" id="矩形备份-76" stroke="#F4F5F9"></path>
                    <path d="M91.5,-0.5 L91.5,16.5 L76,16.5 C75.5857864,16.5 75.2107864,16.3321068 74.9393398,16.0606602 C74.6678932,15.7892136 74.5,15.4142136 74.5,15 L74.5,1 C74.5,0.585786438 74.6678932,0.210786438 74.9393398,-0.0606601718 C75.2107864,-0.332106781 75.5857864,-0.5 76,-0.5 L91.5,-0.5 Z" id="矩形备份-76" stroke="#F4F5F9" transform="translate(83.000000, 8.000000) scale(-1, 1) translate(-83.000000, -8.000000) "></path>
                    <g id="复制" transform="translate(78.000000, 3.000000)" fill="#1A7AFF" fill-rule="nonzero">
                        <path d="M6.96428571,1.42857143 L0.892857143,1.42857143 C0.399990509,1.42916181 0.000590377917,1.82856194 0,2.32142857 L0,9.10714286 C0,9.59964286 0.400714286,10 0.892857143,10 L6.96428571,10 C7.45678571,10 7.85714286,9.59964286 7.85714286,9.10714286 L7.85714286,2.32142857 C7.85714286,1.82928571 7.45678571,1.42857143 6.96428571,1.42857143 Z M7.14285714,9.10714286 C7.14285714,9.20535714 7.0625,9.28571429 6.96428571,9.28571429 L0.892857143,9.28571429 C0.794234866,9.28571429 0.714285714,9.20576513 0.714285714,9.10714286 L0.714285714,2.32142857 C0.714285714,2.22280629 0.794234866,2.14285714 0.892857143,2.14285714 L6.96428571,2.14285714 C7.06290799,2.14285714 7.14285714,2.22280629 7.14285714,2.32142857 L7.14285714,9.10714286 Z" id="形状"></path>
                        <path d="M8.39285714,0 L2.32142857,0 C2.12418402,0 1.96428571,0.159898304 1.96428571,0.357142857 C1.96428571,0.554387411 2.12418402,0.714285714 2.32142857,0.714285714 L8.39285714,0.714285714 C8.49147942,0.714285714 8.57142857,0.794234866 8.57142857,0.892857143 L8.57142857,7.67857143 C8.57142857,7.87581598 8.73132688,8.03571429 8.92857143,8.03571429 C9.12581598,8.03571429 9.28571429,7.87581598 9.28571429,7.67857143 L9.28571429,0.892857143 C9.28571429,0.400714286 8.88535714,0 8.39285714,0 Z" id="路径"></path>
                        <path d="M5.71428571,3.30357143 L2.14285714,3.30357143 C1.94561259,3.30357143 1.78571429,3.46346973 1.78571429,3.66071429 C1.78571429,3.85795884 1.94561259,4.01785714 2.14285714,4.01785714 L5.71428571,4.01785714 C5.91153027,4.01785714 6.07142857,3.85795884 6.07142857,3.66071429 C6.07142857,3.46346973 5.91153027,3.30357143 5.71428571,3.30357143 Z M5.71428571,5.08928571 L2.14285714,5.08928571 C1.94561259,5.08928571 1.78571429,5.24918402 1.78571429,5.44642857 C1.78571429,5.64367312 1.94561259,5.80357143 2.14285714,5.80357143 L5.71428571,5.80357143 C5.91153027,5.80357143 6.07142857,5.64367312 6.07142857,5.44642857 C6.07142857,5.24918402 5.91153027,5.08928571 5.71428571,5.08928571 Z M4.28571429,6.86 L2.14285714,6.86 C1.94561259,6.86 1.78571429,7.0198983 1.78571429,7.21714286 C1.78571429,7.41438741 1.94561259,7.57428571 2.14285714,7.57428571 L4.28571429,7.57428571 C4.48295884,7.57428571 4.64285714,7.41438741 4.64285714,7.21714286 C4.64285714,7.0198983 4.48295884,6.86 4.28571429,6.86 Z" id="形状"></path>
                    </g>
                </g>
            </g>
        </g>
    </g>
</svg>