<?xml version="1.0" encoding="UTF-8"?>
<svg width="105px" height="55px" viewBox="0 0 105 55" version="1.1" xmlns="http://www.w3.org/2000/svg" xmlns:xlink="http://www.w3.org/1999/xlink">
    <title>forms.general-radio</title>
    <g id="nora" stroke="none" stroke-width="1" fill="none" fill-rule="evenodd">
        <g id="构件概览图一" transform="translate(-48.000000, -234.000000)">
            <g id="forms.general-radio" transform="translate(48.000000, 234.000000)">
                <rect id="矩形备份-22" x="0" y="0" width="105" height="55" rx="4"></rect>
                <g id="编组-4备份" transform="translate(16.000000, 10.000000)">
                    <rect id="矩形备份-83" fill="#D6DBEC" x="14" y="15" width="64.4" height="6" rx="1"></rect>
                    <rect id="矩形备份-85" fill="#D6DBEC" x="14" y="29" width="64.4" height="6" rx="1"></rect>
                    <rect id="矩形备份-84" fill="#1A7AFF" x="14" y="1" width="52.1333333" height="6" rx="1"></rect>
                    <rect id="矩形备份-135" stroke="#D6DBEC" transform="translate(4.000000, 18.000000) rotate(-180.000000) translate(-4.000000, -18.000000) " x="-0.5" y="13.5" width="9" height="9" rx="4"></rect>
                    <rect id="矩形备份-137" stroke="#D6DBEC" transform="translate(4.000000, 32.000000) rotate(-180.000000) translate(-4.000000, -32.000000) " x="-0.5" y="27.5" width="9" height="9" rx="4"></rect>
                    <rect id="矩形备份-136" stroke="#1A7AFF" transform="translate(4.000000, 4.000000) rotate(-180.000000) translate(-4.000000, -4.000000) " x="-0.5" y="-0.5" width="9" height="9" rx="4"></rect>
                    <rect id="矩形备份-136" fill="#1A7AFF" transform="translate(4.000000, 4.000000) rotate(-180.000000) translate(-4.000000, -4.000000) " x="2" y="2" width="4" height="4" rx="2"></rect>
                </g>
            </g>
        </g>
    </g>
</svg>