<?xml version="1.0" encoding="UTF-8"?>
<svg width="105px" height="55px" viewBox="0 0 105 55" version="1.1" xmlns="http://www.w3.org/2000/svg" xmlns:xlink="http://www.w3.org/1999/xlink">
    <title>forms-widgets.radio-button</title>
    <defs>
        <rect id="path-1" x="0" y="0" width="105" height="55" rx="4"></rect>
    </defs>
    <g id="nora" stroke="none" stroke-width="1" fill="none" fill-rule="evenodd">
        <g id="-构件概览图八" transform="translate(-1342.000000, -406.000000)">
            <g id="forms-widgets.radio-button" transform="translate(1342.000000, 406.000000)">
                <mask id="mask-2" fill="white">
                    <use xlink:href="#path-1"></use>
                </mask>
                <g id="矩形备份-46"></g>
                <g id="编组-14" mask="url(#mask-2)">
                    <g transform="translate(6.000000, 18.000000)">
                        <rect id="矩形" fill="#F4F5F9" x="0" y="0" width="93" height="17" rx="1"></rect>
                        <rect id="矩形备份-76" fill="#D6DBEC" x="40" y="5" width="16" height="7" rx="1"></rect>
                        <rect id="矩形备份-76" fill="#D6DBEC" x="70" y="5" width="16" height="7" rx="1"></rect>
                        <path d="M1,0 L32,0 L32,0 L32,17 L1,17 C0.44771525,17 6.76353751e-17,16.5522847 0,16 L0,1 C-6.76353751e-17,0.44771525 0.44771525,3.23497668e-16 1,0 Z" id="矩形" fill="#1A7AFF"></path>
                        <rect id="矩形备份-76" fill="#F4F5F9" x="8" y="5" width="16" height="7" rx="1"></rect>
                    </g>
                </g>
            </g>
        </g>
    </g>
</svg>