<?xml version="1.0" encoding="UTF-8"?>
<svg width="105px" height="55px" viewBox="0 0 105 55" version="1.1" xmlns="http://www.w3.org/2000/svg" xmlns:xlink="http://www.w3.org/1999/xlink">
    <title>forms.general-select[multi]</title>
    <g id="snippet截图" stroke="none" stroke-width="1" fill="none" fill-rule="evenodd">
        <g id="snippet" transform="translate(-5034.000000, -469.000000)">
            <g id="forms.general-select[multi]" transform="translate(5034.000000, 469.000000)">
                <rect id="矩形备份-22" x="0" y="0" width="105" height="55" rx="4"></rect>
                <g id="编组-17" transform="translate(18.000000, 24.000000)">
                    <rect id="矩形备份-104" fill="#D6DBEC" x="0" y="0" width="69" height="22" rx="1"></rect>
                    <rect id="矩形" fill="#F4F5F9" x="2" y="2" width="65" height="8" rx="1"></rect>
                    <g id="编组-12备份-6" transform="translate(4.000000, 4.000000)" fill="#778DC3">
                        <rect id="矩形备份-48" x="0" y="0" width="1" height="4"></rect>
                        <rect id="矩形备份-73" x="10" y="0" width="1" height="4"></rect>
                        <rect id="矩形备份-80" x="20" y="0" width="1" height="4"></rect>
                        <rect id="矩形备份-54" x="2" y="0" width="1" height="4"></rect>
                        <rect id="矩形备份-74" x="12" y="0" width="1" height="4"></rect>
                        <rect id="矩形备份-81" x="22" y="0" width="1" height="4"></rect>
                        <rect id="矩形备份-57" x="8" y="0" width="1" height="4"></rect>
                        <rect id="矩形备份-75" x="18" y="0" width="1" height="4"></rect>
                        <rect id="矩形备份-68" x="4" y="0" width="1" height="4"></rect>
                        <rect id="矩形备份-78" x="14" y="0" width="1" height="4"></rect>
                        <rect id="矩形备份-69" x="6" y="0" width="1" height="4"></rect>
                        <rect id="矩形备份-79" x="16" y="0" width="1" height="4"></rect>
                    </g>
                    <path d="M63.4513338,4.7538268 L59.7288338,8.4757018 L59.7138338,8.4894518 L59.6975838,8.5038268 L59.6788338,8.5175768 L59.6613338,8.5300768 L59.6419588,8.5419518 L59.6238338,8.5525768 L59.6032088,8.5625768 L59.5844588,8.5713268 L59.5625838,8.5794518 L59.5438338,8.5863268 L59.5213338,8.5919518 L59.5025838,8.5963268 L59.4788338,8.6000768 L59.3750838,8.6000768 L59.3507088,8.5969518 L59.3332088,8.5969518 L59.3088338,8.5913268 L59.2919588,8.5869518 L59.2675838,8.5788268 L59.2513338,8.5732018 L59.2275838,8.5619518 L59.2119588,8.5544518 L59.1882088,8.5407018 L59.1738338,8.5325768 C59.1650838,8.5269518 59.1569588,8.5207018 59.1488338,8.5144518 L59.1375838,8.5063268 C59.1258347,8.49690277 59.1145703,8.48688995 59.1038338,8.4763268 L57.1294588,6.5013268 C57.0457141,6.41769988 56.9990738,6.303937 57,6.18559108 C57.0009541,6.06724517 57.049396,5.95423765 57.1344588,5.8719518 C57.3142953,5.70546703 57.5940603,5.71267604 57.7650838,5.8882018 L59.4169588,7.5394518 L62.8269588,4.1294518 C62.9386043,4.01780631 63.1013312,3.97420378 63.2538417,4.01506887 C63.4063523,4.05593395 63.5254767,4.17505828 63.5663417,4.32756887 C63.6072068,4.48007945 63.5636043,4.64280631 63.4519588,4.7544518 L63.4513338,4.7538268 Z" id="路径" fill="#D6DBEC"></path>
                    <rect id="矩形备份-4" fill="#F4F5F9" x="2" y="12" width="65" height="8" rx="1"></rect>
                    <g id="编组-12备份-6" transform="translate(4.000000, 14.000000)" fill="#778DC3">
                        <rect id="矩形备份-48" x="0" y="0" width="1" height="4"></rect>
                        <rect id="矩形备份-73" x="10" y="0" width="1" height="4"></rect>
                        <rect id="矩形备份-80" x="20" y="0" width="1" height="4"></rect>
                        <rect id="矩形备份-54" x="2" y="0" width="1" height="4"></rect>
                        <rect id="矩形备份-74" x="12" y="0" width="1" height="4"></rect>
                        <rect id="矩形备份-81" x="22" y="0" width="1" height="4"></rect>
                        <rect id="矩形备份-57" x="8" y="0" width="1" height="4"></rect>
                        <rect id="矩形备份-75" x="18" y="0" width="1" height="4"></rect>
                        <rect id="矩形备份-68" x="4" y="0" width="1" height="4"></rect>
                        <rect id="矩形备份-78" x="14" y="0" width="1" height="4"></rect>
                        <rect id="矩形备份-69" x="6" y="0" width="1" height="4"></rect>
                        <rect id="矩形备份-79" x="16" y="0" width="1" height="4"></rect>
                    </g>
                    <path d="M63.4513338,14.7538268 L59.7288338,18.4757018 L59.7138338,18.4894518 L59.6975838,18.5038268 L59.6788338,18.5175768 L59.6613338,18.5300768 L59.6419588,18.5419518 L59.6238338,18.5525768 L59.6032088,18.5625768 L59.5844588,18.5713268 L59.5625838,18.5794518 L59.5438338,18.5863268 L59.5213338,18.5919518 L59.5025838,18.5963268 L59.4788338,18.6000768 L59.3750838,18.6000768 L59.3507088,18.5969518 L59.3332088,18.5969518 L59.3088338,18.5913268 L59.2919588,18.5869518 L59.2675838,18.5788268 L59.2513338,18.5732018 L59.2275838,18.5619518 L59.2119588,18.5544518 L59.1882088,18.5407018 L59.1738338,18.5325768 C59.1650838,18.5269518 59.1569588,18.5207018 59.1488338,18.5144518 L59.1375838,18.5063268 C59.1258347,18.4969028 59.1145703,18.48689 59.1038338,18.4763268 L57.1294588,16.5013268 C57.0457141,16.4176999 56.9990738,16.303937 57,16.1855911 C57.0009541,16.0672452 57.049396,15.9542377 57.1344588,15.8719518 C57.3142953,15.705467 57.5940603,15.712676 57.7650838,15.8882018 L59.4169588,17.5394518 L62.8269588,14.1294518 C62.9386043,14.0178063 63.1013312,13.9742038 63.2538417,14.0150689 C63.4063523,14.055934 63.5254767,14.1750583 63.5663417,14.3275689 C63.6072068,14.4800795 63.5636043,14.6428063 63.4519588,14.7544518 L63.4513338,14.7538268 Z" id="路径备份" fill="#D6DBEC"></path>
                </g>
                <g id="编组-12备份" transform="translate(19.000000, 6.000000)">
                    <g id="编组-13" transform="translate(4.000000, 0.000000)">
                        <text id="XXXX" font-family="PingFang-SC-Medium, PingFang SC" font-size="12" font-weight="400" fill="#D6DBEC">
                            <tspan x="0" y="13">XXXX</tspan>
                        </text>
                        <polyline id="路径-2" stroke="#778DC3" stroke-width="1.5" stroke-linecap="round" stroke-linejoin="round" transform="translate(53.500000, 9.105263) rotate(-180.000000) translate(-53.500000, -9.105263) " points="49 6.5 53.7368421 11.7105263 58 6.5"></polyline>
                    </g>
                    <rect id="矩形备份-60" stroke="#F4F5F9" x="-0.5" y="1.5" width="68" height="14" rx="1"></rect>
                </g>
            </g>
        </g>
    </g>
</svg>