<?xml version="1.0" encoding="UTF-8"?>
<svg width="105px" height="55px" viewBox="0 0 105 55" version="1.1" xmlns="http://www.w3.org/2000/svg" xmlns:xlink="http://www.w3.org/1999/xlink">
    <title>forms.general-switch</title>
    <g id="lydia" stroke="none" stroke-width="1" fill="none" fill-rule="evenodd">
        <g id="构件概览图二" transform="translate(-336.000000, -367.000000)">
            <g id="forms.general-switch" transform="translate(336.000000, 367.000000)">
                <rect id="矩形备份-7" x="0" y="0" width="105" height="55" rx="4"></rect>
                <path d="M61.15625,43 L44.84375,43 C41.070125,43 38,39.8597808 38,36 C38,32.1402192 41.070125,29 44.84375,29 L61.15625,29 C64.929875,29 68,32.1402192 68,36 C68,39.8597808 64.929875,43 61.15625,43 Z M44.84375,31.8767123 C42.6209375,31.8767123 40.8125,33.7264384 40.8125,36 C40.8125,38.2735616 42.6209375,40.1232877 44.84375,40.1232877 L61.15625,40.1232877 C63.3790625,40.1232877 65.1875,38.2735616 65.1875,36 C65.1875,33.7264384 63.3790625,31.8767123 61.15625,31.8767123 L44.84375,31.8767123 Z" id="形状" fill="#D6DBEC" fill-rule="nonzero"></path>
                <path d="M44.84375,13 L61.15625,13 C64.935875,13 68,16.1339863 68,20 C68,23.8660137 64.935875,27 61.15625,27 L44.84375,27 C41.0640312,27 38,23.8660137 38,20 C38,16.1339863 41.0640312,13 44.84375,13 Z" id="路径" fill="#1A7AFF" fill-rule="nonzero"></path>
                <path d="M46,39 C44.3458182,39 43,37.6541818 43,36 C43,34.3458182 44.3458182,33 46,33 C47.6541818,33 49,34.3458182 49,36 C49,37.6541818 47.6541818,39 46,39 Z" id="形状" fill="#1A7AFF" fill-rule="nonzero"></path>
                <path d="M57,20 C57,22.209139 58.790861,24 61,24 C63.209139,24 65,22.209139 65,20 C65,17.790861 63.209139,16 61,16 C58.790861,16 57,17.790861 57,20 Z" id="路径" fill="#F4F5F9" fill-rule="nonzero"></path>
            </g>
        </g>
    </g>
</svg>