<?xml version="1.0" encoding="UTF-8"?>
<svg width="105px" height="55px" viewBox="0 0 105 55" version="1.1" xmlns="http://www.w3.org/2000/svg" xmlns:xlink="http://www.w3.org/1999/xlink">
    <title>forms.general-time-picker</title>
    <g id="nora" stroke="none" stroke-width="1" fill="none" fill-rule="evenodd">
        <g id="-构件概览图五" transform="translate(-1480.000000, -103.000000)">
            <g id="forms.general-time-picker" transform="translate(1480.000000, 103.000000)">
                <rect id="矩形备份-46" x="0" y="0" width="105" height="55" rx="4"></rect>
                <g id="编组-12" transform="translate(10.000000, 15.000000)">
                    <g id="编组-13" transform="translate(4.000000, 0.000000)" fill="#D6DBEC" font-family="PingFang-SC-Medium, PingFang SC" font-size="18" font-weight="400">
                        <text id="XXXX">
                            <tspan x="0" y="19">XXXX</tspan>
                        </text>
                    </g>
                    <rect id="矩形备份-60" stroke="#F4F5F9" x="-0.5" y="1.5" width="85" height="22" rx="1"></rect>
                    <g id="通用图标/time-Line" transform="translate(61.000000, 3.000000)" fill="#778DC3">
                        <rect id="矩形" fill-rule="nonzero" opacity="0" x="0" y="0" width="19" height="19"></rect>
                        <g id="time-circle">
                            <rect id="矩形" fill-rule="nonzero" opacity="0" x="0" y="0" width="19" height="19"></rect>
                            <path d="M9.5,1.1875 C14.0904297,1.1875 17.8125,4.90957031 17.8125,9.5 C17.8125,14.0904297 14.0904297,17.8125 9.5,17.8125 C4.90957031,17.8125 1.1875,14.0904297 1.1875,9.5 C1.1875,4.90957031 4.90957031,1.1875 9.5,1.1875 Z M9.5,2.59765625 C5.68886719,2.59765625 2.59765625,5.68886719 2.59765625,9.5 C2.59765625,13.3111328 5.68886719,16.4023438 9.5,16.4023438 C13.3111328,16.4023438 16.4023438,13.3111328 16.4023438,9.5 C16.4023438,5.68886719 13.3111328,2.59765625 9.5,2.59765625 Z M9.94716797,5.1953125 C10.0288086,5.1953125 10.0956055,5.26210938 10.0956055,5.34375 L10.0956055,5.34375 L10.0956055,9.93603516 L12.7415039,11.8490234 C12.8083008,11.8954102 12.8231445,11.9881836 12.7749023,12.0568359 L12.7749023,12.0568359 L12.2442383,12.7804687 C12.1959961,12.8454102 12.1032227,12.8602539 12.0364258,12.8120117 L12.0364258,12.8120117 L8.96748047,10.5743164 C8.92851563,10.5464844 8.90625,10.5019531 8.90625,10.4537109 L8.90625,10.4537109 L8.90625,5.34375 C8.90625,5.26210938 8.97304688,5.1953125 9.0546875,5.1953125 L9.0546875,5.1953125 Z" id="形状结合"></path>
                        </g>
                    </g>
                </g>
            </g>
        </g>
    </g>
</svg>