<?xml version="1.0" encoding="UTF-8"?>
<svg width="105px" height="55px" viewBox="0 0 105 55" version="1.1" xmlns="http://www.w3.org/2000/svg" xmlns:xlink="http://www.w3.org/1999/xlink">
    <title>forms.upload-files-v2</title>
    <g id="nora" stroke="none" stroke-width="1" fill="none" fill-rule="evenodd">
        <g id="-构件概览图五" transform="translate(-664.000000, -232.000000)">
            <g id="forms.upload-files-v2" transform="translate(664.000000, 232.000000)">
                <rect id="矩形备份-46" x="0" y="0" width="105" height="55" rx="4"></rect>
                <g id="编组-7" transform="translate(6.000000, 6.000000)">
                    <path d="M2,0 L91,0 C92.1045695,-2.02906125e-16 93,0.8954305 93,2 L93,41 C93,42.1045695 92.1045695,43 91,43 L2,43 C0.8954305,43 -1.64108609e-15,42.1045695 0,41 L0,2 C-1.3527075e-16,0.8954305 0.8954305,-1.1293615e-15 2,0 Z" id="矩形备份-46" stroke="#1A7AFF" fill-opacity="0.1" fill="#1A7AFF" stroke-dasharray="2"></path>
                    <rect id="矩形备份-51" fill="#778DC3" x="20" y="27" width="53" height="5" rx="1"></rect>
                    <rect id="矩形备份-56" fill="#D6DBEC" x="25" y="35" width="43" height="4" rx="1"></rect>
                    <rect id="矩形" fill="#1A7AFF" x="39" y="6" width="16" height="16" rx="1"></rect>
                    <rect id="矩形备份-6" fill-opacity="0.5" fill="#FFFFFF" x="42" y="9" width="10" height="10" rx="1"></rect>
                </g>
            </g>
        </g>
    </g>
</svg>