<?xml version="1.0" encoding="UTF-8"?>
<svg width="105px" height="55px" viewBox="0 0 105 55" version="1.1" xmlns="http://www.w3.org/2000/svg" xmlns:xlink="http://www.w3.org/1999/xlink">
    <title>forms.general-input-number</title>
    <g id="lydia" stroke="none" stroke-width="1" fill="none" fill-rule="evenodd">
        <g id="构件概览图二" transform="translate(-528.000000, -367.000000)">
            <g id="forms.general-input-number" transform="translate(528.000000, 367.000000)">
                <rect id="矩形备份-8" fill="#FFFFFF" x="0" y="0" width="105" height="55" rx="4"></rect>
                <g id="660" transform="translate(36.774000, 20.896000)" fill="#262626" fill-rule="nonzero">
                    <path d="M4.806,0 C3.33,0 2.142,0.648 1.278,1.962 C0.414,3.258 0,4.95 0,7.038 C0,9 0.396,10.53 1.188,11.628 C2.016,12.78 3.204,13.356 4.788,13.356 C6.048,13.356 7.128,12.924 7.992,12.096 C8.838,11.268 9.27,10.206 9.27,8.928 C9.27,7.668 8.892,6.624 8.154,5.814 C7.398,5.022 6.39,4.626 5.13,4.626 C4.446,4.626 3.852,4.752 3.348,5.022 C2.79,5.292 2.34,5.706 1.98,6.282 L1.908,6.282 C1.89,6.174 1.89,6.102 1.89,6.048 C1.89,4.788 2.142,3.762 2.664,2.934 C3.186,2.052 3.888,1.62 4.788,1.62 C6.084,1.62 6.858,2.232 7.128,3.492 L9.036,3.492 C8.712,1.152 7.29,0 4.806,0 Z M4.734,6.21 C5.526,6.21 6.174,6.462 6.642,6.966 C7.11,7.434 7.344,8.1 7.344,8.928 C7.344,9.738 7.092,10.404 6.606,10.944 C6.138,11.466 5.508,11.736 4.716,11.736 C3.942,11.736 3.312,11.484 2.844,10.98 C2.358,10.476 2.124,9.81 2.124,8.982 C2.124,8.136 2.358,7.47 2.826,6.966 C3.294,6.462 3.924,6.21 4.734,6.21 Z" id="形状"></path>
                    <path d="M15.606,0 C14.13,0 12.942,0.648 12.078,1.962 C11.214,3.258 10.8,4.95 10.8,7.038 C10.8,9 11.196,10.53 11.988,11.628 C12.816,12.78 14.004,13.356 15.588,13.356 C16.848,13.356 17.928,12.924 18.792,12.096 C19.638,11.268 20.07,10.206 20.07,8.928 C20.07,7.668 19.692,6.624 18.954,5.814 C18.198,5.022 17.19,4.626 15.93,4.626 C15.246,4.626 14.652,4.752 14.148,5.022 C13.59,5.292 13.14,5.706 12.78,6.282 L12.708,6.282 C12.69,6.174 12.69,6.102 12.69,6.048 C12.69,4.788 12.942,3.762 13.464,2.934 C13.986,2.052 14.688,1.62 15.588,1.62 C16.884,1.62 17.658,2.232 17.928,3.492 L19.836,3.492 C19.512,1.152 18.09,0 15.606,0 Z M15.534,6.21 C16.326,6.21 16.974,6.462 17.442,6.966 C17.91,7.434 18.144,8.1 18.144,8.928 C18.144,9.738 17.892,10.404 17.406,10.944 C16.938,11.466 16.308,11.736 15.516,11.736 C14.742,11.736 14.112,11.484 13.644,10.98 C13.158,10.476 12.924,9.81 12.924,8.982 C12.924,8.136 13.158,7.47 13.626,6.966 C14.094,6.462 14.724,6.21 15.534,6.21 Z" id="形状"></path>
                    <path d="M26.226,0 C24.714,0 23.544,0.63 22.716,1.908 C21.96,3.078 21.582,4.662 21.582,6.678 C21.582,8.676 21.96,10.26 22.716,11.448 C23.544,12.708 24.714,13.356 26.226,13.356 C27.738,13.356 28.908,12.708 29.736,11.448 C30.492,10.26 30.87,8.658 30.87,6.678 C30.87,4.68 30.492,3.096 29.736,1.908 C28.908,0.63 27.738,0 26.226,0 Z M26.226,1.656 C27.27,1.656 28.026,2.232 28.458,3.402 C28.764,4.194 28.926,5.292 28.926,6.678 C28.926,8.046 28.764,9.144 28.458,9.954 C28.026,11.106 27.27,11.7 26.226,11.7 C25.164,11.7 24.426,11.106 23.994,9.954 C23.67,9.144 23.526,8.046 23.526,6.678 C23.526,5.292 23.67,4.194 23.994,3.402 C24.426,2.232 25.164,1.656 26.226,1.656 Z" id="形状"></path>
                </g>
                <rect id="矩形" fill="#000000" fill-rule="nonzero" opacity="0" x="75" y="18" width="19" height="19"></rect>
                <path d="M91.4270833,18 L77.5729167,18 C76.1479167,18 75,19.1479167 75,20.5729167 L75,34.3875 C75,35.8520833 76.1479167,37 77.5729167,37 L91.3875,37 C92.8125,37 93.9604167,35.8520833 93.9604167,34.4270833 L93.9604167,20.5729167 C94,19.1479167 92.8520833,18 91.4270833,18 Z M89.25,28.2916667 L85.2916667,28.2916667 L85.2916667,32.25 C85.2916667,32.6854167 84.9354167,33.0416667 84.5,33.0416667 C84.0645833,33.0416667 83.7083333,32.6854167 83.7083333,32.25 L83.7083333,28.2916667 L79.75,28.2916667 C79.3145833,28.2916667 78.9583333,27.9354167 78.9583333,27.5 C78.9583333,27.0645833 79.3145833,26.7083333 79.75,26.7083333 L83.7083333,26.7083333 L83.7083333,22.75 C83.7083333,22.3145833 84.0645833,21.9583333 84.5,21.9583333 C84.9354167,21.9583333 85.2916667,22.3145833 85.2916667,22.75 L85.2916667,26.7083333 L89.25,26.7083333 C89.6854167,26.7083333 90.0416667,27.0645833 90.0416667,27.5 C90.0416667,27.9354167 89.6854167,28.2916667 89.25,28.2916667 Z" id="形状" fill="#D6DBEC" fill-rule="nonzero"></path>
                <rect id="矩形" fill="#000000" fill-rule="nonzero" opacity="0" x="11" y="18" width="19" height="19"></rect>
                <path d="M27.4270833,18 L13.5729167,18 C12.1479167,18 11,19.1479167 11,20.5729167 L11,34.3875 C11,35.8520833 12.1479167,37 13.5729167,37 L27.3875,37 C28.8125,37 29.9604167,35.8520833 29.9604167,34.4270833 L29.9604167,20.5729167 C30,19.1479167 28.8520833,18 27.4270833,18 Z M25.25,28.2916667 L21.2916667,28.2916667 L19.7083333,28.2916667 L15.75,28.2916667 C15.3145833,28.2916667 14.9583333,27.9354167 14.9583333,27.5 C14.9583333,27.0645833 15.3145833,26.7083333 15.75,26.7083333 L19.7083333,26.7083333 L21.2916667,26.7083333 L25.25,26.7083333 C25.6854167,26.7083333 26.0416667,27.0645833 26.0416667,27.5 C26.0416667,27.9354167 25.6854167,28.2916667 25.25,28.2916667 Z" id="形状" fill="#D6DBEC" fill-rule="nonzero"></path>
            </g>
        </g>
    </g>
</svg>