<?xml version="1.0" encoding="UTF-8"?>
<svg width="1299px" height="13px" viewBox="0 0 1299 13" version="1.1" xmlns="http://www.w3.org/2000/svg" xmlns:xlink="http://www.w3.org/1999/xlink">
    <title>框架-下边-右边</title>
    <defs>
        <linearGradient x1="0%" y1="50%" x2="100%" y2="50%" id="linearGradient-1">
            <stop stop-color="#09154E" offset="0%"></stop>
            <stop stop-color="#264D99" offset="100%"></stop>
        </linearGradient>
        <linearGradient x1="1.41830991e-12%" y1="49.9954916%" x2="169.804266%" y2="49.9970772%" id="linearGradient-2">
            <stop stop-color="#0E5FFF" stop-opacity="0" offset="0%"></stop>
            <stop stop-color="#0E5FFF" stop-opacity="0.1" offset="25.830702%"></stop>
            <stop stop-color="#0E5FFF" offset="60.4246107%"></stop>
            <stop stop-color="#0E5FFF" stop-opacity="0" offset="100%"></stop>
        </linearGradient>
    </defs>
    <g id="设计规范" stroke="none" stroke-width="1" fill="none" fill-rule="evenodd">
        <g id="框架样式三切图" transform="translate(-2432.5, -1052.5)" fill="url(#linearGradient-1)" stroke="url(#linearGradient-2)">
            <g id="框架-下边-右边" transform="translate(3082, 1059) scale(-1, 1) translate(-3082, -1059)translate(2433, 1053)">
                <path d="M0,0 L7,0 L7,12 L0,12 Z M12,0 L19,0 L19,12 L12,12 Z M24,0 L31,0 L31,12 L24,12 Z M36,0 L43,0 L43,12 L36,12 Z M48,0 L55,0 L55,12 L48,12 Z M60,0 L67,0 L67,12 L60,12 Z M84,0 L91,0 L91,12 L84,12 Z M72,0 L79,0 L79,12 L72,12 Z M96,0 L103,0 L103,12 L96,12 Z M108,0 L115,0 L115,12 L108,12 Z M120,0 L127,0 L127,12 L120,12 Z M132,0 L139,0 L139,12 L132,12 Z M144,0 L151,0 L151,12 L144,12 Z M156,0 L163,0 L163,12 L156,12 Z M180,0 L187,0 L187,12 L180,12 Z M168,0 L175,0 L175,12 L168,12 Z M192,0 L199,0 L199,12 L192,12 Z M204,0 L211,0 L211,12 L204,12 Z M216,0 L223,0 L223,12 L216,12 Z M228,0 L235,0 L235,12 L228,12 Z M240,0 L247,0 L247,12 L240,12 Z M252,0 L259,0 L259,12 L252,12 Z M276,0 L283,0 L283,12 L276,12 Z M264,0 L271,0 L271,12 L264,12 Z M288,0 L295,0 L295,12 L288,12 Z M300,0 L307,0 L307,12 L300,12 Z M312,0 L319,0 L319,12 L312,12 Z M324,0 L331,0 L331,12 L324,12 Z M336,0 L343,0 L343,12 L336,12 Z M348,0 L355,0 L355,12 L348,12 Z M372,0 L379,0 L379,12 L372,12 Z M360,0 L367,0 L367,12 L360,12 Z M384,0 L391,0 L391,12 L384,12 Z M397,0 L404,0 L404,12 L397,12 Z M409,0 L416,0 L416,12 L409,12 Z M421,0 L428,0 L428,12 L421,12 Z M445,0 L452,0 L452,12 L445,12 Z M433,0 L440,0 L440,12 L433,12 Z M457,0 L464,0 L464,12 L457,12 Z M469,0 L476,0 L476,12 L469,12 Z M481,0 L488,0 L488,12 L481,12 Z M493,0 L500,0 L500,12 L493,12 Z M505,0 L512,0 L512,12 L505,12 Z M517,0 L524,0 L524,12 L517,12 Z M541,0 L548,0 L548,12 L541,12 Z M529,0 L536,0 L536,12 L529,12 Z M553,0 L560,0 L560,12 L553,12 Z M565,0 L572,0 L572,12 L565,12 Z M577,0 L584,0 L584,12 L577,12 Z M589,0 L596,0 L596,12 L589,12 Z M601,0 L608,0 L608,12 L601,12 Z M613,0 L620,0 L620,12 L613,12 Z M637,0 L644,0 L644,12 L637,12 Z M625,0 L632,0 L632,12 L625,12 Z M649,0 L656,0 L656,12 L649,12 Z M663,0 L670,0 L670,12 L663,12 Z M675,0 L682,0 L682,12 L675,12 Z M687,0 L694,0 L694,12 L687,12 Z M711,0 L718,0 L718,12 L711,12 Z M699,0 L706,0 L706,12 L699,12 Z M723,0 L730,0 L730,12 L723,12 Z M735,0 L742,0 L742,12 L735,12 Z M747,0 L754,0 L754,12 L747,12 Z M759,0 L766,0 L766,12 L759,12 Z M771,0 L778,0 L778,12 L771,12 Z M783,0 L790,0 L790,12 L783,12 Z M807,0 L814,0 L814,12 L807,12 Z M795,0 L802,0 L802,12 L795,12 Z M819,0 L826,0 L826,12 L819,12 Z M831,0 L838,0 L838,12 L831,12 Z M843,0 L850,0 L850,12 L843,12 Z M855,0 L862,0 L862,12 L855,12 Z M867,0 L874,0 L874,12 L867,12 Z M879,0 L886,0 L886,12 L879,12 Z M903,0 L910,0 L910,12 L903,12 Z M891,0 L898,0 L898,12 L891,12 Z M915,0 L922,0 L922,12 L915,12 Z M929,0 L936,0 L936,12 L929,12 Z M941,0 L948,0 L948,12 L941,12 Z M953,0 L960,0 L960,12 L953,12 Z M977,0 L984,0 L984,12 L977,12 Z M965,0 L972,0 L972,12 L965,12 Z M989,0 L996,0 L996,12 L989,12 Z M1001,0 L1008,0 L1008,12 L1001,12 Z M1013,0 L1020,0 L1020,12 L1013,12 Z M1025,0 L1032,0 L1032,12 L1025,12 Z M1037,0 L1044,0 L1044,12 L1037,12 Z M1049,0 L1056,0 L1056,12 L1049,12 Z M1073,0 L1080,0 L1080,12 L1073,12 Z M1061,0 L1068,0 L1068,12 L1061,12 Z M1085,0 L1092,0 L1092,12 L1085,12 Z M1097,0 L1104,0 L1104,12 L1097,12 Z M1109,0 L1116,0 L1116,12 L1109,12 Z M1121,0 L1128,0 L1128,12 L1121,12 Z M1133,0 L1140,0 L1140,12 L1133,12 Z M1145,0 L1152,0 L1152,12 L1145,12 Z M1169,0 L1176,0 L1176,12 L1169,12 Z M1157,0 L1164,0 L1164,12 L1157,12 Z M1181,0 L1188,0 L1188,12 L1181,12 Z M1195,0 L1202,0 L1202,12 L1195,12 Z M1207,0 L1214,0 L1214,12 L1207,12 Z M1219,0 L1226,0 L1226,12 L1219,12 Z M1231,0 L1238,0 L1238,12 L1231,12 Z M1243,0 L1250,0 L1250,12 L1243,12 Z M1255,0 L1262,0 L1262,12 L1255,12 Z M1279,0 L1286,0 L1286,12 L1279,12 Z M1267,0 L1274,0 L1274,12 L1267,12 Z M1291,0 L1298,0 L1298,12 L1291,12 Z" id="形状结合"></path>
            </g>
        </g>
    </g>
</svg>