<?xml version="1.0" encoding="UTF-8"?>
<svg width="16px" height="16px" viewBox="0 0 16 16" version="1.1" xmlns="http://www.w3.org/2000/svg" xmlns:xlink="http://www.w3.org/1999/xlink">
    <title>access-service-monitoring-app</title>
    <g id="access-service-monitoring-app" stroke="none" stroke-width="1" fill="none" fill-rule="evenodd">
        <rect id="矩形" fill-opacity="0" fill="#F0F0F0" x="1" y="1" width="14" height="14"></rect>
        <g id="队列" transform="translate(1, 1)">
            <g id="编组">
                <rect id="矩形" x="0" y="0" width="14" height="14"></rect>
            </g>
            <g id="编组" transform="translate(1.4, 1.4)">
                <path d="M10.2,0 C10.7522847,8.7960173e-16 11.2,0.44771525 11.2,1 L11.2,10.2 C11.2,10.7522847 10.7522847,11.2 10.2,11.2 L1,11.2 C0.44771525,11.2 1.04869017e-15,10.7522847 0,10.2 L0,1 C-6.76353751e-17,0.44771525 0.44771525,1.01453063e-16 1,0 L10.2,0 Z M6.77419355,2.3 C6.24952304,2.3 5.8034975,2.63671918 5.6409056,3.10519539 C4.82530673,3.19968785 4.11813355,3.73737863 3.81560076,4.51560964 C3.63101312,4.99044026 3.17383083,5.30322581 2.66438337,5.30322581 L2.52809106,5.30278796 C2.3605345,4.84200241 1.91869987,4.51290323 1.4,4.51290323 C0.7372583,4.51290323 0.2,5.05016153 0.2,5.71290323 C0.2,6.37564493 0.7372583,6.91290323 1.4,6.91290323 C1.7674318,6.91290323 2.09629346,6.74776485 2.31641406,6.48765902 L4.26010697,6.48644588 C4.48457015,6.624607 4.6641508,6.83402253 4.76398786,7.09084197 C5.07702096,7.89608386 5.82327047,8.44379838 6.67420193,8.51011973 C6.87936294,8.87743356 7.2719665,9.12580645 7.72258065,9.12580645 C8.38532234,9.12580645 8.92258065,8.58854815 8.92258065,7.92580645 C8.92258065,7.26306475 8.38532234,6.72580645 7.72258065,6.72580645 C7.21309796,6.72580645 6.77777303,7.04331352 6.60477064,7.49215467 C6.19686602,7.41055932 5.85072948,7.12643879 5.69603808,6.72851287 C5.66360898,6.64509269 5.62653049,6.56443635 5.58516747,6.48679345 L8.70294078,6.48765902 C8.92306138,6.74776485 9.25192304,6.91290323 9.61935484,6.91290323 C10.2820965,6.91290323 10.8193548,6.37564493 10.8193548,5.71290323 C10.8193548,5.05016153 10.2820965,4.51290323 9.61935484,4.51290323 C9.03388659,4.51290323 8.54634578,4.93218041 8.44061385,5.48685333 L4.49915905,5.48642151 C4.47217464,5.47475713 4.44493739,5.46361542 4.41855666,5.45345745 C4.55402751,5.28195942 4.665689,5.08877658 4.74765099,4.87793875 C4.91247925,4.45393688 5.29466541,4.15914436 5.73625792,4.10262985 C5.94411529,4.45985989 6.33111056,4.7 6.77419355,4.7 C7.43693525,4.7 7.97419355,4.1627417 7.97419355,3.5 C7.97419355,2.8372583 7.43693525,2.3 6.77419355,2.3 Z" id="形状结合" fill="#BFBFBF"></path>
                <g id="编组-3" transform="translate(0.7, 1.26)">
                    <g id="编组-2"></g>
                    <g id="编组-2" transform="translate(6.545, 3.815) rotate(-180) translate(-6.545, -3.815)translate(3.29, 0)"></g>
                </g>
            </g>
        </g>
    </g>
</svg>