<?xml version="1.0" encoding="UTF-8"?>
<svg width="16px" height="16px" viewBox="0 0 16 16" version="1.1" xmlns="http://www.w3.org/2000/svg" xmlns:xlink="http://www.w3.org/1999/xlink">
    <title>ai-builder-app</title>
    <g id="ai-builder-app" stroke="none" stroke-width="1" fill="none" fill-rule="evenodd">
        <rect id="矩形" fill="#000000" opacity="0" x="0" y="0" width="16" height="16"></rect>
        <g id="机器人" transform="translate(1.000000, 1.500000)">
            <path d="M6.97174254,0 C7.74411303,0 8.37205651,0.627943485 8.37205651,1.40031397 C8.37205651,1.91743047 8.09057751,2.3698068 7.67273021,2.61233225 L7.671,3.583 L9.67974882,3.58398744 C10.833595,3.58398744 11.7723705,4.52276295 11.7723705,5.67660911 L11.7723705,10.8508634 C11.7723705,12.0047096 10.833595,12.9434851 9.67974882,12.9434851 L4.26373626,12.9434851 C3.10989011,12.9434851 2.1711146,12.0047096 2.1711146,10.8508634 L2.1711146,5.67660911 C2.1711146,4.52276295 3.10989011,3.58398744 4.26373626,3.58398744 L6.271,3.583 L6.27136834,2.6126881 C5.8531831,2.37024948 5.57142857,1.9176835 5.57142857,1.40031397 C5.57142857,0.627943485 6.19937206,0 6.97174254,0 Z M13.299843,6.14599686 C13.6860283,6.14599686 14,6.4599686 14,6.84615385 L14,9.68288854 C14,10.0706436 13.6860283,10.3830455 13.299843,10.3830455 C12.9136578,10.3830455 12.599686,10.0690738 12.599686,9.68288854 L12.599686,6.84615385 C12.599686,6.4599686 12.9136578,6.14599686 13.299843,6.14599686 Z M0.700156986,6.14599686 C1.08634223,6.14599686 1.40031397,6.4599686 1.40031397,6.84615385 L1.40031397,9.68288854 C1.40031397,10.0706436 1.08791209,10.3830455 0.700156986,10.3830455 C0.313971743,10.3830455 0,10.0690738 0,9.68288854 L0,6.84615385 C0,6.4599686 0.313971743,6.14599686 0.700156986,6.14599686 Z M5.21036107,7.46467818 C4.76923077,7.46467818 4.41130298,7.82260597 4.41130298,8.26373626 C4.41130298,8.70486656 4.76923077,9.06279435 5.21036107,9.06279435 C5.65149137,9.06279435 6.00941915,8.70486656 6.00941915,8.26373626 C6.00941915,7.82260597 5.65149137,7.46467818 5.21036107,7.46467818 Z M8.72527473,7.46467818 C8.28414443,7.46467818 7.92621664,7.82260597 7.92621664,8.26373626 C7.92621664,8.70486656 8.28414443,9.06279435 8.72527473,9.06279435 C9.16640502,9.06279435 9.52433281,8.70486656 9.52433281,8.26373626 C9.52433281,7.82260597 9.16640502,7.46467818 8.72527473,7.46467818 Z" id="形状结合" fill="#BFBFBF"></path>
            <path d="M7.00565149,1.44270016 L7.02574568,1.44270016 L7.00565149,1.44270016 Z" id="路径" fill="#333333" fill-rule="nonzero"></path>
            <path d="M7.00565149,1.44270016 L7.02574568,1.44270016 L7.00565149,1.44270016 Z" id="路径" fill="#333333" fill-rule="nonzero"></path>
            <path d="M7.00565149,1.44270016 L7.02574568,1.44270016 L7.00565149,1.44270016 Z" id="路径" fill="#333333" fill-rule="nonzero"></path>
            <path d="M7.00565149,1.44270016 L7.02574568,1.44270016 L7.00565149,1.44270016 Z" id="路径" fill="#333333" fill-rule="nonzero"></path>
            <path d="M7.00565149,1.44270016 L7.02574568,1.44270016 L7.00565149,1.44270016 Z" id="路径" fill="#333333" fill-rule="nonzero"></path>
            <path d="M7.00565149,1.44270016 L7.02574568,1.44270016 L7.00565149,1.44270016 Z" id="路径" fill="#333333" fill-rule="nonzero"></path>
        </g>
    </g>
</svg>