<?xml version="1.0" encoding="UTF-8"?>
<svg width="16px" height="16px" viewBox="0 0 16 16" version="1.1" xmlns="http://www.w3.org/2000/svg" xmlns:xlink="http://www.w3.org/1999/xlink">
    <title>alert-rules-app</title>
    <g id="alert-rules-app" stroke="none" stroke-width="1" fill="none" fill-rule="evenodd">
        <g id="编组-2" transform="translate(2, 1.5)" fill="#BFBFBF">
            <g id="编组">
                <path d="M9.81185324,0 C10.364138,-1.01453063e-16 10.8118532,0.44771525 10.8118532,1 L10.811,6.587 L10.2155329,5.79723382 C10.1701438,5.7370396 10.1181672,5.68226858 10.0606484,5.6339052 L9.97034399,5.5662889 C9.51028536,5.26073283 8.88963203,5.3859819 8.58407596,5.84604053 L4.35834795,12.2084821 C4.24944737,12.3724476 4.19135778,12.5649053 4.19135778,12.7617403 C4.19135778,12.8439563 4.20127952,12.9238549 4.21999098,13.0003041 L1,13 C0.44771525,13 6.76353751e-17,12.5522847 0,12 L0,1 C-6.76353751e-17,0.44771525 0.44771525,1.01453063e-16 1,0 L9.81185324,0 Z M5.48909472,4.94592151 L2.66137926,4.94592151 C2.29391946,4.94592151 1.99603444,5.24380653 1.99603444,5.61126632 C1.99603444,5.97872612 2.29391946,6.27661114 2.66137926,6.27661114 L5.48909472,6.27661114 C5.85655452,6.27661114 6.15443954,5.97872612 6.15443954,5.61126632 C6.15443954,5.24380653 5.85655452,4.94592151 5.48909472,4.94592151 Z M8.8158188,2.45087845 L2.66137926,2.45087845 C2.29391946,2.45087845 1.99603444,2.74876347 1.99603444,3.11622327 C1.99603444,3.48368306 2.29391946,3.78156808 2.66137926,3.78156808 L8.8158188,3.78156808 C9.18327859,3.78156808 9.48116361,3.48368306 9.48116361,3.11622327 C9.48116361,2.74876347 9.18327859,2.45087845 8.8158188,2.45087845 Z" id="形状结合"></path>
            </g>
            <path d="M10.1418002,7.20473592 C10.2623029,7.28220191 10.3647551,7.38465415 10.4422211,7.5051568 L12.4957088,10.699471 C12.794361,11.164041 12.6598579,11.7827549 12.1952879,12.081407 C12.0339906,12.1850982 11.8462819,12.2402286 11.6545303,12.2402286 L7.54755495,12.2402286 C6.9952702,12.2402286 6.54755495,11.7925133 6.54755495,11.2402286 C6.54755495,11.0484769 6.60268533,10.8607683 6.70637647,10.699471 L8.75986415,7.5051568 C9.05851632,7.04058676 9.67723017,6.90608375 10.1418002,7.20473592 Z M9.59539615,10.5614587 C9.37287799,10.5614587 9.19249138,10.7418453 9.19249138,10.9643634 C9.19249138,11.1868816 9.37287799,11.3672682 9.59539615,11.3672682 C9.81791431,11.3672682 9.99830092,11.1868816 9.99830092,10.9643634 C9.99830092,10.7418453 9.81791431,10.5614587 9.59539615,10.5614587 Z M9.59539615,7.89701347 C9.37287799,7.89701347 9.21122426,8.07740008 9.23433244,8.29991824 L9.41768472,10.0654926 C9.42713914,10.1565331 9.50386608,10.2257047 9.59539615,10.2257047 C9.68692622,10.2257047 9.76365317,10.1565331 9.77310758,10.0654926 L9.95645986,8.29991824 C9.97956804,8.07740008 9.81791431,7.89701347 9.59539615,7.89701347 Z" id="形状结合备份-2"></path>
        </g>
    </g>
</svg>