<?xml version="1.0" encoding="UTF-8"?>
<svg width="16px" height="16px" viewBox="0 0 16 16" version="1.1" xmlns="http://www.w3.org/2000/svg" xmlns:xlink="http://www.w3.org/1999/xlink">
    <title>announcement-app</title>
    <g id="announcement-app" stroke="none" stroke-width="1" fill="none" fill-rule="evenodd">
        <rect id="矩形" fill="#000000" opacity="0" x="0" y="0" width="16" height="16"></rect>
        <g id="01_公告管理" transform="translate(1.000000, 2.030046)">
            <path d="M0,3.3467788 C0.187132678,2.97251344 0.467831678,2.87894712 0.842097033,2.87894711 C2.27678086,2.87894711 3.02531156,2.87894711 3.08768912,2.87894711 C3.18125545,2.87894711 3.28795829,2.90162356 3.49810791,2.74281146 C3.70825753,2.58399936 5.61398022,1.00762036 6.64320993,0.165523345 C6.92390894,-0.0216093328 7.22305644,-0.0460867807 7.39174062,0.071957006 C7.5604248,0.190000793 7.67243964,0.359312316 7.67243964,0.592671047 C7.67243964,0.748243534 7.67243964,4.05494008 7.67243964,10.5127607 C7.67243964,10.6998934 7.64149475,10.9687178 7.48530696,11.2063511 C7.32911917,11.4439844 6.92390894,11.4870501 6.64320993,11.2063511 C6.17537825,10.8320857 5.61398022,10.3642541 5.14614854,9.98998873 C4.58475052,9.52215705 4.02335249,9.05432535 3.46195447,8.68006 C3.36838813,8.58649366 3.27482179,8.58649366 3.18125545,8.58649368 L0.842097033,8.58649368 C0.467831678,8.58649368 0,8.36768446 0,7.96868613 C0,6.3719058 0,4.93740653 0,3.3467788 Z" id="路径" fill="#BFBFBF" fill-rule="nonzero"></path>
            <line x1="9.79836753" y1="2.84350219" x2="12.5605996" y2="0.50472388" id="路径-2" stroke="#BFBFBF" stroke-width="1.2" stroke-linecap="round"></line>
            <line x1="10.0159792" y1="5.58067509" x2="13.4" y2="5.58067509" id="路径-3" stroke="#BFBFBF" stroke-width="1.2" stroke-linecap="round"></line>
            <line x1="9.79836753" y1="8.87381021" x2="12.5605996" y2="11.0267261" id="路径-4" stroke="#BFBFBF" stroke-width="1.2" stroke-linecap="round"></line>
        </g>
    </g>
</svg>