<?xml version="1.0" encoding="UTF-8"?>
<svg width="16px" height="16px" viewBox="0 0 16 16" version="1.1" xmlns="http://www.w3.org/2000/svg" xmlns:xlink="http://www.w3.org/1999/xlink">
    <title>ontract-center-app</title>
    <g id="ontract-center-app" stroke="none" stroke-width="1" fill="none" fill-rule="evenodd">
        <rect id="矩形" fill="#000000" opacity="0" x="0" y="0" width="16" height="16"></rect>
        <g id="编组" transform="translate(2.000000, 1.000000)" fill="#BFBFBF">
            <path d="M10.0833333,0 C10.6356181,0 11.0833333,0.44771525 11.0833333,1 L11.0838114,8.55668656 C10.8170802,8.49239102 10.5386023,8.45833333 10.2521885,8.45833333 C8.29496794,8.45833333 6.70833333,10.048735 6.70833333,12.0106024 C6.70833333,12.3463977 6.75481555,12.6713105 6.84168228,12.9792286 L1,12.9792286 C0.44771525,12.9792286 0,12.5314514 0,11.9791667 L0,1 C0,0.44771525 0.44771525,0 1,0 L10.0833333,0 Z M6.5,6.4375 L2.25,6.4375 C1.97385763,6.4375 1.75,6.66135763 1.75,6.9375 C1.75,7.21364237 1.97385763,7.4375 2.25,7.4375 L6.5,7.4375 C6.77614237,7.4375 7,7.21364237 7,6.9375 C7,6.66135763 6.77614237,6.4375 6.5,6.4375 Z M7.66666667,4.39583333 L2.25,4.39583333 C1.97385763,4.39583333 1.75,4.61969096 1.75,4.89583333 C1.75,5.17197571 1.97385763,5.39583333 2.25,5.39583333 L7.66666667,5.39583333 C7.94280904,5.39583333 8.16666667,5.17197571 8.16666667,4.89583333 C8.16666667,4.61969096 7.94280904,4.39583333 7.66666667,4.39583333 Z M7.66666667,2.35416667 L2.25,2.35416667 C1.97385763,2.35416667 1.75,2.57802429 1.75,2.85416667 C1.75,3.13030904 1.97385763,3.35416667 2.25,3.35416667 L7.66666667,3.35416667 C7.94280904,3.35416667 8.16666667,3.13030904 8.16666667,2.85416667 C8.16666667,2.57802429 7.94280904,2.35416667 7.66666667,2.35416667 Z" id="形状"></path>
            <path d="M10.3541667,10.2083333 C11.0182482,10.2083333 11.5565926,10.7525645 11.5565926,11.4239077 C11.5565926,11.6769573 11.4801065,11.9119473 11.3492307,12.1065397 L12.5416667,13.3123673 L11.8755484,13.3265978 L11.8614718,14 L10.5057875,12.6299106 C10.4561264,12.6362272 10.4055225,12.639482 10.3541667,12.639482 C10.3028108,12.639482 10.2522069,12.6362272 10.2025458,12.6299106 L8.84686151,14 L8.83278496,13.3265978 L8.16666667,13.3123673 L9.35910262,12.1065397 C9.22822678,11.9119473 9.1517407,11.6769573 9.1517407,11.4239077 C9.1517407,10.7525645 9.69008514,10.2083333 10.3541667,10.2083333 Z M10.3541667,10.8402778 C10.0665184,10.8402778 9.83333333,11.0760537 9.83333333,11.3668981 C9.83333333,11.6577425 10.0665184,11.8935185 10.3541667,11.8935185 C10.641815,11.8935185 10.875,11.6577425 10.875,11.3668981 C10.875,11.0760537 10.641815,10.8402778 10.3541667,10.8402778 Z" id="形状"></path>
        </g>
    </g>
</svg>