<?xml version="1.0" encoding="UTF-8"?>
<svg width="16px" height="16px" viewBox="0 0 16 16" version="1.1" xmlns="http://www.w3.org/2000/svg" xmlns:xlink="http://www.w3.org/1999/xlink">
    <title>api-mock-app</title>
    <g id="api-mock-app" stroke="none" stroke-width="1" fill="none" fill-rule="evenodd">
        <rect id="矩形" fill="#000000" opacity="0" x="0" y="0" width="16" height="16"></rect>
        <g id="编组" transform="translate(1.000000, 2.067552)" fill="#BFBFBF">
            <path d="M12.1120831,0.025659426 L13.6581139,0.541003026 C13.862285,0.609060049 14,0.800129471 14,1.01534467 L14,11.4316723 C14,11.7078146 13.7761424,11.9316723 13.5,11.9316723 C13.4292606,11.9316723 13.3593264,11.9166619 13.2948177,11.887633 L7.41036468,9.23962917 C7.14939136,9.12219118 6.85060864,9.12219118 6.58963532,9.23962917 L0.705182339,11.887633 C0.453362168,12.0009521 0.157358324,11.8886748 0.0440392474,11.6368546 C0.0150103115,11.5723459 4.82024381e-16,11.5024116 0,11.4316723 L0,1.0051787 C-8.12597446e-17,0.794925477 0.131533875,0.607134565 0.329128468,0.535281985 L1.71150074,0.0326011611 C1.84716052,-0.0167296689 1.99752074,-0.00502349299 2.12391094,0.0647090308 L6.50833256,2.48370027 C6.81368648,2.6521714 7.18475281,2.64939203 7.48754884,2.47636573 L11.7058997,0.065879504 C11.8294084,-0.00469685754 11.9771317,-0.0193243545 12.1120831,0.025659426 Z M10.0624078,3.10496506 L7.01920352,4.86874587 L3.92446522,3.10496506 L2.8,3.79306427 L2.8,8.62386257 L4.22631235,7.86119724 L4.22631235,4.94628178 L7.01920352,6.63596277 L9.71033653,4.94628178 L9.71033653,7.86119724 L11.2,8.62386257 L11.2,3.79306427 L10.0624078,3.10496506 Z" id="形状结合"></path>
        </g>
    </g>
</svg>