<?xml version="1.0" encoding="UTF-8"?>
<svg width="16px" height="16px" viewBox="0 0 16 16" version="1.1" xmlns="http://www.w3.org/2000/svg" xmlns:xlink="http://www.w3.org/1999/xlink">
    <title>apm-app</title>
    <g id="apm-app" stroke="none" stroke-width="1" fill="none" fill-rule="evenodd">
        <g id="编组-8" fill="#BFBFBF" transform="translate(1, 2)">
            <path d="M12.667,1.04101101e-15 C13.4,1.17566093e-15 14,0.6 14,1.333 L14,10.667 C14,11.4 13.4,12 12.667,12 L1.333,12 C0.6,12 -1.77635684e-15,11.4 -1.77635684e-15,10.667 L0,1.333 C0,0.6 0.6,-1.17566093e-15 1.333,-1.04101101e-15 L12.667,1.04101101e-15 Z M10.6120014,8.34030552 L5.61273557,8.4259872 C5.33663375,8.43071927 5.11664509,8.65838013 5.12137716,8.93448195 C5.12610923,9.21058378 5.35377008,9.43057243 5.62987191,9.42584037 L10.6291377,9.34015868 C10.9052395,9.33542661 11.1252282,9.10776576 11.1204961,8.83166393 C11.1157641,8.55556211 10.8881032,8.33557345 10.6120014,8.34030552 Z M9.03759122,6.24115136 L4.03775055,6.28106641 C3.76161697,6.28327086 3.53955354,6.50890841 3.54174171,6.78504199 C3.54396243,7.06117556 3.76959998,7.283239 4.04573356,7.28103455 L9.04557424,7.2411195 C9.32170781,7.23891505 9.54377125,7.0132775 9.54158307,6.73714392 C9.53936235,6.46101035 9.3137248,6.23894691 9.03759122,6.24115136 Z M6.99584917,4.11060488 L1.99600849,4.15051994 C1.71987492,4.15272438 1.49781148,4.37836193 1.49999966,4.65449551 C1.50222038,4.93062909 1.72785793,5.15269252 2.00399151,5.15048807 L7.00383218,5.11057302 C7.27996576,5.10836857 7.50202919,4.88273102 7.49984102,4.60659745 C7.4976203,4.33046387 7.27198275,4.10840044 6.99584917,4.11060488 Z M10.6205696,2 L2.01294317,2 C1.7368008,2 1.51294317,2.22385763 1.51294317,2.5 C1.51294317,2.77614237 1.7368008,3 2.01294317,3 L10.6205696,3 C10.8967119,3 11.1205696,2.77614237 11.1205696,2.5 C11.1205696,2.22385763 10.8967119,2 10.6205696,2 Z" id="形状结合"></path>
        </g>
    </g>
</svg>