<?xml version="1.0" encoding="UTF-8"?>
<svg width="16px" height="16px" viewBox="0 0 16 16" version="1.1" xmlns="http://www.w3.org/2000/svg" xmlns:xlink="http://www.w3.org/1999/xlink">
    <title>approval-management-app</title>
    <g id="approval-management-app" stroke="none" stroke-width="1" fill="none" fill-rule="evenodd">
        <g id="数据审批">
            <rect id="矩形备份-49" fill-opacity="0.1" fill="#FFFFFF" opacity="0" x="0" y="0" width="16" height="16"></rect>
            <g transform="translate(1.707459, 1.631760)" fill="#BFBFBF" id="形状结合">
                <path d="M10.3379277,0 C10.8902124,-1.01453063e-16 11.3379277,0.44771525 11.3379277,1 L11.3376086,6.7327738 C11.0357191,6.65510107 10.7192339,6.61379114 10.3931004,6.61379114 C8.30584552,6.61379114 6.61379114,8.30584552 6.61379114,10.3931004 C6.61379114,11.5222788 7.1090001,12.5357949 7.89408804,13.2283189 L1,13.2275823 C0.44771525,13.2275823 6.76353751e-17,12.779867 0,12.2275823 L0,1 C-6.76353751e-17,0.44771525 0.44771525,1.01453063e-16 1,0 L10.3379277,0 Z M13.047643,12.4712321 L13.047643,13.2270939 L8.61273932,13.2270939 L8.61273932,12.4712321 L13.047643,12.4712321 Z M9.66270276,9.40467286 C9.66270276,8.70067501 10.284698,8.14559979 10.9998262,8.27759937 C11.4388817,8.35882991 11.7947827,8.71082881 11.8879157,9.15421208 C11.9743963,9.55359547 11.8480016,9.93267122 11.6051906,10.1932858 C11.4754696,10.3388238 11.4122723,10.5452847 11.4588387,10.7618994 C11.5220361,11.0529755 11.7947827,11.2492826 12.0874863,11.2492826 L12.5331942,11.2492826 C12.6961769,11.2492826 12.8258978,11.3812822 12.8258978,11.5505124 L12.8258978,12.0277417 L8.8344845,12.0277417 L8.8344845,11.5471278 C8.8344845,11.3846668 8.96420544,11.2526672 9.12386196,11.2526672 L9.55626508,11.2526672 C9.8789043,11.2289749 10.13502,10.9582065 10.13502,10.6231307 C10.13502,10.4606696 10.0718226,10.3151316 9.97536347,10.2034396 C9.78244516,9.99359411 9.66270276,9.71267189 9.66270276,9.40467286 Z M6.5317237,6.52903962 L1.67597149,6.52903962 L1.67597149,7.47386692 L6.5317237,7.47386692 L6.5317237,6.52903962 Z M6.5317237,4.45041954 L1.67597149,4.45041954 L1.67597149,5.39524685 L6.5317237,5.39524685 L6.5317237,4.45041954 Z M4.1038476,2.37179947 L1.67597149,2.37179947 L1.67597149,3.31662677 L4.1038476,3.31662677 L4.1038476,2.37179947 Z"></path>
            </g>
        </g>
    </g>
</svg>