<?xml version="1.0" encoding="UTF-8"?>
<svg width="16px" height="16px" viewBox="0 0 16 16" version="1.1" xmlns="http://www.w3.org/2000/svg" xmlns:xlink="http://www.w3.org/1999/xlink">
    <title>automatic-collection-app</title>
    <g id="automatic-collection-app" stroke="none" stroke-width="1" fill="none" fill-rule="evenodd">
        <g id="自动采集">
            <rect id="矩形" fill="#D8D8D8" opacity="0" x="0" y="0" width="16" height="16"></rect>
            <path d="M2.4,6.14434608 C2.51676762,6.14434608 2.63211977,6.16990752 2.73795657,6.2192355 L7.36897828,8.37764309 C7.50990355,8.44332497 7.6,8.58471835 7.6,8.74019839 L7.6,13.1445153 C7.6,13.5863431 7.2418278,13.9445153 6.8,13.9445153 C6.68323238,13.9445153 6.56788023,13.9189539 6.46204343,13.8696259 L1.83102172,11.7112183 C1.69009645,11.6455364 1.6,11.504143 1.6,11.348663 L1.6,6.94434608 C1.6,6.50251828 1.9581722,6.14434608 2.4,6.14434608 Z M13.6,6.14434608 C14.0418278,6.14434608 14.4,6.50251828 14.4,6.94434608 L14.4,11.348663 C14.4,11.504143 14.3099036,11.6455364 14.1689783,11.7112183 L9.53795657,13.8696259 C9.43211977,13.9189539 9.31676762,13.9445153 9.2,13.9445153 C8.7581722,13.9445153 8.4,13.5863431 8.4,13.1445153 L8.4,8.74019839 C8.4,8.58471835 8.49009645,8.44332497 8.63102172,8.37764309 L13.2620434,6.2192355 C13.3678802,6.16990752 13.4832324,6.14434608 13.6,6.14434608 Z M4.96667128,3.0526523 L4.96690774,3.10174462 C4.9748607,3.49781491 5.14566923,5.81530626 8.05148789,5.84432118 C10.7956155,5.8717216 11.092278,3.83601238 11.108156,3.24285838 L11.1084312,3.15168853 C11.1078132,3.12711749 11.1066461,3.10862549 11.1054123,3.09699294 L12.966238,3.93336452 C13.0399961,3.96378976 13.1232624,4.00993104 13.2101835,4.08272098 C13.3917003,4.23472771 13.5162726,4.4474976 13.5125525,4.7116955 C13.5125525,4.96420794 13.4095418,5.17314312 13.2533079,5.33412713 C13.1701585,5.41980455 13.0875151,5.47742515 13.0002851,5.52347933 L8.48323049,7.77093906 C8.20566404,7.9090422 7.87974076,7.91059581 7.60087033,7.77514508 L2.9370594,5.50773944 C2.87345152,5.47028146 2.79872812,5.41645294 2.72118454,5.34020175 C2.55524994,5.17703272 2.44221453,4.97670887 2.44221453,4.71612457 C2.44221453,4.43710277 2.57511118,4.22859251 2.76405833,4.07765197 C2.85119471,4.00804302 2.93368859,3.96331933 2.98909342,3.94067998 L4.96667128,3.0526523 Z M8.64719723,2.7116955 L8.64719723,3.46685121 L9.54186851,3.46685121 L8.05148789,5.23183391 L6.56110727,3.46685121 L7.49121107,3.46685121 L7.49121107,2.7116955 L8.64719723,2.7116955 Z M8.64941176,2.18242215 L8.64719723,2.54782007 L7.48013841,2.54782007 L7.48013841,2.18242215 L8.64941176,2.18242215 Z M8.64719723,1.6 L8.63612457,1.97204152 L7.49121107,1.97204152 L7.49121107,1.6 L8.64719723,1.6 Z" id="形状结合" fill="#BFBFBF" fill-rule="nonzero"></path>
        </g>
    </g>
</svg>