<?xml version="1.0" encoding="UTF-8"?>
<svg width="16px" height="16px" viewBox="0 0 16 16" version="1.1" xmlns="http://www.w3.org/2000/svg" xmlns:xlink="http://www.w3.org/1999/xlink">
    <title>availability-zone-app</title>
    <g id="availability-zone-app" stroke="none" stroke-width="1" fill="none" fill-rule="evenodd">
        <g id="数据中心" transform="translate(1.000000, 1.000000)" fill="#BFBFBF">
            <path d="M11.9500218,7.6301884 C12.1032912,7.6301884 12.2565606,7.7068231 12.3331953,7.86009249 L13.942524,10.6572589 C14.0191587,10.8105283 14.0191587,10.9637977 13.942524,11.1170671 L12.3331953,13.9142336 C12.2565606,14.067503 12.1032912,14.1441377 11.9500218,14.1441377 L8.6930472,14.1441377 C8.53977781,14.1441377 8.38650842,14.067503 8.30987372,13.9142336 L6.70054506,11.1170671 C6.62391036,10.9637977 6.62391036,10.8105283 6.70054506,10.6572589 L8.30987372,7.86009249 C8.38650841,7.7068231 8.53977781,7.6301884 8.6930472,7.6301884 L11.9500218,7.6301884 Z M5.3069528,3.77832264 C5.46022219,3.77832264 5.61349158,3.85495734 5.69012628,4.00822673 L7.29945494,6.8053932 C7.37608964,6.95866259 7.37608964,7.11193199 7.29945494,7.26520138 L5.69012628,10.0623678 C5.61349159,10.2156372 5.46022219,10.2922719 5.3069528,10.2922719 L2.04997815,10.2922719 C1.89670876,10.2922719 1.74343937,10.2156372 1.66680467,10.0623678 L0.0574760265,7.26520138 C-0.0191586755,7.11193199 -0.0191586755,6.95866259 0.0574760265,6.8053932 L1.66680467,4.00822673 C1.74343936,3.85495734 1.89670876,3.77832264 2.04997815,3.77832264 L5.3069528,3.77832264 Z M11.9026821,0 C12.0559515,0 12.2092209,0.076634702 12.2858556,0.229904092 L13.8951842,3.02707054 C13.9718189,3.18033993 13.9718189,3.33360934 13.8951842,3.48687873 L12.2858556,6.28404519 C12.2092209,6.43731458 12.0559515,6.51394929 11.9026821,6.51394929 L8.64570745,6.51394929 C8.49243806,6.51394929 8.33916867,6.43731458 8.26253397,6.28404519 L6.65320531,3.48687873 C6.57657061,3.33360934 6.57657061,3.18033993 6.65320531,3.02707054 L8.26253397,0.229904092 C8.33916866,0.076634702 8.49243806,0 8.64570745,0 L11.9026821,0 Z" id="形状结合"></path>
        </g>
    </g>
</svg>