<?xml version="1.0" encoding="UTF-8"?>
<svg width="16px" height="16px" viewBox="0 0 16 16" version="1.1" xmlns="http://www.w3.org/2000/svg" xmlns:xlink="http://www.w3.org/1999/xlink">
    <title>blueprint-management-app</title>
    <g id="blueprint-management-app" stroke="none" stroke-width="1" fill="none" fill-rule="evenodd">
        <g id="编组-39" transform="translate(0.4, 3)">
            <g id="应用蓝图" transform="translate(0, 0.1692)">
                <path d="M13.96,-3.89437683e-16 C14.6448331,-4.31371615e-16 15.2,0.555166904 15.2,1.23999999 L15.2,9.96000001 C15.2,10.6448331 14.6448331,11.2 13.96,11.2 L3.15999994,11.2 C1.41478016,11.2 0,9.78521984 0,8.04000006 L0,1.6 C0,0.7163444 0.7163444,4.2150234e-16 1.6,3.6739404e-16 L13.96,-3.89437683e-16 Z M10.9703704,4.95897436 C10.5408156,4.95897436 10.1925926,5.30337071 10.1925926,5.72820513 L9.53364198,5.72820513 C9.35466081,5.72820513 9.20472672,5.85471807 9.16554109,6.02463173 L9.15809922,6.06796623 L9.15555556,6.11282051 L9.15555556,6.4974359 C9.15555556,6.70985311 9.32483061,6.88205128 9.53364198,6.88205128 C9.60188274,6.88205128 9.66590094,6.86366017 9.72116825,6.83148448 L9.75822531,6.80705128 L9.79700482,6.77933523 C9.88479827,6.72263006 9.98900961,6.68974359 10.1007716,6.68974359 C10.4139887,6.68974359 10.6679012,6.94804085 10.6679012,7.26666667 C10.6679012,7.58529248 10.4139887,7.84358974 10.1007716,7.84358974 C9.9868837,7.84358974 9.88083644,7.80944025 9.79198512,7.75065812 L9.76276697,7.72992749 C9.69919173,7.6805855 9.61978085,7.65128205 9.53364198,7.65128205 C9.32483061,7.65128205 9.15555556,7.82348022 9.15555556,8.03589744 L9.15555556,8.42051282 C9.15555556,8.63293003 9.32483061,8.80512821 9.53364198,8.80512821 L12.4070988,8.80512821 C12.6159101,8.80512821 12.7851852,8.63293003 12.7851852,8.42051282 L12.7851852,6.11282051 C12.7851852,5.9004033 12.6159101,5.72820513 12.4070988,5.72820513 L11.7481481,5.72820513 C11.7481481,5.30337071 11.3999252,4.95897436 10.9703704,4.95897436 Z M6.06887766,6.24102564 C5.56873513,6.24102564 5.15989899,6.63434829 5.12440797,7.13247863 C4.75668013,7.23878205 4.48888889,7.56474359 4.48888889,7.95042735 C4.48888889,8.40534188 4.86151908,8.77911325 5.33148148,8.80512821 L6.91147026,8.80512821 C7.43454153,8.80512821 7.85925926,8.35058761 7.85925926,7.79017094 C7.85925926,7.24989316 7.44322278,6.8099359 6.91861953,6.77820513 C6.76388889,6.46025641 6.44217172,6.24102564 6.06887766,6.24102564 Z M7.79851852,2.65128205 L4.80888889,2.65128205 C4.63215777,2.65128205 4.48888889,2.79455093 4.48888889,2.97128205 L4.48888889,5.15179487 C4.48888889,5.32852599 4.63215777,5.47179487 4.80888889,5.47179487 L7.79851852,5.47179487 C7.97524964,5.47179487 8.11851852,5.32852599 8.11851852,5.15179487 L8.11851852,2.97128205 C8.11851852,2.79455093 7.97524964,2.65128205 7.79851852,2.65128205 Z M12.4651852,2.65128205 L9.47555556,2.65128205 C9.29882444,2.65128205 9.15555556,2.79455093 9.15555556,2.97128205 L9.15555556,3.86974359 C9.15555556,4.04647471 9.29882444,4.18974359 9.47555556,4.18974359 L12.4651852,4.18974359 C12.6419163,4.18974359 12.7851852,4.04647471 12.7851852,3.86974359 L12.7851852,2.97128205 C12.7851852,2.79455093 12.6419163,2.65128205 12.4651852,2.65128205 Z" id="形状结合" fill="#BFBFBF" fill-rule="nonzero"></path>
                <g id="云-(1)" transform="translate(4.4889, 6.241)"></g>
            </g>
            <path d="M1.8962963,0 C2.61222097,0 3.19259259,0.573993911 3.19259259,1.28205128 L3.19259259,8.71794872 L3.16666284,8.7179445 C3.18366653,8.63509711 3.19259259,8.54934873 3.19259259,8.46153846 C3.19259259,7.75348109 2.61222097,7.17948718 1.8962963,7.17948718 C1.18037162,7.17948718 0.6,7.75348109 0.6,8.46153846 C0.6,8.54934873 0.608926061,8.63509711 0.625929758,8.7179445 L0.6,8.71794872 L0.6,1.28205128 L0.606692632,1.15096899 C0.673075957,0.504486835 1.22511691,0 1.8962963,0 Z" id="形状结合" fill="#BFBFBF"></path>
        </g>
    </g>
</svg>