<?xml version="1.0" encoding="UTF-8"?>
<svg width="16px" height="16px" viewBox="0 0 16 16" version="1.1" xmlns="http://www.w3.org/2000/svg" xmlns:xlink="http://www.w3.org/1999/xlink">
    <title>ci-app</title>
    <g id="ci-app" stroke="none" stroke-width="1" fill="none" fill-rule="evenodd">
        <g id="编组">
            <rect id="矩形" x="0" y="0" width="16" height="16"></rect>
            <g id="持续集成" transform="translate(0.000000, 4.571429)" fill="#BFBFBF">
                <path d="M7.16212931,3.33822067 L8.52459016,4.70068153 L8.53696813,4.70863879 L8.40005747,4.84568624 L8.00186259,5.24432905 L7.81337318,5.43305398 L7.21962645,6.02763098 C7.15938994,6.08795833 7.10412231,6.14331136 7.0545898,6.19292175 L6.87299171,6.3748126 L6.85134224,6.39649807 L6.77811752,6.46984712 L6.62186084,6.63398782 C5.977944,7.27189878 5.11090015,7.68268416 4.148683,7.74743047 L4.148683,5.79790017 L4.31414878,5.76782993 C4.64008481,5.69397454 4.93481041,5.53901534 5.17605452,5.32429545 L5.33461043,5.16544483 L6.30510223,4.19495303 L7.16212931,3.33822067 Z M10.0288083,4.52915822 L10.6650949,5.16544483 L10.8239455,5.32429545 L10.9492245,5.42682484 C11.2083783,5.62151108 11.5178275,5.75272478 11.8545589,5.79819488 L11.8545589,7.74772518 L11.6157844,7.7245237 C10.6691912,7.60338877 9.82822166,7.14560268 9.22129306,6.46984712 L8.65662185,5.90104992 L10.0288083,4.52915822 Z M11.8545589,0 L11.8545589,1.9495303 L11.6919964,1.97850417 C11.3716075,2.04975096 11.0808515,2.19965792 10.8416283,2.40780991 L10.8302522,2.41855347 C10.8125113,2.43569188 10.7759897,2.47170028 10.7235071,2.52374787 L10.5980962,2.64838991 L10.5606805,2.68564366 L10.3411411,2.90454028 C10.2367647,3.00869843 10.1195757,3.12573758 9.99299611,3.25222221 L8.94956714,4.29574507 L8.94131516,4.28395653 L7.57914901,2.92149567 L9.21864063,1.28141463 L9.37524797,1.11668302 C10.0206103,0.476494304 10.8896213,0.0644742622 11.8545589,0 Z M4.148683,0.000294713575 L4.38745707,0.0236425481 C5.33404541,0.145403656 6.17495218,0.604298851 6.78106465,1.28141463 L7.34072573,1.84078099 L5.96618162,3.21532511 L5.35081967,2.59996316 L5.2578007,2.50068153 L5.15837171,2.40780991 L5.03496319,2.30891503 C4.77999556,2.12116788 4.47733074,1.99478989 4.148683,1.94982501 L4.148683,0.000294713575 Z M0.0359550562,3.35030392 L2.01407257,3.35030392 C2.2144778,2.63326579 2.81421993,2.08509854 3.55925585,1.95925585 L3.55925585,1.95925585 L3.55925585,0.0023577086 C1.73881009,0.153545773 0.277914901,1.55726653 0.0359550562,3.35030392 L0.0359550562,3.35030392 Z M12.443986,1.95984528 C13.1872536,2.08657211 13.7858169,2.63473936 13.9856327,3.35030392 L13.9856327,3.35030392 L15.9637502,3.35030392 C15.7223798,1.55844539 14.2626635,0.155314054 12.443986,0.00265242218 L12.443986,0.00265242218 L12.443986,1.95984528 Z M14.0560693,3.93973107 C14.0245349,4.87132069 13.3396206,5.63492356 12.443986,5.7878799 L12.443986,5.7878799 L12.443986,7.74536747 C14.4150304,7.57973844 15.9664027,5.94555167 16,3.93973107 L16,3.93973107 L14.0560693,3.93973107 Z M0,3.93973107 L0,3.95299318 C0.0406704734,5.95409836 1.59056917,7.58180144 3.55925585,7.74536747 L3.55925585,7.74536747 L3.55925585,5.78846933 C2.66185301,5.63698655 1.97517038,4.87249954 1.94393074,3.93973107 L1.94393074,3.93973107 L0,3.93973107 Z" id="形状结合"></path>
            </g>
        </g>
    </g>
</svg>