<?xml version="1.0" encoding="UTF-8"?>
<svg width="16px" height="16px" viewBox="0 0 16 16" version="1.1" xmlns="http://www.w3.org/2000/svg" xmlns:xlink="http://www.w3.org/1999/xlink">
    <title>ci-statistic-app</title>
    <g id="ci-statistic-app" stroke="none" stroke-width="1" fill="none" fill-rule="evenodd">
        <rect id="矩形" fill="#000000" opacity="0" x="0" y="0" width="16" height="16"></rect>
        <g id="编组-29" transform="translate(1.000000, 1.000000)" fill="#BFBFBF">
            <path d="M7.70710678,0.36450776 L13.6354922,6.29289322 C14.0260165,6.68341751 14.0260165,7.31658249 13.6354922,7.70710678 L7.70710678,13.6354922 C7.31658249,14.0260165 6.68341751,14.0260165 6.29289322,13.6354922 L0.36450776,7.70710678 C-0.0260165322,7.31658249 -0.0260165322,6.68341751 0.36450776,6.29289322 L6.29289322,0.36450776 C6.68341751,-0.0260165322 7.31658249,-0.0260165322 7.70710678,0.36450776 Z M7.02900536,1.30710496 C6.85695818,1.30664701 6.71711513,1.44574757 6.71665718,1.61779476 L6.71264148,2.74381143 C6.4681406,2.79683168 6.23551593,2.91836871 6.04546213,3.10842252 L3.10842252,6.04546213 C2.92641759,6.22746706 2.80724888,6.44851342 2.7509164,6.68164352 L1.62871151,6.67872654 C1.45666432,6.67826859 1.31682128,6.81736916 1.31636333,6.98941634 C1.31590538,7.16146353 1.45500594,7.30130657 1.62705313,7.30176452 L2.74801409,7.30609503 C2.80309346,7.54373094 2.9232296,7.76934495 3.10842252,7.95453787 L6.04546213,10.8915775 C6.22976919,11.0758845 6.45411157,11.1957557 6.69049566,11.251191 L6.68798491,12.3897102 C6.68752696,12.5617574 6.82662752,12.7016004 6.99867471,12.7020584 C7.1707219,12.7025163 7.31056494,12.5634158 7.31102289,12.3913686 L7.3139003,11.2501524 C7.54866912,11.1942666 7.77137367,11.0747417 7.95453787,10.8915775 L10.8915775,7.95453787 C11.0712639,7.77485147 11.1897048,7.557112 11.2469002,7.32725997 L12.3989686,7.3304368 C12.5710158,7.33089475 12.7108588,7.19179419 12.7113167,7.019747 C12.7117747,6.84769981 12.5726741,6.70785677 12.4006269,6.70739882 L11.2541118,6.70322683 C11.2000351,6.46217229 11.0791904,6.23307502 10.8915775,6.04546213 L7.95453787,3.10842252 C7.77745982,2.93134447 7.56342545,2.81374673 7.33726192,2.75562931 L7.33969516,1.61945314 C7.34015311,1.44740595 7.20105255,1.30756291 7.02900536,1.30710496 Z M7.51398193,3.54897846 L10.4510215,6.48601807 C10.7348859,6.76988245 10.7348859,7.23011755 10.4510215,7.51398193 L7.51398193,10.4510215 C7.23011755,10.7348859 6.76988245,10.7348859 6.48601807,10.4510215 L3.54897846,7.51398193 C3.26511408,7.23011755 3.26511408,6.76988245 3.54897846,6.48601807 L6.48601807,3.54897846 C6.76988245,3.26511408 7.23011755,3.26511408 7.51398193,3.54897846 Z M8.12467337,5.91535723 C7.96287186,5.75415383 7.70102466,5.7546387 7.53982126,5.9164402 L5.34632021,8.11807979 C5.18511681,8.27988129 5.18560168,8.5417285 5.34740319,8.7029319 C5.50920469,8.86413529 5.7710519,8.86365043 5.9322553,8.70184892 L8.12575635,6.50020934 C8.28695974,6.33840783 8.28647488,6.07656062 8.12467337,5.91535723 Z M6.36813456,5.91099571 C6.20392425,5.75224673 5.94211403,5.75667401 5.78336505,5.92088432 L4.4828291,7.26616166 C4.32408012,7.43037197 4.3285074,7.69218219 4.49271771,7.85093117 C4.65692801,8.00968015 4.91873824,8.00525287 5.07748722,7.84104257 L6.37802316,6.49576522 C6.53677214,6.33155492 6.53234486,6.06974469 6.36813456,5.91099571 Z" id="形状结合"></path>
        </g>
    </g>
</svg>