<?xml version="1.0" encoding="UTF-8"?>
<svg width="16px" height="16px" viewBox="0 0 16 16" version="1.1" xmlns="http://www.w3.org/2000/svg" xmlns:xlink="http://www.w3.org/1999/xlink">
    <title>cloud-customer-management-app</title>
    <g id="cloud-customer-management-app" stroke="none" stroke-width="1" fill="none" fill-rule="evenodd">
        <g id="编组-3备份" transform="translate(1, 3)">
            <path d="M7,0 C9.08588387,0 10.2612279,1.06108824 10.8835722,2.44389984 C10.8224627,2.42443755 10.7574497,2.4137931 10.6896883,2.4137931 L9.4886081,2.4137931 C9.17109766,2.4137931 8.91392857,2.64750181 8.91392857,2.93604719 L8.91392857,3.151477 C8.91392857,3.44002239 9.17109767,3.67373109 9.4886081,3.67373109 L10.6896883,3.67373109 C10.9208359,3.67373109 11.1200035,3.54986921 11.2112495,3.37115937 C11.2507183,3.51690933 11.2857907,3.66553274 11.31655,3.81503802 C12.775,3.93177644 14,5.21661315 14,6.73439122 C14,8.36997871 12.71655,9.65517241 11.08275,9.65517241 L3.5,9.65517241 C1.57535,9.65517241 0,8.07831114 0,6.15159157 C0,4.34071794 1.34155,2.88059509 3.15,2.64783223 C3.85,1.2462571 5.30775,0 7,0 Z M7.83927787,6.14921546 C7.71141168,6.25497191 7.5576849,6.33853257 7.39821134,6.40642559 C6.76274205,6.67669571 6.02804911,6.67669571 5.39257981,6.40642559 C5.23310625,6.33853256 5.07937948,6.25497191 4.95151328,6.14921546 C4.95151328,6.14921546 4.10242429,6.3176424 3.2533353,7.58410855 C3.14845628,7.74078478 3.2533353,8.68084213 3.93289383,8.85057471 L8.85789732,8.85057471 C9.53745585,8.68214777 9.64233487,7.74209042 9.53745585,7.58410855 C8.68836686,6.31764239 7.83927787,6.14921546 7.83927787,6.14921546 Z M10.6896883,5.89592222 L10.3664311,5.89592222 C10.0489206,5.89592222 9.79175154,6.12963093 9.79175154,6.41817631 L9.79175154,6.63360612 C9.79175154,6.92215151 10.0489206,7.15586021 10.3664311,7.15586021 L10.6896883,7.15586021 C11.0071987,7.15586021 11.2643678,6.9221515 11.2643678,6.63360612 L11.2643678,6.41817631 C11.2643678,6.12963092 11.0071987,5.89592222 10.6896883,5.89592222 Z M6.43562314,2.52607774 C5.40411625,2.52607774 4.5679147,3.33802157 4.5679147,4.33960505 C4.5679147,5.34118853 5.40411625,6.15313236 6.43562314,6.15313236 C7.46713003,6.15313236 8.30333159,5.34118853 8.30333159,4.33960505 C8.30333159,3.33802157 7.46713003,2.52607774 6.43562314,2.52607774 Z M10.6896883,4.19206827 L9.88082687,4.19206827 C9.56331643,4.19206827 9.30614735,4.42577697 9.30614735,4.71432235 L9.30614735,4.92975216 C9.30614735,5.21829755 9.56331644,5.45200625 9.88082687,5.45200625 L10.6896883,5.45200625 C11.0071987,5.45200625 11.2643678,5.21829754 11.2643678,4.92975216 L11.2643678,4.71432235 C11.2643678,4.42577697 11.0071987,4.19206827 10.6896883,4.19206827 Z" id="形状结合" fill="#BFBFBF"></path>
            <g id="编组-2" transform="translate(3.2184, 2.4138)"></g>
        </g>
    </g>
</svg>