<?xml version="1.0" encoding="UTF-8"?>
<svg width="16px" height="16px" viewBox="0 0 16 16" version="1.1" xmlns="http://www.w3.org/2000/svg" xmlns:xlink="http://www.w3.org/1999/xlink">
    <title>cluster-overview-app</title>
    <g id="cluster-overview-app" stroke="none" stroke-width="1" fill="none" fill-rule="evenodd">
        <g id="编组">
            <rect id="矩形" x="0" y="0" width="16" height="16"></rect>
            <path d="M7.97955802,1 C8.19031277,1 8.3619203,1.22383976 8.3619203,1.49904586 C8.3619203,1.85562969 8.28362591,1.9025454 8.26585784,2.37770467 C8.26758069,2.55554682 8.30586838,2.73053245 8.37768524,2.89209793 C8.44730691,2.9057654 8.49942395,2.96698402 8.49955387,3.04040641 L8.49943478,3.06956522 L8.58447596,3.07848042 C9.7282377,3.21141337 10.7942399,3.72259038 11.611368,4.52995732 L11.689913,4.60956522 L11.7133238,4.59212082 C11.7694523,4.54966902 11.8454987,4.55204853 11.8985165,4.59330112 C12.1033856,4.54776453 12.2505312,4.43362892 12.3493539,4.34836825 C12.7112398,4.03865931 12.7005708,3.94838028 12.9798126,3.7262963 C13.1968046,3.55459872 13.4778109,3.54843312 13.611215,3.71212766 C13.7436754,3.87676136 13.6734238,4.14837427 13.4573346,4.32092932 C13.177231,4.54476908 13.0918376,4.51381858 12.706808,4.79608859 C12.5855584,4.89349846 12.4834211,5.01139383 12.4047207,5.14376596 L12.367087,5.21065218 L12.3744106,5.22236162 C12.4066804,5.28670377 12.3895139,5.36685736 12.3300803,5.41180886 L12.3275217,5.41334783 L12.3637834,5.47016939 C12.9695493,6.43904964 13.2318801,7.58205414 13.108859,8.71654712 L13.0984348,8.80256522 L13.1024227,8.80359474 C13.1773627,8.82095982 13.2264455,8.89092981 13.2196522,8.96546466 C13.386236,9.10481448 13.5742573,9.15048288 13.7071954,9.17525484 C14.1767156,9.26373728 14.2407299,9.19910058 14.5902233,9.27876338 C14.8596578,9.33980685 15.0401288,9.55221373 14.9923233,9.75743419 C14.9443126,9.96179718 14.6890761,10.0777186 14.4196416,10.0166751 C14.0701482,9.93791059 14.0417111,9.85208222 13.57929,9.72819863 C13.4017244,9.68937206 13.2185456,9.68828606 13.0415935,9.72429108 C13.0152751,9.77776602 12.9591953,9.8109242 12.8991755,9.80812904 L12.8723043,9.80417392 L12.8437008,9.88766021 C12.4437033,11.000619 11.6729012,11.9445703 10.657485,12.5596538 C10.6838857,12.6213454 10.6657932,12.6912909 10.6172468,12.7333677 C10.6261582,12.887711 10.6723379,13.0389886 10.7523205,13.1739098 C10.9755088,13.5924763 11.0661957,13.6039909 11.2218407,13.9251735 C11.3410057,14.1728999 11.2849933,14.4490043 11.0946739,14.5392425 C10.9052572,14.6295215 10.6535908,14.5020856 10.5326612,14.2543184 C10.3788217,13.9330949 10.4268735,13.8570253 10.2356514,13.4207787 C10.164664,13.2762696 10.0669611,13.1468241 9.94804108,13.0390174 L9.92254041,13.050933 C9.92241374,13.0509896 9.92228701,13.051046 9.92216019,13.0511023 C9.85438178,13.0811683 9.77642199,13.0577362 9.73560033,12.9990443 L9.8479135,12.9570932 C8.70828961,13.3964071 7.45054452,13.4194786 6.29748629,13.0248588 L6.19278261,12.9876522 L6.18561996,13.0041396 C6.15968018,13.0626161 6.10139569,13.0966587 6.04115506,13.0945546 C5.84267298,13.2282726 5.74735611,13.4158226 5.68969306,13.5472755 C5.49941471,13.9834813 5.54832818,14.0596325 5.39268318,14.3808152 C5.27261535,14.6303382 5.02098997,14.7577741 4.83067056,14.6657393 C4.64039218,14.5737453 4.58433864,14.2994375 4.70440648,14.0516704 C4.85910767,13.7286911 4.94983561,13.720688 5.17302388,13.3004066 C5.25200987,13.1336077 5.29417529,12.9525336 5.29741553,12.7693059 C5.24227954,12.7279035 5.22125416,12.6527241 5.25035958,12.5871112 L5.26570105,12.5525266 L5.27091304,12.5426957 L5.20772803,12.5037009 C4.2037824,11.8660726 3.45073478,10.9024345 3.07762023,9.77480524 L3.05646995,9.77769426 C3.00007703,9.78032051 2.94716236,9.75120738 2.91878692,9.70353878 C2.72078032,9.66162473 2.54417132,9.6984087 2.42073777,9.73175101 C1.95921937,9.85473629 1.92987951,9.94056466 1.58038609,10.0202274 C1.31185438,10.0812709 1.05485342,9.96539037 1.00770444,9.76008825 C0.959693719,9.55568442 1.14110858,9.34066432 1.41144584,9.28227489 C1.76003647,9.20355124 1.82499455,9.26814712 2.29361196,9.17966466 C2.45598462,9.14116889 2.60886137,9.07198573 2.74413984,8.97639519 L2.73927298,8.95551824 C2.72254572,8.88279727 2.76097341,8.81024544 2.82715655,8.78171131 L2.85322273,8.77315996 L2.85682608,8.77213044 L2.85380099,8.74866498 C2.72089046,7.5842812 2.99461341,6.40885618 3.6302577,5.42055393 L3.61840502,5.41180886 C3.55897146,5.36685736 3.5418049,5.28670377 3.57407475,5.22236162 L3.58850729,5.19907412 C3.49881781,5.02456947 3.36348523,4.91330992 3.26289499,4.84026857 C2.87876822,4.55538534 2.79337479,4.58719328 2.51327126,4.3651093 C2.29714096,4.19169678 2.22779214,3.91828725 2.35939074,3.75369439 C2.49098934,3.58910154 2.77289842,3.59620626 2.98898769,3.76786303 C3.26913226,3.98998785 3.2584222,4.07936857 3.62039016,4.38993502 C3.74518713,4.48685738 3.88624486,4.55998087 4.03642719,4.60625799 C4.08259109,4.5595137 4.15329672,4.54833102 4.21122583,4.57725572 L4.23516157,4.59212082 L4.26443478,4.61413044 L4.31963349,4.55744998 C5.13994286,3.73494532 6.21657311,3.21355327 7.37320152,3.07866367 L7.47378261,3.06804348 L7.47374852,3.0396695 C7.47361631,2.96496443 7.52733784,2.90273711 7.59830381,2.88972664 C7.69533577,2.69933132 7.69813452,2.51003072 7.69325823,2.37770467 C7.67454635,1.90340287 7.59719574,1.85562969 7.59719574,1.49904586 C7.59719574,1.22383976 7.7688033,1 7.97955802,1 Z M7.84067829,10.11192 C7.74539113,10.2092992 7.02756648,11.265116 6.59314039,12.0782773 C7.03108225,12.2243814 7.49135973,12.2989567 7.9548983,12.2989241 C8.42609459,12.2991067 8.89388798,12.2221608 9.33823845,12.0713712 C8.92452302,11.3022811 8.20838607,10.2006765 8.13569125,10.1076087 C8.06299647,10.0145409 7.93596549,10.0145409 7.84067829,10.11192 Z M9.48664329,9.28612807 C9.42891992,9.28719981 9.30816216,9.33960674 9.33823845,9.48173785 C9.36831471,9.62386898 9.80285447,10.9212261 10.1703001,11.751087 C10.9303202,11.2440142 11.5065254,10.4906444 11.8088267,9.60876642 C10.8954908,9.42505578 9.54436669,9.28506844 9.48664329,9.28612807 Z M6.4512297,9.28623818 C6.38537574,9.28504034 4.99693155,9.42812041 4.12255217,9.61367065 C4.42806489,10.4952626 5.01123133,11.2473329 5.77993648,11.751087 C6.17371001,10.8333666 6.57328371,9.62111129 6.59314039,9.47542084 C6.61299711,9.32973038 6.51708369,9.28748194 6.4512297,9.28623818 Z M8.33012892,7.46665412 L7.66987108,7.46665412 L7.25820702,7.98286452 L7.40512822,8.62656833 L8,8.91304348 L8.59487178,8.62656833 L8.74179298,7.98286452 L8.33012892,7.46665412 Z M4.49411403,5.99891305 C4.07045367,6.68317671 3.84707119,7.47090026 3.84803607,8.27398579 C3.84935578,8.42904814 3.85885621,8.58398015 3.8764998,8.73804348 C4.8204991,8.4942438 6.21618379,7.9986974 6.2674072,7.97467641 C6.31863061,7.95065542 6.39031862,7.82903009 6.31863061,7.73370001 C6.24694258,7.63836993 5.23983057,6.61447141 4.49411403,5.99891305 Z M11.5019254,5.99891305 C10.8205026,6.64386724 9.91907821,7.6768198 9.88725807,7.7237654 C9.8554379,7.77071099 9.83159358,7.89804467 9.93525926,7.95998907 C10.038925,8.02193347 11.2206034,8.50181981 12.0603719,8.73800024 C12.1544354,7.78117529 11.9578296,6.81685632 11.5019254,5.99891305 Z M7.6910392,4.08304348 L7.57457077,4.09804454 C6.68329963,4.22353007 5.85664842,4.62984309 5.22059138,5.25712919 C5.96265408,5.8012598 7.07567781,6.4846226 7.20425168,6.54673913 C7.33282555,6.60885567 7.42576258,6.54673913 7.46304786,6.41863408 C7.50033315,6.29052903 7.66950233,4.99651712 7.6910392,4.08304348 Z M8.51470902,4.08152174 C8.54744985,5.03300916 8.70945073,6.32934086 8.73847991,6.43804 C8.76750909,6.54673913 8.87205044,6.58613504 8.96590264,6.54673913 C9.05975483,6.50734323 10.2411993,5.80635991 10.9852973,5.25131189 C10.3192259,4.60076022 9.44897991,4.18871049 8.51470902,4.08152174 Z" id="形状结合" fill="#BFBFBF"></path>
        </g>
    </g>
</svg>