<?xml version="1.0" encoding="UTF-8"?>
<svg width="16px" height="16px" viewBox="0 0 16 16" version="1.1" xmlns="http://www.w3.org/2000/svg" xmlns:xlink="http://www.w3.org/1999/xlink">
    <title>cmdb-data-operations-app</title>
    <g id="cmdb-data-operations-app" stroke="none" stroke-width="1" fill="none" fill-rule="evenodd">
        <path d="M14,1.7 C14.5522847,1.7 15,2.14771525 15,2.7 L15,13.3 C15,13.8522847 14.5522847,14.3 14,14.3 L2,14.3 C1.44771525,14.3 1,13.8522847 1,13.3 L1,2.7 C1,2.14771525 1.44771525,1.7 2,1.7 L14,1.7 Z M4.35,10.1 L3.6,10.1 C3.32385763,10.1 3.1,10.3238576 3.1,10.6 L3.1,12.4 C3.1,12.6761424 3.32385763,12.9 3.6,12.9 L4.35,12.9 C4.62614237,12.9 4.85,12.6761424 4.85,12.4 L4.85,10.6 C4.85,10.3238576 4.62614237,10.1 4.35,10.1 Z M8.2,7.65 L7.45,7.65 C7.17385763,7.65 6.95,7.87385763 6.95,8.15 L6.95,12.4 C6.95,12.6761424 7.17385763,12.9 7.45,12.9 L8.2,12.9 C8.47614237,12.9 8.7,12.6761424 8.7,12.4 L8.7,8.15 C8.7,7.87385763 8.47614237,7.65 8.2,7.65 Z M12.05,3.45 L11.3,3.45 C11.0238576,3.45 10.8,3.67385763 10.8,3.95 L10.8,12.4 C10.8,12.6761424 11.0238576,12.9 11.3,12.9 L12.05,12.9 C12.3261424,12.9 12.55,12.6761424 12.55,12.4 L12.55,3.95 C12.55,3.67385763 12.3261424,3.45 12.05,3.45 Z M7.0318487,3.41200422 L7.5942446,4.1162768 L6.61775959,4.89994628 L5.49323759,5.84362623 L3.70574796,7.34350812 C3.64521676,7.39429983 3.63724244,7.48544673 3.68803414,7.54597792 L4.36784738,8.35614779 C4.41863909,8.41667899 4.50978599,8.42465331 4.57031718,8.3738616 L8.40470677,5.08662633 L9.06733023,5.81652459 L9.26909541,3.47063516 L7.0318487,3.41200422 Z" id="形状结合" fill="#BFBFBF"></path>
    </g>
</svg>