<?xml version="1.0" encoding="UTF-8"?>
<svg width="16px" height="16px" viewBox="0 0 16 16" version="1.1" xmlns="http://www.w3.org/2000/svg" xmlns:xlink="http://www.w3.org/1999/xlink">
    <title>collect-platform-app</title>
    <g id="collect-platform-app" stroke="none" stroke-width="1" fill="none" fill-rule="evenodd">
        <g id="solution-second-menu" transform="translate(-0.000000, 0.000000)">
            <rect id="矩形" x="0" y="0" width="16" height="16"></rect>
            <g id="编组" transform="translate(1.000000, 1.140000)" fill="#BFBFBF">
                <path d="M14,4.0025 L14,12.8775 C14,13.4297847 13.5522847,13.8775 13,13.8775 L1,13.8775 C0.44771525,13.8775 0,13.4297847 0,12.8775 L0,4.0025 L14,4.0025 Z M11.75,5.61 C11.1977153,5.61 10.75,6.05771525 10.75,6.61 C10.75,6.797484 10.8015946,6.97291743 10.8913598,7.1228763 L8.56173641,10.0345467 C8.4636376,10.0023913 8.35884977,9.985 8.25,9.985 L8.187,9.988 L6.47595544,7.13550155 C6.57045449,6.98280214 6.625,6.80277097 6.625,6.61 C6.625,6.05771525 6.17728475,5.61 5.625,5.61 C5.07271525,5.61 4.625,6.05771525 4.625,6.61 C4.625,6.75851355 4.65737486,6.89946554 4.7154521,7.02618349 L2.54118349,9.2004521 C2.41446554,9.14237486 2.27351355,9.11 2.125,9.11 C1.57271525,9.11 1.125,9.55771525 1.125,10.11 C1.125,10.6622847 1.57271525,11.11 2.125,11.11 C2.67728475,11.11 3.125,10.6622847 3.125,10.11 C3.125,10.0307369 3.11577816,9.9536277 3.09834885,9.87968675 L5.39468675,7.58334885 C5.4686277,7.60077816 5.54573691,7.61 5.625,7.61 L5.735,7.603 L7.42478532,10.4200133 C7.31451907,10.5807583 7.25,10.7753446 7.25,10.985 C7.25,11.5372847 7.69771525,11.985 8.25,11.985 C8.80228475,11.985 9.25,11.5372847 9.25,10.985 C9.25,10.8673838 9.22969467,10.7545102 9.1923983,10.6496934 L11.6283044,7.60266976 C11.6681929,7.60750912 11.7088056,7.61 11.75,7.61 C12.3022847,7.61 12.75,7.16228475 12.75,6.61 C12.75,6.05771525 12.3022847,5.61 11.75,5.61 Z" id="形状结合"></path>
                <path d="M13,0 C13.5522847,0 14,0.44771525 14,1 L14,3 L1.42108547e-14,3 L1.42108547e-14,1 C1.42108547e-14,0.44771525 0.44771525,0 1,0 L13,0 Z M2.5,1 C2.22385763,1 2,1.22385763 2,1.5 C2,1.77614237 2.22385763,2 2.5,2 C2.77614237,2 3,1.77614237 3,1.5 C3,1.22385763 2.77614237,1 2.5,1 Z M4.5,1 C4.22385763,1 4,1.22385763 4,1.5 C4,1.77614237 4.22385763,2 4.5,2 C4.77614237,2 5,1.77614237 5,1.5 C5,1.22385763 4.77614237,1 4.5,1 Z M6.5,1 C6.22385763,1 6,1.22385763 6,1.5 C6,1.77614237 6.22385763,2 6.5,2 C6.77614237,2 7,1.77614237 7,1.5 C7,1.22385763 6.77614237,1 6.5,1 Z" id="形状"></path>
            </g>
        </g>
    </g>
</svg>