<?xml version="1.0" encoding="UTF-8"?>
<svg width="16px" height="16px" viewBox="0 0 16 16" version="1.1" xmlns="http://www.w3.org/2000/svg" xmlns:xlink="http://www.w3.org/1999/xlink">
    <title>compliance-check-app</title>
    <g id="compliance-check-app" stroke="none" stroke-width="1" fill="none" fill-rule="evenodd">
        <g id="应用性能监控">
            <rect id="矩形" x="0" y="0" width="16" height="16"></rect>
            <path d="M12.2327273,1.6 C12.785012,1.6 13.2327273,2.04771525 13.2327273,2.6 L13.2327273,13.4 C13.2327273,13.9522847 12.785012,14.4 12.2327273,14.4 L3.76,14.4 C3.20771525,14.4 2.76,13.9522847 2.76,13.4 L2.76,2.6 C2.76,2.04771525 3.20771525,1.6 3.76,1.6 L12.2327273,1.6 Z M6.01753552,9.8445242 L5.233,10.897 L4.84826286,10.4788643 C4.75504785,10.3774952 4.60652428,10.3573479 4.49151601,10.4221448 L4.43721604,10.4616392 C4.318952,10.57039 4.31124004,10.754422 4.41999089,10.872686 L5.02466634,11.5302566 C5.08754948,11.5986406 5.17560296,11.6300613 5.26155744,11.623376 C5.35391545,11.6273539 5.44622507,11.5867185 5.50553339,11.5070261 L6.48428267,10.191885 C6.58020369,10.0629963 6.55347814,9.88075203 6.42458947,9.784831 C6.2957008,9.68890998 6.11345654,9.71563553 6.01753552,9.8445242 Z M11.5690909,10.3272727 L8.20545455,10.3272727 C7.92931217,10.3272727 7.70545455,10.5511304 7.70545455,10.8272727 C7.70545455,11.1034151 7.92931217,11.3272727 8.20545455,11.3272727 L11.5690909,11.3272727 C11.8452333,11.3272727 12.0690909,11.1034151 12.0690909,10.8272727 C12.0690909,10.5511304 11.8452333,10.3272727 11.5690909,10.3272727 Z M5.37818182,6.98181818 C4.89618785,6.98181818 4.50545455,7.37255149 4.50545455,7.85454545 C4.50545455,8.33653942 4.89618785,8.72727273 5.37818182,8.72727273 C5.86017578,8.72727273 6.25090909,8.33653942 6.25090909,7.85454545 C6.25090909,7.37255149 5.86017578,6.98181818 5.37818182,6.98181818 Z M11.5690909,7.41818182 L8.20545455,7.41818182 C7.92931217,7.41818182 7.70545455,7.64203944 7.70545455,7.91818182 C7.70545455,8.19432419 7.92931217,8.41818182 8.20545455,8.41818182 L11.5690909,8.41818182 C11.8452333,8.41818182 12.0690909,8.19432419 12.0690909,7.91818182 C12.0690909,7.64203944 11.8452333,7.41818182 11.5690909,7.41818182 Z M5.37818182,7.56363636 C5.53884647,7.56363636 5.66909091,7.6938808 5.66909091,7.85454545 C5.66909091,8.01521011 5.53884647,8.14545455 5.37818182,8.14545455 C5.21751716,8.14545455 5.08727273,8.01521011 5.08727273,7.85454545 C5.08727273,7.6938808 5.21751716,7.56363636 5.37818182,7.56363636 Z M6.01753552,4.02634238 L5.233,5.079 L4.84826286,4.66068251 C4.75504785,4.55931333 4.60652428,4.53916609 4.49151601,4.603963 L4.43721604,4.64345736 C4.318952,4.75220821 4.31124004,4.93624014 4.41999089,5.05450418 L5.02466634,5.71207477 C5.08828928,5.78126326 5.17767829,5.81261366 5.26459021,5.80494243 C5.35591106,5.8082873 5.4468674,5.76767354 5.50553339,5.68884431 L6.48428267,4.37370314 C6.58020369,4.24481447 6.55347814,4.06257021 6.42458947,3.96664919 C6.2957008,3.87072816 6.11345654,3.89745372 6.01753552,4.02634238 Z M11.5690909,4.50909091 L8.20545455,4.50909091 C7.92931217,4.50909091 7.70545455,4.73294853 7.70545455,5.00909091 C7.70545455,5.28523328 7.92931217,5.50909091 8.20545455,5.50909091 L11.5690909,5.50909091 C11.8452333,5.50909091 12.0690909,5.28523328 12.0690909,5.00909091 C12.0690909,4.73294853 11.8452333,4.50909091 11.5690909,4.50909091 Z" id="形状结合" fill="#BFBFBF"></path>
        </g>
    </g>
</svg>