<?xml version="1.0" encoding="UTF-8"?>
<svg width="16px" height="16px" viewBox="0 0 16 16" version="1.1" xmlns="http://www.w3.org/2000/svg" xmlns:xlink="http://www.w3.org/1999/xlink">
    <title>continue-to-deploy-app</title>
    <g id="continue-to-deploy-app" stroke="none" stroke-width="1" fill="none" fill-rule="evenodd">
        <g id="持续交付-应用部署" transform="translate(0.285812, 1.000000)" fill="#BFBFBF">
            <g id="编组-4" transform="translate(0.000000, 0.000000)">
                <g id="编组" transform="translate(-0.000000, 0.000000)">
                    <g id="编组-37" transform="translate(0.000000, 0.000000)">
                        <path d="M7.71418753,0 L9.56170839,1.06666667 L9.56170839,3.2 L8.247,3.958 L8.247,5.641 L10.7164089,7.06666667 L10.716,10.141 L12.141,10.964 L13.5808542,10.1333333 L15.4283751,11.2 L15.4283751,13.3333333 L14.805,13.693 L14.787862,13.7237604 L14.769,13.713 L13.5808542,14.4 L11.7333333,13.3333333 L11.733,11.96 L9.989,10.953 L7.71418753,12.2666667 L5.42,10.942 L3.695,11.939 L3.69504172,13.3333333 L1.84752086,14.4 L-1.15796261e-13,13.3333333 L-1.17017507e-13,11.2 L1.84752086,10.1333333 L3.269,10.953 L4.711,10.121 L4.71196613,7.06666667 L7.18,5.641 L7.18,3.958 L5.86666667,3.2 L5.86666667,1.06666667 L7.71418753,0 Z" id="形状结合"></path>
                    </g>
                </g>
            </g>
        </g>
    </g>
</svg>