<?xml version="1.0" encoding="UTF-8"?>
<svg width="16px" height="16px" viewBox="0 0 16 16" version="1.1" xmlns="http://www.w3.org/2000/svg" xmlns:xlink="http://www.w3.org/1999/xlink">
    <title>dashboard-app</title>
    <g id="dashboard-app" stroke="none" stroke-width="1" fill="none" fill-rule="evenodd">
        <g id="图形备份-2" transform="translate(1, 2)">
            <path d="M14,2.625 L14,11.25 C14,11.8022847 13.5522847,12.25 13,12.25 L1,12.25 C0.44771525,12.25 6.76353751e-17,11.8022847 0,11.25 L0,2.625 L14,2.625 Z M4.4296875,5.140625 C2.94973696,5.140625 1.75,6.34036196 1.75,7.8203125 C1.75,9.30026304 2.94973696,10.5 4.4296875,10.5 C5.90963804,10.5 7.109375,9.30026304 7.109375,7.8203125 L4.4296875,7.8203125 L4.4296875,5.140625 Z M12.4125,5.0875 L11.2125,5.0875 L11.2125,9.7875 L12.4125,9.7875 L12.4125,5.0875 Z M10.6625,7.7125 L9.4625,7.7125 L9.4625,9.7875 L10.6625,9.7875 L10.6625,7.7125 Z M4.8125,4.375 L4.8125,7.4375 L7.875,7.4375 C7.875,5.74612795 6.50387205,4.375 4.8125,4.375 Z" id="形状结合" fill="#BFBFBF"></path>
            <path d="M1,0 L13,0 C13.5522847,-1.01453063e-16 14,0.44771525 14,1 L14,2.625 L14,2.625 L0,2.625 L0,1 C-6.76353751e-17,0.44771525 0.44771525,1.01453063e-16 1,0 Z" id="矩形" fill="#BFBFBF" opacity="0.55"></path>
            <g id="编组-15" transform="translate(1.75, 4.375)"></g>
        </g>
    </g>
</svg>