<?xml version="1.0" encoding="UTF-8"?>
<svg width="16px" height="16px" viewBox="0 0 16 16" version="1.1" xmlns="http://www.w3.org/2000/svg" xmlns:xlink="http://www.w3.org/1999/xlink">
    <title>database-monitoring-app</title>
    <g id="database-monitoring-app" stroke="none" stroke-width="1" fill="none" fill-rule="evenodd">
        <g id="service-drm-second-menu">
            <rect id="矩形" fill="#000000" fill-rule="nonzero" opacity="0" x="0" y="0" width="16" height="16"></rect>
            <g id="编组" transform="translate(1.6, 1.6)" fill="#BFBFBF">
                <path d="M5.89895972,5.90208097 L2.99201919,5.90208097 C2.22663201,5.90208097 1.55615283,5.65256474 0.986704768,5.14281688 C0.525941683,4.73716167 0.20600984,4.19373677 0.074363244,3.59367322 C-0.164437558,2.53437735 0.198355968,1.43068903 1.01885103,0.720409725 C1.4566525,0.342308455 1.96180804,0.108099977 2.53431766,0.0330920327 C3.46196692,-0.0878391425 4.27327734,0.170861726 4.95600271,0.812256187 C5.45044283,1.2776116 5.74741306,1.85318276 5.85915959,2.52060038 C5.88518275,2.67214705 5.89742895,2.82522448 5.89895972,2.97830192 C5.90202127,3.93656668 5.9004905,4.89330066 5.9004905,5.85156541 L5.89895972,5.90208097 Z" id="路径" fill-rule="nonzero"></path>
                <path d="M5.89896664,6.76543771 L5.89896664,9.67850134 C5.9004905,10.4438885 5.64791273,11.1143677 5.13663409,11.6838158 C4.68505565,12.1859098 4.12479223,12.5089031 3.45584383,12.6175881 C2.43175577,12.7844425 1.55156051,12.4859415 0.824442685,11.7496391 C0.429502898,11.3546993 0.163148157,10.848013 0.0605862746,10.298465 C-0.116983552,9.36469259 0.0942633108,8.52429746 0.714226931,7.80024119 C1.17039769,7.26753171 1.7551535,6.94913064 2.44400197,6.81901481 C2.63228722,6.783807 2.82516479,6.76696849 3.01651158,6.76696849 L5.8346672,6.76696849 L5.89896664,6.76543771 L5.89896664,6.76543771 Z" id="路径" fill-rule="nonzero"></path>
                <g id="编组备份-4" transform="translate(7.2748, 7.1494)">
                    <path d="M3.9916197,4.24984864 L4.38712558,5.12019323 C4.4311247,5.21634675 4.41904474,5.31853126 4.35253,5.40752565 C4.2275898,5.57539675 3.9489348,5.65057692 3.7279671,5.65057692 L0.891764957,5.65057692 C0.633309207,5.65057692 0.39387053,5.56089842 0.28156839,5.42225201 C0.21094298,5.33482391 0.191805889,5.2320033 0.227739693,5.13209315 L0.232606479,5.12019323 L0.628106366,4.24984864 C1.06189244,4.63185834 1.65578438,4.86835656 2.30989604,4.86835656 C2.96391768,4.86835656 3.55759958,4.63206239 3.9916197,4.24984864 Z M2.32571169,0 C3.61015916,0 4.65142338,1.04104217 4.65142338,2.32521361 C4.65142338,3.60938505 3.61015916,4.65041521 2.32571169,4.65041521 C1.0412642,4.65041521 0,3.60938505 0,2.32520761 C0,1.04103016 1.0412642,0 2.32571169,0 Z M2.32571169,1.42173766 C1.59449357,1.42173766 1.00174182,2.0143694 1.00174182,2.74542548 C1.00174182,3.47648159 1.59449957,4.06911932 2.32571169,4.06911932 C3.0569298,4.06911932 3.64968156,3.47648758 3.64968156,2.74543148 C3.64968156,2.0143754 3.0569298,1.42173766 2.32571169,1.42173766 Z M2.32571169,2.05206748 C2.72420606,2.05206748 3.04723823,2.37503966 3.04723823,2.77344402 C3.04723823,3.17184836 2.72420606,3.49482053 2.32571169,3.49482053 C1.92721732,3.49482053 1.60418513,3.17184836 1.60418513,2.77344402 C1.60418513,2.37503966 1.92722332,2.05206748 2.32571169,2.05206748 Z" id="形状结合"></path>
                </g>
                <path d="M6.76384724,5.90208097 L6.76384724,2.97524037 C6.76384724,2.32466126 6.94754017,1.73225158 7.33176453,1.2056652 C7.73588897,0.654586427 8.26706767,0.276485158 8.92989297,0.108099977 C9.99071961,-0.159785538 10.9397997,0.0682998432 11.7465178,0.813786961 C12.1965655,1.22250372 12.4965973,1.77052094 12.6022207,2.36905372 C12.796629,3.44212655 12.4996588,4.36671427 11.7021254,5.11679372 C11.2689162,5.5239797 10.7453914,5.7627805 10.1591048,5.85615774 C9.99071961,5.88371167 9.82080366,5.89748864 9.64935693,5.89748864 C8.70793069,5.90055019 7.76803523,5.89901942 6.82660899,5.89901942 L6.76384724,5.90208097 L6.76384724,5.90208097 Z" id="路径" fill-rule="nonzero"></path>
            </g>
        </g>
    </g>
</svg>