<?xml version="1.0" encoding="UTF-8"?>
<svg width="16px" height="16px" viewBox="0 0 16 16" version="1.1" xmlns="http://www.w3.org/2000/svg" xmlns:xlink="http://www.w3.org/1999/xlink">
    <title>databases-app</title>
    <g id="databases-app" stroke="none" stroke-width="1" fill="none" fill-rule="evenodd">
        <g id="编组">
            <rect id="矩形" x="0" y="0" width="16" height="16"></rect>
            <g transform="translate(1.750000, 1.000000)" fill="#BFBFBF" id="形状结合">
                <path d="M12.5,9.6475 L12.5,11.3228 L12.4898,11.3952 C12.4155,11.9214 11.889,12.577 10.7139,13.1268 C9.5798,13.6574 8.01048,14 6.25,14 C4.48952,14 2.92019,13.6574 1.78606,13.1268 C0.61102,12.577 0.0845,11.9214 0.01022,11.3952 L0,11.3228 L0,9.6475 C0.24328,9.938 0.5592,10.1927 0.96516,10.3957 C2.35642,11.0913 4.22594,11.5 6.25,11.5 C8.2741,11.5 10.1436,11.0913 11.5348,10.3957 C11.9408,10.1927 12.2567,9.938 12.5,9.6475 Z M12.5,5.14749 L12.5,7.24999 C12.4997,7.77937 12.051,8.46053 10.864,9.0541 C9.7219,9.6251 8.09168,10 6.25,10 C4.40832,10 2.77807,9.6251 1.63598,9.0541 C0.44896,8.46053 0.00031,7.77937 0.00031,7.24999 L0,5.14749 C0.24328,5.438 0.5592,5.69271 0.96516,5.89569 C2.35642,6.59132 4.22594,6.99995 6.25,6.99999 C8.2741,6.99995 10.1436,6.59132 11.5348,5.89569 C11.9408,5.69271 12.2567,5.438 12.5,5.14749 Z M6.24969,0 C8.09137,0 9.7216,0.3749 10.8637,0.94595 C12.0507,1.53946 12.4994,2.22062 12.4994,2.75 C12.4994,3.27938 12.0507,3.96054 10.8637,4.55405 C9.7216,5.1251 8.09137,5.5 6.24969,5.5 C4.40801,5.5 2.77776,5.1251 1.63567,4.55405 C0.44865,3.96054 0,3.27938 0,2.75 C0,2.22062 0.44865,1.53946 1.63567,0.94595 C2.77776,0.3749 4.40801,0 6.24969,0 Z M8.66805895,1.70681476 L8.11308234,2.01078431 C8.03869543,2.05152721 7.99244572,2.12959156 7.99244572,2.21440545 C7.99244572,2.34262563 8.09638871,2.44656863 8.22460889,2.44656863 L8.51056338,2.44656863 C8.51056338,3.17058824 7.44068256,3.75872549 6.12567714,3.75872549 C5.73420468,3.75934447 5.34964155,3.7064768 5.01245937,3.60568627 C4.6752772,3.50489575 3.93371533,3.74870554 4.43011918,3.9254902 C4.92652302,4.10227485 5.51760433,4.19804705 6.12432286,4.2 C7.88217768,4.2 9.30687974,3.41696078 9.30687974,2.45 L9.5920088,2.45 C9.67705432,2.45 9.75535483,2.40369799 9.79633255,2.32917573 C9.85838284,2.21633084 9.81720567,2.07455028 9.70436078,2.0125 L9.14916539,1.70721341 C8.99940446,1.62486402 8.81795614,1.62471367 8.66805895,1.70681476 Z M6.12432286,0.7 C4.36646804,0.7 2.94176598,1.48303922 2.94176598,2.45 L2.65739791,2.45 C2.57237457,2.45 2.49408952,2.49627388 2.45309569,2.57076196 C2.3909991,2.68359496 2.43212908,2.82540341 2.54496208,2.8875 L3.0989528,3.19238365 C3.24899799,3.27495963 3.43086832,3.27499232 3.58094319,3.1924703 L4.13556338,2.8875 C4.21008564,2.84652227 4.25638765,2.76822177 4.25638765,2.68317625 C4.25638765,2.55439656 4.15199109,2.45 4.0232114,2.45 L3.73808234,2.45 C3.73808234,1.72941176 4.812026,1.13784314 6.12432286,1.14127451 C6.51579532,1.14065553 6.90035845,1.1935232 7.23754063,1.29431373 C7.5747228,1.39510425 8.31493039,1.15129446 7.81852654,0.974509804 C7.3221227,0.797725146 6.73104139,0.701952947 6.12432286,0.7 Z"></path>
            </g>
        </g>
    </g>
</svg>