<?xml version="1.0" encoding="UTF-8"?>
<svg width="16px" height="16px" viewBox="0 0 16 16" version="1.1" xmlns="http://www.w3.org/2000/svg" xmlns:xlink="http://www.w3.org/1999/xlink">
    <title>database-alteration-task-app</title>
    <g id="database-alteration-task-app" stroke="none" stroke-width="1" fill="none" fill-rule="evenodd">
        <rect id="矩形" fill="#000000" opacity="0" x="0" y="0" width="16" height="16"></rect>
        <g id="编组" transform="translate(8.500000, 8.500000)"></g>
        <g id="编组" transform="translate(1.500000, 1.000000)" fill="#BFBFBF">
            <g id="infrastructure">
                <path d="M5.88181622,0 C4.14854252,0 2.61425348,0.352832364 1.53939001,0.890268805 C0.422241238,1.44884319 0,2.08990826 0,2.58812751 C0,3.08634676 0.422241238,3.72741182 1.53939001,4.28598621 C2.61425348,4.82342265 4.14854252,5.17625501 5.88181622,5.17625501 C7.61508991,5.17625501 9.14936013,4.82342265 10.224233,4.28598621 C11.341363,3.72741182 11.7636513,3.08634676 11.7636513,2.58812751 C11.7636513,2.08990826 11.341363,1.44884319 10.224233,0.890268805 C9.14936013,0.352832364 7.61508991,0 5.88181622,0 Z" id="路径"></path>
                <path d="M0,9.07962186 C0.228959876,9.35302224 0.526283964,9.5927299 0.908348052,9.78378077 C2.01521825,10.337192 3.44374164,10.697649 5.00987122,10.7959038 C5.06656493,11.6757662 5.37683144,12.487253 5.86823896,13.1576416 L5.88210797,13.1759218 C4.22525462,13.1759218 2.74829966,12.8534882 1.68092764,12.3541208 C0.575053698,11.8366835 0.0795260997,11.2196739 0.00961842295,10.7244475 L0,10.6563091 L0,9.07962186 Z M0,4.84449471 C0.228959876,5.1179045 0.526283964,5.35762158 0.908348052,5.54865362 C2.2177147,6.20333694 3.97718966,6.58791387 5.88210797,6.58795151 C6.41528279,6.58794098 6.93705953,6.55780662 7.4407586,6.50005746 C6.30947933,7.08144779 5.45820615,8.12908947 5.13825537,9.38874439 C3.71184069,9.30472889 2.4580641,8.98030599 1.53968176,8.521151 C0.422532991,7.96252015 0.000291752555,7.32145508 0.000291752555,6.82323583 L0,4.84449471 Z M11.7642159,4.84449471 L11.7649571,6.61071056 C11.1637095,6.25981301 10.4737461,6.0443444 9.73689055,6.00612822 C10.1369487,5.87394493 10.5119181,5.72061711 10.8558302,5.54865362 C11.237932,5.35762158 11.5352372,5.1179045 11.7642159,4.84449471 Z" id="形状结合"></path>
            </g>
            <path d="M9.60741681,6.97286264 C11.5479072,6.97286264 13.1209855,8.54594092 13.1209855,10.4864313 C13.1209855,12.4269217 11.5479072,14 9.60741681,14 C7.66692641,14 6.09384813,12.4269217 6.09384813,10.4864313 C6.09384813,8.54594092 7.66692641,6.97286264 9.60741681,6.97286264 Z M11.9608351,9.66046304 L11.3904098,9.11311239 L9.09279031,11.507571 L7.73919076,10.1600894 L7.18160612,10.7205151 L8.82091255,12.3515109 C8.97765418,12.5074579 9.23183277,12.5045116 9.3849175,12.3449733 L11.9608351,9.66046304 Z" id="形状"></path>
        </g>
    </g>
</svg>