<?xml version="1.0" encoding="UTF-8"?>
<svg width="16px" height="16px" viewBox="0 0 16 16" version="1.1" xmlns="http://www.w3.org/2000/svg" xmlns:xlink="http://www.w3.org/1999/xlink">
    <title>deliver-observables-app</title>
    <g id="deliver-observables-app" stroke="none" stroke-width="1" fill="none" fill-rule="evenodd">
        <g id="编组" fill="#BFBFBF" transform="translate(0.9992, 1)">
            <path d="M9.02007012,11 L9.39235769,12.0706851 L9.97867397,13.7569088 C10.0409438,13.9359944 9.96716583,14.1401505 9.81388626,14.212904 C9.77807617,14.2299011 9.7397891,14.2386407 9.70113677,14.2386407 L4.30034645,14.2386407 C4.13490113,14.2386407 4.00078119,14.0819404 4.00078119,13.8886407 C4.00078119,13.8434809 4.0082614,13.7987478 4.02280925,13.7569088 L4.96705378,11.0412969 L4.96705378,11.0412969" id="路径备份-8"></path>
            <path d="M14,9.515 L14.0007812,10.0492308 C14.0007812,10.4468758 13.6784262,10.7692308 13.2807812,10.7692308 L0.72078119,10.7692308 C0.32313617,10.7692308 0.000781189757,10.4468758 0.000781189757,10.0492308 L0,9.515 L14,9.515 Z M13.2807812,0 C13.6784262,-1.13258538e-15 14.0007812,0.32235498 14.0007812,0.72 L14,8.515 L0,8.515 L0.000781189757,0.72 C0.000781189757,0.32235498 0.32313617,6.28157717e-16 0.72078119,5.55111512e-16 L13.2807812,0 Z M5.89038089,1.86751688 L5.24178119,4.226 L5.20598814,4.17478424 C5.11280645,4.06378782 4.97367415,3.99620264 4.82295338,3.99620264 L3.00078119,3.99620264 C2.72463881,3.99620264 2.50078119,4.22006027 2.50078119,4.49620264 L2.50883686,4.58607827 C2.55117282,4.81932748 2.7553213,4.99620264 3.00078119,4.99620264 L4.47078119,4.996 L4.84153201,6.02783903 L4.88080456,6.11330763 C5.09194756,6.48210447 5.67349565,6.4308653 5.79425817,5.99138972 L6.36278119,3.919 L7.21268173,7.12794586 L7.24603692,7.22007313 C7.43392044,7.61952796 8.05107334,7.59224925 8.17796123,7.13321631 L8.91578119,4.463 L9.04504778,4.72256054 C9.12953499,4.8925273 9.30297574,4.9999997 9.49278298,4.9999997 L11.0007812,4.9999997 C11.2769236,4.9999997 11.5007812,4.77614237 11.5007812,4.4999997 L11.4927255,4.41012437 C11.4503896,4.17687516 11.2462411,3.9999997 11.0007812,3.9999997 L9.80178119,3.9999997 L9.22996566,2.84798852 L9.18407067,2.77206478 C8.94749468,2.44668478 8.41436578,2.52469875 8.30030368,2.93733276 L7.70578119,5.085 L6.85586246,1.87205414 C6.7251869,1.37838916 6.02569052,1.37510189 5.89038089,1.86751688 Z" id="形状结合"></path>
        </g>
    </g>
</svg>