<?xml version="1.0" encoding="UTF-8"?>
<svg width="16px" height="16px" viewBox="0 0 16 16" version="1.1" xmlns="http://www.w3.org/2000/svg" xmlns:xlink="http://www.w3.org/1999/xlink">
    <title>deployment-notification-app</title>
    <g id="deployment-notification-app" stroke="none" stroke-width="1" fill="none" fill-rule="evenodd">
        <rect id="矩形" fill="#000000" opacity="0" x="0" y="0" width="16" height="16"></rect>
        <g id="编组-17" transform="translate(2.000000, 1.000000)" fill="#BFBFBF">
            <path d="M6.125,0 C6.8721441,0 7.51020648,0.528148744 7.63480652,1.24972484 C9.48142926,1.87981186 10.7187798,3.58544785 10.71875,5.50081192 L10.71875,9.03046095 C11.5900372,9.18744751 12.25,9.93538199 12.25,10.8337998 C12.25,10.9257829 12.1734375,11.0002776 12.0800372,11.0002776 L0.169962769,11.0002776 C0.124883249,11.0002776 0.0816502878,10.982736 0.0497756558,10.9515122 C0.0179010238,10.9202884 0,10.8779403 0,10.8337851 C0,9.94973129 0.643783224,9.19146055 1.53125,9.03046095 L1.53125,5.50081192 C1.53122018,3.58544785 2.76857074,1.87981186 4.61519348,1.24972484 C4.73979352,0.528148744 5.3778559,0 6.125,0 Z M8.36797726,3.22003664 C8.22873803,3.22003664 8.09520189,3.27751451 7.9967462,3.37979922 C7.89829052,3.48208393 7.84298431,3.62081123 7.84298431,3.76546171 L7.84298431,6.04046325 L7.84758061,6.1086304 C7.88389719,6.39267959 8.125608,6.59909533 8.40089069,6.5811451 C8.67617339,6.56319487 8.89114208,6.32700065 8.89298431,6.04046325 L8.89298431,3.76544706 L8.88903657,3.69726527 C8.85595964,3.42449223 8.63262131,3.21994078 8.36797726,3.22003664 Z" id="形状结合"></path>
            <path d="M3.57291168,11.6901953 C3.60111205,11.5784931 3.70351668,11.5000751 3.82099213,11.5002235 L8.42902283,11.5002235 C8.5464927,11.5000818 8.64888929,11.5784984 8.67708832,11.6901953 C8.57333271,12.9950674 7.46122089,14.0015996 6.125,14 C4.78877911,14.0015996 3.67666729,12.9950674 3.57291168,11.6901953 Z" id="路径"></path>
        </g>
    </g>
</svg>