<?xml version="1.0" encoding="UTF-8"?>
<svg width="16px" height="16px" viewBox="0 0 16 16" version="1.1" xmlns="http://www.w3.org/2000/svg" xmlns:xlink="http://www.w3.org/1999/xlink">
    <title>deployment-tasks-app</title>
    <g id="deployment-tasks-app" stroke="none" stroke-width="1" fill="none" fill-rule="evenodd">
        <rect id="矩形" fill="#000000" opacity="0" x="0" y="0" width="16" height="16"></rect>
        <g id="编组" transform="translate(1.000000, 1.500000)">
            <path d="M11.8355263,7.69433198 C11.8355263,7.52117057 11.8261377,7.35016824 11.8078344,7.18179158 C11.6717126,5.92957619 11.0425273,4.82258326 10.1151941,4.05272984 M5.11653643,3.30518459 C3.79952233,3.82649773 2.85013459,4.87189436 2.40462756,6.20840343 M3.82748243,11.2875908 C4.10143351,11.522279 4.40248027,11.7270948 4.72538942,11.8968855 C5.40336368,12.2533751 6.17771271,12.4554656 7,12.4554656 C7.44277041,12.4554656 7.87164153,12.3968712 8.27905136,12.2871282" id="形状" stroke="#BFBFBF" stroke-width="1.2" stroke-linecap="round" stroke-linejoin="round"></path>
            <path d="M7,0 C8.41605333,0 9.56743421,1.13366733 9.56743421,2.53643725 C9.56743421,3.93920717 8.41605333,5.07287449 7,5.07287449 C5.58394667,5.07287449 4.43256579,3.93920717 4.43256579,2.53643725 C4.43256579,1.13366733 5.58394667,0 7,0 Z M2.56743421,7.1417004 C3.98348754,7.1417004 5.13486842,8.27536773 5.13486842,9.67813765 C5.13486842,11.0809076 3.98348754,12.2145749 2.56743421,12.2145749 C1.15138088,12.2145749 0,11.0809076 0,9.67813765 C0,8.27536773 1.15138088,7.1417004 2.56743421,7.1417004 Z M11.4325658,7.1417004 C12.8486191,7.1417004 14,8.27536773 14,9.67813765 C14,11.0809076 12.8486191,12.2145749 11.4325658,12.2145749 C10.0165125,12.2145749 8.86513158,11.0809076 8.86513158,9.67813765 C8.86513158,8.27536773 10.0165125,7.1417004 11.4325658,7.1417004 Z" id="形状结合" fill="#BFBFBF"></path>
        </g>
    </g>
</svg>