<?xml version="1.0" encoding="UTF-8"?>
<svg width="16px" height="16px" viewBox="0 0 16 16" version="1.1" xmlns="http://www.w3.org/2000/svg" xmlns:xlink="http://www.w3.org/1999/xlink">
    <title>digital-architecture-management-app</title>
    <g id="digital-architecture-management-app" stroke="none" stroke-width="1" fill="none" fill-rule="evenodd">
        <g transform="translate(1.000000, 2.000000)" fill="#BFBFBF" fill-rule="nonzero" id="工作负载">
            <g id="架构拓扑">
                <path d="M7.05447917,0 C8.27204718,0 9.25908107,0.987033892 9.25908107,2.2046019 C9.25908107,2.6724338 9.11335903,3.10623048 8.8648289,3.463078 C8.87992768,3.48016451 8.89332921,3.49975601 8.90568966,3.52035675 L11.5470757,7.92266675 L11.5676929,7.962186 C11.677614,7.94531705 11.7902103,7.93656685 11.9048503,7.93656685 C13.1224183,7.93656685 14.1094522,8.92360074 14.1094522,10.1411687 C14.1094522,11.3587368 13.1224183,12.3457707 11.9048503,12.3457707 C10.9961492,12.3457707 10.2158558,11.7959923 9.87844939,11.0109149 C9.84558507,11.0165558 9.81099879,11.0196039 9.77570059,11.0196039 L4.3055026,11.0196039 L4.22972799,11.0138751 C3.891634,11.7973739 3.11216042,12.3457707 2.2046019,12.3457707 C0.987033892,12.3457707 0,11.3587368 0,10.1411687 C0,8.92360074 0.987033892,7.93656685 2.2046019,7.93656685 C2.31819016,7.93656685 2.42977204,7.94515723 2.53873329,7.96172377 L5.21468939,3.50132224 L5.24344379,3.46209295 C4.99533132,3.1054323 4.84987727,2.67200341 4.84987727,2.2046019 C4.84987727,0.987033892 5.83691116,0 7.05447917,0 Z M6.17695124,4.22764051 L3.63646132,8.46479433 C4.03231833,8.80323335 4.30686657,9.27943731 4.38585475,9.81915492 L9.72359742,9.81915492 C9.8025856,9.27943731 10.0771338,8.80323335 10.4729909,8.46479433 L7.93101469,4.22807129 C7.66236857,4.34460414 7.3659679,4.4092038 7.05447917,4.4092038 C6.74260684,4.4092038 6.44585975,4.34444493 6.17695124,4.22764051 Z" id="形状结合"></path>
            </g>
        </g>
    </g>
</svg>