<?xml version="1.0" encoding="UTF-8"?>
<svg width="16px" height="16px" viewBox="0 0 16 16" version="1.1" xmlns="http://www.w3.org/2000/svg" xmlns:xlink="http://www.w3.org/1999/xlink">
    <title>easy-agile-ideas-app</title>
    <g id="easy-agile-ideas-app" stroke="none" stroke-width="1" fill="none" fill-rule="evenodd">
        <g id="编组">
            <rect id="矩形" x="0" y="0" width="16" height="16"></rect>
            <path d="M12.7904762,1.6 C13.3427609,1.6 13.7904762,2.04771525 13.7904762,2.6 L13.7904762,13.4 C13.7904762,13.9522847 13.3427609,14.4 12.7904762,14.4 L2.6,14.4 C2.04771525,14.4 1.6,13.9522847 1.6,13.4 L1.6,2.6 C1.6,2.04771525 2.04771525,1.6 2.6,1.6 L12.7904762,1.6 Z M10.7428571,11.352381 L4.64761905,11.352381 C4.31098834,11.352381 4.03809524,11.6252741 4.03809524,11.9619048 C4.03809524,12.2985355 4.31098834,12.5714286 4.64761905,12.5714286 L10.7428571,12.5714286 C11.0794878,12.5714286 11.352381,12.2985355 11.352381,11.9619048 C11.352381,11.6252741 11.0794878,11.352381 10.7428571,11.352381 Z M10.7428571,8.91428571 L4.64761905,8.91428571 C4.31098834,8.91428571 4.03809524,9.18717882 4.03809524,9.52380952 C4.03809524,9.86044023 4.31098834,10.1333333 4.64761905,10.1333333 L10.7428571,10.1333333 C11.0794878,10.1333333 11.352381,9.86044023 11.352381,9.52380952 C11.352381,9.18717882 11.0794878,8.91428571 10.7428571,8.91428571 Z M8.89027188,4.17077197 L8.82026575,4.26329416 C8.54624955,4.62648448 7.17334645,6.44578415 7.06264754,6.5995124 C6.98591491,6.70644851 6.9511799,6.79031224 6.92267574,6.88311765 C6.88482529,7.00652104 6.78527316,7.58875236 6.78112599,7.77371582 C6.77879953,7.88207816 6.79980845,7.95518961 6.84697484,8.00351923 C6.8842993,8.0416529 6.93433836,8.06095238 6.99604005,8.06095238 C7.02817551,8.06095238 7.06368939,8.05577348 7.1044024,8.04513247 C7.27730875,8.00001943 7.80223842,7.74494867 7.96581871,7.63516013 C8.04409893,7.58279461 8.12861002,7.50335115 8.19161655,7.42271412 C8.26317028,7.33120343 9.53314282,5.63854396 9.92097336,5.1218985 L9.98758083,5.03284576 L8.89027188,4.17077197 Z M9.7218893,3.42857143 C9.57463467,3.42857143 9.44813609,3.48210017 9.35610953,3.58307853 C9.30194355,3.64256503 9.21380116,3.75158484 9.14923691,3.83129129 L9.07147255,3.92694915 L10.1703493,4.78955903 L10.2406084,4.70103227 C10.2680909,4.66680301 10.341435,4.57321874 10.4342505,4.44723602 C10.5488437,4.29273903 10.5498653,4.09248164 10.43684,3.89765601 C10.3321089,3.7175073 10.1110146,3.52409779 9.94351976,3.46656349 C9.89322782,3.44918586 9.81416873,3.42857143 9.7218893,3.42857143 Z" id="形状结合" fill="#BFBFBF" fill-rule="nonzero"></path>
            <g id="编组-18" transform="translate(7.458462, 3.667692)"></g>
        </g>
    </g>
</svg>