<?xml version="1.0" encoding="UTF-8"?>
<svg width="16px" height="16px" viewBox="0 0 16 16" version="1.1" xmlns="http://www.w3.org/2000/svg" xmlns:xlink="http://www.w3.org/1999/xlink">
    <title>easyhub-production-workshop-app</title>
    <g id="easyhub-production-workshop-app" stroke="none" stroke-width="1" fill="none" fill-rule="evenodd">
        <g id="文件系统备份" transform="translate(1.000000, 1.000000)">
            <rect id="矩形" fill="#FFFFFF" opacity="0" x="0" y="0" width="12.6956318" height="12.6956318"></rect>
            <g id="图形" transform="translate(0.000000, 0.793477)">
                <path d="M4.69034002,0.13401885 C4.54418979,0.0463249496 4.376946,0 4.2065048,0 L0.940417167,0 C0.421043574,0 0,0.421043574 0,0.940417167 L0,2.8212515 C0,3.0809383 0.210521787,3.29146008 0.470208583,3.29146008 L12.2254232,3.29146008 C12.4850723,3.29146008 12.6956318,3.0809383 12.6956318,2.8212515 L12.6956318,2.35104292 C12.6956318,1.83166932 12.274607,1.41062575 11.7552146,1.41062575 L7.07850121,1.41062575 C6.90806,1.41062575 6.74081621,1.3643008 6.59466598,1.2766069 L4.69034002,0.13401885 Z M12.4287002,6.68993897 L12.1104102,7.00956253 C11.7712269,7.35007942 11.7712269,7.90441959 12.1104102,8.24493649 C12.4495935,8.58545339 13.001711,8.58545339 13.3408942,8.24493649 L13.6591842,7.92531293 C13.8352216,7.74883093 14.0419323,7.86707831 13.9925885,8.18492372 C13.9265161,8.61790136 13.6849203,9.00450901 13.3247115,9.25367727 C12.9645027,9.50284552 12.5175263,9.59254582 12.0890723,9.50164832 L9.41917092,12.1822187 C9.25626447,12.3457214 9.03495771,12.4376266 8.80415118,12.4376266 C8.57334464,12.4376266 8.35203788,12.3457214 8.18913143,12.1822187 C7.84998265,11.8404309 7.84998265,11.289077 8.18913143,10.9472892 L10.8585883,8.2667189 C10.746706,7.73747751 10.9089802,7.18748347 11.2902357,6.80374096 C11.5283656,6.56429107 11.8367405,6.40714443 12.170423,6.35520108 C12.4869348,6.30585725 12.6042931,6.51345697 12.4287002,6.68993897 Z M8.59899642,11.3584878 C8.48563896,11.4722898 8.48563896,11.656329 8.59899642,11.770131 C8.71235387,11.883933 8.89594849,11.883933 9.00930594,11.770131 C9.1173955,11.6559076 9.11506573,11.4764398 9.0040475,11.3650607 C8.89302926,11.2536816 8.71357,11.2507695 8.59899642,11.3584878 Z M11.6956318,3.96738492 C12.1840302,3.96738492 12.5906524,4.31751092 12.6781902,4.78045494 L6.347,11.1083849 L1,11.1086778 C0.44771525,11.1086778 2.8967998e-16,10.6609625 0,10.1086778 L0,4.96738492 C-6.76353751e-17,4.41510017 0.44771525,3.96738492 1,3.96738492 L11.6956318,3.96738492 Z M6.15433889,5.66929623 L1.78043095,5.66929623 L1.78043095,6.86929623 L6.15433889,6.86929623 L6.15433889,5.66929623 Z" id="形状结合" fill="#BFBFBF"></path>
                <g id="编组-2" transform="translate(1.780431, 5.669296)"></g>
            </g>
        </g>
    </g>
</svg>