<?xml version="1.0" encoding="UTF-8"?>
<svg width="16px" height="16px" viewBox="0 0 16 16" version="1.1" xmlns="http://www.w3.org/2000/svg" xmlns:xlink="http://www.w3.org/1999/xlink">
    <title>easyhub-app</title>
    <g id="easyhub-app" stroke="none" stroke-width="1" fill="none" fill-rule="evenodd">
        <rect id="矩形" fill-opacity="0" fill="#F0F0F0" x="0" y="0" width="16" height="16"></rect>
        <g id="micro-app-store-third-menu">
            <rect id="矩形" x="0" y="0" width="16" height="16"></rect>
        </g>
        <path d="M4.42095905,1.0000772 C4.64901337,1.63891499 5.04534531,2.19902643 5.55721073,2.62818017 L5.75430227,2.78274714 C6.38927675,3.24804137 7.17494473,3.52317253 8.02550393,3.52317253 C8.87282627,3.52317253 9.65575036,3.25013144 10.2894498,2.78805099 C10.8323386,2.39222937 11.2658127,1.85747923 11.5363424,1.23676948 L11.6300488,1.0000772 L12.1913086,1 C13.4979624,1 14.5572145,2.04895386 14.5572145,3.34290402 L14.5572145,7.86792453 L14.8239588,11.5660377 L14.8239588,12.657096 C14.8239588,12.9715978 14.7613824,13.2716261 14.6478868,13.5456373 L14.638,13.565 L1.407,13.565 L1.36628289,13.4700202 C1.27169963,13.2168691 1.22,12.9429614 1.22,12.657096 L1.22,11.5660377 L1.48674429,7.86792453 L1.48674429,3.34290402 C1.48674429,2.04895386 2.54599644,1 3.85265017,1 L4.42095905,1.0000772 Z M9.3941454,9.47591142 C9.07188655,9.47591142 8.81057275,9.73792013 8.81057275,10.0611542 L8.81057275,10.4879843 C8.81057275,10.9115306 8.46697785,11.2561088 8.04458741,11.2561088 C7.622197,11.2561088 7.27860208,10.9115306 7.27860208,10.4879843 L7.27860208,10.0611542 C7.27860208,9.73792013 7.01728828,9.47591142 6.69502943,9.47591142 C6.37271776,9.47591142 6.11145677,9.73792013 6.11145677,10.0611542 L6.11145677,10.4879843 C6.11145677,11.5569925 6.97862991,12.4266474 8.04458741,12.4266474 C9.11054495,12.4266474 9.97771806,11.5569925 9.97771806,10.4879843 L9.97771806,10.0611542 C9.97771806,9.73792013 9.71645708,9.47591142 9.3941454,9.47591142 Z M9.3868732,5.39294503 C9.06535372,5.39294503 8.80467366,5.65437115 8.80467366,5.97686378 C8.80467366,6.13215173 8.86556589,6.27298075 8.96416591,6.37758297 C9.07797577,6.55516842 9.14710668,6.77115215 9.14710668,7.02119119 C9.14710668,7.27043577 9.07829265,7.43885859 8.96516935,7.615067 C8.89408437,7.66506421 8.83224152,7.72718999 8.78265103,7.79863728 C8.6030374,7.91081323 8.29149938,7.97897681 8.04460326,7.97897681 C7.79543623,7.97897681 7.48315883,7.90970101 7.30439019,7.79577727 C7.25511659,7.72554813 7.19411872,7.66437569 7.12403718,7.615067 C7.01086106,7.43885859 6.94209985,7.27043577 6.94209985,7.02119119 C6.94209985,6.77115215 7.01123076,6.55516842 7.1249878,6.37758297 C7.22358782,6.27298075 7.28448005,6.13215173 7.28448005,5.97686378 C7.28448005,5.65437115 7.02385281,5.39294503 6.70228052,5.39294503 C6.38070822,5.39294503 6.12008097,5.65437115 6.12008097,5.97686378 C6.12008097,6.13305211 6.18160696,6.27456964 6.2812104,6.37933076 C6.3933831,6.55596287 6.46082403,6.77353549 6.46082403,7.02119119 C6.46082403,7.26720502 6.39391122,7.43732266 6.28263632,7.61188921 C6.21044231,7.66188642 6.14780727,7.72448887 6.09742462,7.79651875 C5.92171908,7.91001879 5.7537769,7.97897681 5.5052436,7.97897681 C5.25591812,7.97897681 5.04055076,7.90964804 4.86347211,7.79556542 C4.7591684,7.69663025 4.61874128,7.63556374 4.46384367,7.63556374 C4.14232418,7.63556374 3.88164412,7.89698985 3.88164412,8.21942951 C3.88164412,8.54192213 4.14232418,8.80334826 4.46384367,8.80334826 C4.61963908,8.80334826 4.76075276,8.74164618 4.86521491,8.64170472 C5.04134295,8.52921097 5.25824185,8.46157704 5.5052436,8.46157704 C5.75055537,8.46157704 5.92018753,8.52868136 6.09420309,8.64027473 C6.22728934,8.83343132 6.44936382,8.9602251 6.70117147,8.9602251 C6.951606,8.9602251 7.17251862,8.83475541 7.30581612,8.64345249 C7.483951,8.52984654 7.79633403,8.46157704 8.04460326,8.46157704 C8.29112971,8.46157704 8.60361835,8.52926395 8.78222854,8.6418636 C8.91542044,8.83411984 9.13691397,8.9602251 9.38798225,8.9602251 C9.6397899,8.9602251 9.86186438,8.83343132 9.99495064,8.64027473 C10.1689662,8.52868136 10.3386512,8.46157704 10.5839629,8.46157704 C10.8309119,8.46157704 11.0478636,8.52921097 11.2239388,8.64170472 C11.328401,8.74164618 11.4695675,8.80334826 11.62531,8.80334826 C11.9468295,8.80334826 12.2075096,8.54192213 12.2075096,8.21942951 C12.2075096,7.89698985 11.9468295,7.63556374 11.62531,7.63556374 C11.4704124,7.63556374 11.3300381,7.69663025 11.2257344,7.79556542 C11.0486558,7.90964804 10.8332356,7.97897681 10.5839629,7.97897681 C10.3353768,7.97897681 10.1674875,7.91001879 9.99172911,7.79651875 C9.94134643,7.72448887 9.87871141,7.66188642 9.80657021,7.61188921 C9.69524251,7.43732266 9.62832969,7.26720502 9.62832969,7.02119119 C9.62832969,6.77353549 9.69577061,6.55596287 9.80794332,6.37933076 C9.90754677,6.27456964 9.96907275,6.13305211 9.96907275,5.97686378 C9.96907275,5.65437115 9.7084455,5.39294503 9.3868732,5.39294503 Z M11.0839911,1.00018546 C10.9019287,1.43239631 10.6291655,1.81777582 10.2892486,2.13300583 C9.6971161,2.68218855 8.90097209,3.01851368 8.02550393,3.01851368 C7.14645009,3.01851368 6.3473715,2.67942792 5.75437177,2.12613398 C5.4740975,1.86467119 5.2397078,1.55509605 5.06475169,1.2108139 L4.96701678,1.00018546 L11.0839911,1.00018546 Z M12.4580529,15 L3.58590588,15 C2.60437107,15 1.76243866,14.4081021 1.40423003,13.5650822 L14.6397288,13.5650822 C14.2815202,14.4081021 13.4395877,15 12.4580529,15 Z" id="形状结合" fill="#BFBFBF"></path>
        <g id="logo" transform="translate(3.8816, 5.3929)"></g>
    </g>
</svg>