<?xml version="1.0" encoding="UTF-8"?>
<svg width="16px" height="16px" viewBox="0 0 16 16" version="1.1" xmlns="http://www.w3.org/2000/svg" xmlns:xlink="http://www.w3.org/1999/xlink">
    <title>easycmp-app</title>
    <g id="easycmp-app" stroke="none" stroke-width="1" fill="none" fill-rule="evenodd">
        <g id="编组-2" transform="translate(1.3, 1)">
            <g id="编组">
                <rect id="矩形备份-11" opacity="0.446149554" x="0" y="0" width="11.8977636" height="13.5974441"></rect>
                <path d="M8.0476045,9.77266052 C7.97822016,9.87695547 7.9157993,9.9842123 7.86102236,10.0930236 C6.76324121,10.2332018 5.94888179,11.112541 5.94888179,12.2031151 C5.94888179,12.7366433 6.15105804,13.2256262 6.48306144,13.5982299 L0.849840256,13.5974441 C0.380486443,13.5974441 0,13.2169576 0,12.7476038 L0,10.6230032 C0,10.1536494 0.380486443,9.77316294 0.849840256,9.77316294 Z M2.33838582,11.0479233 C1.98445207,11.0479233 1.69968051,11.3326949 1.69968051,11.6839784 C1.69968051,12.0352619 1.98445207,12.3200335 2.33573559,12.3200335 C2.68966934,12.3200335 2.97444089,12.0352619 2.97444089,11.6839784 C2.97444089,11.3326949 2.68966934,11.0479233 2.33838582,11.0479233 Z" id="形状结合" fill="#BFBFBF"></path>
                <path d="M11.0479233,4.88658147 C11.5172771,4.88658147 11.8977636,5.26706791 11.8977636,5.73642173 L11.8977636,7.86102236 C11.8977636,8.33037618 11.5172771,8.71086262 11.0479233,8.71086262 L0.849840256,8.71086262 C0.380486443,8.71086262 0,8.33037618 0,7.86102236 L0,5.73642173 C0,5.26706791 0.380486443,4.88658147 0.849840256,4.88658147 L11.0479233,4.88658147 Z M2.33838582,6.16134185 C1.98445207,6.16134185 1.69968051,6.44611341 1.69968051,6.79739693 C1.69968051,7.14868045 1.98445207,7.43345201 2.33573559,7.43345201 C2.68966934,7.43345201 2.97444089,7.14868045 2.97444089,6.79739693 C2.97444089,6.44611341 2.68966934,6.16134185 2.33838582,6.16134185 Z" id="形状结合备份" fill="#BFBFBF"></path>
                <path d="M11.0479233,0 C11.5172771,0 11.8977636,0.380486443 11.8977636,0.849840256 L11.8977636,2.97444089 C11.8977636,3.44379471 11.5172771,3.82428115 11.0479233,3.82428115 L0.849840256,3.82428115 C0.380486443,3.82428115 0,3.44379471 0,2.97444089 L0,0.849840256 C0,0.380486443 0.380486443,0 0.849840256,0 L11.0479233,0 Z M2.33838582,1.27476038 C1.98445207,1.27476038 1.69968051,1.55953194 1.69968051,1.91081546 C1.69968051,2.26209898 1.98445207,2.54687054 2.33573559,2.54687054 C2.68966934,2.54687054 2.97444089,2.26209898 2.97444089,1.91081546 C2.97444089,1.55953194 2.68966934,1.27476038 2.33838582,1.27476038 Z" id="形状结合备份-2" fill="#BFBFBF"></path>
            </g>
            <path d="M9.17827476,14 C9.12161874,14 9.03663472,14 8.92332268,14 C8.81001065,14 8.69669862,14 8.58338658,14 L8.49840256,14 C7.56374824,14 6.79872204,13.2402854 6.79872204,12.3120128 C6.79872204,11.4395536 7.45020958,10.7360822 8.3284345,10.6239396 C8.66837061,9.94867594 9.37628754,9.34824281 10.1980831,9.34824281 C11.5282678,9.34824281 12.0959463,10.2298065 12.294299,11.1862867 C13.0025559,11.24253 13.5974441,11.8615504 13.5974441,12.5927993 C13.5974441,13.3808076 12.9741712,14 12.1807604,14 L9.51821086,14 L9.17827476,14 Z" id="路径" fill="#BFBFBF"></path>
        </g>
    </g>
</svg>