<?xml version="1.0" encoding="UTF-8"?>
<svg width="16px" height="16px" viewBox="0 0 16 16" version="1.1" xmlns="http://www.w3.org/2000/svg" xmlns:xlink="http://www.w3.org/1999/xlink">
    <title>easyhub-online-approval-app</title>
    <defs>
        <path d="M2.38646353,0 C1.07396677,0 0,1.09392593 0,2.43051852 L0,2.43051852 L0,11.5694815 C0,12.9063704 1.07396677,14 2.38646353,14 L2.38646353,14 L10.4129979,14 C11.7252038,14 12.7991706,12.9063704 12.7991706,11.5694815 L12.7991706,11.5694815 L12.7991706,2.43051852 C12.7991706,1.09392593 11.7252038,0 10.4129979,0 L10.4129979,0 L2.38646353,0 Z" id="path-1"></path>
        <polygon id="path-3" points="7.50011032 7.34874074 15.6449498 7.34874074 15.6449498 15.645037 7.50011032 15.645037"></polygon>
        <path d="M10.5546615,10.0980741 C10.5546615,10.533037 10.818208,10.904 11.1908384,11.0577778 L11.1908384,11.0577778 L11.1908384,11.4888889 L10.2099565,11.4888889 C9.94466463,11.4888889 9.72766051,11.7102222 9.72766051,11.9801481 L9.72766051,11.9801481 L9.72766051,12.682963 C9.72766051,12.9531852 9.94466463,13.1742222 10.2099565,13.1742222 L10.2099565,13.1742222 L12.9353072,13.1742222 C13.2005991,13.1742222 13.4176032,12.9531852 13.4176032,12.682963 L13.4176032,12.682963 L13.4176032,11.9801481 C13.4176032,11.7102222 13.2005991,11.4888889 12.9353072,11.4888889 L12.9353072,11.4888889 L11.9544253,11.4888889 L11.9544253,11.0577778 C12.3270557,10.904 12.5903114,10.533037 12.5903114,10.0980741 L12.5903114,10.0980741 C12.5903114,9.52562963 12.1347772,9.06133333 11.5727773,9.06133333 L11.5727773,9.06133333 C11.0101956,9.06133333 10.5546615,9.52562963 10.5546615,10.0980741" id="path-5"></path>
    </defs>
    <g id="easyhub-online-approval-app" stroke="none" stroke-width="1" fill="none" fill-rule="evenodd">
        <rect id="矩形" fill="#000000" opacity="0" x="0" y="0" width="16" height="16"></rect>
        <g id="编组-3" transform="translate(1.15, 1)">
            <g id="编组-2">
                <mask id="mask-2" fill="white">
                    <use xlink:href="#path-1"></use>
                </mask>
                <g id="Clip-2"></g>
                <path d="M8.76556588,4.50373333 C9.12354867,4.50373333 9.41375106,4.79393573 9.41375106,5.15191852 C9.41375106,5.50990131 9.12354867,5.8001037 8.76556588,5.8001037 L4.58867277,5.8001037 C3.52242365,5.8001037 2.65805795,6.6644694 2.65805795,7.73071852 C2.65805795,8.79696764 3.52242365,9.66133333 4.58867277,9.66133333 L7.91989316,9.66063574 C7.65114806,10.2141737 7.50011032,10.8375676 7.50011032,11.4968889 C7.50011032,12.4377074 7.8076513,13.3053711 8.32589062,14.0012992 L2.38646353,14 L2.23016233,13.994805 C0.989767771,13.9121204 0,12.8528948 0,11.5694815 L0,2.43051852 L0.00510157252,2.27134669 C0.0862989892,1.00816213 1.12646664,0 2.38646353,0 L10.4129979,0 L10.5692656,0.00519636385 C11.8094028,0.0879023407 12.7991706,1.14738963 12.7991706,2.43051852 L12.7999417,7.54044851 C12.4126279,7.41590656 12.0003015,7.34874074 11.5725737,7.34874074 C10.5007085,7.34874074 9.52545446,7.77063721 8.79821275,8.46031148 L4.58867277,8.46133333 C4.18516535,8.46133333 3.85805795,8.13422594 3.85805795,7.73071852 C3.85805795,7.3272111 4.18516535,7.0001037 4.58867277,7.0001037 L8.76556588,7.0001037 C9.78629037,7.0001037 10.6137511,6.17264301 10.6137511,5.15191852 C10.6137511,4.13119403 9.78629037,3.30373333 8.76556588,3.30373333 L3.5674343,3.30337285 C3.38571466,3.11625987 3.1314343,3 2.85,3 C2.29771525,3 1.85,3.44771525 1.85,4 C1.85,4.55228475 2.29771525,5 2.85,5 C3.21846096,5 3.54037811,4.80072228 3.71385387,4.50406443 L8.76556588,4.50373333 Z" id="形状结合" fill="#BFBFBF" mask="url(#mask-2)"></path>
                <mask id="mask-4" fill="white">
                    <use xlink:href="#path-3"></use>
                </mask>
                <g id="Clip-10"></g>
                <mask id="mask-6" fill="white">
                    <use xlink:href="#path-5"></use>
                </mask>
                <use id="Clip-12" fill="#BFBFBF" xlink:href="#path-5"></use>
                <path d="M4.23981251,3.90373333 C4.23981251,4.45602963 3.79998647,4.90373333 3.25805795,4.90373333 C2.71583855,4.90373333 2.27630339,4.45602963 2.27630339,3.90373333 C2.27630339,3.35143704 2.71583855,2.90373333 3.25805795,2.90373333 C3.79998647,2.90373333 4.23981251,3.35143704 4.23981251,3.90373333" id="Fill-3" fill="#FFFFFF" mask="url(#mask-6)"></path>
            </g>
            <g id="编组" transform="translate(2.4244, 3.2408)">
                <g transform="translate(4.1382, 3.1893)"></g>
            </g>
        </g>
    </g>
</svg>