<?xml version="1.0" encoding="UTF-8"?>
<svg width="16px" height="16px" viewBox="0 0 16 16" version="1.1" xmlns="http://www.w3.org/2000/svg" xmlns:xlink="http://www.w3.org/1999/xlink">
    <title>emergency-drills-app</title>
    <g id="emergency-drills-app" stroke="none" stroke-width="1" fill="none" fill-rule="evenodd">
        <g id="编组备份" transform="translate(1, 1)" fill="#BFBFBF">
            <path d="M2.37516985,0 L2.37516985,1.77428535 C2.37516985,2.10841763 2.64603758,2.37928535 2.98016985,2.37928535 L8.43216884,2.37928535 C8.76630111,2.37928535 9.03716884,2.10841763 9.03716884,1.77428535 L9.03716884,0 L10.2105697,0 C10.8788342,-1.3098345e-15 11.4205697,0.541735453 11.4205697,1.21 L11.4202483,6.78184891 C11.1161583,6.70361001 10.7973663,6.66199898 10.4688555,6.66199898 C8.36638672,6.66199898 6.66199898,8.36638672 6.66199898,10.4688555 C6.66199898,11.6062645 7.16081751,12.6271682 7.95162795,13.3247399 L1.21,13.323998 C0.541735453,13.323998 8.18388039e-17,12.7822625 0,12.113998 L0,1.21 C-8.18388039e-17,0.541735453 0.541735453,1.22758206e-16 1.21,0 L2.37516985,0 Z M5.4206551,8.67040081 L2.37516985,8.67040081 L2.37516985,9.62211495 L5.4206551,9.62211495 L5.4206551,8.67040081 Z M6.18202642,6.5766297 L2.37516985,6.5766297 L2.37516985,7.52834384 L6.18202642,7.52834384 L6.18202642,6.5766297 Z M9.03716884,4.48285859 L2.37516985,4.48285859 L2.37516985,5.43457273 L9.03716884,5.43457273 L9.03716884,4.48285859 Z M8.0854547,0 L8.0854547,1.42757121 L3.32688399,1.42757121 L3.32688399,0 L8.0854547,0 Z" id="形状结合"></path>
            <path d="M10.1030887,6.38628687 C12.2055575,6.38628687 13.9099452,8.09067461 13.9099452,10.1931434 C13.9099452,12.2956123 12.2055575,14 10.1030887,14 C8.00061985,14 6.29623211,12.2956123 6.29623211,10.1931434 C6.29623211,8.09067461 8.00061985,6.38628687 10.1030887,6.38628687 Z M10.5771178,8.0804952 C10.5923668,7.92448118 10.4106806,7.84570789 10.3249515,7.971173 L8.60878935,10.4812925 C8.53896013,10.5834628 8.60572095,10.7292598 8.72194801,10.7285446 L9.7791493,10.7218013 C9.86404154,10.7212905 9.92996553,10.8028224 9.9194586,10.8953887 L9.75953017,12.303193 C9.74139875,12.4628851 9.92987254,12.5427823 10.0140209,12.4110848 L11.6000088,9.93059467 C11.665096,9.82883307 11.5997299,9.68875762 11.4866642,9.68732723 L10.576002,9.67639501 C10.4929694,9.67537331 10.428905,9.59608917 10.4377383,9.50546413 Z" id="形状结合"></path>
        </g>
    </g>
</svg>