<?xml version="1.0" encoding="UTF-8"?>
<svg width="16px" height="16px" viewBox="0 0 16 16" version="1.1" xmlns="http://www.w3.org/2000/svg" xmlns:xlink="http://www.w3.org/1999/xlink">
    <title>environmental-management-app</title>
    <g id="environmental-management-app" stroke="none" stroke-width="1" fill="none" fill-rule="evenodd">
        <rect id="矩形" fill="#000000" opacity="0" x="0" y="0" width="16" height="16"></rect>
        <path d="M15,2 L15,8 L1,8 L1,2 L15,2 Z M5.2,4.45 L3.8,4.45 C3.41340068,4.45 3.1,4.76340068 3.1,5.15 C3.1,5.53659932 3.41340068,5.85 3.8,5.85 L5.2,5.85 C5.58659932,5.85 5.9,5.53659932 5.9,5.15 C5.9,4.76340068 5.58659932,4.45 5.2,4.45 Z" id="形状结合" fill="#BFBFBF"></path>
        <path d="M15,9 L15.0006756,10.8116512 C14.5741004,10.4132639 13.9806924,10.1590908 13.1666665,10.1590908 C12.1029665,10.1590908 11.1866665,10.9335506 10.7466665,11.8045294 C9.6099265,11.9491749 8.7666665,12.8565369 8.7666665,13.9818656 C8.7666665,14.3491362 8.85983832,14.69595 9.02393903,15.0002999 L1,15 L1,9 L15,9 Z M5.2,11.1 L3.8,11.1 C3.41340068,11.1 3.1,11.4134007 3.1,11.8 C3.1,12.1865993 3.41340068,12.5 3.8,12.5 L5.2,12.5 C5.58659932,12.5 5.9,12.1865993 5.9,11.8 C5.9,11.4134007 5.58659932,11.1 5.2,11.1 Z" id="形状结合" fill="#BFBFBF"></path>
        <path d="M12.1,15.2045453 C12.05,15.2045453 11.975,15.2045453 11.875,15.2045453 C11.775,15.2045453 11.675,15.2045453 11.575,15.2045453 L11.5,15.2045453 C10.67515,15.2045453 10,14.5364272 10,13.7200736 C10,12.9528041 10.57495,12.3341481 11.35,12.2355262 C11.65,11.641677 12.27475,11.1136363 13,11.1136363 C14.173913,11.1136363 14.6749,11.8889125 14.84995,12.7300728 C15.475,12.779535 16,13.323922 16,13.9670066 C16,14.6600071 15.44995,15.2045453 14.74975,15.2045453 L12.4,15.2045453 L12.1,15.2045453 Z" id="路径备份-2" fill="#BFBFBF"></path>
    </g>
</svg>