<?xml version="1.0" encoding="UTF-8"?>
<svg width="16px" height="16px" viewBox="0 0 16 16" version="1.1" xmlns="http://www.w3.org/2000/svg" xmlns:xlink="http://www.w3.org/1999/xlink">
    <title>event-bridge-app</title>
    <g id="event-bridge-app" stroke="none" stroke-width="1" fill="none" fill-rule="evenodd">
        <rect id="矩形" fill="#000000" opacity="0" x="0" y="0" width="16" height="16"></rect>
        <g id="编组" transform="translate(1.156304, 1.900000)" fill="#BFBFBF">
            <path d="M1.2,0 L2.4,0.692820323 L2.4,0.877 L4.82147453,0.877777778 L4.8212523,5.37777778 L5.54460674,5.3774381 C5.7120444,4.81537869 6.23278825,4.40555556 6.84925142,4.40555556 C7.46571458,4.40555556 7.98645843,4.81537869 8.15389609,5.3774381 L8.8762523,5.37777778 L8.87703008,0.877777778 L11.51,0.877 L11.510363,0.1 L13.710363,0.1 L13.710363,2.3 L11.510363,2.3 L11.51,1.877 L9.8762523,1.87777778 L9.8762523,5.37777778 L11.399,5.377 L11.3819922,5.32282706 L12.6659185,4.39 L13.9498448,5.32282706 L13.4594286,6.83217294 L11.8724084,6.83217294 L11.724,6.377 L9.8762523,6.37777778 L9.8762523,10.2657778 L11.666,10.266 L11.6666667,10.0817093 L12.8666667,9.388889 L14.0666667,10.0817093 L14.0666667,11.46735 L12.8666667,12.1601703 L11.6666667,11.46735 L11.666,11.266 L8.87703008,11.2666667 L8.8762523,6.37777778 L8.06606292,6.37723993 C7.8422731,6.82235871 7.38142948,7.12777778 6.84925142,7.12777778 C6.31707335,7.12777778 5.85622973,6.82235871 5.63243991,6.37723993 L4.8212523,6.37777778 L4.82147453,11.2666667 L2.409,11.266 L2.27958736,11.6678526 L0.610895595,11.6678526 L0.0952414798,10.0808324 L1.44524148,9.1 L2.79524148,10.0808324 L2.735,10.265 L3.8212523,10.2657778 L3.8212523,6.37777778 L2.432,6.377 L2.43258519,6.89 L0.232585193,6.89 L0.232585193,4.69 L2.43258519,4.69 L2.432,5.377 L3.8212523,5.37777778 L3.8212523,1.87777778 L2.4,1.877 L2.4,2.07846097 L1.2,2.77128129 L0,2.07846097 L0,0.692820323 L1.2,0 Z" id="形状结合"></path>
        </g>
    </g>
</svg>