<?xml version="1.0" encoding="UTF-8"?>
<svg width="16px" height="16px" viewBox="0 0 16 16" version="1.1" xmlns="http://www.w3.org/2000/svg" xmlns:xlink="http://www.w3.org/1999/xlink">
    <title>event-center-app</title>
    <g id="event-center-app" stroke="none" stroke-width="1" fill="none" fill-rule="evenodd">
        <g id="编组-3" transform="translate(2.2, 1.5)">
            <g id="编组-5" fill="#BFBFBF">
                <path d="M11.447,3 L11.4471038,12.1193204 C11.4471038,12.8523204 10.8471038,13.4523204 10.1141038,13.4523204 L1.333,13.4523204 C0.6,13.4523204 0,12.8523204 0,12.1193204 L0,3 L11.447,3 Z M7.70039669,10.0835 L4.5,10.0835 C4.22385763,10.0835 4,10.3073576 4,10.5835 C4,10.8596424 4.22385763,11.0835 4.5,11.0835 L7.70039669,11.0835 C7.97653906,11.0835 8.20039669,10.8596424 8.20039669,10.5835 C8.20039669,10.3073576 7.97653906,10.0835 7.70039669,10.0835 Z M2.5,10.0835 C2.224,10.0835 2,10.3075 2,10.5835 C2,10.8595 2.224,11.0835 2.5,11.0835 C2.776,11.0835 3,10.8595 3,10.5835 C3,10.3075 2.776,10.0835 2.5,10.0835 Z M9.242,7.5835 L4.5,7.5835 C4.22385763,7.5835 4,7.80735763 4,8.0835 C4,8.35964237 4.22385763,8.5835 4.5,8.5835 L9.242,8.5835 C9.51814237,8.5835 9.742,8.35964237 9.742,8.0835 C9.742,7.80735763 9.51814237,7.5835 9.242,7.5835 Z M2.5,7.5835 C2.224,7.5835 2,7.8075 2,8.0835 C2,8.3595 2.224,8.5835 2.5,8.5835 C2.776,8.5835 3,8.3595 3,8.0835 C3,7.8075 2.776,7.5835 2.5,7.5835 Z M9.242,5.0835 L4.5,5.0835 C4.22385763,5.0835 4,5.30735763 4,5.5835 C4,5.85964237 4.22385763,6.0835 4.5,6.0835 L9.242,6.0835 C9.51814237,6.0835 9.742,5.85964237 9.742,5.5835 C9.742,5.30735763 9.51814237,5.0835 9.242,5.0835 Z M2.5,5.0835 C2.224,5.0835 2,5.3075 2,5.5835 C2,5.8595 2.224,6.0835 2.5,6.0835 C2.776,6.0835 3,5.8595 3,5.5835 C3,5.3075 2.776,5.0835 2.5,5.0835 Z M10.1141038,0 C10.8471038,0 11.4471038,0.6 11.4471038,1.333 L11.447,2 L0,2 L0,1.333 C0,0.6 0.6,0 1.333,0 L10.1141038,0 Z" id="形状结合"></path>
            </g>
            <g id="编组-4" transform="translate(1.8, 4)"></g>
        </g>
    </g>
</svg>