<?xml version="1.0" encoding="UTF-8"?>
<svg width="16px" height="16px" viewBox="0 0 16 16" version="1.1" xmlns="http://www.w3.org/2000/svg" xmlns:xlink="http://www.w3.org/1999/xlink">
    <title>fault-management-app</title>
    <g id="fault-management-app" stroke="none" stroke-width="1" fill="none" fill-rule="evenodd">
        <g id="故障1" transform="translate(1, 2)" fill="#BFBFBF">
            <path d="M13.8513303,11.4517039 L7.86488573,0.510695789 L7.86406555,0.510695789 C7.78942979,0.218993279 7.44823771,0 7.03815109,0 C6.62232325,0 6.28031101,0.222455624 6.20977611,0.51935165 L0.0830819214,11.7165732 L0.0888231342,11.7234979 C-0.052246665,11.8706476 -0.0243607744,12.2186132 0.16591942,12.5432079 C0.356199614,12.8747274 0.644080425,13.0590972 0.830259753,12.9829257 L0.837641312,12.9950439 L13.2378407,12.9950439 L13.2468626,12.9777322 C13.4535463,13.01149 13.7078,12.8201955 13.8677337,12.4774234 C14.0530929,12.0835817 14.0399701,11.6429984 13.8513303,11.4517039 Z M6.17040779,3.95053489 C6.18450372,3.47722852 6.55213732,3.10124236 7.00083321,3.10124236 C7.4495291,3.10124236 7.81716269,3.47722852 7.83125862,3.95053489 L7.83125862,8.47062542 C7.83125862,8.95489005 7.45928088,9.34746408 7.00042312,9.34746408 C6.54156536,9.34746408 6.16958762,8.95489005 6.16958762,8.47062542 L6.16958762,3.95053489 L6.17040779,3.95053489 Z M6.99960295,11.8386209 C6.50088388,11.8386209 6.0965922,11.4119436 6.0965922,10.8856106 C6.0965922,10.3592775 6.50088388,9.93260031 6.99960295,9.93260031 C7.49832201,9.93260031 7.9026137,10.3592775 7.9026137,10.8856106 C7.9026137,11.4119436 7.49832201,11.8386209 6.99960295,11.8386209 Z" id="形状"></path>
        </g>
    </g>
</svg>