<?xml version="1.0" encoding="UTF-8"?>
<svg width="16px" height="16px" viewBox="0 0 16 16" version="1.1" xmlns="http://www.w3.org/2000/svg" xmlns:xlink="http://www.w3.org/1999/xlink">
    <title>fault-self-healing-app</title>
    <g id="fault-self-healing-app" stroke="none" stroke-width="1" fill="none" fill-rule="evenodd">
        <g id="编组" transform="translate(2, 1)">
            <path d="M5.73511655,0.0419347709 C5.8625031,-0.013978257 6.00748565,-0.013978257 6.1348722,0.0419347709 L11.5687115,2.40708615 C11.7514808,2.48636963 11.8691542,2.66746979 11.868324,2.86609577 L11.868324,7.25589685 C11.868324,11.6582164 6.37773001,13.8731464 6.14405239,13.9649484 C6.08479842,13.9883161 6.02304076,14 5.96044854,14 C5.90036001,14 5.83943692,13.9883161 5.78185207,13.9666175 C5.54567076,13.8764847 0,11.7041173 0,7.25589685 L0,2.86609577 C0,2.6667392 0.118384528,2.4864165 0.301277223,2.40708615 Z M6.4125,5 L5.3625,5 L5.3625,6.6625 L3.7,6.6625 L3.7,7.7125 L5.3625,7.7125 L5.3625,9.375 L6.4125,9.375 L6.4125,7.7125 L8.075,7.7125 L8.075,6.6625 L6.4125,6.6625 L6.4125,5 Z" id="形状结合" fill="#BFBFBF"></path>
            <g id="编组备份" transform="translate(5.8875, 7.1875) rotate(-90) translate(-5.8875, -7.1875)translate(3.7, 5)"></g>
        </g>
    </g>
</svg>