<?xml version="1.0" encoding="UTF-8"?>
<svg width="16px" height="16px" viewBox="0 0 16 16" version="1.1" xmlns="http://www.w3.org/2000/svg" xmlns:xlink="http://www.w3.org/1999/xlink">
    <title>flow-builder-app</title>
    <g id="flow-builder-app" stroke="none" stroke-width="1" fill="none" fill-rule="evenodd">
        <g id="编组" transform="translate(2.300000, 1.200000)" fill="#BFBFBF">
            <path d="M11.4545455,1.59090909 L11.4545455,13 C11.4545455,13.5522847 11.0068302,14 10.4545455,14 L1,14 C0.44771525,14 6.76353751e-17,13.5522847 0,13 L0,1.59090909 L11.4545455,1.59090909 Z M7.684573,2.55 L6.14187328,3.89986226 L7.29863636,3.899 L7.29889807,7.23595041 L7.2962498,7.29166502 C7.26821712,7.58502939 7.02109492,7.81446281 6.72038567,7.81446281 C6.4008821,7.81446281 6.14187328,7.55545399 6.14187328,7.23595041 L6.14187328,6.27176309 L6.13987592,6.19769992 C6.10142618,5.48663599 5.51266908,4.92190083 4.79201102,4.92190083 C4.04650268,4.92190083 3.44214876,5.52625475 3.44214876,6.27176309 L3.44107113,9.11003928 C3.1011142,9.25906983 2.86363636,9.59856504 2.86363636,9.99352617 C2.86363636,10.5260321 3.29531773,10.9577135 3.82782369,10.9577135 C4.36032965,10.9577135 4.79201102,10.5260321 4.79201102,9.99352617 C4.79201102,9.59818084 4.55407094,9.25840939 4.21358387,9.10960491 L4.21349862,6.27176309 L4.21614689,6.21604848 C4.24417957,5.92268411 4.49130177,5.69325069 4.79201102,5.69325069 C5.11151459,5.69325069 5.37052342,5.95225951 5.37052342,6.27176309 L5.37052342,7.23595041 L5.37252077,7.31001358 C5.41097052,8.02107751 5.99972761,8.58581267 6.72038567,8.58581267 C7.46589401,8.58581267 8.07024793,7.98145875 8.07024793,7.23595041 L8.06963636,3.899 L9.22727273,3.89986226 L7.684573,2.55 Z M1,0 L10.4545455,0 C11.0068302,-3.23497668e-16 11.4545455,0.44771525 11.4545455,1 L11.4545455,1.59090909 L11.4545455,1.59090909 L0,1.59090909 L0,1 C-6.76353751e-17,0.44771525 0.44771525,-1.20591542e-16 1,0 Z" id="形状结合"></path>
        </g>
    </g>
</svg>