<?xml version="1.0" encoding="UTF-8"?>
<svg width="16px" height="16px" viewBox="0 0 16 16" version="1.1" xmlns="http://www.w3.org/2000/svg" xmlns:xlink="http://www.w3.org/1999/xlink">
    <title>green-and-low-carbon-app</title>
    <g id="green-and-low-carbon-app" stroke="none" stroke-width="1" fill="none" fill-rule="evenodd">
        <g id="节能备份-2" transform="translate(1.000000, 1.000000)" fill="#BFBFBF">
            <path d="M7,0 C10.8659932,0 14,3.13400675 14,7 C14,10.8659932 10.8659932,14 7,14 C3.13400675,14 0,10.8659932 0,7 C0,3.13400675 3.13400675,0 7,0 Z M10.9397101,4.49412624 C10.9783323,4.02769663 11.2104359,3.59979044 10.2047773,4.06659046 C8.92839302,4.72790902 7.65190995,4.37779048 6.14334801,4.8445905 C4.94450442,5.19470903 3.93808032,6.12830906 3.55151272,8.57904002 C4.09311235,7.72330172 4.82809457,7.02301526 5.67911622,6.4783782 C6.41412313,6.01133125 7.18770285,5.70037818 8.03874918,5.50590904 C8.11611704,5.46696581 8.15481331,5.62259051 8.07737138,5.66148435 C6.99436964,6.01133124 6.02725918,6.55626463 5.13749188,7.25637823 C4.20917647,7.99555851 3.51284114,8.92918325 3.00998716,10.0184327 L3.00998716,10.0572771 C3.00998716,10.0961709 3.04865874,10.1350648 3.04865874,10.1350648 L3.24209071,10.1350648 L3.28073758,10.0961709 C4.59596633,7.72327703 6.41412313,9.24035856 8.2705811,8.46198812 C9.97262437,7.72290662 10.7463029,6.12791396 10.9397101,4.49412624 Z" id="形状结合"></path>
        </g>
    </g>
</svg>