<?xml version="1.0" encoding="UTF-8"?>
<svg width="16px" height="16px" viewBox="0 0 16 16" version="1.1" xmlns="http://www.w3.org/2000/svg" xmlns:xlink="http://www.w3.org/1999/xlink">
    <title>hyper-deploy-app</title>
    <g id="hyper-deploy-app" stroke="none" stroke-width="1" fill="none" fill-rule="evenodd">
        <g id="Hyper-Deploy-" transform="translate(1.000000, 1.000000)" fill="#BFBFBF">
            <g id="编组-10">
                <path d="M4.54747351e-13,8.97814307 L4.73546395,11.7020536 L6.26435962,10.860035 L6.26639521,10.8729022 C6.2770828,10.9396536 6.28966105,11.0058169 6.30407663,11.0713415 L6.26435962,10.860035 C6.27845714,10.9502345 6.29600541,11.0393685 6.3168732,11.1273127 C6.32898433,11.1783485 6.3421931,11.2289126 6.35649109,11.2790528 C6.36419002,11.3060485 6.3721746,11.3328247 6.38046871,11.3594752 C6.39164617,11.39539 6.40338256,11.4310675 6.41567116,11.4665076 C6.4257349,11.4955248 6.43608257,11.5241536 6.44678937,11.552621 C6.4639017,11.5981469 6.48220308,11.6438976 6.50142723,11.6892029 C6.50871875,11.7063828 6.51602436,11.7232309 6.52345739,11.7400158 C6.57883414,11.8650723 6.64132275,11.986689 6.71041722,12.1043459 L6.72656154,12.1315646 L4.73546395,13.2631579 L4.54747351e-13,10.4781319 L4.54747351e-13,8.97814307 Z M6.57633292,8.7776284 L6.52783039,8.88172847 C6.52120203,8.89657486 6.51467348,8.91147098 6.50824553,8.92641608 C6.50075385,8.94384113 6.49359284,8.96086143 6.48656249,8.97794367 C6.46892693,9.0207746 6.45191642,9.06453129 6.43576679,9.10866903 C6.42455046,9.1393169 6.41366738,9.17039298 6.40321248,9.20164954 C6.36003698,9.33077745 6.32425162,9.46259377 6.2961875,9.59703991 C6.29225819,9.61587161 6.28853447,9.63447267 6.28495894,9.65312266 C6.27527502,9.70359738 6.26660829,9.75489708 6.25907137,9.80653868 C6.25559388,9.83039477 6.25243426,9.85371046 6.24950579,9.87709329 C6.24299197,9.92905084 6.23758408,9.98178194 6.23336182,10.0348265 L6.23026473,10.0769242 L4.73546395,10.9277299 L4.74179963,8.71013728 L6.70223826,7.59558673 L6.69914908,8.54655718 L6.69159011,8.55967597 C6.6616564,8.61187875 6.63301575,8.66484358 6.60570888,8.71853185 L6.69914908,8.54655718 C6.65546133,8.62201328 6.61448131,8.69907615 6.57633292,8.7776284 Z M7.39663137,7.67756455 L7.36125141,7.71065923 C7.3575008,7.71421243 7.35375782,7.71777287 7.35002248,7.7213405 C7.32152219,7.7485616 7.29348436,7.77618453 7.26590257,7.8042155 C7.23804352,7.83250917 7.20979604,7.86214301 7.18205596,7.89220777 C7.16731357,7.90818582 7.15273145,7.92426655 7.13829419,7.94046692 C7.0439058,8.04639467 6.95583775,8.15725628 6.87447036,8.27271697 C6.86222293,8.29009477 6.85005054,8.30768976 6.83803374,8.32538856 C6.81086518,8.36540729 6.78457913,8.40581676 6.759104,8.44673341 L6.73836204,8.4804552 L6.74658798,6.24909636 L8.70612152,5.13454581 L8.70122637,6.88116302 L8.66611213,6.89429666 C8.61782952,6.91261451 8.57002491,6.93182303 8.52272095,6.95190079 L8.70122637,6.88116302 C8.61661193,6.91235902 8.533435,6.94628037 8.45181571,6.98281327 C8.32262502,7.04063724 8.19729388,7.10502917 8.07634482,7.17551683 C8.05164357,7.18991259 8.02714183,7.20455234 8.00282667,7.21944216 C7.96528876,7.24242539 7.92795785,7.26616135 7.89109253,7.2904866 C7.87002441,7.30439092 7.84939722,7.318289 7.82892065,7.33237167 C7.78341244,7.36367022 7.7386705,7.39586367 7.6947016,7.42893962 C7.68094747,7.4392826 7.66675409,7.4501102 7.65264318,7.46102983 L7.63741665,7.47287353 L7.48393611,7.5993706 C7.4544116,7.62501233 7.4253064,7.65108041 7.39663137,7.67756455 Z M10.1111111,6.63157895 C10.0266175,6.63157895 9.94275318,6.63413175 9.8595995,6.63916038 L10.1111111,6.63157895 C9.99720821,6.63157895 9.88444904,6.6362181 9.77303264,6.64530784 C9.60912652,6.65866702 9.44781723,6.68172173 9.29006211,6.71384204 C9.26634698,6.71866752 9.24221855,6.72380771 9.21817613,6.72915925 C9.15531602,6.7431565 9.09336,6.75851213 9.03202653,6.77525943 C9.01833391,6.77899846 9.00472869,6.78279081 8.99115469,6.78665153 C8.91791342,6.8074802 8.84545587,6.83034269 8.77398069,6.85513586 L8.74155987,6.86653822 L8.75047124,3.78805543 L10.7109099,2.67350489 L10.6993887,6.67345783 C10.5812279,6.65647172 10.4613212,6.64452297 10.3399202,6.63785001 L10.3112328,6.63637282 Z" id="形状结合"></path>
                <path d="M5.97544591,0 L10.7109099,2.67350489 L8.75047124,3.78805543 L4.01500728,1.11455055 L5.97544591,0 Z M5.97578506,0.428842105 L4.77178506,1.11336842 L8.74934062,3.35852632 L9.95334062,2.674 L5.97578506,0.428842105 Z" id="形状结合"></path>
                <path d="M4.01500728,1.11455055 L8.75047124,3.78805543 L8.7359897,8.66675922 L4.00143084,5.99325433 L4.00643084,4.27055055 L6.74545736,5.81956724 L7.94867958,5.13504092 L4.00943084,2.91055055 L4.01500728,1.11455055 Z" id="形状结合"></path>
                <path d="M3.97156266,2.46104092 L8.70612152,5.13454581 L6.74658798,6.24909636 L2.01112403,3.5747062 L3.97156266,2.46104092 Z M3.9719018,2.88988303 L2.76945736,3.57293566 L6.74545736,5.81956724 L7.94867958,5.13504092 L3.9719018,2.88988303 Z" id="形状结合"></path>
                <path d="M2.01112403,3.5747062 L6.74658798,6.24909636 L6.73572683,9.79724456 L2.00116797,7.12285441 L2.00216797,6.7327062 L4.74066901,8.28045974 L5.94389123,7.59667026 L2.00516797,5.3717062 L2.01112403,3.5747062 Z" id="形状结合"></path>
                <path d="M1.96677431,4.92119658 L6.70223826,7.59558673 L4.74179963,8.71013728 L0.00633567425,6.03574712 L1.96677431,4.92119658 Z M1.96711345,5.35003868 L0.76389123,6.034565 L4.74066901,8.28045974 L5.94389123,7.59667026 L1.96711345,5.35003868 Z" id="形状结合"></path>
                <polygon id="路径" points="4.74179963 8.71013728 4.73546395 10.9277299 0 8.25333975 0.00633567425 6.03574712"></polygon>
            </g>
            <path d="M10.1111111,6.63157895 C12.2588851,6.63157895 14,8.28105618 14,10.3157895 C14,12.3505228 12.2588851,14 10.1111111,14 C7.96333708,14 6.22222222,12.3505228 6.22222222,10.3157895 C6.22222222,8.28105618 7.96333708,6.63157895 10.1111111,6.63157895 Z M10.8407357,12.2582465 L9.60357128,12.2582465 L9.60357128,12.5263158 L10.8407357,12.5263158 L10.8407357,12.2582465 Z M10.8408732,11.5884084 L9.60370874,11.5884084 L9.60370874,11.9903113 L10.8408732,11.9903113 L10.8408732,11.5884084 Z M10.2221535,8.10526316 L8.55555556,10.382713 L9.60388889,10.3833158 L9.60370874,11.3204731 L10.8408732,11.3204731 L10.8408889,10.3833158 L11.8888889,10.382713 L10.2221535,8.10526316 Z" id="形状结合"></path>
        </g>
    </g>
</svg>