<?xml version="1.0" encoding="UTF-8"?>
<svg width="16px" height="16px" viewBox="0 0 16 16" version="1.1" xmlns="http://www.w3.org/2000/svg" xmlns:xlink="http://www.w3.org/1999/xlink">
    <title>idc-app</title>
    <g id="idc-app" stroke="none" stroke-width="1" fill="none" fill-rule="evenodd">
        <g id="编组-53">
            <rect id="矩形" fill-opacity="0" fill="#D8D8D8" x="0" y="0" width="16" height="16"></rect>
            <path d="M12,9.2 C13.5463973,9.2 14.8,10.4536027 14.8,12 C14.8,13.5463973 13.5463973,14.8 12,14.8 C10.4536027,14.8 9.2,13.5463973 9.2,12 C9.2,10.4536027 10.4536027,9.2 12,9.2 Z M9.57618706,2.62968559 C9.59201482,2.70091049 9.6,2.7736537 9.6,2.84661605 L9.60005957,9.88327299 C9.27192674,10.2550241 9.02882274,10.7036026 8.90118114,11.1985749 C8.83513876,11.4546527 8.8,11.7232228 8.8,12 C8.8,12.9557217 9.21897553,13.8135863 9.88327299,14.3999404 L1.6,14.4 L1.6,12.2 C1.6,11.6477153 2.04771525,11.2 2.6,11.2 L2.4,11.2 L2.4,4.00217161 C2.4,3.53347296 2.72553199,3.12765956 3.18306954,3.02598455 L8.38306954,1.87042899 C8.92220277,1.75062161 9.45637968,2.09055237 9.57618706,2.62968559 Z M12.18,10.16 C11.8817662,10.16 11.64,10.4017662 11.64,10.7 C11.64,10.8026776 11.6686572,10.898662 11.7184097,10.9803913 L11.0680946,11.9752462 C11.0202994,11.9652534 10.9707632,11.96 10.92,11.96 C10.522355,11.96 10.2,12.282355 10.2,12.68 C10.2,13.077645 10.522355,13.4 10.92,13.4 C11.1886899,13.4 11.4230042,13.252821 11.5467214,13.0346847 L12.8297094,13.3663154 C12.9283293,13.4961579 13.0843734,13.58 13.26,13.58 C13.5582338,13.58 13.8,13.3382338 13.8,13.04 C13.8,12.7417662 13.5582338,12.5 13.26,12.5 C13.0171012,12.5 12.8116596,12.6603736 12.7437855,12.8810106 L11.634,12.595 L11.638,12.658 L11.6321995,12.573645 C11.6116453,12.4348197 11.5514659,12.3089087 11.4635271,12.2077776 L11.3925535,12.136761 L11.999048,11.2089355 C12.055617,11.2290498 12.1165297,11.24 12.18,11.24 C12.4782338,11.24 12.72,10.9982338 12.72,10.7 C12.72,10.4017662 12.4782338,10.16 12.18,10.16 Z M10.0993519,4.2 L12.9716268,5.34855627 C13.3512851,5.50041962 13.6002361,5.86812837 13.6002361,6.27703296 L13.6007328,9.2283904 C13.1299431,8.95594051 12.5833005,8.8 12.0002361,8.8 C11.2879599,8.8 10.6300371,9.03271404 10.0983519,9.42625773 L10.0993519,4.2 Z M8,6.96 L4,6.96 L4,7.92 L8,7.92 L8,6.96 Z M8,4.8 L4,4.8 L4,5.76 L8,5.76 L8,4.8 Z" id="形状结合" fill="#BFBFBF"></path>
        </g>
    </g>
</svg>