<?xml version="1.0" encoding="UTF-8"?>
<svg width="16px" height="16px" viewBox="0 0 16 16" version="1.1" xmlns="http://www.w3.org/2000/svg" xmlns:xlink="http://www.w3.org/1999/xlink">
    <title>Indicator-app</title>
    <g id="Indicator-app" stroke="none" stroke-width="1" fill="none" fill-rule="evenodd">
        <g id="Performance-monitor">
            <rect id="矩形" x="0" y="0" width="16" height="16"></rect>
            <g id="指标" transform="translate(1.0295, 1.6)" fill="#BFBFBF">
                <path d="M4.73014807,4.94118099 C5.06151892,4.94118099 5.33014807,5.20981014 5.33014807,5.54118099 L5.33014807,12.356603 C5.33014807,12.6879739 5.06151892,12.956603 4.73014807,12.956603 C4.39877722,12.956603 4.13014807,12.6879739 4.13014807,12.356603 L4.13014807,5.54118099 C4.13014807,5.20981014 4.39877722,4.94118099 4.73014807,4.94118099 Z M0.896473169,8.34889201 C1.22784402,8.34889201 1.49647317,8.61752116 1.49647317,8.94889201 L1.49647317,12.356603 C1.49647317,12.6879739 1.22784402,12.956603 0.896473169,12.956603 C0.565102319,12.956603 0.296473169,12.6879739 0.296473169,12.356603 L0.296473169,8.94889201 C0.296473169,8.61752116 0.565102319,8.34889201 0.896473169,8.34889201 Z M8.88344101,5.61807748 C9.0056542,5.61807748 9.12786739,5.6751103 9.21749039,5.7647333 L9.32082675,5.86523087 C9.47549601,6.0043315 9.73531219,6.19655323 9.95076951,6.19655323 C10.2277861,6.19655323 10.5781305,5.88694649 10.6840486,5.7647333 C10.8144094,5.62622502 11.018098,5.58548729 11.1891965,5.6588152 L11.197344,5.66696275 L12.0854265,6.18840568 L12.0935741,6.19655323 C12.2332463,6.308291 12.2951011,6.48587424 12.2586153,6.65234072 L12.2000147,6.82536323 C12.1772111,6.89890493 12.1506069,7.00665206 12.1506069,7.10907835 C12.1506069,7.60840652 12.508891,8.02343252 12.9710475,8.08017436 L13.1120173,8.08678385 C13.2447059,8.08678385 13.3534507,8.18854503 13.3869435,8.36128251 L13.3971814,8.45342341 C13.3971814,8.4697185 13.4705093,8.87709579 13.4705093,9.19485008 C13.4705093,9.51260436 13.3971814,9.91998165 13.3971814,9.93627674 C13.3564436,10.1481129 13.2342305,10.2866212 13.0875746,10.2866212 L13.0549845,10.2866212 C12.5416891,10.2866212 12.1261642,10.7265887 12.1261642,11.2724743 C12.1261642,11.4005071 12.1677333,11.5368538 12.1914871,11.6043145 L12.2076397,11.6472614 C12.2774758,11.814868 12.2455507,11.9944466 12.1323877,12.1244272 L12.0609839,12.1931469 L11.1566063,12.7227374 C10.9692127,12.7960653 10.7655241,12.7553276 10.6433109,12.6086718 C10.5292453,12.478311 10.1789008,12.1442617 9.89373669,12.1442617 C9.60857259,12.1442617 9.25822812,12.4864586 9.15231002,12.6005242 C9.02194929,12.7390325 8.82640819,12.7879178 8.64716218,12.7145899 L8.63901464,12.7064423 L7.76722724,12.1849994 L7.75907969,12.1768518 C7.61940748,12.0651141 7.55755264,11.8875308 7.59403845,11.7210643 L7.65263902,11.5480418 C7.67544264,11.4745001 7.70204687,11.366753 7.70204687,11.2643267 C7.70204687,10.7184411 7.28652204,10.2784737 6.77322665,10.2784737 L6.74063647,10.2784737 C6.59398065,10.2784737 6.47991501,10.1399654 6.43917728,9.9281292 L6.39642781,9.62128301 C6.38033389,9.48685409 6.36584936,9.32792666 6.36584936,9.18670253 C6.36584936,8.86894824 6.43917728,8.46157096 6.43917728,8.44527586 C6.47991501,8.23343967 6.60212819,8.09493139 6.74878402,8.09493139 L6.7813742,8.09493139 C7.29466958,8.09493139 7.71019442,7.65496392 7.71019442,7.1172259 C7.71019442,6.93797989 7.62871896,6.74243879 7.62871896,6.74243879 C7.56586647,6.57483214 7.5987892,6.39525358 7.71209472,6.26527291 L7.78352233,6.19655323 L8.70419501,5.6588152 L8.71234255,5.65066766 C8.76937537,5.62622502 8.82640819,5.61807748 8.88344101,5.61807748 Z M9.93447442,8.15196422 C9.37229376,8.16011176 8.92417874,8.61637433 8.92417874,9.17855498 C8.92417874,9.74888319 9.37229376,10.2051458 9.93447442,10.2051458 C10.4885075,10.2051458 10.9366226,9.74888319 10.9366226,9.17855498 C10.9447701,8.61637433 10.4966551,8.16011176 9.93447442,8.15196422 Z M12.9086545,0 C12.9309746,0.000220831574 12.9456989,0.000940476657 12.9603911,0.0022008501 L12.9086545,0 C12.9474926,0 12.9854688,0.00369011785 13.0222517,0.0107388711 C13.0330544,0.0128124327 13.0448314,0.0154189386 13.0565405,0.0183856187 C13.0765241,0.0234557002 13.0953728,0.0292823951 13.1138001,0.0359864343 C13.126114,0.0404594393 13.1385522,0.0454502999 13.1508519,0.0508778695 C13.1725261,0.0604798551 13.1932195,0.0711334429 13.213172,0.0829089266 C13.219463,0.0865891426 13.2261379,0.0906997208 13.2327503,0.09495439 C13.2553273,0.109517616 13.276524,0.125242548 13.2965871,0.142262937 C13.3005472,0.145618883 13.3053145,0.149776857 13.310033,0.154023512 L13.3204694,0.163639639 C13.3371196,0.179358861 13.3528703,0.196020594 13.3676364,0.213539518 L13.310033,0.154023512 C13.3392663,0.180333473 13.3653113,0.208864864 13.3881423,0.239131558 C13.4003022,0.255400437 13.4116427,0.272134885 13.4221327,0.289442104 C13.4288379,0.300405584 13.4348637,0.311120991 13.4405374,0.321979007 C13.4715232,0.381831957 13.4923109,0.444846653 13.5021621,0.51142497 C13.5040732,0.524717397 13.5056036,0.53806245 13.5066875,0.551441311 C13.507983,0.567019769 13.5086545,0.583431458 13.5086545,0.6 L13.5086545,3.15578327 C13.5086545,3.48715412 13.2400254,3.75578327 12.9086545,3.75578327 C12.5772837,3.75578327 12.3086545,3.48715412 12.3086545,3.15578327 L12.307,2.164 L9.52095578,5.26101762 C9.29928037,5.50732363 8.91990647,5.52729068 8.67360046,5.30561527 L4.81700401,1.835 L1.00416621,5.31124601 C0.786465062,5.50965722 0.462430957,5.51780284 0.236341691,5.34515267 L0.15654836,5.27195255 C-0.0666642592,5.02703876 -0.0490719804,4.64754732 0.195841814,4.4243347 L4.41117832,0.582508225 C4.63913354,0.374751519 4.98746831,0.373661452 5.21671935,0.57998739 L9.03000401,4.012 L11.56,1.2 L10.3528713,1.2 C10.0546375,1.2 9.80722451,0.982410388 9.76072425,0.697323117 L9.75287126,0.6 C9.75287126,0.26862915 10.0215004,0 10.3528713,0 L12.9086545,0 Z" id="形状结合"></path>
            </g>
        </g>
    </g>
</svg>