<?xml version="1.0" encoding="UTF-8"?>
<svg width="16px" height="16px" viewBox="0 0 16 16" version="1.1" xmlns="http://www.w3.org/2000/svg" xmlns:xlink="http://www.w3.org/1999/xlink">
    <title>inspection-automation-app</title>
    <defs>
        <path d="M6.06666667,0 L6.16902348,0.00733428739 C6.50303308,0.0556483625 6.75929459,0.336815202 6.75929459,0.676482572 L6.75121934,0.779977506 C6.71400183,1.01611753 6.55142657,1.21168556 6.33214307,1.30084824 L6.33214307,2.37300441 L7.22440924,2.3991925 L7.51073676,2.42049249 C8.72121259,2.52362696 9.54124074,2.76649257 10.0936782,3.1054932 L10.2467965,3.23819139 C10.6919398,3.65116494 11.0069435,4.1955921 11.1314254,4.8051265 L11.5036233,4.8051265 L11.5963769,4.81183019 C11.8992314,4.85598124 12.1333333,5.11278358 12.1333333,5.4201578 L12.1333333,6.29862577 L12.1264756,6.3891588 C12.0813087,6.68479785 11.8185749,6.91365707 11.5036233,6.91365707 L11.1879719,6.91365707 L11.1747324,7.11389709 C11.0945964,7.90773071 10.6918578,8.61239283 10.0936782,9.09634404 L9.96138655,9.17284857 C9.36705436,9.49680123 8.4956809,9.72126533 7.22440924,9.80264474 L7.17131396,9.80420047 L7.17184492,10.1952069 L7.1641461,10.2883527 C7.11855849,10.5612361 6.87599802,10.7697892 6.58354922,10.7697892 L6.55248848,10.7697892 L6.55248848,11.2634737 L8.79656048,11.2634737 L8.91179784,11.2695891 C9.44196782,11.3261638 9.85846607,11.7682212 9.85846607,12.300626 L9.85846607,12.8477238 L9.59370599,13.0101913 C8.51929001,13.6381136 7.26300543,14 5.91985822,14 L5.58799474,13.9926053 C4.37810772,13.9385775 3.24679848,13.5906922 2.26584106,13.0214468 L2.26584106,12.300626 L2.27209899,12.1880297 C2.32999314,11.6700374 2.78236964,11.2634737 3.32748118,11.2634737 L5.57128771,11.2634737 L5.57128771,10.7697892 L5.54022697,10.7697892 L5.44492997,10.7622629 C5.16572738,10.7176983 4.95219674,10.4806053 4.95219674,10.1952069 L4.95219674,9.90713783 L4.95428737,9.85152054 L4.96016104,9.8013483 L4.66923988,9.77968849 C3.34449881,9.66668099 2.47666472,9.38799126 1.91594317,8.99885172 L1.77468207,8.86398922 C1.27345526,8.35326945 0.959387459,7.66734267 0.93553883,6.91365707 L0.629710018,6.91365707 L0.536896597,6.90695338 C0.233882513,6.86280233 0,6.60599999 0,6.29862577 L0,5.4201578 L0.00685172446,5.32962477 C0.0519807177,5.03398572 0.31451713,4.8051265 0.629710018,4.8051265 L0.99155435,4.8051265 L1.04160011,4.5987933 C1.19452908,4.05590882 1.50132803,3.57382508 1.91594317,3.20298552 L2.04254529,3.12024934 C2.65628251,2.74236775 3.59481592,2.48098925 5.01830037,2.39556247 L5.80119027,2.37300441 L5.80119027,1.30084824 L5.7108837,1.25631298 C5.50920356,1.13809231 5.37403874,0.92287106 5.37403874,0.676482572 C5.37403874,0.302848465 5.6838497,0 6.06666667,0 Z M7.41576463,4.10230026 L4.71746251,4.10230026 C3.67865336,4.10230026 2.82859793,4.93254065 2.82859793,5.94713487 L2.82859793,6.21083083 C2.82859793,7.22542505 3.67865336,8.05540616 4.71746251,8.05540616 L6.15661007,8.05540616 L6.15661007,8.66395525 C6.15661007,8.80448939 6.31244472,8.89186947 6.43668767,8.82108382 L8.22520217,7.87986813 C8.23449384,7.87442308 8.24139623,7.86923732 8.24697124,7.86379227 C8.87137173,7.56198096 9.30462921,6.93424455 9.30462921,6.21083083 L9.30462921,5.94713487 C9.30462921,4.93254065 8.45457378,4.10230026 7.41576463,4.10230026 Z M7.41576463,5.37618254 C7.76353871,5.37618254 8.04520917,5.65154647 8.04520917,5.99095455 C8.04520917,6.33062192 7.76353871,6.60598585 7.41576463,6.60598585 C7.06799055,6.60598585 6.78632009,6.33062192 6.78632009,5.99095455 C6.78632009,5.65154647 7.06799055,5.37618254 7.41576463,5.37618254 Z M4.80745901,5.37618254 C5.15496762,5.37618254 5.43716903,5.65154647 5.43716903,5.99095455 C5.43716903,6.33062192 5.15496762,6.60598585 4.80745901,6.60598585 C4.45968493,6.60598585 4.17774899,6.33062192 4.17774899,5.99095455 C4.17774899,5.65154647 4.45968493,5.37618254 4.80745901,5.37618254 Z" id="path-1"></path>
    </defs>
    <g id="inspection-automation-app" stroke="none" stroke-width="1" fill="none" fill-rule="evenodd">
        <rect id="矩形" fill="#000000" opacity="0" x="0" y="0" width="16" height="16"></rect>
        <g id="Fill-1-Clipped" transform="translate(2.000000, 1.000000)">
            <mask id="mask-2" fill="white">
                <use xlink:href="#path-1"></use>
            </mask>
            <use id="形状结合" fill="#BFBFBF" xlink:href="#path-1"></use>
        </g>
    </g>
</svg>