<?xml version="1.0" encoding="UTF-8"?>
<svg width="16px" height="16px" viewBox="0 0 16 16" version="1.1" xmlns="http://www.w3.org/2000/svg" xmlns:xlink="http://www.w3.org/1999/xlink">
    <title>it-asset-management-app</title>
    <g id="吉林银行迭代二" stroke="none" stroke-width="1" fill="none" fill-rule="evenodd">
        <g id="it-asset-management-app">
            <rect id="矩形" x="0" y="0" width="16" height="16"></rect>
            <g id="资产" transform="translate(1.000000, 1.880000)" fill="#BFBFBF" fill-rule="nonzero">
                <path d="M10.8055539,0 C10.9120818,0 11.0163217,0.0153622185 11.1154094,0.0442453682 L11.147761,0.0542143166 C11.1955648,0.069748378 11.2420661,0.0884565216 11.2869316,0.110124546 C11.5322412,0.230213843 11.7307491,0.436840601 11.8358858,0.699958286 L13.9207437,5.92253143 C13.9733031,6.0535129 14,6.19283714 14,6.33382993 L14,11.1168956 C14,11.7292548 13.5036053,12.2264838 12.8904118,12.2264838 L1.10958822,12.2264838 C0.497229009,12.2264838 0,11.7300891 0,11.1168956 L0,6.31213873 C0.000176985698,6.19827126 0.0177868263,6.08532985 0.0520225955,5.97719509 L0.0917704547,5.87080627 L2.34765509,0.668255765 C2.50768456,0.29965708 2.85249601,0.0489603305 3.24607286,0.00642537348 L3.36547286,0 L10.8055539,0 Z M9.55580716,0.987783803 L4.62272809,0.98861808 C4.15970443,0.98861808 3.74506883,1.2764436 3.58321912,1.71110184 L2.09320064,5.71062511 C2.0849274,5.73294202 2.07871667,5.7553748 2.07444728,5.77774915 L2.06734192,5.84368841 C2.06226288,6.06452072 2.23919909,6.26208212 2.476968,6.26208212 L4.37911924,6.26208212 C4.56002087,6.26216523 4.72809865,6.35550674 4.82378881,6.50902807 L5.57880937,7.71706096 C5.64722007,7.82551695 5.76568738,7.89142483 5.89416602,7.89142483 L8.31106609,7.8922591 C8.44702061,7.8922591 8.57212982,7.81804088 8.63726834,7.69870687 L9.27131875,6.5365592 C9.36392348,6.36803528 9.5399559,6.26291639 9.73267386,6.26291639 L11.7616352,6.26291639 C11.8096061,6.26291639 11.8550742,6.25489807 11.8970584,6.2402905 L11.9568299,6.21349853 C12.1286649,6.11952506 12.2204875,5.9064716 12.1428997,5.70561945 L10.5903105,1.69691913 C10.4249559,1.26962813 10.0139771,0.987908807 9.55580716,0.987783803 Z" id="形状"></path>
                <path d="M8.94177939,4.67111614 L7.71539241,4.67111614 L7.71539241,4.29235445 L8.94177939,4.29235445 C9.27131875,4.29235445 9.53828735,4.02538585 9.53828735,3.69584649 C9.53828735,3.36630713 9.27131875,3.09933854 8.94177939,3.09933854 L8.30939753,3.09933854 L8.77158691,2.43692271 C8.86217575,2.30729165 8.89751368,2.14696473 8.86981579,1.99126189 C8.8421179,1.83555905 8.75365661,1.6972547 8.62391991,1.60681723 C8.49428885,1.5162284 8.33396193,1.48089046 8.17825909,1.50858836 C8.02255625,1.53628625 7.8842519,1.62474754 7.79381443,1.75448424 L7.10720458,2.73809666 L6.3780466,1.74280436 C6.18366009,1.47750432 5.81073834,1.41993922 5.54460402,1.61432573 C5.27930397,1.80871223 5.22173887,2.18163399 5.41612538,2.44776831 L5.89333174,3.09933854 L5.29598951,3.09933854 C4.96645015,3.09933854 4.69948156,3.36630713 4.69948156,3.69584649 C4.69948156,4.02538585 4.96645015,4.29235445 5.29598951,4.29235445 L6.5223765,4.29235445 L6.5223765,4.67111614 L5.29598951,4.67111614 C4.96645015,4.67111614 4.69948156,4.93808474 4.69948156,5.2676241 C4.69948156,5.59716346 4.96645015,5.86413205 5.29598951,5.86413205 L6.5223765,5.86413205 L6.5223765,6.41225195 C6.5223765,6.74179131 6.78934509,7.00875991 7.11888445,7.00875991 C7.44842381,7.00875991 7.71539241,6.74179131 7.71539241,6.41225195 L7.71539241,5.86329778 L8.94177939,5.86329778 C9.27131875,5.86329778 9.53828735,5.59632918 9.53828735,5.26678982 C9.53828735,4.93808474 9.27131875,4.67111614 8.94177939,4.67111614 L8.94177939,4.67111614 Z" id="路径"></path>
            </g>
        </g>
    </g>
</svg>