<?xml version="1.0" encoding="UTF-8"?>
<svg width="16px" height="16px" viewBox="0 0 16 16" version="1.1" xmlns="http://www.w3.org/2000/svg" xmlns:xlink="http://www.w3.org/1999/xlink">
    <title>itsm-mobile-terminal-app</title>
    <g id="itsm-mobile-terminal-app" stroke="none" stroke-width="1" fill="none" fill-rule="evenodd">
        <g id="移动端" transform="translate(0.000000, -0.100000)">
            <rect id="矩形" fill="#FFFFFF" opacity="0" x="0" y="0" width="16" height="16"></rect>
            <path d="M11.7999271,9.861 L11.8,14 C11.8,14.5522847 11.3522847,15 10.8,15 L4.8,15 C4.24771525,15 3.8,14.5522847 3.8,14 L3.79992712,11.493 L4.99992712,11.248 L5,11.7 C5,11.9761424 5.22385763,12.2 5.5,12.2 L10.1,12.2 C10.3761424,12.2 10.6,11.9761424 10.6,11.7 L10.5999271,10.106 L11.7999271,9.861 Z M7.8,13 C7.41340068,13 7.1,13.3134007 7.1,13.7 C7.1,14.0865993 7.41340068,14.4 7.8,14.4 C8.18659932,14.4 8.5,14.0865993 8.5,13.7 C8.5,13.3134007 8.18659932,13 7.8,13 Z M13.248,5.136 C13.28,5.264 13.312,5.36 13.28,5.488 L13.28,7.728 C13.248,8.464 12.736,9.104 12,9.296 L3.68,10.992 C3.168,11.152 2.624,10.864 2.432,10.352 C2.4,10.224 2.4,10.128 2.4,10 L2.4,7.76 C2.432,7.024 2.944,6.352 3.68,6.192 L12,4.528 C12.512,4.368 13.056,4.624 13.248,5.136 Z M4.389375,7.44663697 L3.68,7.60205268 L3.68,9.89267768 L4.389375,9.73726197 L4.389375,7.44663697 Z M6.8878125,6.89925874 L4.73625,7.37064074 L4.73625,7.93626574 L5.458125,7.77811143 L5.458125,9.50311143 L6.1659375,9.34803805 L6.1659375,7.62303805 L6.8878125,7.46488374 L6.8878125,6.89925874 Z M8.1440625,6.58496667 C7.90552083,6.63722834 7.71776042,6.70831235 7.58078125,6.7982187 C7.44380208,6.88812506 7.34119792,6.99289609 7.27296875,7.1125318 C7.20473958,7.2321675 7.170625,7.35083952 7.170625,7.46854786 C7.170625,7.64771452 7.23729167,7.78050448 7.370625,7.86691771 C7.50291667,7.95355917 7.72427083,7.99777141 8.0346875,7.99955444 C8.22427083,7.99968563 8.34510417,8.01748331 8.3971875,8.05294746 C8.44927083,8.08841162 8.4753125,8.13583119 8.4753125,8.19520619 C8.4753125,8.25770619 8.44796875,8.31864481 8.39328125,8.37802203 C8.33859375,8.43739925 8.26072917,8.47815638 8.1596875,8.50029341 C8.02427083,8.52996161 7.92010417,8.50642913 7.8471875,8.42969598 C7.80239583,8.38221764 7.77270833,8.30538849 7.758125,8.19920853 L7.0846875,8.38893825 C7.10447917,8.61585213 7.189375,8.78787745 7.339375,8.90501422 C7.489375,9.02215099 7.75916667,9.03804281 8.14875,8.95268969 C8.370625,8.90407949 8.55447917,8.83176796 8.7003125,8.7357551 C8.84614583,8.63974223 8.9596875,8.52085617 9.0409375,8.37909692 C9.1221875,8.23733767 9.1628125,8.09302054 9.1628125,7.94614554 C9.1628125,7.82114554 9.13234375,7.71480005 9.07140625,7.62710908 C9.01046875,7.5394181 8.91307292,7.47612096 8.77921875,7.43721767 C8.64536458,7.39831437 8.42375,7.3794196 8.114375,7.38053335 C7.989375,7.38187771 7.91020833,7.37109719 7.876875,7.3481918 C7.8425,7.32655629 7.8253125,7.29750937 7.8253125,7.26105104 C7.8253125,7.21105104 7.84614583,7.16403878 7.8878125,7.12001427 C7.92947917,7.07598976 7.99145833,7.04496294 8.07375,7.02693381 C8.17375,7.00502499 8.25213542,7.01128916 8.30890625,7.04572634 C8.36567708,7.08016352 8.40291667,7.14700477 8.420625,7.24625008 L9.0878125,7.06101466 C9.05864583,6.82990473 8.96723958,6.67675368 8.81359375,6.60156151 C8.65994792,6.52636933 8.43677083,6.52083772 8.1440625,6.58496667 Z M12.0878125,5.76 L11.1596875,5.96334125 L10.801875,7.43548376 L10.4425,6.12046859 L9.51125,6.32449449 L9.51125,8.61511949 L10.0909375,8.48811679 L10.0909375,6.74124179 L10.5378125,8.39021174 L11.06125,8.27553275 L11.5096875,6.43041038 L11.5096875,8.17728538 L12.0878125,8.050625 L12.0878125,5.76 Z M10.8,1 C11.3522847,1 11.8,1.44771525 11.8,2 L11.7999271,4.039 L10.5999271,4.279 L10.6,2.7 C10.6,2.42385763 10.3761424,2.2 10.1,2.2 L5.5,2.2 C5.22385763,2.2 5,2.42385763 5,2.7 L4.99992712,5.399 L3.79992712,5.639 L3.8,2 C3.8,1.44771525 4.24771525,1 4.8,1 L10.8,1 Z" id="形状结合" fill="#BFBFBF" fill-rule="nonzero"></path>
        </g>
    </g>
</svg>