<?xml version="1.0" encoding="UTF-8"?>
<svg width="16px" height="16px" viewBox="0 0 16 16" version="1.1" xmlns="http://www.w3.org/2000/svg" xmlns:xlink="http://www.w3.org/1999/xlink">
    <title>key-management-app</title>
    <g id="key-management-app" stroke="none" stroke-width="1" fill="none" fill-rule="evenodd">
        <rect id="矩形" fill="#000000" opacity="0" x="0" y="0" width="16" height="16"></rect>
        <g id="编组-4" transform="translate(1.000000, 1.000000)">
            <g id="编组">
                <path d="M6.96053515,9.27217985 C6.75475141,9.76056244 6.64079094,10.2985871 6.64079094,10.8637193 C6.64079094,11.7554962 6.92456091,12.579773 7.40511657,13.2480048 L1,13.2470277 C0.44771525,13.2470277 3.12899073e-16,12.7993125 0,12.2470277 L0,10.2729194 C-6.76353751e-17,9.72063467 0.44771525,9.27291942 1,9.27291942 L6.96053515,9.27217985 Z M3.97410832,10.5976222 L1.98705416,10.5976222 C1.62124759,10.5976222 1.32470277,10.894167 1.32470277,11.2599736 C1.32470277,11.6257802 1.62124759,11.922325 1.98705416,11.922325 L3.97410832,11.922325 C4.33991489,11.922325 4.63645971,11.6257802 4.63645971,11.2599736 C4.63645971,10.894167 4.33991489,10.5976222 3.97410832,10.5976222 Z M11.5846764,4.63645971 C12.1369611,4.63645971 12.5846764,5.08417496 12.5846764,5.63645971 L12.5849791,7.36250101 C12.0026285,7.02031257 11.3269127,6.82453241 10.6063032,6.82453241 C9.23575622,6.82453241 8.02742482,7.53291666 7.31512444,8.60988005 L1,8.61056803 C0.44771525,8.61056803 6.76353751e-17,8.16285278 0,7.61056803 L0,5.63645971 C-6.76353751e-17,5.08417496 0.44771525,4.63645971 1,4.63645971 L11.5846764,4.63645971 Z M3.97410832,5.96116248 L1.98705416,5.96116248 C1.62124759,5.96116248 1.32470277,6.2577073 1.32470277,6.62351387 C1.32470277,6.98932044 1.62124759,7.28586526 1.98705416,7.28586526 L3.97410832,7.28586526 C4.33991489,7.28586526 4.63645971,6.98932044 4.63645971,6.62351387 C4.63645971,6.2577073 4.33991489,5.96116248 3.97410832,5.96116248 Z M11.5846764,0 C12.1369611,7.68579428e-16 12.5846764,0.44771525 12.5846764,1 L12.5846764,2.97410832 C12.5846764,3.52639307 12.1369611,3.97410832 11.5846764,3.97410832 L1,3.97410832 C0.44771525,3.97410832 6.76353751e-17,3.52639307 0,2.97410832 L0,1 C-6.76353751e-17,0.44771525 0.44771525,-9.5692398e-18 1,0 L11.5846764,0 Z M3.97410832,1.32470277 L1.98705416,1.32470277 C1.62124759,1.32470277 1.32470277,1.62124759 1.32470277,1.98705416 C1.32470277,2.35286073 1.62124759,2.64940555 1.98705416,2.64940555 L3.97410832,2.64940555 C4.33991489,2.64940555 4.63645971,2.35286073 4.63645971,1.98705416 C4.63645971,1.62124759 4.33991489,1.32470277 3.97410832,1.32470277 Z" id="形状结合" fill="#BFBFBF"></path>
                <g id="编组-3" transform="translate(8.208860, 8.799558) rotate(-38.000000) translate(-8.208860, -8.799558) translate(4.565927, 7.125778)"></g>
            </g>
            <g id="编组-2" transform="translate(8.133073, 8.154433)" fill="#BFBFBF">
                <path d="M1.31364907,1.5796954 C1.88777873,1.5796954 2.36907521,1.97716152 2.49738591,2.51194117 L3.67635463,2.5196954 L3.6766324,1.86611762 L4.6766324,1.86611762 L4.67635463,2.5266954 L4.82135463,2.5276954 L4.82232128,1.86611762 L5.82232128,1.86611762 L5.82232128,3.08341206 L5.75135463,3.0826954 L5.75193529,3.51056762 L2.31672367,3.48686085 C2.09719366,3.80545028 1.72980926,4.01428428 1.31364907,4.01428428 C0.641355912,4.01428428 0.096354627,3.46928299 0.096354627,2.79698984 C0.096354627,2.12469668 0.641355912,1.5796954 1.31364907,1.5796954 Z M1.31364907,2.15253984 C0.957729162,2.15253984 0.66919907,2.44106993 0.66919907,2.79698984 C0.66919907,3.15290974 0.957729162,3.44143984 1.31364907,3.44143984 C1.66956897,3.44143984 1.95809907,3.15290974 1.95809907,2.79698984 C1.95809907,2.44106993 1.66956897,2.15253984 1.31364907,2.15253984 Z" id="形状结合" transform="translate(2.959338, 2.796990) rotate(-41.000000) translate(-2.959338, -2.796990) "></path>
            </g>
        </g>
    </g>
</svg>