<?xml version="1.0" encoding="UTF-8"?>
<svg width="16px" height="16px" viewBox="0 0 16 16" version="1.1" xmlns="http://www.w3.org/2000/svg" xmlns:xlink="http://www.w3.org/1999/xlink">
    <title>knowledge-base-app</title>
    <g id="knowledge-base-app" stroke="none" stroke-width="1" fill="none" fill-rule="evenodd">
        <g id="编组" transform="translate(1.500000, 1.000000)" fill="#BFBFBF">
            <path d="M7.37518911,0 L7.37518911,3.24069957 C7.37518911,3.51684195 7.59904673,3.74069957 7.87518911,3.74069957 C8.00779735,3.74069957 8.13497431,3.68802115 8.2287425,3.59425296 L9.28139183,2.54160363 L9.98578346,3.38687359 C10.1625655,3.59901203 10.4778479,3.62767407 10.6899863,3.45089203 C10.8039826,3.35589511 10.8698941,3.21517131 10.8698941,3.06678139 L10.8698941,0 L11.4583964,0 C12.0106811,-1.01453063e-16 12.4583964,0.44771525 12.4583964,1 L12.4583964,12.97882 C12.4583964,13.5311047 12.0106811,13.97882 11.4583964,13.97882 L2.90620272,13.97882 L2.90620272,0 L7.37518911,0 Z M10.0271936,10.484115 L5.35858548,10.484115 C5.06863598,10.484115 4.83358548,10.7191655 4.83358548,11.009115 C4.83358548,11.2990645 5.06863598,11.534115 5.35858548,11.534115 L10.0271936,11.534115 C10.3171431,11.534115 10.5521936,11.2990645 10.5521936,11.009115 C10.5521936,10.7191655 10.3171431,10.484115 10.0271936,10.484115 Z M10.0271936,8.2602118 L5.35858548,8.2602118 C5.06863598,8.2602118 4.83358548,8.49526231 4.83358548,8.7852118 C4.83358548,9.07516129 5.06863598,9.3102118 5.35858548,9.3102118 L10.0271936,9.3102118 C10.3171431,9.3102118 10.5521936,9.07516129 10.5521936,8.7852118 C10.5521936,8.49526231 10.3171431,8.2602118 10.0271936,8.2602118 Z" id="形状结合"></path>
            <path d="M-6.03630862,6.05748865 L7.94251135,6.05748865 L7.94251135,6.96369138 C7.94251135,7.51597613 7.4947961,7.96369138 6.94251135,7.96369138 L-5.03630862,7.96369138 C-5.58859337,7.96369138 -6.03630862,7.51597613 -6.03630862,6.96369138 L-6.03630862,6.05748865 L-6.03630862,6.05748865 Z" id="矩形备份-11" transform="translate(0.953101, 7.010590) rotate(90.000000) translate(-0.953101, -7.010590) "></path>
        </g>
    </g>
</svg>