<?xml version="1.0" encoding="UTF-8"?>
<svg width="16px" height="16px" viewBox="0 0 16 16" version="1.1" xmlns="http://www.w3.org/2000/svg" xmlns:xlink="http://www.w3.org/1999/xlink">
    <title>launchpad-configuration-app</title>
    <g id="launchpad-configuration-app" stroke="none" stroke-width="1" fill="none" fill-rule="evenodd">
        <g id="编组">
            <rect id="矩形" x="0" y="0" width="16" height="16"></rect>
            <g id="基础设施监控" transform="translate(1.000000, 1.800000)" fill="#BFBFBF">
                <path d="M9.23934493,10.5501854 L9.97059485,11.6284538 C10.1255865,11.8569975 10.0659607,12.1679142 9.83741704,12.3229058 C9.75460259,12.3790682 9.65684209,12.4090909 9.55677991,12.4090909 L4.75660293,12.4090909 C4.48046056,12.4090909 4.25660293,12.1852333 4.25660293,11.9090909 C4.25660293,11.8097491 4.28619535,11.712659 4.34160526,11.6302058 L5.09750487,10.5053822 L5.09750487,10.5053822 L9.23934493,10.5501854 Z" id="矩形备份-9"></path>
                <path d="M13,0 C13.5522847,-1.01453063e-16 14,0.44771525 14,1 L14,8.86363636 C14,9.41592111 13.5522847,9.86363636 13,9.86363636 L1,9.86363636 C0.44771525,9.86363636 6.04600958e-16,9.41592111 0,8.86363636 L0,1 C-6.76353751e-17,0.44771525 0.44771525,3.23497668e-16 1,0 L13,0 Z M11,4.427273 C10.7606288,4.427273 10.5564251,4.60051453 10.5174159,4.83668578 L10.486419,5.02502705 C10.3456806,5.07100479 10.2132563,5.13536706 10.0919834,5.21527653 L9.92912274,5.12285757 C9.72103395,5.004546 9.45789044,5.05421765 9.30724926,5.24024402 C9.15660808,5.42627038 9.16273248,5.69399089 9.32172275,5.87293409 L9.45094395,6.01950743 C9.40095481,6.15375271 9.36791725,6.29624988 9.35443358,6.44439661 L9.17626125,6.51789721 C8.95491821,6.60903354 8.83205268,6.84697438 8.88589949,7.08021052 C8.93974629,7.31344665 9.15448349,7.47344576 9.39337684,7.45832815 L9.58371244,7.4478555 C9.65905904,7.57287145 9.75049028,7.68709846 9.85514092,7.78767129 L9.8019333,7.96926186 C9.73346384,8.19863166 9.84105682,8.44385713 10.0562022,8.54879056 C10.2713476,8.65372399 10.5308288,8.58753254 10.6694207,8.39236372 L10.7823939,8.2343324 C10.8536008,8.24369951 10.926236,8.24853277 11,8.24853277 C11.0739492,8.24853277 11.1467638,8.24367522 11.2181422,8.23426179 L11.3305793,8.39236372 C11.4691712,8.58753254 11.7286524,8.65372399 11.9437978,8.54879056 C12.1589432,8.44385713 12.2665362,8.19863166 12.1980667,7.96926186 L12.1448591,7.78767129 C12.2495097,7.68709846 12.340941,7.57287145 12.4162876,7.4478555 L12.6066232,7.45832815 C12.8455165,7.47344576 13.0602537,7.31344665 13.1141005,7.08021052 C13.1679473,6.84697438 13.0450818,6.60903354 12.8237387,6.51789721 L12.6455664,6.44439661 C12.6320489,6.2958775 12.598879,6.15303639 12.5486788,6.01849529 L12.6782772,5.87293409 C12.8372675,5.69399089 12.8433919,5.42627038 12.6927507,5.24024402 C12.5421096,5.05421765 12.2789661,5.004546 12.0708773,5.12285757 L11.9089898,5.21591832 C11.7877371,5.13589952 11.655318,5.0714305 11.5145726,5.02535135 L11.4825841,4.83668578 C11.4435749,4.60051453 11.2393712,4.427273 11,4.427273 Z M11,5.97966345 C11.3429446,5.97966345 11.6209562,6.257675 11.6209562,6.60061963 C11.6209562,6.94356426 11.3429446,7.22157581 11,7.22157581 C10.6570554,7.22157581 10.3790438,6.94356426 10.3790438,6.60061963 C10.3790438,6.257675 10.6570554,5.97966345 11,5.97966345 Z M5.64393939,3.45454545 L2.03787879,3.45454545 C1.71571268,3.45454545 1.45454545,3.71571268 1.45454545,4.03787879 C1.45454545,4.36004489 1.71571268,4.62121212 2.03787879,4.62121212 L5.64393939,4.62121212 C5.9661055,4.62121212 6.22727273,4.36004489 6.22727273,4.03787879 C6.22727273,3.71571268 5.9661055,3.45454545 5.64393939,3.45454545 Z M8.50757576,1.54545455 L2.03787879,1.54545455 C1.71571268,1.54545455 1.45454545,1.80662177 1.45454545,2.12878788 C1.45454545,2.45095398 1.71571268,2.71212121 2.03787879,2.71212121 L8.50757576,2.71212121 C8.82974186,2.71212121 9.09090909,2.45095398 9.09090909,2.12878788 C9.09090909,1.80662177 8.82974186,1.54545455 8.50757576,1.54545455 Z" id="形状结合"></path>
            </g>
        </g>
    </g>
</svg>