<?xml version="1.0" encoding="UTF-8"?>
<svg width="16px" height="16px" viewBox="0 0 16 16" version="1.1" xmlns="http://www.w3.org/2000/svg" xmlns:xlink="http://www.w3.org/1999/xlink">
    <title>message-subscription-app</title>
    <g id="message-subscription-app" stroke="none" stroke-width="1" fill="none" fill-rule="evenodd">
        <g id="mdb-relation-query-second-menu">
            <rect id="矩形" x="0" y="0" width="16" height="16"></rect>
            <path d="M8,2.7 C11.5346224,2.7 14.4,4.82592532 14.4,7.4483871 C14.4,10.0708489 11.5346224,12.1967742 8,12.1967742 C7.43241596,12.1967742 5.74737184,13.3107958 5.22339459,13.2079066 C4.60207135,13.0859024 5.15251524,11.7274667 4.62045383,11.4815269 C2.80693884,10.643249 1.6,9.15039224 1.6,7.4483871 C1.6,4.82592532 4.4653776,2.7 8,2.7 Z M11.0875003,5.22264477 C10.932543,5.07204235 10.6873816,5.05850418 10.5161684,5.19109499 L7.38134318,7.62565909 C7.1698696,7.78925693 6.87292882,7.79380975 6.65634506,7.63677507 L5.90268033,7.08914936 C5.72586799,6.96088204 5.48010758,6.9782336 5.32384849,7.13001695 C5.16979125,7.27968155 5.1579943,7.52004067 5.2966819,7.6835276 L6.46901221,9.07041015 C6.6118727,9.23786424 6.81972279,9.33895937 7.04209455,9.34914871 C7.26446631,9.35933805 7.48102054,9.27768962 7.63917585,9.12402842 L11.0875003,5.75261569 C11.2374999,5.6058193 11.2374999,5.36944116 11.0875003,5.22264477 Z" id="形状结合" fill="#BFBFBF"></path>
        </g>
    </g>
</svg>