<?xml version="1.0" encoding="UTF-8"?>
<svg width="16px" height="16px" viewBox="0 0 16 16" version="1.1" xmlns="http://www.w3.org/2000/svg" xmlns:xlink="http://www.w3.org/1999/xlink">
    <title>mission-history-app</title>
    <g id="mission-history-app" stroke="none" stroke-width="1" fill="none" fill-rule="evenodd">
        <g id="编组-6" transform="translate(1, 1)" fill="#BFBFBF">
            <path d="M12.1764706,0 C12.7287553,8.7960173e-16 13.1764706,0.44771525 13.1764706,1 L13.1774104,7.41216924 C12.4890584,6.89482175 11.6332739,6.58823529 10.7058824,6.58823529 C8.43176868,6.58823529 6.58823529,8.43176868 6.58823529,10.7058824 C6.58823529,11.6332739 6.89482175,12.4890584 7.41216924,13.1774104 L1,13.1764706 C0.44771525,13.1764706 1.04869017e-15,12.7287553 0,12.1764706 L0,1 C-6.76353751e-17,0.44771525 0.44771525,1.01453063e-16 1,0 L12.1764706,0 Z M4.11764706,6.91764706 C2.93510795,6.91764706 1.97647059,7.87628442 1.97647059,9.05882353 C1.97647059,10.2413626 2.93510795,11.2 4.11764706,11.2 C5.30018617,11.2 6.25882353,10.2413626 6.25882353,9.05882353 C6.25882353,7.87628442 5.30018617,6.91764706 4.11764706,6.91764706 Z M4.11764706,7.90588235 C4.75439889,7.90588235 5.27058824,8.4220717 5.27058824,9.05882353 C5.27058824,9.69557536 4.75439889,10.2117647 4.11764706,10.2117647 C3.48089523,10.2117647 2.96470588,9.69557536 2.96470588,9.05882353 C2.96470588,8.4220717 3.48089523,7.90588235 4.11764706,7.90588235 Z M5.41531194,2.532959 L3.70588235,4.242 L2.81998217,3.35648841 L2.1211943,4.05527629 L3.70588235,5.63996435 L6.11409982,3.23174688 L5.41531194,2.532959 Z M11.1176471,4.03529412 L7.82352941,4.03529412 L7.82352941,5.03529412 L11.1176471,5.03529412 L11.1176471,4.03529412 Z" id="形状结合" fill-rule="nonzero"></path>
            <path d="M10.7058824,7.41176471 C12.5251733,7.41176471 14,8.88659141 14,10.7058824 C14,12.5251733 12.5251733,14 10.7058824,14 C8.88659141,14 7.41176471,12.5251733 7.41176471,10.7058824 C7.41176471,8.88659141 8.88659141,7.41176471 10.7058824,7.41176471 Z M11.1011765,8.66352941 L10.3105882,8.66352941 L10.3105882,10.2324583 C10.3105882,10.3075037 10.3319505,10.3809986 10.3721778,10.4443514 L11.4076003,12.0750095 L12.0750095,11.6512232 L11.1011765,10.1170588 L11.1011765,8.66352941 Z" id="形状"></path>
        </g>
    </g>
</svg>