<?xml version="1.0" encoding="UTF-8"?>
<svg width="16px" height="16px" viewBox="0 0 16 16" version="1.1" xmlns="http://www.w3.org/2000/svg" xmlns:xlink="http://www.w3.org/1999/xlink">
    <title>model-settings-app</title>
    <g id="model-settings-app" stroke="none" stroke-width="1" fill="none" fill-rule="evenodd">
        <g id="编组">
            <rect id="矩形" x="0" y="0" width="16" height="16"></rect>
            <g id="编组备份" transform="translate(2.457437, 1.594701)" fill="#BFBFBF">
                <path d="M6.04256258,0.133974596 L10.5851252,2.75662433 C10.8945262,2.93525712 11.0851252,3.26538414 11.0851252,3.62264973 L11.0859033,7.37581399 C10.5926503,7.06507367 10.0086007,6.88529946 9.38256258,6.88529946 C7.61525138,6.88529946 6.18256258,8.31798826 6.18256258,10.0852995 C6.18256258,10.7747866 6.40062365,11.4133428 6.77154272,11.9357651 L6.04256258,12.3566243 C5.73316151,12.5352571 5.35196366,12.5352571 5.04256258,12.3566243 L0.5,9.7339746 C0.190598923,9.5553418 2.22044605e-14,9.22521478 2.19824159e-14,8.86794919 L2.14273044e-14,3.62264973 C2.03170814e-14,3.26538414 0.190598923,2.93525712 0.5,2.75662433 L5.04256258,0.133974596 C5.35196366,-0.0446581987 5.73316151,-0.0446581987 6.04256258,0.133974596 Z M8.93265926,7.72306943 C9.22750156,7.67270947 9.5376236,7.67270947 9.83246591,7.72306943 L9.84774564,7.72574815 C9.92188066,7.73860601 9.98017002,7.79325191 9.99375201,7.8634344 L10.0826008,8.31881696 C10.2874625,8.39167817 10.4770444,8.49561254 10.6468192,8.62740561 L11.106909,8.47257554 C11.1782145,8.44900279 11.2568768,8.46936107 11.3055456,8.52347123 L11.3157321,8.53472186 C11.5126709,8.75437698 11.6643364,9.00296228 11.7667672,9.27351309 L11.7718605,9.28744244 C11.7973267,9.35494621 11.7763878,9.42995039 11.7192303,9.47602439 L11.3485552,9.77604113 C11.3660986,9.87783253 11.3751533,9.9817669 11.3751533,10.0857013 C11.3751533,10.1896356 11.3660986,10.29357 11.3485552,10.3953614 L11.7192303,10.6953781 C11.7763878,10.7419879 11.7973267,10.8169921 11.7718605,10.8828886 L11.7667672,10.896818 C11.6643364,11.166833 11.5126709,11.4154183 11.3157321,11.6356092 L11.3055456,11.6468598 C11.2568768,11.7015057 11.1776486,11.7213283 11.106909,11.6977555 L10.6468192,11.5429254 C10.4770444,11.6752543 10.2874625,11.7786529 10.0826008,11.8515141 L9.99375201,12.3068966 C9.98017002,12.3770791 9.92188066,12.431725 9.84774564,12.4445829 L9.83246591,12.4472616 C9.68532771,12.4724416 9.53366219,12.4852995 9.38256258,12.4852995 C9.23146298,12.4852995 9.08036337,12.4724416 8.93265926,12.4472616 L8.91737952,12.4445829 C8.84324451,12.431725 8.78495515,12.3770791 8.77137316,12.3068966 L8.68195841,11.8493711 C8.47879452,11.7770457 8.29034445,11.6731113 8.12170144,11.541854 L7.65821613,11.6977555 C7.5869107,11.7213283 7.50824835,11.70097 7.45957957,11.6468598 L7.44939308,11.6356092 C7.25245426,11.4159541 7.10078874,11.166833 6.99835792,10.896818 L6.99326467,10.8828886 C6.96779845,10.8153848 6.98873734,10.7403807 7.04589487,10.6943067 L7.42109727,10.3910755 C7.40355387,10.2908913 7.39506513,10.1880284 7.39506513,10.0851655 C7.39506513,9.98283839 7.40355387,9.8799755 7.42109727,9.7792556 L7.04589487,9.47602439 C6.98873734,9.42941465 6.96779845,9.35441046 6.99326467,9.28744244 L6.99835792,9.27351309 C7.10078874,9.00349802 7.25245426,8.75491272 7.44939308,8.53472186 L7.45957957,8.52347123 C7.50824835,8.46882533 7.58747661,8.44900279 7.65821613,8.47257554 L8.12170144,8.62847709 C8.29034445,8.49721977 8.47879452,8.39382114 8.68195841,8.32095993 L8.77137316,7.8634344 C8.78495515,7.79325191 8.84324451,7.73860601 8.91737952,7.72574815 Z M9.3831285,9.43262911 C9.21391958,9.43262911 9.05489714,9.49477544 8.93492292,9.6083532 C8.81551462,9.72193097 8.74930243,9.87247509 8.74930243,10.0326626 C8.74930243,10.1928501 8.81551462,10.3433942 8.93492292,10.456972 C9.05489714,10.570014 9.21391958,10.6326961 9.3831285,10.6326961 C9.55233742,10.6326961 9.71135986,10.570014 9.83133408,10.456972 C9.95074238,10.3433942 10.0169546,10.1928501 10.0169546,10.0326626 C10.0169546,9.87247509 9.95074238,9.72193097 9.83133408,9.6083532 C9.71135986,9.49477544 9.55233742,9.43262911 9.3831285,9.43262911 Z M7.56562082,3.84529946 L5.14256258,5.23029946 L2.71950434,3.84529946 L2.34256258,4.49148534 L4.76656258,5.87729946 L4.76562082,8.64529946 L5.51950434,8.64529946 L5.51956258,5.87729946 L7.94256258,4.49148534 L7.56562082,3.84529946 Z" id="形状结合"></path>
            </g>
        </g>
    </g>
</svg>