<?xml version="1.0" encoding="UTF-8"?>
<svg width="16px" height="16px" viewBox="0 0 16 16" version="1.1" xmlns="http://www.w3.org/2000/svg" xmlns:xlink="http://www.w3.org/1999/xlink">
    <title>monitoring-ledger-app</title>
    <g id="monitoring-ledger-app" stroke="none" stroke-width="1" fill="none" fill-rule="evenodd">
        <g id="编组-3" fill="#000000" opacity="0">
            <rect id="矩形" x="0" y="0" width="20" height="20"></rect>
        </g>
        <g id="alert-ledger-second-menu" fill-rule="nonzero">
            <polygon id="路径" fill="#D8D8D8" opacity="0.001" points="0 0 16 0 16 16 0 16"></polygon>
            <g id="编组-7" transform="translate(1.3, 1)" fill="#BFBFBF">
                <path d="M4.01638116,0.000749473451 C4.20899358,0.000749473451 4.3041756,0.096680948 4.30417558,0.288543897 L4.30417558,1.10021413 L7.17687365,1.10021413 L7.17687365,0.288543897 C7.17687365,0.096680948 7.2735546,0.000749457349 7.46391862,0.000749473451 L8.61359743,0.000749473451 C8.80546038,0.000749473451 8.90064239,0.096680948 8.90064239,0.288543897 L8.90064239,1.1009636 L10.8102784,1.1009636 C11.1872591,1.1009636 11.4922912,1.39850107 11.4922912,1.76648822 L11.4929007,6.3779518 C11.1914699,6.30447587 10.876515,6.26552462 10.5524625,6.26552462 C8.36697598,6.26552462 6.59528908,8.03721152 6.59528908,10.2226981 C6.59528908,11.2999874 7.02577149,12.2767322 7.72410044,12.9902965 L0.653533185,12.9897216 C0.297304149,12.9938887 0.00493507746,12.7088959 0,12.3526767 L0,1.7649893 C0.00452666331,1.39274743 0.30976673,1.09455135 0.682012838,1.0987152 L2.57965738,1.0987152 L2.57965738,0.28779444 C2.57965738,0.0951820172 2.67633833,0 2.86745182,0 L4.01638116,0.000749473451 Z M5.13158458,6.37044968 L1.94635974,6.37044968 C1.66611229,6.36882164 1.43291879,6.58541291 1.41388186,6.86501777 C1.39484493,7.14462264 1.59652923,7.39082262 1.87441112,7.42719487 L1.94635974,7.43244112 L5.13158458,7.43244112 C5.42484541,7.43244112 5.66258029,7.19470624 5.66258029,6.9014454 C5.66258029,6.60818456 5.42484541,6.37044968 5.13158458,6.37044968 Z M7.96306209,3.53897216 L1.94635974,3.53897216 C1.66611229,3.53734411 1.43291879,3.75393538 1.41388186,4.03354025 C1.39484493,4.31314511 1.59652923,4.55934509 1.87441112,4.59571734 L1.94635974,4.60096361 L7.96306209,4.60096361 C8.25632293,4.60096361 8.49405781,4.36322872 8.49405781,4.06996788 C8.49405781,3.77670704 8.25632293,3.53897216 7.96306209,3.53897216 Z" id="形状结合"></path>
                <g id="监控" transform="translate(7.6445, 7.4047)">
                    <path d="M2.84539615,0 C4.42826552,0 5.69079229,1.26252677 5.69079229,2.84539615 C5.69079229,4.08907923 4.8993576,5.14432548 3.76873662,5.54004283 C4.35289079,5.75674518 4.72034261,6.14304068 4.72034261,6.59528908 L0.895074946,6.59528908 C0.895074946,6.14304068 1.29079229,5.74732334 1.89379015,5.54004283 C0.791434689,5.14432548 0,4.08907923 0,2.84539615 C0,1.26252677 1.26252677,0 2.84539615,0 Z M2.90192719,1.97858672 C2.08222698,1.97858672 1.39443255,2.66638116 1.39443255,3.48608137 C1.39443255,4.30578158 2.08222698,4.99357602 2.90192719,4.99357602 C3.74989293,4.99357602 4.40942184,4.30578158 4.40942184,3.48608137 C4.40942184,2.66638116 3.74047109,1.97858672 2.90192719,1.97858672 Z M2.90192719,2.82655246 C3.29764454,2.82655246 3.63683083,3.14689507 3.63683083,3.5614561 C3.63683083,3.95717345 3.31648822,4.29635974 2.90192719,4.29635974 C2.50620985,4.29635974 2.16702355,3.97601713 2.16702355,3.5614561 C2.16702355,3.16573876 2.50620985,2.82655246 2.90192719,2.82655246 Z" id="形状结合"></path>
                </g>
            </g>
        </g>
    </g>
</svg>