<?xml version="1.0" encoding="UTF-8"?>
<svg width="16px" height="16px" viewBox="0 0 16 16" version="1.1" xmlns="http://www.w3.org/2000/svg" xmlns:xlink="http://www.w3.org/1999/xlink">
    <title>network-resource-monitoring-app</title>
    <g id="network-resource-monitoring-app" stroke="none" stroke-width="1" fill="none" fill-rule="evenodd">
        <g id="图形备份" transform="translate(1, 1)">
            <rect id="矩形" fill-opacity="0" fill="#D8D8D8" x="0" y="0" width="14" height="14"></rect>
            <path d="M2.115051,3.07887215 C2.52268462,3.30538687 2.97184415,3.50010545 3.45173399,3.6606861 C3.20611995,4.59333387 3.06589147,5.62169002 3.04304366,6.6894059 L0,6.6894059 C0.0603943962,5.22286393 0.565421488,3.8114098 1.44560996,2.64920255 C1.65928374,2.80719606 1.88291181,2.95072802 2.115051,3.07887215 L2.115051,3.07887215 Z M6.6953672,7.31040502 L3.65250918,7.31040502 C3.67488576,8.31887768 3.80644635,9.28857245 4.03598123,10.1642897 C4.8620155,9.94494585 5.76270502,9.81908495 6.6953672,9.7965833 L6.6953672,7.31040502 Z M2.115051,10.9213315 C2.52268462,10.6948168 2.97184415,10.5000982 3.45173399,10.3395175 C3.20611995,9.40686977 3.06589147,8.37851361 3.04304366,7.31078319 L0,7.31078319 C0.0603126397,8.77746581 0.565344057,10.1890743 1.44560996,11.3513938 C1.65927277,11.1932657 1.88290109,11.0496024 2.115051,10.9213315 L2.115051,10.9213315 Z M7.30464708,0.202573072 L7.30464708,3.58291212 C8.1780049,3.56090501 9.01899021,3.4441495 9.78867605,3.24178006 C9.66009919,2.84843329 9.50168608,2.46586698 9.31486944,2.09754111 C8.75519788,1.00441451 8.05062831,0.344244769 7.30464708,0.202573072 Z M6.6953672,6.68979862 L6.6953672,4.20360579 C5.76241942,4.18111868 4.8620155,4.05524323 4.03598123,3.83589938 C3.80644635,4.71163119 3.67488576,5.68132595 3.65250918,6.68979862 L6.6953672,6.68979862 Z M9.96403305,3.83589938 C9.1379845,4.05524323 8.23759486,4.18111868 7.30464708,4.20360579 L7.30464708,6.68979862 L10.3474908,6.68979862 C10.3251285,5.68132595 10.1935537,4.71163119 9.96403305,3.83589938 Z M6.6953672,13.7976306 L6.6953672,10.4172915 C5.82200938,10.4392986 4.98102407,10.5560541 4.21133823,10.7584236 C4.3398923,11.1519342 4.49830575,11.5346618 4.68514484,11.9031425 C5.2448164,12.9957891 5.94938596,13.6559589 6.6953672,13.7976306 Z M4.68514484,2.09706111 C4.49830575,2.46554186 4.3398923,2.84826948 4.21133823,3.24178006 C4.98102407,3.4441495 5.82200938,3.56090501 6.6953672,3.58291212 L6.6953672,0.202573072 C5.94938596,0.344244769 5.2448164,1.00441451 4.68514484,2.09706111 L4.68514484,2.09706111 Z M11.8849633,3.07887215 C11.4773154,3.30538687 11.0281701,3.50010545 10.548266,3.6606861 C10.79388,4.59333387 10.9341085,5.62169002 10.9569563,6.6894059 L14,6.6894059 C13.9396886,5.22272991 13.4346623,3.81112708 12.5544043,2.64880983 C12.3407415,2.80693791 12.1171132,2.95060122 11.8849633,3.07887215 L11.8849633,3.07887215 Z M2.40683191,2.53409066 C2.77810894,2.74054734 3.18794166,2.91866968 3.62680539,3.06684315 C3.77380253,2.61787187 3.94706038,2.1965513 4.1449796,1.8100232 C4.50007752,1.11670461 4.91733578,0.569304951 5.38523052,0.183184122 C5.46533116,0.116915513 5.54637903,0.0558541392 5.62837413,0 C4.14202366,0.300608723 2.82504692,1.07975942 1.83877805,2.17346783 C2.0208063,2.30524936 2.21050504,2.42567755 2.40683191,2.53409066 L2.40683191,2.53409066 Z M5.38523052,13.8170195 C4.91733578,13.430695 4.4998776,12.8833099 4.1449796,12.1899768 C3.94706038,11.8035505 3.77370257,11.3821281 3.62680539,10.9331568 C3.18794166,11.0813303 2.77839453,11.2594672 2.40683191,11.4659093 C2.21050504,11.5743225 2.0208063,11.6947506 1.83877805,11.8265322 C2.82504692,12.9202551 4.14202366,13.6994931 5.62837413,14 C5.54637903,13.9442719 5.46533116,13.8832784 5.38523052,13.8170195 L5.38523052,13.8170195 Z M11.5931824,11.4659093 C11.2219053,11.2594672 10.8125439,11.0813303 10.3731946,10.9331568 C10.2262118,11.3821281 10.0529539,11.8035505 9.85503468,12.1899768 C9.49993676,12.8833099 9.0826785,13.431175 8.61476948,13.8170195 C8.53461172,13.8831524 8.45356861,13.9441459 8.37164015,14 C9.85797634,13.6993913 11.1749674,12.9202551 12.1612362,11.8265322 C11.9792031,11.6948153 11.7895045,11.5744503 11.5931824,11.4660984 L11.5931824,11.4659093 Z M9.31486944,11.9029534 C9.50170853,11.5344727 9.66012198,11.1517451 9.78867605,10.7582345 C9.01899021,10.5558505 8.1780049,10.4391095 7.30464708,10.4170879 L7.30464708,13.7976306 C8.05062831,13.6559589 8.75519788,12.9957891 9.31486944,11.9031425 L9.31486944,11.9029534 Z M7.30464708,7.31040502 L7.30464708,9.7965833 C8.23759486,9.81908495 9.1379845,9.94494585 9.96403305,10.1642897 C10.1935537,9.28817972 10.3251285,8.31935768 10.3474908,7.31040502 L7.30464708,7.31040502 Z M8.61476948,0.183184122 C9.0826785,0.569508585 9.5001224,1.1168937 9.85503468,1.81022683 C10.0529539,2.19674039 10.2263117,2.6180755 10.3731946,3.06703224 C10.8120726,2.91887332 11.2216197,2.74073643 11.5931824,2.5342943 C11.7895096,2.42587647 11.9792084,2.30544342 12.1612362,2.17365692 C11.1749674,1.07975942 9.85797634,0.300506905 8.37164015,0 C8.45363525,0.0558541392 8.53467836,0.116915513 8.61476948,0.183184122 Z M12.5544043,11.3511902 C13.4346983,10.1888208 13.9397265,8.77714631 14,7.31040502 L10.9569563,7.31040502 C10.9341085,8.37812089 10.79388,9.40647704 10.548266,10.3391248 C11.0285557,10.5000982 11.4773154,10.6948168 11.8849633,10.9209388 C12.1171132,11.0492097 12.3407415,11.192873 12.5544043,11.3510011 L12.5544043,11.3511902 Z" id="形状" fill="#BFBFBF"></path>
        </g>
    </g>
</svg>