<?xml version="1.0" encoding="UTF-8"?>
<svg width="16px" height="16px" viewBox="0 0 16 16" version="1.1" xmlns="http://www.w3.org/2000/svg" xmlns:xlink="http://www.w3.org/1999/xlink">
    <title>next-artifact-app</title>
    <g id="next-artifact-app" stroke="none" stroke-width="1" fill="none" fill-rule="evenodd">
        <g id="编组">
            <rect id="矩形" x="0" y="0" width="16" height="16"></rect>
            <path d="M1.97590257,4.70713688 L7.47590257,1.32252149 C7.79730955,1.12473258 8.20269045,1.12473258 8.52409743,1.32252149 L14.0240974,4.70713688 C14.3198449,4.88913532 14.5,5.21153448 14.5,5.55879519 L14.5,14 C14.5,14.5522847 14.0522847,15 13.5,15 L2.5,15 C1.94771525,15 1.5,14.5522847 1.5,14 L1.5,5.55879519 C1.5,5.21153448 1.6801551,4.88913532 1.97590257,4.70713688 Z M12.6758728,11.9520347 L9.28924468,11.9520347 C9.10220637,11.9520347 8.95058187,12.1036592 8.95058187,12.2906975 L8.95058187,12.6293603 C8.95058187,12.8163986 9.10220637,12.9680231 9.28924468,12.9680231 L12.6758728,12.9680231 C12.8629111,12.9680231 13.0145356,12.8163986 13.0145356,12.6293603 L13.0145356,12.2906975 C13.0145356,12.1036592 12.8629111,11.9520347 12.6758728,11.9520347 Z M6.91860499,11.9520347 L3.53197687,11.9520347 C3.34493857,11.9520347 3.19331406,12.1036592 3.19331406,12.2906975 L3.19331406,12.6293603 C3.19331406,12.8163986 3.34493857,12.9680231 3.53197687,12.9680231 L6.91860499,12.9680231 C7.1056433,12.9680231 7.2572678,12.8163986 7.2572678,12.6293603 L7.2572678,12.2906975 C7.2572678,12.1036592 7.1056433,11.9520347 6.91860499,11.9520347 Z M12.6758728,9.58139501 L9.28924468,9.58139501 C9.10220637,9.58139501 8.95058187,9.73301951 8.95058187,9.92005782 L8.95058187,10.2587206 C8.95058187,10.4457589 9.10220637,10.5973834 9.28924468,10.5973834 L12.6758728,10.5973834 C12.8629111,10.5973834 13.0145356,10.4457589 13.0145356,10.2587206 L13.0145356,9.92005782 C13.0145356,9.73301951 12.8629111,9.58139501 12.6758728,9.58139501 Z M6.91860499,9.58139501 L3.53197687,9.58139501 C3.34493857,9.58139501 3.19331406,9.73301951 3.19331406,9.92005782 L3.19331406,10.2587206 C3.19331406,10.4457589 3.34493857,10.5973834 3.53197687,10.5973834 L6.91860499,10.5973834 C7.1056433,10.5973834 7.2572678,10.4457589 7.2572678,10.2587206 L7.2572678,9.92005782 C7.2572678,9.73301951 7.1056433,9.58139501 6.91860499,9.58139501 Z M12.6758728,7.21075532 L9.28924468,7.21075532 C9.10220637,7.21075532 8.95058187,7.36237983 8.95058187,7.54941813 L8.95058187,7.88808095 C8.95058187,8.07511925 9.10220637,8.22674376 9.28924468,8.22674376 L12.6758728,8.22674376 C12.8629111,8.22674376 13.0145356,8.07511925 13.0145356,7.88808095 L13.0145356,7.54941813 C13.0145356,7.36237983 12.8629111,7.21075532 12.6758728,7.21075532 Z" id="形状" fill="#BFBFBF"></path>
        </g>
    </g>
</svg>