<?xml version="1.0" encoding="UTF-8"?>
<svg width="16px" height="16px" viewBox="0 0 16 16" version="1.1" xmlns="http://www.w3.org/2000/svg" xmlns:xlink="http://www.w3.org/1999/xlink">
    <title>notification-configuration-app</title>
    <g id="notification-configuration-app" stroke="none" stroke-width="1" fill="none" fill-rule="evenodd">
        <rect id="矩形" fill="#000000" opacity="0" x="0" y="0" width="16" height="16"></rect>
        <g id="系统管路-Next-Documents" transform="translate(1.000000, 2.000000)" fill="#BFBFBF">
            <path d="M1,3.73333333 L0.998,8.48233333 L0.27863104,11.6399324 C0.262008233,11.7128511 0.253618131,11.7874045 0.253618131,11.8621939 C0.253618131,12.2270963 0.449065254,12.5463496 0.74098582,12.7209801 C0.314377557,12.6077171 4.28806249e-16,12.2183497 0,11.7555556 L0,4.73333333 C-1.78657678e-16,4.18104858 0.44771525,3.73333333 1,3.73333333 Z M12.5106383,6.12962963 L12.51,6.32833333 L11.999,6.32833333 L12.0003952,5.25756692 C12.3049355,5.42896663 12.5106383,5.7552759 12.5106383,6.12962963 Z" id="形状结合"></path>
            <g id="编组" transform="translate(6.499878, 3.019914) rotate(-360.000000) translate(-6.499878, -3.019914) translate(1.999755, 0.000000)">
                <path d="M8.00024474,0 C8.55252949,3.89074334e-16 9.00024474,0.44771525 9.00024474,1 L9,5.942 L0.430418426,5.94252906 C0.277508167,5.94252906 0.131224814,5.97719062 -1.66045083e-13,6.03982791 L0.00126074799,1 C0.00126074799,0.44771525 0.448975998,3.23497668e-16 1.00126075,0 L8.00024474,0 Z M4.50024474,4 L1.50024474,4 C1.22410237,4 1.00024474,4.22385763 1.00024474,4.5 C1.00024474,4.77614237 1.22410237,5 1.50024474,5 L4.50024474,5 C4.77638712,5 5.00024474,4.77614237 5.00024474,4.5 C5.00024474,4.22385763 4.77638712,4 4.50024474,4 Z M7.50024474,2 L1.50024474,2 C1.22410237,2 1.00024474,2.22385763 1.00024474,2.5 C1.00024474,2.77614237 1.22410237,3 1.50024474,3 L7.50024474,3 C7.77638712,3 8.00024474,2.77614237 8.00024474,2.5 C8.00024474,2.22385763 7.77638712,2 7.50024474,2 Z" id="形状结合"></path>
            </g>
            <path d="M12.7214252,6.86219391 C13.27371,6.86219391 13.7214252,7.30990916 13.7214252,7.86219391 C13.7214252,7.94339716 13.7115344,8.02429811 13.6919713,8.1031096 L12.6990635,12.1031096 C12.5883651,12.5490659 12.1880076,12.8621939 11.7285174,12.8621939 L1.27857476,12.8621939 C0.726290015,12.8621939 0.278574765,12.4144787 0.278574765,11.8621939 C0.278574765,11.7809907 0.288465581,11.7000897 0.308028716,11.6212782 L1.30093652,7.62127823 C1.4116349,7.1753219 1.81199244,6.86219391 2.27148257,6.86219391 L12.7214252,6.86219391 Z M8.08888889,11.2 L6.22222222,11.2 C6.0504003,11.2 5.91111111,11.3392892 5.91111111,11.5111111 C5.91111111,11.682933 6.0504003,11.8222222 6.22222222,11.8222222 L8.08888889,11.8222222 C8.26071081,11.8222222 8.4,11.682933 8.4,11.5111111 C8.4,11.3392892 8.26071081,11.2 8.08888889,11.2 Z" id="形状结合"></path>
        </g>
    </g>
</svg>