<?xml version="1.0" encoding="UTF-8"?>
<svg width="16px" height="16px" viewBox="0 0 16 16" version="1.1" xmlns="http://www.w3.org/2000/svg" xmlns:xlink="http://www.w3.org/1999/xlink">
    <title>operation-and-maintenance-work-management-app</title>
    <g id="operation-and-maintenance-work-management-app" stroke="none" stroke-width="1" fill="none" fill-rule="evenodd">
        <g id="okr-(4)">
            <rect id="矩形" x="0" y="0" width="16" height="16"></rect>
            <g id="编组-30" transform="translate(1.000000, 1.000000)" fill="#BFBFBF" fill-rule="nonzero">
                <path d="M6.3113426,1.37731482 C6.80421435,1.37731482 7.3232774,1.42969743 7.83234463,1.53446268 L6.71039432,2.65704383 C6.57737708,2.64616289 6.44435984,2.63958334 6.3113426,2.63958334 C3.51239936,2.63958334 1.26226853,4.88971418 1.26226853,7.68865742 C1.26226853,10.4876006 3.51239936,12.7377315 6.3113426,12.7377315 C9.11028585,12.7377315 11.3604167,10.4876006 11.3604167,7.68865742 C11.3604167,7.49005382 11.3604167,7.29145028 11.3452514,7.09284674 L12.4060494,6.03088298 C12.558629,6.5665681 12.6226852,7.14362677 12.6226852,7.68865742 C12.6226852,11.2010568 9.82374195,14 6.3113426,14 C2.79894324,14 0,11.2010568 0,7.68865742 C0,4.17625805 2.79894324,1.37731482 6.3113426,1.37731482 Z M5.75080198,3.94338472 L5.75092309,5.22924159 C4.63938584,5.49090175 3.78680556,6.50858146 3.78680556,7.68865742 C3.78680556,9.06068843 4.9393116,10.2131945 6.3113426,10.2131945 C7.57609345,10.2131945 8.65430693,9.23387282 8.81518707,8.00602541 L10.0849528,8.00569928 C9.92297717,9.94385172 8.29008373,11.475463 6.3113426,11.475463 C4.22585548,11.475463 2.52453704,9.77414453 2.52453704,7.68865742 C2.52453704,5.79355275 3.9294098,4.21567741 5.75080198,3.94338472 Z M11.6632752,0 L11.6632752,2.2737439 L13.9370191,2.2737439 L10.8607773,5.34998566 L9.7239054,5.34998566 L7.78453562,7.28935544 C7.85141044,7.42310508 7.85141044,7.4899799 7.85141044,7.62372954 C7.85141044,8.4931022 7.18266224,9.16185047 6.31328956,9.16185047 C5.4439169,9.16185047 4.77516869,8.4931022 4.77516869,7.62372954 C4.77516869,6.75435689 5.44391689,6.08560868 6.31328956,6.08560868 C6.44703919,6.08560868 6.51391402,6.08560868 6.64766366,6.15248351 L8.58703346,4.2131137 L8.58703346,3.07624175 L11.6632752,0 Z" id="形状结合"></path>
            </g>
        </g>
    </g>
</svg>