<?xml version="1.0" encoding="UTF-8"?>
<svg width="16px" height="16px" viewBox="0 0 16 16" version="1.1" xmlns="http://www.w3.org/2000/svg" xmlns:xlink="http://www.w3.org/1999/xlink">
    <title>operational-dimensions-app</title>
    <g id="operational-dimensions-app" stroke="none" stroke-width="1" fill="none" fill-rule="evenodd">
        <g id="工作负载" transform="translate(0.8703, 0.938)" fill="#BFBFBF" fill-rule="nonzero">
            <g id="架构拓扑">
                <path d="M7.05447917,0 C8.27204718,0 9.25908107,0.987033892 9.25908107,2.2046019 C9.25908107,3.42216991 8.27204718,4.4092038 7.05447917,4.4092038 C5.83691116,4.4092038 4.84987727,3.42216991 4.84987727,2.2046019 C4.84987727,0.987033892 5.83691116,0 7.05447917,0 Z" id="矩形"></path>
                <path d="M8.08249645,3.31455845 C8.36664461,3.14406955 8.73520076,3.23620859 8.90568966,3.52035675 L11.5470757,7.92266675 C11.7175646,8.20681491 11.6254255,8.57537106 11.3412774,8.74585996 C11.0571292,8.91634886 10.688573,8.82420982 10.5180841,8.54006166 L7.87669815,4.13775165 C7.70620925,3.85360349 7.79834829,3.48504734 8.08249645,3.31455845 Z M9.77570059,9.81960392 C10.1070714,9.81960392 10.3757006,10.0882331 10.3757006,10.4196039 C10.3757006,10.7509748 10.1070714,11.0196039 9.77570059,11.0196039 L4.3055026,11.0196039 C3.97413175,11.0196039 3.7055026,10.7509748 3.7055026,10.4196039 C3.7055026,10.0882331 3.97413175,9.81960392 4.3055026,9.81960392 L9.77570059,9.81960392 Z M5.21468939,3.50132224 C5.38517828,3.21717408 5.75373444,3.12503504 6.03788259,3.29552394 C6.32203075,3.46601284 6.41416979,3.83456899 6.2436809,4.11871715 L3.42262545,8.82047623 C3.25213655,9.10462439 2.8835804,9.19676343 2.59943224,9.02627453 C2.31528408,8.85578564 2.22314504,8.48722948 2.39363394,8.20308133 L5.21468939,3.50132224 Z" id="形状"></path>
                <path d="M2.2046019,7.93656685 C3.42216991,7.93656685 4.4092038,8.92360074 4.4092038,10.1411687 C4.4092038,11.3587368 3.42216991,12.3457707 2.2046019,12.3457707 C0.987033892,12.3457707 0,11.3587368 0,10.1411687 C0,8.92360074 0.987033892,7.93656685 2.2046019,7.93656685 Z" id="矩形备份"></path>
                <path d="M11.9048503,7.93656685 C13.1224183,7.93656685 14.1094522,8.92360074 14.1094522,10.1411687 C14.1094522,11.3587368 13.1224183,12.3457707 11.9048503,12.3457707 C10.6872823,12.3457707 9.70024837,11.3587368 9.70024837,10.1411687 C9.70024837,8.92360074 10.6872823,7.93656685 11.9048503,7.93656685 Z" id="矩形备份-2"></path>
            </g>
        </g>
        <path d="M13.8263062,4.85968781 C14.1442097,4.76617831 14.4777258,4.94808555 14.5712353,5.26598901 C14.7892925,6.00731608 14.9019045,6.79109186 14.9019045,7.59241937 C14.9019045,8.43106093 14.7785539,9.25035483 14.5402413,10.0216343 C14.4424165,10.3382365 14.106457,10.5155906 13.7898548,10.4177657 C13.4732526,10.3199409 13.2958986,9.98398143 13.3937234,9.66737924 C13.5965337,9.01099987 13.7019045,8.311128 13.7019045,7.59241937 C13.7019045,6.90558241 13.6056775,6.23584615 13.420005,5.60461689 C13.3264955,5.28671343 13.5084027,4.95319732 13.8263062,4.85968781 Z M6.89343293,0.757918828 C7.21996299,0.701485124 7.53041645,0.920441479 7.58685016,1.24697153 C7.64328386,1.57350159 7.42432751,1.88395506 7.09779745,1.94038876 C5.43146471,2.22837857 3.97986016,3.10686492 3.0705619,4.34907456 C2.87483302,4.6164635 2.49940185,4.67455546 2.2320129,4.47882659 C1.96462396,4.28309771 1.906532,3.90766654 2.10226088,3.64027759 C3.19803706,2.14331691 4.92515774,1.0980929 6.89343293,0.757918828 Z M1.97186344,10.731177 C2.23373719,10.5281283 2.61063131,10.5758154 2.81368003,10.8376891 C3.82760776,12.1453608 5.25821004,13.0131988 6.84042851,13.2579139 C7.16790564,13.3085634 7.39231877,13.6150956 7.34166926,13.9425727 C7.29101976,14.2700498 6.98448756,14.4944629 6.65701044,14.4438134 C4.76593741,14.1513292 3.06398706,13.1188848 1.86535131,11.5729936 C1.66230259,11.3111198 1.7099897,10.9342257 1.97186344,10.731177 Z" id="形状" fill="#BFBFBF" fill-rule="nonzero" transform="translate(8.3207, 7.6) rotate(-33) translate(-8.3207, -7.6)"></path>
    </g>
</svg>