<?xml version="1.0" encoding="UTF-8"?>
<svg width="16px" height="16px" viewBox="0 0 16 16" version="1.1" xmlns="http://www.w3.org/2000/svg" xmlns:xlink="http://www.w3.org/1999/xlink">
    <title>operations-center-app</title>
    <g id="operations-center-app" stroke="none" stroke-width="1" fill="none" fill-rule="evenodd">
        <g id="编组" transform="translate(1.85, 0.9788)" fill="#BFBFBF">
            <path d="M11.247682,0 C11.7999667,-1.08250786e-15 12.247682,0.44771525 12.247682,1 L12.247682,13.0211553 C12.247682,13.57344 11.7999667,14.0211553 11.247682,14.0211553 L1,14.0211553 C0.44771525,14.0211553 6.76353751e-17,13.57344 0,13.0211553 L0,1 C-6.76353751e-17,0.44771525 0.44771525,1.01453063e-16 1,0 L11.247682,0 Z M5.415,11.743 L5.5,11.644 L5.54892982,11.5840998 C5.55927695,11.5706768 5.56950372,11.5571563 5.57962802,11.5435126 L5.60971136,11.502186 C5.62416699,11.4819385 5.63835687,11.4614883 5.65216015,11.441012 C5.68482038,11.3925706 5.71598978,11.3430409 5.74813312,11.2881598 C5.75969692,11.2683369 5.77102163,11.2483575 5.78224254,11.2279724 C5.79901763,11.1974895 5.81523555,11.1666569 5.83057123,11.1361081 L5.8623029,11.0708106 C5.94165338,10.901904 6.00444889,10.7236783 6.04854019,10.5384705 C6.05459005,10.5130682 6.06029007,10.4875302 6.06569687,10.4615643 C6.07307641,10.4261047 6.07977809,10.3903967 6.08576707,10.3545779 C6.09015126,10.3283643 6.09416736,10.302026 6.09782953,10.2754257 L6.10493742,10.2195859 L6.11092368,10.1634807 C6.11336644,10.1381537 6.11546818,10.112727 6.11722649,10.0871728 C6.12161202,10.0234253 6.12384099,9.95908474 6.12384099,9.8942236 C6.12384099,8.36418353 4.88349845,7.12384099 3.35345838,7.12384099 C1.82341832,7.12384099 0.583075776,8.36418353 0.583075776,9.8942236 C0.583075776,11.4242637 1.82341832,12.6646062 3.35345838,12.6646062 C4.15746804,12.6646062 4.88148291,12.3221078 5.38756186,11.7750521 L5.388,11.774 L5.393,11.768 L5.396,11.765 L5.41658513,11.7431881 C5.43168505,11.7263505 5.44658186,11.709327 5.4612717,11.6921215 L5.415,11.743 Z M3.35345838,8.01432112 L3.35345838,9.8942236 L4.73405316,11.1701646 C4.39062812,11.5415764 3.8992007,11.7741261 3.35345838,11.7741261 C2.31521691,11.7741261 1.4735559,10.9324651 1.4735559,9.8942236 C1.4735559,8.85598213 2.31521691,8.01432112 3.35345838,8.01432112 Z M8.96988752,10.2899925 L7.81114782,10.2899925 C7.53500545,10.2899925 7.31114782,10.5138502 7.31114782,10.7899925 C7.31114782,11.0661349 7.53500545,11.2899925 7.81114782,11.2899925 L8.96988752,11.2899925 C9.24602989,11.2899925 9.46988752,11.0661349 9.46988752,10.7899925 C9.46988752,10.5138502 9.24602989,10.2899925 8.96988752,10.2899925 Z M10.3730683,8.70691677 L7.81114782,8.70691677 C7.53500545,8.70691677 7.31114782,8.93077439 7.31114782,9.20691677 C7.31114782,9.48305914 7.53500545,9.70691677 7.81114782,9.70691677 L10.3730683,9.70691677 C10.6492107,9.70691677 10.8730683,9.48305914 10.8730683,9.20691677 C10.8730683,8.93077439 10.6492107,8.70691677 10.3730683,8.70691677 Z M2.0619205,4.35345838 L1.87461366,4.35345838 C1.59847129,4.35345838 1.37461366,4.57731601 1.37461366,4.85345838 L1.37461366,5.04076522 C1.37461366,5.31690759 1.59847129,5.54076522 1.87461366,5.54076522 L2.0619205,5.54076522 C2.33806287,5.54076522 2.5619205,5.31690759 2.5619205,5.04076522 L2.5619205,4.85345838 C2.5619205,4.57731601 2.33806287,4.35345838 2.0619205,4.35345838 Z M4.04076522,2.77038261 L3.85345838,2.77038261 C3.57731601,2.77038261 3.35345838,2.99424023 3.35345838,3.27038261 L3.35345838,5.04076522 C3.35345838,5.31690759 3.57731601,5.54076522 3.85345838,5.54076522 L4.04076522,5.54076522 C4.31690759,5.54076522 4.54076522,5.31690759 4.54076522,5.04076522 L4.54076522,3.27038261 C4.54076522,2.99424023 4.31690759,2.77038261 4.04076522,2.77038261 Z M9.97729938,1.97884472 L9.78999254,1.97884472 C9.51385017,1.97884472 9.28999254,2.20270234 9.28999254,2.47884472 L9.28999254,5.04076522 C9.28999254,5.31690759 9.51385017,5.54076522 9.78999254,5.54076522 L9.97729938,5.54076522 C10.2534418,5.54076522 10.4772994,5.31690759 10.4772994,5.04076522 L10.4772994,2.47884472 C10.4772994,2.20270234 10.2534418,1.97884472 9.97729938,1.97884472 Z M6.01960994,3.16615155 L5.8323031,3.16615155 C5.55616073,3.16615155 5.3323031,3.39000918 5.3323031,3.66615155 L5.3323031,5.04076522 C5.3323031,5.31690759 5.55616073,5.54076522 5.8323031,5.54076522 L6.01960994,5.54076522 C6.29575231,5.54076522 6.51960994,5.31690759 6.51960994,5.04076522 L6.51960994,3.66615155 C6.51960994,3.39000918 6.29575231,3.16615155 6.01960994,3.16615155 Z M7.99845466,3.16615155 L7.81114782,3.16615155 C7.53500545,3.16615155 7.31114782,3.39000918 7.31114782,3.66615155 L7.31114782,5.04076522 C7.31114782,5.31690759 7.53500545,5.54076522 7.81114782,5.54076522 L7.99845466,5.54076522 C8.27459703,5.54076522 8.49845466,5.31690759 8.49845466,5.04076522 L8.49845466,3.66615155 C8.49845466,3.39000918 8.27459703,3.16615155 7.99845466,3.16615155 Z" id="形状结合"></path>
        </g>
    </g>
</svg>