<?xml version="1.0" encoding="UTF-8"?>
<svg width="16px" height="16px" viewBox="0 0 16 16" version="1.1" xmlns="http://www.w3.org/2000/svg" xmlns:xlink="http://www.w3.org/1999/xlink">
    <title>ops-metrics-app</title>
    <g id="ops-metrics-app" stroke="none" stroke-width="1" fill="none" fill-rule="evenodd">
        <g id="基础设施监控">
            <rect id="矩形" x="0" y="0" width="16" height="16"></rect>
            <path d="M10.3469091,11.6999091 L10.9115385,13.0531469 C11.0177471,13.3080475 10.8972083,13.6007844 10.6423077,13.706993 C10.5813726,13.7323826 10.516013,13.7454545 10.45,13.7454545 L5.84090909,13.7454545 C5.56476672,13.7454545 5.34090909,13.5215969 5.34090909,13.2454545 C5.34090909,13.1794415 5.35398101,13.1140819 5.37937063,13.0531469 L5.94290909,11.6999091 L10.3469091,11.6999091 Z M13.4,2.4 C13.9522847,2.4 14.4,2.84771525 14.4,3.4 L14.4,10.1272727 C14.4,10.6795575 13.9522847,11.1272727 13.4,11.1272727 L2.6,11.1272727 C2.04771525,11.1272727 1.6,10.6795575 1.6,10.1272727 L1.6,3.4 C1.6,2.84771525 2.04771525,2.4 2.6,2.4 L13.4,2.4 Z M4.94545455,7.92727273 C4.70445756,7.92727273 4.50909091,8.12263938 4.50909091,8.36363636 L4.50909091,8.94545455 C4.50909091,9.18645153 4.70445756,9.38181818 4.94545455,9.38181818 C5.18645153,9.38181818 5.38181818,9.18645153 5.38181818,8.94545455 L5.38181818,8.36363636 C5.38181818,8.12263938 5.18645153,7.92727273 4.94545455,7.92727273 Z M6.98181818,6.76363636 C6.7408212,6.76363636 6.54545455,6.95900302 6.54545455,7.2 L6.54545455,8.94545455 C6.54545455,9.18645153 6.7408212,9.38181818 6.98181818,9.38181818 C7.22281516,9.38181818 7.41818182,9.18645153 7.41818182,8.94545455 L7.41818182,7.2 C7.41818182,6.95900302 7.22281516,6.76363636 6.98181818,6.76363636 Z M11.0545455,6.18181818 C10.8135485,6.18181818 10.6181818,6.37718484 10.6181818,6.61818182 L10.6181818,8.94545455 C10.6181818,9.18645153 10.8135485,9.38181818 11.0545455,9.38181818 C11.2955424,9.38181818 11.4909091,9.18645153 11.4909091,8.94545455 L11.4909091,6.61818182 C11.4909091,6.37718484 11.2955424,6.18181818 11.0545455,6.18181818 Z M9.01818182,7.05454545 C8.77718484,7.05454545 8.58181818,7.24991211 8.58181818,7.49090909 L8.58181818,8.94545455 C8.58181818,9.18645153 8.77718484,9.38181818 9.01818182,9.38181818 C9.2591788,9.38181818 9.45454545,9.18645153 9.45454545,8.94545455 L9.45454545,7.49090909 C9.45454545,7.24991211 9.2591788,7.05454545 9.01818182,7.05454545 Z M11.0545455,3.85454545 C10.8135485,3.85454545 10.6181818,4.04991211 10.6181818,4.29090909 C10.6181818,4.35824648 10.6334343,4.42202147 10.6606729,4.47896772 L9.2632973,5.67529713 C9.19343016,5.62777451 9.10904953,5.6 9.01818182,5.6 C8.94099978,5.6 8.86849792,5.62003825 8.80559484,5.65519615 L7.40471732,5.0556505 C7.3566617,4.86688345 7.18554386,4.72727273 6.98181818,4.72727273 C6.7408212,4.72727273 6.54545455,4.92263938 6.54545455,5.16363636 C6.54545455,5.22467318 6.55798627,5.28278306 6.58061715,5.3355334 L5.11530697,6.50701889 C5.06310114,6.48493769 5.00570379,6.47272727 4.94545455,6.47272727 C4.70445756,6.47272727 4.50909091,6.66809393 4.50909091,6.90909091 C4.50909091,7.15008789 4.70445756,7.34545455 4.94545455,7.34545455 L5.02389146,7.33842414 C5.22745441,7.3014764 5.38181818,7.12331045 5.38181818,6.90909091 L5.37409091,6.83154545 L6.92012604,5.5956728 C6.94028005,5.59852485 6.96087685,5.6 6.98181818,5.6 C7.10661117,5.6 7.21916896,5.54761492 7.29870117,5.46363517 L8.58244206,6.01282811 C8.5820279,6.02062079 8.58181818,6.02846772 8.58181818,6.03636364 C8.58181818,6.27736062 8.77718484,6.47272727 9.01818182,6.47272727 C9.25036597,6.47272727 9.44019602,6.29138779 9.45376902,6.06261175 L11.0148275,4.72548945 L11.0545455,4.72727273 C11.2955424,4.72727273 11.4909091,4.53190607 11.4909091,4.29090909 C11.4909091,4.04991211 11.2955424,3.85454545 11.0545455,3.85454545 Z" id="形状结合" fill="#BFBFBF"></path>
        </g>
    </g>
</svg>