<?xml version="1.0" encoding="UTF-8"?>
<svg width="16px" height="16px" viewBox="0 0 16 16" version="1.1" xmlns="http://www.w3.org/2000/svg" xmlns:xlink="http://www.w3.org/1999/xlink">
    <title>performance-management-app</title>
    <g id="performance-management-app" stroke="none" stroke-width="1" fill="none" fill-rule="evenodd">
        <g id="Dashboard">
            <rect id="矩形" x="0" y="0" width="16" height="16"></rect>
            <path d="M8,2.8 C11.5346224,2.8 14.4,5.6653776 14.4,9.2 C14.4,10.7137389 13.8744697,12.1047336 12.9959065,13.2004867 L3.00409347,13.2004867 C2.12553027,12.1047336 1.6,10.7137389 1.6,9.2 C1.6,5.6653776 4.4653776,2.8 8,2.8 Z M10.5013222,6.75612551 C10.3328099,6.58761326 10.0678812,6.56377117 9.87198992,6.69948917 L7.54639261,8.31071689 C7.49708466,8.34487858 7.45094449,8.38339971 7.40852814,8.42581606 C7.01728282,8.81706138 7.01728282,9.45139537 7.40852814,9.84264069 C7.4505628,9.88467535 7.49624817,9.92289313 7.54504567,9.95684351 C8.00014672,10.2734755 8.62575996,10.1612242 8.94239197,9.70612315 L10.5572932,7.38499582 C10.6933331,7.18946307 10.6697561,6.92455937 10.5013222,6.75612551 Z M13.6,8.72 L11.959798,8.72 L11.959798,9.68 L13.6,9.68 L13.6,8.72 Z M4.04020203,8.72 L2.4,8.72 L2.4,9.68 L4.04020203,9.68 L4.04020203,8.72 Z M11.6203867,4.90079077 L10.4605887,6.06058875 L11.1394113,6.73941125 L12.2992092,5.57961328 L11.6203867,4.90079077 Z M4.37961328,4.90079077 L3.70079077,5.57961328 L4.86058875,6.73941125 L5.53941125,6.06058875 L4.37961328,4.90079077 Z M8.48,3.6 L7.52,3.6 L7.52,5.24020203 L8.48,5.24020203 L8.48,3.6 Z" id="形状结合" fill="#BFBFBF"></path>
        </g>
    </g>
</svg>