<?xml version="1.0" encoding="UTF-8"?>
<svg width="16px" height="16px" viewBox="0 0 16 16" version="1.1" xmlns="http://www.w3.org/2000/svg" xmlns:xlink="http://www.w3.org/1999/xlink">
    <title>permission-center-app</title>
    <g id="permission-center-app" stroke="none" stroke-width="1" fill="none" fill-rule="evenodd">
        <g id="编组" transform="translate(2.570000, 1.000000)" fill="#BFBFBF">
            <path d="M5.63557909,0.0686702161 C7.4634941,1.43075074 9.198239,2.11167444 10.8396405,2.11167444 L10.8487449,3.17023215 C10.8530395,3.81156329 10.8555555,4.49461291 10.856293,5.21938103 L10.8551186,6.85032136 C10.8545212,7.10727042 10.8537333,7.36869081 10.8527547,7.63458251 C10.8471918,9.14330146 10.1430274,10.5643369 8.94635021,11.4831556 L5.85153288,13.856298 C5.60166362,14.0479007 5.25428581,14.0479007 5.00441655,13.856298 L1.91224164,11.4851818 C0.71395278,10.5675605 0.00921306298,9.146105 0.00357779283,7.63683602 L0,6.29091376 L0,4.81117438 L0.00412196808,3.60213423 C0.00692718109,3.06599833 0.0109894981,2.5691784 0.0163089191,2.11167444 C1.65771043,2.11167444 3.39245533,1.43075074 5.22054361,0.068903353 C5.34361751,-0.0229288912 5.51233192,-0.0229288912 5.63557909,0.0686702161 Z M5.39217034,2.9796027 C4.36994696,2.9796027 3.54127118,3.80827848 3.54127118,4.83050186 C3.54127118,4.97759549 3.55842974,5.12068152 3.59085448,5.25786759 L3.38307467,5.25763243 C2.99864879,5.25763243 2.68701003,5.56927119 2.68701003,5.95369707 L2.68701003,8.54811982 C2.68701003,8.93254571 2.99864879,9.24418446 3.38307467,9.24418446 L7.401266,9.24418446 C7.78569189,9.24418446 8.09733064,8.93254571 8.09733064,8.54811982 L8.09733064,5.95369707 C8.09733064,5.56927119 7.78569189,5.25763243 7.401266,5.25763243 L7.1934673,5.2579475 C7.22590427,5.12073708 7.24306949,4.97762405 7.24306949,4.83050186 C7.24306949,3.80827848 6.41439371,2.9796027 5.39217034,2.9796027 Z M5.39217034,6.3966473 C5.70670061,6.3966473 5.96167777,6.65162446 5.96167777,6.96615473 C5.96167777,7.17685807 5.84725322,7.36083611 5.67715373,7.45933928 L5.67692405,7.82041588 C5.67692405,7.97768102 5.54943547,8.1051696 5.39217034,8.1051696 C5.24613843,8.1051696 5.1257812,7.99524322 5.10933237,7.85362418 L5.10741662,7.82041588 L5.10718695,7.45933928 C4.93708745,7.36083611 4.8226629,7.17685807 4.8226629,6.96615473 C4.8226629,6.65162446 5.07764007,6.3966473 5.39217034,6.3966473 Z M5.39217034,3.54911014 C6.09986344,3.54911014 6.67356206,4.12280875 6.67356206,4.83050186 C6.67356206,4.98038326 6.64782912,5.12425441 6.60054029,5.25793827 L4.18379921,5.25793827 C4.13651113,5.12425203 4.11077861,4.98038202 4.11077861,4.83050186 C4.11077861,4.12280875 4.68447723,3.54911014 5.39217034,3.54911014 Z" id="形状"></path>
        </g>
    </g>
</svg>