<?xml version="1.0" encoding="UTF-8"?>
<svg width="16px" height="16px" viewBox="0 0 16 16" version="1.1" xmlns="http://www.w3.org/2000/svg" xmlns:xlink="http://www.w3.org/1999/xlink">
    <title>product-agile-management-app</title>
    <g id="product-agile-management-app" stroke="none" stroke-width="1" fill="none" fill-rule="evenodd">
        <g id="流程库">
            <rect id="矩形" x="0" y="0" width="16" height="16"></rect>
            <path d="M8.87843137,2.4 C11.9279095,2.4 14.4,4.88332725 14.4,7.94666667 C14.4,11.0100061 11.9279095,13.4933333 8.87843137,13.4933333 C5.82895322,13.4933333 3.35686275,11.0100061 3.35686275,7.94666667 C3.35686275,4.88332725 5.82895322,2.4 8.87843137,2.4 Z M8.87843137,4.92121212 C8.758002,4.92121212 8.64560123,4.98526074 8.58940087,5.09734582 L7.83471009,6.62650663 L6.14067014,6.87469502 C6.02024077,6.89070719 5.92389725,6.97877404 5.88375411,7.09085911 C5.84361101,7.20294421 5.8757255,7.33104145 5.96404038,7.4191083 L7.19242007,8.61201384 L6.90338954,10.2932901 C6.88733229,10.4133813 6.93550404,10.5334724 7.03184755,10.6055271 C7.08804794,10.6455575 7.16030554,10.6695758 7.22453456,10.6695758 C7.27270631,10.6695758 7.32087805,10.6535636 7.3690498,10.6295454 L8.88646001,9.83694369 L10.4038702,10.6295454 C10.5082423,10.6855879 10.6447289,10.6775818 10.7410724,10.6055271 C10.837416,10.5334724 10.8936163,10.4133813 10.8695305,10.2932901 L10.5805,8.61201384 L11.7928224,7.4191083 C11.8811372,7.33104145 11.9132517,7.20294421 11.8731086,7.09085911 C11.8409941,6.97877404 11.736622,6.89070719 11.6161926,6.87469502 L9.92215266,6.62650663 L9.16746187,5.09734582 C9.11126152,4.99326683 8.99886075,4.92121212 8.87843137,4.92121212 Z M8.87843137,5.99020606 L9.38360471,7.06868912 C9.42817882,7.1631548 9.50989804,7.22613191 9.60647529,7.24187617 L10.7356863,7.41506325 L9.91849412,8.25738212 C9.84420392,8.32823138 9.81448784,8.43056919 9.82934588,8.532907 L10.0225004,9.7216 L9.01215373,9.16267812 C8.96757961,9.13906171 8.91557647,9.12331742 8.87100235,9.12331742 C8.82642824,9.12331742 8.7744251,9.13118958 8.73728,9.16267812 L7.72693333,9.7216 L7.92751686,8.532907 C7.9423749,8.43056919 7.9052298,8.32823138 7.83836863,8.25738212 L7.02117647,7.41506325 L8.15038745,7.24187617 C8.24696471,7.22613191 8.32868392,7.1631548 8.37325804,7.06868912 L8.87843137,5.99020606 Z M4.61176471,3.15636364 C4.81563081,3.15636364 5.01476598,3.17671129 5.20726744,3.2154952 C4.93600119,3.42611629 4.68358484,3.66165771 4.45281131,3.91727914 C3.27960669,4.00004793 2.35294118,4.982224 2.35294118,6.18181818 C2.35294118,6.75372556 2.56356413,7.27621571 2.91113961,7.67528333 C2.90760556,7.76477296 2.90558069,7.85548227 2.90558069,7.94666667 C2.90558069,8.20507513 2.92184249,8.45966818 2.95339413,8.70946947 C2.13849407,8.16732257 1.6,7.23774223 1.6,6.18181818 C1.6,4.51090578 2.94841299,3.15636364 4.61176471,3.15636364 Z" id="形状结合" fill="#BFBFBF"></path>
        </g>
    </g>
</svg>