<?xml version="1.0" encoding="UTF-8"?>
<svg width="16px" height="16px" viewBox="0 0 16 16" version="1.1" xmlns="http://www.w3.org/2000/svg" xmlns:xlink="http://www.w3.org/1999/xlink">
    <title>product-managemen-app</title>
    <g id="product-managemen-app" stroke="none" stroke-width="1" fill="none" fill-rule="evenodd">
        <g id="Redis" transform="translate(1.000000, 1.000000)">
            <rect id="矩形备份-4" opacity="0.446149554" x="0" y="0" width="14" height="14"></rect>
            <g id="编组-3" fill="#BFBFBF">
                <path d="M7.74355653,0.126092702 L13.6920088,2.56141039 C13.8680038,2.63346336 13.9685723,2.72470261 13.9937145,2.81868276 L14,2.8658251 L14,4.6158251 C14,4.72600156 13.8973363,4.83617801 13.6920088,4.92023981 L7.74355653,7.3555575 C7.3329016,7.5236811 6.6670984,7.5236811 6.25644347,7.3555575 L0.3079912,4.92023981 C0.102663733,4.83617801 0,4.72600156 0,4.6158251 L0,2.8658251 L0.0062855347,2.81868276 C0.0314276735,2.72470261 0.131996229,2.63346336 0.3079912,2.56141039 L6.25644347,0.126092702 C6.6670984,-0.0420309006 7.3329016,-0.0420309006 7.74355653,0.126092702 Z M7.57773973,3.68703938 L6.68135471,4.05128837 C6.39368348,4.1692491 6.11713602,4.28375423 5.85171233,4.39480377 C5.75964498,4.43332346 5.75751971,4.46899219 5.85171233,4.50655605 L6.5966638,4.79802542 C6.98164429,4.94593901 7.38538193,5.09712093 7.80787671,5.25157119 C8.44007024,5.02590764 9.01541271,4.78998618 9.53390411,4.5438068 C9.6191807,4.50331753 9.62291749,4.47104091 9.53390411,4.43205453 C8.94119157,4.17245631 8.28913678,3.92411793 7.57773973,3.68703938 Z M11.536,3.212125 L9.52086361,3.89426158 L10.2348636,4.18213658 L12.25,3.5 L11.536,3.212125 Z M10.9759886,2.39888658 L8.33261361,3.41388658 L9.04573861,3.70176158 L11.6899886,2.68676158 L10.9759886,2.39888658 Z M3.94396159,1.99100545 L3.52435991,2.16114622 L2.35171233,2.64480377 C2.25964498,2.68332346 2.25751971,2.71899219 2.35171233,2.75655605 L3.0966638,3.04802542 C3.48164429,3.19593901 3.88538193,3.34712093 4.30787671,3.50157119 C4.81363153,3.32104035 5.28300168,3.13394445 5.71598714,2.94028348 L5.98661257,2.81525545 L3.94396159,1.99100545 Z M8.036875,1.462125 L5.59473861,2.30788658 L6.30786361,2.59576158 L8.75,1.75 L8.036875,1.462125 Z M7.04986361,0.812511575 L4.40648861,1.82751158 L5.11961361,2.11538658 L7.76386361,1.10126158 L7.04986361,0.812511575 Z" id="形状" fill-rule="nonzero"></path>
                <path d="M14,5.95 L14,7.7 C14.0003095,7.80984404 13.897646,7.92022612 13.6920088,8.00441471 L7.74355653,10.4397324 C7.3329016,10.607856 6.6670984,10.607856 6.25644347,10.4397324 L0.3079912,8.00441471 C0.102354039,7.92022612 -0.000309460965,7.80984404 7.00666336e-07,7.69950146 L0,5.95 C5.55111512e-17,6.06017645 0.102663733,6.17035291 0.3079912,6.25441471 L6.25644347,8.6897324 C6.6670984,8.857856 7.3329016,8.857856 7.74355653,8.6897324 L13.6920088,6.25441471 C13.8973363,6.17035291 14,6.06017645 14,5.95 Z" id="形状结合"></path>
                <path d="M14,8.9908251 L14,10.7408251 C14.0003095,10.8506691 13.897646,10.9610512 13.6920088,11.0452398 L7.74355653,13.4805575 C7.3329016,13.6486811 6.6670984,13.6486811 6.25644347,13.4805575 L0.3079912,11.0452398 C0.102354039,10.9610512 -0.000309460965,10.8506691 7.00666336e-07,10.7403266 L0,8.9908251 C5.55111512e-17,9.10100156 0.102663733,9.21117801 0.3079912,9.29523981 L6.25644347,11.7305575 C6.6670984,11.8986811 7.3329016,11.8986811 7.74355653,11.7305575 L13.6920088,9.29523981 C13.8973363,9.21117801 14,9.10100156 14,8.9908251 Z" id="形状结合备份"></path>
            </g>
        </g>
    </g>
</svg>