<?xml version="1.0" encoding="UTF-8"?>
<svg width="16px" height="16px" viewBox="0 0 16 16" version="1.1" xmlns="http://www.w3.org/2000/svg" xmlns:xlink="http://www.w3.org/1999/xlink">
    <title>queue-monitoring-app</title>
    <g id="queue-monitoring-app" stroke="none" stroke-width="1" fill="none" fill-rule="evenodd">
        <rect id="矩形" fill-opacity="0" fill="#F0F0F0" x="1" y="1" width="14" height="14"></rect>
        <g id="编组" transform="translate(1, 1)">
            <path d="M13.1,1.11022302e-16 C13.5970563,1.97145461e-17 14,0.402943725 14,0.9 L14,13.1 C14,13.5970563 13.5970563,14 13.1,14 L0.9,14 C0.402943725,14 3.93938745e-16,13.5970563 3.33066907e-16,13.1 L1.11022302e-16,0.9 C5.01504649e-17,0.402943725 0.402943725,4.24374664e-16 0.9,3.33066907e-16 L13.1,1.11022302e-16 Z M2.275,2.8875 L0.875,3.7625 L2.275,4.6375 L2.274,4.199 L2.8875,4.2 L2.8875,10.15 C2.8875,10.6332492 3.27925084,11.025 3.7625,11.025 L8.4875,11.025 L8.4875,11.9875 C8.4875,12.2291246 8.68337542,12.425 8.925,12.425 C9.16662458,12.425 9.3625,12.2291246 9.3625,11.9875 L9.3625,11.025 C9.3625,10.5417508 8.97074916,10.15 8.4875,10.15 L3.7625,10.15 L3.7625,4.2 C3.7625,3.71675084 3.37074916,3.325 2.8875,3.325 L2.274,3.324 L2.275,2.8875 Z M5.425,1.575 C5.18337542,1.575 4.9875,1.77087542 4.9875,2.0125 L4.9875,2.975 C4.9875,3.45824916 5.37925084,3.85 5.8625,3.85 L10.2375,3.85 L10.2375,9.8 C10.2375,10.2832492 10.6292508,10.675 11.1125,10.675 L11.724,10.674 L11.725,11.1125 L13.125,10.2375 L11.725,9.3625 L11.724,9.799 L11.1125,9.8 L11.1125,3.85 C11.1125,3.36675084 10.7207492,2.975 10.2375,2.975 L5.8625,2.975 L5.8625,2.0125 C5.8625,1.77087542 5.66662458,1.575 5.425,1.575 Z M4.9,6.7375 C4.61005051,6.7375 4.375,6.97255051 4.375,7.2625 C4.375,7.55244949 4.61005051,7.7875 4.9,7.7875 C5.18994949,7.7875 5.425,7.55244949 5.425,7.2625 C5.425,6.97255051 5.18994949,6.7375 4.9,6.7375 Z M7,6.7375 C6.71005051,6.7375 6.475,6.97255051 6.475,7.2625 C6.475,7.55244949 6.71005051,7.7875 7,7.7875 C7.28994949,7.7875 7.525,7.55244949 7.525,7.2625 C7.525,6.97255051 7.28994949,6.7375 7,6.7375 Z M9.1,6.7375 C8.81005051,6.7375 8.575,6.97255051 8.575,7.2625 C8.575,7.55244949 8.81005051,7.7875 9.1,7.7875 C9.38994949,7.7875 9.625,7.55244949 9.625,7.2625 C9.625,6.97255051 9.38994949,6.7375 9.1,6.7375 Z" id="形状结合" fill="#BFBFBF"></path>
            <g id="编组-3" transform="translate(0.875, 1.575)">
                <g id="编组-2"></g>
                <g id="编组-2" transform="translate(8.1812, 4.7687) rotate(-180) translate(-8.1812, -4.7687)translate(4.1125, 0)"></g>
            </g>
        </g>
    </g>
</svg>