<?xml version="1.0" encoding="UTF-8"?>
<svg width="16px" height="16px" viewBox="0 0 16 16" version="1.1" xmlns="http://www.w3.org/2000/svg" xmlns:xlink="http://www.w3.org/1999/xlink">
    <title>relation-query-app</title>
    <g id="relation-query-app" stroke="none" stroke-width="1" fill="none" fill-rule="evenodd">
        <g id="应用性能监控">
            <rect id="矩形" x="0" y="0" width="16" height="16"></rect>
            <path d="M3.92857143,2.4 L12.5285714,2.4 C12.8047138,2.4 13.0285714,2.62385763 13.0285714,2.9 C13.0285714,3.17614237 12.8047138,3.4 12.5285714,3.4 L3.92857143,3.4 C3.65242905,3.4 3.42857143,3.17614237 3.42857143,2.9 C3.42857143,2.62385763 3.65242905,2.4 3.92857143,2.4 Z M13.4,4.22857143 C13.9522847,4.22857143 14.4,4.67628668 14.4,5.22857143 L14.4,12.8285714 C14.4,13.3808562 13.9522847,13.8285714 13.4,13.8285714 L2.6,13.8285714 C2.04771525,13.8285714 1.6,13.3808562 1.6,12.8285714 L1.6,5.22857143 C1.6,4.67628668 2.04771525,4.22857143 2.6,4.22857143 L13.4,4.22857143 Z M7.68,6.06857143 C6.22196826,6.06857143 5.04,7.25053969 5.04,8.70857143 C5.04,10.1666032 6.22196826,11.3485714 7.68,11.3485714 C8.2650072,11.3485714 8.805572,11.1582909 9.24317968,10.8362447 L10.5768337,12.1710905 L10.6093122,12.2002497 C10.7663808,12.326606 10.9967234,12.3168863 11.1425191,12.1710905 C11.2987288,12.0148808 11.2987288,11.7616148 11.1425191,11.6054051 L9.80767325,10.2717511 C10.1297195,9.83414343 10.32,9.29357862 10.32,8.70857143 C10.32,7.25053969 9.13803174,6.06857143 7.68,6.06857143 Z M7.68,6.86857143 C8.69620394,6.86857143 9.52,7.69236749 9.52,8.70857143 C9.52,9.72477537 8.69620394,10.5485714 7.68,10.5485714 C6.66379606,10.5485714 5.84,9.72477537 5.84,8.70857143 C5.84,7.69236749 6.66379606,6.86857143 7.68,6.86857143 Z" id="形状结合" fill="#BFBFBF"></path>
        </g>
    </g>
</svg>