<?xml version="1.0" encoding="UTF-8"?>
<svg width="16px" height="16px" viewBox="0 0 16 16" version="1.1" xmlns="http://www.w3.org/2000/svg" xmlns:xlink="http://www.w3.org/1999/xlink">
    <title>resource-data-operation-app</title>
    <g id="resource-data-operation-app" stroke="none" stroke-width="1" fill="none" fill-rule="evenodd">
        <rect id="矩形" fill="#000000" opacity="0" x="0" y="0" width="16" height="16"></rect>
        <g id="编组">
            <rect id="矩形" x="0" y="0" width="16" height="16"></rect>
            <path d="M13.4,2.4 C13.9522847,2.4 14.4,2.84771525 14.4,3.4 L14.4,12.92 C14.4,13.4722847 13.9522847,13.92 13.4,13.92 L2.6,13.92 C2.04771525,13.92 1.6,13.4722847 1.6,12.92 L1.6,3.4 C1.6,2.84771525 2.04771525,2.4 2.6,2.4 L13.4,2.4 Z M4.62,10.08 L4.02,10.08 C3.74385763,10.08 3.52,10.3038576 3.52,10.58 L3.52,12.14 C3.52,12.4161424 3.74385763,12.64 4.02,12.64 L4.62,12.64 C4.89614237,12.64 5.12,12.4161424 5.12,12.14 L5.12,10.58 C5.12,10.3038576 4.89614237,10.08 4.62,10.08 Z M8.14,7.84 L7.54,7.84 C7.26385763,7.84 7.04,8.06385763 7.04,8.34 L7.04,12.14 C7.04,12.4161424 7.26385763,12.64 7.54,12.64 L8.14,12.64 C8.41614237,12.64 8.64,12.4161424 8.64,12.14 L8.64,8.34 C8.64,8.06385763 8.41614237,7.84 8.14,7.84 Z M11.66,4 L11.06,4 C10.7838576,4 10.56,4.22385763 10.56,4.5 L10.56,12.14 C10.56,12.4161424 10.7838576,12.64 11.06,12.64 L11.66,12.64 C11.9361424,12.64 12.16,12.4161424 12.16,12.14 L12.16,4.5 C12.16,4.22385763 11.9361424,4 11.66,4 Z M7.1148331,3.965261 L7.62902363,4.60916736 L6.73623734,5.32566517 L5.70810294,6.18845827 L4.0738267,7.55977886 C4.01848389,7.60621699 4.01119308,7.6895513 4.05763122,7.7448941 L4.67917475,8.48562084 C4.72561288,8.54096365 4.80894719,8.54825446 4.86428999,8.50181632 L8.37001762,5.49634407 L8.97584478,6.16367962 L9.16031581,4.01886643 L7.1148331,3.965261 Z" id="形状结合" fill="#BFBFBF"></path>
        </g>
    </g>
</svg>