<?xml version="1.0" encoding="UTF-8"?>
<svg width="16px" height="16px" viewBox="0 0 16 16" version="1.1" xmlns="http://www.w3.org/2000/svg" xmlns:xlink="http://www.w3.org/1999/xlink">
    <title>resource-automatic-discovery-app</title>
    <g id="resource-automatic-discovery-app" stroke="none" stroke-width="1" fill="none" fill-rule="evenodd">
        <g id="auto-discovery-second-menu">
            <rect id="矩形" x="0" y="0" width="16" height="16"></rect>
            <path d="M7.56378785,1.6 C10.8574969,1.6 13.5275757,4.27007877 13.5275757,7.56378785 C13.5275757,9.14077584 12.9154926,10.5748042 11.9159371,11.6412622 L13.5432732,13.2687975 C13.8020515,13.5275757 13.8020515,13.9471381 13.5432732,14.2059163 C13.284495,14.4646946 12.8649326,14.4646946 12.6061544,14.2059163 L10.9047596,12.5046154 C9.95164679,13.1503675 8.80176816,13.5275757 7.56378785,13.5275757 C4.27007877,13.5275757 1.6,10.8574969 1.6,7.56378785 C1.6,4.27007877 4.27007877,1.6 7.56378785,1.6 Z M5.57925012,6.5506038 L5.57925012,8.7239396 L7.45459687,9.84605756 L7.45459687,7.67358388 L5.57925012,6.5506038 Z M9.71935959,6.56414873 L7.8917071,7.67274042 L7.8917071,9.83448784 L9.71935959,8.77343522 L9.71935959,6.56414873 Z M7.64631841,5.16676245 L5.79088477,6.19690906 L7.64631841,7.27327713 L9.47325208,6.15425576 L7.64631841,5.16676245 Z" id="形状结合" fill="#BFBFBF"></path>
        </g>
    </g>
</svg>