<?xml version="1.0" encoding="UTF-8"?>
<svg width="16px" height="16px" viewBox="0 0 16 16" version="1.1" xmlns="http://www.w3.org/2000/svg" xmlns:xlink="http://www.w3.org/1999/xlink">
    <title>scheduled-tasks-app</title>
    <g id="scheduled-tasks-app" stroke="none" stroke-width="1" fill="none" fill-rule="evenodd">
        <g id="编组备份" transform="translate(2, 1)" fill="#BFBFBF">
            <path d="M9.79573171,11.9254418 C11.0368754,10.9048675 11.4274746,9.68004194 11.4274746,7.92792046 C11.4274746,4.85306254 8.98229614,2.36039768 5.96601567,2.36039768 L5.96601567,8.01782083 L9.79573171,11.9254418 Z" id="路径" opacity="0.55"></path>
            <path d="M7.78650197,0 C8.06516097,0 8.29105872,0.225897753 8.29105872,0.504556752 C8.29105872,0.783215752 8.06516097,1.0091135 7.78650197,1.0091135 L6.47009942,1.0091135 L6.4709672,1.87727348 C7.57221449,1.97116894 8.58803115,2.36937995 9.43730866,2.98883336 L10.64109,1.78614082 C10.8381317,1.58909915 11.1575993,1.58909915 11.354641,1.78614082 C11.5516827,1.98318249 11.5516827,2.30265015 11.354641,2.49969182 L10.2019377,3.65197338 C11.2716021,4.74971077 11.9320313,6.26078596 11.9320313,7.92792046 C11.9320313,11.2792883 9.26315044,14 5.96601567,14 C4.33721679,14 2.81203263,13.3318811 1.69713594,12.1697827 C1.50422036,11.9686996 1.51084146,11.6493005 1.71192457,11.4563849 C1.91300768,11.2634694 2.23240673,11.2700905 2.4253223,11.4711736 C3.35233149,12.4374299 4.61576428,12.9908865 5.96601567,12.9908865 C8.70144183,12.9908865 10.9229178,10.7262685 10.9229178,7.92792046 C10.9229178,5.12957244 8.70144183,2.86495443 5.96601567,2.86495443 C3.2305895,2.86495443 1.0091135,5.12957244 1.0091135,7.92792046 C1.0091135,8.20657946 0.783215752,8.43247722 0.504556752,8.43247722 C0.225897753,8.43247722 0,8.20657946 0,7.92792046 C0,4.74943257 2.40063494,2.13821433 5.46106413,1.87727348 L5.46098592,1.0091135 L4.14552936,1.0091135 C3.86687036,1.0091135 3.64097261,0.783215752 3.64097261,0.504556752 C3.64097261,0.225897753 3.86687036,0 4.14552936,0 L7.78650197,0 Z M6.5234764,5.76515698 L6.5234764,7.72620089 L8.29782109,9.77097365 L7.45937832,10.4984136 L5.54924259,8.29680304 C5.46166733,8.19586434 5.41345155,8.06671707 5.41345155,7.93308306 L5.41345155,5.76515698 L6.5234764,5.76515698 Z" id="形状" fill-rule="nonzero"></path>
        </g>
    </g>
</svg>