<?xml version="1.0" encoding="UTF-8"?>
<svg width="16px" height="16px" viewBox="0 0 16 16" version="1.1" xmlns="http://www.w3.org/2000/svg" xmlns:xlink="http://www.w3.org/1999/xlink">
    <title>security-audit-app</title>
    <g id="security-audit-app" stroke="none" stroke-width="1" fill="none" fill-rule="evenodd">
        <g id="编组" transform="translate(2.570000, 1.000000)" fill="#BFBFBF">
            <path d="M5.63557909,0.0686702161 C7.4634941,1.43075074 9.198239,2.11167444 10.8396405,2.11167444 L10.8487449,3.17023215 C10.8530395,3.81156329 10.8555555,4.49461291 10.856293,5.21938103 L10.8551186,6.85032136 C10.8545212,7.10727042 10.8537333,7.36869081 10.8527547,7.63458251 C10.8471918,9.14330146 10.1430274,10.5643369 8.94635021,11.4831556 L5.85153288,13.856298 C5.60166362,14.0479007 5.25428581,14.0479007 5.00441655,13.856298 L1.91224164,11.4851818 C0.71395278,10.5675605 0.00921306298,9.146105 0.00357779283,7.63683602 L0,6.29091376 L0,4.81117438 L0.00412196808,3.60213423 C0.00692718109,3.06599833 0.0109894981,2.5691784 0.0163089191,2.11167444 C1.65771043,2.11167444 3.39245533,1.43075074 5.22054361,0.068903353 C5.34361751,-0.0229288912 5.51233192,-0.0229288912 5.63557909,0.0686702161 Z M8.03588319,3.97997816 L4.6245,7.879 L2.82146476,5.73853998 L1.90353524,6.51146002 L4.60728941,9.72247229 L8.93911681,4.77002184 L8.03588319,3.97997816 Z" id="形状结合"></path>
        </g>
    </g>
</svg>