<?xml version="1.0" encoding="UTF-8"?>
<svg width="16px" height="16px" viewBox="0 0 16 16" version="1.1" xmlns="http://www.w3.org/2000/svg" xmlns:xlink="http://www.w3.org/1999/xlink">
    <title>service-catalog-app</title>
    <g id="service-catalog-app" stroke="none" stroke-width="1" fill="none" fill-rule="evenodd">
        <g id="应用性能监控">
            <rect id="矩形" x="0" y="0" width="16" height="16"></rect>
            <path d="M13.4,3.2 C13.9522847,3.2 14.4,3.64771525 14.4,4.2 L14.4,11.8 C14.4,12.3522847 13.9522847,12.8 13.4,12.8 L2.6,12.8 C2.04771525,12.8 1.6,12.3522847 1.6,11.8 L1.6,4.2 C1.6,3.64771525 2.04771525,3.2 2.6,3.2 L13.4,3.2 Z M11.98,9.6 L4.02,9.6 C3.74385763,9.6 3.52,9.82385763 3.52,10.1 C3.52,10.3761424 3.74385763,10.6 4.02,10.6 L11.98,10.6 C12.2561424,10.6 12.48,10.3761424 12.48,10.1 C12.48,9.82385763 12.2561424,9.6 11.98,9.6 Z M7.5,7.57333333 L4.02,7.57333333 C3.74385763,7.57333333 3.52,7.79719096 3.52,8.07333333 C3.52,8.34947571 3.74385763,8.57333333 4.02,8.57333333 L7.5,8.57333333 C7.77614237,8.57333333 8,8.34947571 8,8.07333333 C8,7.79719096 7.77614237,7.57333333 7.5,7.57333333 Z M4.16,5.44 C3.80653776,5.44 3.52,5.72653776 3.52,6.08 C3.52,6.43346224 3.80653776,6.72 4.16,6.72 C4.51346224,6.72 4.8,6.43346224 4.8,6.08 C4.8,5.72653776 4.51346224,5.44 4.16,5.44 Z M6.4,5.44 C6.04653776,5.44 5.76,5.72653776 5.76,6.08 C5.76,6.43346224 6.04653776,6.72 6.4,6.72 C6.75346224,6.72 7.04,6.43346224 7.04,6.08 C7.04,5.72653776 6.75346224,5.44 6.4,5.44 Z" id="形状结合" fill="#BFBFBF"></path>
        </g>
    </g>
</svg>