<?xml version="1.0" encoding="UTF-8"?>
<svg width="16px" height="16px" viewBox="0 0 16 16" version="1.1" xmlns="http://www.w3.org/2000/svg" xmlns:xlink="http://www.w3.org/1999/xlink">
    <title>sprint-planning-app</title>
    <g id="sprint-planning-app" stroke="none" stroke-width="1" fill="none" fill-rule="evenodd">
        <g id="编组">
            <rect id="矩形" x="0" y="0" width="16" height="16"></rect>
        </g>
        <g id="部署编排" transform="translate(1.000000, 1.000000)" fill="#BFBFBF">
            <g id="形状结合备份-2" transform="translate(0.000000, 0.000000)">
                <path d="M4.28571429,0 C4.68020336,0 5,0.325611091 5,0.727272727 L5,7.27272727 C5,7.67438887 4.68020336,8 4.28571429,8 L0.714285714,8 C0.319796643,8 0,7.67438887 0,7.27272727 L0,0.727272727 C0,0.325611091 0.319796643,0 0.714285714,0 L4.28571429,0 Z" id="路径" transform="translate(2.500000, 4.000000) rotate(180.000000) translate(-2.500000, -4.000000) "></path>
                <path d="M13.2857143,6 C13.6802034,6 14,6.32561109 14,6.72727273 L14,13.2727273 C14,13.6743889 13.6802034,14 13.2857143,14 L9.71428571,14 C9.31979661,14 9,13.6743889 9,13.2727273 L9,6.72727273 C9,6.32561109 9.31979661,6 9.71428571,6 L13.2857143,6 Z" id="路径" transform="translate(11.500000, 10.000000) rotate(180.000000) translate(-11.500000, -10.000000) "></path>
            </g>
            <path d="M13.2727273,0 C13.6743889,0 14,0.319796607 14,0.714285714 L14,4.28571429 C14,4.68020339 13.6743889,5 13.2727273,5 L6.72727273,5 C6.32561109,5 6,4.68020339 6,4.28571429 L6,0.714285714 C6,0.319796607 6.32561109,0 6.72727273,0 L13.2727273,0 Z" id="形状结合-path"></path>
            <path d="M7.27272727,9 C7.67438887,9 8,9.31979664 8,9.71428571 L8,13.2857143 C8,13.6802034 7.67438887,14 7.27272727,14 L0.727272727,14 C0.325611091,14 0,13.6802034 0,13.2857143 L0,9.71428571 C0,9.31979664 0.325611091,9 0.727272727,9 L7.27272727,9 Z" id="形状结合-path"></path>
        </g>
    </g>
</svg>