<?xml version="1.0" encoding="UTF-8"?>
<svg width="16px" height="16px" viewBox="0 0 16 16" version="1.1" xmlns="http://www.w3.org/2000/svg" xmlns:xlink="http://www.w3.org/1999/xlink">
    <title>system-resource-map-app</title>
    <g id="system-resource-map-app" stroke="none" stroke-width="1" fill="none" fill-rule="evenodd">
        <rect id="矩形" fill-opacity="0" fill="#F0F0F0" x="0" y="0" width="16" height="16"></rect>
        <g id="编组-2" transform="translate(7.995559, 8.067220) rotate(-360.000000) translate(-7.995559, -8.067220) translate(1.000000, 1.550000)" fill="#BFBFBF" fill-rule="nonzero">
            <path d="M4.55759318,8.14962729 L6.67277953,9.3708307 L6.67277953,11.8132375 L4.55759318,13.0344409 L2.44240682,11.8132375 L2.44240682,9.3708307 L4.55759318,8.14962729 Z M9.44240682,8.14962729 L11.5575932,9.3708307 L11.5575932,11.8132375 L9.44240682,13.0344409 L7.32722047,11.8132375 L7.32722047,9.3708307 L9.44240682,8.14962729 Z M6.99555906,4.07481365 L9.11074542,5.29601706 L9.11074542,7.73842388 L6.99555906,8.95962729 L4.88037271,7.73842388 L4.88037271,5.29601706 L6.99555906,4.07481365 Z M2.11518635,4.07481365 L4.23037271,5.29601706 L4.23037271,7.73842388 L2.11518635,8.95962729 L2.27373675e-13,7.73842388 L2.27373675e-13,5.29601706 L2.11518635,4.07481365 Z M11.8759318,4.07481365 L13.9911181,5.29601706 L13.9911181,7.73842388 L11.8759318,8.95962729 L9.76074542,7.73842388 L9.76074542,5.29601706 L11.8759318,4.07481365 Z M4.55759318,0 L6.67277953,1.22120341 L6.67277953,3.66361023 L4.55759318,4.88481365 L2.44240682,3.66361023 L2.44240682,1.22120341 L4.55759318,0 Z M9.44240682,0 L11.5575932,1.22120341 L11.5575932,3.66361023 L9.44240682,4.88481365 L7.32722047,3.66361023 L7.32722047,1.22120341 L9.44240682,0 Z" id="形状结合"></path>
        </g>
    </g>
</svg>