<?xml version="1.0" encoding="UTF-8"?>
<svg width="16px" height="16px" viewBox="0 0 16 16" version="1.1" xmlns="http://www.w3.org/2000/svg" xmlns:xlink="http://www.w3.org/1999/xlink">
    <title>tool-library--app</title>
    <g id="tool-library--app" stroke="none" stroke-width="1" fill="none" fill-rule="evenodd">
        <rect id="矩形" fill="#000000" opacity="0" x="0" y="0" width="16" height="16"></rect>
        <g id="编组-38" transform="translate(1.0033, 1.0033)" fill="#BFBFBF">
            <path d="M7.58093773,-1.17552575 C7.64113633,-1.17552575 7.69898167,-1.11426066 7.71021452,-1.03868635 L8.12202231,1.42442284 C8.12530229,1.44212144 8.13024691,1.50600915 8.12965232,1.52325129 L7.90473092,2.07440998 C7.90193785,2.1199645 7.87489203,2.16017134 7.83595856,2.18415047 C7.83884384,2.20113991 7.83983902,2.21932688 7.83991396,2.23773129 L7.86053216,7.07988427 C8.34685319,7.38191383 8.67126374,7.91992951 8.67382844,8.534029 L8.69429792,13.4353085 C8.69819873,14.3693321 7.94418526,15.12967 7.0101617,15.1335708 L6.99638546,15.1335722 C6.05248326,15.1298254 5.28817343,14.3656737 5.28423136,13.4217723 L5.26376188,8.5204928 C5.26108289,7.87902604 5.61588471,7.31948052 6.14096779,7.03062598 L6.12246435,2.23953311 L6.12593884,2.19617123 C6.07457744,2.17553495 6.0368009,2.1287815 6.03359115,2.07440998 L5.83323196,1.52325129 C5.83263738,1.50600915 5.837582,1.44212144 5.84086198,1.42442284 L6.25266977,-1.03868635 C6.26390262,-1.11426066 6.32174796,-1.17552575 6.38194655,-1.17552575 L7.58093773,-1.17552575 Z" id="形状结合" transform="translate(6.979, 6.979) rotate(-45) translate(-6.979, -6.979)"></path>
            <path d="M9.72096266,5.43962994 C10.6657411,5.44388838 11.4303612,6.20914287 11.4338361,7.15392454 L11.4528669,12.3281468 C11.4563052,13.2629938 10.7012494,14.0236244 9.76640236,14.0270628 C9.76178397,14.0270797 9.75716553,14.0270778 9.75254715,14.027057 C8.80776869,14.0227986 8.04314859,13.2575441 8.03967369,12.3127624 L8.02064294,7.13854011 C8.01720458,6.20369312 8.77226046,5.44306256 9.70710745,5.4396242 C9.71172584,5.43960721 9.71634428,5.43960913 9.72096266,5.43962994 Z" id="矩形备份-23" transform="translate(9.7368, 9.7333) rotate(-405) translate(-9.7368, -9.7333)"></path>
            <path d="M11.9932749,1.03243199 L10.1021855,2.94036265 C9.73461987,3.31117642 9.73461987,3.90894676 10.1021855,4.27976053 C10.474625,4.64898862 11.0664378,4.64638525 11.4298511,4.27976053 L13.3212018,2.37221418 C13.9473421,3.57438726 13.7594544,5.09542885 12.7575388,6.10623437 C11.8466418,7.02514791 10.5177266,7.26531849 9.38832013,6.82674612 L4.43541579,11.824411 C4.42179457,12.2902809 4.23875929,12.7520469 3.88630998,13.1076234 C3.15304736,13.8473393 1.96421513,13.8473393 1.23095251,13.1076234 C0.497716253,12.3678812 0.497716253,11.1685435 1.23095251,10.4288013 C1.58332594,10.0733267 2.04090571,9.88867745 2.50257684,9.87485344 L7.51449716,4.81856949 C7.16968373,3.72068487 7.42875479,2.47155508 8.29171034,1.60094259 C9.29373254,0.590101881 10.8015926,0.400598349 11.9932749,1.03243199 Z M2.07583778,11.0376257 C1.74254857,11.3738722 1.74254857,11.9190257 2.07583778,12.2552721 C2.40913897,12.5915066 2.94951726,12.5915066 3.28281845,12.2552721 C3.61610766,11.9190257 3.61610766,11.3738722 3.28281845,11.0376257 C2.94951726,10.7013912 2.40913897,10.7013912 2.07583778,11.0376257 Z" id="形状结合"></path>
        </g>
    </g>
</svg>