<?xml version="1.0" encoding="UTF-8"?>
<svg width="16px" height="16px" viewBox="0 0 16 16" version="1.1" xmlns="http://www.w3.org/2000/svg" xmlns:xlink="http://www.w3.org/1999/xlink">
    <title>topology-center-app</title>
    <g id="topology-center-app" stroke="none" stroke-width="1" fill="none" fill-rule="evenodd">
        <rect id="矩形" fill="#000000" opacity="0" x="0" y="0" width="16" height="16"></rect>
        <g id="编组" transform="translate(1.000000, 1.000000)" fill="#BFBFBF">
            <path d="M7,0 C8.44974747,0 9.625,1.17525253 9.625,2.625 C9.625,3.86804658 8.760985,4.90929164 7.60075196,5.18093823 L7.6,6.399625 L11.375,6.4 C11.7063708,6.4 11.975,6.66862915 11.975,7 L11.975752,8.81906177 C13.135985,9.09070836 14,10.1319534 14,11.375 C14,12.8247475 12.8247475,14 11.375,14 C9.92525253,14 8.75,12.8247475 8.75,11.375 C8.75,10.1315983 9.6145088,9.09011338 10.7752426,8.81882912 L10.775,7.599625 L3.225,7.599625 L3.22575196,8.81906177 C4.385985,9.09070836 5.25,10.1319534 5.25,11.375 C5.25,12.8247475 4.07474747,14 2.625,14 C1.17525253,14 0,12.8247475 0,11.375 C0,10.1315983 0.864508796,9.09011338 2.0252426,8.81882912 L2.025,7 C2.025,6.66862915 2.29362915,6.4 2.625,6.4 L6.4,6.399625 L6.4002426,5.18117088 C5.2395088,4.90988662 4.375,3.86840174 4.375,2.625 C4.375,1.17525253 5.55025253,0 7,0 Z" id="形状结合"></path>
        </g>
    </g>
</svg>