<?xml version="1.0" encoding="UTF-8"?>
<svg width="16px" height="16px" viewBox="0 0 16 16" version="1.1" xmlns="http://www.w3.org/2000/svg" xmlns:xlink="http://www.w3.org/1999/xlink">
    <title>tuna-app</title>
    <g id="tuna-app" stroke="none" stroke-width="1" fill="none" fill-rule="evenodd">
        <g id="编组">
            <rect id="矩形" x="0" y="0" width="16" height="16"></rect>
            <g transform="translate(1.000000, 1.000000)" fill="#BFBFBF">
                <path d="M9.86724243,11.3986116 L11.0924191,11.4628568 L11.0261559,12.7269778 C9.88740191,13.5290128 8.49870344,14 7,14 C6.81631364,14 6.63427973,13.9929249 6.45415598,13.9790324 L7.4102998,13.0871725 L6.61667729,12.2362195 C6.74326079,12.2453537 6.87108779,12.25 7,12.25 C8.05802276,12.25 9.04294683,11.9370273 9.86724243,11.3986116 Z M5.67477047,12.0813086 L6.58583715,13.05859 L5.70486849,13.8804256 C4.139192,13.5875392 2.75707959,12.7734374 1.74549821,11.6250872 L3.05983486,11.6708535 L3.10014247,10.5148357 C3.77679997,11.2651359 4.66690432,11.8191885 5.67477047,12.0813086 Z M13.0277656,7.51254265 L13.8482539,8.45653711 C13.5319446,9.9510967 12.7387528,11.2696243 11.6353915,12.2454068 L11.705237,10.9105798 L10.5681402,10.8511199 C11.2881795,10.1836736 11.8207094,9.31678032 12.0778988,8.33827105 L13.0277656,7.51254265 Z M0.021132087,6.45202743 L0.912868509,7.40841527 L1.76393411,6.61455422 C1.75469837,6.74183145 1.75,6.87036703 1.75,7 C1.75,8.01860339 2.04008597,8.96945359 2.54215159,9.77444425 L2.49695469,11.0675408 L1.27195594,11.0246415 C0.470569826,9.88617088 0,8.49803917 0,7 C0,6.81559005 0.00713093043,6.63284562 0.021132087,6.45202743 Z M11.6449673,3.0962823 L12.8827369,3.2045884 C13.5896433,4.29801032 14,5.60108317 14,7 C14,7.23706562 13.9882154,7.47137881 13.9652,7.70238569 L13.0851059,6.68958199 L12.2325766,7.4308252 C12.244117,7.28874123 12.25,7.14505762 12.25,7 C12.25,6.03498015 11.9896312,5.13077271 11.5353106,4.35379472 L11.6449673,3.0962823 Z M2.43742137,1.69108447 L2.39166666,3.00150154 L3.55070021,3.04201733 C2.7678161,3.72485534 2.18939992,4.63618147 1.91940058,5.67204677 L0.9414531,6.58395062 L0.119916696,5.70304018 C0.41838857,4.10985823 1.25657307,2.70685669 2.43742137,1.69108447 Z M12.4275647,2.57907218 L11.1146397,2.46458334 L11.01409,3.61609789 C10.3532814,2.83302783 9.46749915,2.24598555 8.4564168,1.95464457 L7.41662457,0.914638017 L8.22448821,0.106735604 C9.91079536,0.404246622 11.3888764,1.30541436 12.4275647,2.57907218 Z M7,0 C7.16456312,0 7.32779996,0.00567861304 7.48952522,0.0168505826 L6.59166666,0.914842174 L7.44573812,1.76865591 C7.2987974,1.75630201 7.15013466,1.75 7,1.75 C6.0206601,1.75 5.10395078,2.01815344 4.31928995,2.48504246 L2.99497143,2.43884806 L3.0370875,1.22899673 C4.16384537,0.45377917 5.52892979,0 7,0 Z" id="形状结合"></path>
                <circle id="椭圆形" cx="7" cy="7" r="2"></circle>
            </g>
        </g>
    </g>
</svg>