<?xml version="1.0" encoding="UTF-8"?>
<svg width="16px" height="16px" viewBox="0 0 16 16" version="1.1" xmlns="http://www.w3.org/2000/svg" xmlns:xlink="http://www.w3.org/1999/xlink">
    <title>uwin-products-gtm-app</title>
    <g id="uwin-products-gtm-app" stroke="none" stroke-width="1" fill="none" fill-rule="evenodd">
        <rect id="矩形" fill="#000000" opacity="0" x="0" y="0" width="16" height="16"></rect>
        <g id="流程库" transform="translate(1, 2)" fill="#BFBFBF">
            <path d="M3.29411765,0.827272727 C4.55277157,0.827272727 5.64655138,1.53639143 6.20114807,2.57861844 C6.1752764,2.5775384 6.15016923,2.57727273 6.125,2.57727273 C5.83827217,2.57727273 5.5595972,2.61175115 5.2928949,2.67678822 C4.84384825,2.05752723 4.11583072,1.65454545 3.29411765,1.65454545 C1.92964944,1.65454545 0.823529412,2.7656933 0.823529412,4.13636364 C0.823529412,5.28515096 1.60051954,6.25163763 2.65538682,6.53444197 C2.69516968,6.84503086 2.77619171,7.14216053 2.89225126,7.4210488 C1.26328945,7.22281496 0,5.82778841 0,4.13636364 C0,2.30880319 1.47482671,0.827272727 3.29411765,0.827272727 Z" id="形状结合"></path>
            <path d="M7.96078431,0 C11.296151,0 14,2.71613918 14,6.06666667 C14,9.41719415 11.296151,12.1333333 7.96078431,12.1333333 C4.62541759,12.1333333 1.92156863,9.41719415 1.92156863,6.06666667 C1.92156863,2.71613918 4.62541759,0 7.96078431,0 Z M7.96078431,2.75757576 C7.82906468,2.75757576 7.70612635,2.82762894 7.6446572,2.95022199 L6.81921416,4.62274162 L4.96635797,4.89419768 C4.83463834,4.91171099 4.72926262,5.00803411 4.68535606,5.13062715 C4.64144954,5.25322023 4.67657477,5.39332659 4.77316917,5.4896497 L6.11670945,6.79439014 L5.80058231,8.63328607 C5.78301969,8.76463577 5.83570754,8.89598547 5.94108326,8.97479531 C6.00255243,9.01857855 6.08158419,9.04484848 6.15183468,9.04484848 C6.20452253,9.04484848 6.25721037,9.0273352 6.30989822,9.00106524 L7.96956564,8.13415716 L9.62923302,9.00106524 C9.74339004,9.06236177 9.89267229,9.05360514 9.99804798,8.97479531 C10.1034237,8.89598547 10.1648929,8.76463577 10.1385489,8.63328607 L9.82242182,6.79439014 L11.1483995,5.4896497 C11.2449939,5.39332659 11.2801191,5.25322023 11.2362126,5.13062715 C11.2010873,5.00803411 11.0869303,4.91171099 10.9552107,4.89419768 L9.10235447,4.62274162 L8.27691142,2.95022199 C8.21544228,2.83638559 8.09250395,2.75757576 7.96078431,2.75757576 Z M7.96078431,3.92678788 L8.51331765,5.10637872 C8.56207059,5.20970056 8.65145098,5.27858178 8.75708235,5.29580206 L9.99215686,5.48522543 L9.09835294,6.40651169 C9.01709804,6.48400307 8.98459608,6.59593505 9.00084706,6.70786703 L9.2121098,8.008 L8.10704314,7.3966792 C8.0582902,7.37084874 8.00141176,7.35362843 7.95265882,7.35362843 C7.90390588,7.35362843 7.84702745,7.3622386 7.8064,7.3966792 L6.70133333,8.008 L6.92072157,6.70786703 C6.93697255,6.59593505 6.8963451,6.48400307 6.82321569,6.40651169 L5.92941176,5.48522543 L7.16448627,5.29580206 C7.27011765,5.27858178 7.35949804,5.20970056 7.40825098,5.10637872 L7.96078431,3.92678788 Z" id="形状结合"></path>
        </g>
    </g>
</svg>