<?xml version="1.0" encoding="UTF-8"?>
<svg width="16px" height="16px" viewBox="0 0 16 16" version="1.1" xmlns="http://www.w3.org/2000/svg" xmlns:xlink="http://www.w3.org/1999/xlink">
    <title>workbench-app</title>
    <g id="workbench-app" stroke="none" stroke-width="1" fill="none" fill-rule="evenodd">
        <g id="编组" transform="translate(1.000000, 1.000000)" fill="#BFBFBF">
            <path d="M13,0 C13.5522847,-1.01453063e-16 14,0.44771525 14,1 L14,9.5 C14,10.0522847 13.5522847,10.5 13,10.5 L1,10.5 C0.44771525,10.5 -4.87476137e-16,10.0522847 0,9.5 L0,1 C-6.76353751e-17,0.44771525 0.44771525,1.01453063e-16 1,0 L13,0 Z M10.478125,1.6625 C9.75325127,1.6625 9.165625,2.25012627 9.165625,2.975 C9.165625,3.37689572 9.34626055,3.73660174 9.63077236,3.97735878 L9.03090807,5.17665048 C8.96779016,5.16732865 8.90320897,5.1625 8.8375,5.1625 C8.58958312,5.1625 8.35772055,5.2312367 8.1599304,5.350692 L6.83241389,4.37673345 C6.85616758,4.27795184 6.86875,4.17482031 6.86875,4.06875 C6.86875,3.34387627 6.28112373,2.75625 5.55625,2.75625 C4.83137627,2.75625 4.24375,3.34387627 4.24375,4.06875 C4.24375,4.39124087 4.36005846,4.68656644 4.55301627,4.91506759 L3.90088764,5.96577284 C3.80046534,5.94117089 3.69550619,5.928125 3.5875,5.928125 C2.86262627,5.928125 2.275,6.51575127 2.275,7.240625 C2.275,7.96549873 2.86262627,8.553125 3.5875,8.553125 C4.31237373,8.553125 4.9,7.96549873 4.9,7.240625 C4.9,7.01200452 4.84154701,6.79703647 4.73877084,6.60985066 L5.50174715,5.38013889 C5.5198229,5.38087723 5.53799292,5.38125 5.55625,5.38125 C5.7898389,5.38125 6.00917553,5.32022878 6.1991887,5.21325753 L7.55251092,6.20638665 C7.53447782,6.29309574 7.525,6.38294104 7.525,6.475 C7.525,7.19987373 8.11262627,7.7875 8.8375,7.7875 C9.56237373,7.7875 10.15,7.19987373 10.15,6.475 C10.15,6.20227523 10.0668187,5.94897849 9.92444251,5.73909615 L10.6558875,4.27556396 C11.296683,4.18880119 11.790625,3.63958376 11.790625,2.975 C11.790625,2.25012627 11.2029987,1.6625 10.478125,1.6625 Z" id="形状结合"></path>
            <path d="M5.38754028,11.375 L8.61245972,11.375 C8.90930535,11.375 9.37052951,11.7107864 9.64263271,12.125 L10.3816624,13.25 C10.6537656,13.6642136 10.4406975,14 9.90576159,14 L4.09423841,14 C3.55930248,14 3.34623444,13.6642136 3.61833764,13.25 L4.35736729,12.125 C4.62947049,11.7107864 5.09069465,11.375 5.38754028,11.375 Z" id="矩形"></path>
        </g>
    </g>
</svg>