<?xml version="1.0" encoding="UTF-8"?>
<svg width="16px" height="16px" viewBox="0 0 16 16" version="1.1" xmlns="http://www.w3.org/2000/svg" xmlns:xlink="http://www.w3.org/1999/xlink">
    <title>work-order-center-app</title>
    <g id="work-order-center-app" stroke="none" stroke-width="1" fill="none" fill-rule="evenodd">
        <g id="编组备份" transform="translate(1.000000, 1.000000)" fill="#BFBFBF">
            <path d="M2.37516985,0 L2.37516985,1.77428535 C2.37516985,2.10841763 2.64603758,2.37928535 2.98016985,2.37928535 L8.43216884,2.37928535 C8.76630111,2.37928535 9.03716884,2.10841763 9.03716884,1.77428535 L9.03716884,0 L10.2105697,0 C10.8788342,-1.3098345e-15 11.4205697,0.541735453 11.4205697,1.21 L11.420145,6.62027381 C11.0097278,6.46893191 10.5660596,6.38628687 10.1030887,6.38628687 C8.00061985,6.38628687 6.29623211,8.09067461 6.29623211,10.1931434 C6.29623211,11.4917531 6.94646137,12.6384935 7.9391031,13.325548 L1.21,13.323998 C0.541735453,13.323998 8.18388039e-17,12.7822625 0,12.113998 L0,1.21 C-8.18388039e-17,0.541735453 0.541735453,1.22758206e-16 1.21,0 L2.37516985,0 Z M13.2612155,8.31213092 C13.5003161,8.54155958 13.5081568,8.92137765 13.2787282,9.16047831 L10.4830319,12.0740325 C10.2506614,12.316199 9.86483859,12.3206712 9.62691727,12.083956 L7.97652068,10.4419263 C7.74161141,10.208208 7.74064599,9.82831022 7.97436436,9.59340095 C8.20808272,9.35849168 8.58798048,9.35752626 8.82288975,9.59124463 L10.0397052,10.802061 L12.4128681,8.32964363 C12.6422967,8.09054296 13.0221148,8.08270226 13.2612155,8.31213092 Z M5.4206551,8.67040081 L2.37516985,8.67040081 L2.37516985,9.62211495 L5.4206551,9.62211495 L5.4206551,8.67040081 Z M6.18202642,6.5766297 L2.37516985,6.5766297 L2.37516985,7.52834384 L6.18202642,7.52834384 L6.18202642,6.5766297 Z M9.03716884,4.48285859 L2.37516985,4.48285859 L2.37516985,5.43457273 L9.03716884,5.43457273 L9.03716884,4.48285859 Z M8.0854547,0 L8.0854547,1.42757121 L3.32688399,1.42757121 L3.32688399,0 L8.0854547,0 Z" id="形状结合"></path>
        </g>
    </g>
</svg>