<svg width="24" height="24" viewBox="0 0 24 24" xmlns="http://www.w3.org/2000/svg"><path d="M12 0a.5.5 0 0 1 .5.5v2.013a9.5 9.5 0 0 1 8.987 8.988L23.5 11.5a.5.5 0 0 1 0 1h-2.013a9.5 9.5 0 0 1-8.987 8.987V23.5a.5.5 0 0 1-1 0v-2.013A9.5 9.5 0 0 1 2.514 12.5H.5a.5.5 0 0 1 0-1h2.013A9.5 9.5 0 0 1 11.5 2.514L11.5.5A.5.5 0 0 1 12 0zM3.514 11.5H7.5a.5.5 0 0 1 0 1H3.514a8.501 8.501 0 0 0 7.987 7.986L11.5 16.5a.5.5 0 0 1 1 0v3.986a8.501 8.501 0 0 0 7.986-7.986H16.5a.5.5 0 0 1 0-1h3.986A8.501 8.501 0 0 0 12.5 3.515V7.5a.5.5 0 0 1-1 0V3.514a8.501 8.501 0 0 0-7.986 7.987zm8.486-1a1.5 1.5 0 1 1 0 3 1.5 1.5 0 0 1 0-3z" fill-rule="nonzero"/></svg>
