<svg t="1565006339090" class="icon" viewBox="0 0 1024 1024" version="1.1" xmlns="http://www.w3.org/2000/svg" p-id="16008" width="128" height="128"><path d="M512 76.8a435.2 435.2 0 1 0 435.2 435.2A435.712 435.712 0 0 0 512 76.8z m0 819.2a384 384 0 1 1 384-384 384 384 0 0 1-384 384z" p-id="16009"></path><path d="M744.448 486.4h-204.8v-204.8a25.6 25.6 0 1 0-51.2 0v204.8h-204.8a25.6 25.6 0 0 0 0 51.2h204.8v204.8a25.6 25.6 0 0 0 51.2 0v-204.8h204.8a25.6 25.6 0 0 0 0-51.2z" p-id="16010"></path></svg>
