<?xml version="1.0" encoding="UTF-8"?>
<svg width="28px" height="28px" viewBox="0 0 28 28" version="1.1" xmlns="http://www.w3.org/2000/svg" xmlns:xlink="http://www.w3.org/1999/xlink">
    <title>configmap</title>
    <g id="应用服务的依赖资源" stroke="none" stroke-width="1" fill="none" fill-rule="evenodd">
        <g id="画框" transform="translate(-389, -35)">
            <g id="configmap" transform="translate(389, 35)">
                <rect id="矩形" x="0" y="0" width="28" height="28"></rect>
                <g transform="translate(1, 1.58)" fill="#1A7AFF" fill-rule="nonzero" id="形状">
                    <path d="M25.9610486,15.1192311 L23.6931639,5.6157144 C23.5851694,5.07574187 23.2611859,4.64376383 22.7212133,4.42777482 L13.7576692,0.215989032 C13.5416802,0.107994516 13.2176967,0 12.8937132,0 C12.6777242,0 12.4617351,0.107994516 12.2457461,0.215989032 L3.282202,4.42777482 C2.74222947,4.64376383 2.41824594,5.07574187 2.31025143,5.6157144 L0.0423667719,15.1192311 C-0.065627744,15.5512091 0.0423667719,15.9831871 0.258355804,16.4151651 L0.366350294,16.5231596 L6.63003173,24.1907697 C6.95401526,24.6227477 7.49398779,24.8387367 7.92596582,24.8387367 L17.969455,24.8387367 C18.5094275,24.8387367 18.9414056,24.6227477 19.2653891,24.1907697 L25.5290705,16.5231596 C25.9610486,16.0911816 26.0690431,15.6592036 25.9610486,15.1192311 Z M9.86986696,10.2594782 L12.0297571,10.2594782 L12.0297571,11.4474178 L9.86986696,11.4474178 L9.86986696,10.2594782 Z M8.89791639,17.8190937 L6.73802625,17.8190937 L6.73802625,16.6311542 L8.89791639,16.6311542 L8.89791639,17.8190937 Z M8.89791639,8.20758257 L6.73802625,8.20758257 L6.73802625,7.019643 L8.89791639,7.019643 L8.89791639,8.20758257 Z M9.86986696,13.3913189 L12.0297571,13.3913189 L12.0297571,14.5792585 L9.86986696,14.5792585 L9.86986696,13.3913189 Z M19.3733836,17.8190937 L10.517834,17.8190937 L10.517834,16.6311542 L19.3733836,16.6311542 L19.3733836,17.8190937 L19.3733836,17.8190937 Z M19.3733836,14.5792585 L13.7576692,14.5792585 L13.7576692,13.3913189 L19.3733836,13.3913189 L19.3733836,14.5792585 Z M19.3733836,11.4474178 L13.7576692,11.4474178 L13.7576692,10.2594782 L19.3733836,10.2594782 L19.3733836,11.4474178 Z M19.3733836,8.20758257 L10.517834,8.20758257 L10.517834,7.019643 L19.3733836,7.019643 L19.3733836,8.20758257 L19.3733836,8.20758257 Z"></path>
                </g>
            </g>
        </g>
    </g>
</svg>