<?xml version="1.0" encoding="UTF-8"?>
<svg width="28px" height="28px" viewBox="0 0 28 28" version="1.1" xmlns="http://www.w3.org/2000/svg" xmlns:xlink="http://www.w3.org/1999/xlink">
    <title>secret</title>
    <g id="应用服务的依赖资源" stroke="none" stroke-width="1" fill="none" fill-rule="evenodd">
        <g id="画框" transform="translate(-463, -35)">
            <g id="secret" transform="translate(463, 35)">
                <rect id="矩形" x="0" y="0" width="28" height="28"></rect>
                <g transform="translate(1, 1.38)" fill="#1A7AFF" fill-rule="nonzero" id="形状结合">
                    <path d="M12.9101626,0.00223791449 C13.1990865,-0.0124291155 13.487108,0.0451751957 13.7481658,0.169838558 L22.7878372,4.48655458 C23.2620394,4.71258481 23.6061589,5.14065838 23.7233256,5.64930327 L25.9565657,15.3507666 C26.0737324,15.859719 25.9510303,16.3935809 25.6225945,16.8016654 L19.3687841,24.581718 C19.0403483,24.9891874 18.5430818,25.225981 18.0172156,25.2256735 L7.98393376,25.2278262 C7.45806752,25.2278262 6.96080103,24.99011 6.6326728,24.5826406 L0.376402164,16.803818 C0.341344415,16.7598421 0.308439335,16.7143285 0.277994447,16.6672773 C0.0241622504,16.2793499 -0.0605703953,15.8047138 0.043353546,15.3529193 L2.27321092,5.65176346 C2.39068513,5.14311857 2.73480462,4.715045 3.20869928,4.48870725 L12.2477556,0.169838558 C12.4550269,0.0708157925 12.6804421,0.0139238309 12.9101626,0.00223791449 Z M20.2689072,18.4340034 L10.1273769,18.4340034 L10.1273769,19.0490516 L20.2689072,19.0490516 L20.2689072,18.4340034 Z M8.28961274,18.4340034 L5.75069363,18.4340034 L5.75069363,19.0490516 L8.28961274,19.0490516 L8.28961274,18.4340034 Z M13.0202562,6.4580917 C12.0318737,6.4580917 11.1289829,6.79944347 10.4382837,7.36313517 L10.1273769,7.36313517 L10.1273769,7.64636488 C9.50679319,8.27740437 9.11839023,9.1117173 9.08979049,10.0309069 L8.11985942,10.0309069 L8.11985942,16.4092646 L17.8988188,16.4092646 L17.8988188,15.3587622 L20.2689072,15.3587622 L20.2689072,14.743714 L17.8985113,14.743714 L17.8985113,11.6684728 L20.2689072,11.6684728 L20.2689072,11.0534246 L17.8985113,11.0534246 L17.8985113,10.0309069 L16.9501069,10.0309069 C16.92612,9.26517183 16.6524236,8.55786637 16.2028233,7.97818341 L20.2689072,7.97818341 L20.2689072,7.36313517 L15.6019212,7.36313517 C14.911222,6.79944347 14.0083312,6.4580917 13.0202562,6.4580917 Z M13.0091854,12.2524611 C13.5430472,12.2524611 13.9757337,12.6857626 13.9757337,13.2202395 C13.9757337,13.7547164 13.5430472,14.1880179 13.0091854,14.1880179 C12.4753235,14.1880179 12.0426371,13.7547164 12.0426371,13.2202395 C12.0426371,12.6857626 12.4753235,12.2524611 13.0091854,12.2524611 Z M13.0199487,8.29923858 C14.1338011,8.29923858 15.0446875,9.06497363 15.1092675,10.0309069 L10.9309374,10.0309069 C10.9955174,9.06528116 11.9060963,8.29954611 13.0199487,8.29923858 Z M8.28961274,7.36313517 L5.75069363,7.36313517 L5.75069363,7.97818341 L8.28961274,7.97818341 L8.28961274,7.36313517 Z"></path>
                </g>
            </g>
        </g>
    </g>
</svg>