<?xml version="1.0" encoding="UTF-8"?>
<svg width="28px" height="28px" viewBox="0 0 28 28" version="1.1" xmlns="http://www.w3.org/2000/svg" xmlns:xlink="http://www.w3.org/1999/xlink">
    <title>node</title>
    <g id="应用服务的依赖资源" stroke="none" stroke-width="1" fill="none" fill-rule="evenodd">
        <g id="画框" transform="translate(-315, -35)">
            <g id="node" transform="translate(315, 35)">
                <rect id="矩形" x="0" y="0" width="28" height="28"></rect>
                <g id="BCSNode" transform="translate(1, 1.32)" fill="#1A7AFF" fill-rule="nonzero">
                    <path d="M13.0202406,0 C13.2677063,0.00437218563 13.9825587,0.266703323 13.9825587,0.266703323 L22.8344857,4.52870987 C22.8344857,4.52870987 23.3744506,4.80415757 23.4977462,4.97729612 C23.6236652,5.14868579 23.7360304,5.79008542 23.7360304,5.79008542 L25.8770897,15.1727958 C25.8770897,15.1727958 26.0502282,15.7123235 25.9855199,16.2347997 C25.9356769,16.4534089 25.5023933,16.9933739 25.5023933,16.9933739 L19.2615356,24.8222095 C19.2615356,24.8222095 19.0446752,25.1475001 18.8496757,25.277354 C18.7132635,25.3661093 18.1929734,25.3424995 18.1929734,25.3424995 L7.84401004,25.3424995 C7.84401004,25.3424995 7.38449333,25.4076451 7.2542022,25.277354 C7.16763292,25.2340693 7.05220722,25.1042154 6.98487557,25.0220183 L6.94421424,24.9717382 C6.93920455,24.965368 6.93424922,24.9589552 6.92934881,24.9525006 L0.363637653,16.7830717 L0.183503605,16.501503 L0.0536496923,16.2413579 C-0.0394778616,16.0568517 0.016923333,15.8120093 0.016923333,15.8120093 L0.0860038659,15.5090169 L2.37877801,5.46523203 C2.37877801,5.46523203 2.47846384,5.05774433 2.58252186,4.9274532 C2.68439378,4.79978538 3.10718413,4.57855279 3.10718413,4.57855279 L12.1169471,0.238284117 L12.1681016,0.220795374 L12.3001416,0.176636299 C12.5174393,0.105806892 12.8676513,0 13.0206778,0 L13.0202406,0 Z M16.8896249,21.7253904 C16.5529666,21.7253904 16.2862633,21.8390672 16.0938871,22.070793 C15.8927666,22.2981467 15.7965785,22.5779666 15.7965785,22.9146249 C15.7965785,23.2906328 15.9015109,23.5835693 16.1113758,23.7978064 C16.3081242,24.0032991 16.5748275,24.1082315 16.9114858,24.1082315 C17.2131666,24.1082315 17.4623812,24.0207878 17.6635017,23.8502726 C17.8209004,23.7103627 17.9258329,23.531103 17.9782991,23.3212381 L17.4798699,23.3212381 C17.4186593,23.4480315 17.3530766,23.5398474 17.2787494,23.5966858 C17.1825613,23.6666408 17.0601401,23.7016183 16.9071136,23.7016183 C16.727854,23.7016183 16.5879441,23.6447799 16.491756,23.5354752 C16.3955679,23.4261706 16.3387295,23.2643997 16.3212408,23.0545348 L18.0132766,23.0545348 C18.0132766,22.6479215 17.9214607,22.328752 17.7422011,22.1013983 C17.5454527,21.8478116 17.2612607,21.7253904 16.8896249,21.7253904 L16.8896249,21.7253904 Z M15.4030818,20.8640698 L14.9046526,20.8640698 L14.9046526,22.0970262 C14.7166486,21.8478116 14.4936672,21.7253904 14.231336,21.7253904 C13.9077943,21.7253904 13.6498353,21.8434394 13.4662035,22.0795374 C13.2913161,22.2981467 13.2082446,22.5735944 13.2082446,22.9058805 C13.2082446,23.2512832 13.2956883,23.5354752 13.4705757,23.7540845 C13.6585797,23.9901825 13.9209108,24.1082315 14.2575691,24.1082315 C14.5548778,24.1082315 14.7822314,24.0076713 14.9396301,23.8065507 L14.9396301,24.0470209 L15.4030818,24.0470209 L15.4030818,20.8640698 Z M11.7217015,21.7253904 C11.3762988,21.7253904 11.1008511,21.834695 10.8953584,22.0620487 C10.6854935,22.2850301 10.5849332,22.5692222 10.5849332,22.9189971 C10.5849332,23.2643997 10.6854935,23.5485918 10.8909862,23.7672011 C11.1008511,23.9945547 11.3762988,24.1082315 11.7217015,24.1082315 C12.062732,24.1082315 12.3425518,23.9945547 12.5524167,23.7672011 C12.7535373,23.5485918 12.8584697,23.2643997 12.8584697,22.9189971 C12.8584697,22.5692222 12.7535373,22.2850301 12.5480446,22.0620487 C12.3381796,21.834695 12.062732,21.7253904 11.7217015,21.7253904 L11.7217015,21.7253904 Z M9.29951064,21.7253904 C9.16397288,21.7253904 9.04155168,21.7516235 8.92787486,21.8084619 C8.81857022,21.8609281 8.71800995,21.9439997 8.63056624,22.0489321 L8.63056624,21.786601 L8.13213707,21.786601 L8.13213707,24.0470209 L8.63056624,24.0470209 L8.63056624,22.6872712 C8.64805498,22.5080116 8.70926558,22.3681017 8.81419803,22.2719136 C8.90601393,22.1844699 9.01531857,22.140748 9.13773977,22.140748 C9.47877025,22.140748 9.64928549,22.3243798 9.64928549,22.6960156 L9.64928549,24.0470209 L10.1477146,24.0470209 L10.1477146,22.6522937 C10.1477146,22.0314434 9.86352258,21.7253904 9.29951064,21.7253904 L9.29951064,21.7253904 Z M14.349385,22.1276315 C14.5067837,22.1276315 14.6423215,22.1932142 14.7472539,22.3243798 C14.8609308,22.4642897 14.9221414,22.6566659 14.9221414,22.8971361 L14.9221414,22.9321136 C14.9221414,23.1507229 14.8740473,23.3343547 14.7822314,23.4742646 C14.677299,23.6272911 14.5242725,23.7059905 14.3318963,23.7059905 C14.1089148,23.7059905 13.947144,23.6272911 13.8465837,23.4698924 C13.75914,23.3387269 13.7197903,23.1507229 13.7197903,22.9058805 C13.7197903,22.6610381 13.7635122,22.4774063 13.8553281,22.3506129 C13.9602605,22.2019586 14.1220314,22.1276315 14.349385,22.1276315 L14.349385,22.1276315 Z M11.7217015,22.1320036 C11.9271942,22.1320036 12.0889651,22.210703 12.2026419,22.376846 C12.29883,22.516756 12.3512962,22.7003878 12.3512962,22.9189971 C12.3512962,23.1332341 12.29883,23.3124938 12.2026419,23.4567759 C12.0889651,23.6185468 11.9271942,23.7016183 11.7217015,23.7016183 C11.5118366,23.7016183 11.3544379,23.6185468 11.2407611,23.4567759 C11.144573,23.3168659 11.0964789,23.1376063 11.0964789,22.9189971 C11.0964789,22.7003878 11.144573,22.516756 11.2407611,22.376846 C11.3544379,22.210703 11.5118366,22.1320036 11.7217015,22.1320036 Z M16.9027414,22.1320036 C17.2525163,22.1320036 17.4492646,22.3112633 17.4929865,22.6785268 L16.3299851,22.6785268 C16.3605904,22.4992672 16.421801,22.3637295 16.5136169,22.2719136 C16.609805,22.1757255 16.7365984,22.1320036 16.9027414,22.1320036 Z M13.02505,2.62331138 C12.8667769,2.62331138 12.4020136,2.78770556 12.4020136,2.78770556 L6.18826334,5.78090383 C6.18826334,5.78090383 5.89663856,5.93349311 5.82668359,6.02137404 C5.75497975,6.11144107 5.68589922,6.39213539 5.68589922,6.39213539 L4.10535411,13.3189891 L4.05726007,13.5284168 C4.05726007,13.5284168 4.01878484,13.6971831 4.08305597,13.8239765 L4.17268577,14.0032361 L4.29641862,14.1977984 L8.82469128,19.8317968 C8.82469128,19.8317968 8.95935459,20.0110564 9.0489844,20.0560899 C9.1386142,20.1457197 9.45559766,20.1006862 9.45559766,20.1006862 L16.5966884,20.1006862 L16.6500291,20.1024351 L16.7344123,20.1024351 C16.8454658,20.1011234 16.9901852,20.0919418 17.0452747,20.0560899 C17.179938,19.9664601 17.3294668,19.742167 17.3294668,19.742167 L21.6334463,14.3425177 C21.6334463,14.3425177 21.9320666,13.9708819 21.9666068,13.8196043 C22.0112031,13.4593362 21.8918425,13.0872632 21.8918425,13.0872632 L20.4153554,6.61642851 C20.4153554,6.61642851 20.3375305,6.17396332 20.2509612,6.05591431 C20.1657036,5.93655364 19.7936306,5.74680079 19.7936306,5.74680079 L13.6887478,2.80694317 C13.6887478,2.80694317 13.1955652,2.62637191 13.02505,2.62331138 Z M14.4840484,11.8049012 L15.2902794,11.8057756 C15.4297521,11.8057756 15.5351218,11.9168291 15.5351218,12.0475575 L15.6151328,12.7930151 C15.8061973,12.8450442 15.9911407,12.9311762 16.1572838,13.0090011 L16.7790086,12.5577916 C16.8585824,12.4790922 17.023851,12.4790922 17.1025503,12.5577916 L17.6722461,13.1204918 C17.7518199,13.1991912 17.7518199,13.3627109 17.6722461,13.4414103 L17.2153527,14.0299065 C17.301922,14.192989 17.3806213,14.377058 17.433962,14.5672481 L18.1610565,14.6708689 C18.2939709,14.6708689 18.4063361,14.7561265 18.3464371,14.9393211 L18.3464371,15.7512359 C18.346207,15.8158212 18.3202391,15.8776501 18.2742838,15.923031 C18.2283285,15.9684119 18.1661778,15.9936001 18.1015947,15.9930178 L17.3745003,16.0717171 C17.322034,16.26147 17.2621351,16.4446646 17.155891,16.6086215 L17.6193427,17.1713218 C17.6984792,17.2500212 17.6984792,17.4139781 17.6193427,17.491803 L17.0505213,18.0549405 C16.9709475,18.1336399 16.8052417,18.1336399 16.7256679,18.0549405 L16.1572838,17.5958611 C15.9649076,17.7073518 15.7799642,17.7860511 15.5880252,17.8389546 L15.5084514,18.5586163 C15.5082213,18.6232016 15.4822534,18.6850305 15.4362981,18.7304114 C15.3903428,18.7757923 15.3281921,18.8009805 15.263609,18.8004081 L14.4503825,18.8004081 C14.3855883,18.8005398 14.3233608,18.775083 14.277244,18.7295688 C14.2314557,18.6844579 14.2056332,18.6228935 14.2055401,18.5586163 L14.1264036,17.8385174 C13.9247408,17.7898796 13.7326305,17.7078632 13.5580194,17.5958611 L12.9887609,18.0217119 C12.9091871,18.1004113 12.7439185,18.1004113 12.6647819,18.0217119 L12.0955233,17.4577 C12.0159496,17.3790006 12.0159496,17.2159181 12.0955233,17.1372188 L12.558975,16.5749557 C12.4718116,16.3931098 12.3987274,16.2048449 12.3403657,16.0118182 L11.6132713,15.9331189 C11.5483881,15.9334924 11.4859908,15.9081877 11.4396955,15.8627267 C11.3937993,15.8175094 11.3679916,15.7557658 11.3679916,15.691337 L11.3679916,14.8864176 C11.3679916,14.749131 11.4803568,14.6446358 11.6128341,14.6446358 L12.3473612,14.5659364 C12.3998275,14.3757463 12.4601636,14.1925518 12.5650961,14.0285948 L12.1029561,13.4405358 C12.0233823,13.3618365 12.0233823,13.1978795 12.1029561,13.1191802 L12.6722146,12.5569171 C12.750914,12.4782178 12.917057,12.4782178 12.9961936,12.5569171 L13.5916853,13.0076895 C13.7644866,12.9174509 13.946174,12.845362 14.1338363,12.7925779 L14.2396432,12.0462458 C14.2396432,11.9089592 14.3524456,11.804464 14.4844856,11.804464 L14.4840484,11.8049012 Z M14.8648657,13.553751 C14.4003975,13.5515522 13.9543164,13.7351082 13.625925,14.0635816 C13.2975337,14.392055 13.1140893,14.8381821 13.1164066,15.3026497 C13.1152638,15.7668361 13.2991456,16.2123462 13.627376,16.5405766 C13.9556064,16.868807 14.4011165,17.0526888 14.8653029,17.0515294 C15.8070717,17.0515294 16.5866324,16.271526 16.6142016,15.3026497 C16.6166356,14.8380701 16.4331693,14.3918072 16.1046574,14.0632953 C15.7761454,13.7347833 15.3298825,13.551317 14.8653029,13.553751 L14.8648657,13.553751 Z M9.39394985,11.8049012 C9.46390482,11.8049012 9.51637104,11.8608652 9.51637104,11.9260107 L9.55615793,12.2989582 C9.6519088,12.3251913 9.74416191,12.3680387 9.82723344,12.4069512 L10.1380958,12.1813464 C10.1778827,12.1419967 10.260517,12.1419967 10.3003039,12.1813464 L10.5849332,12.4624779 C10.6242829,12.5018276 10.6242829,12.5840247 10.5849332,12.6233743 L10.3567051,12.9171852 C10.3995525,12.9989451 10.4389022,13.0911982 10.4660098,13.1860746 L10.8293384,13.2381036 C10.8957956,13.2381036 10.9517596,13.2805138 10.9220287,13.3723297 L10.9220287,13.7780686 C10.9217976,13.810305 10.9087697,13.8411293 10.8858111,13.8637599 C10.8628525,13.8863905 10.831844,13.8989736 10.7996075,13.8987409 L10.4358417,13.9380906 C10.4133479,14.032775 10.3764857,14.123456 10.326537,14.20698 L10.5582629,14.4881115 C10.5980498,14.5274612 10.5980498,14.6092211 10.5582629,14.6481335 L10.2740708,14.9297023 C10.2342839,14.9690519 10.1516496,14.9690519 10.1118627,14.9297023 L9.82767066,14.7005997 C9.73148258,14.7561265 9.63879224,14.7954762 9.54260416,14.8217093 L9.50325449,15.1815401 C9.50313909,15.2138526 9.49016211,15.2447892 9.46719089,15.2675143 C9.44421967,15.2902394 9.4131451,15.3028824 9.38083329,15.3026528 L8.97422003,15.3026528 C8.94167168,15.3028362 8.91037946,15.2900991 8.88721353,15.267235 C8.86442589,15.244554 8.85167137,15.2136912 8.85179883,15.1815401 L8.81201194,14.8217093 C8.71101445,14.7976623 8.61482637,14.7561265 8.52781987,14.7005997 L8.24319059,14.9135252 C8.2034037,14.9528748 8.12076939,14.9528748 8.0809825,14.9135252 L7.79635322,14.6315192 C7.75700355,14.5921695 7.75700355,14.5108469 7.79635322,14.4714972 L8.02807906,14.1903657 C7.98449894,14.099442 7.94795689,14.0053097 7.91877442,13.9087969 L7.55500857,13.8694472 C7.52261148,13.869518 7.4914977,13.8567897 7.4684393,13.8340325 C7.44549118,13.8114239 7.43258737,13.7805521 7.43258737,13.7483377 L7.43258737,13.3460966 C7.43258737,13.2770161 7.48898857,13.2249871 7.55500857,13.2249871 L7.92227216,13.1856374 C7.94850528,13.090761 7.97867336,12.9989451 8.03113959,12.9171852 L7.80028818,12.6229371 C7.7605013,12.5835875 7.7605013,12.5013904 7.80028818,12.4620407 L8.08448025,12.1809092 C8.12382992,12.1415595 8.20690145,12.1415595 8.24668834,12.1809092 L8.54443418,12.4065139 C8.62706849,12.3641037 8.7193216,12.3251913 8.81550969,12.2989582 L8.86841313,11.9260107 C8.86841313,11.8573674 8.92481433,11.8049012 8.99083433,11.8049012 L9.39394985,11.8049012 L9.39394985,11.8049012 Z M9.18146162,12.6793273 C8.94918973,12.6781682 8.72609269,12.7699203 8.56184958,12.9341634 C8.39760646,13.0984065 8.30585434,13.3215035 8.30701344,13.5537754 C8.30644208,13.7858686 8.39838297,14.0086237 8.56249816,14.1727389 C8.72661336,14.3368541 8.94936842,14.428795 9.18146162,14.4282153 C9.65234602,14.4282153 10.0419078,14.0382136 10.0559098,13.5537754 C10.0570689,13.3215035 9.96531679,13.0984065 9.80107367,12.9341634 C9.63683055,12.7699203 9.41373352,12.6781682 9.18146162,12.6793273 L9.18146162,12.6793273 Z M7.86980594,7.80741187 L9.7437247,8.813889 L9.7437247,10.9304641 L7.94850528,9.94147568 C7.90081053,9.91551271 7.8707525,9.86591696 7.86980594,9.81162176 L7.86980594,7.80741187 L7.86980594,7.80741187 Z M11.9298175,7.80741187 L11.9298175,9.83785488 C11.929238,9.89272364 11.8984795,9.9428112 11.8498065,9.96814601 L10.0558987,10.9304641 L10.0558987,8.85367589 L11.9298175,7.80741187 Z M9.99381371,6.5762044 L11.6172062,7.46813027 L9.93260311,8.4321972 L8.18197999,7.4948006 L9.85302934,6.57664162 C9.8968807,6.55260942 9.94996235,6.55260942 9.99381371,6.57664162 L9.99381371,6.5762044 Z M10.9303359,4.74688193 L12.8042546,5.75335907 L12.8042546,7.86993413 L11.0090352,6.88094574 C10.9613405,6.85498277 10.9312824,6.80538703 10.9303359,6.75109183 L10.9303359,4.74688193 L10.9303359,4.74688193 Z M14.9903474,4.74688193 L14.9903474,6.77732494 C14.989768,6.83219371 14.9590095,6.88228126 14.9103364,6.90761607 L13.1164287,7.86993413 L13.1164287,5.79314595 L14.9903474,4.74688193 Z M13.0543437,3.51567446 L14.6777362,4.40760033 L12.9931331,5.37166726 L11.2425099,4.43427066 L12.9135593,3.51611168 C12.9574106,3.49207948 13.0104923,3.49207948 13.0543437,3.51611168 L13.0543437,3.51567446 Z" id="形状"></path>
                    <path d="M14.4280844,8.24463044 L16.3020031,9.25110757 L16.3020031,11.3676826 L14.5067837,10.3786942 C14.459089,10.3527313 14.4290309,10.3031355 14.4280844,10.2488403 L14.4280844,8.24463044 Z M18.4880959,8.24463044 L18.4880959,10.2750734 C18.4875165,10.3299422 18.456758,10.3800298 18.408085,10.4053646 L16.6141772,11.3676826 L16.6141772,9.29089446 L18.4880959,8.24463044 Z M16.4113078,7.01342296 C16.4551591,6.98939076 16.5082408,6.98939076 16.5520922,7.01342296 L18.1754847,7.90534883 L16.4908816,8.86941576 L14.7402584,7.93201916 L16.4113078,7.01386018 L16.4113078,7.01342296 Z" id="形状"></path>
                </g>
            </g>
        </g>
    </g>
</svg>