<?xml version="1.0" encoding="UTF-8"?>
<svg width="28px" height="28px" viewBox="0 0 28 28" version="1.1" xmlns="http://www.w3.org/2000/svg" xmlns:xlink="http://www.w3.org/1999/xlink">
    <title>service</title>
    <g id="应用服务的依赖资源" stroke="none" stroke-width="1" fill="none" fill-rule="evenodd">
        <g id="画框" transform="translate(-138, -35)">
            <g id="service" transform="translate(138, 35)">
                <rect id="矩形" fill-opacity="0" fill="#D8D8D8" x="0" y="0" width="28" height="28"></rect>
                <g id="pod-(2)" transform="translate(1, 1.33)" fill="#1A7AFF" fill-rule="nonzero">
                    <path d="M13.0848776,5.1077198e-14 C13.3147111,0.0113148007 13.540563,0.0680358081 13.7489511,0.167466623 L22.7868626,4.48478516 C23.261107,4.71093116 23.6055989,5.13888525 23.7227636,5.64743282 L25.9567514,15.3488448 C26.0737423,15.8575775 25.9505031,16.3914273 25.6219576,16.7991108 L19.3674002,24.5785019 C19.0394494,24.9861662 18.54208,25.2236489 18.0160506,25.2237409 L7.98441017,25.2252627 C7.45838072,25.2252627 6.96101139,24.987688 6.63306053,24.5800237 L0.375459588,16.8021544 C0.340760776,16.7581023 0.308257062,16.712394 0.278065005,16.6651933 C0.023804923,16.2763533 -0.0607401518,15.8020225 0.0437093368,15.3503666 L2.27313186,5.64895461 C2.38996375,5.14070721 2.73384988,4.7128098 3.20751098,4.48630695 L12.2469443,0.167466623 C12.4541727,0.0685757708 12.6792261,0.0116657085 12.908923,6.96945097e-05 Z M16.4414195,5.96844964 L9.92653371,5.96844964 C9.62960518,5.96844964 9.43159165,6.16646317 9.43159165,6.46348345 L9.43159165,9.73024786 C9.43159165,10.0271764 9.62960518,10.2251899 9.92653371,10.2251899 L12.6891263,10.2251899 L12.6891263,11.8091146 L7.64042365,11.8091146 C7.44241012,11.8091146 7.24439659,12.0069446 7.24439659,12.2049582 L7.24439659,14.778767 L5.85830191,14.778767 C5.56137338,14.778767 5.36345161,14.9767805 5.36345161,15.273709 L5.36345161,18.738487 C5.36345161,19.0353238 5.56137338,19.2335208 5.85830191,19.2335208 L9.32326336,19.2335208 C9.62019189,19.2335208 9.81820542,19.0353238 9.81820542,18.7385788 L9.81820542,15.273709 C9.81820542,14.9767805 9.62019189,14.778767 9.32326336,14.778767 L8.0362672,14.778767 L8.0362672,12.5018867 L12.7880413,12.5018867 L12.7880413,14.679852 L11.4019466,14.679852 C11.1050181,14.679852 10.9069128,14.8778655 10.9069128,15.1748858 L10.9069128,18.6396637 C10.9069128,18.9364088 11.1049263,19.1346058 11.4019466,19.1346058 L14.8668163,19.1346058 C15.1637448,19.1346058 15.3617584,18.9364088 15.3617584,18.6396637 L15.3617584,15.1748858 C15.3617584,14.8778655 15.1637448,14.679852 14.8668163,14.679852 L13.4808134,14.679852 L13.4808134,12.5020702 L18.3315025,12.5020702 L18.3315025,14.679852 L16.7477613,14.679852 C16.450741,14.679852 16.2528192,14.8778655 16.2528192,15.1748858 L16.2528192,18.6396637 C16.2528192,18.9364088 16.450741,19.1346058 16.7476695,19.1346058 L20.2124475,19.1346058 C20.5094678,19.1346058 20.7073895,18.9364088 20.7073895,18.6396637 L20.7073895,15.1748858 C20.8064881,14.9767805 20.5094678,14.679852 20.3114543,14.679852 L19.1235566,14.679852 L19.1235566,12.2049582 C19.1235566,12.0069446 18.9255431,11.8091146 18.7275295,11.8091146 L13.4809969,11.8091146 L13.4809969,10.2251899 L16.4414195,10.2251899 C16.738348,10.2251899 16.9363616,10.0271764 16.9363616,9.73024786 L16.9363616,6.46348345 C16.9363616,6.16655492 16.738348,5.96844964 16.4414195,5.96844964 Z" id="形状结合"></path>
                </g>
            </g>
        </g>
    </g>
</svg>