<?xml version="1.0" encoding="UTF-8"?>
<svg width="28px" height="28px" viewBox="0 0 28 28" version="1.1" xmlns="http://www.w3.org/2000/svg" xmlns:xlink="http://www.w3.org/1999/xlink">
    <title>pod</title>
    <g id="应用服务的依赖资源" stroke="none" stroke-width="1" fill="none" fill-rule="evenodd">
        <g id="画框" transform="translate(-276, -35)">
            <g id="pod" transform="translate(276, 35)">
                <rect id="矩形" x="0" y="0" width="28" height="28"></rect>
                <g id="pod-(4)" transform="translate(1, 1.32)" fill="#1A7AFF" fill-rule="nonzero">
                    <path d="M13,7.10542736e-14 L23.4252516,5.02032182 L26,16.3014616 L18.7853709,25.3478749 L7.21462914,25.3478749 L0,16.3014616 L2.57516507,5.02032182 L13,7.10542736e-14 Z M10.3760818,19.8108533 C10.0489775,19.8108533 9.79354446,19.9246106 9.60936598,20.1525418 L9.58728124,19.8596064 L9.17475479,19.8596064 L9.17475479,23.5173409 L9.62645041,23.5173409 L9.62645041,22.245176 C9.81062889,22.4485223 10.0627284,22.5501955 10.3835823,22.5501955 C10.6973524,22.5501955 10.946535,22.427271 11.1307135,22.1814219 C11.314892,21.9359895 11.4065645,21.611802 11.4065645,21.2101096 L11.4065645,21.1684403 C11.4065645,20.7417463 11.3136419,20.4088083 11.1282133,20.1696263 C10.9440349,19.9304443 10.6936022,19.8108533 10.3760818,19.8108533 Z M13.0616706,19.8108533 C12.8425752,19.8072168 12.6269128,19.8655742 12.4395474,19.9791974 C12.2553812,20.0953103 12.1079854,20.2613473 12.0145202,20.4579781 C11.9132637,20.664658 11.8632605,20.8971729 11.8628438,21.1563562 L11.8628438,21.1880249 C11.8628438,21.5980512 11.9741009,21.9276556 12.1949484,22.1768383 C12.418296,22.4256042 12.7083146,22.5501955 13.0666709,22.5501955 C13.3046029,22.5501955 13.5141996,22.4931085 13.6967113,22.3793512 C13.8807276,22.2651902 14.027428,22.0998084 14.1188217,21.9034874 C14.2179947,21.6980576 14.2679979,21.4672094 14.2679979,21.2096929 L14.2679979,21.1780242 C14.2679979,20.7646644 14.1563241,20.4333932 13.9333932,20.1846272 C13.712129,19.9354446 13.4216937,19.8108533 13.0616706,19.8108533 Z M16.9535868,18.751202 L16.5018911,18.751202 L16.5018911,20.1283736 C16.3210462,19.9166934 16.0764472,19.8108533 15.766844,19.8108533 C15.4564075,19.8108533 15.2047247,19.9346112 15.012629,20.1821271 C14.8205334,20.4275595 14.7246939,20.7534137 14.7246939,21.1584396 L14.7246939,21.1926085 C14.7246939,21.5963844 14.8209501,21.9234887 15.012629,22.1743381 C15.2063914,22.4251875 15.4564075,22.5501955 15.7622604,22.5501955 C16.0843644,22.5501955 16.3360472,22.4397718 16.5168921,22.2180909 L16.5385602,22.5014424 L16.9535868,22.5014424 L16.9535868,18.751202 Z M10.2419065,20.1942112 C10.4631707,20.1942112 10.6373485,20.2804667 10.76444,20.4529778 C10.8915315,20.6254888 10.9548689,20.8605039 10.9548689,21.1584396 C10.9548689,21.4972114 10.8902814,21.7526444 10.7619399,21.9251555 C10.6348484,22.0959997 10.4635874,22.1814219 10.2469069,22.1814219 C9.96813898,22.1814219 9.76187576,22.0609975 9.62645041,21.8205654 L9.62645041,20.5579845 C9.76312584,20.3150522 9.96855568,20.1942112 10.2419065,20.1942112 Z M13.0616706,20.1821271 C13.2776677,20.1761265 13.4825952,20.2775758 13.608789,20.4529778 C13.7471312,20.6321559 13.8163023,20.8663376 13.8163023,21.1563562 C13.8163023,21.4797102 13.748798,21.7322264 13.6137893,21.9130714 C13.478364,22.0922495 13.2958523,22.1814219 13.0666709,22.1814219 C12.8387397,22.1814219 12.6566447,22.0926662 12.5199692,21.9155715 C12.3845439,21.7380601 12.3174562,21.5026284 12.3170396,21.2096929 C12.3170396,20.8792551 12.3853773,20.6254888 12.5220527,20.4479774 C12.6591448,20.2708827 12.8387397,20.1821271 13.0616706,20.1821271 Z M15.8793512,20.1942112 C16.1593692,20.1942112 16.3668825,20.3188025 16.5018911,20.5675684 L16.5018911,21.7813962 C16.370216,22.0380794 16.161036,22.1672543 15.8743509,22.1672543 C15.6564203,22.1672543 15.485576,22.0822489 15.3618181,21.9130714 C15.2380601,21.7438938 15.1763895,21.5097122 15.1763895,21.2096929 C15.1763895,20.8746715 15.2380601,20.6213219 15.3618181,20.4504776 C15.485576,20.2796333 15.6580871,20.1942112 15.8793512,20.1942112 Z M19.179,7.555 L19.2161078,7.63979872 C19.2953264,7.87897728 19.1861836,8.14603144 18.9357972,8.27678056 L13.4737804,11.1223796 L13.4737804,16.9027502 C13.4737804,17.207353 13.2004295,17.4552856 12.8616578,17.4552856 C12.5241362,17.4552856 12.2499519,17.2086031 12.2499519,16.9027502 L12.2499519,11.1707161 L6.63875889,8.24677864 L6.55592758,8.19495047 C6.45350589,8.11903511 6.38364802,8.0172539 6.3521568,7.90615109 L6.33494863,7.82145165 L6.33582281,13.8321367 C6.31332137,14.0409001 6.42374511,14.2509135 6.63875889,14.363004 L12.4212129,17.3769472 C12.5337201,17.4594525 12.6737291,17.5023719 12.8154048,17.5011484 C12.9570806,17.5023719 13.0975063,17.4594525 13.2095968,17.3769472 L18.8220399,14.4517597 C19.0699724,14.3817552 19.2504007,14.1725752 19.2504007,13.9250593 L19.2504007,7.81300083 C19.2504007,7.71716136 19.2233156,7.62840567 19.1774793,7.55173409 L19.179,7.555 Z M12.7558177,4.16651708 C12.6144981,4.16452506 12.4762887,4.20806249 12.3616257,4.29069171 L6.6445926,7.27004936 C6.50361959,7.34036788 6.3990075,7.46708326 6.35665748,7.61882172 C6.36999167,7.57715238 6.38957625,7.53381627 6.41624463,7.49214693 C6.58500545,7.22838002 6.9596128,7.13795756 7.25088147,7.29046734 L12.8154048,10.1914866 L18.3249247,7.32005257 C18.6174434,7.16754279 18.9908007,7.25796525 19.1591448,7.52214886 C19.1032882,7.42747575 19.0214309,7.35082488 18.9232964,7.30130137 L13.1500096,4.29069171 C13.0353467,4.20806249 12.8971372,4.16452506 12.7558177,4.16651708 Z" id="形状结合"></path>
                </g>
            </g>
        </g>
    </g>
</svg>