<?xml version="1.0" encoding="UTF-8"?>
<svg width="28px" height="28px" viewBox="0 0 28 28" version="1.1" xmlns="http://www.w3.org/2000/svg" xmlns:xlink="http://www.w3.org/1999/xlink">
    <title>ingress</title>
    <g id="应用服务的依赖资源" stroke="none" stroke-width="1" fill="none" fill-rule="evenodd">
        <g id="画框" transform="translate(-64, -35)">
            <g id="ingress" transform="translate(64, 35)">
                <rect id="矩形" x="0" y="0" width="28" height="28"></rect>
                <g id="编组-14" transform="translate(1, 1.54)" fill="#1A7AFF" fill-rule="nonzero">
                    <path d="M12.2473989,0.168425223 C12.7223227,-0.0561417411 13.272872,-0.0561417411 13.7477958,0.168425223 L22.7891763,4.43128557 C23.2602428,4.65093448 23.6050175,5.07392194 23.725164,5.57960375 L25.9568012,15.1615605 C26.0736719,15.6651968 25.9504342,16.194559 25.6231389,16.5947916 L19.3691382,24.2787734 C19.0408925,24.6806848 18.5436491,24.9146817 18.0171561,24.9146817 L7.98453857,24.9168483 C7.4580455,24.9168483 6.96080207,24.6828514 6.63363974,24.2798567 L0.376389072,16.5969582 C0.0488646839,16.1968382 -0.0740381316,15.6671951 0.0438101236,15.1637271 L2.274364,5.5828537 C2.39398025,5.07724473 2.73841507,4.65418458 3.20926831,4.43453553 Z M8.08924519,6.89894314 L4.88300693,6.89894314 L4.88300693,9.65475075 L6.854257,9.65475075 L13.6678829,18.0729742 L16.8120268,18.0729742 L16.8130124,20.2521912 L21.1330069,16.6940848 L16.8130124,13.1389353 L16.8130124,15.3171666 L14.9058279,15.3171666 L8.08924519,6.89894314 Z M8.40168832,13.436594 L6.854257,15.3516635 L4.88300693,15.3516635 L4.88300693,18.1074711 L8.08727393,18.1074711 L10.1344171,15.5783572 L8.40168832,13.436594 Z M16.8120268,4.75520868 L16.8120268,6.93344003 L13.6678829,6.93344003 L11.6503084,9.428057 L13.3840229,11.5698202 L14.9048423,9.68924764 L16.8120268,9.68924764 L16.8120268,11.867479 L21.1320213,8.31331508 L16.8120268,4.75520868 Z" id="形状结合"></path>
                </g>
            </g>
        </g>
    </g>
</svg>