<?xml version="1.0" encoding="UTF-8"?>
<svg width="28px" height="28px" viewBox="0 0 28 28" version="1.1" xmlns="http://www.w3.org/2000/svg" xmlns:xlink="http://www.w3.org/1999/xlink">
    <title>workload</title>
    <g id="应用服务的依赖资源" stroke="none" stroke-width="1" fill="none" fill-rule="evenodd">
        <g id="画框" transform="translate(-212, -35)">
            <g id="workload" transform="translate(212, 35)">
                <rect id="矩形备份-8" fill-opacity="0" fill="#D8D8D8" x="0" y="0" width="28" height="28"></rect>
                <g id="编组-14备份" transform="translate(1, 1.54)" fill="#1A7AFF" fill-rule="nonzero">
                    <path d="M12.2473989,0.168425223 C12.7223227,-0.0561417411 13.272872,-0.0561417411 13.7477958,0.168425223 L22.7891763,4.43128557 C23.2602428,4.65093448 23.6050175,5.07392194 23.725164,5.57960375 L25.9568012,15.1615605 C26.0736719,15.6651968 25.9504342,16.194559 25.6231389,16.5947916 L19.3691382,24.2787734 C19.0408925,24.6806848 18.5436491,24.9146817 18.0171561,24.9146817 L7.98453857,24.9168483 C7.4580455,24.9168483 6.96080207,24.6828514 6.63363974,24.2798567 L0.376389072,16.5969582 C0.0488646839,16.1968382 -0.0740381316,15.6671951 0.0438101236,15.1637271 L2.274364,5.5828537 C2.39398025,5.07724473 2.73841507,4.65418458 3.20926831,4.43453553 Z M13.0001341,4.875 C11.6903808,4.87522193 10.5087487,5.66160957 10.0028555,6.86971792 C9.49696236,8.07782628 9.76567904,9.47154482 10.684471,10.404966 L9.04725656,13.1325733 C8.0639882,12.8416119 7.00107323,13.0317484 6.17964863,13.6455374 C5.35822403,14.2593263 4.87463974,15.2247725 4.8750002,16.2501871 C4.88130208,17.8828348 6.09728299,19.2576765 7.71693008,19.4633982 C9.33657717,19.6691199 10.8576555,18.6419296 11.2719182,17.0627005 L14.72835,17.0627005 C15.0599719,18.3452845 16.1368719,19.2982281 17.4502773,19.4713208 C18.7636827,19.6444134 20.0507006,19.0030086 20.7032898,17.8501329 C21.3558789,16.6972573 21.2434161,15.2636718 20.4190336,14.2266625 C19.5946512,13.1896531 18.2233584,12.756789 16.9530116,13.1325733 L15.3157972,10.404966 C16.2345891,9.47154482 16.5033058,8.07782628 15.9974126,6.86971792 C15.4915195,5.66160957 14.3098874,4.87522193 13.0001341,4.875 Z M13.9223368,11.2426673 L15.5595512,13.9702746 C15.1577433,14.3775385 14.870713,14.8837657 14.7275375,15.4376738 L11.2727307,15.4376738 C11.1295551,14.8837657 10.8425249,14.3775385 10.440717,13.9702746 L12.0779314,11.2426673 C12.6798401,11.4207312 13.3204281,11.4207312 13.9223368,11.2426673 Z" id="形状结合"></path>
                </g>
            </g>
        </g>
    </g>
</svg>