<?xml version="1.0" encoding="UTF-8"?>
<svg width="105px" height="55px" viewBox="0 0 105 55" version="1.1" xmlns="http://www.w3.org/2000/svg" xmlns:xlink="http://www.w3.org/1999/xlink">
    <title>basic-bricks-widgets.general-button-icon</title>
    <g id="nora" stroke="none" stroke-width="1" fill="none" fill-rule="evenodd">
        <g id="-构件概览图七" transform="translate(-48.000000, -895.000000)">
            <g id="basic-bricks-widgets.general-button-icon" transform="translate(48.000000, 895.000000)">
                <rect id="矩形备份-46" x="0" y="0" width="105" height="55" rx="4"></rect>
                <g id="编组-31" transform="translate(31.000000, 6.000000)">
                    <circle id="椭圆形" fill="#F5F5F5" cx="21.5" cy="21.5" r="21.5"></circle>
                    <g id="通用图标/search-Line" transform="translate(10.000000, 10.000000)">
                        <rect id="矩形" fill="#000000" fill-rule="nonzero" opacity="0" x="0" y="0" width="23" height="23"></rect>
                        <path d="M20.4304687,19.1928711 L14.5973633,13.3597656 C15.5025391,12.1895508 15.9921875,10.7587891 15.9921875,9.25390625 C15.9921875,7.45253906 15.2891602,5.76347656 14.0178711,4.48994141 C12.746582,3.21640625 11.0530273,2.515625 9.25390625,2.515625 C7.45478516,2.515625 5.76123047,3.21865234 4.48994141,4.48994141 C3.21640625,5.76123047 2.515625,7.45253906 2.515625,9.25390625 C2.515625,11.0530273 3.21865234,12.746582 4.48994141,14.0178711 C5.76123047,15.2914062 7.45253906,15.9921875 9.25390625,15.9921875 C10.7587891,15.9921875 12.1873047,15.5025391 13.3575195,14.5996094 L19.190625,20.4304687 C19.2625,20.5023438 19.3792969,20.5023438 19.4511719,20.4304687 L20.4304687,19.453418 C20.5023437,19.381543 20.5023437,19.2647461 20.4304687,19.1928711 Z M12.8117187,12.8117187 C11.859375,13.7618164 10.5970703,14.2851562 9.25390625,14.2851562 C7.91074219,14.2851562 6.6484375,13.7618164 5.69609375,12.8117187 C4.74599609,11.859375 4.22265625,10.5970703 4.22265625,9.25390625 C4.22265625,7.91074219 4.74599609,6.64619141 5.69609375,5.69609375 C6.6484375,4.74599609 7.91074219,4.22265625 9.25390625,4.22265625 C10.5970703,4.22265625 11.8616211,4.74375 12.8117187,5.69609375 C13.7618164,6.6484375 14.2851562,7.91074219 14.2851562,9.25390625 C14.2851562,10.5970703 13.7618164,11.8616211 12.8117187,12.8117187 Z" id="形状" fill="#595959"></path>
                    </g>
                </g>
            </g>
        </g>
    </g>
</svg>