<?xml version="1.0" encoding="UTF-8"?>
<svg width="105px" height="55px" viewBox="0 0 105 55" version="1.1" xmlns="http://www.w3.org/2000/svg" xmlns:xlink="http://www.w3.org/1999/xlink">
    <title>presentational-bricks.general-image</title>
    <defs>
        <rect id="path-1" x="0" y="0" width="28" height="18" rx="1"></rect>
        <rect id="path-3" x="0" y="0" width="28" height="18" rx="1"></rect>
        <rect id="path-5" x="0" y="0" width="28" height="18" rx="1"></rect>
        <rect id="path-7" x="0" y="0" width="28" height="18" rx="1"></rect>
    </defs>
    <g id="nora" stroke="none" stroke-width="1" fill="none" fill-rule="evenodd">
        <g id="-构件概览图四" transform="translate(-1480.000000, -232.000000)">
            <g id="presentational-bricks.general-image" transform="translate(1480.000000, 232.000000)">
                <rect id="矩形备份-46" x="0" y="0" width="105" height="55" rx="4"></rect>
                <g id="编组-21" transform="translate(22.000000, 8.000000)">
                    <g id="编组-20">
                        <mask id="mask-2" fill="white">
                            <use xlink:href="#path-1"></use>
                        </mask>
                        <use id="矩形备份-104" fill-opacity="0.2" fill="#1A7AFF" xlink:href="#path-1"></use>
                        <circle id="椭圆形" fill="#1A7AFF" mask="url(#mask-2)" cx="4" cy="4" r="2"></circle>
                        <path d="M12.519428,6.80977491 L20.1170034,10.4692516 L28,1 L28,17 C28,17.5522847 27.5522847,18 27,18 L0,18 L0,18 L12.519428,6.80977491 Z" id="矩形" fill="#1A7AFF" mask="url(#mask-2)"></path>
                    </g>
                    <g id="编组-20备份-2" transform="translate(0.000000, 23.000000)">
                        <mask id="mask-4" fill="white">
                            <use xlink:href="#path-3"></use>
                        </mask>
                        <rect stroke="#F4F5F9" x="-0.5" y="-0.5" width="29" height="19" rx="1"></rect>
                        <circle id="椭圆形" fill="#D6DBEC" mask="url(#mask-4)" cx="4" cy="4" r="2"></circle>
                        <path d="M12.519428,6.80977491 L20.1170034,10.4692516 L28,1 L28,17 C28,17.5522847 27.5522847,18 27,18 L0,18 L0,18 L12.519428,6.80977491 Z" id="矩形" fill="#D6DBEC" mask="url(#mask-4)"></path>
                    </g>
                    <g id="编组-20备份" transform="translate(33.000000, 0.000000)">
                        <mask id="mask-6" fill="white">
                            <use xlink:href="#path-5"></use>
                        </mask>
                        <rect stroke="#F4F5F9" x="-0.5" y="-0.5" width="29" height="19" rx="1"></rect>
                        <circle id="椭圆形" fill="#D6DBEC" mask="url(#mask-6)" cx="4" cy="4" r="2"></circle>
                        <path d="M12.519428,6.80977491 L20.1170034,10.4692516 L28,1 L28,17 C28,17.5522847 27.5522847,18 27,18 L0,18 L0,18 L12.519428,6.80977491 Z" id="矩形" fill="#D6DBEC" mask="url(#mask-6)"></path>
                    </g>
                    <g id="编组-20备份-3" transform="translate(33.000000, 23.000000)">
                        <mask id="mask-8" fill="white">
                            <use xlink:href="#path-7"></use>
                        </mask>
                        <rect stroke="#F4F5F9" x="-0.5" y="-0.5" width="29" height="19" rx="1"></rect>
                        <circle id="椭圆形" fill="#D6DBEC" mask="url(#mask-8)" cx="4" cy="4" r="2"></circle>
                        <path d="M12.519428,6.80977491 L20.1170034,10.4692516 L28,1 L28,17 C28,17.5522847 27.5522847,18 27,18 L0,18 L0,18 L12.519428,6.80977491 Z" id="矩形" fill="#D6DBEC" mask="url(#mask-8)"></path>
                    </g>
                </g>
            </g>
        </g>
    </g>
</svg>