<?xml version="1.0" encoding="UTF-8"?>
<svg width="105px" height="55px" viewBox="0 0 105 55" version="1.1" xmlns="http://www.w3.org/2000/svg" xmlns:xlink="http://www.w3.org/1999/xlink">
    <title>presentational-bricks.brick-link[with-icon-events]</title>
    <defs>
        <rect id="path-1" x="0" y="0" width="105" height="55" rx="4"></rect>
    </defs>
    <g id="snippet截图" stroke="none" stroke-width="1" fill="none" fill-rule="evenodd">
        <g id="snippet" transform="translate(-6370.000000, -688.000000)">
            <g id="presentational-bricks.brick-link[with-icon-events]" transform="translate(6370.000000, 688.000000)">
                <mask id="mask-2" fill="white">
                    <use xlink:href="#path-1"></use>
                </mask>
                <g id="矩形备份-46"></g>
                <g id="链接" mask="url(#mask-2)" fill="#1A7AFF" fill-rule="nonzero">
                    <g transform="translate(25.000000, 20.000000)" id="路径">
                        <path d="M4,15.8 C3,15.8 2,15.4 1.2,14.6 C-0.4,13 -0.4,10.5 1.2,8.9 L3.3,6.8 L4.7,8.2 L2.6,10.3 C1.8,11.1 1.8,12.3 2.6,13.1 C3.4,13.9 4.6,13.9 5.4,13.1 L8.2,10.3 C8.6,9.9 8.8,9.4 8.8,8.9 C8.8,8.4 8.6,7.9 8.3,7.5 L7.2,6.5 L8.6,5.1 L9.7,6.2 C10.4,6.9 10.8,7.9 10.8,9 C10.8,10.1 10.4,11.1 9.6,11.8 L6.8,14.6 C6.1,15.4 5,15.8 4,15.8 Z"></path>
                        <path d="M7.2,10.7 L6.1,9.7 C4.5,8.1 4.5,5.6 6.1,4 L8.9,1.2 C10.5,-0.4 13,-0.4 14.6,1.2 C16.2,2.8 16.2,5.3 14.6,6.9 L12.5,9 L11.1,7.6 L13.2,5.5 C14,4.7 14,3.5 13.2,2.7 C12.4,1.9 11.1,1.9 10.4,2.7 L7.5,5.4 C6.7,6.2 6.7,7.4 7.5,8.2 L8.6,9.3 L7.2,10.7 Z"></path>
                    </g>
                </g>
                <g id="编组-15" mask="url(#mask-2)" fill-rule="nonzero" font-family="PingFangSC-Regular, PingFang SC" font-size="18" font-weight="normal">
                    <g transform="translate(44.000000, 15.000000)" id="链接">
                        <text>
                            <tspan x="0" y="19" fill="#1A7AFF">链接</tspan>
                        </text>
                    </g>
                </g>
            </g>
        </g>
    </g>
</svg>