<?xml version="1.0" encoding="UTF-8"?>
<svg width="105px" height="55px" viewBox="0 0 105 55" version="1.1" xmlns="http://www.w3.org/2000/svg" xmlns:xlink="http://www.w3.org/1999/xlink">
    <title>presentational-bricks-widgets.brick-link-base</title>
    <defs>
        <rect id="path-1" x="0" y="0" width="105" height="55" rx="4"></rect>
    </defs>
    <g id="nora" stroke="none" stroke-width="1" fill="none" fill-rule="evenodd">
        <g id="-构件概览图七" transform="translate(-573.000000, -1390.000000)">
            <g id="presentational-bricks-widgets.brick-link-base" transform="translate(573.000000, 1390.000000)">
                <mask id="mask-2" fill="white">
                    <use xlink:href="#path-1"></use>
                </mask>
                <g id="矩形备份-46"></g>
                <g id="编组-15" mask="url(#mask-2)">
                    <g transform="translate(24.000000, 15.000000)">
                        <text id="链接" fill-rule="nonzero" font-family="PingFangSC-Regular, PingFang SC" font-size="18" font-weight="normal">
                            <tspan x="0" y="19" fill="#1A7AFF">链接</tspan>
                        </text>
                        <g id="跳转-转曲-(1)" stroke-width="1" fill-rule="evenodd" transform="translate(42.000000, 5.000000)">
                            <path d="M13.3927711,16 L0.607228916,16 C0.271566265,16 0,15.7284337 0,15.3927711 L0,2.60722892 C0,2.27156627 0.271566265,2 0.607228916,2 L5.9053012,2 C6.24096386,2 6.51253012,2.27156627 6.51253012,2.60722892 C6.51253012,2.94289157 6.24096386,3.21445783 5.9053012,3.21445783 L1.21445783,3.21445783 L1.21445783,14.7855422 L12.7855422,14.7855422 L12.7855422,10.1216867 C12.7855422,9.7860241 13.0571084,9.51445783 13.3927711,9.51445783 C13.7284337,9.51445783 14,9.7860241 14,10.1216867 L14,15.3927711 C14,15.7284337 13.7284337,16 13.3927711,16 Z" id="路径" stroke="#778DC3" stroke-width="0.3" fill="#778DC3" fill-rule="nonzero"></path>
                            <path d="M15.7052709,0.647632815 L15.7052709,0.637995422 C15.7033785,0.605228286 15.6977012,0.574388628 15.6920239,0.54354897 C15.6920239,0.541621491 15.6920239,0.539694013 15.6901315,0.537766534 C15.6825618,0.504999398 15.6730996,0.47415974 15.661745,0.443320082 L15.661745,0.441392603 C15.6503905,0.410552945 15.635251,0.381640766 15.6201116,0.352728587 C15.6201116,0.350801108 15.6182192,0.350801108 15.6182192,0.34887363 C15.6030797,0.321888929 15.5860479,0.294904228 15.5671236,0.269847006 C15.5652311,0.267919528 15.5633387,0.264064571 15.5614463,0.262137092 C15.5519841,0.25057222 15.5444144,0.240934827 15.5349523,0.229369955 C15.5349523,0.227442477 15.5330598,0.227442477 15.5330598,0.225514998 C15.5235977,0.213950126 15.5141356,0.204312733 15.502781,0.19467534 L15.4952113,0.186965426 C15.4857491,0.177328033 15.4743945,0.16769064 15.4649324,0.158053247 L15.46304,0.156125768 C15.4516854,0.146488375 15.4403308,0.136850982 15.4270838,0.129141067 C15.4251914,0.127213589 15.4214065,0.12528611 15.4195141,0.123358631 C15.3930201,0.104083845 15.3665261,0.0886640164 15.3381396,0.0732441874 L15.3362472,0.0713167088 C15.3059683,0.0558968799 15.2756895,0.0424045296 15.2435182,0.0327671365 C15.2132393,0.0231297434 15.181068,0.0134923503 15.1488967,0.00963739309 C15.1470043,0.00963739309 15.1451118,0.00963739309 15.1432194,0.00770991447 L15.0978011,0.00192747862 L15.0921238,0.00192747862 C15.0788768,0 15.0675222,0 15.0542752,0 L10.2588593,0 C9.8822659,0 9.57758478,0.310324057 9.57758478,0.693892302 C9.57758478,1.07746055 9.8822659,1.3877846 10.2588593,1.3877846 L13.3813677,1.3877846 L7.37290463,7.50945669 C7.10607209,7.78123118 7.10607209,8.2206963 7.37290463,8.49054331 C7.50537468,8.62546681 7.67947818,8.69292856 7.8554741,8.69292856 C8.0295776,8.69292856 8.2036811,8.62546681 8.33804358,8.49054331 L14.3446142,2.3707987 L14.3446142,5.50873389 C14.3446142,5.89230213 14.6492954,6.20262619 15.0258888,6.20262619 C15.4024822,6.20262619 15.7071633,5.89230213 15.7071633,5.50873389 L15.7071633,0.695819781 C15.7071633,0.680399952 15.7071633,0.663052644 15.7052709,0.647632815 Z" id="路径" fill="#778DC3" fill-rule="nonzero"></path>
                        </g>
                    </g>
                </g>
            </g>
        </g>
    </g>
</svg>