<?xml version="1.0" encoding="UTF-8"?>
<svg width="105px" height="55px" viewBox="0 0 105 55" version="1.1" xmlns="http://www.w3.org/2000/svg" xmlns:xlink="http://www.w3.org/1999/xlink">
    <title>presentational-bricks.general-tooltip</title>
    <g id="lydia" stroke="none" stroke-width="1" fill="none" fill-rule="evenodd">
        <g id="构件概览图二" transform="translate(-1102.000000, -195.000000)">
            <g id="presentational-bricks.general-tooltip" transform="translate(1102.000000, 195.000000)">
                <rect id="矩形备份-65" x="0" y="0" width="105" height="55" rx="4"></rect>
                <path d="M86,12 C86.5522847,12 87,12.4477153 87,13 L87,25 C87,25.5522847 86.5522847,26 86,26 L55.376,26 L52.0777366,29.8445269 L48.778,26 L20,26 C19.4477153,26 19,25.5522847 19,25 L19,13 C19,12.4477153 19.4477153,12 20,12 L86,12 Z" id="形状结合" fill="#778DC3"></path>
                <path d="M52,32.848 C52.992,32.848 53.9226667,33.0373333 54.792,33.416 C55.6613333,33.7946667 56.4186667,34.3066667 57.064,34.952 C57.7093333,35.5973333 58.2213333,36.3573333 58.6,37.232 C58.9786667,38.1066667 59.168,39.04 59.168,40.032 C59.168,41.024 58.9786667,41.9546667 58.6,42.824 C58.2213333,43.6933333 57.7093333,44.4506667 57.064,45.096 C56.4186667,45.7413333 55.6613333,46.2533333 54.792,46.632 C53.9226667,47.0106667 52.992,47.2 52,47.2 C51.008,47.2 50.0746667,47.0106667 49.2,46.632 C48.3253333,46.2533333 47.5653333,45.7413333 46.92,45.096 C46.2746667,44.4506667 45.7626667,43.6933333 45.384,42.824 C45.0053333,41.9546667 44.816,41.024 44.816,40.032 C44.816,39.04 45.0053333,38.1066667 45.384,37.232 C45.7626667,36.3573333 46.2746667,35.5973333 46.92,34.952 C47.5653333,34.3066667 48.3253333,33.7946667 49.2,33.416 C50.0746667,33.0373333 51.008,32.848 52,32.848 L52,32.848 Z M52.864,39.04 C52.864,38.784 52.7813333,38.568 52.616,38.392 C52.4506667,38.216 52.2453333,38.128 52,38.128 C51.7546667,38.128 51.5466667,38.216 51.376,38.392 C51.2053333,38.568 51.12,38.784 51.12,39.04 L51.12,44.4 C51.12,44.656 51.2053333,44.8613333 51.376,45.016 C51.5466667,45.1706667 51.7546667,45.248 52,45.248 C52.2453333,45.248 52.4533333,45.168 52.624,45.008 C52.7946667,44.848 52.88,44.64 52.88,44.384 L52.864,39.04 Z M52,37.056 C52.3093333,37.056 52.5733333,36.9466667 52.792,36.728 C53.0106667,36.5093333 53.12,36.2453333 53.12,35.936 C53.12,35.6266667 53.0106667,35.3626667 52.792,35.144 C52.5733333,34.9253333 52.3093333,34.816 52,34.816 C51.6906667,34.816 51.424,34.9253333 51.2,35.144 C50.976,35.3626667 50.864,35.6266667 50.864,35.936 C50.864,36.2453333 50.976,36.5093333 51.2,36.728 C51.424,36.9466667 51.6906667,37.056 52,37.056 Z" id="形状" fill="#1A7AFF" fill-rule="nonzero"></path>
            </g>
        </g>
    </g>
</svg>