<?xml version="1.0" encoding="UTF-8"?>
<svg width="105px" height="55px" viewBox="0 0 105 55" version="1.1" xmlns="http://www.w3.org/2000/svg" xmlns:xlink="http://www.w3.org/1999/xlink">
    <title>presentational-bricks-widgets.snipped-of-general-tooltip</title>
    <defs>
        <rect id="path-1" x="0" y="0" width="105" height="55" rx="4"></rect>
    </defs>
    <g id="nora" stroke="none" stroke-width="1" fill="none" fill-rule="evenodd">
        <g id="-构件概览图七" transform="translate(-1072.000000, -1291.000000)">
            <g id="presentational-bricks-widgets.snipped-of-general-tooltip" transform="translate(1072.000000, 1291.000000)">
                <mask id="mask-2" fill="white">
                    <use xlink:href="#path-1"></use>
                </mask>
                <g id="矩形备份-46"></g>
                <g id="编组-7" mask="url(#mask-2)">
                    <g transform="translate(19.000000, 12.000000)">
                        <path d="M67,0 C67.5522847,-1.01453063e-16 68,0.44771525 68,1 L68,13 C68,13.5522847 67.5522847,14 67,14 L36.376,14 L33.0777366,17.8445269 L29.778,14 L1,14 C0.44771525,14 2.8967998e-16,13.5522847 0,13 L0,1 C-6.76353751e-17,0.44771525 0.44771525,-3.42636147e-16 1,0 L67,0 Z" id="形状结合" fill="#778DC3" fill-rule="evenodd"></path>
                        <path d="M33,20.848 C33.992,20.848 34.9226667,21.0373333 35.792,21.416 C36.6613333,21.7946667 37.4186667,22.3066667 38.064,22.952 C38.7093333,23.5973333 39.2213333,24.3573333 39.6,25.232 C39.9786667,26.1066667 40.168,27.04 40.168,28.032 C40.168,29.024 39.9786667,29.9546667 39.6,30.824 C39.2213333,31.6933333 38.7093333,32.4506667 38.064,33.096 C37.4186667,33.7413333 36.6613333,34.2533333 35.792,34.632 C34.9226667,35.0106667 33.992,35.2 33,35.2 C32.008,35.2 31.0746667,35.0106667 30.2,34.632 C29.3253333,34.2533333 28.5653333,33.7413333 27.92,33.096 C27.2746667,32.4506667 26.7626667,31.6933333 26.384,30.824 C26.0053333,29.9546667 25.816,29.024 25.816,28.032 C25.816,27.04 26.0053333,26.1066667 26.384,25.232 C26.7626667,24.3573333 27.2746667,23.5973333 27.92,22.952 C28.5653333,22.3066667 29.3253333,21.7946667 30.2,21.416 C31.0746667,21.0373333 32.008,20.848 33,20.848 L33,20.848 Z M33.864,27.04 C33.864,26.784 33.7813333,26.568 33.616,26.392 C33.4506667,26.216 33.2453333,26.128 33,26.128 C32.7546667,26.128 32.5466667,26.216 32.376,26.392 C32.2053333,26.568 32.12,26.784 32.12,27.04 L32.12,32.4 C32.12,32.656 32.2053333,32.8613333 32.376,33.016 C32.5466667,33.1706667 32.7546667,33.248 33,33.248 C33.2453333,33.248 33.4533333,33.168 33.624,33.008 C33.7946667,32.848 33.88,32.64 33.88,32.384 L33.864,27.04 Z M33,25.056 C33.3093333,25.056 33.5733333,24.9466667 33.792,24.728 C34.0106667,24.5093333 34.12,24.2453333 34.12,23.936 C34.12,23.6266667 34.0106667,23.3626667 33.792,23.144 C33.5733333,22.9253333 33.3093333,22.816 33,22.816 C32.6906667,22.816 32.424,22.9253333 32.2,23.144 C31.976,23.3626667 31.864,23.6266667 31.864,23.936 C31.864,24.2453333 31.976,24.5093333 32.2,24.728 C32.424,24.9466667 32.6906667,25.056 33,25.056 Z" id="形状" fill="#1A7AFF" fill-rule="nonzero"></path>
                    </g>
                </g>
            </g>
        </g>
    </g>
</svg>