<?xml version="1.0" encoding="UTF-8"?>
<svg width="20px" height="20px" viewBox="0 0 20 20" version="1.1" xmlns="http://www.w3.org/2000/svg" xmlns:xlink="http://www.w3.org/1999/xlink">
    <title>切片</title>
    <g id="page-01" stroke="none" stroke-width="1" fill="none" fill-rule="evenodd">
        <g id="二级菜单" transform="translate(-683.000000, -2483.000000)">
            <g id="2.导航/7.Slide-Menu侧边菜单/灰色/展开" transform="translate(503.000000, 1675.000000)">
                <g id="编组-10" transform="translate(180.000000, 808.000000)">
                    <rect id="矩形" x="0" y="0" width="20" height="20"></rect>
                    <g id="钉_2" transform="translate(6.000000, 3.000000)" fill="#595959" fill-rule="nonzero">
                        <path d="M8.59903993,8.59093976 L6.91397969,6.98448193 L6.56634113,2.10792771 L7.49540137,1.06416867 C7.49540137,1.06416867 8.11342547,0.134433735 6.87602788,0.0185542169 L1.32291945,0 C1.32291945,0 0.472461614,0.657325301 1.22576282,1.29609639 L1.98041342,2.05074699 L1.59532908,6.81142169 L0.104750771,8.49378313 C0.104750771,8.49378313 -0.282863687,9.26766265 0.433160409,9.55862651 L3.39424475,9.53872289 L4.06236523,13.426 L0.387786915,13.426 L0.387786915,14 L8.2198592,14 L8.2198592,13.426 L4.47747366,13.426 L5.07643752,9.48019277 L8.23065439,9.5773494 C8.23082306,9.57718072 9.04265439,9.11298795 8.59903993,8.59093976 Z" id="路径"></path>
                    </g>
                </g>
            </g>
        </g>
    </g>
</svg>