<?xml version="1.0" encoding="UTF-8"?>
<svg width="16px" height="16px" viewBox="0 0 16 16" version="1.1" xmlns="http://www.w3.org/2000/svg" xmlns:xlink="http://www.w3.org/1999/xlink">
    <title>图标/对话</title>
    <g id="图标/对话" stroke="none" fill="none">
        <rect id="矩形" fill="#000000" fill-rule="nonzero" opacity="0" x="0" y="0" width="16" height="16"></rect>
        <g id="time-circle" stroke-width="1" fill-rule="evenodd">
            <rect id="矩形" fill-rule="nonzero" x="0" y="0" width="16" height="16"></rect>
            <path d="M8,1 C8.19381442,1 8.46599561,1.01732995 8.81654357,1.05198985 L8.81657155,1.05163322 C8.92186769,1.05989473 9.00258909,1.14860854 9.00090216,1.25421481 L9.00088166,2.04327329 C9.00306576,2.15370864 8.91531078,2.24500475 8.80487543,2.24718884 C8.79618063,2.2473608 8.78748387,2.24696547 8.77884053,2.24600537 C8.44715383,2.20695489 8.18753511,2.1875 8,2.1875 C4.790625,2.1875 2.1875,4.790625 2.1875,8 C2.1875,11.209375 4.790625,13.8125 8,13.8125 C11.209375,13.8125 13.8125,11.209375 13.8125,8 C13.8125,7.81265743 13.7930845,7.55329937 13.7542534,7.22192581 L13.7540915,7.22194362 C13.742017,7.11214861 13.8212352,7.01335388 13.9310302,7.00127942 C13.9396176,7.00033504 13.9482572,6.99994806 13.9568947,7.00012092 L14.7459332,7.00009887 C14.8514522,6.99843711 14.9401048,7.07904724 14.9484554,7.18424838 C14.982705,7.53447535 15,7.80638355 15,8 C15,11.865625 11.865625,15 8,15 C4.134375,15 1,11.865625 1,8 C1,4.134375 4.134375,1 8,1 Z M8.3765625,4.375 C8.4453125,4.375 8.5015625,4.43125 8.5015625,4.5 L8.5015625,8.3671875 L10.7296875,9.978125 C10.7859375,10.0171875 10.7984375,10.0953125 10.7578125,10.153125 L10.3109375,10.7625 C10.2703125,10.8171875 10.1921875,10.8296875 10.1359375,10.7890625 L7.5515625,8.9046875 C7.51875,8.88125 7.5,8.84375 7.5,8.803125 L7.5,4.5 C7.5,4.43125 7.55625,4.375 7.625,4.375 L8.3765625,4.375 Z" id="形状" fill="#262626"></path>
            <path d="M12.9927076,1.5 C13.1153936,1.5 13.2232045,1.58136009 13.2573252,1.70279506 L13.5600467,2.87143727 C13.5786164,2.94304837 13.6349267,2.99906845 13.7071201,3.01759664 L14.8847676,3.31954026 C15.0035121,3.35212496 15.085908,3.45976765 15.085908,3.58267186 C15.085908,3.70557606 15.0035121,3.81321875 14.881862,3.84657453 L13.7071644,4.14773571 C13.6349267,4.16627526 13.5786164,4.22229534 13.5600514,4.29388839 L13.2561739,5.46610187 C13.223013,5.58398362 13.1152021,5.66534371 12.9925161,5.66534371 C12.8698301,5.66534371 12.7620192,5.58398362 12.7278985,5.46254866 L12.4251655,4.29386203 L12.409681,4.25298585 C12.3834468,4.20138671 12.3358531,4.16256827 12.2780773,4.14774033 L11.0991861,3.84525942 C10.9814106,3.8120029 10.9,3.70482458 10.9,3.58267186 C10.9,3.46051913 10.9814106,3.35334081 11.1033091,3.31897317 L12.2780839,3.0174112 C12.3502952,2.99888938 12.4065997,2.942914 12.4251723,2.87145532 L12.7290499,1.69924184 C12.7622107,1.58136009 12.8700216,1.5 12.9927076,1.5 Z" id="路径" fill="#262626"></path>
        </g>
    </g>
</svg>