<?xml version="1.0" encoding="UTF-8"?>
<svg width="16px" height="16px" viewBox="0 0 16 16" version="1.1" xmlns="http://www.w3.org/2000/svg" xmlns:xlink="http://www.w3.org/1999/xlink">
    <title>custom</title>
    <g id="页面-1" stroke="none" stroke-width="1" fill="none" fill-rule="evenodd">
        <g id="custom" transform="translate(0.000000, 0.000000)" fill-rule="nonzero">
            <path d="" id="路径" stroke="#595959"></path>
            <path d="M10.1073227,0.599993508 C10.3613863,0.481093788 10.6261875,0.46284792 10.8519019,0.576930493 C11.081328,0.692901004 11.2335594,0.926393908 11.2883687,1.20210296 C11.5219109,2.38060576 11.8574532,4.30014901 11.956962,4.87311059 C12.4863497,5.55300967 13.8219988,6.96437553 14.6205206,7.84467612 C14.8783237,8.12922837 14.9300725,8.38501568 14.9038227,8.55550611 C14.8765845,8.73274298 14.7429079,8.97083754 14.392142,9.1761216 C13.3495367,9.78555954 11.6362175,10.735638 11.1304911,11.0153304 C10.875136,11.4023433 10.4803703,12.0976501 10.0773782,12.8220148 L9.77564157,13.3663735 C9.52632524,13.8172743 9.28660649,14.2522567 9.08851275,14.6031478 C8.91906506,14.9043486 8.71668381,15.0314888 8.55727343,15.0665586 C8.29498427,15.0694886 8.08222927,15.0096701 7.85344969,14.7999914 C6.98296766,14.0028224 5.54355539,12.630047 5.11646531,12.221866 C4.26419555,11.9880813 2.24629211,11.6366996 1.09691874,11.4122824 C0.868251854,11.36681 0.674624097,11.2359324 0.574219499,11.0406354 C0.493218775,10.8830769 0.453086698,10.6216035 0.608716861,10.2780694 C0.755407381,9.95305794 0.933720606,9.56562997 1.11873758,9.16718079 L1.34238094,8.6870409 C1.71516682,7.88895512 2.07489737,7.12901698 2.22222094,6.81838875 C2.19420356,5.96285026 1.94582387,3.96216131 1.81996795,2.76633537 C1.79352142,2.51519983 1.8859793,2.25802994 2.06566405,2.07766931 C2.2297587,1.91292172 2.45573657,1.830642 2.68648939,1.85416364 C3.8633142,1.97315893 5.8630591,2.21355116 6.44771426,2.28437951 C7.25008589,1.97990237 9.01745687,1.11143738 10.1073227,0.599993508 Z" id="形状" stroke="#595959"></path>
            <path d="M5.08199794,7.63436122 C4.86453825,7.41607487 4.51108397,7.41525233 4.29270998,7.63282579 C4.07433598,7.85019819 4.07360453,8.20341921 4.29117393,8.42179695 L4.69639649,8.82850196 C4.80540062,8.93791932 4.9485634,8.99266455 5.09181763,8.99266455 C5.23424897,8.99266455 5.37677173,8.93844941 5.48568444,8.83003739 C5.70405844,8.61266499 5.70478989,8.25935257 5.48722049,8.04106624 L5.08199794,7.63436122 Z M7.93867067,5.57469736 C8.04776624,5.68411472 8.19092903,5.73885996 8.33409181,5.73885996 C8.47652315,5.73885996 8.61904592,5.68464481 8.72795863,5.57623279 C8.94633263,5.35876899 8.94706408,5.00554797 8.72949467,4.78726164 L8.32418068,4.38055662 C8.10653814,4.16227027 7.75326672,4.16163052 7.53489273,4.37902119 C7.31651872,4.59648499 7.31578728,4.94970601 7.53335668,5.16799235 L7.93867067,5.57469736 Z M8.93781127,6.73114706 C8.63667386,6.79689618 8.4458389,7.09416556 8.51150471,7.39518211 C8.51251045,7.39962387 8.59562131,7.85182501 8.30975289,8.13865714 C8.0323327,8.41687994 7.61220688,8.33787862 7.58395467,8.33215733 C7.28599907,8.26578672 6.98870176,8.45128076 6.91873869,8.74929958 C6.84842819,9.04921939 7.03465501,9.34941339 7.33476839,9.41978707 C7.44205362,9.4449388 7.58230891,9.46283383 7.74127099,9.46283383 C8.1504068,9.46283383 8.68381574,9.34433187 9.10057689,8.92611116 C9.6754041,8.34933948 9.68630269,7.54283887 9.60209467,7.1573008 C9.53624598,6.85619287 9.23874753,6.6657818 8.93781127,6.73114706 Z" id="形状结合" fill="#595959"></path>
        </g>
    </g>
</svg>