<?xml version="1.0" encoding="UTF-8"?>
<svg width="16px" height="16px" viewBox="0 0 16 16" version="1.1" xmlns="http://www.w3.org/2000/svg" xmlns:xlink="http://www.w3.org/1999/xlink">
    <title>data-aggregation</title>
    <g id="S2" stroke="none" stroke-width="1" fill="none" fill-rule="evenodd">
        <g id="数据转换-详情" transform="translate(-894.000000, -181.000000)" fill-rule="nonzero">
            <g id="编组-19" transform="translate(864.000000, 156.000000)">
                <g id="编组-12" transform="translate(12.000000, 12.000000)">
                    <g id="data-aggregation" transform="translate(18.000000, 13.000000)">
                        <rect id="矩形" fill="#000000" opacity="0" x="0" y="0" width="16" height="16"></rect>
                        <path d="M11.8065457,4.91945601 L10.9367269,5.78902887 L12.5755089,7.42781087 L8.43353781,7.42781087 C8.06529154,6.68984239 7.22179357,5.24293219 6.91332275,4.69240771 C6.2845736,3.56971167 5.37195259,3 4.20128859,3 L0.9375,3 L0.9375,4.22994746 L4.2010426,4.22994746 C4.92277577,4.22994746 5.42828418,4.55834344 5.84031658,5.29409801 C6.15173928,5.84978827 7.00753672,7.39312635 7.36791133,8.04376856 C6.85985252,8.96063021 6.35065388,9.87685978 5.84031658,10.7924552 C5.42828418,11.5279637 4.92277577,11.8556217 4.2010426,11.8556217 L0.9375,11.8556217 L0.9375,13.0855692 L4.2010426,13.0855692 C5.3717066,13.0855692 6.28432761,12.5163495 6.91356874,11.3931615 C7.22179357,10.842391 8.06529154,9.39572681 8.43353781,8.65775833 L12.5905142,8.65775833 L10.9367269,10.3115457 L11.8065457,11.1811185 L14.9375,8.05016429 L11.8065457,4.91945601 Z" id="路径" fill="#FFFFFF"></path>
                    </g>
                </g>
            </g>
        </g>
    </g>
</svg>