<?xml version="1.0" encoding="UTF-8"?>
<svg width="20px" height="20px" viewBox="0 0 20 20" version="1.1" xmlns="http://www.w3.org/2000/svg" xmlns:xlink="http://www.w3.org/1999/xlink">
    <title>icon-inspect</title>
    <g id="页面-1" stroke="none" stroke-width="1" fill="none" fill-rule="evenodd">
        <g id="系统墙-多维查询-多实例对比" transform="translate(-870.000000, -347.000000)" fill-rule="nonzero">
            <g id="icon-inspect" transform="translate(870.000000, 347.000000)">
                <rect id="矩形" fill="#000000" opacity="0" x="0" y="0" width="20" height="20"></rect>
                <path d="M15.7925,14.4475 L17.9925,16.645 L18.155,16.79875 L16.6525,18.3275 L14.2825,15.9575 L15.7925,14.4475 L15.7925,14.4475 Z M9.4275,1.49985642 C11.4343243,1.48759632 13.3625475,2.27932016 14.7816136,3.69838635 C16.2006798,5.11745255 16.9924037,7.04567567 16.9801436,9.0525 C16.9924037,11.0593243 16.2006798,12.9875475 14.7816136,14.4066136 C13.3625475,15.8256798 11.4343243,16.6174037 9.4275,16.6051436 C7.42067567,16.6174037 5.49245255,15.8256798 4.07338635,14.4066136 C2.65432016,12.9875475 1.86259632,11.0593243 1.87485642,9.0525 C1.86259632,7.04567567 2.65432016,5.11745255 4.07338635,3.69838635 C5.49245255,2.27932016 7.42067567,1.48759632 9.4275,1.49985642 L9.4275,1.49985642 Z M9.4275,3.25 C7.88479958,3.23755419 6.40166871,3.84488985 5.31077928,4.93577928 C4.21988985,6.02666871 3.61255419,7.50979958 3.625,9.0525 C3.61255419,10.5952004 4.21988985,12.0783313 5.31077928,13.1692207 C6.40166871,14.2601102 7.88479958,14.8674458 9.4275,14.855 C10.9702004,14.8674458 12.4533313,14.2601102 13.5442207,13.1692207 C14.6351102,12.0783313 15.2424458,10.5952004 15.23,9.0525 C15.2424458,7.50979958 14.6351102,6.02666871 13.5442207,4.93577928 C12.4533313,3.84488985 10.9702004,3.23755419 9.4275,3.25 Z M13.2875,7.15125 C13.594549,7.45007459 13.6400482,7.92728642 13.395,8.27875 L13.305,8.38875 L11.095,10.66375 C10.7959994,10.9714897 10.3179655,11.0170167 9.96625,10.77125 L9.85625,10.68 L8.46875,9.32625 L7.12125,10.82 C6.83425111,11.13804 6.35918713,11.2015229 5.99875,10.97 L5.88625,10.88375 C5.56821005,10.5967511 5.50472711,10.1216871 5.73625,9.76125 L5.8225,9.64875 L7.77875,7.4775 C8.07716414,7.14650947 8.57667129,7.09268327 8.93875,7.3525 L9.04,7.4375 L10.45125,8.815 L12.05,7.17 C12.2115969,7.00337563 12.4327778,6.90778674 12.6648658,6.90427026 C12.8969539,6.90075377 13.1209292,6.98959786 13.2875,7.15125 L13.2875,7.15125 Z" id="形状" fill="#1A7AFF"></path>
            </g>
        </g>
    </g>
</svg>