<?xml version="1.0" encoding="UTF-8"?>
<svg width="16px" height="16px" viewBox="0 0 16 16" version="1.1" xmlns="http://www.w3.org/2000/svg" xmlns:xlink="http://www.w3.org/1999/xlink">
    <title>install</title>
    <g id="页面-1" stroke="none" stroke-width="1" fill="none" fill-rule="evenodd">
        <g id="install" fill-rule="nonzero">
            <g id="244安装、施工-线性" transform="translate(3.427937, 3.425444)" fill="#595959">
                <path d="M10.1577774,8.54598437 L6.51492022,4.90312722 C7.12920593,3.63169865 6.9006345,2.06027008 5.84349164,1.00312722 C4.9006345,0.0602700807 3.55777736,-0.211158491 2.38634879,0.160270081 C2.34349164,0.374555795 2.32920593,0.431698652 2.28634879,0.645984366 L3.42920593,1.71741294 L3.42920593,2.71741294 L2.71492022,3.43169865 L1.71492022,3.43169865 L0.643491644,2.28884151 C0.42920593,2.33169865 0.372063073,2.34598437 0.157777358,2.38884151 C-0.213651213,3.57455579 0.0720630725,4.91741294 1.0006345,5.86027008 C2.05777736,6.91741294 3.62920593,7.13169865 4.9006345,6.53169865 L8.54349164,10.1745558 C8.88066773,10.4873549 9.14512126,10.9674558 9.55988938,10.5189492 C9.89575799,10.1557599 10.3258395,10.1853525 10.5201696,9.6510481 C10.7258697,9.08548258 10.4820017,8.91974662 10.1577774,8.54598437 Z" id="形状"></path>
            </g>
            <circle id="椭圆形备份-2" stroke="#595959" cx="8" cy="8" r="7.5"></circle>
        </g>
    </g>
</svg>