<?xml version="1.0" encoding="UTF-8"?>
<svg width="20px" height="20px" viewBox="0 0 20 20" version="1.1" xmlns="http://www.w3.org/2000/svg" xmlns:xlink="http://www.w3.org/1999/xlink">
    <title>图形备份</title>
    <g id="图形备份" stroke="none" fill="none" fill-rule="evenodd" stroke-width="1">
        <g id="编组" transform="translate(3.3333, 1.6667)">
            <path d="M13.3333333,6.66666667 C13.3333333,9.50320833 11.5618333,11.926 9.06479167,12.889 L6.66666667,12.889 L4.26854167,12.889 C1.7715,11.926 0,9.50320833 0,6.66666667 C0,2.98475 2.98475,0 6.66666667,0 C10.3485833,0 13.3333333,2.98475 13.3333333,6.66666667 Z" id="路径" stroke="#262626" stroke-linecap="round" stroke-linejoin="round"></path>
            <path d="M9.064875,12.889 L8.78191667,16.284625 C8.76391667,16.5005833 8.583375,16.6666667 8.36666667,16.6666667 L4.96679167,16.6666667 C4.75008333,16.6666667 4.56954167,16.5005833 4.55158333,16.284625 L4.26858333,12.889" id="路径" stroke="#262626" stroke-linecap="round" stroke-linejoin="round"></path>
            <path d="M6.7288282,3.70833333 C6.8973566,3.70833333 7.04545176,3.82009416 7.09232192,3.98690409 L7.50815728,5.59221714 C7.53366565,5.6905862 7.61101672,5.76753855 7.7101856,5.79298992 L9.32786889,6.20775675 C9.49098295,6.25251695 9.60416667,6.40038103 9.60416667,6.5692092 C9.60416667,6.73803737 9.49098295,6.88590145 9.32387754,6.93172084 L7.71024646,7.34541287 C7.61101672,7.37087984 7.53366565,7.4478322 7.50816371,7.54617646 L7.09074036,9.1563952 C7.04518873,9.31832424 6.89709357,9.43008506 6.72856517,9.43008506 C6.56003676,9.43008506 6.4119416,9.31832424 6.36507145,9.1515143 L5.94922028,7.54614025 L5.92794985,7.48999042 C5.89191313,7.41911092 5.82653565,7.36578772 5.74717164,7.34541921 L4.12778,6.92991433 C3.96599692,6.8842313 3.85416667,6.73700509 3.85416667,6.5692092 C3.85416667,6.40141331 3.96599692,6.2541871 4.13344359,6.20697777 L5.74718067,5.79273519 C5.84637413,5.76729256 5.92371729,5.69040162 5.94922966,5.59224194 L6.36665301,3.9820232 C6.41220463,3.82009416 6.56029979,3.70833333 6.7288282,3.70833333 Z" id="路径" fill="#262626"></path>
        </g>
    </g>
</svg>