<?xml version="1.0" encoding="UTF-8"?>
<svg width="16px" height="16px" viewBox="0 0 16 16" version="1.1" xmlns="http://www.w3.org/2000/svg" xmlns:xlink="http://www.w3.org/1999/xlink">
    <title>图标/知识</title>
    <g id="图标/知识" stroke="none" fill="none" fill-rule="evenodd" stroke-width="1">
        <g id="编组" transform="translate(2.6667, 1.3333)">
            <path d="M10.6666667,5.33333333 C10.6666667,7.60256667 9.24946667,9.5408 7.25183333,10.3112 L5.33333333,10.3112 L3.41483333,10.3112 C1.4172,9.5408 0,7.60256667 0,5.33333333 C0,2.3878 2.3878,0 5.33333333,0 C8.27886667,0 10.6666667,2.3878 10.6666667,5.33333333 Z" id="路径" stroke="#262626" stroke-linecap="round" stroke-linejoin="round"></path>
            <path d="M7.2519,10.3112 L7.02553333,13.0277 C7.01113333,13.2004667 6.8667,13.3333333 6.69333333,13.3333333 L3.97343333,13.3333333 C3.80006667,13.3333333 3.65563333,13.2004667 3.64126667,13.0277 L3.41486667,10.3112" id="路径" stroke="#262626" stroke-linecap="round" stroke-linejoin="round"></path>
            <path d="M5.38306256,2.96666667 C5.51788528,2.96666667 5.63636141,3.05607532 5.67385753,3.18952327 L6.00652582,4.47377372 C6.02693252,4.55246896 6.08881337,4.61403084 6.16814848,4.63439193 L7.46229511,4.9662054 C7.59278636,5.00201356 7.68333333,5.12030482 7.68333333,5.25536736 C7.68333333,5.39042989 7.59278636,5.50872116 7.45910203,5.54537667 L6.16819717,5.87633029 C6.08881337,5.89670387 6.02693252,5.95826576 6.00653097,6.03694117 L5.67259229,7.32511616 C5.63615099,7.45465939 5.51767486,7.54406805 5.38285213,7.54406805 C5.24802941,7.54406805 5.12955328,7.45465939 5.09205716,7.32121144 L4.75937622,6.0369122 L4.74235988,5.99199234 C4.7135305,5.93528874 4.66122852,5.89263017 4.59773731,5.87633537 L3.302224,5.54393146 C3.17279754,5.50738504 3.08333333,5.38960407 3.08333333,5.25536736 C3.08333333,5.12113065 3.17279754,5.00334968 3.30675487,4.96558221 L4.59774454,4.63418815 C4.67709931,4.61383405 4.73897383,4.5523213 4.75938373,4.47379355 L5.09332241,3.18561856 C5.12976371,3.05607532 5.24823983,2.96666667 5.38306256,2.96666667 Z" id="路径" fill="#262626"></path>
        </g>
    </g>
</svg>