<?xml version="1.0" encoding="UTF-8"?>
<svg width="16px" height="16px" viewBox="0 0 16 16" version="1.1" xmlns="http://www.w3.org/2000/svg" xmlns:xlink="http://www.w3.org/1999/xlink">
    <title>图标-对话模式备份</title>
    <g id="页面-1" stroke="none" stroke-width="1" fill="none" fill-rule="evenodd">
        <g id="项目详情" transform="translate(-1369, -577)">
            <g id="编组备份" transform="translate(1365, 573)">
                <g id="编组" transform="translate(4, 4)">
                    <rect id="矩形-3" x="0" y="0" width="16" height="16"></rect>
                    <path d="M8.92112397,7.05048035 L7.97706093,7.05048035 C7.19158929,7.05048035 6.55483871,7.64811757 6.55483871,8.38534045 L6.55483871,12.5729258 L6.55483871,13.4933333 L8.12387097,12.5729258 L12.9777778,12.5729258 C13.7632494,12.5729258 14.4,11.9752885 14.4,11.2380657 L14.4,11.4103057" id="路径" stroke="#8C8C8C" stroke-width="1.2" stroke-linecap="round" stroke-linejoin="round" transform="translate(10.4774, 10.2719) scale(-1, 1) translate(-10.4774, -10.2719)"></path>
                    <path d="M10.4225806,2.4 L3.1,2.4 C2.27157288,2.4 1.6,3.07157288 1.6,3.9 L1.6,9.66637555 L1.6,10.8774381 L1.6,10.8774381 L3.66451613,9.66637555 L10.4225806,9.66637555 C11.2510078,9.66637555 11.9225806,8.99480267 11.9225806,8.16637555 L11.9225806,3.9 C11.9225806,3.07157288 11.2510078,2.4 10.4225806,2.4 Z" id="路径" stroke="#8C8C8C" stroke-width="1.2" stroke-linecap="round" stroke-linejoin="round"></path>
                </g>
            </g>
        </g>
    </g>
</svg>