<?xml version="1.0" encoding="UTF-8"?>
<svg width="16px" height="16px" viewBox="0 0 16 16" version="1.1" xmlns="http://www.w3.org/2000/svg" xmlns:xlink="http://www.w3.org/1999/xlink">
    <title>reload</title>
    <g id="页面-1" stroke="none" stroke-width="1" fill="none" fill-rule="evenodd">
        <g id="reload">
            <rect id="矩形" x="0" y="0" width="16" height="16"></rect>
            <g id="编组-10" transform="translate(0.000000, 0.332000)" fill="#595959">
                <path d="M10.477054,0.467204866 C13.08447,1.41622669 14.9452449,3.66636242 15.4305567,6.34685218 C15.4760405,6.59807003 15.3092602,6.83859427 15.0580423,6.88407811 C14.8068245,6.92956196 14.5663002,6.76278159 14.5208164,6.51156375 C14.093498,4.15138504 12.4561199,2.17139117 10.1608458,1.3359797 C6.63816632,0.0538292278 2.74308205,1.87013685 1.46093158,5.39281632 C1.3736131,5.63272187 1.10834562,5.75641812 0.868440071,5.66909965 C0.628534525,5.58178117 0.504838266,5.31651369 0.592156744,5.07660814 C2.04894417,1.07411758 6.4745634,-0.989582562 10.477054,0.467204866 Z" id="路径" fill-rule="nonzero"></path>
                <path d="M15.246804,7.05968762 L15.9917463,5.04537817 C16.0087436,5.00024138 15.9990582,4.94938871 15.9666594,4.91365983 C15.9342606,4.87793096 15.8845949,4.86333232 15.8380156,4.87584651 L13.4896672,5.46135554 C13.4426651,5.47217381 13.4056665,5.50838027 13.3938338,5.55513732 C13.382001,5.60189436 13.3973232,5.6513416 13.4335214,5.68321529 L15.0369274,7.11201572 C15.0693518,7.14050909 15.1136926,7.15128045 15.1555753,7.14083791 C15.1834971,7.13387622 15.2079572,7.11807686 15.2256806,7.09635289 L15.246804,7.05968762 Z" id="路径备份-15" fill-rule="nonzero"></path>
                <path d="M10.5408501,9.18958791 C13.1714078,10.1470326 14.8586522,12.1361528 15.3391068,14.7898152 C15.3845907,15.041033 15.2178103,15.2815573 14.9665925,15.3270411 C14.7153746,15.372525 14.4748504,15.2057446 14.4293665,14.9545267 C14.0076804,12.6254564 12.5472401,10.9037194 10.2246419,10.0583627 C6.70196242,8.77621227 2.80687815,10.5925199 1.52472768,14.1151994 C1.4374092,14.3551049 1.17214172,14.4788012 0.932236173,14.3914827 C0.692330627,14.3041642 0.568634368,14.0388967 0.655952845,13.7989912 C2.11274027,9.79650062 6.53835951,7.73280048 10.5408501,9.18958791 Z" id="路径" fill-rule="nonzero" transform="translate(7.987265, 12.028450) scale(-1, -1) translate(-7.987265, -12.028450) "></path>
                <path d="M1.85690482,9.32712276 L2.60184717,7.31281331 C2.61884442,7.26767652 2.60915909,7.21682385 2.57676027,7.18109498 C2.54436145,7.1453661 2.49469577,7.13076746 2.44811648,7.14328166 L0.0997680608,7.72879068 C0.0527659242,7.73960895 0.0157673787,7.77581541 0.00393461273,7.82257246 C-0.00789815326,7.86932951 0.00742408758,7.91877674 0.0436222046,7.95065043 L1.64702827,9.37945086 C1.67945261,9.40794423 1.72379341,9.4187156 1.76567615,9.40827306 C1.79359798,9.40131136 1.81805804,9.385512 1.83578148,9.36378803 L1.85690482,9.32712276 Z" id="路径备份-15" fill-rule="nonzero" transform="translate(1.305050, 8.275528) scale(-1, -1) translate(-1.305050, -8.275528) "></path>
                <path d="M11.4859007,10.1602389 L8.50410805,7.23957384 C8.81935688,6.39493764 8.66019467,5.39113922 7.96241829,4.70797193 C7.36113881,4.1193793 6.50727581,3.91831205 5.75452311,4.14744413 C5.37814676,4.25047668 7.79056923,5.718306 6.79330646,6.76593169 C5.81911068,7.81355739 4.2643957,5.42035741 4.1771256,5.80519165 C3.97759615,6.57562904 4.20557488,7.43448989 4.80685436,8.02308252 C5.50463074,8.70624981 6.49997126,8.85656968 7.32038713,8.48288448 L10.3021797,11.4035496 C10.6393422,11.7326386 11.1821853,11.7230274 11.5074299,11.3820204 C11.8326744,11.0413979 11.8230631,10.489328 11.4859007,10.1602389 Z" id="路径" transform="translate(7.925891, 7.849649) scale(-1, 1) translate(-7.925891, -7.849649) "></path>
            </g>
        </g>
    </g>
</svg>