<?xml version="1.0" encoding="UTF-8"?>
<svg width="16px" height="16px" viewBox="0 0 16 16" version="1.1" xmlns="http://www.w3.org/2000/svg" xmlns:xlink="http://www.w3.org/1999/xlink">
    <title>restart</title>
    <g id="页面-1" stroke="none" stroke-width="1" fill="none" fill-rule="evenodd">
        <g id="restart" fill-rule="nonzero">
            <rect id="矩形" x="0" y="0" width="16" height="16"></rect>
            <rect id="矩形" stroke="#595959" x="0.5" y="0.5" width="15" height="15" rx="4"></rect>
            <path d="M7.99866726,2 C8.26376393,2 8.47866726,2.21490332 8.47866726,2.48 L8.47866726,4.72 C8.47866726,4.98509668 8.26376393,5.2 7.99866726,5.2 C7.73357058,5.2 7.51866726,4.98509668 7.51866726,4.72 L7.51866726,2.48 C7.51866726,2.21490332 7.73357058,2 7.99866726,2 Z M13.7050064,6.14589803 C13.7869257,6.39801996 13.6489493,6.66881394 13.3968274,6.75073332 L11.2664608,7.44293139 C11.0143389,7.52485077 10.7435449,7.38687434 10.6616255,7.13475242 C10.5797061,6.88263049 10.7176825,6.61183651 10.9698045,6.52991713 L13.1001711,5.83771906 C13.352293,5.75579968 13.623087,5.89377611 13.7050064,6.14589803 Z M11.5253788,3.14589803 C11.7398465,3.30171795 11.7873899,3.60189539 11.63157,3.81636311 L10.314931,5.62856118 C10.1591111,5.8430289 9.85893368,5.89057233 9.64446596,5.73475242 C9.42999824,5.5789325 9.38245481,5.27875506 9.53827473,5.06428734 L10.8549137,3.25208927 C11.0107336,3.03762155 11.310911,2.99007811 11.5253788,3.14589803 Z M10.314931,10.3714388 L11.63157,12.1836369 C11.7873899,12.3981046 11.7398465,12.698282 11.5253788,12.854102 C11.310911,13.0099219 11.0107336,12.9623784 10.8549137,12.7479107 L9.53827473,10.9357127 C9.38245481,10.7212449 9.42999824,10.4210675 9.64446596,10.2652476 C9.85893368,10.1094277 10.1591111,10.1569711 10.314931,10.3714388 Z M11.2664608,8.55706861 L13.3968274,9.24926668 C13.6489493,9.33118606 13.7869257,9.60198004 13.7050064,9.85410197 C13.623087,10.1062239 13.352293,10.2442003 13.1001711,10.1622809 L10.9698045,9.47008287 C10.7176825,9.38816349 10.5797061,9.11736951 10.6616255,8.86524758 C10.7435449,8.61312566 11.0143389,8.47514923 11.2664608,8.55706861 Z M7.99866726,14 C7.73357058,14 7.51866726,13.7850967 7.51866726,13.52 L7.51866726,11.28 C7.51866726,11.0149033 7.73357058,10.8 7.99866726,10.8 C8.26376393,10.8 8.47866726,11.0149033 8.47866726,11.28 L8.47866726,13.52 C8.47866726,13.7850967 8.26376393,14 7.99866726,14 Z M6.35286855,10.2652476 C6.56733627,10.4210675 6.6148797,10.7212449 6.45905978,10.9357127 L5.14242082,12.7479107 C4.9866009,12.9623784 4.68642346,13.0099219 4.47195574,12.854102 C4.25748802,12.698282 4.20994459,12.3981046 4.36576451,12.1836369 L5.68240347,10.3714388 C5.83822339,10.1569711 6.13840083,10.1094277 6.35286855,10.2652476 Z M5.33570901,8.86524758 C5.41762839,9.11736951 5.27965196,9.38816349 5.02753004,9.47008287 L2.89716344,10.1622809 C2.64504152,10.2442003 2.37424754,10.1062239 2.29232816,9.85410197 C2.21040878,9.60198004 2.3483852,9.33118606 2.60050713,9.24926668 L4.73087372,8.55706861 C4.98299565,8.47514923 5.25378963,8.61312566 5.33570901,8.86524758 Z M2.89716344,5.83771906 L5.02753004,6.52991713 C5.27965196,6.61183651 5.41762839,6.88263049 5.33570901,7.13475242 C5.25378963,7.38687434 4.98299565,7.52485077 4.73087372,7.44293139 L2.60050713,6.75073332 C2.3483852,6.66881394 2.21040878,6.39801996 2.29232816,6.14589803 C2.37424754,5.89377611 2.64504152,5.75579968 2.89716344,5.83771906 Z M5.14242082,3.25208927 L6.45905978,5.06428734 C6.6148797,5.27875506 6.56733627,5.5789325 6.35286855,5.73475242 C6.13840083,5.89057233 5.83822339,5.8430289 5.68240347,5.62856118 L4.36576451,3.81636311 C4.20994459,3.60189539 4.25748802,3.30171795 4.47195574,3.14589803 C4.68642346,2.99007811 4.9866009,3.03762155 5.14242082,3.25208927 Z" id="形状结合" fill="#595959"></path>
        </g>
    </g>
</svg>