<?xml version="1.0" encoding="UTF-8"?>
<svg width="16px" height="16px" viewBox="0 0 16 16" version="1.1" xmlns="http://www.w3.org/2000/svg" xmlns:xlink="http://www.w3.org/1999/xlink">
    <title>图标-项目总结</title>
    <g id="图标-项目总结" stroke="none" fill="none" fill-rule="evenodd" stroke-width="1">
        <g id="编组" transform="translate(2.6667, 1.3333)">
            <path d="M10.8333333,5.66666667 L10.8333333,12.1666667 C10.8333333,12.9950938 10.1617605,13.6666667 9.33333333,13.6666667 L1.33333333,13.6666667 C0.504906209,13.6666667 -0.166666667,12.9950938 -0.166666667,12.1666667 L-0.166666667,1.16666667 C-0.166666667,0.338239542 0.504906209,-0.333333333 1.33333333,-0.333333333 L4.33333333,-0.333333333" id="路径" stroke="#262626" stroke-linecap="round"></path>
            <rect id="矩形-5" fill="#262626" x="2.33333333" y="8.66666667" width="6" height="2" rx="0.5"></rect>
            <rect id="矩形-5备份" fill="#262626" x="2.33333333" y="6.16666667" width="4" height="1" rx="0.5"></rect>
            <rect id="矩形-5备份-2" fill="#262626" x="2.33333333" y="3.66666667" width="4" height="1" rx="0.5"></rect>
            <path d="M8.52598207,-0.333333333 C8.67797734,-0.333333333 8.81154393,-0.232536579 8.85381598,-0.0820911896 L9.22885666,1.36573591 C9.25186259,1.45445467 9.32162529,1.52385777 9.41106541,1.54681228 L10.8700492,1.92088926 C11.0171613,1.96125834 11.1192413,2.09461652 11.1192413,2.24688215 C11.1192413,2.39914778 11.0171613,2.53250596 10.8664494,2.57383033 L9.4111203,2.94693795 C9.32162529,2.96990654 9.25186259,3.03930963 9.22886246,3.12800603 L8.85238958,4.58025756 C8.8113067,4.72630088 8.67774011,4.82709763 8.52574484,4.82709763 C8.37374957,4.82709763 8.24018298,4.72630088 8.19791093,4.57585549 L7.82285599,3.12797338 L7.80367226,3.07733202 C7.77117084,3.013406 7.71220709,2.96531396 7.64062892,2.94694367 L6.18010439,2.57220104 C6.03419271,2.53099965 5.93333333,2.39821677 5.93333333,2.24688215 C5.93333333,2.09554753 6.03419271,1.96276465 6.18521236,1.92018669 L7.64063707,1.54658254 C7.73009936,1.52363591 7.79985493,1.45428819 7.82286445,1.36575827 L8.19933734,-0.0864932557 C8.24042021,-0.232536579 8.3739868,-0.333333333 8.52598207,-0.333333333 Z" id="路径" fill="#262626"></path>
        </g>
    </g>
</svg>