<?xml version="1.0" encoding="UTF-8"?>
<svg width="14px" height="12px" viewBox="0 0 14 12" version="1.1" xmlns="http://www.w3.org/2000/svg" xmlns:xlink="http://www.w3.org/1999/xlink">
    <title>transfer</title>
    <g id="页面-1" stroke="none" stroke-width="1" fill="none" fill-rule="evenodd">
        <g id="故障处理列表" transform="translate(-1128.000000, -88.000000)">
            <g id="transfer" transform="translate(1128.000000, 87.000000)">
                <rect id="矩形" x="0" y="0" width="14" height="14"></rect>
                <path d="M11.7014275,4.38464506 L11.7253472,4.38614005 L8.21661844,7.62128665 L8.21661844,7.58690201 C8.2106385,7.64221644 8.16429398,7.68706597 8.10748457,7.68706597 C8.04768519,7.68706597 7.99984568,7.63922647 7.99984568,7.57942708 C7.99984568,7.56896219 8.00134066,7.55999228 8.00433063,7.55102238 L8.00433063,5.57913773 C7.83390239,5.56867284 7.66048418,5.5626929 7.48557099,5.5626929 C5.47182677,5.5626929 3.78996914,6.98591821 3.39379823,8.88305363 C3.21290509,8.60947145 3.13815586,8.1490162 3.13815586,7.38806906 C3.13815586,5.0783179 5.00987654,2.99131944 7.3196277,2.99131944 C7.55583526,2.99131944 7.7845679,2.99281443 8.00433063,2.99729938 L8.00433063,1.1360436 C8.00134066,1.12707369 7.99984568,1.11810378 7.99984568,1.10763889 C7.99984568,1.04783951 8.04768519,1 8.10748457,1 C8.16429398,1 8.2106385,1.04335455 8.21512346,1.10016397 L8.21661844,1.07325424 L11.7373071,4.16936728 L11.7014275,4.16936728 C11.7567419,4.17534722 11.8015914,4.22169174 11.8015914,4.27850116 C11.8015914,4.33381559 11.7567419,4.38016011 11.7014275,4.38464506 Z M13.2,9.36726669 L13.2,12.5580247 L0.8,12.5580247 L0.8,9.36726669 L2.00457143,9.36726669 L2.00457143,11.3573135 L11.9954286,11.3573135 L11.9954286,9.36726669 L13.2,9.36726669 Z" id="形状" fill="#000000" fill-rule="nonzero"></path>
            </g>
        </g>
    </g>
</svg>