<?xml version="1.0" encoding="UTF-8"?>
<svg width="16px" height="16px" viewBox="0 0 16 16" version="1.1" xmlns="http://www.w3.org/2000/svg" xmlns:xlink="http://www.w3.org/1999/xlink">
    <title>图标-目标规划</title>
    <g id="图标-目标规划" stroke="none" fill="none" fill-rule="evenodd" stroke-linejoin="round" stroke-width="1">
        <g id="编组" transform="translate(2, 2)">
            <path d="M6,0 C2.6863,0 0,2.6863 0,6 C0,9.3137 2.6863,12 6,12 C9.3137,12 12,9.3137 12,6" id="路径" stroke="#262626" stroke-linecap="round"></path>
            <path d="M6,3 C4.34313333,3 3,4.34313333 3,6 C3,7.65686667 4.34313333,9 6,9 C7.65686667,9 9,7.65686667 9,6" id="路径" stroke="#262626" stroke-linecap="round"></path>
            <line x1="6" y1="6.00003333" x2="8.1" y2="3.8981" id="路径" stroke="#2540FF" stroke-linecap="round"></line>
            <polygon id="路径" stroke="#2540FF" points="8.09993333 1.8088 8.09993333 3.9 10.2083 3.9 11.9999667 2.10006667 9.90103333 2.10006667 9.90103333 0"></polygon>
        </g>
    </g>
</svg>