<?xml version="1.0" encoding="UTF-8"?>
<svg width="16px" height="16px" viewBox="0 0 16 16" version="1.1" xmlns="http://www.w3.org/2000/svg" xmlns:xlink="http://www.w3.org/1999/xlink">
    <title>图标-任务执行</title>
    <g id="图标-任务执行" stroke="none" fill="none" fill-rule="evenodd" stroke-width="1">
        <g id="编组" transform="translate(1.3333, 2)">
            <path d="M13.3333333,5 L13.3333333,5 L13.3333333,10.5 C13.3333333,11.3284271 12.6617605,12 11.8333333,12 L1.5,12 C0.671572875,12 0,11.3284271 0,10.5 L0,1.5 C0,0.671572875 0.671572875,0 1.5,0 L1.5,0 L8.66666667,0 L8.66666667,0" id="路径" stroke="#262626" stroke-linecap="round" stroke-linejoin="round"></path>
            <path d="M11.8593154,-1 C12.0113107,-1 12.1448773,-0.899203245 12.1871493,-0.748757856 L12.56219,0.699069239 C12.5851959,0.787788 12.6549586,0.857191099 12.7443987,0.88014561 L14.2033825,1.25422259 C14.3504946,1.29459168 14.4525747,1.42794986 14.4525747,1.58021548 C14.4525747,1.73248111 14.3504946,1.86583929 14.1997827,1.90716366 L12.7444536,2.28027128 C12.6549586,2.30323987 12.5851959,2.37264297 12.5621958,2.46133937 L12.1857229,3.91359089 C12.14464,4.05963421 12.0110734,4.16043097 11.8590782,4.16043097 C11.7070829,4.16043097 11.5735163,4.05963421 11.5312443,3.90918882 L11.1561893,2.46130671 L11.1370056,2.41066535 C11.1045042,2.34673934 11.0455404,2.2986473 10.9739623,2.280277 L9.51343772,1.90553438 C9.36752605,1.86433299 9.26666667,1.7315501 9.26666667,1.58021548 C9.26666667,1.42888087 9.36752605,1.29609798 9.5185457,1.25352003 L10.9739704,0.879915872 C11.0634327,0.856969242 11.1331883,0.787621527 11.1561978,0.699091602 L11.5326707,-0.753159922 C11.5737535,-0.899203245 11.7073201,-1 11.8593154,-1 Z" id="路径" fill="#2540FF"></path>
            <g transform="translate(2.6667, 5.8333)" id="路径" stroke="#262626" stroke-linecap="round" stroke-linejoin="round">
                <line x1="2.66666667" y1="0.166666667" x2="8" y2="0.166666667"></line>
                <line x1="0" y1="0.166666667" x2="0.666666667" y2="0.166666667"></line>
            </g>
            <g transform="translate(2.6667, 8.5)" id="路径" stroke="#262626" stroke-linecap="round" stroke-linejoin="round">
                <line x1="2.66666667" y1="0.166666667" x2="8" y2="0.166666667"></line>
                <line x1="0" y1="0.166666667" x2="0.666666667" y2="0.166666667"></line>
            </g>
            <g transform="translate(2.6667, 3.17)" stroke="#262626" stroke-linecap="round" stroke-linejoin="round">
                <line x1="2.66666667" y1="0.166666667" x2="6" y2="0.166666667" id="路径备份-2"></line>
                <line x1="0" y1="0.166666667" x2="0.666666667" y2="0.166666667" id="路径备份"></line>
            </g>
        </g>
    </g>
</svg>