<?xml version="1.0" encoding="UTF-8"?>
<svg width="86px" height="80px" viewBox="0 0 86 80" version="1.1" xmlns="http://www.w3.org/2000/svg" xmlns:xlink="http://www.w3.org/1999/xlink">
    <!-- Generator: Sketch 63.1 (92452) - https://sketch.com -->
    <title>插图/空表格  灰色背景</title>
    <desc>Created with Sketch.</desc>
    <g id="页面-1" stroke="none" stroke-width="1" fill="none" fill-rule="evenodd">
        <g id="评分详情" transform="translate(-516.000000, -1049.000000)">
            <g id="编组-15" transform="translate(283.000000, 485.000000)">
                <g id="插图/空表格--灰色背景" transform="translate(233.000000, 564.000000)">
                    <path d="M15.8920197,52.3 C15.2974614,52.3 14.7260027,52.5302406 14.2975138,52.9424261 L6.1,60.8280376 L6.1,74.2 C6.1,75.6083261 6.67083694,76.8833261 7.59375542,77.8062446 C8.51667389,78.7291631 9.79167389,79.3 11.2,79.3 L65.8,79.3 C67.2083261,79.3 68.4833261,78.7291631 69.4062446,77.8062446 C70.3291631,76.8833261 70.9,75.6083261 70.9,74.2 L70.9,60.8280376 L62.7024862,52.9424261 C62.1846819,52.4443235 61.3705885,52.3 15.8920197,52.3 Z" id="Fill-3" stroke="#D9D9D9" fill="#FDFDFD"></path>
                    <path d="M16.8,19.6 L60.2,19.6 C61.7463973,19.6 63,20.8536027 63,22.4 L63,67.2 C63,68.7463973 61.7463973,70 60.2,70 L16.8,70 C15.2536027,70 14,68.7463973 14,67.2 L14,22.4 C14,20.8536027 15.2536027,19.6 16.8,19.6 Z" id="矩形" stroke="#EEEEEE" fill="#F7F7F7"></path>
                    <path d="M23.8,26.6 L53.2,26.6 C54.7463973,26.6 56,27.8536027 56,29.4 L56,39.2 C56,40.7463973 54.7463973,42 53.2,42 L23.8,42 C22.2536027,42 21,40.7463973 21,39.2 L21,29.4 C21,27.8536027 22.2536027,26.6 23.8,26.6 Z" id="矩形备份" fill="#E5E5E5"></path>
                    <path d="M23.8,53.2 L46.2,53.2 C46.9731986,53.2 47.6,53.8268014 47.6,54.6 C47.6,55.3731986 46.9731986,56 46.2,56 L23.8,56 C23.0268014,56 22.4,55.3731986 22.4,54.6 C22.4,53.8268014 23.0268014,53.2 23.8,53.2 Z" id="矩形备份-2" fill="#E5E5E5"></path>
                    <path d="M23.8,46.2 L53.2,46.2 C53.9731986,46.2 54.6,46.8268014 54.6,47.6 C54.6,48.3731986 53.9731986,49 53.2,49 L23.8,49 C23.0268014,49 22.4,48.3731986 22.4,47.6 C22.4,46.8268014 23.0268014,46.2 23.8,46.2 Z" id="矩形备份-4" fill="#E5E5E5"></path>
                    <path d="M82.6,42 C82.9865993,42 83.3,42.3134007 83.3,42.7 L83.3,44.099 L84.7,44.1 C85.0865993,44.1 85.4,44.4134007 85.4,44.8 C85.4,45.1865993 85.0865993,45.5 84.7,45.5 L83.3,45.499 L83.3,46.9 C83.3,47.2865993 82.9865993,47.6 82.6,47.6 C82.2134007,47.6 81.9,47.2865993 81.9,46.9 L81.9,45.499 L80.5,45.5 C80.1134007,45.5 79.8,45.1865993 79.8,44.8 C79.8,44.4134007 80.1134007,44.1 80.5,44.1 L81.9,44.099 L81.9,42.7 C81.9,42.3134007 82.2134007,42 82.6,42 Z" id="形状结合" fill="#CDCDCD"></path>
                    <path d="M2.1,30.8 C2.38994949,30.8 2.625,31.0350505 2.625,31.325 L2.624,32.199 L3.5,32.2 C3.88659932,32.2 4.2,32.5134007 4.2,32.9 C4.2,33.2865993 3.88659932,33.6 3.5,33.6 L2.624,33.6 L2.625,34.475 C2.625,34.7649495 2.38994949,35 2.1,35 C1.81005051,35 1.575,34.7649495 1.575,34.475 L1.574,33.6 L0.7,33.6 C0.313400675,33.6 4.73447626e-17,33.2865993 0,32.9 C-4.73447626e-17,32.5134007 0.313400675,32.2 0.7,32.2 L1.574,32.199 L1.575,31.325 C1.575,31.0350505 1.81005051,30.8 2.1,30.8 Z" id="形状结合备份-2" fill="#E5E5E5"></path>
                    <path d="M17.9984179,60.7000021 L6.10015058,60.7000358 L6.10510531,77.154536 C6.14309629,77.7280659 6.3915316,78.2440039 6.7736544,78.6261267 C7.1629716,79.0154439 7.69252567,79.2581047 8.41396794,79.2997808 L37.7999893,79.299149 L68.7547938,79.2948921 C69.3533104,79.2552358 69.889091,78.9863945 70.2755459,78.5756217 C70.6627784,78.1640224 70.9,77.6097084 70.9,77 L70.9,60.7004595 L57.3950588,60.7088435 C55.7577859,60.8117509 54.1798683,61.7212704 52.292427,62.7799079 C48.9535268,64.6526469 44.7118004,67.0223933 37.7683645,66.8840911 L37.2309893,66.868522 C30.1617764,66.6079804 25.8794504,64.262389 22.700148,62.5165937 C20.8637009,61.5081772 19.4242664,60.6834499 17.9984179,60.7000021 Z" id="形状结合" stroke="#D9D9D9" fill="#F7F5F5"></path>
                    <path d="M21,3.35581256 C21,3.35581256 24.5182832,2.5088335 25.5163465,0 C26.9540853,2.05742772 27.6953782,2.94711864 29.4,3.33822532 C27.0789532,4.02971087 26.0707773,4.80634098 25.2767234,7 C24.3652761,4.41551346 23.5356085,4.08107677 21,3.35581256" id="Fill-1" fill="#F5F5F5"></path>
                    <path d="M63,10.1251127 C63,10.1251127 72.3820885,7.9229671 75.0435907,1.4 C78.8775608,6.74931206 80.8543418,9.06250847 85.4,10.0793858 C79.2105417,11.8772483 76.5220728,13.8964865 74.4045957,19.6 C71.9740696,12.880335 69.7616226,12.0107996 63,10.1251127" id="Fill-1备份" fill="#E5E5E5"></path>
                </g>
            </g>
        </g>
    </g>
</svg>