<?xml version="1.0" encoding="UTF-8"?>
<svg width="105px" height="55px" viewBox="0 0 105 55" version="1.1" xmlns="http://www.w3.org/2000/svg" xmlns:xlink="http://www.w3.org/1999/xlink">
    <title>presentational-bricks.crontab-display备份</title>
    <g id="nora" stroke="none" stroke-width="1" fill="none" fill-rule="evenodd">
        <g id="-构件概览图四" transform="translate(-537.000000, -371.000000)">
            <g id="presentational-bricks.crontab-display备份" transform="translate(537.000000, 371.000000)">
                <rect id="矩形备份-46" x="2.27373675e-13" y="0" width="105" height="55" rx="4"></rect>
                <g id="编组-3" transform="translate(10.000000, 24.000000)">
                    <g id="编组-31" transform="translate(0.000000, 10.000000)" fill="#D6DBEC">
                        <g id="编组-28" transform="translate(6.000000, 0.000000)">
                            <rect id="矩形备份-76" x="0" y="0" width="1" height="6"></rect>
                            <rect id="矩形备份-90" x="2" y="0" width="1" height="6"></rect>
                            <rect id="矩形备份-91" x="4" y="0" width="1" height="6"></rect>
                            <rect id="矩形备份-92" x="6" y="0" width="1" height="6"></rect>
                            <rect id="矩形备份-93" x="8" y="0" width="1" height="6"></rect>
                            <rect id="矩形备份-94" x="10" y="0" width="1" height="6"></rect>
                            <rect id="矩形备份-95" x="12" y="0" width="1" height="6"></rect>
                            <rect id="矩形备份-96" x="14" y="0" width="1" height="6"></rect>
                            <rect id="矩形备份-97" x="16" y="0" width="1" height="6"></rect>
                            <rect id="矩形备份-98" x="18" y="0" width="1" height="6"></rect>
                            <rect id="矩形备份-99" x="20" y="0" width="1" height="6"></rect>
                            <rect id="矩形备份-100" x="22" y="0" width="1" height="6"></rect>
                            <rect id="矩形备份-101" x="24" y="0" width="1" height="6"></rect>
                            <rect id="矩形备份-102" x="26" y="0" width="1" height="6"></rect>
                            <rect id="矩形备份-103" x="28" y="0" width="1" height="6"></rect>
                            <rect id="矩形备份-104" x="30" y="0" width="1" height="6"></rect>
                            <rect id="矩形备份-105" x="32" y="0" width="1" height="6"></rect>
                            <rect id="矩形备份-106" x="34" y="0" width="1" height="6"></rect>
                            <rect id="矩形备份-107" x="36" y="0" width="1" height="6"></rect>
                            <rect id="矩形备份-108" x="38" y="0" width="1" height="6"></rect>
                            <rect id="矩形备份-109" x="40" y="0" width="1" height="6"></rect>
                            <rect id="矩形备份-110" x="42" y="0" width="1" height="6"></rect>
                            <rect id="矩形备份-111" x="44" y="0" width="1" height="6"></rect>
                            <rect id="矩形备份-112" x="46" y="0" width="1" height="6"></rect>
                            <rect id="矩形备份-113" x="48" y="0" width="1" height="6"></rect>
                            <rect id="矩形备份-114" x="50" y="0" width="1" height="6"></rect>
                            <rect id="矩形备份-115" x="52" y="0" width="1" height="6"></rect>
                        </g>
                        <path d="M1,4 C0.448606061,4 0,3.55139394 0,3 C0,2.44860606 0.448606061,2 1,2 C1.55139394,2 2,2.44860606 2,3 C2,3.55139394 1.55139394,4 1,4 Z" id="路径" fill-rule="nonzero"></path>
                    </g>
                    <g id="编组-32" transform="translate(0.000000, 20.000000)" fill="#D6DBEC">
                        <g id="编组-30" transform="translate(6.000000, 0.000000)">
                            <rect id="矩形备份-76" x="0" y="0" width="1" height="6"></rect>
                            <rect id="矩形备份-90" x="2" y="0" width="1" height="6"></rect>
                            <rect id="矩形备份-91" x="4" y="0" width="1" height="6"></rect>
                            <rect id="矩形备份-92" x="6" y="0" width="1" height="6"></rect>
                            <rect id="矩形备份-93" x="8" y="0" width="1" height="6"></rect>
                            <rect id="矩形备份-94" x="10" y="0" width="1" height="6"></rect>
                            <rect id="矩形备份-95" x="12" y="0" width="1" height="6"></rect>
                            <rect id="矩形备份-96" x="14" y="0" width="1" height="6"></rect>
                            <rect id="矩形备份-97" x="16" y="0" width="1" height="6"></rect>
                            <rect id="矩形备份-98" x="18" y="0" width="1" height="6"></rect>
                            <rect id="矩形备份-99" x="20" y="0" width="1" height="6"></rect>
                            <rect id="矩形备份-100" x="22" y="0" width="1" height="6"></rect>
                            <rect id="矩形备份-101" x="24" y="0" width="1" height="6"></rect>
                            <rect id="矩形备份-102" x="26" y="0" width="1" height="6"></rect>
                            <rect id="矩形备份-103" x="28" y="0" width="1" height="6"></rect>
                            <rect id="矩形备份-104" x="30" y="0" width="1" height="6"></rect>
                            <rect id="矩形备份-105" x="32" y="0" width="1" height="6"></rect>
                            <rect id="矩形备份-106" x="34" y="0" width="1" height="6"></rect>
                            <rect id="矩形备份-107" x="36" y="0" width="1" height="6"></rect>
                            <rect id="矩形备份-108" x="38" y="0" width="1" height="6"></rect>
                            <rect id="矩形备份-109" x="40" y="0" width="1" height="6"></rect>
                            <rect id="矩形备份-110" x="42" y="0" width="1" height="6"></rect>
                            <rect id="矩形备份-111" x="44" y="0" width="1" height="6"></rect>
                            <rect id="矩形备份-112" x="46" y="0" width="1" height="6"></rect>
                            <g id="编组-29" transform="translate(48.000000, 0.000000)">
                                <rect id="矩形备份-113" x="0" y="0" width="1" height="6"></rect>
                                <rect id="矩形备份-114" x="2" y="0" width="1" height="6"></rect>
                                <rect id="矩形备份-115" x="4" y="0" width="1" height="6"></rect>
                            </g>
                        </g>
                        <path d="M1,4 C0.448606061,4 0,3.55139394 0,3 C0,2.44860606 0.448606061,2 1,2 C1.55139394,2 2,2.44860606 2,3 C2,3.55139394 1.55139394,4 1,4 Z" id="路径" fill-rule="nonzero"></path>
                    </g>
                    <g id="编组-27" fill="#778DC3">
                        <rect id="矩形备份-76" x="0" y="0" width="1" height="6"></rect>
                        <rect id="矩形备份-90" x="2" y="0" width="1" height="6"></rect>
                        <rect id="矩形备份-91" x="4" y="0" width="1" height="6"></rect>
                        <rect id="矩形备份-92" x="6" y="0" width="1" height="6"></rect>
                        <rect id="矩形备份-93" x="8" y="0" width="1" height="6"></rect>
                        <rect id="矩形备份-94" x="10" y="0" width="1" height="6"></rect>
                        <rect id="矩形备份-95" x="12" y="0" width="1" height="6"></rect>
                        <rect id="矩形备份-96" x="14" y="0" width="1" height="6"></rect>
                        <rect id="矩形备份-97" x="16" y="0" width="1" height="6"></rect>
                        <rect id="矩形备份-98" x="18" y="0" width="1" height="6"></rect>
                        <rect id="矩形备份-99" x="20" y="0" width="1" height="6"></rect>
                        <rect id="矩形备份-100" x="22" y="0" width="1" height="6"></rect>
                        <rect id="矩形备份-101" x="24" y="0" width="1" height="6"></rect>
                        <rect id="矩形备份-102" x="26" y="0" width="1" height="6"></rect>
                        <rect id="矩形备份-103" x="28" y="0" width="1" height="6"></rect>
                        <rect id="矩形备份-104" x="30" y="0" width="1" height="6"></rect>
                        <rect id="矩形备份-105" x="32" y="0" width="1" height="6"></rect>
                        <rect id="矩形备份-106" x="34" y="0" width="1" height="6"></rect>
                        <rect id="矩形备份-107" x="36" y="0" width="1" height="6"></rect>
                        <rect id="矩形备份-108" x="38" y="0" width="1" height="6"></rect>
                    </g>
                </g>
                <g id="container-brick.tabs-container" transform="translate(0.000000, 6.000000)">
                    <rect id="矩形备份-43" fill="#1A7AFF" x="11" y="0" width="16" height="6.66666667" rx="1"></rect>
                    <rect id="矩形备份-119" fill="#D6DBEC" x="35" y="0" width="16" height="6.66666667" rx="1"></rect>
                    <rect id="矩形备份-121" fill="#D6DBEC" x="59" y="0" width="16" height="6.66666667" rx="1"></rect>
                    <rect id="矩形" fill="#F4F5F9" x="0" y="11" width="105" height="1"></rect>
                    <rect id="矩形" fill="#1A7AFF" x="10" y="11" width="18" height="1"></rect>
                </g>
            </g>
        </g>
    </g>
</svg>