<?xml version="1.0" encoding="UTF-8"?>
<svg width="40px" height="36px" viewBox="0 0 40 36" version="1.1" xmlns="http://www.w3.org/2000/svg" xmlns:xlink="http://www.w3.org/1999/xlink">
    <title>分组可勾选表格2</title>
    <g id="页面-1" stroke="none" stroke-width="1" fill="none" fill-rule="evenodd">
        <g id="分组可勾选表格2">
            <path d="M2,0 L38,0 C39.1045695,0 40,0.8954305 40,2 L40,4 L40,4 L0,4 L0,2 C0,0.8954305 0.8954305,2.22044605e-16 2,0 Z" id="矩形" fill="#000000"></path>
            <rect id="矩形" stroke="#000000" stroke-width="2" transform="translate(20, 18) scale(1, -1) translate(-20, -18)" x="1" y="1" width="38" height="34" rx="2"></rect>
            <rect id="矩形" stroke="#000000" stroke-width="2" transform="translate(20, 18) scale(1, -1) translate(-20, -18)" x="14" y="1" width="12" height="34"></rect>
            <line x1="0" y1="19" x2="40" y2="19" id="路径" stroke="#000000" stroke-width="2"></line>
            <line x1="13.5" y1="11" x2="39.5" y2="11" id="路径" stroke="#000000" stroke-width="2"></line>
            <line x1="13.5" y1="27" x2="39.5" y2="27" id="路径" stroke="#000000" stroke-width="2"></line>
            <line x1="28.5" y1="23" x2="31.5" y2="23" id="路径" stroke="#000000" stroke-width="2"></line>
            <line x1="33.5" y1="23" x2="36.5" y2="23" id="路径" stroke="#000000" stroke-width="2"></line>
            <line x1="28.5" y1="15" x2="31.5" y2="15" id="路径" stroke="#000000" stroke-width="2"></line>
            <line x1="33.5" y1="15" x2="36.5" y2="15" id="路径" stroke="#000000" stroke-width="2"></line>
            <line x1="28.5" y1="7" x2="31.5" y2="7" id="路径" stroke="#000000" stroke-width="2"></line>
            <line x1="33.5" y1="7" x2="36.5" y2="7" id="路径" stroke="#000000" stroke-width="2"></line>
            <line x1="28.5" y1="31" x2="31.5" y2="31" id="路径" stroke="#000000" stroke-width="2"></line>
            <line x1="33.5" y1="31" x2="36.5" y2="31" id="路径" stroke="#000000" stroke-width="2"></line>
        </g>
    </g>
</svg>