<?xml version="1.0" encoding="UTF-8"?>
<svg width="518px" height="45px" viewBox="0 0 518 45" version="1.1" xmlns="http://www.w3.org/2000/svg" xmlns:xlink="http://www.w3.org/1999/xlink">
    <title>左</title>
    <defs>
        <linearGradient x1="101.013043%" y1="0%" x2="-0.763760377%" y2="0%" id="linearGradient-1">
            <stop stop-color="#05142D" offset="0%"></stop>
            <stop stop-color="#4188E2" offset="50.231326%"></stop>
            <stop stop-color="#05142D" offset="100%"></stop>
        </linearGradient>
        <linearGradient x1="100%" y1="50%" x2="-0.825117613%" y2="50%" id="linearGradient-2">
            <stop stop-color="#4188E2" offset="0%"></stop>
            <stop stop-color="#05142D" offset="100%"></stop>
        </linearGradient>
    </defs>
    <g id="页面-1" stroke="none" stroke-width="1" fill="none" fill-rule="evenodd">
        <g id="标题装饰" transform="translate(0.726589, 1.000000)">
            <polygon id="矩形" fill="#4188E2" points="499.76434 32 1012.27341 32 1008.2004 36 503.273411 36"></polygon>
            <polyline id="路径-19" stroke="url(#linearGradient-1)" stroke-width="2" points="9 1.30095179e-13 440.154962 0 468.082523 35.6518311 486.683734 35.6518311 492.998992 42.4178534 1016.00446 42.4178534 1022.7785 35.6518311 1043.16661 35.6518311 1074.99925 0 1511.27341 4.52095464e-13"></polyline>
            <path d="M437.347855,16 L448,36 L440.76193,36 L429.755656,16 L437.347855,16 Z M418.089936,16 L428.742081,36 L421.504012,36 L410.497738,16 L418.089936,16 Z M398.832018,16 L409.484163,36 L402.246093,36 L391.239819,16 L398.832018,16 Z M379.574099,16 L390.226244,36 L382.988175,36 L371.9819,16 L379.574099,16 Z M359.302606,16 L369.954751,36 L362.716681,36 L351.710407,16 L359.302606,16 Z M341.058262,16 L351.710407,36 L344.472338,36 L333.466063,16 L341.058262,16 Z M321.800344,16 L332.452489,36 L325.214419,36 L314.208145,16 L321.800344,16 Z M301.52885,16 L312.180995,36 L304.942926,36 L293.936652,16 L301.52885,16 Z M282.270932,16 L292.923077,36 L285.685007,36 L274.678733,16 L282.270932,16 Z M259.972289,16 L270.624434,36 L263.386365,36 L252.38009,16 L259.972289,16 Z M236.660072,16 L247.312217,36 L240.074147,36 L229.067873,16 L236.660072,16 Z M213.347855,16 L224,36 L216.76193,36 L205.755656,16 L213.347855,16 Z M191.049212,16 L201.701357,36 L194.463288,36 L183.457014,16 L191.049212,16 Z M167.736995,16 L178.38914,36 L171.151071,36 L160.144796,16 L167.736995,16 Z M145.438353,16 L156.090498,36 L148.852428,36 L137.846154,16 L145.438353,16 Z M122.126135,16 L132.778281,36 L125.540211,36 L114.533937,16 L122.126135,16 Z M98.8139183,16 L109.466063,36 L102.227994,36 L91.2217195,16 L98.8139183,16 Z M76.5152758,16 L87.1674208,36 L79.9293511,36 L68.9230769,16 L76.5152758,16 Z M53.2030586,16 L63.8552036,36 L56.6171339,36 L45.6108597,16 L53.2030586,16 Z M29.8908414,16 L40.5429864,36 L33.3049167,36 L22.2986425,16 L29.8908414,16 Z M7.59219884,16 L18.2443439,36 L11.0062742,36 L0,16 L7.59219884,16 Z" id="形状结合" fill="url(#linearGradient-2)"></path>
        </g>
    </g>
</svg>