<?xml version="1.0" encoding="UTF-8"?>
<svg width="518px" height="45px" viewBox="0 0 518 45" version="1.1" xmlns="http://www.w3.org/2000/svg" xmlns:xlink="http://www.w3.org/1999/xlink">
    <title>右</title>
    <defs>
        <linearGradient x1="101.013043%" y1="0%" x2="-0.763760377%" y2="0%" id="linearGradient-1">
            <stop stop-color="#05142D" offset="0%"></stop>
            <stop stop-color="#4188E2" offset="50.231326%"></stop>
            <stop stop-color="#05142D" offset="100%"></stop>
        </linearGradient>
        <linearGradient x1="0%" y1="50%" x2="100%" y2="50%" id="linearGradient-2">
            <stop stop-color="#4188E2" offset="0%"></stop>
            <stop stop-color="#05142D" offset="100%"></stop>
        </linearGradient>
    </defs>
    <g id="页面-1" stroke="none" stroke-width="1" fill="none" fill-rule="evenodd">
        <g id="标题装饰" transform="translate(-994.273411, 1.000000)">
            <polygon id="矩形" fill="#4188E2" points="499.76434 32 1012.27341 32 1008.2004 36 503.273411 36"></polygon>
            <polyline id="路径-19" stroke="url(#linearGradient-1)" stroke-width="2" points="9 1.30095179e-13 440.154962 0 468.082523 35.6518311 486.683734 35.6518311 492.998992 42.4178534 1016.00446 42.4178534 1022.7785 35.6518311 1043.16661 35.6518311 1074.99925 0 1511.27341 4.52095464e-13"></polyline>
            <path d="M1081.89913,16 L1070.49784,36 L1063,36 L1074.03445,16 L1081.89913,16 Z M1101.66668,16 L1090.26539,36 L1082.76754,36 L1093.80199,16 L1101.66668,16 Z M1121.43422,16 L1110.03293,36 L1102.53508,36 L1113.56953,16 L1121.43422,16 Z M1141.20176,16 L1129.80047,36 L1122.30263,36 L1133.33708,16 L1141.20176,16 Z M1160.9693,16 L1149.56801,36 L1142.07017,36 L1153.10462,16 L1160.9693,16 Z M1180.73684,16 L1169.33555,36 L1161.83771,36 L1172.87216,16 L1180.73684,16 Z M1200.50439,16 L1189.1031,36 L1181.60525,36 L1192.6397,16 L1200.50439,16 Z M1220.27193,16 L1208.87064,36 L1201.37279,36 L1212.40724,16 L1220.27193,16 Z M1242.61784,16 L1231.21656,36 L1223.71871,36 L1234.75316,16 L1242.61784,16 Z M1265.19491,16 L1253.79362,36 L1246.29578,36 L1257.33023,16 L1265.19491,16 Z M1287.54083,16 L1276.13954,36 L1268.6417,36 L1279.67615,16 L1287.54083,16 Z M1309.88675,16 L1298.48546,36 L1290.98761,36 L1302.02206,16 L1309.88675,16 Z M1332.23266,16 L1320.83137,36 L1313.33353,36 L1324.36798,16 L1332.23266,16 Z M1354.57858,16 L1343.17729,36 L1335.67945,36 L1346.7139,16 L1354.57858,16 Z M1376.9245,16 L1365.52321,36 L1358.02536,36 L1369.05981,16 L1376.9245,16 Z M1399.27041,16 L1387.86913,36 L1380.37128,36 L1391.40573,16 L1399.27041,16 Z M1421.61633,16 L1410.21504,36 L1402.7172,36 L1413.75165,16 L1421.61633,16 Z M1443.96225,16 L1432.56096,36 L1425.06312,36 L1436.09757,16 L1443.96225,16 Z M1466.30817,16 L1454.90688,36 L1447.40903,36 L1458.44348,16 L1466.30817,16 Z M1488.65408,16 L1477.25279,36 L1469.75495,36 L1480.7894,16 L1488.65408,16 Z M1511,16 L1499.59871,36 L1492.10087,36 L1503.13532,16 L1511,16 Z" id="形状结合" fill="url(#linearGradient-2)"></path>
        </g>
    </g>
</svg>