<svg xmlns="http://www.w3.org/2000/svg" xmlns:xlink="http://www.w3.org/1999/xlink" width="132" height="32"><defs><path id="a" d="M0 .046h36.507v15.597H0z"/></defs><g fill="none" fill-rule="evenodd"><path fill="currentColor" d="M41.935 22.77V7.623h10.586v2.338H44.69V13.7h7.067v2.295H44.69v4.437h8.357v2.338zm17.558-1.858c.816 0 1.435-.044 1.858-.131v-2.93a5.909 5.909 0 0 0-1.552-.197 6.219 6.219 0 0 0-.885.067 2.753 2.753 0 0 0-.808.24c-.24.117-.434.28-.58.492-.145.211-.218.477-.218.798 0 .626.197 1.06.59 1.3.393.24.925.36 1.595.36m-.218-9.856c.874 0 1.61.11 2.207.328.597.218 1.074.524 1.431.918.358.393.613.87.766 1.431.152.561.229 1.177.229 1.847v6.928a33.16 33.16 0 0 1-1.847.317c-.823.124-1.752.186-2.786.186a8.365 8.365 0 0 1-1.88-.197c-.568-.131-1.053-.342-1.453-.634a2.987 2.987 0 0 1-.94-1.136c-.226-.466-.339-1.042-.339-1.727 0-.655.128-1.209.383-1.66.255-.452.6-.82 1.038-1.105a4.5 4.5 0 0 1 1.519-.611 8.556 8.556 0 0 1 2.72-.131c.321.036.664.098 1.028.185v-.437a3.43 3.43 0 0 0-.11-.874c-.073-.277-.2-.52-.382-.732a1.796 1.796 0 0 0-.721-.492c-.299-.116-.674-.175-1.126-.175-.612 0-1.173.044-1.683.131-.51.088-.925.19-1.245.306l-.328-2.141c.335-.117.823-.233 1.464-.35a11.468 11.468 0 0 1 2.055-.175m10.73 9.813c.7 0 1.21-.084 1.53-.251.32-.168.481-.456.481-.864 0-.378-.172-.692-.513-.94-.343-.247-.907-.516-1.694-.808a13.27 13.27 0 0 1-1.323-.558 4.508 4.508 0 0 1-1.038-.688 2.82 2.82 0 0 1-.688-.95c-.168-.372-.251-.827-.251-1.366 0-1.05.385-1.876 1.158-2.481.772-.604 1.821-.907 3.147-.907.67 0 1.312.062 1.923.186.612.124 1.071.244 1.377.36l-.48 2.142a6.486 6.486 0 0 0-1.115-.36 6.75 6.75 0 0 0-1.574-.164c-.54 0-.976.09-1.311.273a.897.897 0 0 0-.503.841c0 .19.033.358.099.503.065.146.178.28.338.404.16.124.372.248.634.372s.582.251.962.382a14.81 14.81 0 0 1 1.595.689c.437.226.798.48 1.082.764.284.285.492.609.623.973.13.365.196.802.196 1.311 0 1.093-.404 1.92-1.212 2.481-.81.56-1.964.841-3.465.841-1.005 0-1.813-.084-2.425-.251-.612-.167-1.042-.302-1.29-.404l.459-2.208c.394.16.863.314 1.41.46a7.298 7.298 0 0 0 1.868.218m16.457-9.528c-1.178 4.341-2.546 8.275-4.101 11.8a11.961 11.961 0 0 1-.897 1.684 5.02 5.02 0 0 1-1.029 1.158c-.38.306-.802.528-1.269.667-.467.138-1.006.207-1.619.207-.408 0-.813-.044-1.214-.13-.401-.088-.704-.183-.908-.285l.48-2.12a4.297 4.297 0 0 0 1.56.306c.687 0 1.225-.164 1.613-.492.388-.327.728-.834 1.021-1.519a61.098 61.098 0 0 1-2.403-5.245 57.64 57.64 0 0 1-2.053-6.032h2.82c.146.612.325 1.275.537 1.989a60.6 60.6 0 0 0 1.481 4.37c.278.73.556 1.407.834 2.033a59.585 59.585 0 0 0 1.305-4.141 139.01 139.01 0 0 0 1.11-4.25h2.732zm26.685 5.769c0-1.18-.266-2.098-.798-2.754-.532-.656-1.388-.983-2.568-.983-.248 0-.506.01-.776.032s-.536.07-.798.142v6.535c.233.16.543.31.93.448a3.63 3.63 0 0 0 1.234.208c.962 0 1.664-.328 2.109-.984.444-.655.667-1.537.667-2.644m2.71-.044c0 .874-.114 1.676-.34 2.404-.226.729-.55 1.355-.972 1.88-.423.524-.95.932-1.584 1.224-.634.29-1.352.437-2.153.437-.54 0-1.035-.066-1.486-.197a5.545 5.545 0 0 1-1.115-.437v4.436h-2.644V11.711a21.128 21.128 0 0 1 1.988-.416 15.13 15.13 0 0 1 2.492-.196c.903 0 1.712.138 2.426.415a5.06 5.06 0 0 1 1.825 1.191 5.252 5.252 0 0 1 1.158 1.88c.27.735.404 1.562.404 2.48m5.595 3.803c.7 0 1.21-.084 1.53-.251.32-.168.481-.456.481-.864 0-.378-.171-.692-.514-.94-.342-.247-.907-.516-1.693-.808a13.27 13.27 0 0 1-1.323-.558 4.508 4.508 0 0 1-1.038-.688 2.82 2.82 0 0 1-.688-.95c-.168-.372-.252-.827-.252-1.366 0-1.05.386-1.876 1.159-2.481.772-.604 1.821-.907 3.147-.907.67 0 1.311.062 1.923.186.612.124 1.071.244 1.377.36l-.48 2.142a6.486 6.486 0 0 0-1.115-.36 6.75 6.75 0 0 0-1.574-.164c-.54 0-.976.09-1.311.273a.897.897 0 0 0-.503.841c0 .19.033.358.098.503.066.146.179.28.34.404.16.124.37.248.633.372.262.124.582.251.962.382a14.81 14.81 0 0 1 1.595.689c.437.226.798.48 1.082.764.284.285.492.609.623.973.13.365.196.802.196 1.311 0 1.093-.404 1.92-1.213 2.481-.808.56-1.963.841-3.464.841-1.005 0-1.813-.084-2.426-.251-.611-.167-1.041-.302-1.289-.404l.459-2.208c.394.16.863.314 1.41.46a7.298 7.298 0 0 0 1.868.218M92.198 9.64l.289 1.601a5.025 5.025 0 0 1 5.998-.252l1.77-.319.31-1.703a7.866 7.866 0 0 0-3.98-1.656 7.883 7.883 0 0 0-6.234 1.994l1.847.336zm9.169 2.144l-1.712.309a5.023 5.023 0 0 1 .319 5.667l.325 1.804 1.7.31a7.866 7.866 0 0 0 1.506-3.784 7.88 7.88 0 0 0-1.822-6.04l-.316 1.734zm-11.33 6.726l1.613-.291a5.023 5.023 0 0 1-.256-5.746l-.31-1.72-1.76-.32a7.864 7.864 0 0 0-1.517 3.798 7.883 7.883 0 0 0 1.893 6.126l.337-1.847zm9.148 2.166l-.297-1.65a5.024 5.024 0 0 1-6.075.298l-1.664.3-.326 1.791a7.867 7.867 0 0 0 3.903 1.595 7.884 7.884 0 0 0 6.25-2.007l-1.791-.327zM18.254 30.985c-4.674 0-8.477-3.803-8.477-8.477v-1.866a2.559 2.559 0 1 1 5.118 0v1.866a3.362 3.362 0 0 0 3.359 3.359 3.362 3.362 0 0 0 3.358-3.359v-1.866a2.559 2.559 0 0 1 5.118 0v1.866c0 4.674-3.802 8.477-8.476 8.477"/><g transform="translate(0 .186)"><mask id="b" fill="#fff"><use xlink:href="#a"/></mask><path fill="currentColor" d="M33.954 9.85c-.679 0-1.294.268-1.752.7-.776.5-1.72.802-2.814.802-1.09 0-1.826-.301-2.597-.797a3.248 3.248 0 0 0-.812-.808c-.488-.763-.781-1.507-.781-2.582 0-1.083.296-2.035.788-2.807a2.553 2.553 0 1 0-3.7-.008c.499.777.802 1.721.802 2.815 0 1.09-.302 1.826-.798 2.596a3.23 3.23 0 0 0-.8.803c-.788.49-2.154.788-3.236.788-1.093 0-2.462-.303-3.246-.8a3.248 3.248 0 0 0-.79-.79c-.497-.771-.799-1.508-.799-2.597 0-1.094.304-2.038.802-2.814.433-.458.7-1.074.7-1.752a2.553 2.553 0 1 0-4.4 1.76c.492.771.788 1.723.788 2.806 0 1.075-.293 1.819-.781 2.582a3.245 3.245 0 0 0-.812.808c-.77.496-1.507.797-2.597.797-1.093 0-2.037-.303-2.814-.802a2.553 2.553 0 1 0 .008 3.7c.772-.492 1.723-.788 2.806-.788 1.076 0 1.82.294 2.583.782a3.23 3.23 0 0 0 5.312.014c.781-.497 2.151-.796 3.24-.796 1.08 0 2.45.296 3.234.789a3.229 3.229 0 0 0 5.318-.007c.763-.488 1.507-.782 2.582-.782 1.083 0 2.034.296 2.806.788a2.553 2.553 0 1 0 1.76-4.4" mask="url(#b)"/></g></g></svg>
