<?xml version="1.0" encoding="UTF-8"?>
<svg width="20px" height="20px" viewBox="0 0 20 20" version="1.1" xmlns="http://www.w3.org/2000/svg" xmlns:xlink="http://www.w3.org/1999/xlink">
    <title>切片</title>
    <g id="page-01" stroke="none" stroke-width="1" fill="none" fill-rule="evenodd">
        <g id="二级菜单" transform="translate(-421.000000, -2483.000000)">
            <g id="2.导航/7.Slide-Menu侧边菜单/灰色/展开-带分类备份" transform="translate(241.000000, 1675.000000)">
                <g id="编组-18" transform="translate(180.000000, 808.000000)">
                    <rect id="矩形备份-6" x="0" y="0" width="20" height="20"></rect>
                    <g id="钉住" transform="translate(3.400000, 3.500000)" fill="#595959" fill-rule="nonzero">
                        <path d="M9.66,0.26507473 L12.88,3.34507473 C13.3,3.62507473 13.3,4.18507473 13.02,4.60507473 C12.6,5.02507473 12.04,5.02507473 11.76,4.74507473 L11.62,4.60507473 L11.34,4.32507473 L8.12,8.94507473 L9.1,9.92507473 C9.38,10.3450747 9.38,10.9050747 8.96,11.1850747 C8.68,11.4650747 8.26,11.4650747 7.84,11.1850747 L1.96,5.16507473 C1.68,4.74507473 1.68,4.32507473 1.96,3.90507473 C2.24,3.62507473 2.8,3.62507473 3.08,3.90507473 L4.06,4.88507473 L8.68,1.66507473 L8.54,1.52507473 C8.12,1.10507473 8.12,0.68507473 8.4,0.26507473 C8.68,-0.01492527 9.24,-0.15492527 9.66,0.26507473 Z M4.9,9.36507473 L3.78,8.24507473 C2.8,9.36507473 1.26,11.0450747 0.98,11.4650747 C0.56,11.8850747 0.28,12.4450747 0,13.0050747 C0.7,12.8650747 1.26,12.5850747 1.68,12.1650747 C2.1,11.8850747 3.78,10.3450747 4.9,9.36507473 L4.9,9.36507473 Z" id="形状"></path>
                    </g>
                </g>
            </g>
        </g>
    </g>
</svg>